<?xml version="1.0" encoding="utf-8"?>
<!-- Generator: Adobe Illustrator 26.0.3, SVG Export Plug-In . SVG Version: 6.00 Build 0)  -->
<svg version="1.1" id="Layer_1" xmlns="http://www.w3.org/2000/svg" xmlns:xlink="http://www.w3.org/1999/xlink" x="0px" y="0px"
	 viewBox="0 0 3839 1558.9" style="enable-background:new 0 0 3839 1558.9;" xml:space="preserve">
<style type="text/css">
	.st0{fill-rule:evenodd;clip-rule:evenodd;fill:#FFFFFF;}
	.st1{fill:#FFFFFF;}
	.st2{fill-rule:evenodd;clip-rule:evenodd;}
</style>
<g>
	<g>
		<path class="st1" d="M2264.4,1466.5c-38.5-2.9-65-7.3-79.7-13.2c-27.1-11-45.6-25.4-55.5-43.4c-9.9-18-14.8-40.8-14.8-68.7
			l0.1-120.9c-3.3,1.8-6.7,3.4-10,5l-0.1,115.9c0,29.8,5.2,53.9,16,73.5c10.9,19.9,31.3,36,60.5,47.9c15.8,6.3,42.9,10.9,82.6,13.9
			c33,2.6,58.7,4.5,78.2,6v66.4h-844.6v-66.4c19.5-1.5,45.2-3.4,78.1-6c39.8-3,66.8-7.5,82.7-13.9c29.2-11.9,49.5-27.9,60.5-47.8
			c10.8-19.6,16-43.7,16-73.5l-0.4-610.3c-3.2,1.6-6.6,2.9-10,4.2l0.4,606.2c0,27.9-4.9,50.7-14.8,68.7c-9.9,18-28.4,32.4-55.5,43.4
			c-14.7,5.9-41.2,10.3-79.7,13.2c-38.5,3-67.6,5.2-87.4,6.7v85.7h864.6v-85.7C2332,1471.7,2302.9,1469.5,2264.4,1466.5z"/>
		<path class="st1" d="M1487.2,0v85.8c24.7,2.9,54.2,8.2,88.2,15.8c34.4,7.7,60.4,15.2,78,22.5c27.8,11.7,46.5,27.1,56.1,46.1
			c9.5,19.1,14.3,41,14.3,65.9l0,39.4c0.3,0.2,0.7,0.3,1,0.5c2.9,1.3,6,2.5,9,3.6l0-43.4c0-26.2-5.2-49.9-15.3-70.3l0-0.1
			c-10.7-21.1-31.2-38.2-61.1-50.8l0,0l0,0c-18-7.5-44.8-15.2-79.6-23c-30.2-6.8-57.2-11.8-80.4-14.9V10h844.6v67
			c-23.2,3.1-50.1,8.1-80.4,14.9c-34.8,7.8-61.6,15.5-79.6,23l0,0l0,0c-29.9,12.6-50.5,29.7-61.1,50.8l0,0l0,0
			c-10.2,20.5-15.3,44.1-15.3,70.3l0,13.2c3.3-0.6,6.7-1.1,10-1.5l0-11.7c0-24.9,4.8-46.8,14.3-65.9c9.6-19,28.3-34.4,56.1-46.1
			c17.6-7.3,43.6-14.8,78-22.5c34-7.6,63.4-12.9,88.2-15.8V0H1487.2z"/>
		<path class="st1" d="M2114.7,1063.6l0.1-107.3c-3.4-1-6.7-2.1-10-3.2l-0.1,112.1c0.2,0,0.4-0.1,0.7-0.1
			C2108.4,1064.5,2111.5,1064,2114.7,1063.6z"/>
	</g>
	<g>
		<polygon class="st0" points="1347.2,1184.8 1378.8,1184.8 1363.1,1144.8 		"/>
		<path class="st0" d="M974,1132.4h-18.3v37.2h18.5c13.9,0,22.3-7.2,22.3-18.3v-0.4C996.5,1138.9,988.1,1132.4,974,1132.4z"/>
		<path class="st0" d="M3374.9,1015.6H464.1c-85.3,0-154.4,69.1-154.4,154.4c0,85.3,69.1,154.4,154.4,154.4h2910.9
			c85.3,0,154.4-69.1,154.4-154.4S3460.2,1015.6,3374.9,1015.6z M1035.4,1149.5c0,33.1-25.5,50.6-60.5,50.6h-19.3v40.2h-39v-140.6
			h0.1H977c35.5,0,58.4,18.3,58.4,49.4V1149.5z M1219.2,1240.2h-107v-140.5h38.9v106.4h68.1V1240.2z M1400.4,1240.3l-10.2-25.1
			h-54.4l-10,25.1h-41l59.9-141.6h37.6l59.9,141.6H1400.4z M1573.7,1187.1v53.2h-39.2v-52.6l-53.4-88h44.4l28.9,51.2l29.1-51.2h43.6
			L1573.7,1187.1z M1927.2,1196.9c0,28.7-22.7,45.8-56.8,45.8c-24.8,0-48.5-7.8-65.8-23.3l21.7-25.9c13.9,11,29.3,16.9,45.6,16.9
			c10.4,0,16.1-3.6,16.1-9.6v-0.4c0-5.8-4.6-9-23.7-13.5c-29.9-6.8-53-15.3-53-44.2v-0.4c0-26.1,20.7-45,54.4-45
			c23.9,0,42.6,6.4,57.8,18.7l-19.5,27.5c-12.9-9-26.9-13.9-39.4-13.9c-9.4,0-14.1,4-14.1,9v0.4c0,6.4,4.8,9.2,24.3,13.7
			c32.3,7,52.4,17.5,52.4,43.8V1196.9z M2080.2,1187.1v53.2H2041v-52.6h0l-53.4-88h44.4l28.9,51.2l29.1-51.2h43.6L2080.2,1187.1z
			 M2310.8,1196.9c0,28.7-22.7,45.8-56.8,45.8c-24.9,0-48.6-7.8-65.9-23.3l21.7-25.9c13.9,11,29.3,16.9,45.6,16.9
			c10.4,0,16.1-3.6,16.1-9.6v-0.4c0-5.8-4.6-9-23.7-13.5c-29.9-6.8-53-15.3-53-44.2v-0.4c0-26.1,20.7-45,54.4-45
			c23.9,0,42.6,6.4,57.8,18.7l-19.4,27.5c-12.9-9-26.9-13.9-39.4-13.9c-9.4,0-14.1,4-14.1,9v0.4c0,6.4,4.8,9.2,24.3,13.7
			c32.3,7,52.4,17.5,52.4,43.8V1196.9z M2501.4,1133.8h-42.2v106.4h-39v-106.4h-42.1v-34.1h123.3V1133.8z M2692.8,1240.2h-114.1
			v-140.5h113.1v33.1h-74.5v21.3h67.5v30.7h-67.5v22.3h75.5V1240.2z M2922.4,1240.3h-38.8v-80.8l-36,55h-0.8l-35.7-54.6v80.3h-38.2
			v-140.5h0.1h41.2l33.5,54.4l33.5-54.4h41.2V1240.3z"/>
	</g>
	<g>
		<path class="st1" d="M3838.3,767.5l-23,1.6c-1.1,0.1-4.1-0.2-5.5-1.4c-3.1-2.7-5.1-7.2-6.4-13.7l-45.2-288.9
			c-2.2-14-1.1-17.5,16.1-25.8l12.1-5.9l0-181.1h-360.9l-11.5,39.2l-15.4-39.2h-349.3v109.3c-70.4-80.6-176-127.1-294.2-127.1
			c-122.1,0-236.6,45.4-312.1,122.5c-63.3-79.8-162.8-121.7-289.7-121.7c-116.7,0-214.2,45.3-290.2,134.9
			c-50.9-81.3-109.4-117.9-263.3-117.9h-346.5v171.1l0.2,16.1l15.4,4.5c2.2,0.6,6.5,2.4,10.1,4.8c3,2,5,5.2,5.4,8.8
			c0.2,1.5,0.3,3.4,0.3,5.7c0,6-0.4,154.4-0.6,248.7l-177.3-459.7H845.3l-166.5,441v-24H513.1l-15.3,0.2l-5,14.4
			c-1.3,3.8-14.5,37.5-60.9,37.5c-52.6,0-110.9-43.5-114.6-139.1c-1.8-47.8,23.9-78.4,46.4-90.1c3.8-2,7.4-3.5,10.5-4.5
			c10-3.5,19.6,6.1,16.1,16.1c-1.6,4.5-4.8,9.9-10.5,16.3l-19,18.2l155.3,107l202.5-214.8l-6.9-13.5c-3.8-7.3-94.9-180-323.8-180
			C163.1,237,0,395.5,0,613.8c0,204.6,183.8,364.8,418.3,364.8h1209.8l-0.1-182.7l-17.8-3.1c-2.2-0.4-4.5-0.9-6.8-1.5
			c84.3-22.2,159.4-65.7,201.2-96.1c56.1,173.3,216,283.5,416.5,283.5h238.2v-91.4c51.5,42.4,153,108.4,285.8,108.4
			c102.4,0,188.3-46.3,234.1-77.1v60.5h348.5V852.7h143.3v125.8H3839V790.5L3838.3,767.5z M3817.5,957.1h-325V831.3h-186.2v126.1
			h-305.6v-81.9c0,0-111.7,98.6-255.6,98.6c-184.2,0-307.2-136-307.2-136v119c0,0-13.5,0-216.7,0c-192.8,0-358.4-106-404.6-299.1
			c-21.9,21-118.5,90.3-234.5,116.4c-9,2-13.5,5.5-13.5,15.3c0,17.9,38.1,24.3,38.1,24.3v143.2c0,0-1002.1,0-1188.4,0
			c-220.1,0-396.9-151.3-396.9-343.3s137.9-355.3,366.4-355.3c218.4,0,304.7,168.3,304.7,168.3L513.1,617.2l-118.5-81.6
			c0,0,38.9-37.4,3.4-64.6c-27.8-21.2-105.5,23.8-102.2,112.2c3.9,101.9,66.7,159.7,136.1,159.7c64.3,0,81.2-52.1,81.2-52.1h144.3
			v120.1l202.8-537.2h231.9l186.2,482.7c0,0,13.5,25.5,27.1,32.3c0,0,0.8-316.7,0.8-325.6c0-8.9-1.2-18.7-6.7-25
			c-9.1-10.5-24.5-14.9-24.5-14.9V273.8c0,0,214.9,0,325,0c168.5,0,211.8,45.9,260.7,134.3c67.5-91.2,160.4-151.3,292.9-151.3
			c136.4,0,232.8,50.4,287.8,134.3c76.9-92.3,200.8-135.1,314-135.1c139.2,0,255.6,67.7,315.7,172.5V273.8h313.2l33,84.1l24.6-84.1
			h323.3l0,146.2c-22.9,11.1-32.1,22.3-28,48.5l45.2,288.9c1.9,9.4,5.2,19.2,13.2,26.4c9.4,8.4,22,6.8,22,6.8V957.1z"/>
		<path class="st1" d="M903.3,338.3h144.8l176.1,462.4c5.1,12.7,13.5,24.6,22,34.9c8.4,10.2,28.8,17,28.8,17v39.9h-212.5v-40.8
			c0,0,13.5,1.7,20.3-10.2c6.8-11.9,6.8-21.3,1.7-33.2c-5.1-11.9-40.6-106.3-40.6-106.3H870.3c0,0-35.6,95.2-39,103.7
			c-3.4,8.5-3.4,22.1,0,30.6c5.6,14.1,25.4,16.2,25.4,16.2v39.9H686.7v-39.9c0,0,15.5-5.3,27-17c12.7-12.8,17-26.4,17-26.4
			L903.3,338.3 M899.1,615.4h111.7l-57.5-161.5L899.1,615.4z"/>
		<path class="st1" d="M1342.6,338.3c0,0,171,0,270.8,0c99.9,0,199.8,35.7,199.8,151.3s-72.8,156.3-135.4,185.2
			c-72.3,33.4-167.6,59.5-167.6,59.5v88.3c0,0,0.8,6,9.3,16.2c8.4,10.2,17.8,12.7,17.8,12.7v40.8h-196.4v-39.9c0,0,11.9-2.6,20.3-11
			c8.5-8.5,10.2-18.7,10.2-18.7V423.3c0,0,0.8-17-6-23.8c-6.8-6.8-22.8-16.1-22.8-16.1V338.3 M1511.9,421.6v236.3
			c0,0,159.1-66.3,159.1-159.8C1671.1,382.5,1511.9,421.6,1511.9,421.6z"/>
		<path class="st1" d="M2742.6,908.4c-182.8,0-314.3-134.1-314.3-297.2s134.8-289.7,314.3-289.7c179.5,0,314.3,126.5,314.3,289.7
			S2925.5,908.4,2742.6,908.4 M2580.1,613.8c0,163.2,82.9,204,162.5,204c79.5,0,164.2-51,164.2-204c0-153-94.8-204-164.2-204
			C2673.2,409.8,2580.1,450.6,2580.1,613.8z"/>
		<path class="st1" d="M3138.7,338.7h201.5l72.8,225.7l77.8-226.1h210.8v33.2c0,0-14,5.9-20.3,13.6c-7.6,9.3-7.6,16.2-5.9,29.8
			c1.7,13.6,55.8,382.4,57.5,396c1.7,13.7,3.4,21.3,6.8,30.6c3.3,9.3,19.4,17,19.4,17v34.3h-202.3V856c0,0,17.8-2.6,23.7-11.1
			c6-8.5,8.5-13.6,6.8-27.2c-1.7-13.6-49.9-323-49.9-323l-88,273.7h-106.6l-87.2-256.7l-44,302.6c0,0-1.7,18.1,5.1,28
			c9.3,13.7,26.2,13.7,26.2,13.7v36.5h-175.2v-39.1c0,0,13.9-2.2,24.1-14c10.2-11.9,11.9-27.2,11.9-27.2l63.9-399
			c0,0,3.8-14.9-0.4-21.7c-4.4-7.2-28.4-13.2-28.4-13.2V338.7"/>
		<path class="st1" d="M607.1,429.7l-94.5,99.5c-5,5.2-13.1,5.7-18.7,1.2l-16.1-13.2c-0.7-0.6-1.1-1.6-1.1-2.9
			c0-3.4,9.3-11.9,9.3-28c0-16.2-3.3-83.3-106.6-83.3c-103.2,0-149,96.9-149,176.8c0,79.9,49.1,226.1,209.9,226.1
			c93.6,0,113.4-52.7,113.4-52.7h32.2v137.7H409.9C200,890.8,83.1,725.9,83.1,606.9c0-182.5,158-283.7,301.3-283.7
			C523.3,323.3,607.1,429.7,607.1,429.7"/>
		<path class="st1" d="M2399.8,430.7l-94.5,99.5c-5,5.2-13.1,5.7-18.7,1.2l-16.1-13.2c-0.7-0.6-1.1-1.6-1.1-2.9
			c0-3.4,9.3-11.9,9.3-28c0-16.2-3.3-83.3-106.6-83.3c-103.2,0-149,96.9-149,176.8c0,79.9,49.1,226.1,209.9,226.1
			c93.6,0,113.4-52.7,113.4-52.7h32.2v137.7h-176.1c-209.9,0-326.7-164.9-326.7-283.8c0-182.5,158-283.7,301.3-283.7
			C2316,324.2,2399.8,430.7,2399.8,430.7"/>
	</g>
</g>
</svg>
