<?xml version="1.0" encoding="UTF-8" standalone="no"?>
<!-- Created with Inkscape (http://www.inkscape.org/) -->

<svg
   width="1000"
   height="486.88101"
   viewBox="0 0 264.58333 128.8206"
   version="1.1"
   id="svg8"
   sodipodi:docname="Mario.svg"
   inkscape:version="1.2.2 (732a01da63, 2022-12-09)"
   xmlns:inkscape="http://www.inkscape.org/namespaces/inkscape"
   xmlns:sodipodi="http://sodipodi.sourceforge.net/DTD/sodipodi-0.dtd"
   xmlns="http://www.w3.org/2000/svg"
   xmlns:svg="http://www.w3.org/2000/svg"
   xmlns:rdf="http://www.w3.org/1999/02/22-rdf-syntax-ns#"
   xmlns:cc="http://creativecommons.org/ns#"
   xmlns:dc="http://purl.org/dc/elements/1.1/">
  <defs
     id="defs2" />
  <sodipodi:namedview
     id="base"
     pagecolor="#ffffff"
     bordercolor="#666666"
     borderopacity="1.0"
     inkscape:pageopacity="0.0"
     inkscape:pageshadow="2"
     inkscape:zoom="0.7"
     inkscape:cx="99.285714"
     inkscape:cy="357.14286"
     inkscape:document-units="px"
     inkscape:current-layer="layer1"
     showgrid="false"
     units="px"
     inkscape:window-width="1920"
     inkscape:window-height="1009"
     inkscape:window-x="-8"
     inkscape:window-y="-8"
     inkscape:window-maximized="1"
     inkscape:showpageshadow="0"
     inkscape:pagecheckerboard="1"
     inkscape:deskcolor="#d1d1d1" />
  <metadata
     id="metadata5">
    <rdf:RDF>
      <cc:Work
         rdf:about="">
        <dc:format>image/svg+xml</dc:format>
        <dc:type
           rdf:resource="http://purl.org/dc/dcmitype/StillImage" />
        <dc:title />
      </cc:Work>
    </rdf:RDF>
  </metadata>
  <g
     inkscape:label="Layer 1"
     inkscape:groupmode="layer"
     id="layer1"
     transform="translate(0,-168.17939)">
    <path
       style="fill-opacity:1;stroke-width:0.40479305;fill:#ffffff"
       d="M 254.49609 0 C 254.2389 0.0016629921 253.98268 0.014495571 253.72461 0.0390625 L 179.36328 7.1230469 C 177.33933 7.3256296 175.51676 8.4204498 174.42383 10.080078 L 134.39062 69.785156 C 133.25721 71.485301 132.60938 73.551355 132.60938 75.65625 L 132.60938 103.74805 C 132.60938 105.73154 133.6612 107.5935 135.36133 108.60547 L 148.0332 116.33789 L 127.91406 143.09375 C 126.69969 144.71294 126.01172 146.77734 126.01172 148.8418 L 126.05273 176.5293 C 126.05273 178.55327 127.02322 180.37621 128.48047 181.79297 L 147.42578 197.90234 L 94.720703 190.85938 C 92.534821 190.57591 90.430143 191.79048 89.580078 193.81445 L 1.4570312 399.89453 C 0.48552795 402.16138 -2.9605947e-016 404.59077 0 407.01953 L 0 431.34766 C 0 433.6145 1.3364744 435.63876 3.4414062 436.5293 L 105.04297 479.92188 C 106.86454 480.69097 108.9704 479.71879 109.53711 477.81641 L 137.26562 387.38672 L 161.63281 431.14453 C 162.48289 432.68276 164.66932 432.92472 165.80273 431.50781 L 197.53906 392.56836 L 202.96289 483.24219 C 203.08436 485.22565 204.90607 486.6001 206.80859 486.19531 L 293.67773 468.26367 L 353.54492 479.59766 C 355.56889 479.962 357.47303 478.62749 357.79688 476.60352 L 365.32617 432.03516 L 396.61523 427.33984 L 406.6543 475.63086 C 407.09956 477.6548 409.04243 478.99072 411.06641 478.58594 L 479.59766 465.63281 L 480.60938 474.33594 C 480.8524 476.35991 482.67578 477.85723 484.74023 477.69531 L 566.99414 470.28906 C 569.09907 470.08686 570.67773 468.34517 570.67773 466.24023 L 570.63672 442.39844 L 594.35742 478.58594 C 595.53134 480.367 597.83827 481.05459 599.78125 480.16406 L 660.13672 453.16602 L 659.77148 474.69922 C 659.73104 476.72316 661.4306 478.30254 663.41406 478.14062 L 743.1582 472.67578 C 745.34413 472.55446 747.16694 470.89541 747.53125 468.75 L 757.77344 411.06641 L 771.45312 450.49414 C 772.22226 452.72051 774.00414 454.41978 776.23047 455.14844 L 871.96484 486.39844 C 874.23169 487.16757 876.70083 487.00611 878.88672 485.99414 L 969.80273 444.54297 C 971.94815 443.57144 973.52705 441.66919 974.09375 439.40234 L 999.07031 340.5918 C 999.67749 338.16303 1000 335.73487 1000 333.26562 L 1000 314.68555 C 999.7978 312.17583 999.06914 309.82725 997.65234 307.84375 L 938.75586 224.61914 C 937.37958 222.67612 935.23315 221.42202 932.92578 221.13867 L 874.55469 214.05469 L 890.66602 207.21289 C 892.44716 206.44379 893.62109 204.70278 893.62109 202.75977 L 893.62109 172.92578 C 893.62109 170.90181 892.68912 168.99986 891.19141 167.66406 L 870.83008 150.29883 C 871.47774 149.89404 871.88301 149.24623 872.04492 148.51758 L 884.06836 75.736328 C 884.43271 73.631396 884.59375 71.485792 884.59375 69.380859 L 884.59375 51.974609 C 884.59375 49.991113 883.5419 48.170172 881.8418 47.158203 L 816.42578 8.6621094 C 814.64472 7.6096243 812.54159 7.205467 810.51758 7.5292969 L 713.5293 22.384766 C 711.70775 22.66823 710.37109 24.246778 710.37109 26.068359 L 710.37109 32.220703 L 611.23828 14.935547 C 609.45718 14.611641 607.71625 15.704689 607.23047 17.445312 L 601.07617 38.939453 L 553.95898 13.519531 C 552.1374 12.548041 550.0332 12.223582 547.96875 12.587891 L 451.83008 30.277344 C 450.00853 30.64169 448.71289 32.221388 448.71289 34.042969 L 448.71289 51.449219 C 448.71289 51.773124 448.75391 52.055076 448.75391 52.378906 L 389.81641 44.607422 L 389.81641 30.966797 C 389.81641 29.145254 388.43877 27.647706 386.61719 27.445312 L 299.46484 19.267578 C 297.72423 19.105814 296.18643 20.400001 296.10547 22.140625 L 295.66016 29.306641 L 259.47266 1.6582031 C 258.05589 0.56021256 256.29834 -0.0099779529 254.49805 0 L 254.49609 0 z M 250.76953 14.703125 C 252.18963 14.700893 253.60292 15.179243 254.73633 16.029297 L 301.4082 51.771484 C 302.54162 52.581097 302.74407 54.241058 301.85352 55.333984 L 279.75195 83.345703 C 278.86141 84.479108 277.24227 84.721684 276.06836 83.912109 L 230.73242 52.824219 L 217.61719 74.320312 L 295.58008 125.6875 C 296.7945 126.49711 297.27904 128.07683 296.67188 129.45312 L 270.96875 187.70117 C 270.32109 189.11797 268.90345 190.0494 267.36523 190.08984 L 192.39844 191.38477 C 190.77927 191.38477 189.15916 190.81807 187.9043 189.76562 L 142.73047 151.35156 C 141.63753 150.46103 141.47415 148.80137 142.32422 147.66797 L 167.98828 113.46289 C 168.79786 112.36996 170.41825 112.16806 171.4707 113.05859 L 215.39062 150.01562 L 232.23047 127.10352 L 149.85352 76.910156 C 148.63913 76.222018 148.31683 74.602193 149.08594 73.46875 L 182.8457 23.113281 C 183.77672 21.817924 185.19333 20.927389 186.8125 20.765625 L 250.16211 14.734375 C 250.3645 14.714131 250.56666 14.703444 250.76953 14.703125 z M 809.50781 22.203125 C 810.72409 22.237281 811.92373 22.555791 812.98633 23.193359 L 866.66211 54.808594 C 867.99795 55.577728 868.68638 57.075051 868.44336 58.613281 L 859.17383 114.5957 C 858.93096 116.21489 857.95835 117.63233 856.58203 118.48242 L 830.51367 134.71484 L 874.51367 172.23828 C 875.44472 173.04789 875.20232 174.46573 874.10938 174.83008 L 826.01953 195.19141 C 824.64325 195.79859 823.06543 195.31148 822.25586 194.05664 L 786.71484 139.32812 L 784.85352 139.69336 L 786.39062 190.00977 C 786.4311 191.46704 785.33861 192.68141 783.92188 192.80273 L 745.0625 196.24219 C 743.64571 196.36359 742.4313 195.31132 742.26953 193.89453 L 731.54102 89.5 L 739.75977 40.519531 C 740.04312 38.778908 738.86758 37.159841 737.12695 36.835938 L 727.21094 35.095703 C 727.57525 34.812428 727.9796 34.569163 728.50586 34.488281 L 808.29102 22.263672 C 808.69581 22.213073 809.10239 22.19174 809.50781 22.203125 z M 547.46875 27.296875 C 548.70399 27.293082 549.91098 27.596978 551.00391 28.173828 L 605.125 57.359375 C 606.46084 58.08803 607.22874 59.625296 607.10742 61.123047 L 599.21484 114.7168 C 598.97197 116.37646 598.20268 117.91542 596.98828 119.04883 L 567.92383 146.81836 C 566.70947 147.95176 565.13087 148.59938 563.51172 148.7207 L 525.46094 150.82617 L 527.76953 188.1875 C 527.85045 189.60426 526.79765 190.85915 525.38086 190.98047 L 485.58984 194.98828 C 484.17305 195.1502 482.87661 194.1375 482.71484 192.7207 L 471.66406 101.52148 L 478.70898 59.583984 C 478.95186 57.883839 477.7777 56.226018 476.03711 56.023438 L 465.91602 54.6875 L 464.74219 45.011719 C 464.58027 43.594925 465.55199 42.301043 466.96875 42.017578 L 546.22656 27.404297 C 546.64147 27.333459 547.057 27.298139 547.46875 27.296875 z M 619.71289 30.96875 C 619.84081 30.968447 619.97001 30.980537 620.10156 31.005859 L 722.0293 48.736328 C 723.04127 48.938722 723.72817 49.909906 723.56641 50.921875 L 717.13086 89.214844 C 716.96894 90.186258 715.95644 90.795183 715.02539 90.511719 L 661.79492 74.400391 L 654.55078 101.07617 L 702.47852 101.80469 C 703.49048 101.80469 704.21898 102.69453 704.09766 103.66602 L 700.04883 134.67383 C 699.88691 135.64532 698.95537 136.37465 697.94336 136.21289 L 651.35156 129.16797 L 655.48047 157.50391 L 713.20508 148.96289 C 714.21705 148.84145 715.18689 149.52955 715.30859 150.58203 L 721.58398 191.58789 C 721.70542 192.5189 720.97739 193.40958 720.00586 193.36914 L 603.86914 189.24023 C 602.73574 189.24023 601.88618 188.43139 601.68359 187.37891 L 594.23633 141.39453 L 609.82031 126.45703 C 611.31803 125.04024 612.28938 123.09624 612.61328 121.07227 L 622.49023 53.958984 C 622.77359 52.056446 621.84272 50.192768 620.14258 49.261719 L 613.94922 45.902344 L 617.75391 32.462891 C 618.03726 31.577418 618.81746 30.970873 619.71289 30.96875 z M 312.17578 34.851562 L 370.62891 40.316406 C 372.00519 40.437842 372.97583 41.694 372.77344 43.070312 L 356.41992 143.98438 L 402.64648 140.98828 L 399.125 62.824219 C 399.04404 61.48842 400.25937 60.435892 401.55469 60.597656 L 460.12695 68.369141 L 460.12891 68.369141 C 461.5042 68.532041 462.47614 69.826095 462.31445 71.242188 L 447.94336 156.49219 C 447.70049 158.15182 446.93082 159.69047 445.83789 160.94531 L 419.89062 190.53516 C 418.83816 191.74956 417.25981 192.43888 415.64062 192.39844 L 341.96875 190.53516 C 340.3091 190.49468 338.73001 189.84683 337.51562 188.75391 L 303.87695 158.51562 C 302.66258 157.46316 302.01524 155.88481 302.13672 154.26562 L 302.25781 152.24219 L 311.97461 130.30273 C 312.86514 128.4002 313.02623 126.29546 312.5 124.27148 L 311.89258 121.92383 C 311.40683 119.94033 310.15131 118.19985 308.45117 117.06641 L 304.64648 114.55664 L 307.31836 71.445312 L 317.51953 58.492188 C 318.77439 56.913479 319.34053 54.848156 319.09766 52.824219 L 318.73438 49.910156 C 318.4915 47.92666 317.43753 46.065388 315.81836 44.810547 L 309.30273 39.830078 L 309.46484 37.160156 C 309.54581 35.783841 310.79947 34.730242 312.17578 34.851562 z M 782.46484 62.09375 L 784.04297 115.16211 L 814.44336 110.26562 L 819.74609 75.25 L 782.46484 62.09375 z M 520.1582 65.939453 L 523.27539 116.70117 L 553.51367 111.39844 L 558.69531 79.216797 L 520.1582 65.939453 z M 103.78711 209.25586 C 104.00152 209.24559 104.21797 209.25202 104.43555 209.27734 L 149.32812 215.22852 C 151.10922 215.47139 152.64814 216.72564 153.21484 218.42578 L 175.35547 284.40625 L 207.49609 222.18945 C 208.30568 220.61074 210.04705 219.72182 211.82812 219.96484 L 260.32227 226.48047 C 262.06288 226.68286 263.47944 228.01914 263.84375 229.75977 L 302.25781 420.01367 C 302.58163 421.63282 301.52934 423.21125 299.91016 423.53516 L 221.66406 439.72656 C 220.12584 440.05039 218.66881 438.95761 218.58789 437.37891 L 211.70703 322.21484 L 167.86719 376.05273 C 166.97665 377.14558 165.23697 377.02441 164.54883 375.76953 L 132.69141 318.53125 L 98.648438 429.60547 C 98.162685 431.14377 96.502175 431.91328 95.044922 431.26562 L 22.830078 400.41992 C 21.332403 399.73178 20.643352 397.99189 21.291016 396.49414 L 100.30664 211.625 C 100.90877 210.24366 102.28621 209.32772 103.78711 209.25586 z M 582.75195 209.87305 C 584.17886 209.90152 585.58342 210.28896 586.82812 211.01758 L 662.20117 255.01953 C 663.7394 255.95058 664.58896 257.69155 664.22461 259.47266 L 651.27148 326.78906 C 650.94765 328.61061 649.77345 330.27016 648.1543 331.20117 L 611.03516 352.85742 L 669.48633 401.39258 C 670.53878 402.28311 670.29639 403.98301 669.08203 404.46875 L 605.28711 433.04688 C 603.74892 433.73499 601.88613 433.20976 600.95508 431.79297 L 553.23047 358.9707 L 550.7207 359.49609 L 553.06836 425.47656 C 553.14932 427.17671 551.89398 428.59352 550.23438 428.71484 L 512.83203 432.07617 L 487.08789 358.11914 L 472.27148 230.65039 C 472.06909 228.99076 473.20362 227.49245 474.86328 227.20898 L 581.32227 209.96484 C 581.7979 209.89401 582.27632 209.86356 582.75195 209.87305 z M 688.35938 215.96875 C 688.5427 215.9697 688.73075 215.99157 688.91797 216.03711 L 764.69336 234.13086 C 766.31251 234.53565 767.3663 236.11431 767.00195 237.81445 L 733.32227 427.50195 C 733.03891 429.20206 731.58242 430.49782 729.8418 430.61914 L 680.53711 434.01758 C 678.9584 434.09854 677.66464 432.80328 677.70508 431.22461 L 678.15039 418.91992 L 685.92188 415.43945 C 688.06723 414.50844 689.52375 412.52466 689.84766 410.25781 L 691.0625 401.55469 C 691.38633 399.24736 690.49591 396.93966 688.71484 395.48242 L 679.4043 387.75 L 685.88086 218.30469 C 685.9517 216.99416 687.07597 215.96209 688.35938 215.96875 z M 332.22852 219.7168 C 332.43645 219.69924 332.64881 219.70048 332.86133 219.7207 L 421.26758 228.78906 C 423.04868 228.99146 424.58809 230.20611 425.19531 231.90625 L 489.79883 417.42188 C 490.32505 418.91961 489.39424 420.49836 487.89648 420.82227 L 423.45312 432.9668 C 421.834 433.29063 420.25555 432.23829 419.93164 430.61914 L 409.89258 382.20508 L 350.67188 391.11133 L 343.87109 431.46875 C 343.58774 433.08794 342.05081 434.14089 340.43164 433.85742 L 321.56641 430.29492 L 299.91016 322.94336 L 329.05664 222.27148 C 329.48167 220.8547 330.773 219.83973 332.22852 219.7168 z M 824.28516 224.95117 C 824.51254 224.94779 824.74105 224.9571 824.96875 224.98242 L 924.22266 237.08594 C 926.08468 237.28837 927.78598 238.34068 928.87891 239.87891 L 979.80078 311.85156 C 980.89371 313.38979 981.2583 315.33272 980.85352 317.1543 L 959.40039 402 C 958.91461 403.82158 957.65913 405.35977 955.95898 406.12891 L 877.06445 442.11523 C 875.32383 442.92488 873.34111 443.04468 871.51953 442.4375 L 788.61719 415.39844 C 786.83612 414.83174 785.41972 413.45489 784.8125 411.67383 L 764.08789 351.92578 L 776.39258 282.30273 L 820.19141 226.9668 C 821.14775 225.69168 822.69349 224.97488 824.28516 224.95117 z M 547.32031 264.45117 L 549.54688 327.15234 L 588.48828 318.08594 L 593.4668 276.91797 L 547.32031 264.45117 z M 369.25195 280.60156 L 359.61719 337.75781 L 400.90625 339.2168 L 389.04688 282.17969 L 369.25195 280.60156 z M 853.91016 295.17383 L 829.94727 336.30078 L 863.26172 371.51758 L 903.82227 351.40039 L 898.31641 307.07617 L 853.91016 295.17383 z "
       transform="matrix(0.26458333,0,0,0.26458333,0,168.17939)"
       id="path817" />
  </g>
  <style
     id="style815"
     type="text/css">
	.A{fill:#010101;}
	.B{fill:#FBCF08;}
	.C{fill:#45AF49;}
	.D{fill:#E42926;}
	.E{fill:#0B9BD7;}
</style>
</svg>
