<?xml version="1.0" encoding="UTF-8" standalone="no"?>
<!-- Generator: Adobe Illustrator 25.0.0, SVG Export Plug-In . SVG Version: 6.00 Build 0)  -->

<svg
   version="1.1"
   id="Layer_1"
   x="0px"
   y="0px"
   viewBox="0 0 3199.076 2159"
   style="enable-background:new 0 0 3199.076 2159;"
   xml:space="preserve"
   sodipodi:docname="logo.svg"
   inkscape:version="1.2.2 (732a01da63, 2022-12-09)"
   xmlns:inkscape="http://www.inkscape.org/namespaces/inkscape"
   xmlns:sodipodi="http://sodipodi.sourceforge.net/DTD/sodipodi-0.dtd"
   xmlns="http://www.w3.org/2000/svg"
   xmlns:svg="http://www.w3.org/2000/svg"><defs
   id="defs5756" /><sodipodi:namedview
   id="namedview5754"
   pagecolor="#ffffff"
   bordercolor="#111111"
   borderopacity="1"
   inkscape:showpageshadow="0"
   inkscape:pageopacity="0"
   inkscape:pagecheckerboard="1"
   inkscape:deskcolor="#d1d1d1"
   showgrid="false"
   inkscape:zoom="0.37823422"
   inkscape:cx="1545.3387"
   inkscape:cy="1078.6967"
   inkscape:window-width="1920"
   inkscape:window-height="1009"
   inkscape:window-x="-8"
   inkscape:window-y="-8"
   inkscape:window-maximized="1"
   inkscape:current-layer="g5751" />
<style
   type="text/css"
   id="style5697">
	.st0{fill:#E62229;}
	.st1{fill:#019B43;}
	.st2{fill:#FFFFFF;}
</style>
<g
   id="g5751">
	<g
   id="g5727"
   style="fill:#ffffff;fill-opacity:1">
		<g
   id="g5725"
   style="fill:#ffffff;fill-opacity:1">
			<rect
   x="2414.286"
   y="1862.159"
   width="85.088"
   height="296.841"
   id="rect5699"
   style="fill:#ffffff;fill-opacity:1" />
			<g
   id="g5709"
   style="fill:#ffffff;fill-opacity:1">
				<polygon
   points="2616.833,1961.468 2531.745,1988.667 2531.745,1862.159 2616.833,1862.159     "
   id="polygon5701"
   style="fill:#ffffff;fill-opacity:1" />
				<polygon
   points="2870.315,1988.667 2785.227,1961.468 2785.227,1862.159 2870.315,1862.159     "
   id="polygon5703"
   style="fill:#ffffff;fill-opacity:1" />
				<polygon
   points="2632.61,2159 2735.138,2159 2559.365,1862.159 2531.745,1988.667     "
   id="polygon5705"
   style="fill:#ffffff;fill-opacity:1" />
				<polygon
   points="2769.449,2159 2666.922,2159 2842.694,1862.159 2870.315,1988.667     "
   id="polygon5707"
   style="fill:#ffffff;fill-opacity:1" />
			</g>
			<path
   d="M317.733,1883.278l-17.444,29.457v-50.577H198.192c-14.006,0-27.094,7.917-34.912,21.12L0,2159h102.533l131.168-221.493     h51.918L154.453,2159h102.533l136.93-231.223c1.735-2.929,5.759-1.534,5.759,1.996V2159h85.088v-296.842H352.645     C338.639,1862.158,325.551,1870.076,317.733,1883.278z"
   id="path5711"
   style="fill:#ffffff;fill-opacity:1" />
			<path
   d="M663.054,1925.208h155.41v-63.049l-129.037-0.525h-91.268c-7.044,0-13.625,3.982-17.557,10.621l-40.809,68.912V2159     h278.672v-63.049H624.88v-53.642h156.247l37.337-63.048H624.88v-8.632l20.602-34.791     C649.417,1929.193,656.005,1925.208,663.054,1925.208z"
   id="path5713"
   style="fill:#ffffff;fill-opacity:1" />
			<path
   d="M3043.666,1925.208h155.41v-63.049l-129.037-0.525h-91.268c-7.043,0-13.625,3.982-17.557,10.621l-40.809,68.912V2159     h278.672v-63.049h-193.584v-53.642h156.246l37.337-63.048h-193.584v-8.632l20.602-34.791     C3030.029,1929.193,3036.616,1925.208,3043.666,1925.208z"
   id="path5715"
   style="fill:#ffffff;fill-opacity:1" />
			<path
   d="M1555.006,2159l-163.118-275.471c-7.91-13.359-21.153-21.37-35.325-21.37h-155.029V2159h85.089v-116.428v-117.365h14.166     c8.278,0,16.014,4.68,20.635,12.483l62.108,104.881h-96.909l37.336,63.048h0.143h96.766l31.609,53.38H1555.006z"
   id="path5717"
   style="fill:#ffffff;fill-opacity:1" />
			<path
   d="M1157.418,1979.523h-9.093h-75.67h-27.02l-37.181,62.785h36.328v0.264h27.873v53.379H930.538V1987.97l30.87-52.129     c3.936-6.647,10.526-10.634,17.578-10.634h161.747v-63.049h-135.689l0.311-0.525h-87.928c-9.132,0-17.665,5.162-22.762,13.77     l-49.215,83.108v166.821c0,18.594,13.268,33.668,29.635,33.668h33.675h21.777h142.116h55.451     c16.368,0,29.637-15.074,29.637-33.67v-29.379v-116.428H1157.418z"
   id="path5719"
   style="fill:#ffffff;fill-opacity:1" />
			<path
   d="M1967.323,1890.057c-10.327-17.441-27.617-27.9-46.119-27.9l-72.938,0.003h-159.788V2159l214.391-0.003h18.334     c18.502,0,35.792-10.459,46.119-27.9l60.381-101.971c2.188-3.695,3.357-8.048,3.357-12.502v-12.094     c0-4.454-1.169-8.806-3.357-12.502L1967.323,1890.057z M1885.602,2095.951h-112.036v-170.742h112.036l42.599,71.932     c4.811,8.123,4.811,18.748,0,26.871L1885.602,2095.951z"
   id="path5721"
   style="fill:#ffffff;fill-opacity:1" />
			<path
   d="M2295.936,2048.271l48.865-82.522c2.187-3.693,3.355-8.044,3.355-12.495v-10.32c0-4.452-1.168-8.802-3.355-12.496     l-23.911-40.38c-10.328-17.442-27.619-27.902-46.123-27.902h-72.929l-161.184,0.003V2159h85.088v-233.791h108.002     c3.395,0,6.568,1.919,8.463,5.12l6.689,11.295c2.316,3.911,2.316,9.027,0,12.938l-33.172,56.016h-44.638L2258.978,2159h102.527     L2295.936,2048.271z"
   id="path5723"
   style="fill:#ffffff;fill-opacity:1" />
		</g>
	</g>
	
	<g
   id="g5749"
   style="fill:#ffffff;fill-opacity:1">
		<polygon
   class="st0"
   points="928.398,1139.556 928.398,138.627 94.017,1378.856 1601.785,1378.774 1601.785,138.627   "
   id="polygon5731"
   style="fill:#ffffff;fill-opacity:1" />
		<path
   id="polygon5733"
   class="st1"
   d="M 1776.4512 166.63281 L 1776.4512 198.91016 L 1776.4512 1378.8574 L 2176.6504 1378.8574 L 2176.6504 166.63281 L 1776.4512 166.63281 z M 2227.0098 166.63281 L 2227.0098 574.39648 L 2258.1719 574.39648 C 2264.7669 574.39648 2271.2819 574.73724 2277.7109 575.36523 L 2341.6738 167.5625 C 2330.6468 166.9645 2319.549 166.63281 2308.373 166.63281 L 2227.0098 166.63281 z M 2404.8145 174.30859 L 2290.666 577.09961 C 2304.415 579.36861 2317.6969 583.01594 2330.3379 587.96094 L 2512.2617 201.79102 C 2477.7848 189.47603 2441.8554 180.23259 2404.8145 174.30859 z M 2573.4082 227.54688 L 2342.5859 593.27148 C 2355.8409 599.52348 2368.2844 607.19652 2379.7324 616.10352 L 2670.7266 286.89062 C 2640.3596 264.20165 2607.7962 244.29786 2573.4082 227.54688 z M 2722.1738 329.94336 L 2389.9043 624.5293 C 2400.3653 633.84529 2409.8251 644.25714 2418.123 655.57812 L 2796.5215 413.50586 C 2774.3345 383.40289 2749.4328 355.43133 2722.1738 329.94336 z M 2833.7148 470.32812 L 2425.5254 666.45703 C 2432.1364 676.85802 2437.7993 687.91182 2442.4062 699.50781 L 2879.5078 569.55859 C 2867.1878 534.92563 2851.8308 501.73409 2833.7148 470.32812 z M 2898.752 635.31836 L 2446.9668 712.12695 C 2450.5478 723.30194 2453.1764 734.90472 2454.7324 746.8457 L 2913.8984 746.8457 C 2912.2914 708.64474 2907.1089 671.37232 2898.752 635.31836 z M 2455.4707 792.54492 C 2445.5057 892.73182 2360.9808 970.97461 2258.1719 970.97461 L 2227.0098 970.97461 L 2227.0098 1378.8555 L 2308.373 1378.8555 C 2636.4907 1378.8555 2903.6759 1118.1226 2914.1309 792.54492 L 2455.4707 792.54492 z "
   style="fill:#ffffff;fill-opacity:1" />
		
		
		
		
		
		
		
	</g>
</g>
</svg>
