<?xml version="1.0" encoding="utf-8"?>
<!-- Generator: Adobe Illustrator 26.0.3, SVG Export Plug-In . SVG Version: 6.00 Build 0)  -->
<svg version="1.1" id="Layer_1" xmlns="http://www.w3.org/2000/svg" xmlns:xlink="http://www.w3.org/1999/xlink" x="0px" y="0px"
	 viewBox="0 0 3839 1254.1" style="enable-background:new 0 0 3839 1254.1;" xml:space="preserve">
<style type="text/css">
	.st0{fill:#FFFFFF;}
</style>
<g>
	<g>
		<g>
			<path class="st0" d="M1545.2,607v1.9c82.9,1.5,144.1,18,183.5,49.4c39.5,31.4,59.3,69.4,59.3,113.9c0,49.7-22.4,90.8-67.5,123
				c-44.9,32.4-104.8,48.6-179.3,48.6c-64.5,0-114.3-12.9-149.5-38.7c-35.3-25.7-52.9-55-52.9-88c0-21.9,7.9-39.6,23.7-53
				c15.8-13.4,34.8-20,56.8-20c20.7,0,38.5,5.9,53.3,17.5c14.8,11.8,22.2,27.3,22.2,46.4c0,25.6-17.2,47.1-51.6,64.5
				c-6.7,3.4-10.2,7.2-10.2,11.5c0,7.9,9.6,14.8,29,20.8c19.3,6,38.9,8.9,59.2,8.9c66.2,0,99.3-48.7,99.3-146
				c0-96.4-39.8-144.5-119.3-144.5l-66,2.7c-13.3,0-20-4.9-20-14.7c0-11.3,7-16.9,21-16.9l48.1,1.8c49.1,0,81.9-10.9,98.6-32.8
				c16.7-21.8,25-52.8,25-93.1c0-41.4-6.3-72-18.9-91.5c-12.6-19.6-34.3-29.3-64.9-29.3c-16.7,0-32.4,2.8-47,8.5
				c-14.6,5.6-22.1,11.1-22.1,16.6c0,5.1,4.8,10.4,14.5,15.9c25.2,16.1,38,33.5,38,52.3c0,18.5-7,33.1-21.2,44.1
				c-14.2,10.9-30.1,16.4-47.8,16.4c-20.4,0-38.6-6.3-54.6-18.7c-16-12.5-24.1-27.9-24.1-46.6c0-31.6,17.8-59,53.5-82
				c35.7-23.1,81.3-34.7,137.2-34.7c61.8,0,113.8,13.1,156.2,39.2c42.5,26.1,63.7,59.5,63.7,100.5
				C1770.2,541.7,1695.2,590.3,1545.2,607z"/>
			<path class="st0" d="M2293,348.6v553.9h54.3c83,0,133.1-21.8,150.3-65.2c17.3-43.5,25.8-117.9,25.8-223.1
				c0-82.4-5.3-141.6-15.9-177.6c-10.5-36-26.6-59.7-48.1-71s-48.8-17-81.9-17L2293,348.6L2293,348.6L2293,348.6z M2125.4,902.5
				V348.6h-86.9v-30h348.1c100.7,0,180.5,28.5,239.1,85.7c58.7,57.1,88.1,129.1,88.1,216c0,45.1-8.9,87.6-26.9,127.2
				c-17.9,39.7-45.5,75.8-82.7,108.3s-75.4,53.4-114.5,62.7s-87.1,14-144.2,14h-307.2v-30H2125.4L2125.4,902.5z"/>
			<path class="st0" d="M3384.2,625.8c0-94-2-156-5.8-185.9c-3.9-30-14-54.1-30.2-72.4s-42.9-27.4-80-27.4
				c-31.3,0-56.3,7.4-74.9,22.2c-18.6,14.8-30.2,38.5-34.8,71.2c-4.5,32.6-6.8,96.5-6.8,191.4c0,93.9,1.9,156.2,5.9,186.5
				c3.9,30.4,14.3,54.6,31.2,72.6s43.3,27,79.5,27c30,0,54.4-7.2,73.3-21.7c18.9-14.6,30.7-38.1,35.5-70.7
				C3381.9,785.8,3384.2,721.6,3384.2,625.8z M2961.3,623.2c0-91.8,30.2-167,91-225.4c60.6-58.4,133.4-87.6,218-87.6
				c78.7,0,149.2,27.4,211.2,82.4c62.2,54.9,93.2,133.1,93.2,234.3c0,94.9-29.3,171-88.1,228.2s-130.6,85.8-215.3,85.8
				c-91.6,0-166.3-30.5-223.7-91.1C2990.1,789.1,2961.3,713.6,2961.3,623.2z"/>
		</g>
		<path class="st0" d="M119.7,119.7v1014.8h1014.8V119.7H119.7z M627,195.1l142.4,142.8L627,480.6L484.7,337.9L627,195.1z
			 M627.7,694h-1.3c-55.4,0-109.9-4.4-121.3-18.7c-9.7-12.3-10.4-45.8-10.4-80.1v-9.4c0-34.3,0.7-67.9,10.4-80.1
			c11.3-14.3,65.7-18.7,121.3-18.7h1.3c55.5,0,110,4.4,121.3,18.7c9.7,12.3,10.4,45.8,10.4,80.1v9.4c0,34.3-0.7,67.9-10.4,80.1
			C737.7,689.6,683.3,694,627.7,694z M748.6,825.3c0,67.3-54.4,121.9-121.6,121.9s-121.5-54.6-121.5-121.9
			c0-67.3,54.4-121.9,121.6-121.9S748.6,758,748.6,825.3z M627,1086.9c-79,0-143-11.3-143-25.1c0-13.9,64-25.1,143-25.1
			s143,11.2,143,25.1S706,1086.9,627,1086.9z"/>
	</g>
	<path class="st0" d="M0,0L0,0L0,0v1254.1h3839V0H0z M3779.2,1194.2H59.8V59.8h3719.3L3779.2,1194.2L3779.2,1194.2z"/>
</g>
</svg>
