<?xml version="1.0" encoding="UTF-8" standalone="no"?>
<!-- Generator: Adobe Illustrator 26.0.3, SVG Export Plug-In . SVG Version: 6.00 Build 0)  -->

<svg
   version="1.1"
   id="Layer_1"
   x="0px"
   y="0px"
   viewBox="0 0 3839 629.2"
   style="enable-background:new 0 0 3839 629.2;"
   xml:space="preserve"
   sodipodi:docname="logo.svg"
   inkscape:version="1.2.2 (732a01da63, 2022-12-09)"
   xmlns:inkscape="http://www.inkscape.org/namespaces/inkscape"
   xmlns:sodipodi="http://sodipodi.sourceforge.net/DTD/sodipodi-0.dtd"
   xmlns="http://www.w3.org/2000/svg"
   xmlns:svg="http://www.w3.org/2000/svg"><defs
   id="defs115" /><sodipodi:namedview
   id="namedview113"
   pagecolor="#ffffff"
   bordercolor="#111111"
   borderopacity="1"
   inkscape:showpageshadow="0"
   inkscape:pageopacity="0"
   inkscape:pagecheckerboard="1"
   inkscape:deskcolor="#d1d1d1"
   showgrid="false"
   inkscape:zoom="0.31518625"
   inkscape:cx="1348.4091"
   inkscape:cy="314.1"
   inkscape:window-width="1920"
   inkscape:window-height="1009"
   inkscape:window-x="-8"
   inkscape:window-y="-8"
   inkscape:window-maximized="1"
   inkscape:current-layer="g102" />
<style
   type="text/css"
   id="style2">
	.st0{fill:#C70A11;}
	.st1{fill:#2FBB37;}
	.st2{fill:#1E35A0;}
	.st3{fill:#FFFFFF;}
</style>
<g
   id="g110">
	<g
   id="g34"
   style="fill:#ffffff;fill-opacity:1">
		<g
   id="g22"
   style="fill:#ffffff;fill-opacity:1">
			<path
   d="M1432.2,0l-4.5,12.8c15.4,0.8,45.8-3,44.2,15.1c-0.8,9.1-9,29.8-12.5,38.9l-48.7,133.9c-8.1,23-36.2,36.2-62.6,36.2     l-4.5,12.8c0.9,0,210.6,0,210.7,0l25-69h-12.7c-24,41.9-19.4,52.4-63.9,52.4c-17,0-38.3-1.9-36.4-23.4c0.5-6,6.3-20.7,8.4-26.8     l21.3-58.5h17.6c17.2,0,29.3,16.9,23.8,33.2l-4.1,12h10.6l29.2-85.7h-10.6l-0.5,1.5c-4.6,13.4-17.1,22.3-31.2,22.3h-28.8     l25.3-69.8c8.4-22.6,8.3-21.5,31.3-21.5c52.9,0,62.5,13.3,55.1,33.7h12.8L1644.8,0H1432.2z"
   id="path4"
   style="fill:#ffffff;fill-opacity:1" />
			<path
   d="M1605.5,166c6.1-16.1,21.1-57.1,22.5-72.6c0.3-3.4-1-8.1-5.3-8.1c-8.4,0-20.8,22.2-24.7,28.9l-6.8-3.4     c11.2-20.2,28.7-48.1,54.3-48.1c14.1,0,21.3,10.1,20.1,23.9c-0.6,7.4-2.3,14.8-4.5,21.2l0.6,0.7c12.2-20.2,34.2-45.7,59.8-45.7     c14.5,0,23.8,8.4,22.5,23.5c-0.6,7.4-3,14.8-4.9,21.5l0.6,0.7c13.3-20.8,32.2-45.7,59.5-45.7c17.1,0,26.4,9.4,24.9,26.2     c-1,11.1-7.1,27.2-11.4,38l-8.1,19.5c-3,7.1-13.7,29.6-14.3,36.3c-0.3,3,1.7,7.4,5.1,7.4c4.7,0,10.2-5.3,15.2-11.5     c5.1-6.3,9.5-13.5,11.8-16.7l6.4,3.7c-3.5,6-7.6,12.6-12.4,18.9c-11.1,14.6-25.7,27.5-43.1,27.5c-14.1,0-23.3-9.7-22.1-23.9     c0.8-9.4,7.8-27.9,11.7-37.3l8.5-20.2c3.4-8.4,13.9-31.6,14.5-39.3c0.4-4.4-2.3-8.4-6.7-8.4c-23.2,0-54.1,68.9-61.4,86.7     l-15.4,38H1666l30.9-80.6c3.4-8.1,10.6-25.2,11.3-33.3c0.4-5-0.4-10.8-6.1-10.8c-25.5,0-51,63.9-59,83l-17.4,41.7h-36.6     L1605.5,166z"
   id="path6"
   style="fill:#ffffff;fill-opacity:1" />
			<path
   d="M1951.3,168.4c-17.5,22.9-40.8,43.7-69.7,43.7c-30.6,0-46.7-19.2-44-50.1c4.4-50.1,45.6-99.1,97.7-99.1     c17.5,0,40.4,7.1,38.5,28.2c-3.3,38-63.9,50.7-93.8,58.1c-1.6,6.4-3.1,12.8-3.7,19.2c-1.1,13.1,4.9,25.2,19.3,25.2     c18.8,0,35.5-18.1,47.8-31.6L1951.3,168.4z M1942.3,86.7c0.7-7.7-3.2-13.8-11.2-13.8c-24.2,0-40.7,47-47.1,65.5     C1907.2,131.8,1940,113.3,1942.3,86.7z"
   id="path8"
   style="fill:#ffffff;fill-opacity:1" />
			<path
   d="M2004,207.7h-37.6l16.8-42c7.3-18.5,19-52.4,20.7-71.6c0.3-3.7,0.1-8.4-4.3-8.4c-9.4,0-20.7,21.8-24.7,29.2l-7.1-3.4     c11.2-20.5,29.5-48.7,55.4-48.7c13.8,0,19.5,11.1,18.4,23.5c-0.9,9.7,22.9-23.5,49.4-23.5c13.4,0,23.1,8.7,21.9,22.5     c-1.1,12.1-10.1,19.8-21.9,19.8c-14.5,0-12.6-13.8-20.6-13.8c-18.1,0-44.7,65.2-51,80.3L2004,207.7z"
   id="path10"
   style="fill:#ffffff;fill-opacity:1" />
			<path
   d="M2120,106.2c2.6-29.2,31.7-43.4,57.6-43.4c16.5,0,39.8,5.7,38,26.6c-0.7,8.1-7.3,14.1-15.3,14.1     c-10.1,0-13.3-9.1-12.9-17.5c0.4-8.1-1.7-11.8-10.7-11.8c-10.8,0-18.6,5.4-19.5,15.8c-1.1,12.4,8.5,21.5,15.6,29.2     c11.9,13.4,21.8,26.9,20.1,46.7c-2.5,28.9-33.6,46-59.5,46c-18.8,0-44.6-9.1-42.5-32.3c0.8-9.1,6.8-15.8,16.2-15.8     c8.4,0,15,5.7,14.2,14.8l-0.8,5.7l-0.8,5.4c-0.6,7.4,6.8,10.8,12.8,10.8c11.4,0,21-9.7,22-20.8c1-11.4-4.8-17.8-11.2-25.9     C2132.9,140.5,2118.5,124.7,2120,106.2z"
   id="path12"
   style="fill:#ffffff;fill-opacity:1" />
			<path
   d="M2214.6,154.3c4.1-47.1,43.3-91.4,91.7-91.4c34.3,0,53.6,25.2,50.7,58.1c-4,45.4-44.6,91.1-91.6,91.1     C2231.1,212.1,2211.8,187.9,2214.6,154.3z M2268.4,117c-7.5,16.8-16.8,42.3-18.4,60.5c-0.9,10.4,2,23.2,14.8,23.2     c30.9,0,55.2-81.3,57.3-105.2c0.9-10.8-3.2-21.2-15.3-21.2C2286.9,74.3,2274.8,101.5,2268.4,117z"
   id="path14"
   style="fill:#ffffff;fill-opacity:1" />
			<path
   d="M2383.6,154.3c5.7-15.1,17.7-45,19-60.2c0.3-3.7-0.9-9.1-5.6-9.1c-9.1,0-20.6,20.8-25,28.2l-6.5-2.7     c11-21.5,28.4-47.7,54.6-47.7c14.8,0,20.7,8.7,19.5,23.2l-3.3,19.2l-1.6,6.4l0.6,0.7c13.2-23.9,35.9-49.4,64.8-49.4     c17.1,0,26.4,9.4,24.9,26.2c-1,11.1-7.1,27.2-11.4,38l-8.1,19.5c-3,7.1-13.7,29.6-14.3,36.3c-0.3,3,1.7,7.4,5.1,7.4     c9.4,0,22.4-21.8,27-28.2l6.4,3.7c-11.5,19.8-30.6,46.4-55.5,46.4c-14.1,0-23.3-9.7-22.1-23.9c0.8-9.4,7.8-27.9,11.7-37.3     l8.5-20.2c3.4-8.4,13.9-31.6,14.5-39.3c0.4-4.4-2.3-8.4-6.7-8.4c-29.3,0.7-52.7,61.2-61.9,82l-18.5,42.7h-35.3L2383.6,154.3z"
   id="path16"
   style="fill:#ffffff;fill-opacity:1" />
			<ellipse
   cx="1397.8"
   cy="45.8"
   rx="19.3"
   ry="18.4"
   id="ellipse18"
   style="fill:#ffffff;fill-opacity:1" />
			<path
   d="M1427.8,12.8c-9,0-35.9,0.3-15.9,20.6c4.1,4.1-1,10.1-1,10.1l-14.5,2.3l-16.6,6.3c0,0-22.4-52.1,52.6-52.1"
   id="path20"
   style="fill:#ffffff;fill-opacity:1" />
		</g>
		<g
   id="g32"
   style="fill:#ffffff;fill-opacity:1">
			<g
   id="g28"
   style="fill:#ffffff;fill-opacity:1">
				<path
   d="M1181.8,150.9c11,0,20-9,20-20s-8.9-20-20-20s-20,8.9-20,20S1170.8,150.9,1181.8,150.9"
   id="path24"
   style="fill:#ffffff;fill-opacity:1" />
				<path
   d="M1149.5,88.3l3.5-2.2c2.9-1.8,5.9-3.6,8.9-5.7c1.5,4.3,3.1,7.9,4.5,10.9c-15.8,6.2-27,21.6-27,39.5      c0,15.4,8.2,28.8,20.5,36.3c-3.6,2.1-9.6,2.6-15.1,1.2c-18.3-4.9-23.9-22.5-23.9-36.7C1120.8,114.5,1134.7,97.6,1149.5,88.3       M1172.2,31.8c0.4,0,1.6,0,2.8,1.9c0.9,1.4,2,4.2,2,9.3c0,11.4-4.6,16.9-11.1,23c-1.6-6-2.6-10.2-2.6-16.6      C1163.2,37.6,1169,31.8,1172.2,31.8 M1181.8,101.8c16.1,0,29.1,13,29.1,29.1s-13,29.1-29.1,29.1s-29.1-13-29.1-29.1      S1165.8,101.8,1181.8,101.8 M1149.3,176.6c7.8,0.9,13.3,0.5,17.9-0.7c5.5,2.3,10.6,5.9,10.6,11.7c0,12.9-4.1,20.7-10.6,15.6      c-6.4-5.1-25.3-5.5-25.3,8.3s21.6,20.2,34,5s13.3-33.5,8.3-43.2c0-0.1-0.1-0.1-0.1-0.1c22.3-1.2,40.1-19.7,40.1-42.3      c0-23.4-19.1-42.5-42.5-42.5c-2.8,0-5.6,0.3-8.2,0.8c-1.6-3.4-3.6-8-5.5-13.4c8.9-7.4,16.2-17.3,16.2-32.9c0-5.6-1-10-3.1-13.3      c-2.2-3.4-5.3-5.3-9-5.3c-8.1,0-16.4,9.3-16.4,25c0,8.3,1.6,16.5,3.7,23.8c-3.3,2.4-6.8,4.5-10.3,6.7l-3.6,2.2      c-17.3,10.8-40.9,29.5-40.9,49.5C1104.8,157.3,1126,173.8,1149.3,176.6"
   id="path26"
   style="fill:#ffffff;fill-opacity:1" />
			</g>
			<path
   d="M1039.7,0v249.7h249.7V0H1039.7z M1164.6,239.8c-63.5,0-115-51.5-115-115s51.5-115,115-115s115,51.5,115,115     C1279.5,188.3,1228,239.8,1164.6,239.8z"
   id="path30"
   style="fill:#ffffff;fill-opacity:1" />
		</g>
	</g>
	<g
   id="g102">
		<g
   id="g84"
   style="fill:#ffffff;fill-opacity:1">
			<g
   id="g38"
   style="fill:#ffffff;fill-opacity:1">
				<path
   d="M1100.7,518.9c29.3-25.1,50.2-49.5,50.2-96.8c0-46.9-24.3-89.2-120.6-89.2l0,0h-26.8l0,0h-50.2      c-23.6,0-42.8,19.1-42.8,42.8v245h93v-205h26.8l0,0c27.6,0,38.7,34.5,10.4,44.3c-29.3,10.2-36.4,60.2-17.8,90.3l43.4,70.3h97.3      L1100.7,518.9z"
   id="path36"
   style="fill:#ffffff;fill-opacity:1" />
			</g>
			<g
   id="g42"
   style="fill:#ffffff;fill-opacity:1">
				<rect
   x="1957.5"
   y="333"
   width="93"
   height="287.8"
   id="rect40"
   style="fill:#ffffff;fill-opacity:1" />
			</g>
			<g
   id="g46"
   style="fill:#ffffff;fill-opacity:1">
				<path
   d="M2810.9,496.1c27.4-21.5,41.8-56,36.7-90.5c-0.5-2.6-1-4.6-1.4-6c-34.1-106.1-195.9-106-229.9,0.2      c-3.4,10.7-5.6,22.6-6.1,35.6c0,0.5,0.4,0.9,0.9,0.9h92.1c-0.5-3.1-0.6-6.1-0.3-9.1c0.5-10.6,7-18.6,15.4-22.9      c24.7-12.6,46,23,24.1,40.2l-123,96.4c-33.4,26.2-14.9,79.9,27.6,79.9h4.6c0.1,0,0.3-0.1,0.5-0.1l-0.1,0.1h196.6V538h-91      L2810.9,496.1z"
   id="path44"
   style="fill:#ffffff;fill-opacity:1" />
			</g>
			<g
   id="g50"
   style="fill:#ffffff;fill-opacity:1">
				<rect
   x="2403.7"
   y="448.8"
   width="132.2"
   height="82.8"
   id="rect48"
   style="fill:#ffffff;fill-opacity:1" />
			</g>
			<g
   id="g54"
   style="fill:#ffffff;fill-opacity:1">
				<path
   d="M3432.9,317.4v82.9h31.8c6.5,0,11.7,5.3,11.7,11.7v208.8h93V367.5c0-27.6-22.4-50-50-50L3432.9,317.4L3432.9,317.4z"
   id="path52"
   style="fill:#ffffff;fill-opacity:1" />
			</g>
			<g
   id="g58"
   style="fill:#ffffff;fill-opacity:1">
				<path
   d="M1788.3,333.5l-14.8-0.5h-0.1l0,0h-6.8l0,0h-50.2c-23.6,0-42.8,19.1-42.8,42.8v202.3c0,23.6,19.1,42.7,42.8,42.7h72      C1984,608.1,1984,346.2,1788.3,333.5z M1773.4,538L1773.4,538h-6.8V415.8h6.8C1864.9,415.9,1864.9,538,1773.4,538z"
   id="path56"
   style="fill:#ffffff;fill-opacity:1" />
			</g>
			<g
   id="g62"
   style="fill:#ffffff;fill-opacity:1">
				<path
   d="M1325.2,415.8h35.3V333h-35.3c-215.5,0-215.5,287.8,0,287.7v0.1h35.3V538h-35.3v-0.1      C1233.7,537.9,1233.7,415.8,1325.2,415.8z"
   id="path60"
   style="fill:#ffffff;fill-opacity:1" />
			</g>
			<g
   id="g66"
   style="fill:#ffffff;fill-opacity:1">
				<path
   d="M802,620.8h93l-85.3-248.9c-19.8-57.8-101.6-57.8-121.3,0l-85.3,248.9h93l9.5-39h86.8L802,620.8z M721.8,515.6      l21.6-88.5c1.1-6.3,10.1-6.3,11.2,0l21.6,88.5H721.8z"
   id="path64"
   style="fill:#ffffff;fill-opacity:1" />
			</g>
			<g
   id="g70"
   style="fill:#ffffff;fill-opacity:1">
				<path
   d="M1570,620.8h93l-85.3-248.9c-19.8-57.8-101.6-57.8-121.3,0l-85.3,248.9h93l9.5-39h86.8L1570,620.8z M1489.8,515.6      l21.6-88.5c1.1-6.3,10.1-6.3,11.2,0l21.6,88.5H1489.8z"
   id="path68"
   style="fill:#ffffff;fill-opacity:1" />
			</g>
			<g
   id="g74"
   style="fill:#ffffff;fill-opacity:1">
				<path
   d="M2264.1,620.8h93l-85.3-248.9c-19.8-57.8-101.6-57.8-121.3,0l-85.3,248.9h93l9.5-39h86.8L2264.1,620.8z M2184,515.6      l21.6-88.5c1.1-6.3,10.1-6.3,11.2,0l21.6,88.5H2184z"
   id="path72"
   style="fill:#ffffff;fill-opacity:1" />
			</g>
			<g
   id="g78"
   style="fill:#ffffff;fill-opacity:1">
				<path
   d="M3005.1,315c-96.4,0-132,70.3-132,157.1s35.6,157.1,132,157.1s132-70.3,132-157.1S3101.5,315,3005.1,315z M3005.1,546.4      c-21.6,0-39.1-18-39.1-74.3s17.4-74.3,39.1-74.3c21.6,0,39.1,18,39.1,74.3S3026.6,546.4,3005.1,546.4z"
   id="path76"
   style="fill:#ffffff;fill-opacity:1" />
			</g>
			<g
   id="g82"
   style="fill:#ffffff;fill-opacity:1">
				<path
   d="M3290.5,315c-96.4,0-132,70.3-132,157.1s35.6,157.1,132,157.1s132-70.3,132-157.1S3387,315,3290.5,315z M3290.5,546.4      c-21.6,0-39.1-18-39.1-74.3s17.4-74.3,39.1-74.3c21.6,0,39.1,18,39.1,74.3S3312.1,546.4,3290.5,546.4z"
   id="path80"
   style="fill:#ffffff;fill-opacity:1" />
			</g>
		</g>
		<polygon
   points="2848.4,538 2848.4,620.8 2651.9,620.8 2713.9,538   "
   id="polygon86"
   style="fill:#ffffff;fill-opacity:1" />
		<rect
   x="1325.4"
   y="538"
   width="35.3"
   height="82.8"
   id="rect88"
   style="fill:#ffffff;fill-opacity:1" />
		<rect
   x="1325.4"
   y="333"
   width="35.3"
   height="82.8"
   id="rect90"
   style="fill:#ffffff;fill-opacity:1" />
		<g
   id="g100"
   style="fill:#ffffff;fill-opacity:1">
			<g
   id="g98"
   style="fill:#ffffff;fill-opacity:1">
				<polygon
   class="st0"
   points="100,329.2 0,620.8 147,620.8 247,329.2     "
   id="polygon92"
   style="fill:#ffffff;fill-opacity:1" />
				<polygon
   class="st1"
   points="301,329.2 201,620.8 348.1,620.8 448.1,329.2     "
   id="polygon94"
   style="fill:#ffffff;fill-opacity:1" />
				<polygon
   class="st2"
   points="502.1,329.2 402.1,620.8 549.1,620.8 649.1,329.2     "
   id="polygon96"
   style="fill:#ffffff;fill-opacity:1" />
			</g>
		</g>
	</g>
	<g
   id="g108"
   style="fill:#ffffff;fill-opacity:1">
		<path
   d="M3645.1,521.3h80.1v15h-31.4v84h-17.3v-84h-31.3v-15H3645.1z"
   id="path104"
   style="fill:#ffffff;fill-opacity:1" />
		<path
   d="M3736.3,521.3h24.4l27.3,77.4h0.3l26.6-77.4h24.1v98.9h-16.5v-76.3h-0.3l-27.4,76.3h-14.3l-27.4-76.3h-0.3v76.3h-16.5    L3736.3,521.3L3736.3,521.3z"
   id="path106"
   style="fill:#ffffff;fill-opacity:1" />
	</g>
</g>
</svg>
