<?xml version="1.0" encoding="utf-8"?>
<!-- Generator: Adobe Illustrator 25.0.0, SVG Export Plug-In . SVG Version: 6.00 Build 0)  -->
<svg version="1.1" id="Layer_1" xmlns="http://www.w3.org/2000/svg" xmlns:xlink="http://www.w3.org/1999/xlink" x="0px" y="0px"
	 viewBox="0 0 3840 1178.6" style="enable-background:new 0 0 3840 1178.6;" xml:space="preserve">
<style type="text/css">
	.st0{fill-rule:evenodd;clip-rule:evenodd;fill:#FD2537;}
	.st1{fill-rule:evenodd;clip-rule:evenodd;fill:#FD7801;}
	.st2{fill-rule:evenodd;clip-rule:evenodd;fill:#F2F540;}
	.st3{fill-rule:evenodd;clip-rule:evenodd;fill:#48CC31;}
	.st4{fill-rule:evenodd;clip-rule:evenodd;fill:#14A3FD;}
	.st5{fill:#FFFFFF;}
	.st6{fill-rule:evenodd;clip-rule:evenodd;}
	.st7{fill-rule:evenodd;clip-rule:evenodd;fill:#FFFFFF;}
</style>
<g>
	<g>
		<g>
			<polygon id="polygon7_12_" class="st7" points="0,611.5 0,611.5 2248.3,611.5 2248.3,669.9 0,669.9 			"/>
			<polygon class="st7" points="0,738.7 0,738.7 2248.3,738.7 2248.3,797.1 0,797.1 			"/>
			<polygon class="st7" points="0,865.9 0,865.9 2248.3,865.9 2248.3,924.2 0,924.2 			"/>
			<polygon class="st7" points="0,993.1 0,993.1 2248.3,993.1 2248.3,1051.4 0,1051.4 			"/>
			<polygon id="polygon15_12_" class="st7" points="0,1120.2 0,1120.2 2248.3,1120.2 2248.3,1178.6 0,1178.6 			"/>
		</g>
	</g>
	<g>
		<path class="st5" d="M2919.5,773.4c0-8.3-0.8-19.9-8.3-25.7c-7.5-5.8-19.1-6.6-27.4-7.5c-43.2-4.2-88-4.2-132-4.2
			c-40.7,0-84.7,0-124.5,7.5c-9.1,1.7-17.4,4.1-24.9,10c-19.1,14.9-17.4,56.4-17.4,78v21.6v9.1c10-10,19.9-18.3,32.4-24.9
			c46.5-26.6,139.5-24.1,191.7-24.1c56.4,0,125.3,0.8,179.3,18.3c19.9,6.6,36.5,15.8,51.5,30.7c33.2,32.4,34,94.6,34,137.8
			c0,78.9-13.3,149.4-101.3,166.8c-34,6.6-68.9,9.1-102.9,10c-49.8,0.8-98.8,1.7-148.6,1.7c-69.7,0-200,4.2-253.2-44
			c-38.2-34-40.7-100.4-42.3-147.8c-0.8-36.5-1.7-73.9-1.7-110.4c0-66.4-7.5-174.3,47.3-221.6c52.3-45.7,230.8-43.2,296.3-43.2
			c36.5,0,73,0,109.6,1.7c50.6,1.7,136.1,4.1,174.3,43.2c26.6,27.4,25.7,81.3,25.7,117H2919.5z M2871.3,942.8
			c-44.8-6.6-93-5-138.6-5c-33.2,0-67.2-1.7-100.4,3.3c-32.4,5-44.8,24.9-44.8,56.4c0,14.1,3.3,32.4,13.3,43.2
			c16.6,17.4,110.4,13.3,132,13.3c29.1,0,57.3-0.8,86.3-1.7c20.8-0.8,63.1,1.7,79.7-14.1c10-10,11.6-28.2,11.6-41.5
			C2910.4,966,2903.7,947.7,2871.3,942.8z"/>
		<path class="st5" d="M3732.9,1068.9v102.9h-160.2v-102.9h-441.6V857.3l328.7-239.1h273.1v326.2H3840v124.5H3732.9z M3572.7,746.9
			h-34l-257.3,176v21.6h291.4V746.9z"/>
	</g>
	<g>
		<path id="path4595_12_" class="st5" d="M3384.2,158.1h-71.3v204.6h74.4V255.8c0-27.9,17.1-41.9,48.1-41.9c31,0,38.8,9.3,40.3,35.6
			h69.8c0-69.7-9.3-96.1-83.7-96.1c-45,0-60.5,9.3-77.5,43.4L3384.2,158.1L3384.2,158.1z M3726.8,322.4c-71.3,0-82.1-6.2-82.1-41.9
			H3840c-3.1-99.2-3.1-122.4-134.9-122.4c-111.6,0-136.5,20.1-136.5,108.5c0,82.2,32.6,102.3,122.5,103.9
			c100.8,0,148.8-4.7,148.8-71.3h-72.9C3764,314.7,3757.8,322.4,3726.8,322.4z M3643.1,237.2c3.1-21.7,9.3-29.5,58.9-29.5
			c54.3,0,62,3.1,65.1,29.5H3643.1z M871.3,244.9h74.4c-6.2-69.8-26.4-86.8-130.2-86.8c-117.8,0-144.2,18.6-144.2,105.4
			c0,86.8,24.8,107,134.9,107c116.3,0,139.5-15.5,139.5-88.4h-74.4c0,20.2-7.7,29.5-65.1,29.5c-49.6,0-60.5-12.4-60.5-52.7
			c0-38.8,10.8-38.8,69.8-38.8C858.9,220.1,866.6,224.8,871.3,244.9z M2599.8,257.3c0-83.7-24.8-100.7-144.2-100.7
			c-128.7,0-144.1,21.7-144.1,108.5c0,86.8,21.7,105.4,144.1,105.4C2585.8,370.5,2599.8,348.8,2599.8,257.3z M2387.4,262
			c0-41.9,9.3-46.5,63.6-46.5c60.5,0,71.3,1.5,71.3,46.5c0,41.9-7.8,49.6-65.1,49.6C2395.1,311.6,2387.4,305.4,2387.4,262
			L2387.4,262z M3267.9,257.3c0-83.7-23.3-100.7-142.6-100.7c-127.1,0-142.6,20.1-142.6,107c0,88.4,21.7,107,142.6,107
			C3255.5,370.5,3267.9,348.8,3267.9,257.3z M3057.1,262c0-41.9,9.3-46.5,63.5-46.5c60.5,0,71.3,1.5,71.3,46.5
			c0,41.9-7.7,49.6-65.1,49.6C3064.9,311.6,3057.1,305.4,3057.1,262z M1275.9,257.3c0-83.7-23.3-100.7-142.6-100.7
			c-128.7,0-144.2,20.1-144.2,107c0,88.4,21.7,107,144.2,107C1263.5,370.5,1275.9,348.8,1275.9,257.3z M1066.6,262
			c0-41.9,9.3-46.5,62-46.5c60.5,0,71.3,1.5,71.3,46.5c0,41.9-7.8,49.6-65.1,49.6C1074.3,311.6,1066.6,305.4,1066.6,262z
			 M2858.7,71.3v119.4c-17-23.3-32.5-35.6-94.5-35.6c-99.2,0-117.8,26.4-117.8,107c0,82.2,26.4,105.4,122.5,105.4
			c60.5,0,79.1-15.5,93-41.8v37.2h74.4V71.3L2858.7,71.3L2858.7,71.3z M2804.4,213.9c41.8,0,55.8,6.2,55.8,38.7
			c0,49.6-3.1,54.3-62,54.3c-58.9,0-74.4-1.6-74.4-43.4C2723.8,215.5,2742.4,213.9,2804.4,213.9z M1393.7,158.1h-69.7v204.6h74.4
			V257.3c0-31,15.5-41.8,57.4-41.8c38.8,0,49.6,13.9,49.6,52.7v94.5h76V254.2c0-29.5,23.2-38.7,58.9-38.7c34.1,0,49.6,9.3,49.6,38.7
			v108.5h74.4V241.8c0-60.4-37.2-88.4-105.4-88.4c-58.9,0-80.6,21.7-88.4,45c-15.5-26.4-37.2-45-96.1-45
			c-55.8,0-71.3,18.6-80.6,52.7L1393.7,158.1L1393.7,158.1z M1894.4,158.1h-69.8v204.6h74.4V257.3c0-31,18.6-41.8,55.8-41.8
			c38.8,0,49.6,12.4,49.6,52.7v94.5h76V254.2c0-29.5,21.7-38.7,57.4-38.7c34.1,0,51.1,10.8,51.1,38.7v108.5h74.4V241.8
			c0-60.4-37.2-88.4-105.4-88.4c-58.9,0-79.1,20.1-88.4,45c-15.5-26.4-37.2-45-96.1-45c-54.2,0-68.2,18.6-79,52.7L1894.4,158.1
			L1894.4,158.1z"/>
		<g>
			<path class="st5" d="M334.6,388.9c-20.4,11.4-43.8,18-68.8,18c-77.7,0-141-63.2-141-141s63.2-141,141-141c25,0,48.4,6.5,68.8,18
				V9c-21.9-5.9-45-9-68.8-9C119,0,0,119,0,265.9s119,265.9,265.9,265.9c23.8,0,46.8-3.2,68.8-9V388.9z"/>
			<g>
				<g>
					<rect x="334.6" y="149.8" class="st5" width="111.5" height="106.4"/>
					<polygon class="st5" points="566.4,149.8 460,256.2 411,256.2 411,149.8 					"/>
				</g>
				<g>
					<rect x="334.6" y="275.6" class="st5" width="111.5" height="106.4"/>
					<polygon class="st5" points="566.4,381.9 460,275.6 411,275.6 411,381.9 					"/>
				</g>
			</g>
		</g>
	</g>
</g>
</svg>
