<?xml version="1.0" encoding="utf-8"?>
<!-- Generator: Adobe Illustrator 25.1.0, SVG Export Plug-In . SVG Version: 6.00 Build 0)  -->
<svg version="1.1" id="Layer_1" xmlns="http://www.w3.org/2000/svg" xmlns:xlink="http://www.w3.org/1999/xlink" x="0px" y="0px"
	 viewBox="0 0 3840 982.1" style="enable-background:new 0 0 3840 982.1;" xml:space="preserve">
<style type="text/css">
	.st0{fill:#E50300;}
	.st1{fill:#FFFFFF;}
</style>
<g>
	<g>
		<g>
			<rect x="1677.1" y="469.6" class="st1" width="162.3" height="484.2"/>
			<rect x="3677.7" y="637" class="st1" width="162.3" height="316.7"/>
			<rect x="3677.7" y="469.6" class="st1" width="162.3" height="96.8"/>
			<g>
				<path class="st1" d="M810.6,659.2c-109.2,0-197.7,28.3-197.7,63.3c0,35,88.5,63.3,197.7,63.3s197.7-28.3,197.7-63.3
					C1008.3,687.5,919.8,659.2,810.6,659.2z M810.6,771.5c-85.7,0-155.2-21.9-155.2-49s69.5-49,155.2-49s155.2,21.9,155.2,49
					C965.8,749.5,896.3,771.5,810.6,771.5z"/>
			</g>
			<path class="st1" d="M1415.8,784.6c-82.9,80.5-322.5,138.7-605.2,138.7c-351.5,0-636.4-89.9-636.4-200.8s284.9-200.8,636.4-200.8
				c282.8,0,522.3,58.2,605.2,138.7h182c-86.9-113.4-406.3-197.5-787.2-197.5C362.9,462.9,0,579.1,0,722.5
				c0,143.4,362.9,259.6,810.6,259.6c380.8,0,700.3-84.1,787.2-197.5L1415.8,784.6L1415.8,784.6z"/>
			<path class="st1" d="M2231.5,469.6L2231.5,469.6l-412.7,0v54.8h412.7c351.5,0,636.4,83.8,636.4,187.2S2583,898.9,2231.5,898.9
				h-412.7v54.8h412.7l0,0c447.7,0,810.6-108.4,810.6-242.1C3042.1,578,2679.2,469.6,2231.5,469.6z"/>
			<polygon class="st1" points="3131.9,643.1 3131.9,780.3 3539.6,711.7 			"/>
		</g>
	</g>
	<g>
		<path class="st1" d="M2367.4,0c-37.9,0-114.4,0.4-114.4,0v332.9h93.1l0.6-83.2h41.6c88.7,0,135.2-42.8,135.2-124.8
			C2523.4,34.7,2465.2,0,2367.4,0z M2367.4,187.3h-20.8V62.4c5.6-0.3,15.9,0,20.8,0c47,0,64,24,64,64.4
			C2431.4,168.5,2416.9,187.3,2367.4,187.3z"/>
		<polygon class="st1" points="1535.1,332.9 1535.1,197.7 1441.4,197.7 1441.4,332.9 1347.8,332.9 1347.8,0 1441.4,0 1441.4,135.3 
			1535.1,135.3 1535.1,0 1628.7,0 1628.7,332.9 		"/>
		<polygon class="st1" points="1701.5,332.9 1701.5,0 1784.7,0 1795.2,0 1795.2,332.9 		"/>
		<polygon class="st1" points="2044.1,332.9 1868,332.9 1868,0 1961.6,0 1961.6,270.5 2055.3,270.5 		"/>
		<rect x="2086.5" class="st1" width="93.6" height="332.9"/>
		<path class="st1" d="M2648.3,83.2v10.4c0,51.1,156,27.6,156,135.2c0,80.7-55.7,104-135.2,104c-31.3,0-81.9-5.8-114.4-10.4v-72.8
			c28.7,14.8,83.1,20.8,114.4,20.8c35.2,0,41.6-11,41.6-31.2c0-57.3-156.1-32.7-156.1-145.6c0-65.6,64.1-93.7,141.1-93.7
			c54.5,0,63,5,87.8,10.4v62.4c-22.2-9.4-53.2-10.4-83.2-10.4C2672.9,62.4,2648.3,65.7,2648.3,83.2z"/>
		<path class="st1" d="M1150.1,0c-37.8,0-114.4,0.4-114.4,0v332.9h93.1l0.5-83.2h41.6c88.7,0,135.2-42.8,135.2-124.8
			C1306.2,34.7,1248,0,1150.1,0z M1150.1,187.3h-20.8V62.4c5.6-0.3,15.9,0,20.8,0c47,0,64,24,64,64.4
			C1214.1,168.5,1199.7,187.3,1150.1,187.3z"/>
	</g>
</g>
</svg>
