<?xml version="1.0" encoding="utf-8"?>
<!-- Generator: Adobe Illustrator 25.0.0, SVG Export Plug-In . SVG Version: 6.00 Build 0)  -->
<svg version="1.1" id="Layer_1" xmlns="http://www.w3.org/2000/svg" xmlns:xlink="http://www.w3.org/1999/xlink" x="0px" y="0px"
	 viewBox="0 0 3840 1078.5" style="enable-background:new 0 0 3840 1078.5;" xml:space="preserve">
<style type="text/css">
	.st0{fill:#FFFFFF;}
</style>
<g>
	<path class="st0" d="M2123.8,911.8c-0.5-0.2-1-0.4-1.5-0.6c-0.4-0.2-0.8-0.4-1.2-0.5c-0.5-0.2-1-0.4-1.4-0.6
		c-0.4-0.2-0.8-0.4-1.2-0.6c-0.5-0.2-0.9-0.5-1.4-0.7c-0.4-0.2-0.8-0.4-1.2-0.6c-0.5-0.3-0.9-0.5-1.4-0.8c-0.4-0.2-0.8-0.5-1.1-0.7
		c-0.5-0.3-0.9-0.6-1.3-0.9c-0.4-0.2-0.7-0.5-1.1-0.7c-0.5-0.3-0.9-0.6-1.3-0.9c-0.3-0.2-0.7-0.5-1-0.7c-0.5-0.3-0.9-0.7-1.4-1.1
		c-0.3-0.2-0.6-0.5-0.9-0.7c-0.5-0.4-1-0.9-1.5-1.3c-0.2-0.2-0.4-0.4-0.7-0.6c-0.7-0.6-1.4-1.3-2.1-2c-0.2-0.2-0.4-0.4-0.5-0.6
		c-0.5-0.5-1-1-1.5-1.5c-0.2-0.3-0.5-0.6-0.7-0.8c-0.4-0.4-0.8-0.9-1.2-1.4c-0.3-0.3-0.5-0.6-0.8-0.9c-0.4-0.4-0.7-0.9-1-1.3
		c-0.3-0.3-0.5-0.7-0.7-1c-0.3-0.4-0.6-0.9-1-1.3c-0.2-0.3-0.5-0.7-0.7-1.1c-0.3-0.5-0.6-0.9-0.9-1.4c-0.2-0.4-0.4-0.7-0.7-1.1
		c-0.1-0.2-0.3-0.5-0.4-0.7l0,0c-2.7-4.7-4.8-9.7-6.2-15c-35,31.7-56.5,59.7-43.9,69.3c4.7,3.6,14.3,3.2,27.2-0.5
		c-0.1-0.7-0.1-1.3-0.1-2c0-11.2,9.1-20.3,20.3-20.3c6.4,0,12.1,2.9,15.8,7.5c6.5-3.3,13.3-7,20.3-11.1c-0.1,0-0.2-0.1-0.4-0.1
		C2124.7,912.1,2124.2,911.9,2123.8,911.8z"/>
	<path class="st0" d="M2177.7,799.4c5.5,3.2,10.4,7.2,14.7,11.9l0,0c0,0,0,0,0,0c0.1,0.1,0.2,0.2,0.3,0.3c0.5,0.6,1,1.2,1.5,1.8
		c0.2,0.2,0.4,0.5,0.6,0.8c0.4,0.5,0.8,0.9,1.1,1.4c0.2,0.3,0.4,0.6,0.7,0.9c0.3,0.4,0.7,0.9,1,1.4c0.2,0.3,0.5,0.7,0.7,1
		c0.3,0.4,0.6,0.9,0.9,1.4c0.2,0.3,0.4,0.7,0.6,1c0.3,0.5,0.6,1,0.8,1.5c0.4,0.7,0.8,1.4,1.1,2.1c0.2,0.4,0.4,0.8,0.6,1.2
		c0.2,0.5,0.5,1,0.7,1.5c0.2,0.3,0.3,0.7,0.5,1c0.2,0.5,0.4,1.1,0.7,1.6c0.1,0.3,0.2,0.6,0.4,0.9c0.2,0.6,0.4,1.1,0.6,1.7
		c0.1,0.2,0.2,0.5,0.3,0.7c0.2,0.6,0.4,1.3,0.6,1.9c0,0,0,0.1,0,0.1c0.7,2.4,1.3,4.8,1.7,7.3c0,0.1,0,0.2,0,0.3
		c0.1,0.7,0.2,1.5,0.3,2.3c0,0.2,0,0.3,0.1,0.5c0.1,0.7,0.2,1.5,0.2,2.3c0,0.1,0,0.1,0,0.2c30.7-32.2,51.7-66.3,47.1-74.7
		C2249.3,762.1,2217.7,774.2,2177.7,799.4z"/>
	<path class="st0" d="M1446.8,413.1H1009c-13.5,0-24.4,10.9-24.4,24.4v451.6c0,13.5,10.9,24.4,24.4,24.4h122
		c13.5,0,24.4-10.9,24.4-24.4V565.6h64.4v323.5c0,13.5,10.9,24.4,24.4,24.4h122c13.5,0,24.4-10.9,24.4-24.4V565.6h33.1
		c17.3,0,31.3,14,31.3,31.3v292.3c0,13.5,10.9,24.4,24.4,24.4h122c13.5,0,24.4-10.9,24.4-24.4v-297
		C1625.8,493.2,1545.6,413.1,1446.8,413.1z M1585.1,872.8h-89.4v-276c0-39.6-32.4-71.9-71.9-71.9h-13.4h-60.4v347.9h-89.4V524.9
		h-39.9h-105.8v347.9h-89.4v-419h89.4h105.8h39.9h89.4h60.4h36.5c76.4,0,138.3,61.9,138.3,138.3V872.8z"/>
	<path class="st0" d="M623,749.7v1.3c0,28.1,22.7,50.8,50.8,50.8h156.6V698.8H673.9C645.8,698.8,623,721.6,623,749.7z M789.8,739.5
		V761H673.9c-5.6,0-10.1-4.5-10.1-10.1v-1.3c0-5.6,4.5-10.1,10.1-10.1H789.8z"/>
	<path class="st0" d="M781.6,413.1H539.1c-13.5,0-24.4,10.9-24.4,24.4v103.6c0,13.5,10.9,24.4,24.4,24.4h219.4
		c13.8,0,25.6,9,29.7,21.5l-127.8,0c-91.3,0-169,74.7-167.5,166c1.5,88.7,74.1,160.4,163.2,160.4h280.1c13.5,0,24.4-10.9,24.4-24.4
		v-297C960.6,493.2,880.5,413.1,781.6,413.1z M919.9,627.8v71.1v102.9v71.1h-89.4H656.1c-67.7,0-122.5-54.9-122.5-122.5
		c0-67.7,54.9-122.5,122.5-122.5h101h73.3v-30.9c0-39.6-32.4-71.9-71.9-71.9H555.4v-71.1h226.3c76.4,0,138.3,61.9,138.3,138.3V627.8
		z"/>
	<path class="st0" d="M3661,413.1h-437.8c-13.5,0-24.4,10.9-24.4,24.4v451.6c0,13.5,10.9,24.4,24.4,24.4h122
		c13.5,0,24.4-10.9,24.4-24.4V565.6h64.4v323.5c0,13.5,10.9,24.4,24.4,24.4h122c13.5,0,24.4-10.9,24.4-24.4V565.6h33.1
		c17.3,0,31.3,14,31.3,31.3v292.3c0,13.5,10.9,24.4,24.4,24.4h122c13.5,0,24.4-10.9,24.4-24.4v-297
		C3840,493.2,3759.9,413.1,3661,413.1z M3799.3,872.8h-89.4v-276c0-39.6-32.4-71.9-71.9-71.9h-73.8v347.9h-89.4V524.9H3329v347.9
		h-89.4v-419H3661c76.4,0,138.3,61.9,138.3,138.3V872.8z"/>
	<path class="st0" d="M460.4,413.1H211.7C87,413.1,0,516,0,663.3s87,250.2,211.7,250.2h96.2c-5.7,7.6-14.8,12.6-25,12.6H63.3
		c-13.5,0-24.4,10.9-24.4,24.4v103.7c0,13.5,10.9,24.4,24.4,24.4h242.6c98.8,0,179-80.1,179-179V437.5
		C484.9,424,473.9,413.1,460.4,413.1z M444.2,524.9v276.9v71.1v26.8c0,76.4-61.9,138.3-138.3,138.3H79.6v-71.1h203.2
		c39.6,0,71.9-32.4,71.9-71.9v-22h-143c-111.7,0-171-100.1-171-209.5s59.3-209.5,171-209.5h143h89.4V524.9z"/>
	<path class="st0" d="M141.1,663.3c0,129.9,85.4,138.4,102.7,138.4c23.7,0,69.2,0,110.9,0V524.9c-41.7,0-87.2,0-110.9,0
		C226.6,524.9,141.1,533.4,141.1,663.3z M314,761h-70.2c-14.5,0-62-7-62-97.7s47.4-97.7,62-97.7H314V761z"/>
	<path class="st0" d="M2648.4,761h-152.6c-14.5,0-62-7-62-97.7s47.4-97.7,62-97.7h152.6c13.5,0,24.4-10.9,24.4-24.4V437.5
		c0-13.5-10.9-24.4-24.4-24.4h-184.7C2339,413.1,2252,516,2252,663.3c0,19.1,1.5,37.4,4.3,54.9c-27.7,1-61.5,16.5-91.2,33.8
		c-5.5-1-11.1-1.6-16.8-1.7c-0.7,0-1.4-0.1-2.1-0.1c-3.5,0-6.9,0.2-10.3,0.5c-1.1,0.1-2.1,0.3-3.1,0.5c-2.3,0.3-4.6,0.6-6.9,1.1
		c-1.3,0.3-2.6,0.6-3.9,1c-1.9,0.5-3.8,0.9-5.7,1.5c-1.5,0.4-2.9,1-4.3,1.5c-1.7,0.6-3.3,1.1-4.9,1.8c-1.5,0.6-3,1.3-4.5,2
		c-1.4,0.7-2.9,1.3-4.3,2.1c-1.6,0.8-3.1,1.7-4.6,2.6c-1.2,0.7-2.5,1.5-3.7,2.3c-1.6,1-3.1,2.1-4.6,3.2c-1.1,0.8-2.1,1.5-3.1,2.4
		c-1.6,1.2-3.1,2.5-4.5,3.9c-0.9,0.8-1.7,1.5-2.6,2.4c-1.5,1.5-3,3-4.4,4.5c-0.7,0.8-1.4,1.5-2.1,2.3c-1.5,1.7-2.9,3.4-4.3,5.2
		c-0.5,0.7-1.1,1.4-1.6,2.1c-1.4,1.9-2.7,3.9-4,5.9c-0.4,0.6-0.8,1.3-1.2,1.9c-1.3,2.2-2.5,4.3-3.6,6.6v-21.7
		c0-13.5-10.9-24.4-24.4-24.4H1877c-7.7,0-27.2-2.1-42.2-21.5h194.8c13.5,0,24.4-10.9,24.4-24.4V611.5c0-13.5-10.9-24.4-24.4-24.4
		h-194.8c15.1-19.4,34.5-21.5,42.2-21.5h152.5c13.5,0,24.4-10.9,24.4-24.4V437.5c0-13.5-10.9-24.4-24.4-24.4h-184.7
		c-124.6,0-211.7,102.9-211.7,250.2s87.1,250.2,211.7,250.2h146.8c-3.6,8.5-5.7,16.8-6,24.7c-0.6,16.8,5.7,31.9,17.9,42.7
		c8.9,7.8,24.5,17.2,48.6,17.2c0,0,0,0,0,0c7.2,0,14.9-0.9,23.1-2.6c4.5,1.1,9.2,1.7,14.1,1.7c21.5,0,40.4-11.2,51.3-28.1
		c7.6-4.2,15.5-9.1,23.6-14.2c0,0,0,0,0,0c12.5-2.2,24.3-6.7,34.8-13.1c0.2-0.1,0.4-0.3,0.7-0.4c13.9-8.5,25.7-20.2,34.2-34.1
		c0.1-0.2,0.2-0.4,0.3-0.6c2.1-3.4,4-7,5.7-10.7c20-19.7,42.1-44.9,57.3-70.6c37.5,55.1,95.9,88,166.3,88h184.7
		c13.5,0,24.4-10.9,24.4-24.4V785.5C2672.8,772,2661.9,761,2648.4,761z M2013.3,872.8h-168.4c-111.7,0-171-100.1-171-209.5
		s59.3-209.5,171-209.5h168.4v71.1c0,0-85.8,0-136.3,0c-15.5,0-86.2,7-100.2,102.9h236.5v71.1h-236.5
		c14,95.9,84.7,102.9,100.2,102.9c50.5,0,136.3,0,136.3,0V872.8z M2205.4,873.4c-2,5.9-4.8,11.4-8.4,16.3c0,0,0,0,0,0
		c-1.8,2.4-3.7,4.7-5.8,6.9c0,0-0.1,0.1-0.1,0.1c-0.5,0.5-1,1-1.5,1.5c-0.1,0.1-0.2,0.1-0.2,0.2c-1.5,1.5-3.2,2.9-4.8,4.2
		c-0.1,0.1-0.2,0.1-0.3,0.2c-0.5,0.4-1,0.8-1.6,1.2c-0.2,0.1-0.3,0.2-0.5,0.3c-1.7,1.2-3.4,2.3-5.2,3.3c-0.1,0.1-0.3,0.2-0.4,0.2
		c-0.5,0.3-1.1,0.6-1.6,0.9c-0.2,0.1-0.5,0.2-0.7,0.4c-0.5,0.3-1.1,0.5-1.6,0.8c-0.2,0.1-0.3,0.2-0.5,0.2c-1.1,0.5-2.2,1-3.4,1.4
		c-0.2,0.1-0.4,0.1-0.6,0.2c-0.5,0.2-1.1,0.4-1.6,0.6c-0.3,0.1-0.6,0.2-0.9,0.3c-0.5,0.2-1.1,0.4-1.6,0.5c-0.3,0.1-0.5,0.2-0.8,0.2
		c-1.1,0.3-2.3,0.6-3.4,0.9c-0.2,0-0.4,0.1-0.5,0.1c-0.6,0.1-1.1,0.2-1.7,0.3c-0.3,0.1-0.7,0.1-1,0.2c-0.6,0.1-1.1,0.2-1.7,0.3
		c-0.3,0-0.7,0.1-1,0.1c-1.4,0.2-2.7,0.3-4.1,0.4c-14,9.3-27.7,17.3-40.5,23.8c-1.6,9.6-10,16.9-20,16.9c-4.3,0-8.3-1.4-11.6-3.7
		c-20.6,6.4-37.1,6.4-47.1-2.5c-14.8-13.1,10.9-48.8,53.8-87.9c-0.4-3-0.7-6-0.7-9.1c0-34.5,28-62.5,62.5-62.5
		c8.8,0,17.2,1.8,24.8,5.1c51.6-32.7,94.4-46.6,103.9-30.2C2282.5,778.9,2250.4,831.8,2205.4,873.4z M2632.1,872.8h-168.4
		c-111.7,0-171-100.1-171-209.5s59.3-209.5,171-209.5h168.4v71.1c0,0-85.8,0-136.3,0c-17.2,0-102.7,8.5-102.7,138.4
		s85.4,138.4,102.7,138.4c50.5,0,136.3,0,136.3,0V872.8z"/>
	<path class="st0" d="M2931.2,517.9c-84.2,0-125,56.9-125,152.7c0,95.8,40.8,152.7,125,152.7c84.2,0,125-56.9,125-152.7
		C3056.1,574.8,3015.4,517.9,2931.2,517.9z M2931.2,782.7c-23.1,0-84.3,0-84.3-112c0-112,61.2-112,84.3-112c23.1,0,84.3,0,84.3,112
		C3015.4,782.7,2954.2,782.7,2931.2,782.7z"/>
	<path class="st0" d="M2931.2,409.8c-160.9,0-260.9,100-260.9,260.9c0,160.9,100,260.9,260.9,260.9c160.9,0,260.9-100,260.9-260.9
		C3192.1,509.7,3092.1,409.8,2931.2,409.8z M2931.2,890.8c-134.6,0-220.2-78.7-220.2-220.2c0-141.4,85.6-220.2,220.2-220.2
		c134.6,0,220.2,78.7,220.2,220.2C3151.4,812.1,3065.8,890.8,2931.2,890.8z"/>
	<rect x="1529.7" y="0" class="st0" width="82.8" height="287.8"/>
	<polygon class="st0" points="1362.8,71.5 1362.8,286.1 1362.8,287.8 1445.6,287.8 1445.6,286.1 1445.6,71.5 1445.6,70.6 
		1506.1,70.6 1506.1,0 1302.3,0 1302.3,70.6 1362.8,70.6 	"/>
	<path class="st0" d="M1758,287.8h148.8v-1.8v-68.8v-38.1v-70.6v0h-146v70.6h63.2v38.1h-42.2c0,0,0,0,0,0
		c-97.8,0-97.8-146.7,0-146.7h125V0H1758c-82.5,0-126.4,72-126.4,143.9S1675.6,287.8,1758,287.8z"/>
	<path class="st0" d="M2242.6,70.6h62c10.3,0,19.5,7.7,20.1,18c0.6,11-8.2,20.1-19,20.1h-40.3v70.6h23.3c11.1,0,20.2,9,20.2,20.2
		v88.5h82.8h375.8c59.7,0,99.8-44.8,99.8-89.6c0-30.5-18.5-61-49.2-77.3c-22.9-12.2-50.6,5.2-50.6,31.2c0,1.8,0,3.6,0,5.4
		c0,10.3,5.1,19.4,12.8,26.2c11.4,10.1,7.1,33.6-12.8,33.6v0h-375.8v-27.5c0-11.4-6.5-21.2-16-26.1c20.9-17,34-45.5,34-74
		c0-44.8-32-89.6-76.4-89.6v0h-132.1h-41.4v195h82.8V70.6z"/>
	<path class="st0" d="M1451.7,103.3c0,15,12.2,27.2,27.2,27.2s27.2-12.2,27.2-27.2c0-15-12.2-27.2-27.2-27.2
		S1451.7,88.3,1451.7,103.3z"/>
	<path class="st0" d="M1329.5,130.5c15,0,27.2-12.2,27.2-27.2c0-15-12.2-27.2-27.2-27.2c-15,0-27.2,12.2-27.2,27.2
		C1302.3,118.3,1314.5,130.5,1329.5,130.5z"/>
	<path class="st0" d="M1998.9,287.8h13.6h230.1v-70.6h-203.5c-10.5,0-19-8.5-19-19c0-10.5,8.5-19,19-19h105.4v-70.6h-105.4
		c-10.5,0-19-8.5-19-19c0-10.5,8.5-19,19-19h105.4V0h-132.1h-13.6c-41,0-74.3,33.3-74.3,74.3v10.6c0,32.6,25.6,59.1,33.6,59.1
		c-8,0-33.6,26.4-33.6,59.1v10.6C1924.6,254.6,1957.9,287.8,1998.9,287.8z"/>
</g>
</svg>
