<?xml version="1.0" encoding="utf-8"?>
<!-- Generator: Adobe Illustrator 25.4.1, SVG Export Plug-In . SVG Version: 6.00 Build 0)  -->
<svg version="1.1" id="Layer_1" xmlns="http://www.w3.org/2000/svg" xmlns:xlink="http://www.w3.org/1999/xlink" x="0px" y="0px"
	 viewBox="0 0 3839 1328.6" style="enable-background:new 0 0 3839 1328.6;" xml:space="preserve">
<style type="text/css">
	.st0{fill:#232F95;}
	.st1{fill:#FFFFFF;}
	.st2{fill:url(#SVGID_1_);}
	.st3{fill:url(#SVGID_00000035532881457466600030000003977598796985876876_);}
	.st4{fill:url(#SVGID_00000126296533502805534060000003048919097354556291_);}
	.st5{fill:url(#SVGID_00000072278628469960061340000010513255335597439414_);}
	.st6{fill:url(#SVGID_00000172401746389207346390000000875619470647439239_);}
	.st7{fill:url(#SVGID_00000028302775279278740800000006964118486874813077_);}
	.st8{fill:url(#SVGID_00000135685711304433658450000015832413652758830214_);}
	.st9{fill:url(#SVGID_00000138556998914063028770000003553703667458250660_);}
	.st10{fill:url(#SVGID_00000086657151323553808920000015613757642611996814_);}
	.st11{fill:url(#SVGID_00000039839080843046327320000014511166774661992591_);}
	.st12{fill:url(#SVGID_00000142872485245674680670000000828243453355478702_);}
	.st13{fill:url(#SVGID_00000098911978630206750690000007236886213073320601_);}
	.st14{fill:url(#SVGID_00000002364449614185090980000009272942283075170222_);}
	.st15{fill:url(#SVGID_00000052082065975326732820000001813484038447972515_);}
	.st16{fill:url(#SVGID_00000141453900370040217130000003715129516272230555_);}
	.st17{fill:url(#SVGID_00000058576938766201598750000013189223401469351591_);}
	.st18{fill:url(#SVGID_00000144297523923986412060000001369055505403206279_);}
	.st19{fill:url(#SVGID_00000111193496820455640050000006722298130707032718_);}
	.st20{fill:url(#SVGID_00000148662772676393055100000005646090972631412876_);}
	.st21{fill:url(#SVGID_00000018953836628801456660000006509377861034386095_);}
	.st22{fill:url(#SVGID_00000057141597954088425200000003812093230182990247_);}
	.st23{fill:url(#SVGID_00000103980507287935071370000012209107467245807272_);}
	.st24{fill:url(#SVGID_00000121962781916005744960000007501425749329879718_);}
	.st25{fill:url(#SVGID_00000100364887102039207240000016010556114388929173_);}
	.st26{fill:url(#SVGID_00000105411187617397700870000003756295589005624968_);}
	.st27{fill:url(#SVGID_00000118364222820027084380000018123248634127539079_);}
	.st28{fill:url(#SVGID_00000071542452932556504710000005520100171989120405_);}
	.st29{fill:url(#SVGID_00000133493515148483731410000016008407066847052443_);}
	.st30{fill:url(#SVGID_00000181082109934232798720000002250522006114424998_);}
	.st31{fill:url(#SVGID_00000061458078415576942600000012623863284629066159_);}
	.st32{fill:url(#SVGID_00000141428456216234749060000006127893077316595122_);}
	.st33{fill:url(#SVGID_00000022535201658899286110000001453919272079271574_);}
	.st34{fill:url(#SVGID_00000012468669279852262710000018303074159039465874_);}
	.st35{fill:url(#SVGID_00000137099176053131150360000012411229499803016118_);}
	.st36{fill:url(#SVGID_00000083800356800789728730000017485184203810516101_);}
	.st37{fill:url(#SVGID_00000134239734696152167400000002186632724110663356_);}
	.st38{fill:url(#SVGID_00000009581966286013920550000013401407028426382750_);}
	.st39{fill:url(#SVGID_00000119114528992111020640000001813220724044907693_);}
	.st40{fill:url(#SVGID_00000108991981847427016540000011018312863997227191_);}
	.st41{fill:url(#SVGID_00000141453162718807801420000000928514163687550609_);}
	.st42{fill:url(#SVGID_00000173119451965436400570000002683848337175839894_);}
	.st43{fill:url(#SVGID_00000018226124761203180180000002876763869692896154_);}
	.st44{fill:url(#SVGID_00000182486613427167318000000007838244428309473703_);}
	.st45{fill:url(#SVGID_00000176043665179295471280000001783892499345480338_);}
	.st46{fill:url(#SVGID_00000138544176612876102810000012443069396040441254_);}
	.st47{fill:url(#SVGID_00000053515282386899650010000014673724035641877893_);}
	.st48{fill:url(#SVGID_00000095318158710058298500000018009414746132450720_);}
	.st49{fill:url(#SVGID_00000031905762621285381250000017600066297637521320_);}
	.st50{fill:url(#SVGID_00000159440243412785429300000013152746912886638996_);}
	.st51{fill:url(#SVGID_00000012459239096766548900000008390625994712480154_);}
	.st52{fill:url(#SVGID_00000176750588898865787140000015277957067716709259_);}
	.st53{fill:url(#SVGID_00000018237701259616890750000008875909648442321804_);}
	.st54{fill:url(#SVGID_00000174597904289640514700000014892722781057256125_);}
	.st55{fill:url(#SVGID_00000023972663452530209940000013570748404294867338_);}
	.st56{fill:url(#SVGID_00000161598768232610142690000005221841096351871631_);}
	.st57{fill:url(#SVGID_00000120526774263787603020000002396669229936329636_);}
	.st58{fill:url(#SVGID_00000133508063361190011160000014066197127789220486_);}
	.st59{fill:url(#SVGID_00000018947842997235174860000010889506591435968674_);}
	.st60{fill:url(#SVGID_00000127757448470428162100000000894684693152033432_);}
	.st61{fill:url(#SVGID_00000007426911073377791830000017195281028374160803_);}
	.st62{fill:url(#SVGID_00000108282949252935036050000014727557473719691450_);}
	.st63{fill:url(#SVGID_00000105415581480397232130000003700693194280917645_);}
	.st64{fill:url(#SVGID_00000175283820767228699890000014501500385139366563_);}
	.st65{fill:url(#SVGID_00000021819242163819764700000013136738010323350688_);}
	.st66{fill:url(#SVGID_00000123425165828924571280000009098180978828280737_);}
	.st67{fill:url(#SVGID_00000144297542441504957100000001026537300818367646_);}
	.st68{fill:url(#SVGID_00000044864668005342403760000012558073559299135363_);}
	.st69{fill:url(#SVGID_00000086679949287969917020000002789616591903292814_);}
	.st70{fill:url(#SVGID_00000090254684542174719560000018317983867525659582_);}
	.st71{fill:url(#SVGID_00000070120765157295077240000012006491899106654085_);}
	.st72{fill:url(#SVGID_00000158738055211556222240000005638013451675614087_);}
	.st73{fill:url(#SVGID_00000133514666394325990380000008484326544540365239_);}
	.st74{fill:url(#SVGID_00000137841874249970485320000013389178142148543387_);}
	.st75{fill:url(#SVGID_00000127032470830673467420000010233738958590188725_);}
	.st76{fill:url(#SVGID_00000096767673167832583810000014867556576372534189_);}
	.st77{fill:url(#SVGID_00000071554797440998919220000013785295744233469349_);}
	.st78{fill:url(#SVGID_00000066479283863407246990000003661231330986307993_);}
	.st79{fill:url(#SVGID_00000173869517537448880760000003591571790171344562_);}
	.st80{fill:url(#SVGID_00000044173522292166488110000010514727040515282863_);}
	.st81{fill:url(#SVGID_00000128475064540066064360000002063053988607378618_);}
	.st82{fill:url(#SVGID_00000116952695240341741040000012553660629137568139_);}
	.st83{fill:url(#SVGID_00000037694209605050168330000012266054412804026287_);}
	.st84{fill:url(#SVGID_00000011746132220613799870000015612074499728494013_);}
	.st85{fill:url(#SVGID_00000098935655686437700850000005017426066726133913_);}
	.st86{fill:url(#SVGID_00000120519784486799571680000004701375391040860071_);}
	.st87{fill:url(#SVGID_00000152241874533492262210000006650529945086698901_);}
	.st88{fill:url(#SVGID_00000148646190451583878130000010274524282475418550_);}
	.st89{fill:url(#SVGID_00000111177459665023655480000008873413426319872437_);}
	.st90{fill:url(#SVGID_00000068673761104551184510000012984509610657472419_);}
	.st91{fill:url(#SVGID_00000053541633110493358640000007575412186992150697_);}
	.st92{fill:url(#SVGID_00000069370110521273322180000003159215017643843513_);}
	.st93{fill:url(#SVGID_00000062186643785261850200000001905587687268869019_);}
	.st94{fill:url(#SVGID_00000036246167194702293490000005152242990084392882_);}
	.st95{fill:url(#SVGID_00000000186412288107239920000014037429396348608916_);}
	.st96{fill:url(#SVGID_00000121240603115124093160000018269932831962744213_);}
	.st97{fill:url(#SVGID_00000158031076121441166120000002756454293209237429_);}
	.st98{fill:url(#SVGID_00000171696713478077487430000014214190644557911687_);}
	.st99{fill:url(#SVGID_00000183948235357222739630000004803662996566976184_);}
	.st100{fill:url(#SVGID_00000147933929875990269360000009842392252157979034_);}
	.st101{fill:url(#SVGID_00000121985147837410853730000001028901081913941632_);}
	.st102{fill:#502F8E;}
	.st103{fill:url(#SVGID_00000163782379241257792100000014522947739188988557_);}
	.st104{fill:url(#SVGID_00000153691013838342737000000015142897912656142762_);}
	.st105{fill:url(#SVGID_00000011737090406728115360000005920317738727520434_);}
	.st106{fill:url(#SVGID_00000018940792236031061490000006236279367649218492_);}
	.st107{fill:url(#SVGID_00000103958904423315059490000014516710471483746176_);}
	.st108{fill:url(#SVGID_00000149353357523727704990000013076961986359314560_);}
	.st109{fill:url(#SVGID_00000102525399876391605190000003582439342484448188_);}
	.st110{fill:url(#SVGID_00000072270386097100341110000000212803649011307419_);}
	.st111{fill:url(#SVGID_00000003070172655852641230000004874758695178668958_);}
	.st112{fill:url(#SVGID_00000176019511059893832580000004305057423057858972_);}
	.st113{fill:url(#SVGID_00000163771342085831690050000013689188379430376615_);}
	.st114{fill:url(#SVGID_00000102521621718352168180000005980446755810831503_);}
	.st115{fill:url(#SVGID_00000182489225682257546910000004044859691383298463_);}
	.st116{fill:url(#SVGID_00000090974153335636215390000013141982111594617000_);}
	.st117{fill:url(#SVGID_00000151544234440859800740000000793942664881838014_);}
	.st118{fill:url(#SVGID_00000130648550683422618270000000597518520067641271_);}
	.st119{fill:url(#SVGID_00000161604570874669193350000008923289945488277420_);}
	.st120{fill:url(#SVGID_00000014622832845563550990000012599030192129721501_);}
	.st121{fill:url(#SVGID_00000070108086906487439320000003250744833893136552_);}
	.st122{fill:url(#SVGID_00000029746792150479571380000015652852171028007573_);}
	.st123{fill:url(#SVGID_00000030468680448727047960000001267408213900172931_);}
	.st124{fill:url(#SVGID_00000042010554792361708440000017984761203970740608_);}
	.st125{fill:url(#SVGID_00000159435422095888972190000017674988148422131603_);}
	.st126{fill:url(#SVGID_00000031921439825962644510000005099649513559556523_);}
	.st127{fill:url(#SVGID_00000127750594293677943160000000531608969348773768_);}
	.st128{fill:url(#SVGID_00000010274684641450646620000000959834896223353262_);}
	.st129{fill:url(#SVGID_00000052822299682586324010000006661381806643268796_);}
	.st130{fill:url(#SVGID_00000062152895200068615070000007196712224880092577_);}
	.st131{fill:url(#SVGID_00000137090386079570115850000011835845001333479809_);}
	.st132{fill:url(#SVGID_00000140011589447298781750000006218978556673879980_);}
	.st133{fill:url(#SVGID_00000082339954775769913960000012191873444397893782_);}
	.st134{fill:url(#SVGID_00000156585477615585529690000004218706319326724022_);}
	.st135{fill:url(#SVGID_00000017498936367033952170000001603646502423372977_);}
	.st136{fill:url(#SVGID_00000116951096039951750710000016722521710102688419_);}
	.st137{fill:url(#SVGID_00000062905540241796835830000002797169903046785960_);}
	.st138{fill:url(#SVGID_00000105418964901540041590000010776031218624044448_);}
	.st139{fill:url(#SVGID_00000086670386776917732900000001335293089310927786_);}
	.st140{fill:url(#SVGID_00000101784836413567109620000005135750594521198483_);}
	.st141{fill:url(#SVGID_00000153664151794038892070000015244223274046873229_);}
	.st142{fill:url(#SVGID_00000045577611967051812990000014541200203670434204_);}
	.st143{fill:url(#SVGID_00000101810758266608178460000005371524336078086530_);}
	.st144{fill:url(#SVGID_00000039119655203103279080000013708456757920835474_);}
	.st145{fill:url(#SVGID_00000153693503379915821610000005415790510707054527_);}
	.st146{fill:url(#SVGID_00000077315971633106899540000007280105764913926290_);}
	.st147{fill:url(#SVGID_00000116209437204718776790000015546856643117874094_);}
	.st148{fill:url(#SVGID_00000103980159621132494760000017444117090341740195_);}
	.st149{fill:url(#SVGID_00000134237885894916709160000005436366432503141035_);}
	.st150{fill:url(#SVGID_00000002382416583893975080000013373535340383183506_);}
	.st151{fill:url(#SVGID_00000095340450112756336960000015864196733036955537_);}
	.st152{fill:url(#SVGID_00000013887531085410657200000016436693608157300117_);}
	.st153{fill:url(#SVGID_00000135672546465197684490000013667000184542514869_);}
	.st154{fill:url(#SVGID_00000040533358234120406470000001137972581568643237_);}
	.st155{fill:url(#SVGID_00000149366173420894934670000012987924039664118967_);}
	.st156{fill:url(#SVGID_00000106853388433593882970000008940122598147453342_);}
	.st157{fill:url(#SVGID_00000097498643094899762880000017354366589909419957_);}
	.st158{fill:url(#SVGID_00000036974494526213620390000005056445866066239105_);}
	.st159{fill:url(#SVGID_00000005265282259254012170000017861155652703606684_);}
	.st160{fill:url(#SVGID_00000088124299182963029700000001835958155697703596_);}
	.st161{fill:url(#SVGID_00000104697776396244647360000016669680933289759362_);}
	.st162{fill:url(#SVGID_00000095302764772187902150000009621617499292934020_);}
	.st163{fill:url(#SVGID_00000004546600579896406580000015964904727103654583_);}
	.st164{fill:url(#SVGID_00000047038682199407961990000015648872461950060962_);}
	.st165{fill:url(#SVGID_00000000926689241067881330000005055560217770495387_);}
	.st166{fill:url(#SVGID_00000062871207069042993420000016582893016017323923_);}
	.st167{fill:url(#SVGID_00000109733836993153351830000000838599864841464722_);}
	.st168{fill:url(#SVGID_00000011032530906069121130000006824976462056511393_);}
	.st169{fill:url(#SVGID_00000173147677193136287250000018071533290056875158_);}
	.st170{fill:url(#SVGID_00000145018100701001581390000014964249022058625925_);}
</style>
<g>
	<g>
		<g>
			<path class="st1" d="M1595.6,870.7l-3.8,6.9L1431,1169.5l-170.5-292.2l-3.9-6.7h-150.7l12.4,20.4l29,47.8
				c-46.5-44.2-117.7-68.2-210.4-68.2H633.6v379.5L409,877.6l-3.9-6.5h-116l-3.9,6.6L29.6,1308.2l-12,20.2h100.4v0.2h223.3v-101.1
				H210l131.5-237.1l185.7,331.3l3.8,6.8h149.7l-0.2-0.4h229.9c198.2,0,298.8-77.4,298.8-230.2c0-26.5-3.4-51-10-73.3l179.9,297
				l3.9,6.4h87.6l3.8-6.7l249.7-430.5l11.7-20.1H1595.6z M888,1221.4h-122V974.4h172c93,0,136.3,37.6,136.3,118.3
				C1074.3,1188.8,1027.2,1221.4,888,1221.4z"/>
			<polyline class="st1" points="2611.3,870.7 2597.8,870.7 2597.8,1142.7 2254,873.5 2250.4,870.7 2160.2,870.7 2160.2,1250.5 
				1935.2,877.4 1931.2,870.9 1815.2,870.9 1811.4,877.4 1555.8,1308 1543.8,1328.3 1680.1,1328.3 1680.4,1327.8 1867.9,1327.8 
				1867.9,1226.7 1736.5,1226.7 1867.8,990.1 2053.5,1321.4 2057.3,1328.3 2207,1328.3 2206.9,1328 2282.5,1328 2282.5,1052.2 
				2625.1,1325.1 2628.8,1328 2718.8,1328 2718.8,870.7 2611.3,870.7 			"/>
			<path class="st1" d="M3152.3,870.8h-268.1c-94.1,0-125.8,29.1-125.8,115.4v226.6c0,86,31.7,115.2,125.8,115.2h268.1
				c94.2,0,126-29.1,126-115.2v-64.2l-13.4-0.1l-105.5-0.2H3146v70.4h-255.5V977.2H3146v63.5l13.4,0.1l105.5,0.4l13.5,0v-55.1
				C3278.4,898.8,3247.7,870.8,3152.3,870.8"/>
			<polyline class="st1" points="3801.7,1221.4 3453.7,1221.4 3453.7,1141.2 3661.4,1141.2 3661.4,1040.3 3453.7,1040.3 
				3453.7,974.3 3810.1,974.3 3810.1,870.8 3321.3,870.8 3321.3,1328 3815.1,1328 3815.1,1221.4 3801.7,1221.4 			"/>
		</g>
	</g>
	<path class="st1" d="M1523.7,18l-151.9,357.5L1306.2,18h-132.6l-171.3,527.5L914.4,18H749L498.6,586.3L536,348.7H287.2l-19,122.3
		h104l-11.9,65.5c-59.6,23.8-160.9,14.8-204.1-62.6c-27.3-49.1-52.7-158.7,62.5-259.3c93.8-82,256.3-96.8,350.1-53.6
		c0,0,11.9-68.6,20.9-132.6C409.3-34.2,269.3,18,175.5,76.1C47.7,155.2-13.8,275.7,2.6,439.6c19,190.2,265.2,309.9,473.7,189.2
		c1.9-1.1,3.4-2,4.8-2.8l-19.6,44.5h140l87.9-195.2h154.9l34.3,195.2h228l116.2-365l74.6,365h89.4L1561,266.8l17.8,403.7h134.1
		L1684.7,18H1523.7 M743,348.7l56.6-126.6l24.6,126.6H743z"/>
	<polyline class="st1" points="1723.4,670.5 2097.3,670.5 2119.7,530.5 1885.7,530.5 1904.3,414.3 2107.8,414.3 2130.1,274.3 
		1924.5,274.3 1942.4,158 2176.3,158 2198.6,18 1827.7,18 1723.4,670.5 	"/>
	<polygon class="st1" points="3682.5,18 3550,231 3466.5,18 3313,18 3470.9,362.1 3422.4,670.5 3556.5,670.5 3597.7,397.9 3839,18 	
		"/>
	<path class="st1" d="M3184.3,23.6c-148.6-34.3-302.8,84.1-344.4,264.5c-41.7,180.4,45.1,354.4,193.6,388.7s302.8-84,344.4-264.5
		C3419.6,232.1,3332.9,57.9,3184.3,23.6 M3236.8,407.2c-36.2,108.6-123,170.9-194,139.1c-70.9-31.7-99.1-145.4-62.9-254
		c36.1-108.6,123-170.8,193.9-139.1C3244.8,184.9,3273,298.7,3236.8,407.2z"/>
	<path class="st1" d="M2652.6,21.7c-72.4-1.2-251.4,0-251.4,0h1.5l-103.5,647.5c0,0,214.4,0,301.6,0c124.2,0,305.8-183,140.5-332.5
		C2911.4,160.7,2742.8,23.2,2652.6,21.7 M2574.2,543.6c-73.9,0-118.3,0-118.3,0l20.8-130.2c0,0,28.1,0,112.4,0
		C2695.5,413.4,2692.5,543.6,2574.2,543.6z M2590.5,280.4c-73.9,0-93.2,0-93.2,0l20.7-121.3c0,0,3,0,87.2,0
		C2699.9,159.1,2680.7,280.4,2590.5,280.4z"/>
</g>
</svg>
