<svg id="Layer_1" data-name="Layer 1" xmlns="http://www.w3.org/2000/svg" viewBox="0 0 3839 1118.77"><defs><style>.cls-1{fill:#fff;}.cls-2{fill:#00ece2;}</style></defs><path class="cls-1" d="M2098.23,1016.28c-3.91-.69-6.64.09-9-5.38s-.78-5.07-3.52-9.76-3.12-4.3-6.25-7.42-1.25-5.86-4.92-5.86-.94,4.29-5.24,5.86-6.25,5.46-9,6.64.78.39,0,5.86,4.91,5.07-1.06,7.8-4.41,1.57-8.32,3.92-5.86,3.12-5.07,6.64-4.69,3.12.78,3.51,4.68.78,8.2,1.17,3.16.07,5.47,0c9-.25,5.08-2.34,16-2s14.84.35,19.53,1,7.81,1,6.64-2.91S2102.14,1017,2098.23,1016.28Z"/><path class="cls-1" d="M2747.08,1060.71c-2.93-10-17-12.31-18.75-20.51s9.38-14.06,8.2-19.92-2.93-17.58-4.68-21.1-7.62,2.35-7.62-3.51,6.44-2.93,8.2-10,7-12.31,6.45-23.44-8.79-1.17-7.62-9.38,10-7,8.2-13.47-5.27-7.62-11.72-10-6.44-11.14-16.4-10.55-14.07,8.2-19.92,7.62-20.51-9.44-27.54-7.65-7-4.07-14.65-5.83-8.79,7-14.65,7.62-8.89-5.9-17.58-5.28c-8.2.59-12.31,3.52-18.75,2.93s-20.51,4.69-27.54,4.69-12.89,1.76-20.51,1.17-7.62-1.76-13.48-1.76-2.34,0-10.54,2.35-22.27,5.27-28.72,5.27-8.2-7-16.4-6.44-3.75,2.34-15.65,3.51-21.85-1.76-29.47-.58-9.38-2.93-17-4.69-11.72,7.62-25.79,7-29.88.59-35.15-.59-4.69-10-10.55-9.37-4.69,7-12.89,7.62-17.58,4.68-22.86,2.93-5.27-8.79-13.47-9.38-8.21,4.1-18.17,7-27,2.93-32.22,1.17-8.21.59-14.65,0-16.41-2.93-22.27-4.1-16.41-4.69-23.44-4.1-21.68,2.93-29.88,2.93-9.38-8.08-18.75-10.19-16.41,9-26.37,10.19-19.92,6.45-28.71,5.27-10-6.44-19.34-9.37-23.44,3.51-32.81,5.86-24.61,2.93-33.4,2.93-19.92-10-26.37-10-10.55,7-24,7.61-34.58-5.86-42.19-5.27-7.62,8.79-15.82,7.62-32.82-6.45-41-5.86-1.17,6.44-8.79,5.86-29.88-13.89-39.26-15.15-17,14.56-25.2,13.39-32.22,3.52-38.67.59-11.13-13.45-20.51-14-22.26,6.43-29.3,6.43-10.54-3.56-18.75-6.47-9.37,8.81-20.5,11.16-19.34,5.86-27,5.27-22.27,1.17-25.19,2.34,8.78,5.86,0,6.45-10.55-8.2-17-8.79-8.2,4.1-15.82,2.93-21.68,5.86-29.88,5.27-3.52-6.44-12.89-7.61-38.59,5.86-42.44,6.44-11.47-7.62-21.43-7.62-34.57,8.21-42.19,7-22.85-20.89-35.16-23.34-11.72,9.27-24,11.62-18.17,6.44-26.37,6.44-7.62,9.38-15.24,7.62-7-12.89-16.4-12.89-32.23,13.48-44.54,12.3-24-2.34-36.33-4.68-25.78-9.38-34-8.79-10.55,12.3-19.92,10.54-21.14-16.4-31.08-15.23-17,10.55-26.35,10-19.92-8.2-29.29-10.55-24,12.89-29.89,16.41-12.89,9-14.06,15.07-1.17,6,0,9,4.1-1,6.44,7.43,2.35,23.63-4.68,28.9-18.17,3.52-14.65,11.14-1.17,15.23,11.13,17,16.41,4.1,10.55,14.06-8.79,11.13-10,18.17-6.45,6.44-2.93,12.89,6.44,5.53,10,14.78,4.69,12.76,10.55,18.62,4.68,7.61,10.54,8.2,12.89-16.41,23.44-13.48,15.82,7,28.71,7,34,1.18,44.54,1.18,12.89,6.44,31,6.44,18.75-1.17,29.3-1.17,4.1,8.2,15.23,8.79,40.43-19.92,55.08-19.34,15.82,10,33.4,10,47.47-4.68,56.26-4.68S1383,1097,1390,1097s32.82,11.72,44.54,14.65,35.15-3.52,46.29-2.35,9.37,7,17.58,7,28.12-3.52,34.57-3.52,13.47-7,22.26-7,30.47,5.27,47.47,7,25.78-15.23,39.84-15.23,15.82,4.1,24,5.27,14.65,12.3,25.78,12.89,23.44-10,31.05-9.38,6.45,1.76,12.89,4.11,14.07-5.28,24.62-5.28,11.71-1.76,21.09-.58,10,0,13.48,1.17.58,3.51,7.61,4.69,27.54-5.28,34.58-7.62,10.54-5.86,15.82-5.86,29.88,14.06,39.26,13.48,15.23-10,25.19-10.55,41.6,2.34,50.39,2.93,11.72,9.37,25.2,9.37,26.37-9.37,37.5-10,27.54,2.93,36.92,4.1,10-5.85,20.51-5.27,17,8.79,31.64,10.55,15.82-8.21,26.95-7,51.06-2.35,53.07,1.17-1.5,7,4.35,8.2,17-10.55,31.65-9.37,52.73,1.17,63.28,1.17,32.81,5.27,42.77,7.62,8.79-6.45,14.65-5.28,10-.58,19.34,1.17,14.65-6.44,25.2-5.86,17.58,10,31.64,12.31,24.61-12.31,35.16-10.55,13.47,4.69,20.5,5.86,7.62-6.44,17-6.44,22.85,4.68,30.47,5.86,3.51,8.81,12.89,8.21,5.27-8.8,17-8.8,22.27,5.27,30.47,5.86,7-5.27,17.58-5.86,7-5.86,15.23-6.45,4.69,4.69,12.31,5.28,7.62-5.28,13.48-4.1,5.27,14.06,28.12,14.06c12.31,0,8.79-13.48,22.27-15.24s21.68,11.72,22.85,2.93-3.52-6.44,1.17-8.78,13.48.13,12.31-7-6.45-6.51-7.62-14.71S2750,1070.67,2747.08,1060.71ZM1362.9,1019.89c-5.71,5.47-1.8-1.56-5.71,5.47s3.91,7,3.91,10.93-3.91,7-4.69,12.51,3.12,9.37-3.13,13.28-3.12,3.12-14.06,6.25-10.94,9.37-20.31,9.37-23.44,5.61-32.82,4.76-20.31-3-28.12-1.48-8.6.94-16.41,1.57a139.72,139.72,0,0,1-18-.16c-12.5,0-27.34-.78-33.59-3.12s-8.6,3.9-14.85,3.12-11.72-2.8-18.75-1.79,3.13-8.37-3.9-11.49-14.85-3.13-13.29-14.06,9.38-9.38,6.25-14.85-11.71,0-12.5-7.81-5.46-14.85,3.13-21.88,11.72-7.81,10.16-14.06-3.91,0-5.47-7,7.81-11.72,7-17.19-3.91-7,4.69-9.37,10.93,0,18,0,13.28-8.6,17.18-8.6,20.32-3.91,24.22-3.12-.78,6.25,5.47,7,18.75-8,25-7.14,19.53-2.57,21.88-.06-7,8.76,0,11.1,10.94-8.59,15.62-8.59,18.75,2.34,25.79,1.56,19.53,0,25,3.91,3.12,1.95,7,7.23S1358,978.48,1361.1,984s1.56,1.56,0,9.38,1.26-2.35,1.8,6.25S1368.61,1014.42,1362.9,1019.89ZM1565,966.18c-.78,5.27,3.13,4.88,2.38,13.47s-6.29,2.35-9.8,1.57a55.27,55.27,0,0,0-11.72-2c-8.2-.78-11.72,10.16-20.31,8.21s-5.86-8.21-10.55-9.77-20.31,6.64-29.3,5.47-4.3-2.74-10.16-2.74-.78,4.3-5.07,4.66a86.75,86.75,0,0,1-14.07,0c-7-.39-4.68,2.35-6.25,12.89s19.14,9,26.18,9.38,7.42-7.42,12.1-5.27,8.6,2.53,15.24,3.71,6.64-3.13,11.72-3.66,13.28,3.26,22.66,4.44,12.11-5.47,21.09-4.3-.78,4.69-1.17,11.72,5.47,4.69,8.59,11.33-3.51,4.29-7,2.58-7.42,4.45-14.45,4.45,2.34-4.45-3.91-4.45-3.91,12.65-15.23,12.65-17.58-7.42-23.83-7.42-6.25-3.91-10.94-5.08-1.17,5.08-6.64,3.52,0-3.52-5.86-3.52-9.77,5.47-21.49,5.47-10.54,13.28-10.54,21.88,3.12,9,7.42,19.53-14.45,7.82-25.78,7.82-13.28-10.17-20.71-10.17-4.38,11.29-11.72,10.17c-10.15-1.56-3.51-26.18-3.9-32.82s6.64-5.86,7-11.33-7.81-10.55-9.38-16.41,6.64-13.28,5.86-19.53-4.29-5.47-4.68-12.11,5.86-5.47,5.86-10.55-10.55-7.81-11.72-10.93,5.86-5.47,8.2-5.86,5.86-7,10.16-7,1.56,2.74,9,2.74,17.19-6.64,23.83-6.25,5.86,7,13.28,5.86,15.24-8.21,21.49-8.52,17.57,5.39,25.39,6.57,11.33-7,17.58-6.57,15.23,4.61,23.43,2.66,16-3.52,24.61-2.66,8.21,6.57,8.6,10.86S1565.79,960.9,1565,966.18Zm355.09,116.93c-11.33,0-13.67-7.36-22.27-7.36-9,0-15.23,7.41-22.89,7.41s-4.84-8.19-5.62-12.1,4.29-3.12,5.47-7.81-4.69-5.08-5.86-12.5-4.3-7.42-12.11-7.42-.39-5.47-12.89-5.88-27.35,5.1-34.77,5.1-10.16-5.47-16.8-5.08-3.51,2.73-9,2.73-9.38,9.77-9,17.58,4.3,8.59,5.86,17.58-.39,7.75-8.2,7.75-13.67-2.51-21.88-2.51-6.64-2.51-16.79-2.51-3.13,5-13.68,5-7-1.89-7.81-8.53,7.81-13.67,7.42-22.66-12.89-12.5-14.45-20.31,15.62-9,15.23-16.8-4.68-2.34-5.47-9.77,5.08-4.68,5.08-10.15-5.47-1.56-6.65-7,7.43-12.9,7.43-19.15-7.81-5.85-7.42-12.5,5.47-6.25,10.94-4.29,12.89.78,19.53,2.34,6.25-4.69,10.94-4.46,10.55,3.29,19.92,4.07,14.07-1.56,21.1-4.07,9.76-4.91,17.18-4.91,25.4,4.68,30.08,4.41,9.38,5.35,14.46,5,2.34-2.73,5.86-4.46,6.25,1.73,12.11,0,10.54,5.24,14.84,8,10.16-3.52,19.14,0,9.38,7,14.85,8.4,6.25,14.25,7.42,21.29-5.47,3.51-5.86,9.76,5.08,3.13,5.08,10.16-12.5,13.67-13.28,17.19,3.51,2,7.42,6.64,4.29,13.67,5.86,21.48-3.91,3.52-3.91,12.11,5.08,1.17,6.25,9.38S1931.43,1083.11,1920.1,1083.11Zm278.13-2.28c-11.71,0-23.82-3.52-34.76-3.52s-19.92,5.85-24.61,5.85-5.47,0-5.86-3.11,1.17-2.74,3.51-7-1.17-6.25-9-7.42-13.28-12.11-22.27-12.11-5.86,5.08-14.06,5.08-10.55-4.69-14.06-1.17-4.3,0-10.16,0-10.94-3.91-28.13-3.91-29.29,10.55-30.47,14.85,2.74,1.17,3.52,7.81-1.56,7-10.55,7-4.68-7-13.28-7-8.31.83-18.75,2.34c-13.72,2-7.42-2.73-10.94-2.34s-4.68,3.52-11.72,3.91-4.68-2-2.34-4.69,2.73-6.64,7.42-9,1.56-5.86,6.64-10.93,4.69-2,8.6-1.18-1.57-6.64,0-11.32,7.42-2.74,12.11-3.13,2-7.42,2.73-15.23,5.08-8.6,11.33-8.3,1.95-1.08,4.3-6.94,0-6.64,4.29-8.2,2.35-1.56,3.91-7.42,1.17-7.82,6.25-14.46,9.38-2.73,13.67-6.25,4.3-9.76,4.69-17.19,3.13-3.51,9.38-5.63,13.28.56,23.82,1.73,14.07,6.64,22.66,6.64,17.58-9.77,27.35-8.21.78,9.38,2.34,14.85,0,0,3.52,3.12,3.12,1.57,7.81,5.47,3.12,3.91,5.08,9,3.12,3.12,9,5.47,1.56,9.76,4.3,13.28,3.51,0,8.59,6.64-5.08,1.17-3.9,5.85,2.73,3.92,8.59,10.56,6.64-.79,12.5,5.07,1.56,5.47,2.73,14.46,0-3.52,5.08,0,2.74,7.81,7.43,14.06,11.71,7,16.79,14.06S2210,1080.83,2198.23,1080.83Zm240.64-85.55c-1.56,1.56-9.77,1.17-22.66,2.73s-14.06-.39-23.83-.78-14.84,2.74-16-3.51,1.17-10.94-4.69-11.72-10.16-2.35-15.63-3.52-10.15.78-17.58,1.56-5.07-7-10.93-5.86-4.69,7-10.16,7.82-11.72-5.47-19.92-2.35-5.86,3.13-5.86,7.42,3.51,6.65-2.74,6.26-5.08-9-7.81-8.6-1.56,3.52-5.86,6.25-5.47,3.13-4.3,8.6,3.91-1.57,3.52,4.29-6.25,3.91-6.64,10.16,0,7.42,1.17,11.72-1.56,7,3.91,6.64,4.29-1.56,8.2-2,3.91,0,6.64,5.07-1.17,10.94,5.47,12.11,3.91,3.91,14.06,4.69,14.85-3.12,28.52-3.51,18-1.57,26.17-3.52,17.58-.78,14.46-5.86-1.57-4.69-9-4.69-9.77-.78-15.23-1.56-3.91,1.17-10.94,1.17-10.94-4.69-16.8-4.69-7.42,2.35-9.37-3.51-5.47-5.79-5.08-8.76,5.47-8,5.86-10.77-1.92-2.74,5.88-4.69,2.32,2.34,10.13,2.34,10.55-.78,14.46-1.17,1.56,1.56,6.25,2.74,9.37.39,15.23,1.17,17.19.78,23.05,1.56,11.33-4.3,14.06.39.78,7.33,5.86,7.33c6.25,0,5.08-10.45,10.55-9.67s4.69-.87,7.42-.05,4.69-.12,6.64-.23,5.08,7.12,5.47,9.95,2.34,6.34,0,12.59-3.51,6.64-2.73,10.55,7.34.39,3.86,5.47-2.69,7.42-6.6,12.5.78,1.95-3.9,5.08-10.94,4.69-6.65,6.25,8.6,1.17,7.82,3.51,2.73,5.47-2.74,5.47-8.2-2.34-10.54-3.12-4.3,5.08-8.6,4.69-9.37-4.69-14.06-5.08-.39,3.9-5.08,3.51-4.69-7-10.55-6.64-5.08,9.41-9.76,8.22-5.86-2.36-10.16-2-5.08,7.41-8.2,5.85-3.52-9-8.6-8.58-6.64,11.31-14.45,8.58-17.58-5.07-22.27-4.68,2.35,6.25-3.12,7-7.42,3.9-11.72,5.07-9.38-13.28-15.24-13.67-21.87,1.56-26.17.78-5.47-2.34-7.81-5.86-2.35-6.64-6.25-4.68-12.5,5.07-14.06.39,2.34-9.77-2-15.24-11.72-.39-12.5-12.11,4.15-11.72-1.64-19.14-8.51-4.69-6.17-12.5,6.25-1.56,8.59-9,5.47-9.77,3.91-13.68-1.56-5.86,3.52-9,5.46-3.91,5.46-8.6.39-5.46,11.33-6.25,16.41,1.57,17.58-4.29.39-3.91,5.86-4.69,14.06,4.69,19.53,4.69,10.55-.16,10.94-4.77-1.17-8.91,4.69-8.91,1.95,5.5,10.15,5.29,38.68.18,42.58,2.53,2.35,4.69,9.38,4.69,6.64-6.23,16.41-7.22,21.48,3.7,30.08,4.48,12.5-1.56,14.06,5.08-8.2,9.37,2.34,9,16-3.51,17.19,1.57,6.63-.79,8.39,5.46-4.87.79-5.65,7.82S2440.43,993.72,2438.87,995.28Zm206.25,85.12c-6.25,0-15.23-.35-18.75,0s-4.68-5-9.37-5-1.95,4.24-9.38,4.9-3.12-3.79-7.42-6.91-26.95-2.35-30.86-2.74-5.86-.78-4.3,3.89-3.51,5.49-7,5.16-23.44,1.5-28.9,0-7.43-4.75-12.11-5.14-10.55,5.86-14.85,5.08-7.81-2-14.45-2.74-5.59,1.14-16,2.74c-8.64,1.32-5.83-2.74-5.83-2.74a27.11,27.11,0,0,1,5.44-7.42c3.91-3.91,0,0,3.13-1.56s-.39-2.35.39-4.3.39-2.34-1.18-6.25,0,0-2.34-2-.78-3.52-.78-8.21,0,0,1.56-3.12,0,0-1.17-2.74,1.95-5.07,1.95-7.81,1.18-2,3.13-3.52,1.17-3.51,2.73-5.46.39-3.13-2.34-7.2-5.08-4.52-5.86-7.65,2.34,0,3.52-2-.4-5.86-1.18-9a42.06,42.06,0,0,1-1.17-7.42c-.39-3.51-.78-3.9.78-7.81s2-4.69,3.91-9.38-1.56-3.51-3.52-4.68-5.08-9.77-6.64-16,2-3.52,9.77-5.47-1.56,4.3,3.9,4.3,13.29,1.56,19.93,1.17,7.42-8.2,14.84-9.38,4.69,7,9.77,8.6,6.25.78,12.5,0,10.55-3.91,18.36-4.17,9.37,8.47,14.06,8.47,1.17-3.91,6.25-6.25,9.38-.79,16.8-2,2.34,2,10.94,1.94,5.07,3.92,12.11,5.48,8.59,2.35,14.45,2.35,3.52-8.21,11.72-7.81,5.47,3.9,12.5,7,0,0,1.17,6.25-5.47-1.17-4.69,2.15,5.47,1.36,5.08,10.71-3.12-3.49-5.08,2.76-8.59,4.3-13.28,4.3a34.16,34.16,0,0,1-12.11-2c-5.08-1.57-7.81-4.69-11.72-5.08s.39,3.51-4.29,3.9-7.82,2.35-12.5,2-4.3-2-8.6-3.77-2.34,3.38-7.81,3-9-.78-13.28,0-7.82.78-13.68-.78-9.76-3.13-16.79-1.57-3.91,2-6.64,5.47-1.18,2.74.78,7.81,2.34,7,6.25,7a85.49,85.49,0,0,0,17.19-1.84c6.64-1.45,11.32,3.4,16.79,3.79s5.86-1.95,13.29-3.55,9.37,5.5,14.06,5.5,3.9-5.08,11.33-5.47,13.67,2.35,19.92,1.94,4.3.41,14.06,0,8.21,8.2,9.38,17-9,.16-7.82,6.4-1.17,4.31-5.85,5.09-15.24.78-20.71-.39-10.55-4.29-15.62-4.69-13.29,6.25-19.15,5.47-5.86-3.12-11.71-1.68-13.68,2.46-18.36.9-8.6-.78-16.41,0-7,6.25-5.86,13.67,13.28,10.55,18.75,10.94,11.72-3.51,16.41-4.74,4.68,2.4,9.76,3.18,8.6-3.52,14.46-3.16,4.68,9.41,9.76,8.63,7.81-5.08,15.24-5.47,11.33-3.52,16.79-3.13,2.74,3.13,9.38,2,5.47,1.56,11.33,7.42-6.64,2.73-5.86,9.38,7,3.12,10.15,10.93S2651.37,1080.44,2645.12,1080.4Z"/><path class="cls-1" d="M1305.15,1034c2.65-6.25-6.56-13.28-5.77-17.54s3.9-6.68,5.47-13.71-3.13-7-8.6-12.5-6.25-5.47-13.28-5.47-12.5-3.91-21.1-4.69-25,0-33.59,0-5.47,8.6-10.94,6.25-8.59-1.56-16.4,0-7.82,4.69-8.6,14.07,2.5,4.87,4.69,16c1.54,7.87-7,10.51-4.76,15.2s4,11.72,7.88,18,21.88.78,30.47,0,34.38,0,42.19,0,0-9.38,7.82-9.38,9.37,7.81,21.87,3.91S1302.5,1040.2,1305.15,1034Z"/><path class="cls-1" d="M1857.21,980.43c-6.25,1.18-6.25,3.91-12.11,3.52s-5-5.86-11.9-5.47-6.46,3.91-19.35,3.13-30.86-2.74-30.08,2.34,5.08,2.73,4.29,8.59-10.54,5.47-9.37,10.94,2,9.37,15.23,9.37c9,0,11.72-6.63,22.27-6.63h36.72s-1.17,6.63,3.91,6.63,16.4-7.81,15.62-17.18S1863.46,979.26,1857.21,980.43Z"/><path class="cls-2" d="M2125.45,193l.82.1q-.45-.06-.9-.09Z"/><path class="cls-2" d="M2168.92,757.47c-.09-.46-.19-.93-.27-1.4l.57-.19C2169.13,756.41,2169,756.94,2168.92,757.47Z"/><path class="cls-2" d="M2200.55,206.44h0a1.67,1.67,0,0,1,.13-.2A1.45,1.45,0,0,0,2200.55,206.44Z"/><path class="cls-1" d="M3455,294.66c17.21,13.77,46.08-18,38.07-26.05s-14-6-28.05,0S3444.94,286.65,3455,294.66Z"/><path class="cls-1" d="M1778.64,825.27c-4.82-.37-10.45-1.24-15.61-.3-14.7,2.67-14.7-20-20-28.05s1.34-13.36,0-21.37-12-16-21.37-20-13.36-20-34.73-18.7-41.41,18.7-64.12,18.7-49.42-20-70.8-17.36-61.44,25.38-72.13,24-24-16-37.4-18.7-17.37,8-34.73,6.68-8-12-9.35-25.38-12-14.7-12-29.39,16-16,16-33.39S1389,647.31,1387.67,634s14.69-20,18.7-34.73,13.36-14.69,26.72-13.35,20,12,32.06,10.68,9.35-13.36,21.37-12,38.74,10.69,50.76,16,28-14.69,36.07-16,13.35,10.69,22.7,17.37,2.68-6.68,18.7-10.69,10.69,1.33,17.37,10.69-25.38,10.68-34.73,25.38-18.7,13.35-10.69,18.7,20-2.68,30.73-8,17.36-13.36,34.73-10.68,10.68-4,18.7-10.69,14.69-14.69,24-29.39,13.36-12,28-25.38,8-9.35,9.35-21.37-1.33-14.7-6.67-28.05-10.69-12-30.73-13.36-34.73-22.71-61.44-21.37-42.75,21.37-60.11,18.7-10.69-20-26.72-18.7-36.07,16-53.43,18.7-21.37-21.38-37.4-22.71-24,13.36-38.74,10.69,0,0-2.67-6.68-2.68-22.71-1.34-33.4-2.67-21.37-5.34-30.72,0-18.7,2.67-29.39c2.23-8.93,11.9-13.17,15.81-11.21a33.93,33.93,0,0,0-9.13-10.16c-9.35-6.68,12-14.7,21.37-14.7s13.36,5.35,24,4,38.74-13.36,53.44-13.36,13.35,17.37,25.38,18.7,13.35-20,20-17.36,24,4,36.07,4,12-9.35,21.37-9.35,10.69,10.68,26.72,8,18.7-10.69,32.06-9.35-4,17.37-13.36,24-12,21.38-42.75,34.74-49.42,33.39-38.73,29.38,58.77-14.69,68.12-18.7,16-17.36,26.72-25.38,16,0,34.73-4,4-17.36,20-25.38,9.36-21.37,10.69-29.38-2.67-13.36,2.67-20,6.68-12,10.55-21.37-6.54-14.7-2.53-28.05,2.67-24.05,0-37.41-28-20-44.08-18.7-36.07,12-50.76,12-61.45,2.68-77.48,5.35-41.41-25.38-60.11-25.38-5.34,22.71-18.7,25.38-80.15,2.67-94.84,8-16-21.37-33.4-20-13.36,17.36-34.73,20-17.36-25.38-38.74-22.71-60.11,13.36-59.68,14.7-80.57-5.35-80.57,8,16,48.09,26.71,49.43,37.4,21.37,37.4,30.72,13.36,21.37,16.24,34.73-24.25,17.37-21.58,30.72,20,18.71,21.37,36.07-4,45.42-6.68,68.13-17.36,22.7-14.69,44.08,5.34,38.74,7,66.79-15,22.71-13.67,40.07-2.67,9.35,4,24,9.35,22.71,9.64,41.41-3,56.11-.29,74.81-13.36,13.36-29.39,13.36-29.39-1.34-25.38,21.37c1.59,9,1.68,14.64-.19,18.76,2.73,12.5,4.28,25.48,9.71,37a47.21,47.21,0,0,1,10.52.39c29.39,4,17.36,32.06,30.72,32.06s17.37-5.34,33.4-5.34,57.44-2.67,73.47,1.33,29.38-14.69,42.74-16,38.74,12,64.12,12,34.73-17.37,49.42-16,13.36,10.68,29.39,10.68,36.07-16,49.42-16,25.38,14.7,44.09,13.36S1625.44,853,1644.14,853s24,16,34.73,17.37,20-4,38.74-4S1735,855.7,1748.33,857s8,4,24.05,4-1.34-9.35,14.69-9.35c.27,0,.48.08.74.1C1783.4,843.52,1780.9,834.4,1778.64,825.27Z"/><path class="cls-1" d="M2929.32,227.87c4-10.68,2.68-10.68,0-21.37s-36.06-9.35-49.42-9.35-49.42-13.36-60.11-13.36-41.41,8-52.1,12-26.71,21.38-40.07,17.37-14.69-9.35-24-12-41.41-26.72-53.44-26.72-32,22.71-41.41,22.71-17.36-8-28.05-8-33.39,5.34-48.09,2.67-25.38-12-38.73-10.69-26.72,6.68-44.08,6.68-22.71-13.36-46.76-14.69-78.81,28-88.16,36.06-1.34,8,9.35,25.38-22.71,22.71-30.72,21.37a4.45,4.45,0,0,1-.85-.28c-1.69,6.77-3.66,13.5-5.2,20.25a100.71,100.71,0,0,0-1.84,10.73c1.13-5.3,1.57-8.16,6.55-5.32,9.35,5.35,4,38.74,10.69,56.11s13.36,20,14.69,37.4-10.68,16-8,30.72,9.35,10.69,10.68,32,9.35,36.1,14.7,33.43,5.34-13.36,8-26.72-6.68-17.36,0-33.39,10.69-22.71,2.67-32.06-5.34-24.05-5.34-34.73,10.69-18.7,25.38-24,32.06-5.34,52.1-6.68,18.7-9.35,34.73-12,34.73,12,42.74,14.7,38.74,2.67,45.42,10.68-1.34,36.07-1.34,54.77-24,57.44-24,72.13,12,2.67,13.36,13.36-13.36,53.43-10.69,74.8,20,25.38,20,42.75-21.38,42.75-18.7,64.12-22.71,30.72-22.71,45.41,6.68,29.39,10.68,54.77-14.69,33.4-33.39,37.4-24-26.71-30.72-33.39-8-30.72-14.7-42.75-14.69-14.69-20-22.7,0-20,1.33-29.39-10.69-13.36-20-6.68,0,6.68,2.68,20,13.35,25.38,17.36,34.73,8,20,8,38.73,9.35,37.41,16,50.77,50.76,62.78,60.11,70.79,21.37-1.33,29.38-1.33,30.73,24,38.74,24,5.34-13.36,13.36-12,16,6.68,30.72,0,0,0,2.67-14.7,6.68-30.72,6.68-38.73,8-29.39,14.7-42.75,12-18.7,14.69-28-6.68-12-10.69-18.7,1.34-14.7,9.36-22.71,17.36-22.71,24-36.07-9.35-1.33-17.37-2.67-5.34-10.68-5.34-28.05-1.33-22.71-1.33-22.71,10.68-17.36,14.69-21.37,8-24,10.68-32.06,0-72.13,0-88.16,4-12,10.69-18.7-2.67-28.05-6.68-38.74,6.68-10.69,14.7-14.69-1.34-16-5.35-26.72,2.67-16,14.7-29.39,0,0-6.68-9.35,0-14.69,12-21.37,22.71-9.35,16-18.7,17.36-12,28.05-9.35,40.08,12,53.43,8,21.38-2.67,37.4-4,14.7,6.68,38.74,1.34,10.69-6.68,26.72-13.36,8-14.69,17.36-21.37,6.68-8,11.88-21.37S2925.32,238.56,2929.32,227.87Z"/><path class="cls-1" d="M3364.79,348.76s38.07-34.06,54.1-34.06-4-16-27-8-59.11,44.09-79.14,42.08-28-10.18-52.1-22.12-22-7.93-42.08-9.94-30.05-10.5-38.07-12.26,32.06-27.81,0-27.81-50.09-2-64.11,0-40.08,0-22-20,20-26,20-38.07,4-10,22-22,30.06-14,48.09-14,28.05-6,34.06-18,23.68-18,37.89-20,30.24,16,46.27,14,24-12,40.07-6,0,2,16,6,20-14.34,34.07-14.18,13.55,24.2,31.82,22.2.23-24.36,24.28-22.2,18,14.18,50.09,18.19,42.08-10,58.11,6,22,14,36.06,28,26.05,26.05,40.08,38.07,34.06-10,36.06,22,10,22,30.06,34.07,2,22,24,24,64.12-8,72.14-30.06-2-2.22,12-38.18,26-44,26-58,12-22.65,0-44.39-26-11.72-38.07-31.75,10-28-18-30.06-40.07,8-60.11,0-12-20-38.07-34.06-18,6-34.06,0-8-28-36.07-30.06-24,20-40.07,14-16-22-32.06-28,0,34.06-32.06,24S3469,14.91,3434.92,3.51s-22,8.63-52.09,8.63-50.1,8-76.14,10-20-2-38.07-2-22,6-36.07,14,20-2-14,8-24,0-50.09,6,12,24-12,24-24-12-48.09-10-38.07,28.06-46.08,44.09,0,32.05-20,36.06-18,4-32.06,6-4,8-14,26-16,28.07-22,44.1-4,14,0,30.06-3.58,34.06-3.79,44.08-4.22,20,13.81,18,6-10,16,10-6,36.07,12,40.07,30.06-4,42.08,0,28.05,4,38.07,12-2,28.05,10,34.06,22-8,38.07,0,24,28.05,24,28.05,12,18,36.07,10,32.06,24,50.09,20,64.12-19.34,56.11.34-16,43.74,2,39.73,54.1-17.15,62.11.44,2,19.6,18,29.62,48.09,8,52.09,22-10,26,6,32.06,24-24.05,40.08,0,30.05,36.06,22,52.09-10,10-12,28.05,10,28,6,36.07-22-22-16,0,16,38.07,14,48.09,18,12-10,20-28.06-18-46.09,0,6,40.08-16,36.07-40.07,9-56.1.48-20,47.61-38.07,43.6-20-18-40.08-24-26,12-44.08,8-40.07,14-56.1,8-8-18-26.05-18-20,4-30,4-22,18.45-34.07,22.25-26-24.25-40.07-18.24-36.07,17.15-46.08,18.59-32.68-7.45-48.4,0-35.76,6.9-47.78.16-14-22.76-28.05-18.75-12,16-34.07,10-48.09-2-36.06-20,16-2,28-28,6-4,12-26.05,6-14,16-36.07,22-18,28-32.05,4-14,16-30.06,10-22,30.06-30.06,34.06-2,44.08-26,24-20,32.06-38.07,18-28.05,30.05-36.07,30.06-10,42.08-22,38.07-12.41,48.09-33.26S3186.46,457,3186.46,457s-14-26-32.05-14-10,26-22,30.05-16,11.63-26,14.83-4,11.22-18,21.24-16-4-34.06,10-22,8-32.06,18,2,18-12,30-46.08,22.05-62.11,40.08S2916,639.3,2910,647.31s-4,22-12,30.06-28,30-44.08,36.06-10,20-16,28.06-4.07,26-17.06,28-21-6-35,8,16,8,0,30.06-26.05,48-28.05,52,4,20.08,16,26.09,2,14,16,24-12,16,6,22,10-4,28.05,0,8,26,30,22,46.09,1,62.12.48,46.08-11.47,60.11,0,6,28.86,22,35.21,8-9.69,26.05-11.69,42.07,11.35,56.1,11.69,6-15.7,34.06-13.69,36.07,10.3,56.11,15.17,44.08-9.16,66.12-13.17,24,2,42.07-2,22-12,34.07-10,60.11-2,76.14,2,26-14,42.08-18-2-8,16-4,16-18,36.07-18-6,2,20,0,2-12,30-18-4,12,28.05-6,36.07-18,44.09-36.06,6-18,18-32.06,14-10,30.05-28,40.08-2,40.08-20-12-12,0-38.07,38.07-12,30-34.06-26,6-24-18,32.06-12,30.05-38.07-22-16-20-40.07,34.06-4,22-22-28-20-52.1-22-34.06-6-18-32.06-16-12-30.06-28-28.05-18-54.1-36.07-40.07-12-34.06-28.05,24.05-4,6-16-24,12-44.08,8-20,0-38.07-10-36.06-38.07-48.09-44.08-16-8-30-14-12-6-18-16"/><path class="cls-1" d="M2321.45,727.58c-5.72-9.81-7.19-20.73-10-31.22,2.61-8.93,6.57-19.2,6.44-28-.11-6.79-3.74-12.28-5.44-18.93a124.45,124.45,0,0,1-2.81-16.52c.83-.45,1.67-.9,2.52-1.31.54-.27,1.08-.52,1.63-.77l.64-.28.14-.06,0,0,0,0,0,0c2.37-1,4.49-3,4.36-5.77a6.17,6.17,0,0,0-4.41-5.8c-.54-.14-1.08-.29-1.61-.48l-.07,0a14.7,14.7,0,0,0-2.12-1.17l0,0c-.19-.18-.42-.34-.6-.51a21.94,21.94,0,0,1-1.64-1.7c-.22-.26-.43-.53-.66-.79l0,0h0c-.26-.34-.51-.69-.76-1a76.4,76.4,0,0,0-3-11.53,56,56,0,0,0-8.94-16.6c-2-2.45-5.1-4.67-6.84-7.13-4.94-7-4.66-10.07-4-15.13,1.09-1.29,2.19-2.58,3.22-3.94,5.28-7,3.9-15.63-.65-22.66s-11-12.93-17.32-18.19c-2.88-3.37-5.95-6.64-8.67-10.14a13.58,13.58,0,0,1,.08-2.62l.36-1.5c.63-.92,1.27-1.79,1.74-2.56a27.25,27.25,0,0,0,4.34-12c.32-3.21-3-6.05-6-6a37.32,37.32,0,0,0-8.55,1.15c-.13-4.58.11-9.29.12-14.21,0-3.81.11-7.63.21-11.45l5.63-11.94c2.89-6.1,6.08-12.18,6.54-19,.37-5.46-1.7-11.56-5.94-15.15a15,15,0,0,0-4.83-2.73c0-3,.11-6.06.06-9.09-.24-16.82-3.48-31.27-8.08-46.46,2.25-1.35,4.55-2.64,6.88-3.84,4.49-2.32,3.56-9.93-1.43-11-1.12-.24-2.23-.5-3.32-.84-.55-.17-1.08-.37-1.62-.56,1.06.37-.54-.25-.64-.31-.51-.26-1-.55-1.48-.84l-.34-.2-.17-.15a27.77,27.77,0,0,1-2.18-2.16c-.84-.92-1.65-1.86-2.46-2.78-2.83-11.13-5.91-23.19-14-30.57a16.85,16.85,0,0,0-12-4.93,25.88,25.88,0,0,0,1.06-6.36c.24-7.55-4.27-13.52-6-20.63-2.05-8.28-1.53-17.44-7-24.58-.29-.37-.66-.66-1-1a102.61,102.61,0,0,0,1.27-18.28c.81-1.41,1.61-2.84,2.5-4.21.59-.92,1.21-1.82,1.84-2.71l1-1.35.42-.53c1-1.17,1.92-2.31,2.82-3.51a17,17,0,0,0,2.16-4.12c.92-2.36-.6-5.65-2.76-6.79a6.24,6.24,0,0,0-7.29.94l-1,.86-.11.1c-.6.42-1.19.83-1.81,1.21l-.51.27c-3.38-13.11-8.63-17.65-23.86-19.18a76.06,76.06,0,0,0-22.23,1.05,28,28,0,0,0-4.49,1.36,12.13,12.13,0,0,0-.21-1.92c-.79-3.65-4.5-6.42-8.27-5.37-2.29.65-4.06,2.47-5.87,3.94l-4.13,3.33-4.13,3.32-1,.77-.53.34a5.5,5.5,0,0,0-2.89.73,6.15,6.15,0,0,0-1.4,1.18c-3.84-2-7.45-5.06-11.42-6.27a40.74,40.74,0,0,0-17.57-.9c-8.06,1.16-16.31,5.49-24.56,9.39-4.66-2.41-9.3-4.86-13.74-7.55l6.75-5.62c1.83-1.52,2.1-4.54,1.25-6.56a6,6,0,0,0-5.5-3.7,95.8,95.8,0,0,1-13.65-.48c-.5-.06-1.06-.08-1.56-.18,1.35.27-.18,0-.49-.08-1.21-.18-2.42-.38-3.63-.61s-2.66-.59-4-.91c-8.13-9.45-16.46-18.43-30.64-11.74-4.49,2.12-9.4,10-14.1,17.1a147.29,147.29,0,0,0-18.4,1.5c-4.9-2.33-9.21-3.87-12.25-3.87-5.1,0-11.65,4.1-18.22,8.82a11.42,11.42,0,0,0-2.62,1.9c-8,5.88-15.72,12-20.57,12a20.32,20.32,0,0,1-5.92-1,237.69,237.69,0,0,0-19.92,35.55,187.42,187.42,0,0,0-8.45,20.92c-2.06,6.34-3.78,12.8-6,19.1a86.42,86.42,0,0,1-8.64,18.13c-3.69,5.76-8,11-11.37,17a62.69,62.69,0,0,0-6.92,21.32c4.92,9.51-2.25,35.59-2.25,53.31,0,18.7-24,57.44-24,72.13s12,2.67,13.35,13.36-13.35,53.43-10.68,74.8,20,25.38,20,42.75-21.38,42.75-18.71,64.12-22.7,30.72-22.7,45.42,6.68,29.38,10.68,54.76c3,18.8-6.52,28.07-19.25,33.24a28,28,0,0,0-16.5,20.06c-2.92,13.4-3.24,27.44-.1,40.59,9.93,11.12,18.85,20.54,22.49,23.66,9.36,8,21.38-1.33,29.39-1.33s30.73,24,38.74,24,5.34-13.36,13.36-12,16,6.68,30.72,0,0,0,2.67-14.69c2.21-12.15,5.3-25.13,6.31-33.82a25.28,25.28,0,0,1,3.67-3.72,32.07,32.07,0,0,0,6.08-6.29,2,2,0,0,0-.32-2.43,3.84,3.84,0,0,0-3-1.1,4.54,4.54,0,0,1-2.25-.27,13.3,13.3,0,0,1-1.92-1.14,206.29,206.29,0,0,1,12.84-32.72c6.67-13.36,12-18.7,14.69-28s-6.68-12-10.69-18.7,1.34-14.7,9.35-22.71,17.37-22.71,24-36.07-9.35-1.33-17.37-2.67-5.34-10.68-5.34-28.05-1.34-22.71-1.34-22.71,4.19-6.8,8.31-12.87c11.16.54,22.24-4,34.29-3.08,9.47.76,15.62,4.6,25.56,2.56A61.76,61.76,0,0,0,2031,604a57.2,57.2,0,0,0,6.23-3.08,12.11,12.11,0,0,0,1.48-.5c6.49,10.67,12.07,13.1,27.84,13.08,6.56,0,13.75,2.52,20.25,1.56,8.75-1.3,13.67-7.93,22.85-8.54,5.36,4.42,11.71,7.2,19.4,6.42s11.55-5.77,17.9-9.2a38.84,38.84,0,0,1,13.94-4.5c4.19,7.54,8.66,14.85,9.21,23.79.26,4.17.22,8.44.06,12.74a42.91,42.91,0,0,0-5.8,13.88l.09.11c.1.14.14.21.16.24l.22.26c.57.64,1.13,1.3,1.71,1.94,1.32,1.45,2.68,2.87,4,4.3,3,3.13,6,6.28,8.66,9.67,5.82,7.32,11.45,16.83,6.81,26.23a20.57,20.57,0,0,1-9.91,9.29c-1.36.63-2.75,1.38-4.14,2l-.09.37c0-.05,0,.11,0,.48a4.81,4.81,0,0,1,.22.82,18.13,18.13,0,0,1,1.1,3.44,13.91,13.91,0,0,1-1.66,10.37c-2,3.22-5.15,4.49-8.27,6,1.13,3.48,2.55,7.15,4.33,11.4a30.26,30.26,0,0,1,2.24,10.28,18.45,18.45,0,0,1-6.82,2.45c-2.28.34-3.13,3-2.8,4.93a90.38,90.38,0,0,0,4.58,17.91c-1.69,4.94-3.44,9.83-4.68,14.56-3.48,13.29-4.84,26.63.39,39.63,3.49,8.65,2.87,11.18.66,19.42-1.78,6.59-3,11.6.55,18,5.62,10.08,18,13.66,28.87,12.63a58.81,58.81,0,0,0,5.88-.88,8.23,8.23,0,0,0,1.31,0,145.76,145.76,0,0,0,20.93-5.08,37.68,37.68,0,0,0,10.1-5.07c1.17-.74,2.33-1.52,3.47-2.26l10.53-6.85c1.37-.89,1.28-3.26-.48-3.67a72.57,72.57,0,0,1-18.34-7c.57-1.14,1.18-2.3,1.82-3.49.45-.83,1-1.61,1.45-2.43,12.47,4.63,28.36,4.27,39.22.43a22.62,22.62,0,0,0,9.07-5.85,45,45,0,0,0,7.2,2.39,6.07,6.07,0,0,0,6.31-2.15,5.78,5.78,0,0,0,1.19-2.85,6.5,6.5,0,0,0-.72-3.83l-7.06-15.48a14.59,14.59,0,0,1,2.53-8.46c2.15-3.11,5.73-5.08,7.34-8.86,1.13-2.68.14-11.89,1.51-13.54a10.28,10.28,0,0,1,5.21-2.81c.87.59,1.78,1.13,2.64,1.74,1.21.86,2.4,1.76,3.6,2.65l.08.07.83.65c.63.5,1.25,1,1.86,1.51q3.59,3,6.95,6.18a6.05,6.05,0,0,0,7.89.47c2.24-1.73,3.24-5.26,1.55-7.76a41.1,41.1,0,0,1-2.64-4.48c-.19-.39-.38-.78-.56-1.17l-.26-.63c-.26-.68-.52-1.36-.75-2s-.34-1.32-.52-2c6.46-3.28,12-8.54,13.54-15.93C2335.82,745.21,2327.21,737.44,2321.45,727.58ZM2144.05,446c-9.72,8.95-26.75,21.32-32.46,35.62a136.6,136.6,0,0,1-38.14,2.56c-9.36-.75-18.47-2.4-27.58.85-3.82,1.36-14.31,11-17.18,10.72-4.25-.48-13.08-14.75-19-17.26a26.66,26.66,0,0,0-19.19-1c-5.37,1.73-9.86,6.79-14.77,9.07,0-2.48-.08-4.59-.08-6.2,0-16,4-12,10.69-18.7s-2.67-28.05-6.68-38.74,24-70.8,17.37-80.15,0-14.69,12-21.37,22.71-9.35,16-18.7c-6.18-8.65,13.91-11.58,25.42-9.85,0-.06,0-.12,0-.18,1.42-11.36,3.47-22.89,3-34.37l22.93-1.78a53.72,53.72,0,0,0,9.59,12.08c4.52,4.46,9.31,8.63,14.2,12.68,5.76,16,9.35,32.75,13.12,49.51-4.15,9.18-4,20.1-.78,29.6,4.09,12.22,12.45,22.24,20.87,31.77a72.16,72.16,0,0,0,9,12.21,10.49,10.49,0,0,0,4.51,12.48c1.93,1.15,4.56.81,6.26,2.18a17,17,0,0,1,3.32,3.86,80.57,80.57,0,0,0,2.35,8.78C2154.39,436.82,2149.06,441.39,2144.05,446Z"/><path class="cls-1" d="M1175.24,220.15c3.82,3.44,9.51-2.21,5.67-5.67-7-6.31-16-4.18-23.83-.85-7.56,3.2-15.81,5.23-24,4.4a20.76,20.76,0,0,1-7.38-7.51c-.66-1.18-1.29-2.4-2-3.59l13.48-.71c5.23-.28,5.08-7.5,0-8-8-.81-15.36-4.41-23-6.67-.12-.32-.21-.64-.33-.95-.23-4.88-.34-9.76-.78-14.61-.75-8.35-1.68-17.72-7.35-24.34-5.27-6.16-13.86-10-21-13.63-1.43-.72-2.88-1.4-4.34-2.08-9-9-19.09-16.47-29.69-23.38A45.15,45.15,0,0,0,1042.35,98c-8.82-10.19-22-15.89-34.39-20.32-7-2.52-14.66-4.76-21.55-8.17C979.8,63,973.69,56.07,967.55,49.2c-.67-1.69-1.34-3.41-2.06-5.11-3.58-8.4-9.29-14.89-18.21-17.72-8.67-2.76-18.91-3-27.95-2.94a144.68,144.68,0,0,0-26.58,2.76c-7.08-9.19-20.32-1.55-28.57,2.15-5.23,2.35-10.32,5-15.3,7.78a77.07,77.07,0,0,0-41.08,7.15c-3.6,0-7.14-.08-10.55-.35-39.72-3.17-26.4-19.51-45.83-21.59s-28.08,11.26-56.34,11.06c-9.29,0-24.42-.61-41.61-1.46,2.29-4.09,3.92-8.81,2.26-13.42a6.13,6.13,0,0,0-8.84-3.59L616.51,28.79s0,0-.07.05C591.67,27.29,567.77,25.48,554,24c-30.89-3.31-.34-15.29-37.17-14.79s-32.71,28-57.85,28.57S448.94,18.13,415.5,22.91c-9.82,1.44-22.38,3.88-36.52,6.57-20.86,18.62-48.86,23-78.29,22.74C282.12,52.06,264,50.38,245.76,55c-23.66,6-45.9,16.45-68.5,25.42-46.45,18.43-98.41,19.84-144.14,40.18A171.94,171.94,0,0,0,0,140.45c.32.69.61,1.38,1,2.06a56.08,56.08,0,0,0,28.59,27c5,2.2,11.49,3,17.64,4.1,3.58-.94,7.6-.63,12.31,1.61,21,10,13.37,24.68,5.12,46.44s-13.37,45-20.64,79S39.23,385,51.15,383.51s7.25-20.92,20-41.53,5.89-19,11.23-40.48-11.57-33-1.75-61.66,44.78-29.55,72.33-37.2c27.7-7.61,42.22-.06,37.33,17.6s1.69,39.54,34.66,37,28.51,18.63,39,38.54c10.29,19.93-11.48-1.26-4.48,27.58,6.79,28.79,10.51,49.51,22.11,62.5s20.51,45.09,21.27,69.13-6.54,21.34-23.53,45.16,35.1-6.63,31.82,33.64c-.75,9.23,12,13,19.84,26.22a52.46,52.46,0,0,0-7,27.23c.28,10,4.25,18.63,7.91,27.72-1.26,4.35-2.77,9-4.58,13.94-9,24.73-38.33-1.45-22.4,21.17,6.65,9.43,18.4,29.57,26.86,50.07a38.78,38.78,0,0,0-4.51,11.54c-1.91,9-.14,17.48,2.77,26,1.8,5.29,3.45,10.8,5.39,16.15-8.78,7.45-22.51,5.37-13.31,10.66,13.22,7.63,21.95,18.13,21.33,45.72s-31.48,33.44-50.67,37-16.89-1.56-40-7.95-26.43-66.81-38.42-75.93c-11.65-9.15-56.31-78.28-53.14-58.25,5.47,34.55,15.75,66,35.82,86.24s22.58,23.5,26.84,57.73,28.92,52.28,42.39,76.87,10.42-6.3,29.63,7.39C315,947,316.16,955.55,333.36,973s52.69,9.5,70.44,1.61c11.44-5.15,26.13-9.76,41.55-13.57.28,1.32.55,2.64.88,4,2,7.94,5.27,18.29,15.42,19.68,8.89,1.21,16.63-4.11,22.7-9.53a46,46,0,0,0,15.14-35.55,142.13,142.13,0,0,0,27,22,111.18,111.18,0,0,0,24.54,11.22q5,6.74,9.94,13.48c3.57,4.89,9.45,6,15,3.52q11.22-5.09,22.56-10.08a8.68,8.68,0,0,0,1.73-1.05,164.47,164.47,0,0,0,17.93-2,157.31,157.31,0,0,0,19.15-4.52c.34.71.69,1.42,1,2.14a15.72,15.72,0,0,0,6.21,7.28c5.34,3.06,11.55,1.9,16.19-1.75,3.64-2.87,6.92-6.31,10.35-9.42l2.08-1.88c3.87-1.13,7.8-2.1,11.68-3.1,4.37-1.14,8.66-2.39,12.89-3.82a30.46,30.46,0,0,0,4.59,1.72c15.25,4.07,31.21,1.61,45.31-5.17,4.28-2,8.33-5.42,12.67-7.78a238.65,238.65,0,0,1,24,9.58q6.58,3.09,13,6.53c3.07,1.65,6.1,3.54,9.23,5.17,4.93,3.08,10.44,5.08,16.41,3.5a14.39,14.39,0,0,0,2.64-.74c5.48-.91,11-2.54,16.21-3.09,10.37-1.09,20.61.18,30.94-.45,9.81-.59,19-4.71,27.89-8.63a65.56,65.56,0,0,0,22.17-15.87l.16-.17c.47.06.9.19,1.4.21,6.12.31,11.47-3.1,15-7.57,1.38-1.75,2.71-3.56,4.07-5.34,19-5.88,35.1-17.36,44.53-35.32a10.11,10.11,0,0,0,1.21-4.61A81.29,81.29,0,0,0,998.77,874c.3-.94.54-1.86.81-2.79a10.52,10.52,0,0,0,6.71-7.71c.88-4,.41-8.38-.11-12.4-.15-1.13-.39-2.24-.59-3.36a90.43,90.43,0,0,1,8.49-21.93,94.09,94.09,0,0,0,25.4-20.63l.32-.39c7.17-2.14,14.43-4,21.78-5.46,4-.81,3.59-6.67,0-7.73a65.28,65.28,0,0,1-11.39-4.61,15.64,15.64,0,0,0,.25-6.41,50.66,50.66,0,0,0,5.43-13.72c.17-.73.26-1.46.4-2.18l-.4-.33c.33-1,.67-2.07,1-3.1.27-1.7.48-3.41.66-5.12a25.05,25.05,0,0,1,9.79-6.55,2.07,2.07,0,0,0,1.47-1.93,2,2,0,0,0-1.47-1.93,26.15,26.15,0,0,1-9.07-4.09c.1-8.1-.14-16.22.21-24.28l5.23-5.72c1.51-1.65,3.54-3.38,3.61-5.8.06-2.27-1.36-4.49-2.27-6.5l-2.57-5.64a26.27,26.27,0,0,0,4-3.09c7-6.73,6.83-16.81,2.38-24.89a47.51,47.51,0,0,0-8.94-11.12,59.66,59.66,0,0,0-11.23-20.08c.73-9.23,8.33-16.08,15.4-21.47,3.58-2.74,1.57-8.18-3.09-7.33a232.69,232.69,0,0,1-41.9,3.68c-.07-.7-.12-1.42-.12-2.16,0-9.22-1.47-17.32-7.09-25.52-6.61-9.64-17-17-28.39-23.51,3.52-3.09,6.28-6.53,6.77-10.83,1.28-11.05-14.16-13.38-25.38-14.09-12.12-.77-24.36,0-36.48.67-22.57-10.25-49.23-11.18-76-18.87-20-5.75-37.88-12.62-56.63-15.08,6.88-3.13,15.78-4.82,22.2-3.81,15.9,2.51,32.72-3.47,55.74-2s30.19-18.75,66.32-24.67-3.15-10.62,25.53-27.33c28.9-16.57,14.73-16.17,58.13-5.29,43.26,11.12,11.79-23.16,7.63-40.63-4-17.44,4.11-35.71,43.56-46.32,25.46-6.86,27-21.57,27-21.57a82.6,82.6,0,0,1,.47-13.36c3.64-2.43,6-6.91,4.27-11.84a138,138,0,0,1,8-11.25c6.93-3.49,14.42-5.39,19.34-11.87a24.79,24.79,0,0,0,4.59-10.31,162.48,162.48,0,0,1,38.69-16.6c4.27-1.21,3.54-8-1.07-7.88a294.31,294.31,0,0,1-40.81-1.56,84.89,84.89,0,0,1,8.81-5.33c6.4-3.44,12.86-6.69,18.67-11l1.86-.15c3.53-.26,4.58-4.12,3.23-6.39a4.1,4.1,0,0,0-1.31-2.09C1169.73,218,1172.84,218,1175.24,220.15ZM1061.46,748c-.29.17-.58.34-.86.52a1.9,1.9,0,0,0-.18-1C1060.77,747.62,1061.1,747.82,1061.46,748Zm-3.29-1.61,0,0,0,0Zm-11,48h0Zm-249-181c5.76,6.34,11.41,12.78,16.88,19.37,1.14,1.37,3.43.21,3.42-1.42a37.22,37.22,0,0,1,.88-8.1c3.69.94,7.38,1.84,11.11,2.62,16.26,3.39,33.33,4,49.29,8.2a60.26,60.26,0,0,1,16.87,7.28,26.53,26.53,0,0,0,.25,6.12c.81,5.18,3.7,9.87,6.77,14,5.8,7.87,11.68,15.69,17.53,23.53.09,1.27.16,2.55.18,3.86a2,2,0,0,0-1.2,1.66c-.47,4.55-3.05,8.44-5.09,12.42a39.46,39.46,0,0,0-1.91,4.45,7.94,7.94,0,0,1-1.19-.7,5.39,5.39,0,0,1-1.83-2.45c0-.59-.08-1.17-.07-1.76a2,2,0,0,0-3.94-.53c0,.18,0,.36,0,.54h0c0,.2,0,.4,0,.59a6.13,6.13,0,0,0,0,1,80.44,80.44,0,0,0,.88,11.39,11.72,11.72,0,0,0-2.32,1.65c-2.83,2.7-3.05,6.67-2.31,10.29a35.63,35.63,0,0,0,3.74,9.11c.83,1.58,1.73,3.12,2.68,4.64.05.34.11.68.17,1a75.63,75.63,0,0,0,2,8.51c.43,1.41.9,2.82,1.41,4.21.22.6.46,1.19.69,1.79l.06.15.39.86c1.41,3.15,1.54,6.41-.66,9.25a8.34,8.34,0,0,1-8.75,3,26.32,26.32,0,0,1-6.8-3.06c-.86-.53-1.7-1.1-2.57-1.61-.31-.19-.64-.35-1-.53-.48-.15-.94-.32-1.42-.45l-.35-.09c-.12,0-.76-.12-1.06-.16a7.83,7.83,0,0,0-5-1.86,13.86,13.86,0,0,0-7.37,2.83,26.17,26.17,0,0,0-4.1,3.83,67,67,0,0,0-14.46,7.49A70.79,70.79,0,0,0,844.59,792c-1.2,1.63-2.82,3.59-4.12,5.57-.56-.29-1.11-.55-1.61-.77-8.6-3.84-16.7.51-23.46,5.8-6.27,4.9-12,10.39-17.84,15.81l-1,1c-15.78,6.93-32.6,10.7-49.59,13.95a19.8,19.8,0,0,0,2.19-5.16,4.07,4.07,0,0,0-1.84-4.52,4.23,4.23,0,0,0-4.86.63l-16.6,13c-6.36,1.23-12.69,2.55-19,4.09-17.32,4.28-32.56,5.84-50.1,1.84-18.33-4.18-31.77-5.25-50.52-3.1-31.06,3.56-55.8-2.59-81.06-21.21-.41-.3-.78-.62-1.16-.94-2.39.2-4.73.33-7,.39-13.24.34-23.49-16.45-16.17-28.38A91.69,91.69,0,0,0,511,765.44a55.06,55.06,0,0,0,8.67-15.29,45.52,45.52,0,0,0,2.69-18.32,42.86,42.86,0,0,0-1.92-10.73,114.45,114.45,0,0,1,5-15.36c4.27-10.27,20.72-29.84,14.65-41.06-2.13-3.92-12.22-7.76-15.56-10.6-21.51-18.33-30.35-53.43-.34-67.3,1-.47,2.07-.9,3.12-1.32a30.34,30.34,0,0,0,6.22,4.11c2.85,1.37,6.13,2.58,9.25,1.36,2.76-1.09,5-3.31,7.22-5.16l6.82-5.58c.09-.07.12-.19.19-.27a226.82,226.82,0,0,1,34.09,1.92c2.72-1.15,5.43-2.31,8.17-3.45,14.82.34,29.62,1.1,44.38,2.16a103.08,103.08,0,0,0,21.61,18,4.07,4.07,0,0,0,4.86-.62c1.11-1.22,1.71-3.42.62-4.86-.66-.89-1.3-1.79-1.94-2.7a43,43,0,0,0,12.86,1.18c4.8-.18,9.69-.62,14.05-2.82a16.07,16.07,0,0,0,4-3q10.81,1.2,21.57,2.49c18,2.18,37.32,4,54,9.88C785.54,601.76,791.91,607.38,798.1,613.37ZM961.24,261.42c-7.53,4.12-12.52,11.4-16.64,18.72-1,1.83-2.4,3.8-2.8,5.87a8.88,8.88,0,0,0,1,5.9c-3.13,4.83-5.46,10.21-7.88,15.44-.43.92-.87,1.84-1.31,2.76-1.86,1.41-3.71,2.83-5.6,4.23-4.07,3-8,6.5-10.62,10.77a3.66,3.66,0,0,0-1.3,1.32c-2.52,4.49-5.25,8.93-7.46,13.58a31.66,31.66,0,0,0-2.58,7.43C898.46,347,890.93,351,886.3,357c-3.06,4-5,9-4.5,14.14,0,.41.16.78.23,1.18C871.9,394,884.18,412,853.83,417.75c-31.11,6.07-27.8-9.16-46.43-2.31s-10.87,21.34-44.78,23.93c-33.88,2.75-26.6.38-58.44-1.68S679.5,432.3,658,438.94s-46.16,22.74-70.83,10.27c-6.58-3.32-12.4-5.91-17.28-8.35-.52-.06-1-.17-1.54-.24-30.35,3-63.36,2.86-86.17-17.83-16.16-14.63-18.72-34-19.75-53.9-.66-12.95-3.76-25.5-7.41-38a31.07,31.07,0,0,1,1-8.09,30.44,30.44,0,0,1,2.3-6.11,21,21,0,0,0,2.29-5.48,1.27,1.27,0,0,1,.07-.12h0c0-.18.09-.34.11-.53a2,2,0,0,0-1.74-2,2,2,0,0,0-2.19,1.44c-.47,1.19-2.12,1.58-3.25,1.51a6.4,6.4,0,0,1-1-.19,7.33,7.33,0,0,0-1.36-1,129.17,129.17,0,0,1-1-23.76c.51-10.73,2.89-20.75,5.52-31.11,1.42-5.62,2-11.3.41-17-1.39-5.05-3.74-9.93-5.66-14.8-.84-2.14-1.65-4.62-2.54-7.18l4.8-6a1.56,1.56,0,0,0,.92-1.14l1.3-1.62a2.06,2.06,0,0,0,0-2.83c-3.37-3.66-6.19-7.24-7.79-12-.76-2.26-1.46-4.54-2.14-6.83,1.73-7,5.44-13,14-17.3,9.75-4.83,21.94-7.42,34.48-8.86,25.13-9,56.86-6.77,83.81-3.79,4.73-2,8.18-3.14,8.19-3.13,42.17-.1,59.81,25.71,96.26,26.18s72.11-32,106.38-30.81c5.46.11,13.07,1.3,22,3.33a262.24,262.24,0,0,1,56.26,6,7,7,0,0,0-.05,3c1,4.73,3.22,9.77,7.8,11.95s9.46.43,14-1c2.24-.7,4.57-1.46,6.86-.54,2.57,1,4.5,3.35,6.59,5.08,5,4.19,11.05,6.34,17.31,8,4,1.05,8.06,2.06,12.09,3.06a100.72,100.72,0,0,1,16.52,17.13,81.41,81.41,0,0,1,4.91,7.38v3.43a25.39,25.39,0,0,0,1.16,8.93,24.66,24.66,0,0,0,5.39,8.36c.73.76,1.48,1.51,2.23,2.25A73.24,73.24,0,0,1,961.24,261.42Z"/></svg>