<?xml version="1.0" encoding="utf-8"?>
<!-- Generator: Adobe Illustrator 26.3.1, SVG Export Plug-In . SVG Version: 6.00 Build 0)  -->
<svg version="1.1" id="Layer_1" xmlns="http://www.w3.org/2000/svg" xmlns:xlink="http://www.w3.org/1999/xlink" x="0px" y="0px"
	 viewBox="0 0 3839 960" style="enable-background:new 0 0 3839 960;" xml:space="preserve">
<style type="text/css">
	.st0{display:none;}
	.st1{display:inline;}
	.st2{fill:#FFFFFF;}
	.st3{fill:#C30207;}
</style>
<g>
	<g>
		<rect x="555.4" y="693.3" class="st2" width="221.5" height="74.8"/>
		<path class="st2" d="M142.9,512.9v-0.1h-5.1H93.7H5.8H0v426.7h93.7V596.4h44.1c63,0,63,101,0,101h-23.6v83.8h23.6h5.1v-0.1
			C331.1,781.1,331.1,512.9,142.9,512.9z"/>
		<path class="st2" d="M524.9,509.9c-85.5,0-153.8,36.9-192.5,104c-41,71-41,162.7,0,233.7c38.7,67.1,107.1,104,192.5,104h27h3.5
			V948v-83.5v-3.5h-3.5h-27c-50.5,0-90.8-21.7-113.6-61.1c-23.8-41.3-23.8-96.8,0-138.1c22.8-39.4,63.1-61.1,113.6-61.1h27h3.5V597
			v-83.5v-3.5h-3.5H524.9z"/>
		<path class="st2" d="M1425.6,636.7c0-73.5-61.5-133.1-137.4-133.1c-75.9,0-137.4,59.6-137.4,133.1c0,33.2,12.6,63.5,33.4,86.8
			c-24.9,25.1-40.3,59.2-40.3,96.8c0,77.2,64.6,139.8,144.4,139.8c79.7,0,144.4-62.6,144.4-139.8c0-37.6-15.4-71.6-40.3-96.8
			C1413,700.2,1425.6,669.9,1425.6,636.7z M1288.1,591.4c25,0,45.3,20.3,45.3,45.3c0,25-20.3,45.3-45.3,45.3
			c-25,0-45.3-20.3-45.3-45.3C1242.9,611.7,1263.1,591.4,1288.1,591.4z M1288.1,868.3c-29,0-52.5-23.5-52.5-52.5
			s23.5-52.5,52.5-52.5c29,0,52.5,23.5,52.5,52.5S1317.1,868.3,1288.1,868.3z"/>
		<path class="st2" d="M1100.6,636.7c0-73.5-61.5-133.1-137.4-133.1c-75.9,0-137.4,59.6-137.4,133.1c0,33.2,12.6,63.5,33.4,86.8
			c-24.9,25.1-40.3,59.2-40.3,96.8c0,77.2,64.6,139.8,144.4,139.8s144.4-62.6,144.4-139.8c0-37.6-15.4-71.6-40.3-96.8
			C1088,700.2,1100.6,669.9,1100.6,636.7z M963.1,591.4c25,0,45.3,20.3,45.3,45.3c0,25-20.3,45.3-45.3,45.3
			c-25,0-45.3-20.3-45.3-45.3C917.9,611.7,938.1,591.4,963.1,591.4z M963.1,868.3c-29,0-52.5-23.5-52.5-52.5s23.5-52.5,52.5-52.5
			c29,0,52.5,23.5,52.5,52.5S992.1,868.3,963.1,868.3z"/>
		<path class="st2" d="M1614.1,507.9c-97.7,0-157.4,71.8-157.4,226.1c0,154.3,59.7,226.1,157.4,226.1c97.7,0,157.4-71.8,157.4-226.1
			S1711.7,507.9,1614.1,507.9z M1677.4,734.2L1677.4,734.2c-0.1,97-20.5,140.3-63.3,140.3c-42.9,0-63.2-43.3-63.3-140.3l0,0
			c0-0.1,0-0.2,0-0.3c0-0.1,0-0.2,0-0.3l0,0c0.1-97.1,20.5-140.3,63.3-140.3c42.9,0,63.2,43.3,63.3,140.3l0,0c0,0.1,0,0.2,0,0.3
			C1677.4,734,1677.4,734.1,1677.4,734.2z"/>
		<path class="st2" d="M1953.6,507.9c-97.7,0-157.4,71.8-157.4,226.1c0,154.3,59.7,226.1,157.4,226.1c97.7,0,157.4-71.8,157.4-226.1
			S2051.3,507.9,1953.6,507.9z M2016.9,734.2L2016.9,734.2c-0.1,97-20.5,140.3-63.3,140.3c-42.9,0-63.2-43.3-63.3-140.3l0,0
			c0-0.1,0-0.2,0-0.3c0-0.1,0-0.2,0-0.3l0,0c0.1-97.1,20.5-140.3,63.3-140.3c42.9,0,63.2,43.3,63.3,140.3l0,0c0,0.1,0,0.2,0,0.3
			C2016.9,734,2016.9,734.1,2016.9,734.2z"/>
		<g>
			<rect x="2143.2" y="512.7" class="st2" width="206.1" height="92.6"/>
			<rect x="2143.2" y="647.4" class="st2" width="206.1" height="92.6"/>
			<path class="st2" d="M2437.1,781.4c0,36.2-29.3,65.5-65.5,65.5v0h-228.5v92.6h228.5c87.3,0,158-70.8,158-158V534h-92.6V781.4z"/>
			<path class="st2" d="M3707.7,512.7c-19.6,0-35.5,15.9-35.5,35.5c0,19.6,15.9,35.5,35.5,35.5c19.6,0,35.5-15.9,35.5-35.5
				C3743.2,528.6,3727.3,512.7,3707.7,512.7z"/>
			<path class="st2" d="M3803.5,512.7c-19.6,0-35.5,15.9-35.5,35.5c0,19.6,15.9,35.5,35.5,35.5c19.6,0,35.5-15.9,35.5-35.5
				C3839,528.6,3823.1,512.7,3803.5,512.7z"/>
			<path class="st2" d="M3618.8,687.8c64.7-64.5,19-175.1-72.4-175.1h-268.8v81.9h259c22,0,33,26.6,17.4,42.1l-207.4,206.8
				c-6.8,6.7-15.9,10.5-25.5,10.5h-57.7v72.4v13h67.1c23,0,45-9.1,61.3-25.3l60.2-60l49-48.8c34.6,31.8,81.8,114.6,81.8,134.2h83.6
				c0-54.8-72.9-157.3-107.7-191.7L3618.8,687.8z"/>
		</g>
		<g>
			<rect x="2578" y="512.7" class="st2" width="92.5" height="205.9"/>
			<rect x="2941.2" y="678" class="st2" width="355.6" height="92.5"/>
			<path class="st2" d="M2807.8,781.5c0,36.1-29.3,65.4-65.4,65.4l-164.4,0v92.6h164.4c87.2,0,157.9-70.7,157.9-157.9V512.7h-92.5
				V781.5z"/>
		</g>
	</g>
	<g>
		<polygon class="st2" points="1716.8,97.2 1790.1,55.6 1700.5,3.1 1654.1,224.3 1458.8,6.2 1367.4,109.3 1395.5,112 1415.2,134.1 
			1356.3,414.5 1464.4,359.9 1413.7,313.5 1444.5,166.7 1653.3,399.9 		"/>
		<path class="st2" d="M2115.4,15.4h-267.6h-2.6h-49.8c-2.8,0-3.5,3.9-0.9,4.8c25.3,9,44.8,22.7,42.3,34.8l-24.3,115.7
			c-3,14.2-27,20.3-49.2,22.9c-3.5,0.4-3.6,5.5-0.1,6.1c28.4,4.5,38.7,10.4,40.1,14.1L1776.9,341c-4.3,20.3-33.5,25.2-58.8,34.3
			c-2.6,0.9-1.9,4.8,0.9,4.8h49.8h29.9h90.5h122.1h55h1.2l24.5-116.5c0.8-3.9-4.4-6-6.5-2.6c-20.1,32.3-65.3,95.5-110.6,95.5h-80.9
			l31.6-150.9h20.4h0.1c31.6,0,53.8,48.8,61.1,67.6c0.8,2.1,3.8,1.8,4.3-0.4l32.2-153.6c0.5-2.3-2.5-3.8-4-1.8
			c-14.8,18.9-54,64.6-90.1,64.6h-19.2l30-143h84.5c43.8,0,58.1,46.8,63.6,104.6c0.4,4.8,7.2,5.1,8.2,0.5l27-128.7L2115.4,15.4z"/>
		<path class="st2" d="M2391.5,380l76.5-147.7c2.3-4.2-1.3-5.7-4.9-2.7c-145.5,120.5-242.8,11.1-228.5-60.4
			c15.7-78.2,77.5-117,134.6-129.9l59.7,76.9l53.7-26.2l-41-89.6c-128.4-6.1-292.1,74.5-299.9,222.1
			C2137.9,296,2209.1,443.4,2391.5,380z"/>
	</g>
</g>
</svg>
