<?xml version="1.0" encoding="utf-8"?>
<!-- Generator: Adobe Illustrator 25.1.0, SVG Export Plug-In . SVG Version: 6.00 Build 0)  -->
<svg version="1.1" id="Layer_1" xmlns="http://www.w3.org/2000/svg" xmlns:xlink="http://www.w3.org/1999/xlink" x="0px" y="0px"
	 viewBox="0 0 3842.5 1317.8" style="enable-background:new 0 0 3842.5 1317.8;" xml:space="preserve">
<style type="text/css">
	.st0{fill:#444444;}
	.st1{fill:none;stroke:#BCBCBC;stroke-width:40.0516;stroke-linecap:round;stroke-miterlimit:10;}
	.st2{fill:#BCBCBC;}
	.st3{fill:#FFDD34;}
	.st4{fill:#7B46CE;}
	.st5{fill:none;stroke:#7B46CE;stroke-width:40.0516;stroke-linecap:round;stroke-miterlimit:10;}
	.st6{fill:#FF3ABD;}
	.st7{fill:none;stroke:#BCBCBC;stroke-width:40.1142;stroke-linecap:round;stroke-miterlimit:10;}
	.st8{fill:none;stroke:#7B46CE;stroke-width:40.1142;stroke-linecap:round;stroke-miterlimit:10;}
	.st9{fill:#E0E0E0;}
	.st10{fill:#FFFFFF;}
	.st11{fill:none;stroke:#FFFFFF;stroke-width:6.2774;stroke-miterlimit:10;}
	.st12{fill:none;stroke:#FFFFFF;stroke-width:6.0077;stroke-miterlimit:10;}
	.st13{fill:none;stroke:#000000;stroke-width:6.2774;stroke-miterlimit:10;}
	.st14{fill:none;stroke:#000000;stroke-width:6.0077;stroke-miterlimit:10;}
	.st15{fill:none;stroke:#000000;stroke-width:6.2907;stroke-miterlimit:10;}
	.st16{fill:none;stroke:#000000;stroke-width:37.9754;stroke-linecap:round;stroke-miterlimit:10;}
	.st17{clip-path:url(#SVGID_2_);}
	.st18{fill:#FFFFFF;stroke:#000000;stroke-width:6.6268;stroke-miterlimit:10;}
	.st19{clip-path:url(#SVGID_4_);}
	.st20{fill:none;stroke:#000000;stroke-width:40.693;stroke-linecap:round;stroke-miterlimit:10;}
	.st21{clip-path:url(#SVGID_6_);}
	.st22{clip-path:url(#SVGID_8_);}
</style>
<g>
	<g>
		<path class="st10" d="M1154.3,381.4L1154.3,381.4l-172.9,0v0h-68.8v929.7h94.7v-256.9h147.1c0,0,0,0,0,0
			C1602.8,1054.2,1602.8,381.4,1154.3,381.4z M1154.3,959.5L1154.3,959.5l-147.1,0V476.1h147.1c0,0,0,0,0,0
			C1476.5,476.1,1476.5,959.5,1154.3,959.5z"/>
		<path class="st10" d="M2012.7,1223.2c-215.8,0-390.7-174.9-390.7-390.7c0-215.8,174.9-390.7,390.7-390.7
			c146.3,0,273.7,80.4,340.7,199.5h105.5c-74.2-172.9-246-294.1-446.2-294.1c-268.1,0-485.4,217.3-485.4,485.4
			c0,268.1,217.3,485.4,485.4,485.4c200.1,0,371.9-121.2,446.2-294.1h-105.5C2286.4,1142.7,2159,1223.2,2012.7,1223.2z"/>
		<rect x="2398.6" y="741.7" class="st10" width="132.8" height="181.6"/>
		<polygon class="st10" points="3070.6,895.3 3070.6,712.7 2796,712.7 2796,547.6 3070.6,547.6 3070.6,365 2796,365 2654,365 
			2613.5,365 2613.5,1295.1 2796,1295.1 2796,895.3 		"/>
		<polygon class="st10" points="3554.8,796.9 3804.2,365 3593.4,365 3449.4,614.3 3305.5,365 3094.7,365 3344,796.9 3056.4,1295.1 
			3267.1,1295.1 3449.4,979.4 3631.7,1295.1 3842.5,1295.1 		"/>
	</g>
	<g>
		<path class="st10" d="M1419.2,8.2h78.7c18.1,0,39.3,16.8,48.8,26.1l138.1,153.2V8.2h47v244.7h-82.2c-17.4,0.1-33.9-7.2-45.7-20
			l-138-153.5v173.5h-46.8L1419.2,8.2z"/>
		<path class="st10" d="M2397.8,254.3c-56.4,7.5-113.4,8.7-170.1,3.7c-33.4-2-66-10.7-96-25.5c-37.8-19.6-49.9-63.6-49.4-103.5
			c0.4-36.9,11.3-76.1,44.2-97.6c21.5-14.1,44.6-18.8,69.1-23.2c66.8-11.8,133.6-9.1,198.8-2V41c-76.8-14.9-157.9-11.2-185.6,24.1
			c-13.7,17.8-20.7,39.8-19.6,62.2c0,33.2,11.3,83.4,78.7,93.2c43.9,6.5,87.4,1.6,129.5-6.1L2397.8,254.3z"/>
		<path class="st10" d="M1916.7,216.5c6.8,0,112.5,0.5,149,0V253c-73.3,2.9-143.6,4.1-217.6,1c-62.6-2.6-73.5-34.1-75-64.5V8.2
			h288.8V43h-186.6v62.3h170.4v34.1h-170.4c0,18.4,0.6,39.3,0.8,43.1c1,23.7,12,32.4,40.9,34.1"/>
	</g>
	<g>
		<circle class="st12" cx="358" cy="449.3" r="29.7"/>
		<polyline class="st12" points="383.7,1108.3 365.5,1119 166.8,1002.4 183.5,992.6 		"/>
		<polyline class="st12" points="365.5,547.3 365.5,477.6 3,690.2 3,906.4 3,1098.5 365.5,1311.1 728,1098.5 728,906.4 
			411.3,1092.1 		"/>
		<circle class="st10" cx="400.5" cy="411.8" r="29.7"/>
		<g>
			<path class="st10" d="M311.9,891.8c10.5-5.3,24.3-9.9,40.9-13.2l44.3-26v-28.9c-50-0.3-94.1-8.3-129.4-20.7
				c25.8-18.6,71.6-32.7,129.4-33.9v-39c-76,1.3-137.4,22.5-168.9,55.3c-32.2-18.2-50.7-40.6-50.7-61.9c0-46.4,90-98.1,219.6-99
				v-38.9c-145.2,0.9-258.6,61.1-258.6,137.9c0,37.2,26.2,70.6,69.5,95.4c-1.8,6.2-2.8,12.7-2.8,19.4c0,27.3,16.3,51,44.8,68.8
				c-0.6,3.1-0.9,6.2-0.9,9.4c0,7.1,1.6,13.9,4.4,20.4l71.2-41.7C320.3,894.1,316,893,311.9,891.8z M269.9,873.8
				c-16.7-10.7-25.7-23.2-25.7-35.6c0-0.7,0-1.5,0.1-2.2c17.9,7,37.6,12.7,58.8,17.1C289.8,858.9,278.6,865.9,269.9,873.8z"/>
			<path class="st10" d="M269.4,866.3c4.8-3.9,10.1-7.6,16-11c-11.8-3-23.2-6.4-34-10.2C253.8,852.3,260,859.6,269.4,866.3z"/>
			<path class="st10" d="M397.1,817.7v-42.6c-45.7,1-87.5,10.4-115.5,26.1C316.1,811.8,355.7,817.4,397.1,817.7z"/>
			<path class="st10" d="M183.5,723.5c0,18.1,15.9,37.8,43.7,54.4c34.2-32.7,96.8-52.5,169.9-53.8v-93.5
				c-58.7,0.4-113.5,11.4-154.8,31.3C205.5,679.5,183.5,702.6,183.5,723.5z"/>
		</g>
		<path class="st10" d="M432.6,1023.4c2.7,8.2,10.3,13.5,18.5,13.5c2,0,4-0.3,6-0.9c41.5-13.4,71.9-38.4,85.6-70.3
			c2-4.7,3.6-9.4,4.8-14.2c11.9-10.3,22.1-22,30.3-35.1c9.2-14.6,15.2-29.8,18-44.6c6-4.5,9.8-7.7,11-8.7c4.9-4,42.8-36.4,50.5-91.5
			c58.4-47.4,90.1-105.8,90.1-167.2c0-106-142.8-187-280.9-204.1c-0.8-0.1-1.6-0.2-2.4-0.2c-9.7,0-18.1,7.2-19.3,17.1
			c-1.3,10.7,6.3,20.4,16.9,21.7c118.7,14.7,246.7,82.1,246.7,165.5c0,42.4-20.5,81.9-53.2,115.4c0-0.2-0.1-0.4-0.1-0.6
			c-17.4-81.6-162.5-133.7-254.8-133.7c-146.8,0-261.9,60.6-261.9,138c0,37.2,26.2,70.6,69.5,95.4c-1.8,6.2-2.8,12.7-2.8,19.4
			c0,27.3,16.3,51,44.8,68.8c-0.6,3.1-0.9,6.2-0.9,9.4c0,47.8,66.4,83.8,154.4,83.8c18.1,0,35.5-1.8,52-5.2
			c-3.3,1.3-6.8,2.6-10.6,3.8C434.9,1002.2,429.3,1013.2,432.6,1023.4z M519.7,873.1c-10.1-7.9-22-14.7-34.7-20.2
			c22.7-5.1,45.4-12.1,67.3-20.8c1,1.7,2,3.5,2.8,5.2c1.9,3.9,2.9,8.3,3.3,13.2C548.2,857.4,535.1,865.4,519.7,873.1z M400.4,823.8
			c-51.4,0-96.6-8.1-132.7-20.8c27-19.4,75.6-34.1,137.1-34.1c38.4,0,84.6,12.1,116.6,33C481.7,815.9,439.9,823.8,400.4,823.8z
			 M475.4,891.4c-21.9,7.1-46.1,11.9-71.2,11.9c-36.4,0-67.4-4.4-92.2-11.5c19.9-10,51.4-17.9,91.7-17.9
			C425.5,874,453.4,880.9,475.4,891.4z M591.6,823.7c-0.4-1.1-0.9-2.1-1.4-3.1c-0.7-1.5-1.5-3-2.3-4.5c5.2-2.6,10.4-5.4,15.4-8.2
			C599.3,814.4,595.2,819.7,591.6,823.7z M228.2,785.4c-32.2-18.2-50.7-40.6-50.7-61.9c0-46.8,91.5-99,222.9-99
			c85.9,0,205.1,48.4,216.7,102.9c1.7,8.2,2.5,16,2.6,23.3c-17.4,12.8-36.7,24.3-57,34.1C522.9,749,458,730,404.8,730
			C325.3,730,260.7,751.5,228.2,785.4z M244.2,838.3c0-0.7,0-1.5,0.1-2.2c17.9,7,37.6,12.7,58.8,17.1c-13.3,5.8-24.5,12.7-33.2,20.7
			C253.2,863.1,244.2,850.6,244.2,838.3z M403.6,961.3c-58.7,0-99.7-18.4-111.8-35.1c31.2,10.3,69.3,16.1,112.3,16.1
			c38.8,0,74.9-9.4,105.6-21.8c0.9,2.6,1.6,6,1.6,10C483.3,950.2,445.7,961.3,403.6,961.3z"/>
		<g>
			<path class="st10" d="M484.9,840.2c0.3-2.3-0.8-4.5-2.7-5.7c-22.9-15-54-26-85.1-31v6.1c29.1,4.8,59,15.1,81.8,29.9
				c-29,10.2-59.1,17.1-88.7,20.1l-12.3,7c33.5-2.1,68.7-9.4,102.9-21.5C483,844.4,484.6,842.5,484.9,840.2z"/>
			<path class="st10" d="M557.9,840.2c-4.9,2.7-10.1,5.5-15.2,8.1c-1.5,0.7-2.5,2-3,3.6c-0.5,1.6-0.3,3.2,0.5,4.7
				c0.7,1.4,1.5,2.8,2.1,4.2c0.4,0.9,0.9,1.9,1.3,2.9c0.8,1.9,2.5,3.3,4.6,3.6c0.3,0.1,0.7,0.1,1,0.1c1.7,0,3.3-0.7,4.5-2
				c4.6-5.1,8.7-10.7,12.4-16.6c1.4-2.3,1.1-5.3-0.8-7.3c-1.2-1.2-2.7-1.9-4.3-1.9C559.9,839.4,558.9,839.7,557.9,840.2z
				 M549.1,861.2c-0.4-1.1-0.9-2.1-1.4-3.1c-0.7-1.5-1.5-3-2.3-4.5c5.2-2.6,10.4-5.4,15.4-8.2C556.9,851.9,552.7,857.2,549.1,861.2z
				"/>
			<path class="st10" d="M583.2,788.1c0-8-1-16.3-2.7-24.5c-7.8-36.8-55.9-63.5-83.9-76.1c-31.2-14-66.3-23.9-99.5-28.6v6
				c79.1,11.3,167.6,53.4,177.5,99.9c1.7,8.2,2.5,16,2.6,23.3c-17.4,12.8-36.7,24.3-57,34.1c-31.4-28.3-78.4-46-123.1-52.2v6.1
				c41.2,6,87.6,22.2,119,50.5c1.1,1,2.6,1.5,4,1.5c0.9,0,1.8-0.2,2.6-0.6c20.9-10.1,40.5-21.8,58-34.7
				C582.3,791.9,583.2,790.1,583.2,788.1z"/>
			<path class="st10" d="M361.2,1004.9c42.5,0,81.9-11.3,111.1-31.9c1.6-1.1,2.5-3,2.5-4.9c0-4.5-0.7-8.6-1.9-12.1
				c-0.6-1.5-1.7-2.8-3.2-3.4c-0.8-0.3-1.6-0.5-2.4-0.5c-0.8,0-1.5,0.1-2.2,0.4c-35.2,14.2-70,21.3-103.4,21.3
				c-41.1,0-79.2-5.4-110.4-15.8c-0.6-0.2-1.3-0.3-1.9-0.3c-1.9,0-3.7,0.9-4.8,2.5c-1.5,2.1-1.5,5,0,7.1
				C257.6,985.4,299.7,1004.9,361.2,1004.9z M361.6,979.8c38.8,0,74.9-9.4,105.6-21.8c0.9,2.6,1.6,6,1.6,10
				c-28,19.7-65.6,30.8-107.7,30.8c-58.7,0-99.7-18.4-111.8-35.1C280.5,974,318.7,979.8,361.6,979.8z"/>
			<path class="st10" d="M424.1,437.8c-0.8-0.1-1.6-0.1-2.4-0.1c-9.6,0-18.1,7.2-19.3,17.1c-1.3,10.7,6.3,20.4,16.9,21.7
				C538,491.2,666,558.6,666,641.9c0,42.4-20.5,81.9-53.2,115.4c0-0.2-0.1-0.4-0.1-0.6c-15.1-70.8-126.2-119.3-215.6-131v6.1
				c37.9,5,78.9,16.7,113.8,32.9c54.5,25.3,88.5,58.4,95.9,93.2l0.2,0.7c0.5,2.1,2.1,3.9,4.2,4.5c0.5,0.2,1.1,0.2,1.6,0.2
				c1.6,0,3.2-0.6,4.3-1.8c35.9-36.8,54.9-78.2,54.9-119.6c0-86.6-130.8-156.4-252-171.4c-3.6-0.4-6.8-2.2-9-5.1
				c-2.2-2.8-3.2-6.4-2.7-9.9c0.8-6.7,6.6-11.8,13.4-11.8c0.5,0,1.1,0,1.6,0.1c69.3,8.6,138.4,33.2,189.6,67.7
				c71.1,47.8,86,97.3,86,130.4c0,59.6-30.4,115.8-87.9,162.5c-1.2,1-2,2.3-2.2,3.8c-7.5,53.2-44.2,84.3-48.5,87.8
				c-1,0.9-4.7,4-10.7,8.5c-1.2,0.9-2,2.2-2.3,3.7c-2.6,14.3-8.4,28.6-17.2,42.5c-7.8,12.4-17.6,23.7-29.1,33.7
				c-0.9,0.8-1.6,1.9-1.9,3.1c-1.1,4.5-2.7,8.9-4.5,13.3c-13,30.3-42.1,54.1-81.9,66.9c-1.3,0.4-2.7,0.7-4.1,0.7
				c-5.9,0-11-3.7-12.8-9.3c-1.1-3.4-0.8-7.1,0.8-10.3c1.6-3.2,4.4-5.6,7.9-6.7c3.8-1.2,7.5-2.6,11-4c2.9-1.2,4.4-4.3,3.5-7.3
				c-0.8-2.6-3.1-4.3-5.7-4.3c-0.4,0-0.8,0-1.2,0.1c-16.3,3.3-33.4,5-50.8,5c-80.3,0-141.8-30.2-147.8-71.1l-5.6,3.2
				c8.4,42.8,71.5,74,153.4,74c18.1,0,35.5-1.8,52-5.2c-3.3,1.3-6.8,2.6-10.6,3.8c-10.2,3.3-15.8,14.3-12.5,24.5
				c2.7,8.2,10.3,13.5,18.5,13.5c2,0,4-0.3,6-1c41.5-13.4,71.9-38.4,85.6-70.3c2-4.7,3.6-9.4,4.8-14.2c11.9-10.3,22.1-22,30.3-35.1
				c9.2-14.6,15.3-29.8,18-44.6c6-4.5,9.8-7.7,11-8.7c4.9-4,42.8-36.3,50.5-91.5c58.4-47.4,90.1-105.8,90.1-167.2
				C705,535.9,562.2,454.9,424.1,437.8z"/>
			<path class="st10" d="M479.9,916c13.4-6.7,26.6-14.4,39.3-22.9c1.8-1.2,2.8-3.3,2.7-5.4c-0.4-5.7-1.7-10.9-3.8-15.4
				c-0.9-2-2-3.9-3.1-5.8c-1.1-1.8-3.1-2.9-5.1-2.9c-0.7,0-1.5,0.1-2.2,0.4c-21.6,8.6-43.9,15.5-66.4,20.5c-2.5,0.6-4.4,2.7-4.7,5.3
				c-0.2,2.6,1.2,5,3.6,6.1c12.9,5.6,24.2,12.1,33.4,19.4c1.1,0.8,2.4,1.3,3.7,1.3C478.1,916.7,479.1,916.5,479.9,916z M442.5,890.5
				c22.7-5.1,45.4-12.1,67.3-20.8c1,1.7,2,3.5,2.8,5.2c1.9,3.9,2.9,8.3,3.3,13.2c-10.2,6.8-23.3,14.8-38.6,22.5
				C467.1,902.7,455.2,896,442.5,890.5z"/>
			<path class="st10" d="M267.8,935.2c27.1,7.8,58.7,11.7,93.9,11.7c23.4,0,48-4.1,73.1-12.2c2.3-0.8,4-2.9,4.2-5.3
				c0.2-2.5-1.2-4.8-3.4-5.8c-23.2-11.1-51.7-18.1-74.3-18.1c-23.5,0-45.6,2.6-64.6,7.6l-32.7,18.7
				C264.6,933.4,266,934.7,267.8,935.2z M361.2,911.5c21.8,0,49.8,6.9,71.7,17.5c-21.9,7.1-46.1,11.9-71.2,11.9
				c-36.4,0-67.4-4.4-92.2-11.5C289.3,919.4,320.8,911.5,361.2,911.5z"/>
		</g>
		<polygon class="st10" points="400.1,1084 400.1,1276.1 759.6,1065.2 759.6,873.1 		"/>
		<g>
			<polygon class="st10" points="257,1003.6 34.6,873.1 34.6,873.1 34.6,873.1 34.6,1065.2 394.1,1276.1 394.1,1084 257,1003.6 			
				"/>
			<path class="st10" d="M34.6,657v209.2l169.7,99.5l44.1-25.9c-3.3-7.4-5.3-15.2-5.3-23.4c0-2.2,0.1-4.3,0.4-6.4
				c-29-19.2-44.3-43.9-44.3-71.8c0-5.6,0.6-11.1,1.8-16.5c-44.3-26.4-68.6-61.2-68.6-98.3c0-80.1,115.9-143,264.6-143.9V444.4
				L34.6,657z"/>
		</g>
	</g>
</g>
</svg>
