<?xml version="1.0" encoding="utf-8"?>
<!-- Generator: Adobe Illustrator 25.0.0, SVG Export Plug-In . SVG Version: 6.00 Build 0)  -->
<svg version="1.1" id="Layer_1" xmlns="http://www.w3.org/2000/svg" xmlns:xlink="http://www.w3.org/1999/xlink" x="0px" y="0px"
	 viewBox="0 0 3840 602.4" style="enable-background:new 0 0 3840 602.4;" xml:space="preserve">
<style type="text/css">
	.st0{fill:#FFE900;}
	.st1{fill:#FFFFFF;}
</style>
<g>
	<path class="st1" d="M3840,286.2c0-65.6-53.3-118.9-118.9-118.9c-33.4,0-63.6,13.8-85.2,36c-21.7-23.7-52.9-38.5-87.5-38.5h-183
		c-34.7,0-66,15-87.8,38.8c-21.6-22.4-51.9-36.3-85.5-36.3c-33.5,0-63.8,13.9-85.4,36.3c-21.8-23.8-53-38.8-87.8-38.8h-366
		c-65.5,0-118.9,53.3-118.9,118.9v195.6c0,65.6,53.3,118.9,118.9,118.9c36.8,0,69.7-16.8,91.5-43c21.8,26.3,54.7,43,91.5,43
		c36.8,0,69.7-16.8,91.5-43c21.8,26.3,54.7,43,91.5,43c34.1,0,64.9-14.4,86.6-37.5c21.7,23.1,52.5,37.5,86.6,37.5
		c34.1,0,64.9-14.4,86.6-37.5c21.7,23.1,52.5,37.5,86.6,37.5c36.8,0,69.7-16.8,91.5-43c21.8,26.3,54.7,43,91.5,43
		c34,0,64.7-14.3,86.3-37.2c21.7,22.9,52.4,37.2,86.3,37.2c65.5,0,118.9-53.3,118.9-118.9v-74.1c0-21.7-5.8-42-16-59.5
		C3834.2,328.2,3840,307.9,3840,286.2z M3063.7,314.5v14v150.9c0,24.7-20,44.7-44.7,44.7c-24.7,0-44.7-20-44.7-44.7V328.5h-93.5
		v150.9c0,24.7-20,44.7-44.7,44.7c-24.7,0-44.7-20-44.7-44.7V328.5h-25.5h-68v150.9c0,24.7-20,44.7-44.7,44.7
		c-24.7,0-44.7-20-44.7-44.7V328.5v-17.8v-26.9c0-24.7,20-44.7,44.7-44.7h112.8h32.4H3019c24.7,0,44.7,20,44.7,44.7V314.5z
		 M3236.9,479.4c0,24.7-20,44.7-44.7,44.7c-24.7,0-44.7-20-44.7-44.7v-74.1c0-24.7,20-44.7,44.7-44.7c24.7,0,44.7,20,44.7,44.7
		V479.4z M3192.2,330.9c-24.7,0-44.7-20-44.7-44.7c0-24.7,20-44.7,44.7-44.7c24.7,0,44.7,20,44.7,44.7
		C3236.9,310.9,3216.9,330.9,3192.2,330.9z M3593.1,314.5v14v150.9c0,24.7-20,44.7-44.7,44.7c-24.7,0-44.7-20-44.7-44.7V328.5h-93.5
		v150.9c0,24.7-20,44.7-44.7,44.7c-24.7,0-44.7-20-44.7-44.7V328.5v-17.8v-26.9c0-24.7,20-44.7,44.7-44.7h183
		c24.7,0,44.7,20,44.7,44.7V314.5z M3765.8,479.4c0,24.7-20,44.7-44.7,44.7c-24.7,0-44.7-20-44.7-44.7v-74.1
		c0-24.7,20-44.7,44.7-44.7c24.7,0,44.7,20,44.7,44.7V479.4z M3721.1,330.9c-24.7,0-44.7-20-44.7-44.7c0-24.7,20-44.7,44.7-44.7
		c24.7,0,44.7,20,44.7,44.7C3765.8,310.9,3745.8,330.9,3721.1,330.9z"/>
	<g>
		<path class="st1" d="M542.1,301.9c-40.3,0-56.9,37.3-56.9,79.4c0,41.6,16.5,78.8,56.9,78.8c40.3,0,56.9-37.3,56.9-78.8
			C598.9,339.2,582.4,301.9,542.1,301.9z"/>
		<path class="st1" d="M1966.1,301.9c-40.3,0-56.9,37.3-56.9,79.4c0,41.6,16.5,78.8,56.9,78.8c40.3,0,56.9-37.3,56.9-78.8
			C2022.9,339.2,2006.4,301.9,1966.1,301.9z"/>
		<path class="st1" d="M1162.2,295.5c-31.6,0-46.6,26.5-48.6,58.9h97.2C1210.8,321.9,1197.2,295.5,1162.2,295.5z"/>
		<path class="st1" d="M200.5,216.1h-25.9v102.6h25.9c34.6,0,62.1-12.4,62.1-51.8C262.6,228.5,235.1,216.1,200.5,216.1z"/>
		<path class="st1" d="M2333.5,159.7c-23.5,0-45.7,4-65.9,11.7c-8.5-3.4-17.7-5.2-27.4-5.2h-79.7c-25.7,0-48.3,13.1-61.7,32.9
			c-36-25.2-81.3-39.4-132.8-39.4c-63,0-116.9,21.3-155.7,58.1c-32.8-45.6-83.1-58.1-128.2-58.1c-31.5,0-60.7,7.5-86.1,21.7
			c-23.9-14.1-52-21.7-83-21.7c-23.5,0-45.7,4-65.9,11.7c-8.5-3.4-17.7-5.2-27.4-5.2h-79.7c-11.9,0-23.2,2.8-33.2,7.9
			c0.5-1.2,1.1-2.4,1.5-3.6c7.2-18.3,6.8-38.8-1.1-56.8l-30.2-69.1c-8.3-19.1-24.3-33.8-44-40.5c-7.8-2.7-15.9-4-24-4
			c-12.3,0-24.6,3.1-35.7,9.1l-148.1,81.2c-27.7,15.2-42.2,45.8-37.7,75.9h-89.6v-49.5c0-41-33.2-74.2-74.2-74.2h-87.5
			c-41,0-74.2,33.2-74.2,74.2V191c-33.8-20.1-74.6-31.3-120.3-31.3c-44.9,0-85.1,10.8-118.5,30.3C400,129.3,339.7,70.6,194.1,70.6
			H74.2c-41,0-74.2,33.2-74.2,74.2v376.9c0,41,33.2,74.2,74.2,74.2h100.4c41,0,74.2-33.2,74.2-74.2v-59.4
			c29.2-3.1,55.7-10.1,79-20.6c23.7,97,105.3,160.7,214.3,160.7c51.5,0,96.8-14.2,132.8-39.3c13.3,19.8,35.9,32.9,61.6,32.9H824
			c12.9,0,24.9-3.3,35.5-9c10.7,5.8,22.8,9,35.5,9h105.9c21.2,0,41-9,54.9-24.3c33.5,19.7,73.5,30.8,117.6,30.8
			c44,0,84.4-7.8,120.1-23c12.7,10.3,29,16.5,46.6,16.5h87.5c15.7,0,30.3-4.9,42.3-13.2c12,8.3,26.6,13.2,42.3,13.2h87.5
			c15.7,0,30.3-4.9,42.3-13.2c12,8.3,26.6,13.2,42.3,13.2h87.5c25.7,0,48.3-13.1,61.6-32.9c36,25.2,81.4,39.4,132.9,39.4
			c51.5,0,96.8-14.2,132.8-39.3c13.3,19.8,35.9,32.9,61.6,32.9h87.5c18,0,34.5-6.4,47.4-17.1c12.9,10.7,29.4,17.1,47.4,17.1h87.5
			c41,0,74.2-33.2,74.2-74.2V346.2C2504.4,236.4,2434.1,159.7,2333.5,159.7z M213.5,390h-38.9v131.8H74.2V144.8h119.9
			c115,0,169,38.9,169,123.7C363.1,344.6,307.5,390,213.5,390z M542.1,528.2c-83.6,0-147.2-54-147.2-146.9
			c0-93.4,63.6-147.4,147.2-147.4c83.6,0,147.2,54,147.2,147.4C689.3,474.2,625.7,528.2,542.1,528.2z M895,521.7l-70-139.3h-1v139.3
			h-87.5v-405H824v241.9h1l72.9-118.3h95.7l-87.9,129.1l95.2,152.3H895z M1209.3,74.2l30.2,69.1c0,0-152.5,66.4-156.9,67.5
			l-21.4-55.4L1209.3,74.2z M1289.6,409.4h-174.9c4.9,38.9,31.6,54,74.4,54c23.8,0,51-5.9,77.3-21.6v68.6
			c-28.2,12.4-60.3,17.8-92.8,17.8c-83.6,0-147.2-54.5-147.2-147.4c0-92.9,56.9-146.9,135.6-146.9c93.8,0,127.8,74,127.8,157.7
			V409.4z M1771.6,521.7h-87.5V370.5c0-31.9-10.2-55.6-35-55.6c-31.1,0-49.6,27.5-49.6,88v118.8h-87.5V370.5
			c0-31.9-10.2-55.6-35-55.6c-31.1,0-49.6,27.5-49.6,88v118.8h-87.5V240.4h79.7v51.8h1c17.5-40.5,52.5-58.3,92.3-58.3
			c35.9,0,65.6,17.3,79.2,54c20.4-37.8,53.9-54,89.9-54c72.9,0,89.4,45.9,89.4,122V521.7z M1966.1,528.2
			c-83.6,0-147.2-54-147.2-146.9c0-93.4,63.6-147.4,147.2-147.4c83.6,0,147.2,54,147.2,147.4
			C2113.3,474.2,2049.7,528.2,1966.1,528.2z M2430.2,521.7h-87.5V385.6c0-52.9-16.5-70.7-40.3-70.7c-36,0-54.4,27.5-54.4,88v118.8
			h-87.5V240.4h79.7v51.8h1c17.5-40.5,52.5-58.3,92.3-58.3c69,0,96.7,54,96.7,112.3V521.7z"/>
	</g>
</g>
</svg>
