<?xml version="1.0" encoding="utf-8"?>
<!-- Generator: Adobe Illustrator 26.0.3, SVG Export Plug-In . SVG Version: 6.00 Build 0)  -->
<svg version="1.1" id="Layer_1" xmlns="http://www.w3.org/2000/svg" xmlns:xlink="http://www.w3.org/1999/xlink" x="0px" y="0px"
	 viewBox="0 0 3839 793.5" style="enable-background:new 0 0 3839 793.5;" xml:space="preserve">
<style type="text/css">
	.st0{display:none;}
	.st1{display:inline;}
	.st2{fill:url(#SVGID_1_);}
	.st3{fill:url(#SVGID_00000139275541921828654380000017108337213887804055_);}
	.st4{clip-path:url(#SVGID_00000101086199914086610520000013001828956549666745_);}
	.st5{clip-path:url(#SVGID_00000150805521433134218440000016605229153283559060_);fill:none;}
	.st6{fill:none;}
	.st7{fill:url(#SVGID_00000109020116336669226690000010887448795441522832_);}
	.st8{clip-path:url(#SVGID_00000133502730406882531400000017353957008986697630_);}
	.st9{clip-path:url(#SVGID_00000071539621420446020000000010429554304017153463_);}
	.st10{clip-path:url(#SVGID_00000099644311984779186720000014615314198061192072_);}
	.st11{fill:url(#SVGID_00000156588966990614592220000001934512812227459742_);}
	.st12{fill:url(#SVGID_00000137823840013146814200000015824011132380509099_);}
	.st13{clip-path:url(#SVGID_00000182508525748307223100000002453993678601841593_);}
	.st14{clip-path:url(#SVGID_00000117639922515813168750000008814595284222974615_);fill:none;}
	.st15{fill:url(#SVGID_00000073703971308799338110000006769117379953409681_);}
	.st16{clip-path:url(#SVGID_00000183224713272039317750000001407289479631519129_);}
	.st17{clip-path:url(#SVGID_00000085247040672663745930000014589828579825432235_);}
	.st18{clip-path:url(#SVGID_00000062172100498625872970000013513357279102318220_);}
	.st19{fill:#FFFFFF;}
	.st20{fill:url(#SVGID_00000006703499109612314480000018213047513766944900_);}
	.st21{fill:url(#SVGID_00000060024923562856444830000015887673818309018029_);}
	.st22{clip-path:url(#SVGID_00000066480186971789706050000013178643032099994034_);fill:#FFFFFF;}
	.st23{clip-path:url(#SVGID_00000101061874560291458330000013910267602440792766_);fill:none;}
	.st24{fill:url(#SVGID_00000174582729066781643030000000571935368581504430_);}
	.st25{clip-path:url(#SVGID_00000085967369019938758430000014274907080826319777_);fill:#FFFFFF;}
	.st26{clip-path:url(#SVGID_00000134935654931363482980000015058506734689043124_);fill:#FFFFFF;}
	.st27{clip-path:url(#SVGID_00000019664083956355090320000001390155363922752922_);}
	.st28{clip-path:url(#SVGID_00000019664083956355090320000001390155363922752922_);fill:#FFFFFF;}
	.st29{fill:url(#SVGID_00000081637566469621175200000008181358792269424571_);}
	.st30{fill:url(#SVGID_00000061432451883978260830000014174465140664390318_);}
	.st31{clip-path:url(#SVGID_00000044885021735465463840000018022774189115048610_);fill:#FFFFFF;}
	.st32{clip-path:url(#SVGID_00000005969870744783711760000000922410192028297149_);fill:none;}
	.st33{fill:url(#SVGID_00000026165595469211827360000014586963584763586437_);}
	.st34{clip-path:url(#SVGID_00000096017809602388026030000002183563285632559252_);fill:#FFFFFF;}
	.st35{clip-path:url(#SVGID_00000107577570679056639410000001139233008407330484_);fill:#FFFFFF;}
	.st36{clip-path:url(#SVGID_00000119818631702655321020000013971792469644253610_);}
	.st37{clip-path:url(#SVGID_00000119818631702655321020000013971792469644253610_);fill:#FFFFFF;}
	.st38{clip-path:url(#SVGID_00000064324140229284209990000006529234602075791025_);}
	.st39{clip-path:url(#SVGID_00000123442396939181692910000008069449180049000329_);}
	.st40{clip-path:url(#SVGID_00000069366419023356091970000009320757458269603514_);}
	.st41{clip-path:url(#SVGID_00000034059699775427446450000002628449862968159927_);}
	.st42{clip-path:url(#SVGID_00000093138974149487483090000013911519615874193327_);}
	.st43{clip-path:url(#SVGID_00000087383500758148659420000018025745563402802872_);}
	.st44{clip-path:url(#SVGID_00000036226798618868072730000007766124621023078812_);fill:#FFFFFF;}
	.st45{clip-path:url(#SVGID_00000129203426923788698850000004945509564006183607_);fill:#FFFFFF;}
	.st46{clip-path:url(#SVGID_00000009574304385158155410000005324001661684843927_);}
	.st47{clip-path:url(#SVGID_00000009574304385158155410000005324001661684843927_);fill:#FFFFFF;}
	.st48{clip-path:url(#SVGID_00000117652747659455663460000004364898840471563696_);fill:#FFFFFF;}
	.st49{clip-path:url(#SVGID_00000058572126950597151070000008048086480087375512_);fill:#FFFFFF;}
	.st50{clip-path:url(#SVGID_00000000901380341623441340000016709838277179838903_);}
	.st51{clip-path:url(#SVGID_00000000901380341623441340000016709838277179838903_);fill:#FFFFFF;}
	.st52{fill:url(#SVGID_00000090984697855081816590000008056247991523034287_);}
	.st53{fill:url(#SVGID_00000137813770303641209860000011472003759718294458_);}
	.st54{clip-path:url(#SVGID_00000037680609906330569490000005151849417894186411_);}
	.st55{clip-path:url(#SVGID_00000086687939022693628080000013934561915231723668_);fill:none;}
	.st56{fill:url(#SVGID_00000001664869705239719840000001442934677383096976_);}
	.st57{fill:url(#SVGID_00000005238366841685445110000012589243934452690359_);}
	.st58{clip-path:url(#SVGID_00000131332148941955880640000008314949281079879093_);}
	.st59{clip-path:url(#SVGID_00000025416219639258327280000005993754020553450655_);fill:none;}
	.st60{fill:url(#SVGID_00000072271961219221189450000003351473139452237736_);}
	.st61{clip-path:url(#SVGID_00000111161802474865315100000012111258717515745461_);}
	.st62{clip-path:url(#SVGID_00000182513025650327872540000011154607847163808643_);}
	.st63{clip-path:url(#SVGID_00000171718044972692873700000016438173823221073817_);}
	.st64{fill:url(#SVGID_00000092423636943556357060000014138898333373500835_);}
	.st65{clip-path:url(#SVGID_00000168078762676991242530000015772393778241186996_);}
	.st66{clip-path:url(#SVGID_00000036949486659527325640000014526512115045778599_);}
	.st67{clip-path:url(#SVGID_00000131330682841955790610000012770212970430764718_);}
	.st68{clip-path:url(#SVGID_00000067225823951393974740000003717393424149173691_);}
	.st69{clip-path:url(#SVGID_00000036253063177855219620000012347531159646711201_);}
	.st70{clip-path:url(#SVGID_00000034074752969882823260000005182197644312477857_);}
	.st71{fill:url(#SVGID_00000037665275183038430600000006312682622814249139_);}
	.st72{clip-path:url(#SVGID_00000069392839289184237080000006573762666329707905_);}
	.st73{clip-path:url(#SVGID_00000127018409119505720950000000667228492768083099_);}
	.st74{clip-path:url(#SVGID_00000117648240628043738120000013345100117797369995_);}
	.st75{fill:url(#SVGID_00000069356637174425120630000012484363618256068758_);}
	.st76{fill:url(#SVGID_00000092442797255789734420000001242872327903911298_);}
	.st77{clip-path:url(#SVGID_00000168807529691008411390000010452928538628068021_);}
	.st78{clip-path:url(#SVGID_00000160908938490173535650000005286633851615214521_);fill:none;}
	.st79{clip-path:url(#SVGID_00000115479093010748512480000010419239398008457406_);}
	.st80{clip-path:url(#SVGID_00000031169600635358673780000017396436125621246624_);}
	.st81{clip-path:url(#SVGID_00000066513422443491146720000000672079675793545649_);}
	.st82{fill:url(#SVGID_00000090290445523941963610000003832439697753563313_);}
	.st83{clip-path:url(#SVGID_00000112634162074822903800000010048420195355206295_);}
	.st84{clip-path:url(#SVGID_00000003821358704676383500000008568986768714537919_);}
	.st85{clip-path:url(#SVGID_00000131353505066679218530000011038272440108257214_);}
	.st86{clip-path:url(#SVGID_00000141419281428419117240000011667357318226927286_);}
	.st87{clip-path:url(#SVGID_00000015343831897191575150000004321801443943098521_);}
	.st88{clip-path:url(#SVGID_00000150785383326336647590000003920242604554924672_);}
	.st89{clip-path:url(#SVGID_00000017489629845401071370000011944796730869578418_);}
	.st90{clip-path:url(#SVGID_00000002363727007587166350000013522245860949266327_);}
	.st91{clip-path:url(#SVGID_00000018956318815068038860000017475192553988891326_);}
	.st92{fill:url(#SVGID_00000142151463720963063210000005358318903397426578_);}
	.st93{clip-path:url(#SVGID_00000034775066961145475850000011931502705263404937_);}
	.st94{clip-path:url(#SVGID_00000072270180440656639770000013463944973794731688_);}
	.st95{clip-path:url(#SVGID_00000101794314974686097720000003719659012172711302_);}
	.st96{clip-path:url(#SVGID_00000075870189083415102350000002548664248548659122_);}
	.st97{clip-path:url(#SVGID_00000022538700020558156560000011940073453523383446_);fill:#FFFFFF;}
	.st98{clip-path:url(#SVGID_00000041288521982496177510000014508873132635639737_);}
	.st99{clip-path:url(#SVGID_00000107584007842376769750000013342571484443376789_);}
	.st100{clip-path:url(#SVGID_00000028288742287424314240000011071636963179716228_);fill:#FFFFFF;}
	.st101{clip-path:url(#SVGID_00000058564726144346584100000014215686157354347189_);}
	.st102{fill:url(#SVGID_00000034055540168331058660000008488034510934528941_);}
	.st103{fill:url(#SVGID_00000159453398483108499910000005849661961155746194_);}
	.st104{clip-path:url(#SVGID_00000101096464085490970660000017312123318365909422_);}
	.st105{clip-path:url(#SVGID_00000064323370868411425460000012412039952304652464_);fill:none;}
	.st106{clip-path:url(#SVGID_00000116957344942640806780000000470095551457747625_);}
	.st107{clip-path:url(#SVGID_00000082330666971851665890000008139303601370019751_);}
	.st108{clip-path:url(#SVGID_00000055706465453501680360000015472893501850921128_);}
	.st109{fill:url(#SVGID_00000090978452985097968170000012355549573968947644_);}
	.st110{fill:url(#SVGID_00000182521506115485336600000014892070828815385731_);}
	.st111{fill:url(#SVGID_00000165199483269261139630000014628788429784158599_);}
	.st112{clip-path:url(#SVGID_00000078736599357493920890000000711077228225271730_);}
	.st113{clip-path:url(#SVGID_00000089557864064153358670000016071822809522302645_);fill:none;}
	.st114{fill:url(#SVGID_00000082366592980511973830000006723142656459003026_);}
	.st115{fill:url(#SVGID_00000175291015539852013510000014107848012252300166_);}
	.st116{clip-path:url(#SVGID_00000116951539953822253760000008996383665467353985_);}
	.st117{clip-path:url(#SVGID_00000029012335777714932860000013166445467336430525_);fill:none;}
	.st118{clip-path:url(#SVGID_00000090976395551166746690000001356884042592916134_);}
	.st119{clip-path:url(#SVGID_00000049925070169678280680000001400955077667274647_);}
	.st120{clip-path:url(#SVGID_00000181793971245615746160000000026352896215951277_);}
	.st121{fill:url(#SVGID_00000172403367997037285190000015115299409758661552_);}
	.st122{fill:url(#SVGID_00000179643852029018182180000010971075361837344640_);}
	.st123{fill:url(#SVGID_00000012451425641231433970000003890255414487388300_);}
	.st124{clip-path:url(#SVGID_00000137813552435410973060000000911452616487141260_);}
	.st125{clip-path:url(#SVGID_00000131355239150490785700000017809157599353977486_);fill:none;}
	.st126{clip-path:url(#SVGID_00000152242884765548134590000013418769289120390286_);}
	.st127{clip-path:url(#SVGID_00000092447660949096533980000016897147462864900225_);}
	.st128{clip-path:url(#SVGID_00000026850862845230545010000010725071029086736812_);}
	.st129{fill:url(#SVGID_00000070837136098417066140000006870813938539196561_);}
	.st130{fill:url(#SVGID_00000005987759356290670610000014178666807267571879_);}
	.st131{fill:url(#SVGID_00000079480263158948727230000017506915368132084637_);}
	.st132{clip-path:url(#SVGID_00000052097022168504076750000016562736673062492032_);}
	.st133{clip-path:url(#SVGID_00000093135159430013067730000009362501713747496382_);fill:none;}
	.st134{clip-path:url(#SVGID_00000105404087287506103660000017759602725677995194_);}
	.st135{clip-path:url(#SVGID_00000170957434726394054440000007134850877675220152_);}
	.st136{clip-path:url(#SVGID_00000103957709913684071050000008788171666148839316_);}
	.st137{fill:url(#SVGID_00000059284996437630981030000007035360116967311242_);}
	.st138{fill:url(#SVGID_00000090252953210616372910000007424302147505778340_);}
	.st139{fill:url(#SVGID_00000060025567749953390040000014590830793358715297_);}
	.st140{clip-path:url(#SVGID_00000092440200432546228590000009857448400690780859_);}
	.st141{clip-path:url(#SVGID_00000065074398535443001470000005995745294772920460_);fill:none;}
	.st142{clip-path:url(#SVGID_00000169544203815699452170000017785002518125891245_);}
	.st143{clip-path:url(#SVGID_00000121986534078176323310000017415588423897653378_);}
	.st144{clip-path:url(#SVGID_00000049194791350890973750000014455607867250947980_);}
	.st145{fill:url(#SVGID_00000179647813770976335790000012833613373727696261_);}
	.st146{fill:url(#SVGID_00000080206190291847322060000012637075022169753728_);}
	.st147{fill:url(#SVGID_00000110470848269078217620000017169750637340848301_);}
	.st148{clip-path:url(#SVGID_00000154403578333026141470000005263638901116807077_);}
	.st149{clip-path:url(#SVGID_00000099650633274306051040000014093031484175695787_);fill:none;}
	.st150{clip-path:url(#SVGID_00000121967889872645213730000014768629945134808729_);}
	.st151{clip-path:url(#SVGID_00000040570657159355927960000002290207861139623298_);fill:#FFFFFF;}
	.st152{clip-path:url(#SVGID_00000051385289143825804360000004550843379342159536_);}
	.st153{fill:url(#SVGID_00000108286415176790709290000008171928256460004994_);}
	.st154{fill:url(#SVGID_00000018200412725031461880000000349428203643201952_);}
	.st155{fill:url(#SVGID_00000040532488721614416720000002708996134738225313_);}
	.st156{clip-path:url(#SVGID_00000062185174790542119800000017964681370116157059_);fill:#FFFFFF;}
	.st157{clip-path:url(#SVGID_00000158744882859684303950000017112502586124366243_);fill:none;}
	.st158{clip-path:url(#SVGID_00000097499429743292890050000000525784446723266719_);}
	.st159{clip-path:url(#SVGID_00000168831852833906845140000017301696123722272958_);fill:#FFFFFF;}
	.st160{clip-path:url(#SVGID_00000165942617188037298260000008861661915963589251_);}
	.st161{fill:url(#SVGID_00000080181343685141585840000007185106397514329227_);}
	.st162{fill:url(#SVGID_00000029751187771600568100000003128550617595376773_);}
	.st163{fill:url(#SVGID_00000057838866845499345560000015593727166249433228_);}
	.st164{clip-path:url(#SVGID_00000102504068768071767190000006551058619502461842_);fill:#FFFFFF;}
	.st165{clip-path:url(#SVGID_00000145765735917499574330000004154640223428988823_);fill:none;}
</style>
<g class="st0">
	<g class="st1">
		<g>
			<g>
				<g>
					<path class="st19" d="M2074.2-259.8c3-1.5,6.5-3.2,10.5-5c13.2-6.2,23.7,12.3,11.6,20.5c-4.2,2.9-8,5.5-11.1,7.6
						c-38.8,27.2-72.7,59.2-72.7,167.4c0,135.9,112.5,268.4,112.5,366.9c0,76.4-21.6,146.5-191.1,228.7c-5.6,2.7-12.2,0.6-15.3-4.7
						l0,0c-3.3-5.7-1.1-13,4.6-16.1c67.7-36.2,87.6-111.2,84.7-175.6c-6-134-114.5-249.2-112.5-359.1
						C1896.7-94.8,1922.7-183.5,2074.2-259.8z"/>
					<path class="st19" d="M1968.4,286.2c-9.6-3.6-29.1-13.9-41.4-41.1L1792.7-52.6c-5.7-12.7-23.5-13.2-29.9-0.9l-99.4,188.7
						c-5.1,9.8-15.3,15.9-26.3,15.9h-119.2h-4c-4,0-8,3.2-8.6,7.1c-0.8,5.1,2.9,9.5,7.8,9.9c33.1,3,53,25.1,52.7,60.8
						c-0.2,32.9-27.7,59.9-60.7,59.9h-8.6c-88.3,0-92.1-101.4-92.1-123.6c0-25.8,0-77.6,0-77.6c0-38.1,15.3-104.9,89.7-104.9
						c69.5,0,108.5,32,140.3,74.4c5.2,7,16.3,1.2,13.6-7.1L1620-37.4c-2.7-8.4-12.6-12.1-20.2-7.5c-20.5,12.6-32.5,10.5-32.5,10.5
						c-10.1,0.3-42.2-8.8-81.2-8.8c-62.2,0-112.5,24.7-146.9,57.9c-3.4,3.3-9.1,2.2-10.8-2.3l-20.7-50.3H1120V-38h-92.2
						c-5.9,0-11.6-0.2-17.5-0.5C978.8-40.2,867.8-46,811-46c-71.2,0-127,22.3-132.6,74.8c-4.2,39.5,23.2,60.1,38.9,74.5
						c8.5,7.8,48.5,33.1,69,42.6c21.4,9.9,106.8,52.7,98,86.6c-8.8,33.6-37.7,41.9-71,41.9c-52.3,0-108.4-43.3-150-82.1
						c-7.2-6.8-18.4,1.6-13.9,10.5c17.2,33.6,39.2,74.5,53.6,96.1c4.1,6.1,11.5,9.1,18.7,7.2c15.5-3.9,35.6-6,47.8-5.4
						c15.7,0.7,48.6,5,63,5c119.8,0,157.3-31.5,161.2-86.1c5.4-75.1-84.3-125.1-138.9-147C806,53,787.1,23.3,789.1,8.6
						c3.4-25.5,27.7-29.8,48-29C900.2-18,1019,12.7,1019,56c0,0,0,192.1,0,200.5c0,11.2-12.2,31.4-27.7,31.4H991c-2.8,0-5.6,1-7.6,3
						c-5.4,5.4-1.6,11.7,3.5,11.7h66.9l0,0h66.3h189.1c6.1,0,11.4-3.6,13.8-9.3l10.3-25.1c2-4.8,8.1-6.3,12-2.8
						c33.7,30.5,83.1,49.6,150.6,49.6c15.7,0,48.4-4.3,63.6-9.9c4.8-1.7,10-2.7,15.1-2.7h126.5h20.4c7.5,0,11.1-9.4,5.5-14.4
						c-2.5-2.2-4.7-4.2-6.3-5.7c-12-10.9-11.5-18.3-11.8-24.6c-0.3-6.2,1-12.3,3.9-17.9l89.6-170.2l76.6,169.9
						c2.6,5.7,3.8,11.9,3.3,18.1c-0.1,0.8-0.1,1.5-0.2,2.1c-1.4,8-8.6,24.2-22.1,24.2h-2.2c-3.3,0-6.6,1.1-9.1,3.3
						c-7.5,6.7-2.9,15.1,3.7,15.1h113.3c5.2,0,9.4-4.7,8.3-10.1C1973.4,289.6,1971.3,287.3,1968.4,286.2z M1310.5,49.7
						c-15.4,24.3-23.8,50-23.8,72.6c0,30.1,5.6,59.6,17.3,86c2.6,5.8,1.4,12.6-3,17.1c-21.7,22-69.1,52.7-136.9,52.7h-16.6
						c-15.1,0-27.4-12.2-27.4-27.4v-92.3v-4.9c0-5.1,7.7-11.5,16.4-9.8c13.3,2.6,36.6,10.9,55.3,21.7c13.1,7.6,24.9,15.5,38.5,26.8
						c6,4.9,15,0.6,15-7.1v-29V98.8v-29c0-7.7-9.1-12-15-7.1c-13.6,11.2-25.4,19.1-38.5,26.8c-18.6,10.7-42.7,22-55.9,25.1
						c-10.2,2.4-13.8-1.6-15.7-5.5v-5.6V12.9c0-14.4,11.7-26.1,26.1-26.1h33.5c54.9,0,105.1,31.5,129.1,52.3
						C1311.9,41.7,1312.7,46.3,1310.5,49.7z"/>
					<path class="st19" d="M3868.3-34c-0.8-2.4-3.2-3.9-5.8-3.9h-26.3h-49.5h-26.3c-2.6,0-4.9,1.5-5.8,3.9c-1.1,3.3,0.7,6.6,3.7,7.6
						c9.5,3.1,32.2,13.1,32.2,36.9v143.1c0,5.5-6.4,8.4-10.6,4.9L3629.5,33.8c-46.9-39-113.4-64.9-157.3-79.1
						c-9.7-3.1-16.4,9.7-8.2,15.8c1.4,1.1,2.9,2.2,4.4,3.3c50.1,37.7,55.5,91.7,55.5,97.8v192.2v9.3c0,7.2-5.9,13.1-13.1,13.1
						c-16.8,0-54.3-27.3-73.5-47.3c-18-18.8-26.6-44.8-46.8-68.5c-16.1-18.8-29.7-25.8-29.7-25.8c101.1,0,104.1-82,104.1-91.2
						c0-13.7,0-91.6-126.6-91.6h-292.1h-49.7c-2.6,0-4.9,1.5-5.8,3.9c-1.1,3.3,0.7,6.7,3.7,7.6c9.5,3.1,32.2,13.1,32.2,36.9v180.1
						c0,62.2-43.5,83-78.4,83c-63.6,0-88-37.5-88-84.6v-27.3l0,0V10.3c0-23.9,22.7-33.9,32.2-36.9c2.5-0.8,4.1-3,4.1-5.6v-0.1
						c0-3.2-2.6-5.9-5.9-5.9h-114.1h-17.5h-229.9h-117.1c-7.1,0-13.7,4.1-16.8,10.5l-18.8,39c-3.2,6.7,4.4,13.3,10.6,9.2
						c25.2-17.1,67.6-36.7,129.6-39.1c6.8-0.2,12.4,5.2,12.4,12v246.9c0,11.7-4.3,20.8-10.2,27.7c-4.5,5.4-11.3,8.4-18.4,8.4h-15.2
						c-4.9,0-9.9-1.3-14.1-4.1c-9.7-6.3-18.8-15.1-24.4-27.5L2312.7-52.9c-5.8-12.7-23.5-13.2-29.9-0.9l-139.7,265.1l-40.3,76.4
						l2.8,14.6h40.5h7.2h88l0,0c7.5,0,11.1-9.4,5.5-14.4c0,0-0.1,0-0.1-0.1c-2.5-2.2-4.6-4.1-6.2-5.6
						c-11.9-10.7-11.5-18.1-11.8-24.4c-0.3-6.3,1-12.6,3.9-18.1l89.7-170.2l76.6,169.9c2.6,5.7,3.8,11.9,3.3,18.1
						c-0.1,0.8-0.1,1.5-0.2,2.1c-1.4,8-8.6,24.2-22.1,24.2h-0.2c-2.7,0-5.4,0.8-7.5,2.5c-8.8,6.8-4.1,15.9,2.7,15.9h112.9h6.6h89.2
						h26.3h53.9c4.6,0,8.6-3.5,8.8-8.1c0.2-3.7-2.1-7.2-5.5-8.4c-11.3-4.3-36.3-17.2-36.3-45.4V-6.6c0-7,5.7-12.3,12.7-12
						c47.9,1.9,84.2,14,109.7,27.4c4.1,2.2,6.7,6.4,6.7,11v159.1h0.4c4.1,73.1,38.8,129.2,165.9,129.2
						c73.7,0,142.7-38.6,142.7-109.7c0-8.7,0-182.3,0-182.3c0-10.8,3.4-18.4,7.7-23.7c6.3-7.7,15.9-11.8,25.9-11.8h15
						c10,0,19.7,4.1,25.9,11.8c4.3,5.4,7.7,13,7.7,23.7v221c0,32.8-26,45.2-38.2,49.2c-2.9,0.9-5.2,3.3-5.9,6.4
						c-1,5.4,3,10.1,8.2,10.1h54.3h61.3h56.8c3.5,0,6.8-2.1,8-5.4c1.7-4.7-0.8-9.6-5.1-11c-11.9-3.9-38.5-16.3-38.5-49.3V27.6V2.7
						c0-18.7,16.1-25.5,27.1-25.5h31.6c29.4,0,58.6,24.8,58.6,66.2c0,60.7-39.5,75.4-55.7,75.4c-10.8,0-19.2,0.2-28.2-3.1
						c0,0-0.1,0-0.1-0.1c-5.7-2.7-11.7,2.6-9.9,8.5c0.1,0.3,0.1,0.5,0.2,0.5c9.5,32.1,26.5,81.2,49.8,112.5
						c36.1,48.7,104.6,87.5,219.6,87.5h49.4c3.1,0,6-1.9,6.9-4.7c1.3-4-0.9-8-4.6-9.2c-9.9-3-30.9-11.9-30.9-34.3V114.8
						c0-5.5,6.4-8.4,10.6-4.9L3815.1,308c6.9,5.7,17.2,0.8,17.2-8.1V10.6c0-23.9,22.7-33.9,32.2-36.9
						C3867.6-27.3,3869.5-30.6,3868.3-34z"/>
				</g>
			</g>
		</g>
		<g>
			<g>
				<path class="st19" d="M228.7,291.6c-7.3-5.8-14.1-12.1-20.8-18.6c-3.3-3.2-6.5-6.5-9.8-9.7c-2.2-2.2-4.7-4.2-6.8-6.5
					c-31.3,3-60.7,4-87,2.6c-13.3-0.7-24.6,9.7-25.2,23c-0.5,13.2,10,24.1,23.2,24.9c8.7,0.4,17.7,0.6,26.9,0.6
					c34.1,0,71.4-3,110.2-8.6C235.8,296.9,232.2,294.3,228.7,291.6z"/>
				<path class="st19" d="M630.8,89.6c-2.3-14.1-10-25.5-22.3-32.9c-44-26.7-143.9,3.6-303.1,56.7c-55.7,18.5-108.3,35.7-151.9,47.2
					c-36.3,9.7-56.3,12.1-66.7,11.3c-7-0.6-8.6-7-6.6-11c0.7-1.4,1.7-3,2.8-4.6c11.4-16.5,37.8-34.9,74.9-53
					c0.8-4.8,1.8-9.6,2.8-14.3c1.3-5.5,2.8-11,4.3-16.5c0.8-2.6,1.6-5.2,2.6-7.8c1-2.4,2-4.7,3.1-7c2.6-5.6,5.7-11,8.4-16.5
					C123.8,63.6,68,93.5,43.5,128.7c-18.4,26.4-15.1,49-9.2,63.3c15.1,36.4,66.4,29.9,114.6,18.8c48-11.1,108-31.1,171.5-52.2
					c61.3-20.5,124.7-41.6,175.8-53.7c48-11.5,70.4-11.3,80.3-9.6c4.6,0.8,7.4,5.6,5.8,10c-2.3,6.4-7.4,12.8-10.9,16.7
					c-12.2,13.7-31.7,27.8-56.8,41.7c-0.4,3.9-1,7.8-1.8,11.6c-1.1,5.4-2.6,10.8-4.2,16.1c-1.4,4.6-3,9-4.2,13.6
					c-1.3,4.8-2.5,9.7-4,14.5c-0.6,2-1.4,4-2.2,5.9c49.2-22.5,87-47,108.8-71.4C626.3,132.7,634.3,111,630.8,89.6z"/>
				<path class="st19" d="M424.4-21.7c5.4,3.4,10.8,6.9,16,10.6c1.2,0.8,2.4,1.7,3.5,2.6c1,0.9,2.1,1.8,3,2.6
					c1.9,1.8,3.8,3.8,5.6,5.7c3.7,3.9,7.1,8,10.9,11.8c1,1.1,2.2,2.2,3.3,3.2c32.5-4.2,61.5-6.2,84.6-5.3c13.2,0.6,24.4-9.8,24.9-23
					c0.5-13.2-9.8-24.4-23-24.9c-35.6-1.4-83.3,3.2-135.7,12.4C419.8-24.6,422.1-23.1,424.4-21.7z"/>
				<g>
					<path class="st19" d="M333.7-36.9c23.5,0,46.2,4.6,67.6,13.7C422-14.5,440.6-2,456.5,14s28.5,34.5,37.2,55.2
						c9,21.4,13.7,44.2,13.7,67.6c0,23.4-4.6,46.2-13.7,67.6c-8.8,20.7-21.3,39.2-37.2,55.2c-16,16-34.5,28.5-55.2,37.2
						c-21.4,9-44.2,13.7-67.6,13.7s-46.2-4.6-67.6-13.7c-20.7-8.8-39.2-21.3-55.2-37.2c-16-16-28.5-34.5-37.2-55.2
						c-9-21.4-13.7-44.2-13.7-67.6s4.6-46.2,13.7-67.6c8.8-20.7,21.3-39.2,37.2-55.2s34.5-28.5,55.2-37.2
						C287.4-32.3,310.2-36.9,333.7-36.9 M333.7-52.9c-104.8,0-189.8,85-189.8,189.8s85,189.8,189.8,189.8s189.8-85,189.8-189.8
						S438.5-52.9,333.7-52.9L333.7-52.9z"/>
				</g>
			</g>
		</g>
	</g>
</g>
<g>
	<g>
		<g>
			<path class="st19" d="M199.1,557.7c-7.3-5.8-14.1-12.1-20.8-18.6c-3.3-3.2-6.5-6.5-9.8-9.7c-2.2-2.2-4.7-4.2-6.8-6.5
				c-31.3,3-60.7,4-87,2.6c-13.3-0.7-24.6,9.7-25.2,23c-0.5,13.2,10,24.1,23.2,24.9c8.7,0.4,17.7,0.6,26.9,0.6
				c34.1,0,71.4-3,110.2-8.6C206.1,562.9,202.5,560.4,199.1,557.7z"/>
			<path class="st19" d="M601.1,355.7c-2.3-14.1-10-25.5-22.3-32.9c-44-26.7-143.9,3.6-303.1,56.7C220,398,167.4,415.1,123.8,426.7
				c-36.3,9.7-56.3,12.1-66.7,11.3c-7-0.6-8.6-7-6.6-11c0.7-1.4,1.7-3,2.8-4.6c11.4-16.5,37.8-34.9,74.9-53
				c0.8-4.8,1.8-9.6,2.8-14.3c1.3-5.5,2.8-11,4.3-16.5c0.8-2.6,1.6-5.2,2.6-7.8c1-2.4,2-4.7,3.1-7c2.6-5.6,5.7-11,8.4-16.5
				c-55.2,22.5-111,52.4-135.5,87.6c-18.4,26.4-15.1,49-9.2,63.3c15.1,36.4,66.4,29.9,114.6,18.8c48-11.1,108-31.1,171.5-52.2
				c61.3-20.5,124.7-41.6,175.8-53.7c48-11.5,70.4-11.3,80.3-9.6c4.6,0.8,7.4,5.6,5.8,10c-2.3,6.4-7.4,12.8-10.9,16.7
				c-12.2,13.7-31.7,27.8-56.8,41.7c-0.4,3.9-1,7.8-1.8,11.6c-1.1,5.4-2.6,10.8-4.2,16.1c-1.4,4.6-3,9-4.2,13.6
				c-1.3,4.8-2.5,9.7-4,14.5c-0.6,2-1.4,4-2.2,5.9c49.2-22.5,87-47,108.8-71.4C596.6,398.8,604.6,377.1,601.1,355.7z"/>
			<path class="st19" d="M394.7,244.4c5.4,3.4,10.8,6.9,16,10.6c1.2,0.8,2.4,1.7,3.5,2.6c1,0.9,2.1,1.8,3,2.6
				c1.9,1.8,3.8,3.8,5.6,5.7c3.7,3.9,7.1,8,10.9,11.8c1,1.1,2.2,2.2,3.3,3.2c32.5-4.2,61.5-6.2,84.6-5.3c13.2,0.6,24.4-9.8,24.9-23
				c0.5-13.2-9.8-24.4-23-24.9c-35.6-1.4-83.3,3.2-135.7,12.4C390.1,241.5,392.4,243,394.7,244.4z"/>
			<g>
				<path class="st19" d="M304,229.1c23.5,0,46.2,4.6,67.6,13.7c20.7,8.8,39.2,21.3,55.2,37.2c16,16,28.5,34.5,37.2,55.2
					c9,21.4,13.7,44.2,13.7,67.6c0,23.4-4.6,46.2-13.7,67.6c-8.8,20.7-21.3,39.2-37.2,55.2c-16,16-34.5,28.5-55.2,37.2
					c-21.4,9-44.2,13.7-67.6,13.7c-23.4,0-46.2-4.6-67.6-13.7c-20.7-8.8-39.2-21.3-55.2-37.2s-28.5-34.5-37.2-55.2
					c-9-21.4-13.7-44.2-13.7-67.6c0-23.4,4.6-46.2,13.7-67.6c8.8-20.7,21.3-39.2,37.2-55.2c16-16,34.5-28.5,55.2-37.2
					C257.7,233.8,280.5,229.1,304,229.1 M304,213.2c-104.8,0-189.8,85-189.8,189.8s85,189.8,189.8,189.8s189.8-85,189.8-189.8
					S408.8,213.2,304,213.2L304,213.2z"/>
			</g>
		</g>
	</g>
	<g>
		<g>
			<g>
				<path class="st19" d="M2044.6,6.3c3-1.5,6.5-3.2,10.5-5c13.2-6.2,23.7,12.3,11.6,20.5c-4.2,2.9-8,5.5-11.1,7.6
					c-38.8,27.2-72.7,59.2-72.7,167.4c0,135.9,112.5,268.4,112.5,366.9c0,76.4-21.6,146.5-191.1,228.7c-5.6,2.7-12.2,0.6-15.3-4.7
					l0,0c-3.3-5.7-1.1-13,4.6-16.1c67.7-36.2,87.6-111.2,84.7-175.6c-6-134-114.5-249.2-112.5-359.1
					C1867,171.3,1893,82.6,2044.6,6.3z"/>
				<path class="st19" d="M1938.7,552.3c-9.6-3.6-29.1-13.9-41.4-41.1l-134.3-297.8c-5.7-12.7-23.5-13.2-29.9-0.9l-99.4,188.7
					c-5.1,9.8-15.3,15.9-26.3,15.9h-119.2h-4c-4,0-8,3.2-8.6,7.1c-0.8,5.1,2.9,9.5,7.8,9.9c33.1,3,53,25.1,52.7,60.8
					c-0.2,32.9-27.7,59.9-60.7,59.9h-8.6c-88.3,0-92.1-101.4-92.1-123.6c0-25.8,0-77.6,0-77.6c0-38.1,15.3-104.9,89.7-104.9
					c69.5,0,108.5,32,140.3,74.4c5.2,7,16.3,1.2,13.6-7.1l-27.9-87.4c-2.7-8.4-12.6-12.1-20.2-7.5c-20.5,12.6-32.5,10.5-32.5,10.5
					c-10.1,0.3-42.2-8.8-81.2-8.8c-62.2,0-112.5,24.7-146.9,57.9c-3.4,3.3-9.1,2.2-10.8-2.3l-15.4-37.5c-3.2-7.8-7.3-12.8-15.7-12.8
					h-177.2v-0.1h-92.2c-5.9,0-11.6-0.2-17.5-0.5c-31.6-1.7-142.6-7.5-199.4-7.5c-71.2,0-127,22.3-132.6,74.8
					c-4.2,39.5,23.2,60.1,38.9,74.5c8.5,7.8,48.5,33.1,69,42.6c21.4,9.9,106.8,52.7,98,86.6c-8.8,33.6-37.7,41.9-71,41.9
					c-52.3,0-108.4-43.3-150-82.1c-7.2-6.8-18.4,1.6-13.9,10.5c17.2,33.6,39.2,74.5,53.6,96.1c4.1,6.1,11.5,9.1,18.7,7.2
					c15.5-3.9,35.6-6,47.8-5.4c15.7,0.7,48.6,5,63,5c119.8,0,157.3-31.5,161.2-86.1c5.4-75.1-84.3-125.1-138.9-147
					c-48.8-19.7-67.7-49.3-65.6-64c3.4-25.5,27.7-29.8,48-29c63,2.4,181.8,33.1,181.8,76.3c0,0,0,192.1,0,200.5
					c0,11.2-12.2,31.4-27.7,31.4h-0.3c-2.8,0-5.6,1-7.6,3c-5.4,5.4-1.6,11.7,3.5,11.7h66.9l0,0h66.3h189.1c6.1,0,11.4-3.6,13.8-9.3
					l10.3-25.1c2-4.8,8.1-6.3,12-2.8c33.7,30.5,83.1,49.6,150.6,49.6c15.7,0,48.4-4.3,63.6-9.9c4.8-1.7,10-2.7,15.1-2.7h126.5h20.4
					c7.5,0,11.1-9.4,5.5-14.4c-2.5-2.2-4.7-4.2-6.3-5.7c-12-10.9-11.5-18.3-11.8-24.6c-0.3-6.2,1-12.3,3.9-17.9l89.6-170.2
					l76.6,169.9c2.6,5.7,3.8,11.9,3.3,18.1c-0.1,0.8-0.1,1.5-0.2,2.1c-1.4,8-8.6,24.2-22.1,24.2h-2.2c-3.3,0-6.6,1.1-9.1,3.3
					c-7.5,6.7-2.9,15.1,3.7,15.1h113.3c5.2,0,9.4-4.7,8.3-10.1C1943.7,555.7,1941.6,553.3,1938.7,552.3z M1280.8,315.8
					c-15.4,24.3-23.8,50-23.8,72.6c0,30.1,5.6,59.6,17.3,86c2.6,5.8,1.4,12.6-3,17.1c-21.7,22-69.1,52.7-136.9,52.7h-16.6
					c-15.1,0-27.4-12.2-27.4-27.4v-92.3v-4.9c0-5.1,7.7-11.5,16.4-9.8c13.3,2.6,36.6,10.9,55.3,21.7c13.1,7.6,24.9,15.5,38.5,26.8
					c6,4.9,15,0.6,15-7.1v-29v-57.3v-29c0-7.7-9.1-12-15-7.1c-13.6,11.2-25.4,19.1-38.5,26.8c-18.6,10.7-42.7,22-55.9,25.1
					c-10.2,2.4-13.8-1.6-15.7-5.5v-5.6V279c0-14.4,11.7-26.1,26.1-26.1h33.5c54.9,0,105.1,31.5,129.1,52.3
					C1282.3,307.7,1283,312.4,1280.8,315.8z"/>
				<path class="st19" d="M3838.7,232.1c-0.8-2.4-3.2-3.9-5.8-3.9h-26.3h-49.5h-26.3c-2.6,0-4.9,1.5-5.8,3.9
					c-1.1,3.3,0.7,6.6,3.7,7.6c9.5,3.1,32.2,13.1,32.2,36.9v143.1c0,5.5-6.4,8.4-10.6,4.9l-150.4-124.8
					c-46.9-39-113.4-64.9-157.3-79.1c-9.7-3.1-16.4,9.7-8.2,15.8c1.4,1.1,2.9,2.2,4.4,3.3c50.1,37.7,55.5,91.7,55.5,97.8V530v9.3
					c0,7.2-5.9,13.1-13.1,13.1c-16.8,0-54.3-27.3-73.5-47.3c-18-18.8-26.6-44.8-46.8-68.5c-16.1-18.8-29.7-25.8-29.7-25.8
					c101.1,0,104.1-82,104.1-91.2c0-13.7,0-91.6-126.6-91.6h-292.1h-49.7c-2.6,0-4.9,1.5-5.8,3.9c-1.1,3.3,0.7,6.7,3.7,7.6
					c9.5,3.1,32.2,13.1,32.2,36.9v180.1c0,62.2-43.5,83-78.4,83c-63.6,0-88-37.5-88-84.6v-27.3l0,0V276.4
					c0-23.9,22.7-33.9,32.2-36.9c2.5-0.8,4.1-3,4.1-5.6v-0.1c0-3.2-2.6-5.9-5.9-5.9H2747h-17.5h-229.9h-117.1
					c-7.1,0-13.7,4.1-16.8,10.5l-18.8,39c-3.2,6.7,4.4,13.3,10.6,9.2c25.2-17.1,67.6-36.7,129.6-39.1c6.8-0.2,12.4,5.2,12.4,12
					v246.9c0,11.7-4.3,20.8-10.2,27.7c-4.5,5.4-11.3,8.4-18.4,8.4h-15.2c-4.9,0-9.9-1.3-14.1-4.1c-9.7-6.3-18.8-15.1-24.4-27.5
					l-134.3-297.8c-5.8-12.7-23.5-13.2-29.9-0.9l-139.7,265.1l-40.3,76.4l2.8,14.6h40.5h7.2h88l0,0c7.5,0,11.1-9.4,5.5-14.4
					c0,0-0.1,0-0.1-0.1c-2.5-2.2-4.6-4.1-6.2-5.6c-11.9-10.7-11.5-18.1-11.8-24.4c-0.3-6.3,1-12.6,3.9-18.1l89.7-170.2l76.6,169.9
					c2.6,5.7,3.8,11.9,3.3,18.1c-0.1,0.8-0.1,1.5-0.2,2.1c-1.4,8-8.6,24.2-22.1,24.2h-0.2c-2.7,0-5.4,0.8-7.5,2.5
					c-8.8,6.8-4.1,15.9,2.7,15.9h112.9h6.6h89.2h26.3h53.9c4.6,0,8.6-3.5,8.8-8.1c0.2-3.7-2.1-7.2-5.5-8.4
					c-11.3-4.3-36.3-17.2-36.3-45.4V259.5c0-7,5.7-12.3,12.7-12c47.9,1.9,84.2,14,109.7,27.4c4.1,2.2,6.7,6.4,6.7,11v159.1h0.4
					c4.1,73.1,38.8,129.2,165.9,129.2c73.7,0,142.7-38.6,142.7-109.7c0-8.7,0-182.3,0-182.3c0-10.8,3.4-18.4,7.7-23.7
					c6.3-7.7,15.9-11.8,25.9-11.8h15c10,0,19.7,4.1,25.9,11.8c4.3,5.4,7.7,13,7.7,23.7v220.7c0,32.8-26,45.2-38.2,49.2
					c-2.9,0.9-5.2,3.3-5.9,6.4c-1,5.4,3,10.1,8.2,10.1h54.3h61.3h56.8c3.5,0,6.8-2.1,8-5.4c1.7-4.7-0.8-9.6-5.1-11
					c-11.9-3.9-38.5-16.3-38.5-49.3V293.7v-24.9c0-18.7,16.1-25.5,27.1-25.5h31.6c29.4,0,58.6,24.8,58.6,66.2
					c0,60.7-39.5,75.4-55.7,75.4c-10.8,0-19.2,0.2-28.2-3.1c0,0-0.1,0-0.1-0.1c-5.7-2.7-11.7,2.6-9.9,8.5c0.1,0.3,0.1,0.5,0.2,0.5
					c9.5,32.1,26.5,81.2,49.8,112.5c36.1,48.7,104.6,87.5,219.6,87.5h49.4c3.1,0,6-1.9,6.9-4.7c1.3-4-0.9-8-4.6-9.2
					c-9.9-3-30.9-11.9-30.9-34.3V380.9c0-5.5,6.4-8.4,10.6-4.9l238.7,198.2c6.9,5.7,17.2,0.8,17.2-8.1V276.7
					c0-23.9,22.7-33.9,32.2-36.9C3837.9,238.8,3839.8,235.5,3838.7,232.1z"/>
			</g>
		</g>
	</g>
</g>
</svg>
