<?xml version="1.0" encoding="utf-8"?>
<!-- Generator: Adobe Illustrator 25.2.1, SVG Export Plug-In . SVG Version: 6.00 Build 0)  -->
<svg version="1.1" id="Layer_1" xmlns="http://www.w3.org/2000/svg" xmlns:xlink="http://www.w3.org/1999/xlink" x="0px" y="0px"
	 viewBox="0 0 3839 644.9" style="enable-background:new 0 0 3839 644.9;" xml:space="preserve">
<style type="text/css">
	.st0{fill-rule:evenodd;clip-rule:evenodd;fill:#FDDB00;}
	.st1{fill-rule:evenodd;clip-rule:evenodd;fill:#73B744;}
	.st2{fill-rule:evenodd;clip-rule:evenodd;fill:#E11F26;}
	.st3{fill-rule:evenodd;clip-rule:evenodd;fill:#25A4DD;}
	.st4{fill-rule:evenodd;clip-rule:evenodd;}
	.st5{fill:#FFFFFF;}
	.st6{fill-rule:evenodd;clip-rule:evenodd;fill:#FFFFFF;}
</style>
<g>
	<g>
		<path id="yellow_16_" class="st6" d="M520.1,465.1c164.4,0,186.2,71,186.2,96.3c0,29.8-46.4,83.5-186.2,83.5
			c-144.6,0-179.8-60.5-179.8-83.5C340.3,537.3,352.5,465.1,520.1,465.1z"/>
		<path id="green_16_" class="st6" d="M173.4,298.2c164.4,0,179.8,78.6,179.8,96.3c0,17.7-33.6,83.5-173.4,83.5
			C35.2,477.9,0,412.2,0,394.5C0,376.7,5.8,298.2,173.4,298.2z"/>
		<path id="red_16_" class="st6" d="M565.1,343.1c0,0,2.7-143.4,134.8-160.5s188,93.2,192.6,115.6
			c42.8,208.2-147.7,218.7-147.7,218.3C732.8,333.6,565.1,343.1,565.1,343.1z"/>
		<path id="blue_16_" class="st6" d="M231.2,169.7c0,0,2.7-143.4,134.8-160.5s188,93.2,192.6,115.6
			c42.8,208.2-147.7,218.7-147.7,218.3C398.9,160.2,231.2,169.7,231.2,169.7z"/>
	</g>
	<g id="data_28_">
		<path class="st5" d="M3839,191.2H970.3v-14.8H3839V191.2z M2094.8,515.2v33.4h135.6v62.3h-135.6v33.4h135.6h25.9v-33.4v-62.3
			v-33.4h-25.9H2094.8z M1762.7,573h114.2c0,12.6-2.2,17-13.3,17h-26.7h-17.8v12.6c0,5.9-1.5,11.9-15.6,11.9h-32.6v29.7h35.6
			c17,0,29.7-11.9,29.7-27.4v-2.2h27.4c19.3,0,33.4-14.1,33.4-34.8v-7.4v-26.7h-134.2V573z M1914.7,541.9l161.6,17.8v-28.9
			l-161.6-17.8V541.9z M1914.7,584.1l161.6,17.8v-28.2l-161.6-17.8V584.1z M1914.7,626.4l161.6,17.8v-28.9l-161.6-17.8V626.4z
			 M1111.2,561.1v-12.6l0,0v-33.4H977v33.4h109.7v12.6c0,30.4-27.4,48.2-73.4,50.4h-41.5v33.4h45.2c28.9,0,51.9-11.9,67.5-27.4
			l18.5,27.4h39.3l-40.8-50.4C1107.5,583.4,1111.2,571.5,1111.2,561.1z M2274.2,548.5h98.6v-33.4h-98.6V548.5z M2412.8,555.9
			c0,43.7-21.5,54.9-57.1,54.9h-81.5v33.4h91.2c48.9,0,69.7-31.9,69.7-69.7v-60h-22.2V555.9z M1302.4,564.1
			c0,28.2-11.9,47.4-53.4,47.4v33.4c71.2,0,77.1-45.2,77.1-75.6v-54.1h-24.5L1302.4,564.1L1302.4,564.1z M1372.1,564.1v-48.9h-25.2
			v54.1c0,29.7,8.2,75.6,79.3,75.6v-33.4C1384,610.8,1372.1,592.3,1372.1,564.1z M1592.3,548.5h130.5v20.8
			c0,34.1-22.2,41.5-69.7,41.5h-51.1v33.4h71.2c34.8,0,73.4-28.2,73.4-71.2v-25.2l0,0v-33.4h-154.9v34.1H1592.3z M1129.7,593.7
			h117.1v-28.9h-117.1V593.7z M1431.4,593.7h117.9v-28.9h-117.9V593.7z M1428.4,535.9c0,13.3-11.1,24.5-24.5,24.5
			c-13.3,0-24.5-11.1-24.5-24.5c0-13.3,11.1-24.5,24.5-24.5C1418.1,511.5,1428.4,522.6,1428.4,535.9z M1415.1,535.9
			c0-5.9-5.2-11.1-11.1-11.1s-11.1,5.2-11.1,11.1S1398,547,1404,547C1409.9,546.3,1415.1,541.9,1415.1,535.9z M1023.7,376.6h83
			c30.4,0,31.1,45.2,0,45.2H982.2v33.4h160.9c64.5,0,65.2-108.2-3-108.2h-83.8c-33.4,0-33.4-41.5,0-41.5h119.3V272H1023
			C951.8,272,954,376.6,1023.7,376.6z M1213.5,272v115.6c0,42.3,30.4,66.7,62.3,66.7h139.4V272h-51.9v149h-60.8
			c-26.7,0-40-20.8-40-37.1V272H1213.5z M1583.4,386.9h-82.3v66.7h-51.9V268.3h51.9h82.3C1676,268.3,1679.7,386.9,1583.4,386.9z
			 M1566.3,301.7h-65.2V358h65.2C1607.8,357.3,1607.1,301.7,1566.3,301.7z M1867.3,417.3h-100.1c-25.9,0-37.1-31.1-34.1-41.5H1868
			v-33.4h-134.9c-3-11.1,7.4-41.5,33.4-41.5h100.8v-33.4h-110.4c-106,0-105.3,186.1,0,186.1h110.4V417.3z M2344.6,301.7h89.7v-33.4
			h-109.7c-44.5,0-80.8,28.9-80.8,74.9l0,0v111.9h51.9v-75.6h138.6v-37.1h-137.9C2296.4,313.6,2312.8,301.7,2344.6,301.7z
			 M3177.1,268.3c-109,0-122.3,186.1,12.6,186.1l0,0h92.7v-37.1h-93.4c-51.9,0-51.9-116.4,0-116.4h93.4v-33.4L3177.1,268.3
			L3177.1,268.3z M2894.6,268.3h-143.1h-51.9v186.1h51.9V300.9h56.3v153.4h48.2V300.9h14.8c25.9,0,48.9,11.9,48.9,42.3v111.2h51.9
			V334.3C2972.5,289.1,2945,268.3,2894.6,268.3z M3005.8,454.4h56.3V268.3h-56.3V454.4z M3535.8,361.7c0,51.1-30.4,97.1-119.3,97.1
			s-119.3-46-119.3-97.1c0-52.6,31.9-93.4,119.3-93.4C3504,268.3,3535.8,309.1,3535.8,361.7z M3480.2,361
			c0-48.9-18.5-63.7-63.7-63.7c-45.2,0-63.7,14.1-63.7,63.7c0,46.7,17.8,63.7,63.7,63.7C3462.4,424.7,3480.2,407.7,3480.2,361z
			 M2665.6,354.3v40v60h-145.3c-83.8,0-86-114.9-0.7-114.9h90.4c0-11.9-11.9-37.8-43.7-37.8h-98.6v-33.4h116.4
			C2628.5,269.1,2665.6,292.8,2665.6,354.3z M2610,372.1h-74.9c-30.4,0-29.7,45.2,0,45.2h74.9v-23V372.1z M1953.2,454.4h-52.6V268.3
			h52.6l0,0h83c94.1,0,103,94.1,27.4,112.7l59.3,74.1h-61.5l-47.4-70.4h-60L1953.2,454.4L1953.2,454.4z M1953.2,349.9h75.6
			c33.4,0,34.1-48.9,0-48.9h-75.6V349.9z M3761.2,268.3h-143.1h-51.9v186.1h51.9V300.9h56.3v153.4h48.2V300.9h14.8
			c25.9,0,48.9,11.9,48.9,42.3v111.2h51.9V334.3C3839,289.1,3812.3,268.3,3761.2,268.3z M1105.2,6.7H985.9v29.7h119.3V6.7z
			 M1119.3,91.9H971.8v29.7h147.5V91.9z M2956.9,6.7h-119.3v29.7h119.3V6.7z M2971,91.9h-147.5v29.7H2971V91.9z M1871,52.6h-111.2
			v25.2H1871V52.6z M1221.6,6.7h-86.7v29.7h86.7V6.7z M1277.2,60V7.4h-20v36.3c0,38.5-19.3,48.9-50.4,48.9h-71.9v29.7h80.8
			C1258.7,121.6,1277.2,93.4,1277.2,60z M1537.4,6.7h-86.7v29.7h86.7V6.7z M1593,60V7.4h-20v36.3c0,38.5-19.3,48.9-50.4,48.9h-71.9
			v29.7h80.8C1574.5,121.6,1593,93.4,1593,60z M1720.5,6.7h-15.6v28.9h15.6V6.7z M1743.5,6.7h-15.6v28.9h15.6V6.7z M1634.5,68.9
			c3,5.9,13.3,11.9,22.2,11.9h86V52.6h-86c-8.2,0-19.3-4.4-22.2-12.6V6.7h-25.2v114.9h25.2V68.9z M2309.8,47.4h-86.7v27.4h86.7V47.4
			z M2309.8,6.7h-86.7v27.4h86.7V6.7z M2365.4,60V7.4h-20v36.3c0,38.5-19.3,47.4-50.4,48.9h-71.9v29.7h80.8
			C2346.9,121.6,2365.4,93.4,2365.4,60z M2397.3,33.4h-17.8v41.5h17.8V33.4z M2423.9,33.4h-17.8v41.5h17.8V33.4z M2387.6,121.6h55.6
			c29.7,0,43-19.3,43-42.3V34.8h-14.1v25.9c0,26.7-13.3,32.6-34.8,34.1h-49.7V121.6L2387.6,121.6z M1942.9,36.3h84.5v19.3V60
			c0,27.4-27.4,31.9-32.6,31.9c-5.2,0-81.5,0-81.5,0v29.7h78.6c43.7,0,57.1-39.3,57.1-50.4V6.7h-123c0,29.7-24.5,37.1-24.5,37.1
			v28.9C1934,72.6,1942.9,36.3,1942.9,36.3z M2541.8,36.3h84.5v19.3V60c0,27.4-27.4,31.9-32.6,31.9s-81.5,0-81.5,0v29.7h78.6
			c43.7,0,57.1-39.3,57.1-50.4V6.7h-123c0,29.7-24.5,37.1-24.5,37.1v28.9C2533.6,72.6,2541.8,36.3,2541.8,36.3z M2199.3,6.7h-126.8
			v25.9h126.8V6.7z M2185.3,80.1c0,5.2-5.2,11.9-16.3,11.9h-94.1v29.7h95.6c29.7,0,37.1-21.5,37.1-37.1v-40h-143.1v27.4H2186
			L2185.3,80.1z M1429.2,6.7h-126.8v25.9h126.8V6.7z M1375.8,80.1c0,5.2-5.2,11.9-16.3,11.9h-65.2v29.7h66.7
			c29.7,0,37.1-21.5,37.1-37.1V71.9h39.3V44.5h-143.1v27.4h81.5V80.1z M2809.4,16.3L2667.1,0v26.7L2809.4,43V16.3L2809.4,16.3z
			 M2809.4,56.3L2667.1,40V66l142.3,16.3V56.3z M2809.4,94.9l-142.3-16.3v26.7l142.3,16.3V94.9z"/>
	</g>
</g>
</svg>
