<?xml version="1.0" encoding="utf-8"?>
<!-- Generator: Adobe Illustrator 25.2.1, SVG Export Plug-In . SVG Version: 6.00 Build 0)  -->
<svg version="1.1" id="Layer_1" xmlns="http://www.w3.org/2000/svg" xmlns:xlink="http://www.w3.org/1999/xlink" x="0px" y="0px"
	 viewBox="0 0 3839 720" style="enable-background:new 0 0 3839 720;" xml:space="preserve">
<style type="text/css">
	.st0{fill:#FFFFFF;}
	.st1{fill-rule:evenodd;clip-rule:evenodd;fill:#FFFFFF;}
	.st2{fill-rule:evenodd;clip-rule:evenodd;}
</style>
<g>
	<g>
		<path id="yellow_1_" class="st1" d="M586.4,517.3c185.3,0,210,80,210,108.6c0,33.6-52.4,94.1-210,94.1
			c-163.1,0-202.7-68.3-202.7-94.1C383.6,598.7,397.5,517.3,586.4,517.3z"/>
		<path id="green_1_" class="st1" d="M195.5,329.1c185.3,0,202.7,88.6,202.7,108.6s-37.8,94.1-195.5,94.1
			C39.7,531.8,0,457.7,0,437.7S6.6,329.1,195.5,329.1z"/>
		<path id="red_1_" class="st1" d="M637.1,379.8c0,0,3-161.7,152-181s211.9,105.1,217.1,130.3c48.3,234.7-166.5,246.5-166.5,246.2
			C826.2,369.1,637.1,379.8,637.1,379.8z"/>
		<path id="blue_1_" class="st1" d="M260.6,184.4c0,0,3-161.7,152-181s211.9,105.1,217.1,130.3C678,368.3,463.3,380.2,463.3,379.8
			C449.7,173.6,260.6,184.4,260.6,184.4z"/>
	</g>
	<g id="SNES_4_">
		<g>
			<g>
				<g>
					<g>
						<path class="st0" d="M1210.6,187.4c9,16.7,55.2,93.7,60.3,106.5c6.4,12.8,11.6,33.4,6.4,55.2l-16.7,93.7
							c-5.1,24.4-27,43.6-53.9,43.6h-80.9c-24.4,0-42.4-19.3-42.4-43.6c0-2.6,0-5.1,0-7.7l21.8-123.2h56.5l-18,104
							c0,1.3,0,1.3,0,1.3c0,7.7,6.4,14.1,14.1,14.1h30.8c10.3,0,19.3-7.7,21.8-16.7l12.8-68c2.6-12.8,0-20.5-11.6-41.1
							c-9-16.7-47.5-89.8-59-111.7c-15.4-28.2-16.7-41.1-12.8-65.5l14.1-83.4c5.1-25.7,27-43.6,52.6-43.6h80.9
							c23.1,0,43.6,19.3,43.6,43.6c0,2.6,0,5.1,0,7.7L1310.7,172h-56.5l18-100.1c0-1.3,0-1.3,0-2.6c0-7.7-6.4-14.1-14.1-14.1h-30.8
							c-10.3,0-18,7.7-20.5,16.7l-10.3,53.9C1192.6,152.7,1197.7,165.6,1210.6,187.4z"/>
					</g>
					<g>
						<path class="st0" d="M1358.2,415.8C1358.2,417.1,1358.2,417.1,1358.2,415.8c0,9,6.4,15.4,14.1,15.4h30.8
							c10.3,0,18-7.7,20.5-16.7L1499.3,0h57.8l-80.9,441.5c-5.1,24.4-27,43.6-53.9,43.6h-80.9c-23.1,0-42.4-19.3-42.4-43.6
							c0-2.6,0-5.1,0-9L1377.4,0h56.5L1358.2,415.8z"/>
					</g>
					<g>
						<polygon class="st0" points="1799.6,0 1930.6,0 1921.6,55.2 1848.4,55.2 1821.5,207.9 1893.3,207.9 1883.1,263.1 
							1811.2,263.1 1780.4,431.2 1852.3,431.2 1843.3,485.1 1711.1,485.1 						"/>
					</g>
					<g>
						<path class="st0" d="M2178.3,485.1L2266.8,0h59c25.7,259.3,25.7,322.1,27,370.9c1.3-51.3,7.7-121.9,52.6-370.9l0,0h59
							l-88.6,485.1h-59c-24.4-259.3-25.7-313.2-25.7-361.9c-2.6,57.8-9,114.2-52.6,361.9L2178.3,485.1z"/>
					</g>
					<g>
						<polygon class="st0" points="2476,485.1 2418.3,485.1 2505.5,0 2564.6,0 						"/>
					</g>
					<g>
						<polygon class="st0" points="2956,55.2 2916.2,55.2 2837.9,485.1 2778.9,485.1 2858.5,55.2 2816.1,55.2 2826.4,0 2967.6,0 
													"/>
					</g>
					<g>
						<polygon class="st0" points="2991.9,0 3122.9,0 3113.9,55.2 3040.7,55.2 3013.8,207.9 3085.6,207.9 3075.4,263.1 
							3003.5,263.1 2972.7,431.2 3044.6,431.2 3035.6,485.1 2903.4,485.1 						"/>
					</g>
					<g>
						<path class="st0" d="M2520.9,485.1L2609.5,0h59c25.7,259.3,25.7,322.1,27,370.9c1.3-51.3,7.7-121.9,52.6-370.9l0,0h59
							l-88.6,485.1h-59c-24.4-259.3-25.7-313.2-25.7-361.9c-2.6,57.8-9,114.2-52.6,361.9C2581.2,485.1,2520.9,485.1,2520.9,485.1z"
							/>
					</g>
					<g>
						<path class="st0" d="M3074.1,485.1L3162.6,0h59c25.7,259.3,25.7,322.1,27,370.9c1.3-51.3,7.7-121.9,52.6-370.9l0,0h59
							l-88.6,485.1h-59C3188.3,225.9,3187,172,3187,123.2c-2.6,57.8-9,114.2-52.6,361.9C3134.4,485.1,3074.1,485.1,3074.1,485.1z"/>
					</g>
					<path class="st0" d="M1504.5,485.1L1593,0h127.1c24.4,0,43.6,19.3,43.6,43.6c0,2.6,0,5.1-1.3,7.7l-30.8,172
						C1727.8,249,1706,267,1679,267h-75.7l-39.8,216.9L1504.5,485.1L1504.5,485.1z M1658.5,213c10.3,0,18-6.4,20.5-16.7l24.4-125.8
						c0,0,0-1.3,0-2.6c0-7.7-6.4-14.1-14.1-14.1h-48.8L1611,213H1658.5z M2034.5,287.5L2034.5,287.5c0-9-6.4-15.4-14.1-15.4h-46.2
						l-38.5,214.3h-59l87.3-485.1h129.6c24.4,0,43.6,19.3,43.6,43.6c0,2.6,0,5.1-1.3,9l-27,152.7c-3.9,20.5-18,34.7-37.2,41.1
						c16.7,6.4,24.4,21.8,21.8,39.8c0,2.6,0,5.1,0,7.7l-34.7,191.2h-59L2034.5,287.5z M2030.7,213c10.3,0,18-7.7,20.5-16.7
						l23.1-125.8c0-1.3,0-1.3,0-2.6c0-7.7-6.4-14.1-14.1-14.1H2014l-28.2,157.9L2030.7,213L2030.7,213z M3401.4,0h132.2
						c24.4,0,43.6,19.3,43.6,43.6c0,2.6,0,5.1-1.3,7.7l-70.6,390.2c-3.9,24.4-25.7,43.6-52.6,43.6h-139.9L3401.4,0z M3432.2,431.2
						c10.3,0,18-7.7,20.5-16.7l62.9-344c0-1.3,0-1.3,0-2.6c0-7.7-6.4-14.1-14.1-14.1h-52.6l-68,376h51.3V431.2z M3668.3,0h82.1
						c23.1,0,42.4,19.3,42.4,43.6c0,2.6,0,5.1,0,7.7l-69.3,390.2c-5.1,24.4-27,43.6-53.9,43.6h-80.9c-24.4,0-42.4-19.3-42.4-43.6
						c0-2.6,0-5.1,0-9l69.3-388.9C3620.8,19.3,3642.6,0,3668.3,0z M3605.4,417.1c0,7.7,6.4,14.1,14.1,14.1h30.8
						c10.3,0,18-7.7,20.5-16.7l61.6-344c0-1.3,0-1.3,0-2.6c0-7.7-6.4-14.1-14.1-14.1h-32.1c-9,0-18,7.7-20.5,16.7l-61.6,344
						C3605.4,415.8,3605.4,417.1,3605.4,417.1z"/>
					<g>
						<path class="st0" d="M1978,637.9l3.9-32.1c0-5.1,1.3-10.3,2.6-15.4c0-2.6,1.3-9,1.3-11.6l0,0c-1.3,2.6-2.6,9-3.9,11.6
							c-2.6,5.1-3.9,10.3-6.4,15.4l-14.1,32.1H1978z"/>
						<path class="st0" d="M1723.9,585.2h-14.1l-7.7,32.1h15.4c6.4,0,12.8-5.1,15.4-16.7C1735.5,587.8,1731.6,585.2,1723.9,585.2z"
							/>
						<path class="st0" d="M1089.9,531.3V720h2708V531.3H1089.9z M1214.4,585.2h-34.7l-7.7,29.5h32.1l-3.9,16.7h-32.1l-9,35.9h34.7
							l-3.9,16.7h-53.9l29.5-114.2h53.9L1214.4,585.2z M1337.6,684.1h-20.5l-3.9-41.1c-1.3-14.1-2.6-27-1.3-46.2l0,0
							c-1.3,9-3.9,20.5-6.4,33.4c-2.6,11.6-5.1,23.1-7.7,32.1l-5.1,21.8h-19.3l29.5-114.2h20.5l3.9,42.4c1.3,12.8,2.6,27,1.3,46.2
							l0,0c2.6-10.3,3.9-21.8,6.4-32.1c2.6-11.6,5.1-21.8,7.7-32.1l6.4-23.1h19.3L1337.6,684.1z M1494.2,585.2h-21.8l-25.7,97.5
							h-19.3l25.7-97.5H1430l3.9-16.7h64.2L1494.2,585.2z M1617.4,585.2h-34.7l-7.7,29.5h32.1l-3.9,16.7h-32.1l-9,35.9h34.7
							l-3.9,16.7h-53.9l29.5-114.2h53.9L1617.4,585.2z M1753.4,596.8c-3.9,12.8-10.3,25.7-23.1,28.2l0,0c11.6,1.3,12.8,10.3,9,20.5
							c-1.3,5.1-9,33.4-5.1,35.9v2.6h-21.8c0-7.7,3.9-21.8,5.1-29.5c1.3-7.7,3.9-16.7-1.3-19.3c-5.1-1.3-10.3-1.3-15.4-1.3h-3.9
							l-12.8,48.8h-19.3l29.5-114.2h35.9C1748.3,568.6,1759.9,575,1753.4,596.8z M1884.4,585.2h-21.8l-25.7,97.5h-19.3l25.7-97.5
							h-23.1l3.9-16.7h64.2L1884.4,585.2z M1994.7,684.1h-20.5l2.6-29.5h-23.1l-12.8,29.5h-20.5l55.2-114.2h25.7L1994.7,684.1z
							 M2093.6,684.1h-19.3l29.5-114.2h19.3L2093.6,684.1z M2246.3,684.1H2227l-3.9-41.1c-1.3-14.1-2.6-27-1.3-46.2l0,0
							c-1.3,9-3.9,20.5-6.4,33.4c-2.6,11.6-5.1,23.1-7.7,32.1l-5.1,21.8h-19.3l29.5-114.2h20.5l3.9,42.4c1.3,12.8,2.6,27,1.3,46.2
							l0,0c2.6-10.3,3.9-21.8,6.4-32.1c2.6-11.6,5.1-21.8,7.7-32.1l6.4-23.1h19.3L2246.3,684.1z M2420.8,684.1h-19.3l9-35.9
							c6.4-23.1,12.8-46.2,19.3-68l0,0l-47.5,104h-11.6l7.7-104h-1.3c-5.1,23.1-10.3,46.2-16.7,68l-9,35.9h-19.3l29.5-114.2h30.8
							l-3.9,53.9c0,9-3.9,23.1-5.1,32.1l0,0c3.9-11.6,7.7-24.4,11.6-32.1l24.4-53.9h30.8L2420.8,684.1z M2581.2,585.2h-34.7
							l-7.7,29.5h32.1l-3.9,16.7H2535l-9,35.9h34.7l-3.9,16.7H2503l29.5-114.2h53.9L2581.2,585.2z M2691.6,684.1h-20.5l-3.9-41.1
							c-1.3-14.1-2.6-27-1.3-46.2l0,0c-1.3,9-3.9,20.5-6.4,33.4c-2.6,11.6-5.1,23.1-7.7,32.1l-5.1,21.8h-19.3l29.5-114.2h20.5
							l3.9,42.4c1.3,12.8,2.6,27,1.3,46.2l0,0c2.6-10.3,3.9-21.8,6.4-32.1c2.6-11.6,5.1-21.8,7.7-32.1l6.4-23.1h19.3L2691.6,684.1z
							 M2852.1,585.2h-21.8l-25.7,97.5h-19.3l25.7-97.5h-23.1l3.9-16.7h64.2L2852.1,585.2z M3062.5,603.2h-19.3
							c2.6-10.3,5.1-20.5-6.4-20.5c-6.4,0-11.6,2.6-12.8,10.3c-2.6,9,1.3,11.6,6.4,16.7c5.1,3.9,14.1,12.8,18,19.3
							c5.1,7.7,5.1,14.1,2.6,24.4c-5.1,21.8-21.8,33.4-41.1,33.4c-23.1,0-28.2-14.1-21.8-34.7l2.6-9h19.3l-1.3,6.4
							c-3.9,11.6-2.6,19.3,7.7,19.3c7.7,0,12.8-5.1,15.4-12.8c1.3-6.4,0-11.6-3.9-15.4c-7.7-9-19.3-15.4-23.1-27
							c-1.3-5.1-2.6-11.6,0-18c5.1-19.3,18-30.8,38.5-30.8C3072.8,566,3065.1,592.9,3062.5,603.2z M3169.1,635.3l-12.8,48.8H3137
							l12.8-48.8l-10.3-65.5h20.5l2.6,29.5c0,5.1,1.3,11.6,0,18l0,0c3.9-9,7.7-15.4,11.6-21.8l15.4-25.7h20.5L3169.1,635.3z
							 M3330.8,603.2h-18c2.6-10.3,5.1-20.5-6.4-20.5c-6.4,0-11.6,2.6-12.8,10.3c-2.6,9,1.3,11.6,6.4,16.7
							c5.1,3.9,14.1,12.8,18,19.3c5.1,7.7,5.1,14.1,2.6,24.4c-5.1,21.8-21.8,33.4-41.1,33.4c-23.1,0-28.2-14.1-21.8-34.7l2.6-9h19.3
							l-1.3,6.4c-3.9,11.6-2.6,19.3,7.7,19.3c7.7,0,12.8-5.1,15.4-12.8c1.3-6.4,0-11.6-3.9-15.4c-7.7-9-19.3-15.4-23.1-27
							c-1.3-5.1-2.6-11.6,0-18c5.1-19.3,18-30.8,38.5-30.8C3342.3,566,3334.6,592.9,3330.8,603.2z M3461.7,585.2h-23.1l-25.7,97.5
							h-19.3l25.7-97.5h-23.1l3.9-16.7h64.2L3461.7,585.2z M3590,585.2h-34.7l-7.7,29.5h32.1l-3.9,16.7h-32.1l-9,35.9h34.7
							l-3.9,16.7h-55.2l29.5-114.2h53.9L3590,585.2z M3735,684.1h-19.3l9-35.9c6.4-23.1,12.8-46.2,19.3-68l0,0l-47.5,104H3685
							l7.7-104h-1.3c-5.1,23.1-10.3,46.2-16.7,68l-9,35.9h-19.3l29.5-114.2h30.8l-3.9,53.9c0,9-3.9,23.1-5.1,32.1l0,0
							c3.9-11.6,7.7-24.4,11.6-32.1l24.4-53.9h30.8L3735,684.1z"/>
					</g>
				</g>
				<g>
					<path class="st0" d="M3771,485.1h-5.1v-41.1h-15.4v-3.9h34.7v3.9h-15.4L3771,485.1L3771,485.1z"/>
					<path class="st0" d="M3815.9,477.4l15.4-37.2h7.7v46.2h-5.1v-39.8l0,0l-16.7,39.8h-2.6l-16.7-39.8l0,0v39.8h-5.1v-46.2h7.7
						L3815.9,477.4z"/>
				</g>
			</g>
		</g>
	</g>
</g>
</svg>
