<?xml version="1.0" encoding="utf-8"?>
<!-- Generator: Adobe Illustrator 26.3.1, SVG Export Plug-In . SVG Version: 6.00 Build 0)  -->
<svg version="1.1" xmlns="http://www.w3.org/2000/svg" xmlns:xlink="http://www.w3.org/1999/xlink" x="0px" y="0px"
	 viewBox="0 0 3839 830.1" style="enable-background:new 0 0 3839 830.1;" xml:space="preserve">
<style type="text/css">
	.st0{display:none;}
	.st1{display:inline;fill:#9F00A8;}
	.st2{display:inline;}
	.st3{fill:#FFFFFF;}
	.st4{fill:#2C376B;}
	.st5{fill:#5FA5F0;}
	.st6{fill:#1B1C2B;}
	.st7{display:inline;fill:#FFFFFF;}
	.st8{display:inline;fill:#2C376B;}
	.st9{display:inline;opacity:0.39;}
	.st10{fill:#606060;stroke:#FFFFFF;stroke-width:0.9229;stroke-miterlimit:10;}
	.st11{fill:#2C376B;stroke:#5364A5;stroke-miterlimit:10;}
	.st12{fill:#474747;}
	.st13{fill:#BFBFBF;}
</style>
<g id="tic80">
	<g>
		<g>
			<g>
				<rect x="51.9" class="st3" width="51.9" height="51.9"/>
				<rect x="103.8" class="st3" width="51.9" height="51.9"/>
				<rect x="155.6" class="st3" width="51.9" height="51.9"/>
				<rect x="207.5" class="st3" width="51.9" height="51.9"/>
				<rect x="259.4" class="st3" width="51.9" height="51.9"/>
				<rect x="311.3" class="st3" width="51.9" height="51.9"/>
				<rect x="363.1" class="st3" width="51.9" height="51.9"/>
				<rect x="415" class="st3" width="51.9" height="51.9"/>
				<rect x="466.9" class="st3" width="51.9" height="51.9"/>
				<rect x="518.8" class="st3" width="51.9" height="51.9"/>
				<rect x="570.7" class="st3" width="51.9" height="51.9"/>
				<rect x="622.5" class="st3" width="51.9" height="51.9"/>
			</g>
			<g>
				<rect y="51.9" class="st3" width="51.9" height="51.9"/>
				<rect x="51.9" y="51.9" class="st3" width="51.9" height="51.9"/>
				<rect x="622.5" y="51.9" class="st3" width="51.9" height="51.9"/>
				<rect x="674.4" y="51.9" class="st3" width="51.9" height="51.9"/>
			</g>
			<g>
				<rect y="103.8" class="st3" width="51.9" height="51.9"/>
				<rect x="674.4" y="103.8" class="st3" width="51.9" height="51.9"/>
			</g>
			<g>
				<rect y="155.6" class="st3" width="51.9" height="51.9"/>
				<rect x="674.4" y="155.6" class="st3" width="51.9" height="51.9"/>
			</g>
			<g>
				<rect y="207.5" class="st3" width="51.9" height="51.9"/>
				<rect x="103.8" y="207.5" class="st3" width="51.9" height="51.9"/>
				<rect x="155.6" y="207.5" class="st3" width="51.9" height="51.9"/>
				<rect x="207.5" y="207.5" class="st3" width="51.9" height="51.9"/>
				<rect x="259.4" y="207.5" class="st3" width="51.9" height="51.9"/>
				<rect x="311.3" y="207.5" class="st3" width="51.9" height="51.9"/>
				<rect x="363.1" y="207.5" class="st3" width="51.9" height="51.9"/>
				<rect x="415" y="207.5" class="st3" width="51.9" height="51.9"/>
				<rect x="466.9" y="207.5" class="st3" width="51.9" height="51.9"/>
				<rect x="518.8" y="207.5" class="st3" width="51.9" height="51.9"/>
				<rect x="674.4" y="207.5" class="st3" width="51.9" height="51.9"/>
				<rect x="726.3" y="207.5" class="st3" width="51.9" height="51.9"/>
				<rect x="778.2" y="207.5" class="st3" width="51.9" height="51.9"/>
			</g>
			<g>
				<rect y="259.4" class="st3" width="51.9" height="51.9"/>
				<rect x="103.8" y="259.4" class="st3" width="51.9" height="51.9"/>
				<rect x="155.6" y="259.4" class="st3" width="51.9" height="51.9"/>
				<rect x="259.4" y="259.4" class="st3" width="51.9" height="51.9"/>
				<rect x="311.3" y="259.4" class="st3" width="51.9" height="51.9"/>
				<rect x="363.1" y="259.4" class="st3" width="51.9" height="51.9"/>
				<rect x="466.9" y="259.4" class="st3" width="51.9" height="51.9"/>
				<rect x="518.8" y="259.4" class="st3" width="51.9" height="51.9"/>
				<rect x="674.4" y="259.4" class="st3" width="51.9" height="51.9"/>
				<rect x="778.2" y="259.4" class="st3" width="51.9" height="51.9"/>
			</g>
			<g>
				<rect y="311.3" class="st3" width="51.9" height="51.9"/>
				<rect x="103.8" y="311.3" class="st3" width="51.9" height="51.9"/>
				<rect x="155.6" y="311.3" class="st3" width="51.9" height="51.9"/>
				<rect x="259.4" y="311.3" class="st3" width="51.9" height="51.9"/>
				<rect x="311.3" y="311.3" class="st3" width="51.9" height="51.9"/>
				<rect x="363.1" y="311.3" class="st3" width="51.9" height="51.9"/>
				<rect x="466.9" y="311.3" class="st3" width="51.9" height="51.9"/>
				<rect x="518.8" y="311.3" class="st3" width="51.9" height="51.9"/>
				<rect x="674.4" y="311.3" class="st3" width="51.9" height="51.9"/>
				<rect x="778.2" y="311.3" class="st3" width="51.9" height="51.9"/>
			</g>
			<g>
				<rect y="363.1" class="st3" width="51.9" height="51.9"/>
				<rect x="103.8" y="363.1" class="st3" width="51.9" height="51.9"/>
				<rect x="155.6" y="363.1" class="st3" width="51.9" height="51.9"/>
				<rect x="259.4" y="363.1" class="st3" width="51.9" height="51.9"/>
				<rect x="311.3" y="363.1" class="st3" width="51.9" height="51.9"/>
				<rect x="363.1" y="363.1" class="st3" width="51.9" height="51.9"/>
				<rect x="466.9" y="363.1" class="st3" width="51.9" height="51.9"/>
				<rect x="518.8" y="363.1" class="st3" width="51.9" height="51.9"/>
				<rect x="674.4" y="363.1" class="st3" width="51.9" height="51.9"/>
				<rect x="778.2" y="363.1" class="st3" width="51.9" height="51.9"/>
			</g>
			<g>
				<rect y="415" class="st3" width="51.9" height="51.9"/>
				<rect x="103.8" y="415" class="st3" width="51.9" height="51.9"/>
				<rect x="155.6" y="415" class="st3" width="51.9" height="51.9"/>
				<rect x="207.5" y="415" class="st3" width="51.9" height="51.9"/>
				<rect x="259.4" y="415" class="st3" width="51.9" height="51.9"/>
				<rect x="311.3" y="415" class="st3" width="51.9" height="51.9"/>
				<rect x="363.1" y="415" class="st3" width="51.9" height="51.9"/>
				<rect x="415" y="415" class="st3" width="51.9" height="51.9"/>
				<rect x="466.9" y="415" class="st3" width="51.9" height="51.9"/>
				<rect x="518.8" y="415" class="st3" width="51.9" height="51.9"/>
				<rect x="726.3" y="415" class="st3" width="51.9" height="51.9"/>
				<rect x="778.2" y="415" class="st3" width="51.9" height="51.9"/>
			</g>
			<g>
				<rect y="466.9" class="st3" width="51.9" height="51.9"/>
				<rect x="674.4" y="466.9" class="st3" width="51.9" height="51.9"/>
				<rect x="726.3" y="466.9" class="st3" width="51.9" height="51.9"/>
			</g>
			<g>
				<rect y="518.8" class="st3" width="51.9" height="51.9"/>
				<rect x="207.5" y="518.8" class="st3" width="51.9" height="51.9"/>
				<rect x="415" y="518.8" class="st3" width="51.9" height="51.9"/>
				<rect x="674.4" y="518.8" class="st3" width="51.9" height="51.9"/>
			</g>
			<g>
				<rect y="570.7" class="st3" width="51.9" height="51.9"/>
				<rect x="259.4" y="570.7" class="st3" width="51.9" height="51.9"/>
				<rect x="311.3" y="570.7" class="st3" width="51.9" height="51.9"/>
				<rect x="363.1" y="570.7" class="st3" width="51.9" height="51.9"/>
				<rect x="674.4" y="570.7" class="st3" width="51.9" height="51.9"/>
			</g>
			<g>
				<rect y="622.5" class="st3" width="51.9" height="51.9"/>
				<rect x="674.4" y="622.5" class="st3" width="51.9" height="51.9"/>
			</g>
			<g>
				<rect y="674.4" class="st3" width="51.9" height="51.9"/>
				<rect x="622.5" y="674.4" class="st3" width="51.9" height="51.9"/>
				<rect x="674.4" y="674.4" class="st3" width="51.9" height="51.9"/>
			</g>
			<g>
				<rect y="726.3" class="st3" width="51.9" height="51.9"/>
				<rect x="51.9" y="726.3" class="st3" width="51.9" height="51.9"/>
				<rect x="259.4" y="726.3" class="st3" width="51.9" height="51.9"/>
				<rect x="311.3" y="726.3" class="st3" width="51.9" height="51.9"/>
				<rect x="363.1" y="726.3" class="st3" width="51.9" height="51.9"/>
				<rect x="570.7" y="726.3" class="st3" width="51.9" height="51.9"/>
				<rect x="622.5" y="726.3" class="st3" width="51.9" height="51.9"/>
			</g>
			<g>
				<rect x="51.9" y="778.2" class="st3" width="51.9" height="51.9"/>
				<rect x="103.8" y="778.2" class="st3" width="51.9" height="51.9"/>
				<rect x="155.6" y="778.2" class="st3" width="51.9" height="51.9"/>
				<rect x="207.5" y="778.2" class="st3" width="51.9" height="51.9"/>
				<rect x="259.4" y="778.2" class="st3" width="51.9" height="51.9"/>
				<rect x="363.1" y="778.2" class="st3" width="51.9" height="51.9"/>
				<rect x="415" y="778.2" class="st3" width="51.9" height="51.9"/>
				<rect x="466.9" y="778.2" class="st3" width="51.9" height="51.9"/>
				<rect x="518.8" y="778.2" class="st3" width="51.9" height="51.9"/>
				<rect x="570.7" y="778.2" class="st3" width="51.9" height="51.9"/>
			</g>
		</g>
		<g>
			<g>
				<rect x="1245.1" y="103.8" class="st3" width="51.9" height="51.9"/>
				<rect x="1193.2" y="103.8" class="st3" width="51.9" height="51.9"/>
				<rect x="1089.4" y="103.8" class="st3" width="51.9" height="51.9"/>
				<rect x="1037.6" y="103.8" class="st3" width="51.9" height="51.9"/>
				<rect x="985.7" y="103.8" class="st3" width="51.9" height="51.9"/>
				<rect x="1297" y="103.8" class="st3" width="51.9" height="51.9"/>
				<rect x="1452.6" y="103.8" class="st3" width="51.9" height="51.9"/>
				<rect x="1504.5" y="103.8" class="st3" width="51.9" height="51.9"/>
				<rect x="1867.6" y="103.8" class="st3" width="51.9" height="51.9"/>
				<rect x="1919.5" y="103.8" class="st3" width="51.9" height="51.9"/>
				<rect x="2127" y="103.8" class="st3" width="51.9" height="51.9"/>
				<rect x="2178.9" y="103.8" class="st3" width="51.9" height="51.9"/>
				<rect x="1245.1" y="155.6" class="st3" width="51.9" height="51.9"/>
				<rect x="1037.6" y="155.6" class="st3" width="51.9" height="51.9"/>
				<rect x="1400.7" y="155.6" class="st3" width="51.9" height="51.9"/>
				<rect x="1815.7" y="155.6" class="st3" width="51.9" height="51.9"/>
				<rect x="1971.4" y="155.6" class="st3" width="51.9" height="51.9"/>
				<rect x="2075.1" y="155.6" class="st3" width="51.9" height="51.9"/>
				<rect x="2230.8" y="155.6" class="st3" width="51.9" height="51.9"/>
				<rect x="1245.1" y="207.5" class="st3" width="51.9" height="51.9"/>
				<rect x="1037.6" y="207.5" class="st3" width="51.9" height="51.9"/>
				<rect x="1400.7" y="207.5" class="st3" width="51.9" height="51.9"/>
				<rect x="1608.2" y="207.5" class="st3" width="51.9" height="51.9"/>
				<rect x="1660.1" y="207.5" class="st3" width="51.9" height="51.9"/>
				<rect x="1712" y="207.5" class="st3" width="51.9" height="51.9"/>
				<rect x="1867.6" y="207.5" class="st3" width="51.9" height="51.9"/>
				<rect x="1919.5" y="207.5" class="st3" width="51.9" height="51.9"/>
				<rect x="2075.1" y="207.5" class="st3" width="51.9" height="51.9"/>
				<rect x="2230.8" y="207.5" class="st3" width="51.9" height="51.9"/>
				<rect x="1245.1" y="259.4" class="st3" width="51.9" height="51.9"/>
				<rect x="1037.6" y="259.4" class="st3" width="51.9" height="51.9"/>
				<rect x="1400.7" y="259.4" class="st3" width="51.9" height="51.9"/>
				<rect x="1815.7" y="259.4" class="st3" width="51.9" height="51.9"/>
				<rect x="1971.4" y="259.4" class="st3" width="51.9" height="51.9"/>
				<rect x="2075.1" y="259.4" class="st3" width="51.9" height="51.9"/>
				<rect x="2230.8" y="259.4" class="st3" width="51.9" height="51.9"/>
				<rect x="1245.1" y="311.3" class="st3" width="51.9" height="51.9"/>
				<rect x="1193.2" y="311.3" class="st3" width="51.9" height="51.9"/>
				<rect x="1037.6" y="311.3" class="st3" width="51.9" height="51.9"/>
				<rect x="1297" y="311.3" class="st3" width="51.9" height="51.9"/>
				<rect x="1452.6" y="311.3" class="st3" width="51.9" height="51.9"/>
				<rect x="1504.5" y="311.3" class="st3" width="51.9" height="51.9"/>
				<rect x="1867.6" y="311.3" class="st3" width="51.9" height="51.9"/>
				<rect x="1919.5" y="311.3" class="st3" width="51.9" height="51.9"/>
				<rect x="2127" y="311.3" class="st3" width="51.9" height="51.9"/>
				<rect x="2178.9" y="311.3" class="st3" width="51.9" height="51.9"/>
			</g>
			<g>
				<g>
					<rect x="985.7" y="466.9" class="st3" width="51.9" height="51.9"/>
					<rect x="1141.3" y="466.9" class="st3" width="51.9" height="51.9"/>
					<rect x="985.7" y="518.8" class="st3" width="51.9" height="51.9"/>
					<rect x="1037.6" y="518.8" class="st3" width="51.9" height="51.9"/>
					<rect x="1245.1" y="518.8" class="st3" width="51.9" height="51.9"/>
					<rect x="1297" y="518.8" class="st3" width="51.9" height="51.9"/>
					<rect x="1348.8" y="518.8" class="st3" width="51.9" height="51.9"/>
					<rect x="1504.5" y="518.8" class="st3" width="51.9" height="51.9"/>
					<rect x="1660.1" y="518.8" class="st3" width="51.9" height="51.9"/>
					<rect x="985.7" y="570.7" class="st3" width="51.9" height="51.9"/>
					<rect x="1141.3" y="570.7" class="st3" width="51.9" height="51.9"/>
					<rect x="1245.1" y="570.7" class="st3" width="51.9" height="51.9"/>
					<rect x="1400.7" y="570.7" class="st3" width="51.9" height="51.9"/>
					<rect x="1504.5" y="570.7" class="st3" width="51.9" height="51.9"/>
					<rect x="1660.1" y="570.7" class="st3" width="51.9" height="51.9"/>
					<rect x="985.7" y="622.5" class="st3" width="51.9" height="51.9"/>
					<rect x="1141.3" y="622.5" class="st3" width="51.9" height="51.9"/>
					<rect x="1245.1" y="622.5" class="st3" width="51.9" height="51.9"/>
					<rect x="1400.7" y="622.5" class="st3" width="51.9" height="51.9"/>
					<rect x="1504.5" y="622.5" class="st3" width="51.9" height="51.9"/>
					<rect x="1660.1" y="622.5" class="st3" width="51.9" height="51.9"/>
					<rect x="1037.6" y="674.4" class="st3" width="51.9" height="51.9"/>
					<rect x="1141.3" y="674.4" class="st3" width="51.9" height="51.9"/>
					<rect x="1245.1" y="674.4" class="st3" width="51.9" height="51.9"/>
					<rect x="1400.7" y="674.4" class="st3" width="51.9" height="51.9"/>
					<rect x="1556.4" y="674.4" class="st3" width="51.9" height="51.9"/>
					<rect x="1608.2" y="674.4" class="st3" width="51.9" height="51.9"/>
					<rect x="1660.1" y="674.4" class="st3" width="51.9" height="51.9"/>
					<rect x="1660.1" y="726.3" class="st3" width="51.9" height="51.9"/>
					<rect x="1556.4" y="778.2" class="st3" width="51.9" height="51.9"/>
					<rect x="1608.2" y="778.2" class="st3" width="51.9" height="51.9"/>
				</g>
				<g>
					<rect x="3268.3" y="466.9" class="st3" width="51.9" height="51.9"/>
					<rect x="2023.3" y="518.8" class="st3" width="51.9" height="51.9"/>
					<rect x="2075.1" y="518.8" class="st3" width="51.9" height="51.9"/>
					<rect x="2230.8" y="518.8" class="st3" width="51.9" height="51.9"/>
					<rect x="2282.6" y="518.8" class="st3" width="51.9" height="51.9"/>
					<rect x="2438.3" y="518.8" class="st3" width="51.9" height="51.9"/>
					<rect x="2490.2" y="518.8" class="st3" width="51.9" height="51.9"/>
					<rect x="2542" y="518.8" class="st3" width="51.9" height="51.9"/>
					<rect x="2593.9" y="518.8" class="st3" width="51.9" height="51.9"/>
					<rect x="2749.6" y="518.8" class="st3" width="51.9" height="51.9"/>
					<rect x="2801.4" y="518.8" class="st3" width="51.9" height="51.9"/>
					<rect x="2853.3" y="518.8" class="st3" width="51.9" height="51.9"/>
					<rect x="3008.9" y="518.8" class="st3" width="51.9" height="51.9"/>
					<rect x="3164.6" y="518.8" class="st3" width="51.9" height="51.9"/>
					<rect x="3268.3" y="518.8" class="st3" width="51.9" height="51.9"/>
					<rect x="3320.2" y="518.8" class="st3" width="51.9" height="51.9"/>
					<rect x="3475.9" y="518.8" class="st3" width="51.9" height="51.9"/>
					<rect x="3527.7" y="518.8" class="st3" width="51.9" height="51.9"/>
					<rect x="3683.4" y="518.8" class="st3" width="51.9" height="51.9"/>
					<rect x="3787.1" y="518.8" class="st3" width="51.9" height="51.9"/>
					<rect x="1971.4" y="570.7" class="st3" width="51.9" height="51.9"/>
					<rect x="2178.9" y="570.7" class="st3" width="51.9" height="51.9"/>
					<rect x="2334.5" y="570.7" class="st3" width="51.9" height="51.9"/>
					<rect x="2438.3" y="570.7" class="st3" width="51.9" height="51.9"/>
					<rect x="2542" y="570.7" class="st3" width="51.9" height="51.9"/>
					<rect x="2645.8" y="570.7" class="st3" width="51.9" height="51.9"/>
					<rect x="2749.6" y="570.7" class="st3" width="51.9" height="51.9"/>
					<rect x="2905.2" y="570.7" class="st3" width="51.9" height="51.9"/>
					<rect x="3008.9" y="570.7" class="st3" width="51.9" height="51.9"/>
					<rect x="3164.6" y="570.7" class="st3" width="51.9" height="51.9"/>
					<rect x="3268.3" y="570.7" class="st3" width="51.9" height="51.9"/>
					<rect x="3424" y="570.7" class="st3" width="51.9" height="51.9"/>
					<rect x="3527.7" y="570.7" class="st3" width="51.9" height="51.9"/>
					<rect x="3579.6" y="570.7" class="st3" width="51.9" height="51.9"/>
					<rect x="3683.4" y="570.7" class="st3" width="51.9" height="51.9"/>
					<rect x="3735.2" y="570.7" class="st3" width="51.9" height="51.9"/>
					<rect x="1971.4" y="622.5" class="st3" width="51.9" height="51.9"/>
					<rect x="2178.9" y="622.5" class="st3" width="51.9" height="51.9"/>
					<rect x="2334.5" y="622.5" class="st3" width="51.9" height="51.9"/>
					<rect x="2438.3" y="622.5" class="st3" width="51.9" height="51.9"/>
					<rect x="2542" y="622.5" class="st3" width="51.9" height="51.9"/>
					<rect x="2645.8" y="622.5" class="st3" width="51.9" height="51.9"/>
					<rect x="2749.6" y="622.5" class="st3" width="51.9" height="51.9"/>
					<rect x="2905.2" y="622.5" class="st3" width="51.9" height="51.9"/>
					<rect x="3008.9" y="622.5" class="st3" width="51.9" height="51.9"/>
					<rect x="3164.6" y="622.5" class="st3" width="51.9" height="51.9"/>
					<rect x="3268.3" y="622.5" class="st3" width="51.9" height="51.9"/>
					<rect x="3424" y="622.5" class="st3" width="51.9" height="51.9"/>
					<rect x="3475.9" y="622.5" class="st3" width="51.9" height="51.9"/>
					<rect x="3683.4" y="622.5" class="st3" width="51.9" height="51.9"/>
					<rect x="2023.3" y="674.4" class="st3" width="51.9" height="51.9"/>
					<rect x="2075.1" y="674.4" class="st3" width="51.9" height="51.9"/>
					<rect x="2230.8" y="674.4" class="st3" width="51.9" height="51.9"/>
					<rect x="2282.6" y="674.4" class="st3" width="51.9" height="51.9"/>
					<rect x="2438.3" y="674.4" class="st3" width="51.9" height="51.9"/>
					<rect x="2542" y="674.4" class="st3" width="51.9" height="51.9"/>
					<rect x="2645.8" y="674.4" class="st3" width="51.9" height="51.9"/>
					<rect x="2749.6" y="674.4" class="st3" width="51.9" height="51.9"/>
					<rect x="2801.4" y="674.4" class="st3" width="51.9" height="51.9"/>
					<rect x="2853.3" y="674.4" class="st3" width="51.9" height="51.9"/>
					<rect x="3060.8" y="674.4" class="st3" width="51.9" height="51.9"/>
					<rect x="3112.7" y="674.4" class="st3" width="51.9" height="51.9"/>
					<rect x="3164.6" y="674.4" class="st3" width="51.9" height="51.9"/>
					<rect x="3320.2" y="674.4" class="st3" width="51.9" height="51.9"/>
					<rect x="3475.9" y="674.4" class="st3" width="51.9" height="51.9"/>
					<rect x="3527.7" y="674.4" class="st3" width="51.9" height="51.9"/>
					<rect x="3683.4" y="674.4" class="st3" width="51.9" height="51.9"/>
					<rect x="2749.6" y="726.3" class="st3" width="51.9" height="51.9"/>
					<rect x="2749.6" y="778.2" class="st3" width="51.9" height="51.9"/>
				</g>
			</g>
		</g>
	</g>
</g>
<g id="Layer_2">
</g>
</svg>
