<?xml version="1.0" encoding="utf-8"?>
<!-- Generator: Adobe Illustrator 25.0.0, SVG Export Plug-In . SVG Version: 6.00 Build 0)  -->
<svg version="1.1" id="Layer_1" xmlns="http://www.w3.org/2000/svg" xmlns:xlink="http://www.w3.org/1999/xlink" x="0px" y="0px"
	 viewBox="0 0 3840 490.5" style="enable-background:new 0 0 3840 490.5;" xml:space="preserve">
<style type="text/css">
	.st0{fill:#FFFFFF;}
</style>
<g>
	<g>
		<path class="st0" d="M2626.2,49.1v135.4h-58V49.1h-80.9V2.7h219.9v46.3H2626.2z"/>
		<path class="st0" d="M2955.4,99.5c-6,10.4-16.6,12.8-27.8,14.7c27.5,1.9,31.9,15.3,31.9,40.6v29.7H2905c0-10.9,0.5-22.3-1.6-33
			c-2.5-12-10.9-13.1-21.8-13.1h-91v46h-55.3V2.7H2869c9.8,0,19.9,0.3,29.7,0.3c20.7,0.3,43.9-1.9,56.1,18.5
			c7.1,11.7,6.5,28.1,6.5,41.1C2961.4,74.7,2961.6,88.8,2955.4,99.5z M2883.2,48.2h-92.6v44.7h77.9c4.1,0,8.2-0.3,12.3-0.3
			c19.9-0.5,25.3-1.1,25.3-22.9C2906.1,51.2,2901.4,48.2,2883.2,48.2z"/>
		<path class="st0" d="M3198.5,172.8c-13.1,14.2-41.7,13.6-59.4,13.9c-14.2,0.5-28.3,0.5-42.5,0.5c-23.7,0-52.3,0.8-75.5-4.4
			c-8.7-1.9-16.3-5.4-22.6-11.7c-9.3-9-10.4-20.7-10.4-33c0-4.6,0.3-9.3,0.5-13.9h53.4c0,4.1,0,7.9,1.4,11.7
			c0.8,2.5,1.9,4.1,4.1,5.7c5.2,4.1,20.7,3.5,26.7,3.5c7.9,0,15.5,0.3,23.4,0.3c9.8,0,19.3-0.3,29.2-0.3c6.8,0,24,0.8,28.6-5.7
			c1.9-3,1.9-7.1,1.9-10.4c0-13.9-10.9-13.4-22.1-13.6c-29.2-0.8-58.3-2.5-87.5-3.5c-15.8-0.5-36-1.1-47.4-13.9
			c-9.5-10.6-10.4-25.9-10.4-39.5c0-32.4,8.4-52.9,43.3-56.4c23.4-2.5,47.7-2.2,71.4-2.2c22.9,0,47.1-0.5,69.5,4.9
			c24.8,6.3,30,22.6,30,46.3V60h-53.7v-2.7c0-5.2-0.5-9-5.2-12c-5.2-3.5-17.4-3.3-23.4-3.3h-47.1c-5.7,0-21.8-0.3-26.7,3.3
			c-3.5,2.5-4.4,6.8-4.4,10.9c0,3.3,0.8,7.6,3.5,9.8c1.9,1.6,4.6,2.2,7.1,2.5c6.3,1.1,12.8,1.1,19.1,1.4c12.3,0.5,24.5,1.1,36.8,1.4
			c21,0.5,51,0.3,71.4,5.7c6.5,1.9,12.3,4.6,17.4,9.3c11.2,9.8,11.7,28.6,11.7,42.2C3210.7,143.6,3209.4,161.1,3198.5,172.8z"/>
		<path class="st0" d="M3564.5,175.5c-18,13.1-61.3,11.2-82.8,11.2h-24.8c-22.3,0-59.1,1.6-78.2-11.2c-12.8-8.7-13.9-26.2-13.9-40.3
			c0-12,1.1-24.8,9.8-33.8c6.5-6.8,16.6-8.2,25.6-9.8c-4.1-0.3-8.4-0.5-12.5-1.6c-18.3-4.9-20.7-22.9-20.7-39.2
			c0-26.4,7.9-42,35.4-46.3c22.6-3.5,46.3-3.8,69.2-3.8c12.5,0,25.1,0.3,37.6,0.8c16.1,0.8,39,1.4,52.6,10.6
			c12.5,8.4,14.4,25.6,14.4,39.5c0,10.6-1.4,22.9-8.4,31.1c-6.5,7.6-15.3,8.4-24.8,9c9.8,1.6,18.3,2.7,25.6,9.8
			c9.5,9,9.8,24.8,9.8,37.1C3578.4,152.1,3576.5,167,3564.5,175.5z M3522.3,116.4c-4.1-4.1-19.1-3.8-24.3-3.8
			c-9.8-0.3-19.6-0.5-29.4-0.5c-9,0-40.9-0.8-46.9,3.5c-4.1,3-4.1,9.8-4.1,14.4c0,4.1,0.3,8.7,3.5,11.7c6.3,5.5,39.8,4.1,47.7,4.1
			c9.5,0,19.1-0.3,28.6-0.5c6.8,0,23.2,0.8,26.7-7.1c1.4-3,1.4-7.1,1.4-10.4C3525.5,124,3525.3,119.1,3522.3,116.4z M3498,42
			c-10.9-0.3-21.5-0.5-32.4-0.5c-11.2,0-22.9-0.3-34.1,1.4c-9.3,1.4-11.7,6.3-11.7,15.3c0,9.5,3.3,12.8,12.5,13.9
			c19.3,1.9,40.1,1.1,59.4,1.1c6.3,0,24.5,0,28.9-4.4c2.7-2.7,2.7-7.9,2.7-11.4C3523.3,41.4,3510.5,42.2,3498,42z"/>
		<path class="st0" d="M3799.4,183.4c-21.8,3.5-51.2,3.3-73.3,3.3c-13.6,0-27-0.3-40.6-0.5c-30-0.5-64.8-1.6-71.4-37.9
			c-3-16.9-2.2-37.3-2.2-54.5c0-10.9,0-21.5,0.3-32.4c0.3-15.3,1.4-32.7,12.5-44.4c7.4-7.6,17.7-11.4,28.1-13.1
			c21.8-3.5,51-3.3,73.3-3.3c13.4,0,27,0.5,40.3,0.8c46.6,1.1,73.6,6,73.6,59.9v64.8C3840,156.4,3832.4,177.9,3799.4,183.4z
			 M3773,51.2c-6.3-2.7-15.5-3-22.3-3c-10.9,0-21.8-0.3-33-0.3c-11.2,0-23.4-0.3-34.3,2.2c-3.3,0.8-6.5,1.9-9,4.6
			c-7.4,7.6-6.8,29.2-6.8,39c0,9-0.5,30.2,5.7,37.6c2.7,3.3,6,4.6,10.1,5.7c11.7,2.7,31.1,2.7,43.3,2.5l24-0.5
			c6.8-0.3,16.1-0.3,22.3-3.3c13.6-6,11.7-30,11.7-42C3784.7,81.8,3786.6,57.5,3773,51.2z"/>
		<rect x="3249.1" y="95.8" class="st0" width="72.3" height="48.2"/>
	</g>
	<g>
		<path class="st0" d="M3313,490.5h-298.7c-29.3,0-53-23.7-53-53V337c0-29.3,23.7-53,53-53H3313c29.3,0,53,23.7,53,53v100.5
			C3366,466.8,3342.2,490.5,3313,490.5z"/>
		<g>
			<path class="st0" d="M2838.9,490.5h-298.7c-29.3,0-53-23.7-53-53V337c0-29.3,23.7-53,53-53h298.7c29.3,0,53,23.7,53,53v100.5
				C2891.9,466.8,2868.2,490.5,2838.9,490.5z"/>
			<path class="st0" d="M3787,490.5h-298.7c-29.3,0-53-23.7-53-53V337c0-29.3,23.7-53,53-53H3787c29.3,0,53,23.7,53,53v100.5
				C3840,466.8,3816.3,490.5,3787,490.5z"/>
		</g>
	</g>
	<g>
		<circle class="st0" cx="1018.1" cy="306" r="35.5"/>
		<circle class="st0" cx="423" cy="306" r="35.5"/>
		<circle class="st0" cx="659.5" cy="306" r="35.5"/>
		<circle class="st0" cx="1722.6" cy="306" r="35.5"/>
		<path class="st0" d="M2364.9,0H53C23.7,0,0,23.7,0,53v384.6c0,29.3,23.7,53,53,53h2311.9c29.3,0,53-23.7,53-53V53
			C2417.9,23.7,2394.2,0,2364.9,0z M246.9,384.5L219,325.1c-4.3-9.2-18.2-6.1-18.2,4.1v55.4H120V97.3c0,0,128.7,0,130.5,0
			c47,0,85.1,38.1,85.1,85.1c0,37-23.6,68.4-56.5,80.2l57.2,121.9H246.9z M534.1,384.5h-12.4h-11.4h-64.8h-12.4h-36.9
			c-37.6,0-67.9-31-66.8-68.7c1-36.4,31.8-65,68.2-65H424c5.1,0,9.2-4.1,9.2-9.2s-4.1-9.2-9.2-9.2h-70.5v-70.2h117.2
			c35,0,63.5,28.4,63.5,63.5V384.5z M772.1,384.5h-47.8h-33.1H658c-61.4,0-111.2-49.8-111.2-111.2S596.6,162.2,658,162.2h33.2V97.3
			h80.8V384.5z M884.4,384.5h-88.6V162.2h88.6V384.5z M1018.1,393.2c-66.2,0-119.8-53.7-119.8-119.8s53.7-119.8,119.8-119.8
			S1138,207.1,1138,273.3S1084.3,393.2,1018.1,393.2z M1407.3,185.9h-24.5c-16.7,0-30.3,13.6-30.3,30.3v71.2
			c0,53.6-43.5,97.1-97.1,97.1h-46.3v-88.6h24.5c16.7,0,30.3-13.6,30.3-30.3v-71.2c0-53.6,43.5-97.1,97.1-97.1h46.3V185.9z
			 M1616.2,384.5h-88.6V244.3c0-6.6-5.3-11.9-11.9-11.9l0,0c-6.6,0-11.9,5.3-11.9,11.9v140.2h-88.6V97.3h88.6v64.8h48.9
			c35,0,63.5,28.4,63.5,63.5V384.5z M1833.7,384.5h-12.4H1810h-64.8h-12.4h-36.9c-37.6,0-67.9-31-66.8-68.7c1-36.4,31.8-65,68.2-65
			h26.3c5.1,0,9.2-4.1,9.2-9.2s-4.1-9.2-9.2-9.2h-70.5v-70.2h117.2c35,0,63.5,28.4,63.5,63.5V384.5z M2084.6,293.3h-85.1
			c-5.1-13.3-18-22.7-33.1-22.7c-19.6,0-35.5,15.9-35.5,35.5c0,19.6,15.9,35.5,35.5,35.5c15.1,0,27.9-9.4,33.1-22.7h77.9
			c-17.9,43.7-60.8,74.4-110.9,74.4c-66.2,0-119.8-53.7-119.8-119.8s53.7-119.8,119.8-119.8c66.2,0,119.8,53.7,119.8,119.8
			C2086.3,280.1,2085.7,286.8,2084.6,293.3z M2210.8,384.5l-24.4-64c-4-10.5-19.5-7.6-19.5,3.6v60.4h-70.2V97.3h70.2v153.1
			l39.5-60.3h93.5l-43.2,66l48.9,128.3H2210.8z"/>
		
			<ellipse transform="matrix(0.6154 -0.7882 0.7882 0.6154 -113.0369 264.5251)" class="st0" cx="214.6" cy="248.1" rx="35.5" ry="35.5"/>
	</g>
</g>
</svg>
