<?xml version="1.0" encoding="utf-8"?>
<!-- Generator: Adobe Illustrator 25.0.0, SVG Export Plug-In . SVG Version: 6.00 Build 0)  -->
<svg version="1.1" id="Layer_1" xmlns="http://www.w3.org/2000/svg" xmlns:xlink="http://www.w3.org/1999/xlink" x="0px" y="0px"
	 viewBox="0 0 3840 1196.9" style="enable-background:new 0 0 3840 1196.9;" xml:space="preserve">
<style type="text/css">
	.st0{fill:#020202;}
	.st1{fill:#FFFFFF;}
	.st2{clip-path:url(#SVGID_26_);}
	.st3{fill:#243787;}
	.st4{fill:#231F20;}
	.st5{fill:#F17100;}
	.st6{fill:#E50069;}
	.st7{fill:#FCEC01;}
	.st8{fill:#00771F;}
	.st9{fill:#89BC27;}
	.st10{clip-path:url(#SVGID_29_);}
	.st11{clip-path:url(#SVGID_32_);}
	.st12{clip-path:url(#SVGID_36_);}
	.st13{clip-path:url(#SVGID_40_);}
	.st14{clip-path:url(#SVGID_44_);}
	.st15{fill:#EA1E04;}
	.st16{clip-path:url(#SVGID_46_);}
	.st17{clip-path:url(#SVGID_48_);}
	.st18{clip-path:url(#SVGID_49_);}
	.st19{clip-path:url(#SVGID_50_);}
	.st20{clip-path:url(#SVGID_51_);}
	.st21{clip-path:url(#SVGID_52_);}
	.st22{clip-path:url(#SVGID_53_);}
	.st23{clip-path:url(#SVGID_54_);}
	.st24{clip-path:url(#SVGID_55_);}
	.st25{clip-path:url(#SVGID_56_);}
	.st26{clip-path:url(#SVGID_57_);}
	.st27{clip-path:url(#SVGID_58_);}
	.st28{clip-path:url(#SVGID_60_);}
	.st29{clip-path:url(#SVGID_62_);}
	.st30{clip-path:url(#SVGID_64_);}
	.st31{clip-path:url(#SVGID_66_);}
	.st32{clip-path:url(#SVGID_68_);}
	.st33{clip-path:url(#SVGID_70_);}
	.st34{clip-path:url(#SVGID_71_);}
	.st35{clip-path:url(#SVGID_72_);}
	.st36{clip-path:url(#SVGID_73_);}
	.st37{clip-path:url(#SVGID_74_);}
	.st38{clip-path:url(#SVGID_75_);}
	.st39{clip-path:url(#SVGID_76_);}
	.st40{clip-path:url(#SVGID_77_);}
	.st41{clip-path:url(#SVGID_78_);}
	.st42{clip-path:url(#SVGID_79_);}
	.st43{clip-path:url(#SVGID_80_);}
	.st44{clip-path:url(#SVGID_81_);}
	.st45{clip-path:url(#SVGID_82_);}
</style>
<g>
	<g>
		<path class="st1" d="M2932.9,29.2h-221c-43.9,0-85.9,16.3-118.5,45.8c-0.4,0.3-0.9,0.6-1.2,1l-0.9,0.9c-2.7,2.5-5.3,5.1-7.7,7.7
			l-67.7,67.7c-0.1,0.1-0.1,0.2-0.2,0.3c-34.5,32.3-56.3,78.1-56.3,129.1V489c0,4.9,4,8.8,8.8,8.8h219.6l0,0l0,0
			c1.2,0,2.3-0.2,3.4-0.7c1-0.4,1.8-1,2.6-1.7c0.1-0.1,0.2-0.1,0.3-0.2l75.5-75.5c1.7-1.7,2.6-3.9,2.6-6.2V297
			c14.2,2.8,24.9,15.3,24.9,30.3V572l-171.4,95.7c-11.8,6.6-22.8,14.6-33,23.8c-0.3,0.2-0.5,0.5-0.8,0.7l-1.1,1.1
			c-2.9,2.7-5.7,5.5-8.2,8.2l-66.8,66.7c-0.1,0.1-0.2,0.3-0.3,0.4c-35.3,33-56.2,79.6-56.2,129.2v290.3c0,4.9,4,8.8,8.8,8.8h557.3
			c1.2,0,2.3-0.2,3.4-0.7c1.1-0.4,2-1.1,2.8-1.9c0,0,0,0,0,0l75.5-75.5c1.7-1.7,2.6-3.9,2.6-6.3v-174c0-4.9-4-8.8-8.8-8.8h-328.8
			v-81.2l171.5-95.7c21.9-12.2,40.4-28.7,55-48.1l54.9-52.4c0.3-0.3,0.5-0.5,0.8-0.8c35.3-33.3,55.6-80.2,55.6-128.6V206.2
			C3109.9,108.6,3030.5,29.2,2932.9,29.2z M3079.7,947.4l-57.8,57.8h-312.7l57.8-57.8H3079.7z M3016.7,598.3c0,3.9-0.2,7.9-0.5,11.8
			c-0.1,1.5-0.3,3-0.5,4.5c-0.2,2.3-0.5,4.7-0.8,7c-0.3,1.8-0.6,3.7-0.9,5.5c-0.4,1.9-0.7,3.9-1.2,5.8c-0.4,1.9-0.9,3.8-1.4,5.8
			c-0.5,1.9-1,3.7-1.6,5.5c-0.6,1.8-1.1,3.7-1.7,5.5c-0.9,2.5-1.8,5-2.8,7.5c-0.5,1.2-0.9,2.4-1.4,3.5c-1.5,3.4-3.1,6.8-4.8,10.2
			c-0.4,0.7-0.8,1.4-1.2,2.1c-1.6,3-3.2,5.9-5,8.8c-0.3,0.6-0.7,1.1-1.1,1.7c-2,3.1-4.1,6.2-6.3,9.2c-13.3,18-30.3,33.4-50.5,44.7
			l-231.1,129.1c-15.3,8.6-24.9,24.8-24.9,42.4v105.3c0,4.9,4,8.8,8.8,8.8h0h328.8v156.3h-539.6V897.8c0-44.9,19-87,51.1-116.8
			c4.6-4.3,9.4-8.2,14.4-11.9c0.3-0.2,0.6-0.4,0.8-0.6c4.9-3.5,9.9-6.8,15.1-9.7c0,0,0.1-0.1,0.1-0.1l231.1-129.1
			c1.5-0.8,2.8-1.8,4.2-2.7c0.4-0.3,0.9-0.5,1.3-0.8c1.6-1.2,3.2-2.6,4.6-4c0.5-0.5,1-1,1.4-1.5c0.9-0.9,1.8-1.9,2.6-2.9
			c0.6-0.7,1.1-1.4,1.6-2.2c0.6-0.9,1.3-1.8,1.8-2.7c0.5-0.8,1-1.7,1.5-2.6c0.5-0.9,0.9-1.8,1.3-2.7c0.4-0.9,0.8-1.8,1.2-2.8
			c0.4-1,0.7-1.9,1-2.9c0.3-0.9,0.6-1.8,0.8-2.7c0.3-1.2,0.5-2.3,0.7-3.5c0.1-0.8,0.3-1.6,0.4-2.4c0.3-2,0.4-4,0.4-6c0,0,0,0,0,0v0
			v-10v-250c0-26.8-21.8-48.5-48.5-48.5h-38.6c-26.8,0-48.5,21.8-48.5,48.5v153h-201.9V281.7c0-46.7,20.3-88.6,52.4-117.8
			c3-2.7,6-5.3,9-7.6c2.2-1.7,4.4-3.4,6.7-5c1.7-1.2,3.4-2.3,5.2-3.5c2.5-1.6,5-3.2,7.6-4.6c1.6-0.9,3.4-1.9,5.2-2.8
			c1.3-0.6,2.5-1.2,3.8-1.8c3.1-1.5,6.1-3,9.3-4.3c1.8-0.7,3.6-1.3,5.4-2c2.9-1.1,5.7-2.1,8.7-3c2.7-0.8,5.5-1.4,8.2-2.1
			c2.2-0.6,4.3-1.1,6.5-1.6c3.9-0.8,7.9-1.3,11.9-1.8c1.2-0.2,2.3-0.4,3.5-0.5c5.2-0.5,10.5-0.8,15.9-0.8h221c5,0,9.8,0.3,14.7,0.7
			l4.2,0.5c3.7,0.4,7.3,1,10.9,1.7l3.6,0.7c1.4,0.3,2.7,0.7,4,1c5.5,1.3,11,3,16.3,4.9c2.5,0.9,5,1.7,7.5,2.7l2,0.9
			c4,1.7,7.9,3.6,11.7,5.6l1.5,0.8c16.2,8.9,30.6,20.6,42.8,34.4c1.5,1.7,3,3.3,4.4,5c2,2.4,3.8,5,5.6,7.5c1.4,1.9,2.7,3.7,4,5.7
			c1.6,2.5,3.1,5,4.6,7.6c1.3,2.2,2.5,4.4,3.7,6.7c1.3,2.5,2.5,5,3.7,7.6c1.2,2.6,2.2,5.2,3.3,7.9c0.9,2.4,1.8,4.8,2.7,7.3
			c1,3,1.8,6,2.6,9c0.6,2.3,1.3,4.6,1.8,7c0.8,3.6,1.4,7.3,1.9,11.1l0,0.3c0.3,1.8,0.6,3.6,0.8,5.4c0.1,1.1,0.2,2.2,0.3,3.3
			c0.4,4.6,0.7,9.3,0.7,14.1V598.3z M2989.7,164.2c-1.1-1.3-2.3-2.4-3.5-3.7l-0.2-0.2c-0.9-1-1.7-2-2.7-2.9
			c-0.6-0.6-1.1-1.1-1.7-1.7c-1-1-2-1.9-3-2.9c-2.9-2.7-5.7-5.3-8.6-7.7c-4.4-3.6-8.9-7-13.6-10.2c-2.6-1.7-5.4-3.5-8.5-5.3
			c-1.9-1.1-3.7-2.2-5.6-3.2c0,0-0.1,0-0.1-0.1c-0.4-0.2-0.8-0.4-1.2-0.6c-0.3-0.1-0.5-0.3-0.8-0.4l-0.9-0.5c-0.1,0-0.2-0.1-0.2-0.1
			c-3.7-1.9-7.5-3.7-11.4-5.4l-0.1,0c-0.7-0.3-1.4-0.6-2.1-0.9l-0.7-0.3c-0.1,0-0.2-0.1-0.2-0.1c-9.8-4-19.9-7.1-30.3-9.3
			c-1.1-0.2-2.2-0.4-3.3-0.6l-0.6-0.1c-0.1,0-0.2,0-0.2,0c-3.9-0.7-7.9-1.3-11.9-1.8c-1.4-0.2-2.8-0.4-4.2-0.5l-0.1,0
			c-0.1,0-0.2,0-0.3,0c-2-0.2-3.9-0.3-5.9-0.4c-3.6-0.2-7-0.4-10.1-0.4h-221c-5.5,0-11,0.3-16.4,0.8c-0.4,0-0.8,0-1.2,0.1
			c0,0-0.1,0-0.1,0c-1,0.1-2.1,0.3-3.1,0.4c-0.7,0.1-1.5,0.2-2.3,0.3l-0.4,0.1c-2.9,0.4-5.8,0.8-8.7,1.3c-0.8,0.1-1.6,0.2-2.5,0.4
			c-0.1,0-0.1,0-0.2,0c-1.6,0.3-3.2,0.8-4.8,1.1c-2.5,0.6-5,1.2-7.5,1.9c-1.3,0.3-2.5,0.6-3.8,1c-0.1,0-0.3,0.1-0.4,0.1
			c-1.4,0.4-2.8,0.9-4.3,1.4c-0.7,0.2-1.4,0.4-2.1,0.6l17.4-17.4c2.3-2.4,4.6-4.8,7.3-7.2l0.3-0.3c0.2-0.2,0.5-0.4,0.7-0.6
			c29.4-27,67.6-41.9,107.4-41.9h221c5.6,0,11.2,0.3,16.7,0.9c2,0.2,3.9,0.6,5.8,0.9c3.5,0.5,7,1,10.4,1.7c2.4,0.5,4.8,1.2,7.2,1.9
			c2.8,0.7,5.6,1.4,8.4,2.3c2.6,0.8,5.1,1.8,7.7,2.8c2.5,0.9,4.9,1.8,7.4,2.9c2.6,1.1,5,2.4,7.5,3.6c2.3,1.2,4.6,2.3,6.9,3.6
			c2.4,1.3,4.6,2.8,6.9,4.2c2.3,1.5,4.6,3,6.9,4.6c2,1.4,4,2.9,5.9,4.4c2.5,1.9,4.9,3.9,7.2,6c1.6,1.4,3.1,2.8,4.7,4.2
			c2.7,2.6,5.3,5.2,7.8,8c0.7,0.8,1.5,1.6,2.2,2.4L2989.7,164.2z"/>
		<path class="st1" d="M3496.3,278.7h-38.6c-26.8,0-48.5,21.8-48.5,48.5v647.2c0,26.8,21.8,48.5,48.5,48.5h38.6
			c26.8,0,48.5-21.8,48.5-48.5V327.2C3544.9,300.4,3523.1,278.7,3496.3,278.7z M3527.2,938c-19.1-2.9-33.7-19.2-33.7-39.1V296.3h2.8
			c17,0,30.9,13.8,30.9,30.9V938z"/>
		<path class="st1" d="M3663,29.2h-221c-44.1,0-86.3,16.4-119,46.2c-0.8,0.4-1.6,1-2.3,1.6l-82.4,82.3c-0.6,0.6-1.1,1.4-1.5,2.2
			c-29.3,31.6-47.4,73.7-47.4,120.1v738.2c0,97.6,79.4,177,177,177h221c50.3,0,95.7-21.2,127.9-55c0.1-0.1,0.2-0.1,0.3-0.2
			l75.9-75.9c0.3-0.3,0.6-0.6,0.8-0.9c30.7-32.8,47.5-75.6,47.5-120.4V206.2C3840,108.6,3760.6,29.2,3663,29.2z M3746.8,1019.9
			C3746.8,1020,3746.8,1020,3746.8,1019.9c0,5.3-0.3,10.6-0.8,15.7c-0.2,2.1-0.6,4.3-0.9,6.4c-0.4,3-0.8,6-1.4,8.9
			c-0.5,2.6-1.2,5.2-1.9,7.7c-0.6,2.4-1.1,4.7-1.8,7.1c-0.8,2.8-1.9,5.5-2.9,8.3c-0.7,2-1.4,4-2.2,6c-1.2,2.9-2.5,5.7-3.9,8.6
			c-0.8,1.7-1.6,3.4-2.4,5c-1.6,3-3.3,5.9-5.1,8.8c-0.8,1.4-1.6,2.7-2.5,4.1c-2,3.1-4.2,6.1-6.4,9c-0.8,1.1-1.5,2.1-2.4,3.2
			c-2.4,3-5,6-7.6,8.9c-29.1,31.7-70.8,51.8-117.2,51.8h-221c-87.8,0-159.3-71.5-159.3-159.3V281.7c0-42.9,17.1-81.8,44.8-110.5
			c3-3.1,6.1-6,9.3-8.8c0.9-0.8,1.7-1.6,2.6-2.4c2.8-2.3,5.6-4.5,8.5-6.6c1.5-1.1,2.9-2.3,4.4-3.3c2-1.4,4.1-2.6,6.2-3.9
			c2.5-1.5,4.9-3.1,7.5-4.6c0.7-0.4,1.4-0.6,2-1c22.1-11.7,47.3-18.3,74-18.3h221c5.5,0,10.9,0.3,16.2,0.8c0.2,0,0.4,0.1,0.7,0.1
			c17.4,1.8,33.9,6.6,49.2,13.6c3.7,1.7,7.4,3.4,10.9,5.4c2.1,1.1,4,2.4,6,3.7c3,1.8,5.9,3.7,8.8,5.8c1.9,1.3,3.7,2.7,5.5,4.1
			c2.9,2.3,5.7,4.6,8.4,7.1c1.6,1.4,3.2,2.8,4.7,4.3c3.1,3,6.1,6.2,9,9.5c1,1.2,2.1,2.2,3.1,3.4c0.3,0.3,0.5,0.7,0.8,1
			c1,1.3,2,2.7,3,4c2.8,3.7,5.5,7.5,8.1,11.5c0.4,0.6,0.8,1.3,1.2,2c2.6,4.3,5.1,8.7,7.3,13.2c0.2,0.4,0.4,0.9,0.6,1.3
			c2.3,4.9,4.4,9.8,6.2,14.8c0.2,0.7,0.5,1.3,0.7,2c1.6,4.6,2.9,9.3,4.1,14c0.3,1.1,0.6,2.1,0.8,3.2c1,4.4,1.7,8.9,2.3,13.4
			c0.2,1.3,0.4,2.6,0.6,3.9c0.6,5.7,1,11.4,1,17.2V1019.9z M3701.8,146.7c-0.1-0.1-0.2-0.1-0.3-0.2c-0.5-0.4-1-0.8-1.5-1.2
			c0,0-0.1,0-0.1-0.1c-2.7-2.2-5.4-4.3-8.1-6.3c-0.9-0.7-1.8-1.3-2.8-1.9c-0.7-0.5-1.3-0.9-2-1.4c-0.4-0.2-0.7-0.5-1.1-0.8
			c-1.4-0.9-2.8-1.8-4.2-2.7c-1.3-0.8-2.6-1.6-3.9-2.4c-1.9-1.1-3.8-2.2-5.8-3.3c-0.3-0.2-0.6-0.3-0.9-0.5c-0.1-0.1-0.2-0.1-0.3-0.2
			c-1.2-0.6-2.4-1.3-3.6-1.9c-3.6-1.8-7.2-3.5-10.9-5.1c-15.8-6.7-32.3-10.9-49.3-12.8c-0.5-0.1-1-0.2-1.6-0.2c-6-0.6-12-0.9-18-0.9
			h-221c-5.7,0-11.3,0.3-16.8,0.9c-1.5,0.1-3,0.4-4.5,0.6c-4.1,0.5-8.2,1.1-12.2,1.9c-1.5,0.3-3,0.6-4.5,1c-4.1,0.9-8.2,2-12.3,3.2
			c-1.2,0.4-2.4,0.7-3.6,1.1c-1.4,0.4-2.8,0.8-4.1,1.2l23.5-23.5c0.6-0.4,1.3-0.8,1.8-1.3c29.6-27.6,68.1-42.8,108.4-42.8h221
			c5.1,0,10.1,0.3,15.1,0.8c1.9,0.2,3.7,0.5,5.6,0.7c3,0.4,6.1,0.8,9,1.4c2.3,0.4,4.5,1,6.7,1.5c2.5,0.6,4.9,1.2,7.4,1.9
			c2.4,0.7,4.9,1.5,7.3,2.3c2.1,0.7,4.2,1.5,6.2,2.3c2.6,1,5.1,2,7.6,3.2c1.7,0.8,3.4,1.6,5.1,2.4c2.7,1.4,5.5,2.7,8.1,4.2
			c1.1,0.6,2.2,1.4,3.3,2c7,4.2,13.8,8.9,20.1,14.2L3701.8,146.7z"/>
	</g>
	<g>
		<g>
			<path class="st0" d="M1668.7,1144.6l0.1,0.2l2.8-2.8C1670.7,1142.8,1669.7,1143.7,1668.7,1144.6z"/>
		</g>
	</g>
	<path class="st1" d="M1084.9,29.2H865.3c-2.3,0-4.6,0.9-6.2,2.6l-75.5,75.5c0,0,0,0-0.1,0.1c-0.7,0.7-1.3,1.6-1.7,2.5
		c-0.1,0.3-0.2,0.5-0.3,0.8c-0.3,0.8-0.4,1.5-0.5,2.4c0,0.2-0.1,0.3-0.1,0.5v1074.5c0,4.9,4,8.8,8.8,8.8h219.6
		c1.2,0,2.3-0.2,3.4-0.7c1.1-0.4,2-1.1,2.8-1.9c0,0,0,0,0,0l75.5-75.5c1.7-1.7,2.6-3.9,2.6-6.3V38
		C1093.7,33.2,1089.8,29.2,1084.9,29.2z M869,46.9h194.6l-57.8,57.8l-97.3,0h-97.3L869,46.9z M798.6,122.4h201.9v1056.8H798.6V122.4
		z"/>
	<path class="st1" d="M738.1,32.2c-1.7-1.9-4.1-3-6.6-3H510.3c-2.3,0-4.6,0.9-6.2,2.6l-75.5,75.5c-0.6,0.6-1.1,1.3-1.5,2.1
		c0,0,0,0.1-0.1,0.1c-0.4,0.9-0.7,1.8-0.9,2.7c0,0.1-0.1,0.2-0.1,0.3l-51.4,430.2L314.3,37c-0.5-4.4-4.3-7.8-8.8-7.8H84.3
		c-2.3,0-4.6,0.9-6.2,2.6L2.6,107.3c-0.1,0.1-0.1,0.2-0.2,0.3c-0.1,0.1-0.1,0.1-0.2,0.1c-0.1,0.1-0.2,0.3-0.3,0.5
		c-0.6,0.7-1,1.5-1.3,2.3c-0.1,0.3-0.2,0.5-0.3,0.8c-0.3,1.1-0.4,2.1-0.3,3.2c0,0,0,0.1,0,0.1l128.3,1074.5c0.5,4.4,4.3,7.8,8.8,7.8
		h390.5c1.2,0,2.3-0.2,3.3-0.6c0.2-0.1,0.4-0.3,0.7-0.4c0.8-0.4,1.5-0.8,2.1-1.4c0.1-0.1,0.1-0.1,0.2-0.1l75.5-75.5
		c1.4-1.4,2.3-3.2,2.5-5.2L740.3,39.1C740.6,36.6,739.8,34.1,738.1,32.2z M652.3,104.7H456.1L514,46.9h196.2L652.3,104.7z
		 M226.3,104.7H30.1L88,46.9h196.2L226.3,104.7z M18.8,122.4h203.4l101.5,849.8c0.5,4.4,4.3,7.8,8.8,7.8c4.5,0,8.2-3.3,8.8-7.8
		l42.3-353.9c0,0,0,0,0,0l59.2-495.9H646L519.8,1179.2H145L18.8,122.4z"/>
	<path class="st1" d="M2389.8,780.9l-216.7-216.7c-1.7-1.7-3.9-2.6-6.2-2.6h-16.7l168.3-168.3c1-1,1.7-2.3,2.2-3.6l69.2-69.2
		c2.5-2.5,3.3-6.3,1.9-9.6c-1.4-3.3-4.6-5.5-8.2-5.5h-465.3c1.2-1.5,2-3.4,2-5.3V27.2c0-4-2.7-7.5-6.6-8.5
		C1867.3,6.3,1819.4,0,1771.3,0c-164.6,0-319.2,72.8-424.3,199.7c-0.1,0.2-0.2,0.3-0.3,0.5c-121,101.1-198.2,253-198.2,422.6
		c0,303.6,247,550.7,550.7,550.7c48,0,95.9-6.3,142.4-18.7c0.2-0.1,0.4-0.2,0.6-0.3c0.4-0.1,0.7-0.3,1.1-0.5
		c0.6-0.3,1.2-0.7,1.7-1.1c0.2-0.1,0.4-0.2,0.6-0.4l72.1-72.1c1.7-1.7,2.6-3.9,2.6-6.3v-205h391.2c4,0,7.6-2.4,9.1-6.1
		c0.1-0.2,0.1-0.3,0.1-0.5l69.1-69.1C2393.3,789.9,2393.3,784.3,2389.8,780.9z M2090.7,593.2h-241.5v-197h438.5L2090.7,593.2z
		 M2145.5,579.2l-53.4,53.4h-230.4l19.8-19.8h213.3c2.6,0,5.1-1,7-2.9l30.8-30.8H2145.5z M1836,633.4c-3.8,1.4-6.5,4.9-6.5,9.2
		v180.2c0,0-0.1,0-0.1,0c-4.7,1-9.4,1.9-14.1,2.7c-0.2,0-0.4,0.1-0.6,0.1c-4.5,0.7-9.1,1.4-13.7,1.9c-1.3,0.1-2.5,0.2-3.8,0.3
		c-3.6,0.4-7.2,0.7-10.8,0.9c-5,0.3-10,0.5-15,0.5c-153.5,0-278.4-124.9-278.4-278.4c0-7.1,0.3-14.1,0.8-21.1
		c0.3-4.1,0.9-8.2,1.4-12.2c0.3-2.9,0.6-5.8,1-8.6c0.9-5.6,2-11.2,3.2-16.7c0.3-1.2,0.4-2.5,0.7-3.7c1.5-6.4,3.2-12.8,5.2-19
		c0.1-0.3,0.2-0.7,0.3-1c8.2-26.4,20.5-51.6,36.5-74.9c0,0,0.1-0.1,0.1-0.1c44.8-30.7,98.9-48.8,157.2-48.8c46.7,0,93,12,133.9,34.5
		c-2.2,1.8-3.6,4.4-3.6,7.5v216.7c0,5.4,4.4,9.9,9.9,9.9h17.1L1836,633.4z M1915.1,323h447.2l-53.4,53.4h-447.2L1915.1,323z
		 M1771.3,17.7c10.7,0,21.4,0.4,32.1,1c3.5,0.2,7.1,0.6,10.6,0.9c7.1,0.6,14.3,1.1,21.4,2c4.2,0.5,8.4,1.2,12.6,1.8
		c6.4,0.9,12.8,1.8,19.1,3c4.5,0.8,8.9,1.8,13.4,2.7c4.5,0.9,9,1.9,13.5,3l-57.4,57.4c-2.4-0.6-4.7-1.1-7.1-1.7c0,0,0,0,0,0
		c-2.5-0.6-5.1-1.2-7.6-1.8c-3.2-0.7-6.3-1.4-9.5-2c0,0-0.1,0-0.1,0c-9-1.9-17.9-3.5-27-5c-2.6-0.4-5.3-0.8-7.9-1.2c0,0,0,0-0.1,0
		c-3.9-0.6-7.8-1.1-11.7-1.6c-2-0.2-3.9-0.5-5.9-0.7c0,0,0,0,0,0c-12.2-1.3-24.4-2.3-36.7-2.8c-0.1,0-0.1,0-0.2,0
		c-2-0.1-3.9-0.2-5.9-0.3c0,0,0,0,0,0c-5.9-0.2-11.8-0.3-17.7-0.3c-8.2,0-16.5,0.3-24.7,0.6c0,0,0,0,0,0c-2.2,0.1-4.5,0.2-6.7,0.3
		c-7.6,0.4-15.2,1-22.8,1.7c0,0,0,0,0,0c-2.8,0.3-5.6,0.6-8.3,1c0,0,0,0,0,0c-4.8,0.6-9.6,1.2-14.4,1.8c0,0,0,0,0,0
		c-3.8,0.5-7.6,1.1-11.3,1.7c-4.4,0.7-8.7,1.5-13.1,2.3c-0.1,0-0.1,0-0.2,0c0,0,0,0,0,0c-6.3,1.2-12.6,2.5-18.8,3.9c0,0,0,0,0,0
		c0,0,0,0,0,0c-2.5,0.6-5,1.1-7.4,1.7c0,0,0,0,0,0c0,0,0,0,0,0c-7,1.7-14,3.5-20.9,5.5c-0.9,0.3-1.9,0.5-2.8,0.8
		c-9.6,2.8-19.2,5.8-28.6,9c0,0,0,0-0.1,0c-2.2,0.8-4.4,1.6-6.6,2.3c-10.1,3.6-20.1,7.6-30,11.8c-0.7,0.3-1.5,0.6-2.2,1
		c-18.6,8-36.7,17-54.3,27.1C1521.5,63.2,1643.3,17.7,1771.3,17.7z M1830.5,1139.4c-42.9,10.9-87,16.4-131.3,16.4
		c-293.9,0-533-239.1-533-533c0-192.8,102.9-362.1,256.7-455.7c0.1-0.1,0.2-0.1,0.3-0.2c6.6-4,13.3-7.8,20-11.5
		c1.6-0.9,3.2-1.7,4.8-2.6c5.2-2.8,10.4-5.4,15.7-8c2.8-1.4,5.6-2.7,8.4-4.1c3.9-1.9,7.9-3.6,11.9-5.4c3.9-1.7,7.8-3.5,11.8-5.1
		c2.4-1,4.9-1.9,7.4-2.9c25.6-10.1,51.9-18.3,78.8-24.4c1.3-0.3,2.6-0.6,3.9-0.9c5.7-1.3,11.5-2.4,17.3-3.4c2.5-0.5,4.9-0.9,7.4-1.3
		c5.1-0.9,10.3-1.6,15.4-2.4c3.4-0.5,6.8-0.9,10.3-1.3c4.5-0.5,9-1.1,13.5-1.5c4.6-0.4,9.3-0.8,14-1.1c3.5-0.2,7-0.5,10.5-0.7
		c8.4-0.4,16.7-0.6,25.2-0.6c44.2,0,88.4,5.5,131.3,16.4v251.3c-40.7-20.2-85.7-30.8-131.3-30.8c-62.7,0-120.8,19.6-168.7,53
		c0,0,0,0,0,0c-0.1,0.1-0.2,0.2-0.3,0.3c-4.6,3.2-9.1,6.6-13.5,10c0,0,0,0,0,0c-6.7,5.3-13,10.8-19.2,16.6c-1.3,1.2-2.5,2.4-3.8,3.6
		c-5.7,5.5-11.2,11.1-16.4,17.1c0,0,0,0,0,0c0,0,0,0,0,0c-0.2,0.2-0.4,0.4-0.5,0.6c0,0,0,0,0,0c-2.3,2.6-4.4,5.3-6.5,7.9
		c-1.6,2-3.3,3.9-4.8,5.9c-21.3,27.5-37.9,58.9-48.6,92.8c-0.6,1.8-1,3.6-1.5,5.4c-1.1,3.8-2.2,7.5-3.2,11.4
		c-1.6,6.3-2.9,12.7-4.1,19.1c0,0,0,0,0,0.1c-0.8,4.7-1.6,9.4-2.2,14.1c-0.2,1.3-0.3,2.5-0.5,3.8c0,0,0,0,0,0
		c-0.5,4.4-0.9,8.7-1.2,13.2c0,0,0,0.1,0,0.1c-0.5,7-0.8,14-0.8,21c0,163.3,132.8,296.1,296.1,296.1c6,0,12-0.2,18-0.6
		c2-0.1,3.9-0.4,5.9-0.5c4-0.3,8.1-0.7,12.1-1.2c2.3-0.3,4.6-0.7,6.9-1c3.6-0.5,7.3-1.1,10.9-1.8c2.4-0.5,4.8-1,7.2-1.5
		c3.5-0.7,6.9-1.5,10.4-2.4c2.4-0.6,4.9-1.3,7.3-1.9c3.4-0.9,6.8-1.9,10.1-3c2.4-0.8,4.8-1.5,7.1-2.3c3.4-1.2,6.7-2.4,10-3.7
		c2.3-0.9,4.6-1.8,6.9-2.7c3.4-1.4,6.8-2.9,10.1-4.5c2.1-1,4.2-1.9,6.3-2.9c0.7-0.3,1.3-0.6,2-0.9V1139.4z M1849.2,849.4v-197h241.5
		l197,197H1849.2z"/>
</g>
</svg>
