<?xml version="1.0" encoding="utf-8"?>
<!-- Generator: Adobe Illustrator 25.0.0, SVG Export Plug-In . SVG Version: 6.00 Build 0)  -->
<svg version="1.1" id="Layer_1" xmlns="http://www.w3.org/2000/svg" xmlns:xlink="http://www.w3.org/1999/xlink" x="0px" y="0px"
	 viewBox="0 0 3849.4 1246.5" style="enable-background:new 0 0 3849.4 1246.5;" xml:space="preserve">
<style type="text/css">
	.st0{fill:#00A7E1;}
	.st1{fill:#71A850;}
	.st2{fill:#F5B335;}
	.st3{fill:#C23B33;}
	.st4{fill:#FFFFFF;}
	.st5{fill:none;stroke:#FFFFFF;stroke-width:9.6786;stroke-miterlimit:10;}
	.st6{fill:none;stroke:#000000;stroke-width:9.6786;stroke-miterlimit:10;}
</style>
<g>
	<g>
		<g>
			<polygon class="st5" points="2960.8,4.8 2695.8,4.8 3574.9,1241.6 3840,1241.6 			"/>
			<polygon class="st5" points="2695.8,4.8 2430.7,4.8 3309.9,1241.6 3574.9,1241.6 			"/>
			<polygon class="st5" points="2430.7,4.8 2165.7,4.8 3044.8,1241.6 3309.9,1241.6 			"/>
		</g>
		<polygon class="st5" points="2165.7,4.8 1900.6,4.8 2779.8,1241.6 3044.8,1241.6 		"/>
	</g>
	<rect x="633.3" y="158.9" class="st4" width="109.3" height="86.5"/>
	<g>
		<path class="st4" d="M1.6,1044l162-193.7H14.3v-55.8H252v52.5L90,1040.6h166.2v55.8H1.6V1044z"/>
		<path class="st4" d="M373.4,938.2l-97.3-143.8h77l59.2,96.5l61.3-96.5h72.8l-96.9,144.3l105.3,157.8h-79.1l-66-104.5l-67.3,104.5
			h-74.9L373.4,938.2z"/>
		<path class="st4" d="M659.8,996.2c0,40.2,31.3,55.8,66.8,55.8c23.3,0,58.8-6.8,58.8-37.6c0-32.6-45.3-38.1-89.7-49.9
			c-44.8-11.8-90.1-29.2-90.1-85.9c0-61.8,58.4-91.4,112.9-91.4c63,0,121,27.5,121,97.3h-64.3c-2.1-36.4-27.9-45.7-59.6-45.7
			c-21.2,0-45.7,8.9-45.7,34.3c0,23.3,14.4,26.2,90.1,45.7c22,5.5,89.7,19.5,89.7,88c0,55.4-43.6,96.9-125.6,96.9
			c-66.8,0-129.4-33-128.6-107.4H659.8z"/>
		<path class="st4" d="M870,877.7h57.1v27.9h0.8c14.4-23.3,38.1-33.8,65.1-33.8c68.5,0,99.4,55.4,99.4,117.6
			c0,58.4-32.2,112.9-96,112.9c-26.2,0-51.2-11.4-65.6-33h-0.8v104.1H870V877.7z M1032.4,987.7c0-34.7-14-70.6-52.5-70.6
			c-39.3,0-52,35.1-52,70.6s13.5,69.4,52.5,69.4C1019.8,1057.1,1032.4,1023.2,1032.4,987.7z"/>
		<path class="st4" d="M1165.3,1001.7c1.7,38.1,20.3,55.4,53.7,55.4c24.1,0,43.6-14.8,47.4-28.3h52.9
			c-16.9,51.6-52.9,73.6-102.4,73.6c-69,0-111.7-47.4-111.7-115.1c0-65.6,45.3-115.5,111.7-115.5c74.5,0,110.4,62.6,106.2,129.9
			H1165.3z M1263,963.6c-5.5-30.5-18.6-46.5-47.8-46.5c-38.1,0-49.1,29.6-49.9,46.5H1263z"/>
		<path class="st4" d="M1494.8,954.7c-3.8-24.5-19.5-37.6-44.4-37.6c-38.5,0-51.2,38.9-51.2,71.1c0,31.3,12.3,68.9,49.9,68.9
			c27.9,0,44-17.8,47.8-44.4h58c-7.6,57.9-47.8,89.7-105.3,89.7c-66,0-110.4-46.5-110.4-112.1c0-68.1,40.6-118.4,111.7-118.4
			c51.6,0,99,27.1,102.8,82.9H1494.8z"/>
		<path class="st4" d="M1652.1,877.7h44v40.2h-44v108.3c0,20.3,5.1,25.4,25.4,25.4c6.3,0,12.3-0.4,18.6-1.7v47
			c-10.2,1.7-23.3,2.1-35.1,2.1c-36.8,0-69-8.5-69-52v-129h-36.4v-40.2h36.4v-65.6h60.1V877.7z"/>
		<path class="st4" d="M1712.2,877.7h57.1v40.6h0.8c11-27.5,40.6-46.5,69.8-46.5c4.2,0,9.3,0.8,13.1,2.1v55.8
			c-5.5-1.3-14.4-2.1-21.6-2.1c-44,0-59.2,31.7-59.2,70.2v98.6h-60.1V877.7z"/>
		<path class="st4" d="M2069.2,1096.4h-57.1v-30.5h-1.3c-15.2,24.5-41.5,36.4-66.8,36.4c-63.9,0-80-36-80-90.1V877.7h60.1v123.5
			c0,36,10.6,53.7,38.5,53.7c32.6,0,46.5-18.2,46.5-62.6V877.7h60.1V1096.4z"/>
		<path class="st4" d="M2103.9,877.7h56.7v29.6h0.8c15.7-22.4,38.5-35.5,66.8-35.5c27.5,0,52,10.2,63.9,36.4
			c12.7-19,35.5-36.4,66-36.4c46.5,0,80,21.6,80,78.3v146.4H2378V972.5c0-29.2-2.5-53.3-36.8-53.3c-33.8,0-40.2,27.9-40.2,55.4
			v121.8h-60.1V973.7c0-25.4,1.7-54.6-36.4-54.6c-11.8,0-40.6,7.6-40.6,50.3v126.9h-60.1V877.7z"/>
	</g>
	<rect x="2815.6" y="158.9" class="st4" width="109.3" height="86.5"/>
	<g>
		<rect x="633.3" y="277.5" class="st4" width="109.3" height="362.5"/>
		<rect x="2815.7" y="277.5" class="st4" width="109.3" height="362.5"/>
		<rect x="2036.1" y="158.9" class="st4" width="109.3" height="481.1"/>
		<polygon class="st4" points="880.8,277.5 771.5,277.5 771.5,364 771.5,640 880.8,640 880.8,364 1265.6,364 1265.6,640 1374.9,640 
			1374.9,364 1374.9,277.5 1265.6,277.5 		"/>
		<polygon class="st4" points="3557.3,277.5 3063.2,277.5 2953.9,277.5 2953.9,364 2953.9,640 3063.2,640 3063.2,364 3557.3,364 		
			"/>
		<polygon class="st4" points="0.9,301.4 0,301.4 0,415.5 0,502 0,503.2 109.3,503.2 109.3,502 494.1,502 494.1,553.5 0.9,553.5 
			0.9,640 494.1,640 603.4,640 604.3,640 604.3,553.5 603.4,553.5 603.4,502 603.4,415.5 603.4,414.3 494.1,414.3 494.1,415.5 
			109.3,415.5 109.3,364 604.3,364 604.3,277.5 0.9,277.5 		"/>
		<polygon class="st4" points="1403.8,277.5 1403.8,364 1403.8,553.5 1403.8,640 1513.1,640 2007.2,640 2007.2,553.5 1513.1,553.5 
			1513.1,364 2007.2,364 2007.2,277.5 1513.1,277.5 		"/>
		<path class="st4" d="M2777.8,277.5h-100.4h-4.1h-499V364h499v51.5h-499v4.6V502v51.5V640h109.3h389.7h4.1h100.4h4.9h4.1V277.5
			h-4.1H2777.8z M2283.7,553.5V502h389.7v51.5H2283.7z"/>
	</g>
</g>
</svg>
