<?xml version="1.0" encoding="utf-8"?>
<!-- Generator: Adobe Illustrator 26.5.0, SVG Export Plug-In . SVG Version: 6.00 Build 0)  -->
<svg version="1.1" id="Layer_1" xmlns="http://www.w3.org/2000/svg" xmlns:xlink="http://www.w3.org/1999/xlink" x="0px" y="0px"
	 viewBox="0 0 3839 1257.818" style="enable-background:new 0 0 3839 1257.818;" xml:space="preserve">
<style type="text/css">
	.st0{fill:#0F2166;}
	.st1{fill:#FD2537;}
	.st2{fill:url(#SVGID_1_);}
	.st3{fill:url(#SVGID_00000142864462347358447440000001136170870428211360_);}
	.st4{fill:url(#SVGID_00000162344210578812013600000018351690556502264981_);}
	.st5{fill:url(#SVGID_00000032611093348937392150000018204509595357860271_);}
	.st6{fill:url(#SVGID_00000138569747395836435790000016852043033546034327_);}
	.st7{fill:url(#SVGID_00000114787247645718256250000018428576844914929548_);}
	.st8{fill:url(#SVGID_00000123438767335646677880000002208377526729190327_);}
	.st9{fill:url(#SVGID_00000181774852751792034860000015366339305280281777_);}
	.st10{fill:url(#SVGID_00000032607841992521100630000001936081429074954894_);}
	.st11{fill:url(#SVGID_00000060011921882776972550000017579144082042115774_);}
	.st12{fill:url(#SVGID_00000162343262407605774020000015682626046015083182_);}
	.st13{fill:#8B8B8B;}
	
		.st14{fill:url(#SVGID_00000035516194488412570470000000521503152169576582_);stroke:#000000;stroke-width:4.8265;stroke-linecap:round;stroke-linejoin:round;}
	
		.st15{fill:url(#SVGID_00000094608393270361981090000007086235233062925974_);stroke:#000000;stroke-width:4.8265;stroke-linecap:round;stroke-linejoin:round;}
	
		.st16{fill:url(#SVGID_00000146457950477233926480000000585790805813875606_);stroke:#000000;stroke-width:4.8265;stroke-linecap:round;stroke-linejoin:round;}
	
		.st17{fill:url(#SVGID_00000069359956453505923070000004395462507690141081_);stroke:#000000;stroke-width:4.8265;stroke-linecap:round;stroke-linejoin:round;}
	.st18{fill:url(#SVGID_00000013190895719629547360000001883084920718976169_);}
	.st19{fill:#FFFFFF;}
	.st20{fill:url(#SVGID_00000051372655573660568850000014359019974169788073_);}
	.st21{fill:url(#SVGID_00000021813327315927948610000000990014052328886194_);}
	.st22{fill:url(#SVGID_00000026163549602636154460000014705510442213245583_);}
	.st23{fill:url(#SVGID_00000085961522087528512190000009674264182905595548_);}
	.st24{fill:url(#SVGID_00000007404974441725737790000009430202309382656444_);}
	.st25{fill:url(#SVGID_00000144324948480206851370000017537858427664005289_);}
	.st26{fill:url(#SVGID_00000070110161274591422550000000496456139001547424_);}
	.st27{fill:url(#SVGID_00000136405555875462414820000007191673402225771659_);}
	.st28{fill:url(#SVGID_00000148630817936791834170000006142209137878001038_);}
	.st29{fill:url(#SVGID_00000082326962970928866570000011528079846816726928_);}
	.st30{fill:url(#SVGID_00000060030487189798944150000004421336503827007925_);}
	.st31{fill:url(#SVGID_00000106845859618749782220000011763307228644035774_);}
	.st32{fill:url(#SVGID_00000138541437148553080060000011910925027378095765_);}
	.st33{fill:url(#SVGID_00000147913393207605518010000004191225369513506999_);}
	.st34{fill:url(#SVGID_00000107582137195159359050000009026844526886899092_);}
	.st35{fill:url(#SVGID_00000005960529687816883580000012023065116231642020_);}
	.st36{fill:url(#SVGID_00000056388353700208483960000009406222347952262023_);}
	.st37{fill:url(#SVGID_00000089551955063274695800000010817032931515516553_);}
	.st38{fill:url(#SVGID_00000138551611063290078150000018321559141730203580_);}
	.st39{fill:url(#SVGID_00000138564277308437471760000001655043651028534693_);}
	
		.st40{fill:url(#SVGID_00000170247934911586705210000007357650606840630940_);stroke:#FFFFFF;stroke-width:4.8265;stroke-linecap:round;stroke-linejoin:round;}
	
		.st41{fill:url(#SVGID_00000043423051383576079460000007954654193322151581_);stroke:#FFFFFF;stroke-width:4.8265;stroke-linecap:round;stroke-linejoin:round;}
	
		.st42{fill:url(#SVGID_00000001642149637923902740000015931680616589721016_);stroke:#FFFFFF;stroke-width:4.8265;stroke-linecap:round;stroke-linejoin:round;}
	
		.st43{fill:url(#SVGID_00000147923027366757355920000004120905763281222588_);stroke:#FFFFFF;stroke-width:4.8265;stroke-linecap:round;stroke-linejoin:round;}
	.st44{fill:url(#SVGID_00000010311377841953928260000004338478449539811980_);}
	.st45{fill:url(#SVGID_00000126290987447103581170000012777125378945357496_);}
	.st46{fill:url(#SVGID_00000067946617074251469310000003309740105530141086_);}
	.st47{fill:url(#SVGID_00000021116769615494486560000016394580586939574202_);}
	.st48{fill:url(#SVGID_00000092453356117766593640000014000615698894976959_);}
	.st49{fill:url(#SVGID_00000108288441787115921820000007010254797162021299_);}
	.st50{fill:url(#SVGID_00000037682148917083633980000014263274296266001847_);}
</style>
<g>
	<g>
		<path class="st13" d="M1516.257,1211.753c-0.182-0.158-0.339-0.329-0.529-0.484c-0.18-0.155-0.336-0.324-0.525-0.476
			c-0.181-0.158-0.338-0.329-0.528-0.482c-0.181-0.158-0.337-0.327-0.527-0.482c-0.181-0.155-0.338-0.327-0.527-0.479
			c-0.18-0.158-0.337-0.327-0.526-0.479c-0.182-0.158-0.339-0.329-0.529-0.482c-0.18-0.158-0.336-0.327-0.525-0.479
			c-0.181-0.158-0.338-0.329-0.528-0.482c-0.181-0.158-0.338-0.327-0.527-0.479c-0.181-0.158-0.338-0.329-0.527-0.482
			c-0.18-0.158-0.337-0.327-0.526-0.479c-0.181-0.158-0.338-0.327-0.528-0.482c-0.181-0.155-0.338-0.327-0.527-0.479
			c-0.181-0.158-0.338-0.329-0.527-0.482c-0.181-0.155-0.338-0.327-0.527-0.479c-0.181-0.158-0.337-0.327-0.527-0.482
			c-0.181-0.155-0.338-0.327-0.527-0.479c-0.18-0.158-0.337-0.327-0.526-0.479c-0.182-0.158-0.339-0.329-0.529-0.482
			c-0.18-0.158-0.336-0.327-0.525-0.479c-0.181-0.158-0.339-0.329-0.528-0.482c-0.181-0.158-0.338-0.327-0.527-0.479
			c-0.181-0.158-0.337-0.329-0.527-0.482c-0.18-0.158-0.337-0.327-0.526-0.479c-0.181-0.158-0.338-0.327-0.528-0.482
			c-0.181-0.155-0.338-0.327-0.527-0.479c-0.181-0.158-0.337-0.329-0.527-0.482c-0.18-0.155-0.337-0.327-0.526-0.479
			c-0.182-0.158-0.339-0.329-0.529-0.482c-0.18-0.158-0.336-0.327-0.525-0.479c-0.181-0.158-0.338-0.327-0.528-0.482
			c-0.181-0.155-0.337-0.327-0.527-0.479c-0.181-0.158-0.337-0.327-0.527-0.479c-0.18-0.158-0.337-0.327-0.526-0.482
			c-0.182-0.158-0.339-0.327-0.529-0.482c-0.18-0.155-0.336-0.327-0.525-0.479c-0.181-0.155-0.338-0.327-0.528-0.479
			c-0.181-0.158-0.338-0.329-0.528-0.482c-0.18-0.158-0.336-0.327-0.525-0.479c-0.181-0.158-0.339-0.327-0.528-0.482
			c-0.18-0.155-0.337-0.327-0.526-0.479c-0.182-0.158-0.339-0.329-0.529-0.482c-0.18-0.155-0.336-0.327-0.525-0.479
			c-0.181-0.158-0.339-0.327-0.528-0.482c-0.181-0.155-0.337-0.327-0.527-0.479c-0.181-0.158-0.337-0.327-0.526-0.479
			c-0.18-0.158-0.337-0.327-0.526-0.482c-0.182-0.158-0.339-0.327-0.529-0.482c-0.18-0.155-0.336-0.327-0.525-0.479
			c-0.181-0.155-0.338-0.327-0.528-0.479c-0.181-0.158-0.337-0.327-0.526-0.482c-0.181-0.155-0.338-0.327-0.527-0.479
			c-0.18-0.158-0.337-0.327-0.526-0.479c-0.181-0.158-0.338-0.329-0.528-0.482c-0.181-0.158-0.337-0.327-0.527-0.482
			c-0.181-0.155-0.338-0.327-0.527-0.479c-0.18-0.158-0.337-0.327-0.526-0.479c-0.182-0.158-0.339-0.329-0.529-0.482
			c-0.18-0.158-0.336-0.327-0.525-0.479c-0.181-0.158-0.338-0.329-0.528-0.482c-0.181-0.158-0.338-0.327-0.527-0.479
			c-0.181-0.158-0.337-0.329-0.527-0.482c-0.181-0.158-0.338-0.327-0.527-0.479c-0.181-0.158-0.337-0.327-0.527-0.482
			c-0.181-0.158-0.338-0.327-0.527-0.479c-0.18-0.158-0.337-0.327-0.526-0.479c-0.181-0.158-0.338-0.329-0.528-0.482
			c-0.181-0.158-0.337-0.327-0.527-0.482c-0.181-0.155-0.338-0.327-0.527-0.479c-0.18-0.158-0.337-0.327-0.526-0.479
			c-0.182-0.158-0.339-0.329-0.529-0.482c-0.18-0.158-0.336-0.327-0.525-0.479c-0.181-0.158-0.338-0.329-0.528-0.482
			c-0.181-0.158-0.338-0.327-0.527-0.479c-0.696-0.607-1.473-1.173-2.294-1.714c-0.563-1.736-1.112-3.483-1.475-5.288
			c-2.191-10.867-3.286-25.342-3.286-43.429l-27.875-450.881c0-24.052-2.558-39.673-7.643-46.896
			c-0.754-1.067-1.633-2.027-2.576-2.934c-0.165-0.171-0.357-0.318-0.529-0.484c-0.164-0.169-0.355-0.313-0.525-0.476
			c-0.165-0.171-0.357-0.318-0.528-0.482c-0.164-0.171-0.356-0.316-0.527-0.482c-0.165-0.169-0.356-0.316-0.527-0.479
			c-0.164-0.169-0.356-0.316-0.526-0.479c-0.165-0.171-0.358-0.318-0.529-0.482c-0.164-0.169-0.355-0.316-0.525-0.479
			c-0.165-0.169-0.357-0.318-0.528-0.482c-0.164-0.169-0.356-0.316-0.527-0.482c-0.165-0.169-0.356-0.316-0.527-0.479
			c-0.164-0.169-0.355-0.316-0.526-0.479c-0.165-0.169-0.357-0.318-0.529-0.482c-0.164-0.169-0.355-0.316-0.526-0.479
			c-0.164-0.171-0.355-0.316-0.526-0.479c-0.165-0.171-0.357-0.318-0.528-0.482c-0.164-0.171-0.356-0.316-0.527-0.482
			c-0.165-0.169-0.356-0.316-0.527-0.479c-0.164-0.169-0.355-0.316-0.526-0.479c-0.165-0.171-0.358-0.318-0.529-0.482
			c-0.164-0.169-0.355-0.316-0.525-0.479c-0.165-0.169-0.357-0.318-0.528-0.482c-0.164-0.169-0.356-0.316-0.527-0.482
			c-0.165-0.169-0.356-0.316-0.527-0.479c-0.164-0.169-0.355-0.316-0.526-0.479c-0.165-0.169-0.358-0.318-0.529-0.482
			c-0.164-0.169-0.355-0.316-0.525-0.479c-0.165-0.169-0.357-0.316-0.528-0.482c-0.164-0.169-0.355-0.316-0.526-0.479
			c-0.165-0.169-0.357-0.318-0.529-0.482c-0.164-0.169-0.355-0.316-0.525-0.479c-0.165-0.169-0.357-0.316-0.528-0.482
			c-0.164-0.169-0.356-0.316-0.527-0.479c-0.165-0.169-0.356-0.316-0.527-0.482c-0.164-0.169-0.355-0.313-0.526-0.479
			c-0.165-0.169-0.358-0.316-0.529-0.482c-0.164-0.169-0.355-0.316-0.526-0.479c-0.164-0.169-0.355-0.316-0.526-0.479
			c-0.165-0.169-0.358-0.318-0.529-0.482c-0.164-0.169-0.355-0.316-0.525-0.479c-0.165-0.169-0.357-0.316-0.528-0.482
			c-0.164-0.169-0.355-0.316-0.526-0.479c-0.165-0.169-0.357-0.318-0.529-0.482c-0.164-0.169-0.355-0.316-0.525-0.479
			c-0.165-0.169-0.357-0.316-0.528-0.482c-0.164-0.169-0.356-0.316-0.527-0.479c-0.165-0.169-0.356-0.316-0.527-0.482
			c-0.164-0.169-0.355-0.313-0.526-0.479c-0.165-0.169-0.358-0.316-0.529-0.482c-0.164-0.169-0.355-0.313-0.525-0.479
			c-0.165-0.169-0.357-0.316-0.528-0.479c-0.164-0.171-0.356-0.318-0.527-0.482c-0.165-0.169-0.356-0.316-0.527-0.479
			c-0.164-0.171-0.355-0.316-0.526-0.479c-0.165-0.171-0.358-0.318-0.529-0.484c-0.164-0.169-0.355-0.313-0.525-0.476
			c-0.165-0.171-0.357-0.318-0.528-0.482c-0.164-0.169-0.356-0.316-0.526-0.479c-0.165-0.172-0.358-0.318-0.529-0.482
			c-0.164-0.169-0.355-0.316-0.525-0.479c-0.165-0.169-0.357-0.318-0.528-0.482c-0.165-0.171-0.357-0.316-0.528-0.482
			c-0.164-0.169-0.355-0.313-0.525-0.479c-0.165-0.169-0.357-0.316-0.528-0.479c-0.164-0.171-0.356-0.318-0.527-0.482
			c-0.165-0.169-0.356-0.316-0.527-0.479c-0.164-0.171-0.355-0.316-0.526-0.479c-0.165-0.171-0.358-0.318-0.529-0.484
			c-0.164-0.169-0.355-0.313-0.525-0.476c-0.165-0.171-0.357-0.318-0.528-0.482c-0.164-0.169-0.355-0.316-0.526-0.479
			c-0.165-0.171-0.357-0.318-0.529-0.482c-0.164-0.169-0.355-0.316-0.525-0.479c-0.165-0.169-0.357-0.318-0.528-0.482
			c-0.164-0.169-0.356-0.316-0.527-0.482c-5.406-5.568-14.161-8.363-26.273-8.363c-12.589,0-21.888,2.406-27.875,7.193
			c-5.996,4.809-16.184,17.983-30.572,39.564l-284.152,404.617l-16.184,23.377l-16.188,22.482l-15.286,23.377l-35.051,44.073
			c-10.789,11.395-24.123,17.983-40.015,19.782c-15.874,1.799-26.667,4.648-32.372,8.54c-5.686,3.905-8.541,10.341-8.541,19.336
			c0,5.427,1.828,9.481,5.468,12.178c0.185,0.152,0.331,0.335,0.527,0.482c0.185,0.152,0.331,0.335,0.527,0.479
			c0.185,0.152,0.33,0.335,0.526,0.479c0.185,0.155,0.332,0.337,0.528,0.482c0.185,0.152,0.331,0.335,0.527,0.482
			c0.185,0.152,0.331,0.335,0.527,0.479c0.185,0.152,0.331,0.335,0.527,0.479c0.185,0.152,0.332,0.338,0.527,0.482
			c0.185,0.152,0.331,0.335,0.526,0.479c0.185,0.152,0.331,0.335,0.526,0.482c0.186,0.152,0.332,0.335,0.528,0.479
			c0.185,0.155,0.33,0.335,0.525,0.479c0.185,0.155,0.331,0.338,0.527,0.482c0.185,0.152,0.332,0.335,0.527,0.482
			c0.185,0.152,0.331,0.335,0.526,0.479c0.185,0.152,0.331,0.335,0.526,0.479c0.185,0.155,0.331,0.337,0.527,0.482
			c0.185,0.152,0.332,0.335,0.527,0.482c0.185,0.152,0.331,0.335,0.526,0.479c0.185,0.152,0.331,0.335,0.526,0.479
			c0.186,0.155,0.332,0.337,0.528,0.482c0.185,0.152,0.33,0.335,0.525,0.479c0.185,0.152,0.331,0.335,0.527,0.482
			c0.185,0.152,0.332,0.335,0.527,0.479c0.185,0.152,0.331,0.338,0.527,0.482c0.185,0.152,0.33,0.335,0.526,0.479
			c0.186,0.152,0.332,0.335,0.528,0.482c0.185,0.152,0.33,0.335,0.525,0.479c0.185,0.152,0.332,0.335,0.528,0.482
			c0.185,0.152,0.332,0.335,0.528,0.479c0.185,0.152,0.33,0.335,0.525,0.479c0.185,0.155,0.331,0.335,0.527,0.482
			c0.185,0.152,0.331,0.335,0.526,0.479c0.186,0.155,0.332,0.337,0.528,0.482c0.185,0.152,0.33,0.335,0.525,0.479
			c0.185,0.152,0.331,0.335,0.527,0.482c0.185,0.152,0.332,0.335,0.527,0.479c0.185,0.152,0.331,0.335,0.526,0.482
			c0.185,0.152,0.331,0.335,0.526,0.479c0.186,0.152,0.332,0.335,0.528,0.482c0.185,0.152,0.33,0.335,0.525,0.479
			c0.185,0.152,0.331,0.335,0.527,0.479c0.185,0.155,0.332,0.337,0.527,0.482c0.185,0.152,0.331,0.335,0.526,0.479
			c0.185,0.155,0.331,0.335,0.526,0.482c0.185,0.152,0.331,0.335,0.527,0.479c0.185,0.152,0.332,0.338,0.527,0.482
			c0.185,0.152,0.331,0.335,0.527,0.479c0.185,0.155,0.33,0.335,0.526,0.482c0.186,0.152,0.332,0.335,0.528,0.479
			c0.185,0.152,0.33,0.335,0.525,0.479c0.185,0.155,0.332,0.338,0.528,0.482c0.185,0.155,0.332,0.335,0.528,0.482
			c0.185,0.152,0.33,0.335,0.525,0.479c0.185,0.152,0.331,0.335,0.527,0.479c0.185,0.155,0.332,0.337,0.527,0.482
			c0.185,0.152,0.331,0.335,0.526,0.479c0.185,0.155,0.331,0.335,0.526,0.482c0.185,0.152,0.331,0.335,0.527,0.479
			c0.185,0.152,0.332,0.337,0.527,0.482c0.185,0.152,0.331,0.335,0.526,0.479c0.185,0.152,0.331,0.335,0.526,0.482
			c0.186,0.152,0.332,0.335,0.528,0.479c0.185,0.155,0.33,0.335,0.525,0.479c0.185,0.155,0.331,0.337,0.527,0.482
			c0.185,0.152,0.332,0.335,0.527,0.482c0.185,0.152,0.331,0.335,0.526,0.479c0.185,0.152,0.331,0.335,0.526,0.479
			c0.186,0.155,0.332,0.338,0.528,0.482c0.185,0.152,0.33,0.335,0.525,0.479c0.185,0.155,0.331,0.335,0.527,0.482
			c0.185,0.152,0.332,0.335,0.527,0.479c0.185,0.155,0.331,0.337,0.527,0.482c0.185,0.152,0.33,0.335,0.526,0.479
			c0.185,0.152,0.332,0.335,0.528,0.482c3.589,2.964,9.101,4.485,16.641,4.485h24.276l76.43-5.397l59.344,3.23l34.171,2.166
			c19.177,0,28.773-6.912,28.773-20.767c0-4.741-1.473-8.662-4.255-11.852c-0.744-0.944-1.585-1.834-2.555-2.651
			c-0.177-0.158-0.343-0.324-0.528-0.479c-0.176-0.161-0.341-0.327-0.525-0.479c-0.177-0.161-0.343-0.327-0.527-0.482
			c-0.177-0.161-0.343-0.327-0.528-0.482c-0.176-0.158-0.341-0.324-0.525-0.479c-0.177-0.158-0.343-0.324-0.528-0.479
			c-0.176-0.161-0.342-0.327-0.526-0.482c-0.177-0.161-0.343-0.324-0.528-0.482c-0.176-0.158-0.341-0.324-0.525-0.479
			c-0.177-0.158-0.343-0.324-0.527-0.479c-0.176-0.161-0.343-0.327-0.527-0.482c-0.176-0.161-0.342-0.324-0.527-0.479
			c-0.176-0.161-0.342-0.324-0.526-0.482c-0.177-0.158-0.343-0.324-0.528-0.479c-0.176-0.161-0.341-0.327-0.525-0.479
			c-0.177-0.161-0.343-0.327-0.527-0.482c-0.176-0.161-0.343-0.324-0.527-0.482c-0.176-0.158-0.342-0.324-0.527-0.479
			c-0.176-0.161-0.342-0.324-0.526-0.479c-0.177-0.161-0.343-0.327-0.528-0.482c-0.176-0.161-0.341-0.324-0.525-0.479
			c-0.177-0.161-0.343-0.327-0.527-0.482c-0.176-0.158-0.342-0.324-0.526-0.479c-0.177-0.161-0.343-0.327-0.528-0.482
			c-0.176-0.161-0.341-0.324-0.525-0.479c-0.177-0.161-0.343-0.327-0.527-0.482c-0.176-0.158-0.343-0.324-0.527-0.479
			c-0.176-0.161-0.342-0.327-0.526-0.482c-0.176-0.158-0.343-0.324-0.527-0.479c-0.176-0.161-0.342-0.324-0.527-0.482
			c-0.176-0.158-0.342-0.324-0.527-0.479c-0.176-0.161-0.342-0.324-0.526-0.479c-0.177-0.161-0.343-0.327-0.528-0.482
			c-0.176-0.161-0.341-0.324-0.525-0.479c-0.177-0.161-0.343-0.327-0.527-0.482c-0.176-0.158-0.342-0.324-0.526-0.479
			c-0.177-0.161-0.343-0.327-0.528-0.482c-0.176-0.161-0.341-0.324-0.525-0.479c-0.177-0.161-0.343-0.327-0.527-0.482
			c-0.176-0.158-0.343-0.324-0.527-0.479c-0.176-0.161-0.342-0.327-0.527-0.482c-0.176-0.158-0.342-0.324-0.526-0.479
			c-0.177-0.161-0.343-0.327-0.528-0.482c-0.176-0.158-0.341-0.324-0.525-0.479c-0.177-0.158-0.343-0.327-0.527-0.479
			c-0.176-0.161-0.343-0.327-0.527-0.482c-0.176-0.161-0.342-0.324-0.526-0.479c-0.176-0.161-0.342-0.327-0.526-0.482
			c-0.177-0.158-0.343-0.324-0.527-0.479c-0.176-0.161-0.343-0.327-0.527-0.482c-0.176-0.161-0.342-0.324-0.526-0.479
			c-0.176-0.161-0.343-0.327-0.527-0.482c-0.176-0.158-0.342-0.324-0.527-0.479c-0.176-0.161-0.343-0.327-0.527-0.482
			c-0.176-0.158-0.342-0.324-0.526-0.479c-0.177-0.161-0.343-0.327-0.528-0.482c-0.176-0.158-0.341-0.324-0.525-0.479
			c-0.177-0.158-0.343-0.327-0.527-0.479c-0.176-0.161-0.343-0.327-0.527-0.482c-0.176-0.161-0.342-0.324-0.526-0.479
			c-0.176-0.161-0.342-0.327-0.526-0.482c-0.177-0.158-0.343-0.324-0.528-0.479c-0.176-0.161-0.341-0.327-0.525-0.479
			c-0.177-0.161-0.343-0.327-0.527-0.482c-0.176-0.161-0.342-0.324-0.526-0.482c-0.177-0.158-0.343-0.324-0.528-0.479
			c-0.176-0.161-0.341-0.327-0.525-0.479c-0.177-0.161-0.343-0.327-0.527-0.482c-0.176-0.161-0.343-0.327-0.527-0.482
			c-0.176-0.158-0.342-0.324-0.526-0.479c-0.176-0.161-0.342-0.324-0.526-0.479c-0.177-0.161-0.343-0.327-0.528-0.482
			c-0.176-0.161-0.341-0.324-0.525-0.479c-0.259-0.234-0.536-0.457-0.812-0.68c-0.594-0.512-1.321-0.95-2.002-1.41
			c-0.321-0.207-0.579-0.446-0.918-0.642c-3.865-2.354-8.938-4.033-15.318-4.988c-4.452-0.528-8.62-1.165-12.511-1.905
			c1.185-7.849,4.606-17.009,10.355-27.516c3.02-7.22,8.15-16.862,15.398-28.901c3.626-6.009,9.358-15.354,17.211-28.001
			l28.073-42.443h143.151l2.437,42.631v36.867c0,16.786-2.697,28.629-8.092,35.515c-5.395,6.896-15.892,11.242-31.47,13.041
			c-15.595,1.796-26.232,4.493-31.923,8.094c-5.704,3.592-8.541,9.299-8.541,17.08c0,5.791,1.797,10.091,5.355,12.938
			c0.178,0.158,0.339,0.329,0.528,0.482c0.178,0.158,0.339,0.329,0.527,0.479c0.178,0.158,0.339,0.329,0.527,0.482
			c0.178,0.158,0.339,0.329,0.526,0.479c0.178,0.158,0.34,0.329,0.528,0.482c0.178,0.158,0.338,0.329,0.525,0.479
			c0.178,0.158,0.339,0.329,0.528,0.479c0.178,0.161,0.339,0.329,0.526,0.482c0.178,0.158,0.34,0.329,0.528,0.479
			c0.178,0.158,0.338,0.332,0.525,0.479c0.178,0.161,0.339,0.332,0.528,0.482c0.178,0.158,0.339,0.332,0.527,0.482
			c0.178,0.158,0.339,0.329,0.527,0.479c0.177,0.158,0.339,0.329,0.526,0.479c0.178,0.161,0.34,0.332,0.528,0.482
			c0.178,0.158,0.339,0.329,0.526,0.482c0.178,0.158,0.339,0.329,0.526,0.479c0.178,0.158,0.34,0.329,0.528,0.482
			c0.178,0.158,0.338,0.329,0.525,0.479c0.178,0.158,0.339,0.329,0.528,0.479c0.178,0.161,0.339,0.329,0.526,0.482
			c0.178,0.158,0.34,0.329,0.528,0.479c0.178,0.158,0.338,0.332,0.525,0.479c0.178,0.161,0.339,0.332,0.528,0.482
			c0.178,0.158,0.339,0.332,0.527,0.482c0.178,0.158,0.339,0.329,0.527,0.479c0.177,0.158,0.338,0.329,0.526,0.479
			c0.178,0.161,0.34,0.332,0.528,0.482c0.177,0.158,0.338,0.329,0.525,0.479c0.178,0.158,0.339,0.332,0.528,0.482
			c0.177,0.158,0.339,0.329,0.527,0.479c0.178,0.161,0.339,0.332,0.527,0.482c0.178,0.158,0.339,0.329,0.526,0.479
			c0.178,0.158,0.34,0.332,0.528,0.482c0.178,0.158,0.338,0.329,0.525,0.479c0.178,0.158,0.339,0.332,0.528,0.482
			c0.178,0.158,0.339,0.329,0.526,0.479c0.178,0.158,0.34,0.332,0.528,0.482c0.177,0.158,0.338,0.329,0.525,0.479
			c0.178,0.158,0.339,0.329,0.528,0.482c0.178,0.158,0.34,0.329,0.528,0.479c0.177,0.158,0.338,0.329,0.525,0.479
			c0.178,0.158,0.34,0.332,0.528,0.482c0.177,0.158,0.339,0.329,0.527,0.479c0.178,0.161,0.339,0.332,0.527,0.482
			c0.178,0.158,0.339,0.329,0.526,0.479c0.178,0.158,0.34,0.332,0.528,0.482c0.178,0.158,0.338,0.329,0.525,0.479
			c0.178,0.158,0.339,0.332,0.528,0.482c0.178,0.158,0.339,0.329,0.526,0.479c0.178,0.158,0.34,0.332,0.528,0.482
			c0.178,0.158,0.338,0.329,0.525,0.479c0.178,0.158,0.339,0.329,0.528,0.482c0.178,0.158,0.339,0.329,0.527,0.479
			c0.178,0.158,0.339,0.329,0.527,0.482c0.178,0.158,0.339,0.329,0.526,0.479c0.178,0.158,0.34,0.329,0.528,0.482
			c0.178,0.158,0.338,0.329,0.525,0.479c0.178,0.158,0.339,0.329,0.528,0.479c0.178,0.161,0.339,0.332,0.527,0.482
			c0.178,0.158,0.339,0.329,0.527,0.479c0.177,0.158,0.338,0.329,0.526,0.479c0.178,0.161,0.339,0.332,0.528,0.482
			c0.178,0.158,0.339,0.332,0.528,0.482c0.178,0.158,0.338,0.329,0.525,0.479c0.178,0.158,0.339,0.329,0.528,0.482
			c0.178,0.158,0.339,0.329,0.527,0.479c0.178,0.158,0.339,0.329,0.527,0.482c0.178,0.158,0.339,0.329,0.526,0.479
			c0.178,0.158,0.34,0.329,0.528,0.482c0.178,0.158,0.338,0.329,0.525,0.479c0.178,0.158,0.339,0.329,0.528,0.479
			c0.178,0.161,0.339,0.332,0.527,0.482c0.178,0.158,0.339,0.329,0.527,0.479c0.177,0.158,0.338,0.329,0.526,0.479
			c3.441,3.064,8.696,4.632,15.852,4.632h29.675c22.772-0.898,44.198-2.025,64.29-3.372c20.075-1.353,38.507-2.025,55.296-2.025
			l52.964,2.697l28.772,2.7c17.984,0,26.977-6.602,26.977-19.839C1522.656,1219.74,1520.516,1215.195,1516.257,1211.753z
			 M1191.986,956.967l79.36-117.424l4.554,117.424H1191.986z"/>
		<path class="st13" d="M2635.806,1210.046c-0.159-0.169-0.357-0.316-0.526-0.479c-0.16-0.172-0.359-0.318-0.528-0.482
			c-0.16-0.172-0.358-0.316-0.526-0.479c-0.16-0.171-0.359-0.316-0.527-0.482c-0.16-0.171-0.358-0.316-0.527-0.482
			c-0.16-0.169-0.359-0.316-0.527-0.479c-0.16-0.169-0.358-0.316-0.526-0.479c-0.16-0.172-0.359-0.316-0.528-0.482
			c-0.16-0.169-0.357-0.316-0.526-0.479c-0.16-0.172-0.359-0.316-0.528-0.482c-0.16-0.169-0.359-0.316-0.527-0.479
			c-0.159-0.171-0.357-0.316-0.525-0.479c-0.16-0.171-0.359-0.318-0.528-0.482c-0.159-0.169-0.357-0.316-0.526-0.479
			c-0.16-0.172-0.359-0.318-0.528-0.482c-0.16-0.171-0.358-0.316-0.526-0.479c-0.16-0.172-0.359-0.316-0.527-0.482
			c-0.16-0.172-0.358-0.316-0.527-0.482c-0.16-0.169-0.359-0.316-0.527-0.479c-0.16-0.169-0.358-0.316-0.526-0.479
			c-0.16-0.171-0.359-0.316-0.528-0.482c-0.159-0.169-0.357-0.316-0.526-0.479c-0.16-0.171-0.358-0.316-0.527-0.482
			c-0.16-0.169-0.359-0.316-0.527-0.479c-0.16-0.172-0.358-0.316-0.527-0.482c-0.16-0.169-0.358-0.313-0.526-0.479
			c-0.16-0.169-0.359-0.316-0.527-0.482c-0.16-0.169-0.359-0.316-0.527-0.479c-0.16-0.171-0.359-0.316-0.527-0.479
			c-0.159-0.171-0.357-0.316-0.526-0.482c-0.16-0.169-0.359-0.316-0.528-0.482c-0.16-0.169-0.358-0.313-0.526-0.479
			c-0.16-0.169-0.359-0.316-0.527-0.479c-0.16-0.172-0.359-0.316-0.528-0.482c-0.159-0.172-0.357-0.316-0.526-0.479
			c-0.16-0.171-0.358-0.316-0.527-0.482c-0.16-0.169-0.359-0.316-0.527-0.479c-0.16-0.171-0.358-0.316-0.527-0.482
			c-0.16-0.169-0.358-0.313-0.526-0.479c-0.16-0.169-0.359-0.316-0.527-0.482c-0.16-0.169-0.359-0.316-0.527-0.479
			c-0.16-0.172-0.359-0.316-0.527-0.479c-0.159-0.171-0.357-0.316-0.526-0.482c-0.16-0.169-0.359-0.316-0.528-0.482
			c-0.16-0.169-0.358-0.313-0.526-0.479c-0.16-0.169-0.359-0.316-0.527-0.479c-0.16-0.172-0.358-0.316-0.527-0.482
			c-0.16-0.169-0.359-0.316-0.527-0.479c-0.16-0.172-0.358-0.316-0.526-0.482c-0.16-0.169-0.359-0.316-0.528-0.479
			c-0.16-0.171-0.358-0.316-0.526-0.479c-0.16-0.171-0.359-0.318-0.528-0.482c-0.16-0.171-0.358-0.316-0.527-0.482
			c-0.16-0.169-0.359-0.316-0.527-0.479c-0.16-0.169-0.358-0.316-0.526-0.479c-0.16-0.172-0.359-0.316-0.527-0.482
			c-0.16-0.172-0.359-0.316-0.527-0.482c-0.16-0.169-0.358-0.316-0.527-0.479c-0.16-0.169-0.358-0.316-0.527-0.479
			c-0.159-0.171-0.358-0.316-0.527-0.482c-0.16-0.169-0.359-0.316-0.527-0.479c-0.16-0.172-0.358-0.316-0.526-0.482
			c-0.16-0.169-0.359-0.316-0.528-0.479c-0.16-0.172-0.358-0.316-0.526-0.479c-0.16-0.172-0.358-0.318-0.527-0.482
			c-0.16-0.172-0.358-0.316-0.527-0.482c-0.16-0.169-0.359-0.316-0.527-0.479c-0.16-0.169-0.358-0.316-0.526-0.479
			c-0.16-0.171-0.359-0.316-0.527-0.482c-0.16-0.171-0.359-0.316-0.527-0.482c-0.16-0.169-0.359-0.316-0.527-0.479
			c-0.159-0.169-0.357-0.316-0.526-0.479c-0.16-0.172-0.359-0.316-0.528-0.482c-0.16-0.169-0.358-0.316-0.526-0.479
			c-4.482-4.765-12.47-7.342-23.752-7.862c0.463-9.993,3.112-23.633,7.996-41.009l113.294-394.735
			c5.987-19.782,11.691-32.668,17.086-38.663c5.395-5.987,16.031-10.341,31.918-13.038c15.879-2.697,26.821-5.848,32.821-9.443
			c5.987-3.595,8.994-9.286,8.994-17.085c0-5.878-1.635-10.211-4.835-13.057c-0.168-0.166-0.35-0.321-0.528-0.479
			c-0.168-0.169-0.349-0.324-0.527-0.482c-0.168-0.166-0.349-0.321-0.527-0.479c-0.168-0.169-0.349-0.324-0.526-0.482
			c-0.168-0.166-0.349-0.321-0.527-0.479c-0.168-0.169-0.349-0.324-0.527-0.482c-0.168-0.166-0.349-0.321-0.527-0.479
			c-0.168-0.166-0.349-0.321-0.526-0.479c-0.168-0.169-0.35-0.324-0.528-0.482c-0.168-0.169-0.348-0.321-0.525-0.479
			c-0.168-0.169-0.35-0.324-0.528-0.482c-0.168-0.166-0.349-0.321-0.527-0.479c-0.168-0.169-0.349-0.324-0.527-0.482
			c-0.168-0.166-0.349-0.321-0.526-0.479c-0.168-0.169-0.35-0.324-0.528-0.482c-0.168-0.166-0.348-0.321-0.525-0.479
			c-0.168-0.166-0.35-0.324-0.528-0.482c-0.168-0.166-0.349-0.321-0.526-0.479c-0.168-0.169-0.35-0.324-0.528-0.482
			c-0.168-0.166-0.349-0.321-0.526-0.479c-0.168-0.169-0.349-0.321-0.526-0.479c-0.168-0.169-0.35-0.324-0.528-0.482
			c-0.168-0.169-0.348-0.321-0.525-0.479c-0.168-0.169-0.35-0.324-0.528-0.482c-0.168-0.166-0.349-0.321-0.527-0.479
			c-0.168-0.169-0.349-0.324-0.527-0.482c-0.168-0.166-0.349-0.321-0.526-0.479c-0.168-0.169-0.35-0.324-0.528-0.482
			c-0.168-0.166-0.348-0.321-0.525-0.479c-0.168-0.166-0.35-0.324-0.528-0.482c-0.168-0.166-0.349-0.321-0.526-0.479
			c-0.168-0.169-0.35-0.324-0.528-0.482c-0.168-0.166-0.348-0.321-0.526-0.479c-0.168-0.166-0.349-0.321-0.527-0.482
			c-0.168-0.166-0.349-0.321-0.527-0.479c-0.168-0.169-0.349-0.321-0.527-0.479c-0.167-0.169-0.349-0.324-0.526-0.482
			c-0.168-0.166-0.35-0.324-0.528-0.482c-0.168-0.166-0.348-0.321-0.525-0.479c-0.168-0.166-0.35-0.321-0.528-0.479
			c-0.168-0.169-0.349-0.324-0.527-0.482c-0.168-0.166-0.349-0.321-0.527-0.479c-0.168-0.169-0.349-0.324-0.526-0.482
			c-0.168-0.166-0.35-0.321-0.528-0.479c-0.168-0.169-0.349-0.324-0.526-0.482c-0.168-0.166-0.349-0.321-0.526-0.479
			c-0.168-0.166-0.349-0.321-0.527-0.482c-0.168-0.166-0.349-0.321-0.527-0.479c-0.168-0.169-0.349-0.321-0.527-0.479
			c-0.168-0.169-0.349-0.324-0.526-0.482c-0.168-0.166-0.35-0.324-0.528-0.482c-0.167-0.166-0.348-0.321-0.525-0.479
			c-0.168-0.166-0.35-0.321-0.528-0.479c-0.168-0.169-0.349-0.324-0.527-0.482c-0.168-0.166-0.349-0.321-0.527-0.479
			c-0.168-0.169-0.349-0.324-0.526-0.482c-0.168-0.166-0.35-0.321-0.528-0.479c-0.168-0.169-0.348-0.321-0.525-0.479
			c-0.168-0.169-0.35-0.324-0.528-0.482c-0.168-0.169-0.349-0.321-0.526-0.479c-0.168-0.169-0.35-0.324-0.528-0.482
			c-0.168-0.169-0.348-0.321-0.526-0.479c-0.168-0.169-0.349-0.324-0.527-0.482c-0.168-0.166-0.349-0.321-0.527-0.479
			c-0.168-0.169-0.349-0.324-0.527-0.482c-0.168-0.166-0.349-0.321-0.526-0.479c-0.168-0.169-0.35-0.324-0.528-0.482
			c-0.168-0.166-0.349-0.321-0.526-0.479c-0.168-0.169-0.349-0.324-0.526-0.482c-0.168-0.166-0.35-0.321-0.528-0.479
			c-0.168-0.169-0.348-0.321-0.525-0.479c-0.168-0.169-0.35-0.324-0.528-0.482c-0.168-0.169-0.349-0.321-0.526-0.479
			c-0.168-0.169-0.35-0.324-0.528-0.482c-0.168-0.169-0.348-0.321-0.526-0.479c-2.996-2.988-7.539-4.507-13.674-4.507l-47.658,2.879
			c-22.79,2.879-62.944,4.311-120.489,4.311c-7.8,0-17.396,0-28.772,0c-11.395,0-18.293,0-20.685,0h-41.361
			c-8.402,0-14.99,2.011-19.779,6.028c-4.807,4.022-7.194,9.457-7.194,16.342c0,4.477,1.509,8.05,4.433,10.78
			c0.163,0.166,0.353,0.318,0.527,0.479c0.163,0.169,0.353,0.318,0.526,0.479c0.163,0.169,0.354,0.321,0.528,0.482
			c0.163,0.169,0.354,0.318,0.527,0.479c0.163,0.169,0.354,0.321,0.527,0.482c0.163,0.166,0.354,0.318,0.526,0.479
			c0.163,0.169,0.354,0.318,0.528,0.482c0.162,0.169,0.353,0.318,0.526,0.479c0.163,0.169,0.354,0.321,0.527,0.482
			c0.163,0.166,0.354,0.318,0.527,0.479c0.163,0.169,0.354,0.318,0.527,0.482c0.163,0.166,0.354,0.318,0.526,0.479
			c0.163,0.169,0.354,0.318,0.528,0.482c0.162,0.166,0.353,0.318,0.526,0.479c0.163,0.169,0.354,0.318,0.527,0.482
			c0.163,0.166,0.354,0.318,0.527,0.479c0.163,0.169,0.354,0.318,0.527,0.479c0.163,0.169,0.354,0.321,0.527,0.482
			c0.163,0.166,0.354,0.318,0.526,0.479c0.163,0.169,0.354,0.321,0.528,0.482c0.162,0.169,0.353,0.318,0.526,0.479
			c0.163,0.169,0.354,0.321,0.527,0.482c0.163,0.166,0.354,0.318,0.527,0.479c0.163,0.169,0.354,0.318,0.527,0.482
			c0.163,0.166,0.354,0.318,0.526,0.479c0.163,0.169,0.354,0.318,0.528,0.482c0.162,0.166,0.353,0.318,0.526,0.479
			c0.163,0.169,0.354,0.318,0.527,0.482c0.163,0.166,0.354,0.316,0.526,0.479c0.163,0.169,0.354,0.318,0.528,0.482
			c0.162,0.166,0.353,0.318,0.526,0.479c0.163,0.166,0.354,0.318,0.528,0.482c0.163,0.166,0.354,0.316,0.527,0.479
			c0.163,0.169,0.354,0.318,0.527,0.479c0.163,0.169,0.354,0.318,0.526,0.482c0.163,0.166,0.354,0.318,0.528,0.482
			c0.162,0.166,0.353,0.316,0.526,0.479c0.163,0.166,0.354,0.318,0.527,0.479c0.163,0.169,0.354,0.318,0.528,0.482
			c0.162,0.166,0.353,0.318,0.526,0.479c0.163,0.169,0.354,0.318,0.527,0.482c0.163,0.166,0.354,0.318,0.527,0.479
			c0.163,0.169,0.353,0.318,0.527,0.479c0.163,0.169,0.353,0.321,0.526,0.482c0.163,0.166,0.354,0.318,0.528,0.482
			c0.163,0.166,0.354,0.316,0.527,0.479c0.163,0.169,0.354,0.318,0.527,0.479c0.163,0.169,0.354,0.318,0.526,0.482
			c0.163,0.166,0.354,0.318,0.528,0.482c0.162,0.166,0.353,0.316,0.526,0.479c0.163,0.166,0.354,0.318,0.527,0.479
			c0.163,0.169,0.354,0.318,0.527,0.482c0.163,0.166,0.354,0.318,0.527,0.479c0.163,0.169,0.354,0.318,0.526,0.479
			c0.163,0.169,0.354,0.321,0.528,0.482c0.162,0.169,0.353,0.318,0.526,0.479c0.163,0.169,0.354,0.321,0.527,0.482
			c0.163,0.166,0.353,0.318,0.526,0.479c0.163,0.169,0.354,0.321,0.528,0.482c0.162,0.169,0.353,0.318,0.525,0.479
			c0.163,0.169,0.354,0.321,0.527,0.482c0.163,0.166,0.354,0.318,0.527,0.479c0.163,0.169,0.354,0.318,0.527,0.482
			c0.163,0.166,0.354,0.318,0.527,0.479c0.163,0.169,0.354,0.318,0.527,0.482c0.163,0.166,0.354,0.318,0.527,0.479
			c0.163,0.169,0.354,0.318,0.526,0.479c0.163,0.169,0.354,0.321,0.528,0.482c0.162,0.169,0.353,0.318,0.526,0.479
			c0.163,0.169,0.354,0.321,0.527,0.482c0.163,0.166,0.353,0.318,0.526,0.479c0.163,0.169,0.354,0.321,0.528,0.482
			c0.162,0.169,0.353,0.318,0.525,0.479c0.163,0.169,0.354,0.321,0.528,0.482c0.163,0.166,0.354,0.318,0.527,0.479
			c3.273,3.372,8.693,5.459,16.111,6.354c-1.035,4.482-2.454,9.843-4.302,16.198l-112.397,392.939
			c-9.6,34.167-16.498,54.399-20.681,60.696c-4.205,6.292-15.892,11.395-35.069,15.286c-19.19,3.905-31.474,7.195-36.869,9.892
			c-5.394,2.697-8.092,7.642-8.092,14.832c0,3.018,0.498,5.652,1.484,7.911c-0.084-0.076-0.193-0.136-0.278-0.21
			c-0.174-0.161-0.343-0.324-0.525-0.479c-0.175-0.161-0.345-0.324-0.528-0.479c-0.174-0.163-0.345-0.327-0.527-0.482
			c-0.174-0.161-0.344-0.324-0.526-0.479c-0.174-0.161-0.344-0.324-0.526-0.482c-0.175-0.161-0.345-0.324-0.529-0.482
			c-0.174-0.161-0.343-0.321-0.525-0.476c-0.175-0.163-0.344-0.327-0.528-0.482c-0.174-0.161-0.345-0.324-0.527-0.482
			c-0.174-0.161-0.344-0.324-0.527-0.479c-0.174-0.161-0.344-0.324-0.526-0.479c-0.175-0.163-0.345-0.327-0.528-0.482
			c-0.174-0.161-0.344-0.324-0.527-0.482c-0.174-0.161-0.344-0.324-0.527-0.479c-0.174-0.161-0.344-0.324-0.526-0.479
			c-0.175-0.163-0.346-0.327-0.529-0.482c-0.174-0.161-0.343-0.324-0.525-0.479c-0.175-0.161-0.345-0.324-0.528-0.482
			c-0.174-0.161-0.345-0.324-0.527-0.479c-0.174-0.163-0.344-0.324-0.527-0.482c-0.174-0.161-0.344-0.324-0.527-0.479
			c-0.174-0.161-0.344-0.324-0.527-0.482c-0.174-0.161-0.344-0.324-0.527-0.479c-0.174-0.161-0.344-0.324-0.526-0.479
			c-0.175-0.163-0.345-0.327-0.528-0.482c-0.174-0.161-0.344-0.324-0.527-0.482c-0.174-0.161-0.344-0.324-0.527-0.479
			c-0.174-0.161-0.344-0.324-0.526-0.479c-0.175-0.163-0.346-0.327-0.529-0.482c-0.174-0.161-0.343-0.324-0.525-0.479
			c-0.175-0.161-0.345-0.324-0.528-0.482c-0.174-0.161-0.345-0.324-0.527-0.479c-0.174-0.163-0.344-0.324-0.527-0.482
			c-0.174-0.161-0.344-0.324-0.526-0.479c-0.175-0.161-0.345-0.324-0.528-0.482c-0.174-0.161-0.343-0.324-0.525-0.479
			c-0.175-0.161-0.345-0.324-0.528-0.482c-0.174-0.161-0.344-0.324-0.526-0.479c-0.175-0.161-0.346-0.324-0.529-0.482
			c-0.174-0.161-0.343-0.324-0.525-0.479c-0.174-0.161-0.344-0.324-0.528-0.479c-0.174-0.163-0.344-0.327-0.527-0.482
			c-0.174-0.161-0.344-0.324-0.527-0.479c-0.174-0.161-0.344-0.324-0.526-0.482c-0.175-0.161-0.346-0.324-0.529-0.482
			c-0.174-0.161-0.344-0.324-0.526-0.479c-0.174-0.161-0.344-0.324-0.526-0.479c-0.175-0.161-0.345-0.324-0.529-0.482
			c-0.174-0.161-0.343-0.324-0.525-0.479c-0.175-0.161-0.344-0.324-0.528-0.482c-0.174-0.161-0.345-0.324-0.527-0.479
			c-0.174-0.161-0.344-0.324-0.527-0.482c-0.174-0.158-0.344-0.321-0.526-0.479c-0.174-0.161-0.344-0.324-0.528-0.479
			c-0.174-0.163-0.344-0.327-0.527-0.482c-0.174-0.161-0.344-0.324-0.527-0.479c-0.174-0.161-0.344-0.324-0.526-0.482
			c-3.895-3.592-9.808-6.023-17.807-7.247c-0.097-0.016-0.183-0.033-0.28-0.049c0.369-5.348,1.508-13.784,3.45-25.415
			c2.388-14.358,4.789-26.637,7.194-36.81l88.117-367.216c5.395-22.139,10.636-36.356,15.735-42.653
			c5.089-6.278,17.983-10.467,38.668-12.557c20.681-2.098,31.021-10.624,31.021-25.6c0-5.467-1.722-9.533-5.125-12.225
			c-0.179-0.161-0.339-0.332-0.528-0.482c-0.178-0.158-0.337-0.329-0.526-0.479c-0.178-0.158-0.338-0.332-0.527-0.482
			c-0.178-0.158-0.338-0.329-0.527-0.479c-0.178-0.158-0.338-0.332-0.527-0.482c-0.178-0.158-0.337-0.329-0.526-0.479
			c-0.179-0.158-0.339-0.332-0.528-0.482c-0.178-0.158-0.337-0.329-0.525-0.479c-0.179-0.158-0.338-0.332-0.527-0.482
			c-0.178-0.158-0.337-0.329-0.526-0.479c-0.178-0.158-0.338-0.332-0.528-0.482c-0.178-0.158-0.337-0.329-0.526-0.479
			c-0.179-0.158-0.338-0.329-0.527-0.482c-0.178-0.158-0.338-0.329-0.527-0.479c-0.178-0.158-0.338-0.332-0.527-0.479
			c-0.178-0.158-0.337-0.332-0.526-0.482c-0.178-0.158-0.338-0.329-0.528-0.482c-0.178-0.155-0.337-0.329-0.526-0.479
			c-0.178-0.158-0.338-0.329-0.527-0.479c-0.178-0.158-0.338-0.332-0.528-0.482c-0.178-0.158-0.337-0.329-0.525-0.479
			c-0.179-0.158-0.338-0.332-0.527-0.482c-0.178-0.158-0.337-0.329-0.526-0.479c-0.178-0.158-0.338-0.332-0.528-0.482
			c-0.178-0.158-0.337-0.329-0.526-0.479c-0.179-0.158-0.338-0.329-0.527-0.482c-0.178-0.158-0.338-0.329-0.527-0.479
			c-0.178-0.158-0.338-0.332-0.527-0.479c-0.178-0.158-0.337-0.332-0.526-0.482c-0.178-0.158-0.338-0.329-0.528-0.482
			c-0.178-0.155-0.337-0.329-0.526-0.479c-0.178-0.158-0.338-0.329-0.527-0.479c-0.178-0.158-0.338-0.332-0.527-0.482
			c-0.178-0.158-0.338-0.329-0.527-0.479c-0.178-0.158-0.337-0.332-0.526-0.479c-0.179-0.161-0.339-0.332-0.528-0.482
			c-0.178-0.158-0.337-0.332-0.526-0.479c-0.178-0.158-0.338-0.332-0.527-0.482c-0.178-0.158-0.338-0.329-0.526-0.479
			c-0.178-0.161-0.339-0.332-0.528-0.482c-0.178-0.158-0.337-0.332-0.526-0.479c-0.178-0.158-0.339-0.332-0.527-0.482
			c-0.178-0.158-0.338-0.329-0.528-0.482c-0.178-0.155-0.337-0.329-0.526-0.479c-0.178-0.158-0.338-0.329-0.527-0.479
			c-0.178-0.158-0.338-0.332-0.527-0.482c-0.178-0.158-0.338-0.329-0.527-0.479c-0.178-0.158-0.337-0.332-0.526-0.479
			c-0.179-0.161-0.339-0.332-0.528-0.482c-0.178-0.158-0.337-0.332-0.526-0.479c-0.178-0.158-0.338-0.332-0.527-0.482
			c-0.178-0.158-0.338-0.329-0.526-0.479c-0.178-0.161-0.338-0.332-0.528-0.482c-0.178-0.158-0.337-0.329-0.526-0.479
			c-0.179-0.158-0.339-0.332-0.527-0.482c-0.178-0.158-0.338-0.329-0.527-0.479c-0.178-0.158-0.338-0.332-0.527-0.482
			c-0.178-0.158-0.337-0.329-0.526-0.479c-0.179-0.158-0.338-0.332-0.528-0.482c-0.178-0.158-0.337-0.329-0.526-0.479
			c-0.178-0.158-0.338-0.332-0.527-0.482c-0.178-0.158-0.338-0.329-0.527-0.479c-0.178-0.158-0.338-0.332-0.527-0.479
			c-0.178-0.158-0.337-0.332-0.526-0.482c-0.178-0.158-0.338-0.332-0.527-0.482c-0.178-0.158-0.339-0.329-0.528-0.479
			c-0.178-0.158-0.337-0.329-0.526-0.479c-0.179-0.158-0.339-0.332-0.527-0.482c-0.178-0.158-0.338-0.329-0.527-0.479
			c-0.178-0.158-0.338-0.332-0.527-0.482c-0.178-0.158-0.337-0.329-0.526-0.479c-0.178-0.158-0.338-0.332-0.528-0.482
			c-0.178-0.158-0.337-0.329-0.526-0.479c-0.178-0.158-0.338-0.332-0.527-0.482c-0.178-0.158-0.338-0.329-0.527-0.479
			c-3.294-2.917-8.328-4.411-15.184-4.411h-28.772h-67.427c-14.384,0-27.579,0-39.561,0c-12.001,0-23.378,0-34.167,0h-8.994
			c-7.194,0-11.996,0.857-14.388,2.572c-2.401,1.728-6.602,7.163-12.589,16.323l-206.383,318.622l-10.757-274.943
			c0-11.985-0.902-19.475-2.697-22.482c-0.326-0.642-0.906-1.184-1.662-1.655c-0.168-0.136-0.275-0.297-0.473-0.425
			c-0.186-0.155-0.304-0.337-0.527-0.479c-0.186-0.155-0.304-0.34-0.527-0.482c-0.186-0.155-0.304-0.337-0.526-0.479
			c-0.186-0.155-0.305-0.337-0.528-0.482c-0.186-0.155-0.303-0.337-0.526-0.479c-0.186-0.155-0.304-0.337-0.527-0.479
			c-0.186-0.158-0.304-0.34-0.527-0.482c-0.186-0.155-0.304-0.337-0.527-0.479c-0.186-0.158-0.304-0.34-0.527-0.482
			c-0.186-0.155-0.304-0.337-0.528-0.479c-0.186-0.158-0.303-0.34-0.526-0.482c-0.186-0.155-0.304-0.337-0.527-0.479
			c-0.186-0.158-0.304-0.337-0.527-0.479c-0.186-0.158-0.304-0.34-0.528-0.482c-0.186-0.155-0.303-0.34-0.526-0.479
			c-0.186-0.158-0.304-0.34-0.527-0.482c-0.186-0.155-0.304-0.337-0.527-0.479c-0.186-0.158-0.304-0.34-0.526-0.482
			c-0.186-0.155-0.304-0.337-0.527-0.479c-0.186-0.158-0.304-0.34-0.528-0.482c-0.186-0.155-0.303-0.337-0.526-0.479
			c-0.186-0.158-0.304-0.34-0.527-0.482c-0.186-0.155-0.305-0.337-0.528-0.479c-0.185-0.158-0.303-0.34-0.526-0.482
			c-0.186-0.155-0.304-0.337-0.527-0.479c-0.186-0.158-0.304-0.34-0.527-0.482c-0.186-0.155-0.304-0.337-0.527-0.479
			c-0.186-0.155-0.304-0.337-0.527-0.479c-0.186-0.158-0.304-0.34-0.527-0.482c-0.186-0.155-0.304-0.337-0.527-0.479
			c-0.186-0.158-0.304-0.34-0.527-0.482c-0.186-0.155-0.304-0.337-0.527-0.479c-0.186-0.158-0.304-0.34-0.528-0.482
			c-0.186-0.155-0.303-0.337-0.526-0.479c-0.186-0.158-0.304-0.34-0.527-0.482c-0.186-0.155-0.304-0.337-0.527-0.479
			c-0.186-0.158-0.304-0.34-0.527-0.482c-0.186-0.155-0.304-0.337-0.527-0.479c-0.186-0.158-0.304-0.34-0.528-0.482
			c-0.186-0.155-0.303-0.337-0.526-0.479c-0.186-0.155-0.304-0.34-0.527-0.482c-0.186-0.155-0.304-0.337-0.527-0.479
			c-0.186-0.155-0.304-0.337-0.528-0.482c-0.186-0.155-0.303-0.337-0.526-0.479c-0.186-0.155-0.304-0.337-0.527-0.479
			c-0.186-0.158-0.305-0.34-0.528-0.482c-0.185-0.155-0.303-0.337-0.526-0.479c-0.186-0.158-0.304-0.34-0.527-0.482
			c-0.186-0.155-0.304-0.337-0.527-0.479c-0.186-0.158-0.304-0.34-0.527-0.482c-0.186-0.155-0.304-0.337-0.526-0.479
			c-0.186-0.158-0.305-0.34-0.528-0.482c-0.186-0.155-0.303-0.337-0.526-0.479c-0.186-0.155-0.304-0.34-0.527-0.482
			c-0.186-0.155-0.304-0.337-0.527-0.479c-0.186-0.155-0.304-0.337-0.528-0.482c-0.186-0.155-0.303-0.337-0.526-0.479
			c-0.186-0.155-0.304-0.337-0.527-0.479c-0.186-0.158-0.304-0.34-0.527-0.482c-0.186-0.155-0.304-0.337-0.527-0.479
			c-0.186-0.158-0.304-0.34-0.527-0.482c-0.186-0.155-0.304-0.337-0.528-0.479c-0.186-0.158-0.303-0.34-0.526-0.482
			c-0.186-0.155-0.304-0.337-0.527-0.479c-0.186-0.158-0.304-0.34-0.527-0.482c-0.186-0.155-0.304-0.337-0.527-0.479
			c-0.186-0.155-0.304-0.337-0.527-0.479c-0.186-0.158-0.304-0.34-0.528-0.482c-0.186-0.155-0.304-0.337-0.526-0.479
			c-0.186-0.158-0.304-0.34-0.526-0.482c-0.186-0.155-0.304-0.337-0.527-0.479c-0.186-0.158-0.304-0.34-0.527-0.482
			c-0.186-0.155-0.304-0.337-0.527-0.479c-0.172-0.144-0.261-0.321-0.464-0.454c-1.855-1.633-5.625-2.504-11.57-2.504h-16.188
			h-62.94h-44.96h-44.956l-33.269-3.6c-6.606,0-12.297,2.112-17.086,6.297c-4.807,4.202-7.194,8.989-7.194,14.385
			c0,4.058,1.437,7.495,4.189,10.363c0.151,0.171,0.367,0.316,0.528,0.482c0.15,0.171,0.366,0.313,0.525,0.479
			c0.151,0.171,0.367,0.313,0.528,0.482c0.151,0.171,0.367,0.313,0.527,0.479c0.151,0.171,0.367,0.316,0.527,0.482
			c0.151,0.171,0.366,0.313,0.526,0.479c0.151,0.171,0.367,0.313,0.528,0.482c0.151,0.169,0.367,0.313,0.527,0.479
			c0.151,0.171,0.367,0.313,0.527,0.482c0.151,0.169,0.366,0.313,0.526,0.479c0.151,0.171,0.367,0.313,0.528,0.482
			c0.15,0.169,0.366,0.313,0.526,0.479c0.151,0.171,0.367,0.313,0.528,0.479c0.151,0.171,0.367,0.316,0.527,0.482
			c0.151,0.171,0.367,0.313,0.527,0.479c0.151,0.171,0.366,0.313,0.526,0.482c0.151,0.169,0.367,0.313,0.528,0.482
			c0.15,0.169,0.366,0.31,0.526,0.476c0.151,0.171,0.367,0.316,0.528,0.482c0.151,0.171,0.366,0.313,0.526,0.482
			c0.151,0.169,0.367,0.313,0.528,0.479c0.15,0.171,0.366,0.313,0.526,0.479c0.151,0.171,0.367,0.316,0.528,0.482
			c0.151,0.171,0.367,0.313,0.526,0.482c0.151,0.169,0.367,0.313,0.527,0.479c0.151,0.171,0.367,0.313,0.527,0.482
			c0.151,0.169,0.367,0.313,0.527,0.479c0.151,0.171,0.367,0.313,0.527,0.479c0.151,0.171,0.366,0.313,0.526,0.482
			c0.151,0.169,0.368,0.313,0.528,0.482c0.15,0.169,0.366,0.31,0.526,0.476c0.151,0.171,0.367,0.316,0.528,0.482
			c0.151,0.171,0.366,0.313,0.526,0.482c0.151,0.169,0.367,0.313,0.528,0.479c0.15,0.171,0.366,0.313,0.526,0.479
			c0.151,0.171,0.367,0.316,0.528,0.482c0.151,0.171,0.367,0.313,0.527,0.482c0.151,0.169,0.367,0.313,0.527,0.479
			c0.151,0.172,0.366,0.313,0.526,0.479c0.151,0.171,0.367,0.316,0.528,0.482c0.15,0.171,0.366,0.313,0.526,0.479
			c0.151,0.172,0.367,0.313,0.528,0.482c0.151,0.171,0.367,0.313,0.527,0.479c0.151,0.171,0.367,0.316,0.527,0.482
			c0.151,0.171,0.366,0.313,0.526,0.479c0.151,0.171,0.367,0.313,0.528,0.482c0.15,0.169,0.366,0.313,0.526,0.479
			c0.151,0.171,0.367,0.313,0.528,0.482c0.151,0.171,0.367,0.313,0.527,0.479c0.151,0.171,0.367,0.313,0.527,0.482
			c0.151,0.169,0.367,0.313,0.527,0.479c0.151,0.171,0.366,0.313,0.526,0.479c0.151,0.171,0.368,0.316,0.528,0.482
			c0.15,0.171,0.366,0.313,0.526,0.479c0.151,0.171,0.367,0.313,0.528,0.482c0.151,0.171,0.367,0.313,0.527,0.479
			c0.151,0.171,0.367,0.316,0.527,0.482c0.151,0.171,0.366,0.313,0.526,0.479c0.151,0.171,0.367,0.313,0.528,0.482
			c0.15,0.169,0.366,0.313,0.526,0.479c0.151,0.171,0.367,0.313,0.528,0.482c0.151,0.169,0.366,0.313,0.526,0.479
			c0.151,0.171,0.367,0.313,0.528,0.482c0.15,0.169,0.366,0.313,0.526,0.479c0.151,0.171,0.367,0.313,0.528,0.479
			c0.151,0.171,0.367,0.316,0.527,0.482c0.151,0.171,0.367,0.313,0.527,0.479c0.151,0.171,0.366,0.313,0.526,0.482
			c0.151,0.169,0.367,0.313,0.528,0.482c0.15,0.169,0.366,0.31,0.526,0.476c0.151,0.171,0.367,0.316,0.528,0.482
			c0.151,0.171,0.367,0.316,0.528,0.482c0.15,0.171,0.366,0.313,0.525,0.479c0.151,0.171,0.367,0.313,0.528,0.482
			c0.15,0.171,0.366,0.313,0.526,0.479c4.072,4.616,11.541,7.762,22.413,9.449c0.314,0.049,0.592,0.098,0.902,0.147
			c-2.515,10.638-7.161,26.131-13.96,46.528l-116.894,329.097c-19.191,53.362-32.075,84.073-38.664,92.167
			c0,0-2.579,2.839-5.715,6.289c-6.313,6.94-14.302,12.295-23.313,14.913c-15.828,4.597-23.746,11.773-23.746,21.51
			c0,6.044,1.99,10.554,5.949,13.55c0.184,0.155,0.334,0.335,0.528,0.482c0.184,0.152,0.333,0.332,0.527,0.479
			c0.184,0.155,0.333,0.335,0.526,0.482c0.184,0.152,0.333,0.332,0.526,0.479c0.184,0.155,0.334,0.335,0.528,0.482
			c0.183,0.152,0.332,0.332,0.525,0.479c0.184,0.152,0.334,0.335,0.528,0.482c0.184,0.152,0.334,0.332,0.528,0.479
			c0.183,0.155,0.332,0.335,0.525,0.479c0.184,0.155,0.334,0.335,0.528,0.482c0.184,0.152,0.333,0.332,0.526,0.479
			c0.184,0.155,0.334,0.335,0.528,0.482c0.183,0.152,0.332,0.335,0.525,0.479c0.184,0.155,0.334,0.335,0.528,0.482
			c0.184,0.152,0.333,0.335,0.527,0.479c0.184,0.155,0.333,0.335,0.526,0.482c0.184,0.152,0.333,0.332,0.526,0.479
			c0.184,0.155,0.334,0.335,0.528,0.482c0.183,0.152,0.332,0.332,0.525,0.479c0.184,0.152,0.334,0.335,0.528,0.482
			c0.184,0.152,0.333,0.332,0.527,0.479c0.184,0.155,0.333,0.335,0.526,0.482c0.184,0.152,0.333,0.332,0.527,0.479
			c0.184,0.152,0.334,0.335,0.527,0.479c0.184,0.155,0.333,0.335,0.527,0.482c0.184,0.155,0.333,0.335,0.527,0.479
			c0.184,0.155,0.333,0.335,0.526,0.482c0.184,0.152,0.334,0.332,0.528,0.479c0.183,0.155,0.332,0.335,0.525,0.479
			c0.184,0.155,0.334,0.335,0.528,0.482c0.184,0.155,0.333,0.335,0.527,0.482c0.184,0.152,0.333,0.332,0.526,0.479
			c0.184,0.155,0.334,0.335,0.527,0.482c0.184,0.152,0.333,0.332,0.527,0.479c0.184,0.155,0.333,0.335,0.526,0.482
			c0.184,0.152,0.333,0.332,0.526,0.479c0.184,0.152,0.334,0.335,0.528,0.479c0.184,0.155,0.333,0.335,0.527,0.482
			c0.184,0.155,0.333,0.335,0.527,0.479c0.184,0.155,0.333,0.335,0.526,0.482c0.184,0.152,0.334,0.332,0.528,0.479
			c0.183,0.155,0.332,0.335,0.525,0.479c0.184,0.155,0.334,0.335,0.528,0.482c0.184,0.155,0.333,0.335,0.527,0.482
			c0.184,0.152,0.333,0.332,0.526,0.479c0.184,0.155,0.333,0.335,0.527,0.479c0.184,0.155,0.334,0.335,0.528,0.482
			c0.183,0.155,0.332,0.335,0.525,0.479c0.184,0.155,0.334,0.335,0.528,0.482c0.184,0.152,0.333,0.335,0.527,0.479
			c0.184,0.155,0.333,0.335,0.526,0.482c0.184,0.152,0.333,0.335,0.527,0.479c0.184,0.155,0.334,0.335,0.527,0.482
			c0.184,0.152,0.333,0.332,0.527,0.479c0.184,0.155,0.333,0.335,0.527,0.482c0.184,0.152,0.333,0.332,0.527,0.479
			c0.184,0.155,0.333,0.335,0.527,0.482c0.184,0.152,0.333,0.332,0.526,0.479c0.184,0.152,0.333,0.335,0.526,0.479
			c0.184,0.155,0.334,0.335,0.528,0.482c0.183,0.155,0.332,0.335,0.525,0.479c0.184,0.155,0.334,0.335,0.528,0.482
			c0.184,0.152,0.333,0.335,0.527,0.479c0.184,0.155,0.333,0.335,0.526,0.482c0.184,0.152,0.333,0.332,0.526,0.479
			c0.184,0.155,0.334,0.335,0.528,0.482c0.184,0.152,0.333,0.335,0.527,0.479c0.184,0.155,0.333,0.335,0.527,0.482
			c0.184,0.152,0.333,0.332,0.526,0.479c0.184,0.155,0.334,0.335,0.528,0.482c0.183,0.152,0.332,0.332,0.525,0.479
			c0.184,0.152,0.334,0.335,0.528,0.482c0.184,0.152,0.333,0.332,0.527,0.479c0.184,0.155,0.333,0.335,0.526,0.482
			c0.184,0.152,0.333,0.332,0.527,0.479c3.89,3.249,9.842,4.912,17.956,4.912l69.859-2.697l53.052,2.161l33.269,3.233
			c19.177,0,28.773-7.223,28.773-21.665c0-6.091-2.197-10.771-6.45-14.13c-0.16-0.144-0.317-0.291-0.484-0.433
			c-0.175-0.161-0.343-0.327-0.526-0.479c-0.176-0.163-0.344-0.327-0.528-0.482c-0.175-0.161-0.343-0.327-0.526-0.482
			c-0.175-0.158-0.343-0.324-0.526-0.479c-0.175-0.161-0.344-0.327-0.528-0.482c-0.175-0.161-0.342-0.324-0.525-0.479
			c-0.175-0.161-0.344-0.324-0.528-0.479c-0.175-0.161-0.343-0.327-0.527-0.482c-0.175-0.161-0.343-0.324-0.527-0.479
			c-0.175-0.161-0.343-0.327-0.526-0.479c-0.175-0.163-0.344-0.327-0.528-0.482c-0.175-0.161-0.343-0.327-0.527-0.482
			c-0.175-0.161-0.343-0.324-0.527-0.479c-0.175-0.161-0.343-0.327-0.526-0.479c-0.175-0.163-0.344-0.327-0.528-0.482
			c-0.175-0.161-0.342-0.324-0.525-0.479c-0.175-0.161-0.344-0.327-0.528-0.482c-0.175-0.161-0.343-0.327-0.527-0.479
			c-0.175-0.161-0.343-0.327-0.527-0.482c-0.174-0.161-0.343-0.324-0.526-0.479c-0.175-0.161-0.344-0.327-0.528-0.482
			c-0.174-0.161-0.342-0.324-0.525-0.479c-0.175-0.161-0.344-0.327-0.528-0.482c-0.174-0.161-0.343-0.324-0.526-0.479
			c-0.176-0.161-0.344-0.327-0.528-0.482c-0.174-0.161-0.343-0.324-0.526-0.479c-0.175-0.161-0.343-0.327-0.526-0.479
			c-0.175-0.163-0.344-0.327-0.528-0.482c-0.175-0.161-0.342-0.324-0.525-0.479c-0.175-0.161-0.344-0.327-0.528-0.482
			c-0.175-0.161-0.343-0.327-0.527-0.479c-0.175-0.161-0.343-0.327-0.527-0.482c-0.175-0.161-0.343-0.324-0.526-0.479
			c-0.175-0.161-0.344-0.327-0.528-0.482c-0.174-0.161-0.342-0.324-0.525-0.479c-0.175-0.161-0.344-0.327-0.528-0.482
			c-0.175-0.161-0.343-0.324-0.527-0.479c-0.175-0.161-0.343-0.327-0.527-0.482c-0.175-0.158-0.343-0.324-0.526-0.479
			c-0.175-0.161-0.344-0.327-0.528-0.482c-0.175-0.161-0.343-0.324-0.527-0.479c-0.175-0.161-0.343-0.324-0.527-0.482
			c-0.175-0.158-0.343-0.324-0.526-0.479c-0.175-0.161-0.344-0.327-0.528-0.482c-0.175-0.161-0.342-0.324-0.525-0.479
			c-0.175-0.161-0.344-0.324-0.528-0.479c-0.175-0.161-0.343-0.327-0.527-0.482c-0.175-0.161-0.343-0.324-0.527-0.479
			c-0.175-0.161-0.344-0.327-0.527-0.482c-0.175-0.161-0.343-0.324-0.527-0.479c-0.175-0.161-0.343-0.327-0.527-0.482
			c-0.175-0.158-0.343-0.324-0.526-0.479c-0.175-0.161-0.344-0.327-0.528-0.482c-0.175-0.161-0.343-0.324-0.527-0.479
			c-0.175-0.161-0.343-0.324-0.527-0.482c-0.175-0.158-0.343-0.324-0.526-0.479c-0.175-0.161-0.344-0.327-0.528-0.482
			c-0.175-0.161-0.342-0.324-0.525-0.479c-0.175-0.161-0.344-0.324-0.528-0.479c-0.175-0.161-0.343-0.327-0.527-0.482
			c-0.175-0.161-0.343-0.324-0.527-0.479c-0.174-0.161-0.343-0.327-0.526-0.479c-0.175-0.163-0.344-0.327-0.528-0.484
			c-0.175-0.158-0.342-0.321-0.525-0.476c-0.175-0.161-0.344-0.327-0.528-0.482c-0.174-0.161-0.343-0.327-0.526-0.479
			c-0.175-0.163-0.344-0.327-0.528-0.482c-0.175-0.161-0.342-0.324-0.525-0.479c-0.175-0.161-0.344-0.327-0.528-0.482
			c-0.175-0.161-0.343-0.327-0.527-0.479c-0.175-0.161-0.343-0.327-0.527-0.482c-0.16-0.147-0.308-0.302-0.475-0.444
			c-3.72-3.821-9.571-6.27-17.705-7.247c-7.552-1.208-14.21-2.425-20.164-3.655c-0.008-0.468-0.043-0.898-0.043-1.377
			c0-12.633,0.898-23.012,2.697-31.133c1.795-8.124,8.384-31.15,19.779-69.07l14.388-48.738l55.226-150.566l9.942,295.602
			c0,18.029,2.096,29.748,6.297,35.155c0.596,0.77,1.293,1.47,2.048,2.131c0.171,0.163,0.348,0.324,0.528,0.482
			c0.171,0.163,0.347,0.321,0.527,0.479c0.171,0.163,0.347,0.324,0.527,0.482c0.17,0.161,0.346,0.321,0.526,0.479
			c0.171,0.163,0.348,0.324,0.529,0.482c0.171,0.163,0.347,0.321,0.526,0.479c0.171,0.163,0.346,0.321,0.526,0.479
			c0.171,0.163,0.348,0.324,0.528,0.482c0.17,0.163,0.347,0.324,0.527,0.479c0.171,0.163,0.347,0.324,0.527,0.482
			c0.17,0.163,0.346,0.321,0.526,0.479c0.172,0.163,0.348,0.324,0.529,0.482c0.17,0.163,0.346,0.321,0.525,0.479
			c0.171,0.163,0.348,0.324,0.528,0.482c0.171,0.163,0.347,0.321,0.527,0.479c0.171,0.163,0.347,0.324,0.527,0.482
			c0.17,0.161,0.346,0.321,0.526,0.479c0.171,0.163,0.348,0.324,0.529,0.482c0.17,0.161,0.346,0.321,0.525,0.479
			c0.171,0.163,0.348,0.324,0.528,0.479c0.17,0.163,0.346,0.324,0.526,0.482c0.171,0.163,0.348,0.324,0.529,0.482
			c0.17,0.161,0.346,0.321,0.525,0.476c0.171,0.166,0.348,0.324,0.528,0.482c0.171,0.163,0.347,0.324,0.527,0.482
			c0.171,0.163,0.347,0.321,0.527,0.479c0.17,0.163,0.346,0.324,0.526,0.479c0.171,0.166,0.348,0.324,0.529,0.482
			c0.17,0.163,0.347,0.324,0.526,0.482c0.17,0.161,0.346,0.321,0.526,0.479c0.171,0.163,0.348,0.324,0.529,0.482
			c0.17,0.161,0.346,0.321,0.525,0.479c0.171,0.163,0.348,0.324,0.528,0.479c0.17,0.163,0.347,0.324,0.527,0.482
			c0.171,0.163,0.347,0.321,0.527,0.479c0.17,0.163,0.346,0.324,0.526,0.479c0.171,0.166,0.348,0.324,0.528,0.482
			c0.171,0.163,0.347,0.324,0.527,0.482c0.171,0.163,0.347,0.321,0.527,0.479c0.17,0.163,0.346,0.324,0.526,0.479
			c0.171,0.166,0.348,0.324,0.529,0.482c0.17,0.163,0.346,0.324,0.525,0.479c0.171,0.163,0.348,0.324,0.528,0.482
			c0.171,0.163,0.347,0.324,0.527,0.479c0.171,0.163,0.347,0.324,0.527,0.482c0.17,0.163,0.346,0.321,0.526,0.479
			c0.171,0.163,0.348,0.324,0.529,0.482c0.17,0.163,0.346,0.321,0.525,0.479c0.171,0.163,0.348,0.324,0.528,0.482
			c0.17,0.163,0.346,0.321,0.526,0.479c0.172,0.163,0.348,0.324,0.529,0.482c0.17,0.163,0.347,0.321,0.526,0.479
			c0.17,0.163,0.346,0.324,0.526,0.479c0.172,0.163,0.348,0.324,0.529,0.482c0.17,0.163,0.346,0.324,0.525,0.479
			c0.171,0.163,0.348,0.324,0.528,0.482c0.17,0.163,0.347,0.324,0.527,0.479c0.171,0.163,0.347,0.324,0.527,0.482
			c0.171,0.163,0.346,0.321,0.526,0.479c0.171,0.163,0.348,0.324,0.529,0.482c0.17,0.163,0.346,0.321,0.525,0.479
			c0.171,0.163,0.348,0.324,0.528,0.482c0.17,0.163,0.346,0.321,0.526,0.479c0.172,0.163,0.348,0.324,0.529,0.482
			c0.17,0.163,0.346,0.321,0.525,0.479c0.171,0.163,0.348,0.324,0.528,0.482c0.171,0.163,0.347,0.321,0.527,0.479
			c0.171,0.163,0.347,0.324,0.527,0.482c0.17,0.161,0.346,0.321,0.526,0.479c0.171,0.163,0.348,0.324,0.529,0.482
			c0.17,0.161,0.346,0.321,0.525,0.479c0.171,0.163,0.348,0.324,0.528,0.479c0.171,0.163,0.347,0.324,0.527,0.482
			c0.171,0.163,0.347,0.321,0.527,0.479c0.17,0.163,0.346,0.324,0.526,0.479c4.486,4.297,12.06,6.455,22.754,6.455
			c11.395,0,20.385-2.697,26.991-8.091c6.589-5.397,16.776-18.571,30.572-39.548l204.205-304.395l-51.831,202.243
			c-8.401,32.973-15.147,53.501-20.232,61.591c-5.098,8.091-13.644,12.742-25.626,13.936l-9.892,1.799l-10.789,0.901l-15.286,2.7
			c-10.789,3.595-16.184,10.491-16.184,20.68c0,6.398,1.955,11.15,5.825,14.296c0.177,0.161,0.34,0.329,0.526,0.482
			c0.178,0.158,0.342,0.329,0.528,0.482c0.177,0.158,0.34,0.327,0.525,0.479c0.177,0.158,0.341,0.329,0.528,0.479
			c0.177,0.158,0.34,0.329,0.527,0.482c0.177,0.158,0.341,0.329,0.527,0.479c0.177,0.158,0.34,0.329,0.526,0.482
			c0.177,0.158,0.342,0.329,0.528,0.479c0.177,0.161,0.34,0.329,0.525,0.479c0.178,0.161,0.341,0.329,0.528,0.482
			c0.177,0.158,0.34,0.329,0.526,0.479c0.177,0.161,0.342,0.329,0.528,0.482c0.177,0.158,0.34,0.329,0.525,0.479
			c0.178,0.161,0.341,0.329,0.528,0.482c0.177,0.158,0.341,0.329,0.527,0.479c0.177,0.161,0.341,0.329,0.527,0.482
			c0.177,0.158,0.34,0.329,0.526,0.479c0.178,0.161,0.342,0.329,0.528,0.482c0.177,0.158,0.34,0.329,0.525,0.479
			c0.178,0.161,0.341,0.329,0.528,0.482c0.177,0.158,0.341,0.329,0.527,0.479c0.177,0.158,0.341,0.329,0.527,0.479
			c0.177,0.161,0.34,0.332,0.527,0.482c0.177,0.158,0.34,0.329,0.526,0.479c0.177,0.161,0.342,0.329,0.528,0.482
			c0.177,0.158,0.34,0.329,0.525,0.479c0.178,0.161,0.341,0.329,0.528,0.482c0.177,0.158,0.341,0.329,0.527,0.479
			c0.177,0.161,0.341,0.329,0.527,0.482c0.177,0.158,0.34,0.329,0.526,0.479c0.178,0.161,0.342,0.329,0.528,0.482
			c0.177,0.158,0.34,0.329,0.525,0.479c0.178,0.161,0.341,0.329,0.528,0.482c0.177,0.158,0.341,0.329,0.527,0.479
			c0.177,0.158,0.341,0.329,0.527,0.479c0.177,0.161,0.34,0.329,0.526,0.482c0.178,0.158,0.341,0.329,0.528,0.482
			c0.177,0.158,0.341,0.327,0.527,0.479c0.177,0.158,0.341,0.329,0.527,0.479c0.177,0.161,0.34,0.329,0.526,0.482
			c0.178,0.158,0.342,0.329,0.528,0.482c0.177,0.158,0.34,0.327,0.525,0.479c0.177,0.158,0.341,0.329,0.528,0.479
			c0.177,0.158,0.34,0.329,0.527,0.482c0.177,0.158,0.341,0.329,0.527,0.479c0.177,0.158,0.341,0.329,0.527,0.482
			c0.177,0.158,0.341,0.329,0.527,0.479c0.177,0.158,0.341,0.329,0.527,0.479c0.177,0.161,0.34,0.329,0.526,0.482
			c0.178,0.158,0.342,0.329,0.528,0.482c0.177,0.158,0.34,0.327,0.525,0.479c0.178,0.158,0.341,0.329,0.528,0.479
			c0.177,0.161,0.34,0.329,0.526,0.482c0.178,0.158,0.342,0.329,0.528,0.482c0.177,0.158,0.34,0.327,0.525,0.479
			c0.178,0.158,0.341,0.329,0.528,0.479c0.177,0.158,0.34,0.329,0.527,0.482c0.177,0.158,0.341,0.329,0.527,0.479
			c0.177,0.158,0.34,0.329,0.526,0.482c0.177,0.158,0.342,0.329,0.528,0.479c0.177,0.161,0.34,0.329,0.525,0.479
			c0.178,0.161,0.341,0.329,0.528,0.482c0.177,0.158,0.341,0.329,0.527,0.482c0.177,0.158,0.341,0.327,0.527,0.479
			c0.177,0.158,0.34,0.329,0.526,0.479c0.178,0.161,0.341,0.329,0.528,0.482c0.177,0.158,0.341,0.329,0.527,0.479
			c0.177,0.161,0.341,0.329,0.527,0.482c0.177,0.158,0.341,0.329,0.527,0.479c0.177,0.161,0.341,0.329,0.527,0.482
			c0.177,0.158,0.341,0.329,0.526,0.479c0.177,0.161,0.341,0.329,0.526,0.482c0.177,0.158,0.342,0.329,0.528,0.479
			c0.177,0.161,0.34,0.329,0.525,0.479c0.178,0.161,0.341,0.329,0.528,0.482c3.741,3.353,9.44,5.065,17.177,5.065l44.961-3.595
			c21.578-2.392,47.348-3.6,77.328-3.6c26.977,0,61.737,2.406,104.305,7.196h28.772c20.977,0,31.474-6.885,31.474-20.656
			c0-3.217-0.696-6.033-1.946-8.532c0.018,0.014,0.042,0.022,0.06,0.035c0.184,0.155,0.333,0.335,0.526,0.482
			c0.185,0.152,0.334,0.335,0.528,0.482c0.183,0.152,0.333,0.332,0.525,0.479c0.184,0.152,0.334,0.332,0.528,0.479
			c0.184,0.155,0.333,0.335,0.526,0.482c0.184,0.152,0.334,0.335,0.528,0.479c0.184,0.155,0.333,0.335,0.526,0.482
			c0.184,0.152,0.333,0.332,0.526,0.479c0.185,0.152,0.334,0.335,0.528,0.482c0.183,0.152,0.333,0.332,0.525,0.479
			c0.184,0.152,0.334,0.335,0.528,0.482c0.184,0.152,0.333,0.332,0.527,0.479c0.184,0.152,0.333,0.335,0.527,0.479
			c0.184,0.155,0.333,0.335,0.526,0.482c0.184,0.152,0.334,0.335,0.528,0.482c0.183,0.152,0.333,0.332,0.525,0.479
			c0.184,0.152,0.334,0.332,0.528,0.479c0.184,0.155,0.333,0.335,0.526,0.482c0.184,0.152,0.334,0.335,0.528,0.479
			c0.183,0.155,0.332,0.335,0.525,0.479c0.184,0.155,0.334,0.335,0.528,0.482c0.184,0.155,0.333,0.335,0.527,0.482
			c0.184,0.152,0.333,0.332,0.527,0.479c0.184,0.155,0.333,0.335,0.526,0.479c0.184,0.155,0.334,0.335,0.528,0.482
			c0.183,0.152,0.332,0.332,0.525,0.479c0.184,0.155,0.334,0.335,0.528,0.482c0.184,0.152,0.333,0.335,0.527,0.479
			c0.184,0.155,0.333,0.335,0.527,0.482c0.184,0.152,0.334,0.332,0.527,0.479c0.184,0.155,0.333,0.335,0.527,0.482
			c0.184,0.152,0.333,0.332,0.527,0.479c0.184,0.155,0.333,0.335,0.526,0.482c0.184,0.152,0.334,0.332,0.528,0.479
			c0.184,0.155,0.333,0.335,0.527,0.482c0.184,0.152,0.333,0.332,0.527,0.479c0.184,0.155,0.333,0.335,0.526,0.479
			c0.184,0.155,0.334,0.335,0.528,0.482c0.183,0.152,0.332,0.332,0.525,0.479c0.184,0.155,0.334,0.335,0.528,0.482
			c0.184,0.152,0.333,0.335,0.527,0.479c0.184,0.155,0.333,0.335,0.527,0.482c0.184,0.152,0.333,0.332,0.526,0.479
			c0.185,0.155,0.334,0.335,0.528,0.482c0.183,0.152,0.333,0.332,0.525,0.479c0.184,0.152,0.334,0.335,0.528,0.482
			c0.184,0.152,0.333,0.332,0.526,0.479c0.184,0.152,0.334,0.335,0.528,0.482c0.183,0.152,0.332,0.332,0.525,0.479
			c0.184,0.152,0.334,0.335,0.528,0.482c0.184,0.152,0.333,0.332,0.527,0.479c0.184,0.152,0.333,0.335,0.527,0.479
			c0.184,0.155,0.333,0.335,0.526,0.482c0.184,0.152,0.334,0.335,0.528,0.482c0.184,0.152,0.333,0.332,0.526,0.479
			c0.184,0.152,0.333,0.332,0.526,0.479c0.185,0.155,0.334,0.335,0.528,0.482c0.183,0.152,0.333,0.332,0.525,0.479
			c3.891,3.249,9.843,4.91,17.954,4.91h3.6c37.766-3.595,61.436-5.685,71.036-6.292c9.582-0.591,23.67-0.898,42.259-0.898
			l97.111,3.595h52.15c18.576,0,27.875-6.45,27.875-19.347c0-5.255-1.695-9.454-4.978-12.66
			C2636.173,1210.357,2635.974,1210.21,2635.806,1210.046z"/>
		<path class="st13" d="M3832.366,1211.568c-0.184-0.155-0.333-0.329-0.525-0.479c-0.185-0.158-0.335-0.329-0.529-0.482
			c-0.184-0.155-0.333-0.329-0.525-0.479c-0.184-0.155-0.335-0.329-0.527-0.482c-0.185-0.155-0.335-0.329-0.527-0.479
			c-0.185-0.158-0.335-0.329-0.527-0.482c-0.184-0.155-0.334-0.329-0.526-0.479c-0.185-0.155-0.335-0.329-0.528-0.482
			c-0.184-0.155-0.333-0.327-0.525-0.479c-0.185-0.155-0.335-0.329-0.528-0.479c-0.184-0.158-0.334-0.329-0.526-0.482
			c-0.185-0.155-0.334-0.329-0.527-0.479c-0.185-0.155-0.334-0.329-0.527-0.482c-0.185-0.155-0.335-0.329-0.527-0.479
			c-0.184-0.158-0.334-0.329-0.527-0.482c-0.184-0.155-0.333-0.329-0.527-0.479c-0.184-0.155-0.333-0.329-0.527-0.482
			c-0.184-0.155-0.335-0.329-0.527-0.479c-0.185-0.158-0.335-0.329-0.527-0.482c-0.184-0.155-0.334-0.329-0.526-0.479
			c-0.185-0.155-0.335-0.329-0.528-0.482c-0.184-0.155-0.333-0.327-0.525-0.479c-0.185-0.155-0.335-0.329-0.528-0.479
			c-0.184-0.158-0.333-0.329-0.527-0.482c-0.184-0.155-0.333-0.329-0.527-0.479c-0.184-0.155-0.333-0.329-0.526-0.482
			c-0.184-0.155-0.335-0.329-0.527-0.479c-0.185-0.158-0.335-0.329-0.527-0.482c-0.185-0.155-0.334-0.329-0.527-0.479
			c-0.184-0.155-0.334-0.329-0.526-0.482c-0.185-0.155-0.335-0.329-0.528-0.479c-0.184-0.158-0.333-0.329-0.525-0.479
			c-0.185-0.158-0.335-0.332-0.528-0.482c-0.184-0.155-0.334-0.329-0.527-0.482c-0.184-0.155-0.334-0.327-0.527-0.479
			c-0.184-0.155-0.334-0.329-0.527-0.479c-0.184-0.158-0.335-0.332-0.528-0.482c-0.184-0.155-0.333-0.329-0.525-0.479
			c-0.185-0.155-0.335-0.329-0.528-0.482c-0.184-0.155-0.333-0.329-0.527-0.479c-0.184-0.158-0.333-0.329-0.527-0.482
			c-0.184-0.155-0.334-0.329-0.527-0.479c-0.184-0.155-0.334-0.329-0.527-0.482c-0.184-0.155-0.335-0.329-0.528-0.479
			c-0.184-0.158-0.333-0.329-0.525-0.479c-0.185-0.158-0.335-0.332-0.528-0.482c-0.184-0.155-0.333-0.329-0.527-0.482
			c-0.184-0.155-0.333-0.327-0.527-0.479c-0.184-0.155-0.333-0.329-0.526-0.479c-0.184-0.158-0.335-0.332-0.529-0.482
			c-0.184-0.155-0.333-0.329-0.525-0.479c-0.184-0.155-0.335-0.329-0.527-0.482c-0.184-0.155-0.334-0.329-0.527-0.479
			c-0.184-0.158-0.334-0.329-0.527-0.482c-0.184-0.155-0.333-0.329-0.525-0.479c-0.185-0.155-0.335-0.329-0.528-0.482
			c-0.184-0.155-0.334-0.329-0.527-0.479c-0.184-0.158-0.335-0.329-0.527-0.482c-0.184-0.155-0.334-0.329-0.527-0.479
			c-0.184-0.155-0.335-0.329-0.528-0.482c-0.184-0.155-0.333-0.327-0.525-0.479c-0.185-0.155-0.335-0.329-0.528-0.479
			c-0.184-0.158-0.333-0.329-0.527-0.482c-0.184-0.155-0.333-0.329-0.527-0.479c-0.184-0.155-0.334-0.329-0.527-0.482
			c-0.184-0.155-0.335-0.329-0.527-0.479c-0.184-0.158-0.334-0.329-0.527-0.482c-0.184-0.155-0.334-0.329-0.526-0.479
			c-0.185-0.155-0.335-0.329-0.528-0.482c-0.184-0.155-0.333-0.329-0.526-0.479c-0.184-0.158-0.334-0.329-0.527-0.482
			c-0.184-0.155-0.333-0.329-0.526-0.479c-0.184-0.155-0.335-0.329-0.529-0.482c-0.184-0.155-0.333-0.327-0.525-0.479
			c-0.184-0.155-0.335-0.329-0.527-0.479c-4.341-3.668-10.964-6.151-19.968-7.394c-0.61-0.084-1.16-0.21-1.756-0.302
			c-2.091-10.78-3.17-24.887-3.17-42.552l-27.876-450.881c0-24.052-2.558-39.673-7.642-46.896c-0.754-1.067-1.634-2.027-2.577-2.936
			c-0.164-0.169-0.356-0.316-0.527-0.479c-0.165-0.171-0.356-0.318-0.527-0.482c-0.165-0.169-0.356-0.316-0.527-0.479
			c-0.165-0.171-0.356-0.316-0.527-0.482c-0.165-0.169-0.356-0.316-0.527-0.479c-0.165-0.169-0.356-0.316-0.526-0.479
			c-0.165-0.171-0.357-0.318-0.529-0.482c-0.164-0.169-0.355-0.316-0.525-0.479c-0.165-0.169-0.356-0.318-0.528-0.482
			c-0.164-0.169-0.356-0.316-0.527-0.482c-0.165-0.169-0.356-0.316-0.527-0.479c-0.164-0.169-0.355-0.316-0.525-0.479
			c-0.165-0.169-0.358-0.318-0.529-0.482c-0.163-0.169-0.355-0.316-0.525-0.479c-0.165-0.169-0.357-0.316-0.528-0.482
			c-0.164-0.169-0.356-0.316-0.526-0.479c-0.165-0.169-0.357-0.316-0.529-0.482c-0.164-0.169-0.354-0.316-0.525-0.479
			c-0.165-0.169-0.356-0.316-0.528-0.482c-0.165-0.169-0.356-0.316-0.527-0.479c-0.165-0.169-0.356-0.316-0.527-0.482
			c-0.165-0.169-0.356-0.313-0.526-0.479c-0.165-0.169-0.357-0.316-0.529-0.482c-0.164-0.169-0.355-0.313-0.525-0.479
			c-0.165-0.169-0.356-0.316-0.528-0.479c-0.164-0.171-0.356-0.318-0.527-0.482c-0.165-0.169-0.356-0.316-0.527-0.479
			c-0.165-0.171-0.356-0.318-0.527-0.482c-0.165-0.169-0.356-0.316-0.526-0.479c-0.165-0.169-0.357-0.318-0.529-0.482
			c-0.164-0.169-0.355-0.316-0.525-0.479c-0.165-0.169-0.356-0.316-0.528-0.482c-0.164-0.169-0.356-0.316-0.527-0.479
			c-0.165-0.169-0.356-0.316-0.527-0.482c-0.164-0.169-0.355-0.313-0.525-0.479c-0.165-0.169-0.358-0.316-0.529-0.482
			c-0.163-0.169-0.355-0.313-0.524-0.479c-0.165-0.169-0.357-0.316-0.528-0.479c-0.164-0.171-0.356-0.318-0.527-0.482
			c-0.165-0.169-0.356-0.316-0.527-0.479c-0.163-0.171-0.355-0.316-0.525-0.479c-0.165-0.171-0.356-0.318-0.528-0.482
			c-0.165-0.171-0.357-0.316-0.527-0.482c-0.165-0.169-0.357-0.316-0.527-0.479c-0.165-0.169-0.356-0.316-0.526-0.479
			c-0.166-0.171-0.357-0.318-0.529-0.482c-0.164-0.169-0.355-0.316-0.525-0.479c-0.165-0.169-0.356-0.318-0.528-0.482
			c-0.164-0.169-0.356-0.316-0.527-0.482c-0.165-0.169-0.356-0.316-0.526-0.479c-0.165-0.169-0.357-0.316-0.527-0.479
			c-0.165-0.171-0.357-0.318-0.527-0.482c-0.165-0.169-0.357-0.316-0.527-0.479c-0.164-0.171-0.356-0.316-0.526-0.479
			c-0.165-0.171-0.357-0.318-0.529-0.484c-0.164-0.169-0.354-0.313-0.524-0.476c-0.165-0.171-0.356-0.318-0.528-0.482
			c-0.164-0.169-0.355-0.316-0.525-0.479c-0.165-0.172-0.358-0.318-0.529-0.482c-0.163-0.169-0.355-0.316-0.525-0.479
			c-0.165-0.169-0.357-0.318-0.528-0.482c-0.164-0.169-0.356-0.316-0.527-0.482c-0.165-0.169-0.356-0.316-0.527-0.479
			c-0.163-0.169-0.355-0.316-0.525-0.479c-0.165-0.169-0.358-0.318-0.529-0.482c-0.163-0.169-0.354-0.316-0.524-0.479
			c-0.165-0.169-0.357-0.316-0.528-0.482c-0.165-0.169-0.356-0.316-0.527-0.479c-0.165-0.169-0.356-0.316-0.527-0.482
			c-0.164-0.169-0.356-0.313-0.526-0.479c-0.165-0.169-0.357-0.316-0.528-0.482c-0.164-0.169-0.356-0.316-0.527-0.479
			c-0.165-0.169-0.356-0.316-0.527-0.482c-0.165-0.169-0.356-0.316-0.527-0.479c-0.165-0.169-0.356-0.316-0.527-0.482
			c-5.406-5.568-14.161-8.363-26.274-8.363c-12.588,0-21.887,2.406-27.874,7.193c-5.997,4.809-16.184,17.983-30.573,39.564
			l-284.152,404.617l-16.184,23.377l-16.188,22.482l-15.286,23.377l-35.051,44.073c-8.248,8.709-10.967,14.6-18.881,17.703
			c9.285-31.873,26.553-92.705,26.553-92.705c6.589-23.377,14.079-39.561,22.48-48.556c8.388-8.989,20.371-13.487,35.967-13.487
			c24.572-2.289,36.864-10.605,36.864-24.966c0-4.137-1.261-7.408-3.667-9.89c-0.152-0.174-0.364-0.31-0.528-0.479
			c-0.152-0.177-0.363-0.313-0.527-0.482c-0.152-0.174-0.364-0.31-0.527-0.479c-0.152-0.177-0.363-0.313-0.526-0.482
			c-0.153-0.174-0.365-0.31-0.528-0.479c-0.152-0.177-0.363-0.313-0.526-0.479c-0.152-0.177-0.364-0.313-0.528-0.482
			c-0.152-0.177-0.363-0.313-0.527-0.482c-0.152-0.174-0.364-0.31-0.527-0.479c-0.152-0.177-0.364-0.313-0.527-0.479
			c-0.152-0.177-0.363-0.313-0.526-0.482c-0.153-0.177-0.365-0.313-0.528-0.482c-0.152-0.174-0.363-0.31-0.526-0.479
			c-0.152-0.174-0.364-0.31-0.528-0.479c-0.152-0.177-0.363-0.313-0.527-0.482c-0.152-0.174-0.364-0.31-0.527-0.479
			c-0.152-0.177-0.363-0.313-0.526-0.482c-0.153-0.174-0.365-0.31-0.528-0.479c-0.152-0.177-0.363-0.313-0.526-0.479
			c-0.152-0.177-0.364-0.313-0.528-0.482c-0.152-0.177-0.363-0.313-0.527-0.482c-0.152-0.174-0.364-0.31-0.527-0.479
			c-0.152-0.177-0.363-0.31-0.526-0.479c-0.152-0.177-0.364-0.313-0.528-0.482c-0.152-0.177-0.363-0.313-0.527-0.479
			c-0.152-0.177-0.364-0.313-0.527-0.482c-0.153-0.174-0.363-0.31-0.526-0.479c-0.153-0.177-0.364-0.313-0.528-0.482
			c-0.152-0.177-0.363-0.31-0.526-0.479c-0.152-0.177-0.364-0.313-0.528-0.482c-0.152-0.174-0.363-0.31-0.527-0.479
			c-0.152-0.177-0.364-0.313-0.527-0.482c-0.152-0.174-0.363-0.31-0.526-0.479c-0.153-0.177-0.365-0.313-0.528-0.482
			c-0.152-0.174-0.363-0.31-0.527-0.479c-0.152-0.177-0.363-0.31-0.526-0.479c-0.152-0.177-0.364-0.313-0.528-0.482
			c-0.152-0.177-0.363-0.313-0.527-0.479c-0.152-0.177-0.364-0.313-0.527-0.482c-0.153-0.174-0.363-0.31-0.526-0.479
			c-0.153-0.177-0.364-0.313-0.528-0.482c-0.152-0.177-0.363-0.31-0.526-0.479c-0.152-0.177-0.364-0.313-0.528-0.482
			c-0.152-0.174-0.363-0.31-0.527-0.479c-0.152-0.177-0.364-0.313-0.527-0.482c-0.152-0.174-0.363-0.31-0.526-0.479
			c-0.153-0.177-0.365-0.313-0.528-0.482c-0.152-0.174-0.363-0.31-0.526-0.479c-0.152-0.174-0.364-0.31-0.528-0.479
			c-0.152-0.177-0.363-0.313-0.527-0.482c-0.152-0.177-0.364-0.313-0.527-0.479c-0.152-0.177-0.363-0.313-0.526-0.482
			c-0.152-0.174-0.364-0.31-0.528-0.479c-0.153-0.177-0.363-0.313-0.527-0.482c-0.152-0.174-0.364-0.31-0.527-0.479
			c-0.152-0.177-0.363-0.313-0.526-0.482c-0.153-0.174-0.364-0.31-0.528-0.479c-0.152-0.177-0.363-0.313-0.527-0.482
			c-0.152-0.174-0.363-0.31-0.526-0.479c-0.153-0.177-0.365-0.313-0.528-0.482c-0.152-0.174-0.363-0.31-0.526-0.479
			c-0.152-0.174-0.364-0.31-0.528-0.479c-0.152-0.177-0.363-0.313-0.527-0.482c-0.152-0.177-0.364-0.313-0.527-0.479
			c-0.152-0.177-0.363-0.313-0.526-0.482c-0.152-0.174-0.364-0.31-0.528-0.479c-0.153-0.177-0.363-0.313-0.527-0.482
			c-0.152-0.174-0.364-0.31-0.527-0.479c-0.152-0.177-0.363-0.313-0.526-0.482c-0.153-0.174-0.364-0.31-0.528-0.479
			c-0.152-0.177-0.363-0.313-0.526-0.479c-0.152-0.177-0.364-0.313-0.528-0.482c-0.152-0.177-0.363-0.313-0.527-0.482
			c-0.152-0.174-0.364-0.31-0.527-0.479c-0.153-0.177-0.363-0.31-0.526-0.479c-3.508-4.055-9.952-6.088-19.335-6.088h-43.161
			c-20.99,2.406-44.664,3.598-71.036,3.598c-1.8,0-5.098,0-9.891,0c-2.401,0-6.292,0-11.687,0l-80.927-2.697l-44.961-0.901
			c-20.99,0-31.47,6.605-31.47,19.782c0,7.127,2.275,12.078,6.714,14.968c0.135,0.128,0.288,0.242,0.429,0.365
			c0.17,0.166,0.347,0.327,0.527,0.482c0.17,0.166,0.348,0.324,0.528,0.482c0.17,0.163,0.346,0.321,0.525,0.479
			c0.17,0.163,0.348,0.324,0.528,0.479c0.17,0.166,0.347,0.327,0.527,0.482c0.17,0.163,0.347,0.324,0.527,0.479
			c0.17,0.166,0.347,0.324,0.526,0.482c0.17,0.163,0.348,0.324,0.528,0.479c0.17,0.166,0.346,0.324,0.526,0.479
			c0.17,0.166,0.347,0.327,0.527,0.482c0.17,0.166,0.347,0.324,0.527,0.482c0.17,0.163,0.347,0.324,0.527,0.479
			c0.17,0.163,0.346,0.324,0.526,0.479c0.17,0.166,0.347,0.327,0.527,0.482c0.17,0.166,0.347,0.324,0.527,0.482
			c0.17,0.163,0.347,0.321,0.527,0.479c0.17,0.163,0.347,0.324,0.526,0.479c0.17,0.166,0.348,0.327,0.528,0.482
			c0.17,0.166,0.346,0.324,0.525,0.479c0.17,0.166,0.348,0.324,0.528,0.482c0.17,0.163,0.347,0.324,0.527,0.479
			c0.17,0.166,0.347,0.324,0.527,0.482c0.17,0.163,0.347,0.324,0.526,0.479c0.171,0.166,0.348,0.324,0.528,0.482
			c0.17,0.163,0.347,0.324,0.526,0.479c0.17,0.163,0.346,0.324,0.526,0.479c0.17,0.166,0.348,0.327,0.528,0.482
			c0.17,0.166,0.346,0.324,0.525,0.479c0.17,0.166,0.347,0.324,0.527,0.482c0.17,0.163,0.347,0.324,0.526,0.479
			c0.17,0.166,0.348,0.327,0.528,0.482c0.17,0.166,0.346,0.324,0.525,0.479c0.17,0.166,0.348,0.324,0.528,0.482
			c0.17,0.163,0.347,0.324,0.527,0.479c0.17,0.166,0.347,0.324,0.527,0.482c0.17,0.163,0.347,0.324,0.526,0.479
			c0.171,0.166,0.348,0.324,0.528,0.482c0.17,0.163,0.346,0.324,0.526,0.479c0.17,0.163,0.347,0.324,0.527,0.479
			c0.17,0.166,0.347,0.327,0.527,0.482c0.17,0.166,0.347,0.324,0.527,0.479c0.17,0.166,0.347,0.324,0.526,0.482
			c0.17,0.163,0.347,0.324,0.527,0.479c0.17,0.166,0.347,0.327,0.527,0.482c0.17,0.163,0.347,0.324,0.527,0.479
			c0.17,0.166,0.347,0.324,0.526,0.482c0.17,0.163,0.348,0.324,0.528,0.479c0.17,0.166,0.347,0.324,0.526,0.482
			c0.17,0.163,0.347,0.324,0.526,0.479c0.171,0.166,0.348,0.324,0.528,0.482c0.17,0.163,0.346,0.324,0.526,0.479
			c0.17,0.163,0.347,0.324,0.527,0.479c0.17,0.166,0.347,0.327,0.527,0.482c0.17,0.166,0.347,0.324,0.527,0.479
			c0.17,0.166,0.347,0.324,0.526,0.482c0.17,0.163,0.347,0.324,0.527,0.479c0.17,0.166,0.347,0.327,0.527,0.482
			c0.17,0.163,0.347,0.324,0.527,0.479c0.17,0.166,0.347,0.324,0.526,0.482c0.17,0.163,0.348,0.324,0.528,0.479
			c0.17,0.166,0.346,0.324,0.525,0.479c0.17,0.166,0.348,0.327,0.528,0.482c0.17,0.166,0.347,0.324,0.527,0.482
			c0.17,0.163,0.347,0.324,0.527,0.479c0.17,0.163,0.347,0.324,0.526,0.479c0.17,0.166,0.348,0.327,0.528,0.482
			c0.17,0.166,0.346,0.324,0.526,0.479c0.17,0.166,0.347,0.324,0.527,0.482c0.17,0.163,0.347,0.324,0.527,0.479
			c0.091,0.09,0.159,0.199,0.253,0.283c3.099,3.775,8.107,5.729,15.171,5.729c4.009,0.514,7.654,1.045,11.134,1.584
			c-0.203,7.43-1.345,14.165-3.511,20.128l-33.269,117.286c-4.807,16.13-10.044,26.43-15.735,30.894
			c-5.704,4.485-16.044,6.719-31.021,6.719c-33.163,0-61.629-7.236-85.465-21.633c-23.609-31.318-35.453-71.963-35.453-122.004
			c0-53.43,12.279-105.058,36.864-154.906c24.572-49.835,58.137-91.873,100.71-126.1c35.967-28.812,74.025-51.027,114.192-66.637
			c40.154-15.607,79.424-23.418,117.792-23.418c0.405,0,0.771,0.027,1.17,0.033c0.102,1.837,0.156,3.742,0.156,5.729l-1.795,45.859
			c0,15.618,3.166,26.226,9.452,31.92c0.171,0.169,0.352,0.321,0.528,0.482c0.171,0.166,0.35,0.318,0.525,0.479
			c0.171,0.166,0.351,0.321,0.528,0.482c0.171,0.166,0.351,0.318,0.527,0.479c0.171,0.169,0.351,0.321,0.527,0.479
			c0.171,0.169,0.35,0.321,0.526,0.482c0.171,0.166,0.352,0.321,0.528,0.482c0.171,0.166,0.35,0.318,0.525,0.479
			c0.171,0.166,0.351,0.321,0.528,0.479c0.171,0.169,0.35,0.321,0.526,0.482c0.171,0.166,0.352,0.321,0.528,0.482
			c0.17,0.166,0.35,0.318,0.525,0.479c0.171,0.166,0.352,0.321,0.528,0.479c0.171,0.169,0.351,0.321,0.527,0.482
			c0.171,0.166,0.351,0.318,0.527,0.479c0.171,0.166,0.35,0.321,0.526,0.479c0.171,0.169,0.352,0.324,0.528,0.482
			c0.171,0.169,0.35,0.321,0.525,0.479c0.171,0.169,0.352,0.321,0.528,0.482c0.171,0.166,0.351,0.321,0.527,0.479
			c0.171,0.169,0.351,0.321,0.527,0.482c0.171,0.166,0.351,0.321,0.527,0.479c0.171,0.169,0.351,0.321,0.527,0.482
			c0.171,0.166,0.351,0.321,0.527,0.479c0.171,0.169,0.35,0.321,0.526,0.482c0.172,0.166,0.352,0.321,0.528,0.479
			c0.171,0.169,0.351,0.321,0.527,0.482c0.171,0.166,0.351,0.318,0.527,0.479c0.171,0.166,0.35,0.321,0.526,0.479
			c0.171,0.169,0.352,0.324,0.528,0.482c0.171,0.169,0.35,0.321,0.525,0.479c0.171,0.169,0.352,0.321,0.528,0.482
			c0.171,0.166,0.351,0.321,0.527,0.479c0.171,0.169,0.351,0.321,0.527,0.482c0.171,0.166,0.35,0.321,0.526,0.479
			c0.171,0.169,0.352,0.321,0.528,0.482c0.171,0.166,0.35,0.321,0.525,0.479c0.171,0.166,0.351,0.321,0.528,0.482
			c0.171,0.166,0.35,0.321,0.526,0.479c0.172,0.169,0.352,0.321,0.528,0.482c0.17,0.166,0.35,0.318,0.526,0.479
			c0.171,0.166,0.351,0.321,0.528,0.482c0.171,0.166,0.351,0.318,0.527,0.479c0.171,0.169,0.351,0.321,0.527,0.479
			c0.171,0.169,0.351,0.321,0.527,0.482c0.171,0.166,0.351,0.321,0.527,0.479c0.171,0.169,0.351,0.321,0.527,0.482
			c0.171,0.166,0.35,0.321,0.526,0.479c0.171,0.169,0.352,0.321,0.528,0.482c0.171,0.166,0.35,0.321,0.525,0.479
			c0.171,0.166,0.351,0.321,0.528,0.482c0.171,0.166,0.35,0.321,0.526,0.479c0.172,0.169,0.352,0.321,0.528,0.482
			c0.17,0.166,0.35,0.318,0.526,0.479c0.171,0.166,0.351,0.321,0.528,0.482c0.171,0.166,0.351,0.318,0.527,0.479
			c0.171,0.169,0.351,0.321,0.527,0.479c0.171,0.169,0.35,0.321,0.526,0.482c0.171,0.166,0.352,0.321,0.528,0.482
			c0.171,0.166,0.35,0.318,0.525,0.479c0.171,0.166,0.352,0.321,0.528,0.479c0.171,0.169,0.351,0.321,0.526,0.482
			c0.171,0.166,0.351,0.321,0.527,0.479c0.171,0.166,0.35,0.321,0.526,0.482c0.171,0.166,0.352,0.321,0.528,0.479
			c0.171,0.169,0.35,0.321,0.525,0.479c0.171,0.169,0.352,0.321,0.528,0.482c0.171,0.166,0.35,0.321,0.526,0.479
			c0.171,0.169,0.351,0.324,0.528,0.482c0.171,0.169,0.351,0.321,0.527,0.479c0.171,0.169,0.35,0.321,0.526,0.482
			c0.171,0.166,0.352,0.321,0.528,0.482c0.171,0.166,0.35,0.318,0.525,0.479c0.172,0.166,0.352,0.321,0.528,0.479
			c0.171,0.169,0.351,0.321,0.526,0.482c3.682,3.598,8.485,5.429,14.452,5.429c14.388,0,26.075-15.583,35.069-46.762l22.476-68.332
			c3.599-8.349,5.399-15.161,5.399-20.443c0-4.703-1.895-8.668-5.672-11.898c-0.232-0.218-0.44-0.441-0.688-0.65
			c-0.176-0.161-0.342-0.324-0.527-0.479c-0.176-0.161-0.341-0.324-0.526-0.482c-0.177-0.161-0.343-0.324-0.528-0.482
			c-0.176-0.158-0.341-0.321-0.525-0.476c-0.177-0.161-0.342-0.327-0.528-0.482c-0.177-0.161-0.342-0.324-0.528-0.482
			c-0.176-0.158-0.34-0.321-0.525-0.479c-0.177-0.161-0.342-0.324-0.528-0.482c-0.176-0.158-0.341-0.324-0.526-0.479
			c-0.176-0.161-0.342-0.324-0.527-0.479c-0.176-0.161-0.341-0.324-0.526-0.482c-0.177-0.158-0.342-0.324-0.528-0.479
			c-0.176-0.161-0.341-0.327-0.527-0.482c-0.176-0.161-0.342-0.324-0.527-0.479c-0.176-0.161-0.341-0.324-0.526-0.482
			c-0.177-0.158-0.343-0.324-0.529-0.482c-0.176-0.158-0.34-0.321-0.525-0.476c-0.177-0.161-0.342-0.327-0.528-0.482
			c-0.176-0.161-0.342-0.324-0.527-0.482c-0.176-0.158-0.341-0.321-0.526-0.479c-0.176-0.161-0.341-0.324-0.526-0.479
			c-0.177-0.161-0.343-0.327-0.528-0.482c-0.176-0.161-0.341-0.324-0.525-0.479c-0.177-0.161-0.342-0.324-0.528-0.482
			c-0.176-0.161-0.341-0.324-0.526-0.479c-0.177-0.161-0.343-0.327-0.528-0.482c-0.176-0.161-0.341-0.324-0.525-0.479
			c-0.177-0.161-0.342-0.324-0.528-0.482c-0.177-0.161-0.342-0.324-0.528-0.482c-0.176-0.158-0.34-0.321-0.525-0.476
			c-0.177-0.161-0.342-0.327-0.528-0.482c-0.176-0.161-0.341-0.324-0.527-0.482c-0.176-0.158-0.342-0.321-0.527-0.479
			c-0.176-0.161-0.341-0.324-0.526-0.479c-0.177-0.161-0.343-0.327-0.529-0.482c-0.176-0.161-0.34-0.324-0.525-0.479
			c-0.177-0.161-0.342-0.324-0.528-0.482c-0.176-0.161-0.34-0.324-0.525-0.479c-0.177-0.161-0.343-0.327-0.529-0.482
			c-0.176-0.161-0.34-0.324-0.525-0.479c-0.177-0.161-0.342-0.324-0.528-0.482c-0.176-0.161-0.342-0.324-0.527-0.479
			c-0.176-0.161-0.342-0.324-0.527-0.482c-0.176-0.158-0.341-0.324-0.526-0.479c-0.177-0.161-0.343-0.324-0.528-0.482
			c-0.176-0.161-0.34-0.321-0.525-0.479c-0.177-0.161-0.342-0.324-0.528-0.482c-0.176-0.158-0.342-0.324-0.527-0.479
			c-0.176-0.161-0.341-0.324-0.526-0.479c-0.176-0.161-0.341-0.324-0.526-0.482c-0.177-0.161-0.343-0.324-0.528-0.482
			c-0.176-0.158-0.341-0.321-0.525-0.476c-0.177-0.161-0.342-0.327-0.528-0.482c-0.176-0.161-0.342-0.324-0.527-0.482
			c-0.176-0.161-0.341-0.324-0.527-0.479c-0.176-0.161-0.342-0.324-0.527-0.482c-0.176-0.158-0.341-0.324-0.526-0.479
			c-0.177-0.161-0.343-0.324-0.529-0.482c-0.176-0.158-0.34-0.321-0.525-0.479c-0.177-0.161-0.342-0.324-0.528-0.482
			c-0.176-0.158-0.341-0.324-0.527-0.479c-0.176-0.161-0.342-0.324-0.527-0.479c-0.176-0.161-0.341-0.324-0.526-0.482
			c-0.177-0.158-0.343-0.324-0.529-0.482c-0.176-0.158-0.34-0.321-0.525-0.476c-0.177-0.161-0.342-0.327-0.528-0.482
			c-0.176-0.161-0.341-0.324-0.526-0.482c-0.177-0.161-0.343-0.324-0.528-0.482c-0.176-0.158-0.341-0.321-0.525-0.476
			c-0.177-0.161-0.342-0.327-0.528-0.482c-0.176-0.161-0.342-0.324-0.527-0.482c-0.176-0.158-0.342-0.324-0.527-0.479
			c-0.176-0.161-0.341-0.324-0.526-0.479c-0.225-0.204-0.456-0.406-0.695-0.604c-3.747-3.296-9.404-5.846-17.006-7.636
			c-29.378-6.436-63.253-9.669-101.608-9.669c-56.957,0-114.955,8.404-173.99,25.179c-59.053,16.789-114.053,40.168-165.001,70.139
			c-62.351,36.568-110.597,80.334-144.764,131.276c-34.172,50.956-51.253,104.906-51.253,161.849
			c0,66.931,24.792,122.236,74.386,165.945c0.178,0.158,0.345,0.321,0.524,0.476c0.181,0.161,0.352,0.327,0.534,0.487
			c0.177,0.158,0.343,0.318,0.52,0.474c0.18,0.161,0.349,0.324,0.53,0.484c0.179,0.158,0.348,0.321,0.527,0.482
			c0.178,0.158,0.347,0.321,0.526,0.479c0.178,0.158,0.345,0.318,0.524,0.476c0.18,0.161,0.349,0.324,0.53,0.484
			c0.179,0.158,0.348,0.321,0.527,0.479c0.179,0.161,0.347,0.324,0.526,0.482c0.179,0.158,0.348,0.321,0.527,0.479
			s0.348,0.324,0.527,0.482c0.178,0.158,0.347,0.321,0.526,0.479c0.178,0.158,0.345,0.321,0.524,0.476
			c0.181,0.161,0.352,0.327,0.534,0.487c0.177,0.158,0.343,0.318,0.52,0.474c0.18,0.161,0.349,0.324,0.53,0.484
			c0.179,0.158,0.348,0.321,0.527,0.482c0.178,0.158,0.347,0.321,0.526,0.479c0.178,0.158,0.345,0.318,0.524,0.476
			c0.18,0.161,0.349,0.324,0.53,0.484c0.179,0.158,0.348,0.321,0.527,0.479c0.179,0.161,0.347,0.324,0.526,0.482
			c0.178,0.158,0.345,0.318,0.523,0.476c0.181,0.161,0.352,0.327,0.534,0.487c0.177,0.155,0.343,0.316,0.52,0.474
			c0.18,0.158,0.349,0.324,0.53,0.484c0.179,0.158,0.348,0.321,0.527,0.479c0.179,0.158,0.347,0.321,0.526,0.479
			c0.178,0.158,0.345,0.321,0.523,0.479c0.181,0.161,0.352,0.327,0.534,0.484c0.177,0.158,0.343,0.318,0.52,0.476
			c0.18,0.158,0.349,0.324,0.53,0.482c0.179,0.158,0.348,0.324,0.527,0.482c0.178,0.158,0.347,0.321,0.526,0.479
			c0.179,0.158,0.348,0.324,0.527,0.482c0.178,0.158,0.345,0.318,0.523,0.476c0.181,0.161,0.352,0.327,0.534,0.487
			c0.177,0.155,0.343,0.316,0.52,0.474c0.18,0.158,0.349,0.324,0.53,0.484c0.179,0.158,0.348,0.321,0.527,0.479
			c0.179,0.158,0.347,0.321,0.526,0.479c0.178,0.158,0.345,0.321,0.523,0.479c0.181,0.161,0.352,0.327,0.534,0.484
			c0.177,0.158,0.343,0.318,0.52,0.476c0.18,0.158,0.349,0.324,0.53,0.482c0.179,0.158,0.348,0.324,0.527,0.482
			c0.178,0.158,0.347,0.321,0.526,0.479c0.178,0.158,0.345,0.321,0.524,0.476c0.18,0.161,0.349,0.327,0.53,0.484
			c0.179,0.158,0.348,0.324,0.527,0.482c0.179,0.158,0.347,0.321,0.526,0.479c0.178,0.158,0.345,0.321,0.523,0.476
			c0.181,0.161,0.352,0.327,0.534,0.487c0.177,0.158,0.343,0.318,0.52,0.474c0.18,0.161,0.349,0.324,0.53,0.484
			c0.179,0.158,0.348,0.321,0.527,0.482c0.179,0.158,0.347,0.321,0.526,0.479c0.179,0.158,0.348,0.321,0.527,0.479
			s0.348,0.324,0.527,0.482c0.178,0.158,0.347,0.321,0.526,0.479c0.178,0.158,0.345,0.321,0.524,0.476
			c0.18,0.161,0.349,0.327,0.53,0.484c0.179,0.158,0.348,0.324,0.527,0.482c0.179,0.158,0.347,0.321,0.526,0.479
			c0.178,0.158,0.345,0.321,0.523,0.476c0.181,0.161,0.352,0.327,0.534,0.487c0.177,0.158,0.343,0.318,0.52,0.474
			c0.18,0.161,0.349,0.324,0.53,0.484c0.179,0.158,0.348,0.321,0.527,0.482c0.179,0.158,0.347,0.321,0.526,0.479
			c0.178,0.158,0.345,0.318,0.523,0.476c0.181,0.161,0.352,0.327,0.534,0.487c0.177,0.155,0.343,0.318,0.52,0.474
			c0.18,0.161,0.349,0.324,0.53,0.484c3.439,3.045,6.984,6.044,10.663,8.981c56.338,44.955,129.478,67.434,219.399,67.434
			c77.54,0,145.96-23.581,187.014-49.753c0.013,0.008,0.031,0.016,0.043,0.024c0.186,0.155,0.332,0.338,0.528,0.482
			c0.185,0.152,0.33,0.335,0.525,0.479c0.185,0.152,0.332,0.335,0.528,0.482c0.185,0.152,0.331,0.335,0.527,0.479
			c0.185,0.152,0.331,0.337,0.527,0.482c0.185,0.152,0.331,0.335,0.527,0.479c0.185,0.152,0.332,0.335,0.527,0.482
			c0.185,0.152,0.331,0.335,0.526,0.479c0.185,0.152,0.331,0.335,0.526,0.479c0.185,0.155,0.331,0.337,0.527,0.482
			c0.186,0.152,0.332,0.335,0.527,0.482c0.185,0.152,0.331,0.335,0.526,0.479c0.185,0.152,0.331,0.335,0.526,0.479
			c0.186,0.155,0.333,0.337,0.528,0.482c0.185,0.152,0.33,0.335,0.525,0.479c0.185,0.152,0.331,0.335,0.527,0.482
			c0.186,0.152,0.332,0.335,0.527,0.479c0.185,0.152,0.331,0.335,0.526,0.482c0.185,0.152,0.331,0.335,0.526,0.479
			c0.186,0.152,0.332,0.335,0.528,0.482c0.185,0.152,0.33,0.335,0.525,0.479c0.186,0.152,0.332,0.335,0.527,0.479
			c0.185,0.155,0.332,0.338,0.527,0.482c0.185,0.152,0.331,0.335,0.526,0.479c0.185,0.155,0.331,0.335,0.526,0.482
			c0.185,0.152,0.332,0.335,0.528,0.479c0.185,0.155,0.331,0.337,0.527,0.482c0.185,0.152,0.331,0.335,0.527,0.479
			c0.185,0.155,0.33,0.335,0.526,0.482c0.186,0.152,0.332,0.335,0.528,0.479c0.185,0.155,0.331,0.338,0.526,0.482
			c0.185,0.152,0.331,0.335,0.526,0.479c0.186,0.152,0.332,0.335,0.528,0.482c0.185,0.152,0.33,0.335,0.525,0.479
			c0.186,0.152,0.331,0.335,0.527,0.479c0.185,0.155,0.332,0.337,0.527,0.482c0.185,0.152,0.331,0.335,0.526,0.479
			c0.185,0.155,0.331,0.335,0.526,0.482c0.185,0.152,0.331,0.335,0.527,0.479c0.185,0.152,0.332,0.338,0.527,0.482
			c0.185,0.152,0.331,0.335,0.526,0.479c0.185,0.152,0.331,0.335,0.526,0.482c0.186,0.152,0.333,0.335,0.528,0.479
			c0.185,0.155,0.33,0.335,0.525,0.479c0.185,0.155,0.331,0.338,0.527,0.482c0.186,0.152,0.332,0.335,0.527,0.482
			c0.185,0.152,0.331,0.335,0.526,0.479c0.185,0.152,0.331,0.335,0.526,0.479c0.186,0.155,0.332,0.337,0.528,0.482
			c0.185,0.152,0.33,0.335,0.525,0.479c0.185,0.155,0.332,0.337,0.528,0.482c0.185,0.152,0.33,0.335,0.526,0.479
			c0.186,0.155,0.332,0.337,0.528,0.482c0.185,0.152,0.331,0.335,0.526,0.479c0.185,0.152,0.331,0.335,0.526,0.482
			c0.186,0.152,0.333,0.335,0.528,0.479c0.185,0.155,0.33,0.335,0.525,0.479c0.185,0.155,0.331,0.337,0.527,0.482
			c0.186,0.152,0.332,0.335,0.527,0.482c0.185,0.152,0.331,0.335,0.526,0.479c0.185,0.152,0.331,0.335,0.526,0.479
			c0.186,0.155,0.333,0.338,0.528,0.482c0.185,0.152,0.33,0.335,0.525,0.479c0.186,0.155,0.332,0.335,0.527,0.482
			c0.186,0.152,0.332,0.335,0.527,0.479c0.185,0.155,0.331,0.337,0.526,0.482c0.185,0.152,0.331,0.335,0.526,0.479
			c0.185,0.152,0.331,0.335,0.527,0.482c3.589,2.961,9.101,4.485,16.641,4.485l57.019-3.47c21.083-1.284,42.221-1.35,63.311-0.201
			l27.683,1.505l34.172,2.166c19.177,0,28.772-6.912,28.772-20.767c0-4.741-1.473-8.662-4.255-11.852
			c-0.744-0.944-1.584-1.834-2.555-2.651c-0.177-0.158-0.343-0.324-0.528-0.479c-0.176-0.161-0.341-0.327-0.525-0.479
			c-0.177-0.161-0.343-0.327-0.527-0.482c-0.176-0.161-0.343-0.324-0.527-0.482c-0.176-0.158-0.342-0.324-0.527-0.479
			c-0.176-0.161-0.342-0.324-0.526-0.479c-0.177-0.161-0.343-0.327-0.527-0.482c-0.176-0.161-0.343-0.324-0.527-0.479
			c-0.176-0.161-0.342-0.327-0.527-0.482c-0.176-0.158-0.342-0.324-0.526-0.479c-0.177-0.161-0.343-0.327-0.528-0.482
			c-0.176-0.161-0.341-0.324-0.525-0.479c-0.177-0.161-0.343-0.327-0.527-0.482c-0.176-0.158-0.343-0.324-0.527-0.479
			c-0.176-0.161-0.342-0.327-0.526-0.482c-0.176-0.158-0.342-0.324-0.526-0.479c-0.177-0.161-0.343-0.327-0.528-0.482
			c-0.176-0.158-0.342-0.324-0.526-0.479c-0.176-0.161-0.342-0.324-0.526-0.479c-0.177-0.161-0.343-0.327-0.528-0.482
			c-0.176-0.161-0.341-0.324-0.525-0.479c-0.177-0.161-0.343-0.327-0.527-0.482c-0.176-0.158-0.342-0.324-0.526-0.479
			c-0.177-0.161-0.343-0.327-0.528-0.482c-0.176-0.161-0.341-0.324-0.525-0.479c-0.177-0.161-0.343-0.327-0.527-0.482
			c-0.176-0.158-0.343-0.324-0.527-0.479c-0.176-0.161-0.342-0.327-0.527-0.482c-0.176-0.158-0.342-0.324-0.526-0.479
			c-0.177-0.161-0.343-0.327-0.528-0.482c-0.176-0.158-0.341-0.324-0.525-0.479c-0.177-0.158-0.343-0.327-0.527-0.479
			c-0.176-0.161-0.343-0.327-0.527-0.482c-0.176-0.161-0.342-0.324-0.526-0.479c-0.176-0.161-0.342-0.327-0.526-0.482
			c-0.177-0.158-0.343-0.324-0.527-0.479c-0.176-0.161-0.343-0.327-0.527-0.482c-0.176-0.161-0.342-0.324-0.526-0.479
			c-0.176-0.161-0.342-0.327-0.526-0.482c-0.177-0.158-0.343-0.324-0.528-0.479c-0.176-0.161-0.342-0.327-0.526-0.482
			c-0.176-0.158-0.342-0.324-0.526-0.479c-0.177-0.161-0.343-0.327-0.528-0.482c-0.176-0.158-0.341-0.324-0.525-0.479
			c-0.177-0.158-0.343-0.327-0.527-0.479c-0.176-0.161-0.343-0.327-0.527-0.482c-0.176-0.161-0.342-0.324-0.527-0.479
			c-0.176-0.161-0.342-0.327-0.526-0.482c-0.177-0.158-0.343-0.324-0.527-0.479c-0.176-0.161-0.343-0.327-0.527-0.482
			c-0.176-0.161-0.342-0.324-0.527-0.479c-0.176-0.161-0.342-0.324-0.526-0.482c-0.177-0.158-0.343-0.324-0.528-0.479
			c-0.176-0.161-0.341-0.327-0.525-0.479c-0.177-0.161-0.343-0.327-0.527-0.482c-0.176-0.161-0.343-0.324-0.527-0.482
			c-0.176-0.158-0.342-0.324-0.527-0.479c-0.176-0.161-0.342-0.324-0.526-0.479c-0.177-0.161-0.343-0.327-0.528-0.482
			c-0.176-0.161-0.341-0.324-0.525-0.479c-0.177-0.161-0.343-0.327-0.527-0.482c-0.176-0.158-0.343-0.324-0.527-0.479
			c-0.176-0.161-0.342-0.327-0.526-0.482c-0.176-0.158-0.342-0.324-0.526-0.479c-0.177-0.161-0.343-0.327-0.527-0.482
			c-0.177-0.158-0.343-0.324-0.528-0.479c-0.176-0.161-0.341-0.327-0.525-0.479c-0.177-0.161-0.343-0.327-0.527-0.482
			c-0.176-0.161-0.343-0.324-0.527-0.482c-0.176-0.158-0.342-0.324-0.527-0.479c-0.176-0.161-0.342-0.324-0.526-0.479
			c-0.177-0.161-0.343-0.327-0.528-0.482c-0.176-0.161-0.341-0.324-0.525-0.479c-0.259-0.234-0.536-0.457-0.812-0.68
			c-0.594-0.512-1.321-0.95-2.002-1.41c-0.321-0.207-0.579-0.446-0.918-0.642c-3.865-2.354-8.938-4.033-15.318-4.988
			c-4.451-0.528-8.62-1.165-12.511-1.905c1.185-7.849,4.606-17.009,10.354-27.516c3.021-7.22,8.15-16.862,15.398-28.901
			c3.626-6.009,9.358-15.354,17.212-28.001l28.072-42.443h143.151l2.438,42.631v36.867c0,16.786-2.697,28.629-8.092,35.515
			c-5.395,6.896-15.892,11.242-31.469,13.041c-15.596,1.796-26.232,4.493-31.923,8.094c-5.704,3.592-8.541,9.299-8.541,17.08
			c0,5.791,1.797,10.091,5.355,12.938c0.178,0.158,0.339,0.329,0.528,0.482c0.177,0.158,0.339,0.329,0.527,0.479
			c0.178,0.158,0.339,0.329,0.527,0.482c0.177,0.158,0.339,0.329,0.527,0.479c0.178,0.158,0.339,0.329,0.527,0.479
			c0.178,0.161,0.339,0.332,0.527,0.482c0.177,0.158,0.338,0.329,0.526,0.479c0.178,0.158,0.339,0.332,0.528,0.482
			c0.177,0.158,0.339,0.329,0.527,0.479c0.178,0.158,0.339,0.332,0.527,0.482c0.178,0.158,0.339,0.329,0.526,0.479
			c0.178,0.158,0.34,0.332,0.528,0.482c0.178,0.158,0.338,0.329,0.525,0.479c0.178,0.158,0.339,0.329,0.528,0.482
			c0.177,0.158,0.339,0.329,0.527,0.479c0.178,0.158,0.339,0.329,0.527,0.482c0.177,0.158,0.338,0.329,0.526,0.479
			c0.178,0.158,0.34,0.329,0.528,0.482c0.177,0.158,0.338,0.329,0.525,0.479c0.178,0.158,0.34,0.329,0.528,0.479
			c0.177,0.161,0.338,0.329,0.526,0.482c0.178,0.158,0.34,0.329,0.528,0.479c0.177,0.158,0.338,0.332,0.525,0.479
			c0.178,0.161,0.34,0.332,0.528,0.482c0.177,0.158,0.339,0.332,0.527,0.482c0.178,0.158,0.339,0.329,0.527,0.479
			c0.178,0.158,0.339,0.332,0.527,0.482c0.177,0.158,0.339,0.329,0.527,0.479c0.178,0.158,0.339,0.329,0.527,0.482
			c0.177,0.158,0.338,0.329,0.526,0.479c0.178,0.158,0.34,0.329,0.528,0.482c0.177,0.158,0.338,0.329,0.525,0.479
			c0.178,0.158,0.34,0.329,0.528,0.479c0.177,0.161,0.339,0.332,0.527,0.482c0.178,0.158,0.339,0.329,0.527,0.479
			c0.177,0.158,0.338,0.329,0.526,0.479c0.178,0.161,0.34,0.332,0.528,0.482c0.177,0.158,0.339,0.332,0.527,0.482
			c0.178,0.158,0.339,0.329,0.527,0.479c0.178,0.158,0.339,0.329,0.526,0.479c0.178,0.161,0.34,0.332,0.528,0.482
			c0.178,0.158,0.338,0.329,0.525,0.479c0.178,0.158,0.339,0.332,0.528,0.482c0.178,0.158,0.339,0.329,0.527,0.479
			c0.178,0.161,0.339,0.332,0.527,0.482c0.178,0.158,0.339,0.329,0.526,0.479c0.178,0.161,0.34,0.332,0.528,0.482
			c0.178,0.158,0.338,0.329,0.525,0.479c0.178,0.158,0.339,0.332,0.528,0.482c0.177,0.158,0.338,0.329,0.526,0.479
			c0.178,0.158,0.34,0.332,0.528,0.482c0.177,0.158,0.339,0.329,0.526,0.479c0.178,0.158,0.339,0.329,0.526,0.479
			c0.178,0.161,0.34,0.332,0.528,0.482c0.178,0.158,0.338,0.329,0.525,0.479c0.178,0.158,0.339,0.332,0.528,0.482
			c0.177,0.158,0.339,0.329,0.527,0.479c0.178,0.161,0.339,0.332,0.527,0.482c0.178,0.158,0.339,0.329,0.526,0.479
			c0.178,0.158,0.34,0.332,0.528,0.482c0.178,0.158,0.338,0.329,0.525,0.479c0.178,0.158,0.339,0.332,0.528,0.482
			c0.177,0.158,0.338,0.329,0.526,0.479c0.178,0.158,0.34,0.332,0.528,0.482c0.177,0.158,0.338,0.329,0.525,0.479
			c0.178,0.158,0.34,0.329,0.528,0.482c0.178,0.158,0.339,0.329,0.527,0.479c0.178,0.158,0.339,0.329,0.527,0.482
			c0.177,0.158,0.338,0.329,0.526,0.479c0.178,0.158,0.34,0.329,0.528,0.482c0.177,0.158,0.338,0.329,0.525,0.479
			c0.178,0.158,0.34,0.329,0.528,0.479c0.177,0.161,0.339,0.332,0.527,0.482c0.178,0.158,0.339,0.329,0.527,0.479
			c0.178,0.158,0.339,0.332,0.527,0.482c3.44,3.064,8.696,4.629,15.851,4.629h29.674c22.772-0.898,44.198-2.025,64.29-3.372
			c20.075-1.353,38.507-2.025,55.297-2.025l71.035,2.697l28.773,2.7c17.983,0,26.977-6.602,26.977-19.839
			C3839,1219.639,3836.78,1215.035,3832.366,1211.568z M3490.257,956.967l79.36-117.424l4.553,117.424H3490.257z"/>
	</g>
	<g>
		<g>
			<path class="st19" d="M1279.468,1001.922h-181.099l-28.072,42.443c-7.854,12.647-13.585,21.991-17.211,28
				c-7.248,12.041-12.378,21.682-15.398,28.903c-7.248,13.249-10.856,24.388-10.856,33.409c0,17.463,17.674,28.297,53.048,32.511
				c16.188,2.419,24.28,9.344,24.28,20.779c0,13.854-9.595,20.766-28.772,20.766l-34.172-2.163l-59.344-3.231l-76.43,5.395h-24.276
				c-14.388,0-21.583-5.395-21.583-16.184c0-8.994,2.854-15.43,8.541-19.334c5.704-3.891,16.498-6.741,32.372-8.541
				c15.892-1.8,29.226-8.388,40.015-19.783l35.051-44.072l15.286-23.378l16.188-22.48l16.184-23.378l284.152-404.618
				c14.388-21.578,24.576-34.755,30.572-39.562c5.987-4.789,15.286-7.194,27.875-7.194c13.783,0,23.225,3.613,28.324,10.821
				c5.085,7.221,7.643,22.844,7.643,46.895l27.875,450.88c0,18.087,1.095,32.563,3.286,43.431
				c1.864,9.246,6.418,17.708,12.891,24.568l0,0c5.732,6.075,12.725,10.991,20.687,13.518c10.73,3.406,16.1,9.599,16.1,18.573
				c0,13.235-8.994,19.837-26.977,19.837l-28.772-2.697l-52.963-2.697c-16.79,0-35.222,0.673-55.296,2.024
				c-20.093,1.346-41.518,2.473-64.29,3.37h-29.674c-13.796,0-20.681-5.691-20.681-17.086c0-7.782,2.836-13.486,8.541-17.081
				c5.691-3.599,16.327-6.297,31.923-8.092c15.578-1.8,26.075-6.144,31.47-13.042c5.395-6.885,8.092-18.728,8.092-35.513v-36.869
				L1279.468,1001.922z M1275.9,956.966l-8.065-207.964l-140.55,207.964H1275.9z"/>
			<path class="st19" d="M2654.329,694.406l-113.295,394.736c-5.395,19.195-8.092,33.875-8.092,44.063
				c0,22.184,11.983,33.269,35.967,33.269c21.578,0,32.367,6.741,32.367,20.214c0,12.898-9.299,19.348-27.875,19.348h-52.15
				l-97.111-3.595c-18.589,0-32.677,0.305-42.259,0.898c-9.6,0.606-33.27,2.697-71.036,6.292h-3.599
				c-15.578,0-23.378-5.983-23.378-17.983c0-7.19,2.697-12.135,8.092-14.833s17.678-5.987,36.869-9.891
				c19.177-3.891,30.864-8.994,35.069-15.286c4.183-6.297,11.081-26.528,20.681-60.695l112.397-392.941
				c4.183-14.384,6.292-23.966,6.292-28.772c0-15.582-11.099-23.378-33.269-23.378c-19.191,0-28.772-5.731-28.772-17.198
				c0-6.885,2.388-12.32,7.194-16.341c4.789-4.017,11.377-6.027,19.779-6.027h41.361c2.392,0,9.29,0,20.685,0
				c11.377,0,20.972,0,28.772,0c57.545,0,97.699-1.432,120.489-4.313l47.658-2.877c11.983,0,17.983,5.704,17.983,17.081
				c0,7.8-3.007,13.491-8.994,17.086c-6,3.595-16.942,6.745-32.821,9.443c-15.887,2.697-26.524,7.051-31.918,13.038
				C2666.02,661.738,2660.315,674.623,2654.329,694.406z"/>
			<path class="st19" d="M3206.417,1033.392c0,0-19.08,67.218-27.914,97.365c-10.318,35.214-107.753,90.565-226.55,90.565
				c-89.921,0-163.062-22.48-219.399-67.436c-56.355-44.961-84.522-103.098-84.522-174.443c0-56.943,17.081-110.893,51.253-161.85
				c34.167-50.943,82.413-94.71,144.764-131.278c50.948-29.971,105.948-53.349,165.001-70.138
				c59.035-16.776,117.033-25.178,173.99-25.178c38.354,0,72.23,3.231,101.608,9.667c14.976,3.528,22.48,9.977,22.48,19.348
				c0,5.282-1.8,12.095-5.399,20.443l-22.476,68.334c-8.994,31.178-20.681,46.76-35.069,46.76
				c-15.596,0-23.378-12.279-23.378-36.869l1.795-45.858c0-15.578-3.146-26.524-9.438-32.816
				c-6.297-6.297-16.947-9.443-31.923-9.443c-38.368,0-77.637,7.809-117.792,23.418c-40.167,15.609-78.226,37.825-114.192,66.638
				c-42.573,34.225-76.139,76.264-100.71,126.099c-24.585,49.848-36.864,101.478-36.864,154.907
				c0,55.247,14.384,99.081,43.161,131.507c28.772,32.426,68.024,48.627,117.792,48.627c14.976,0,25.317-2.235,31.021-6.719
				c5.691-4.466,10.928-14.766,15.735-30.895l33.27-117.284c2.387-6.575,3.595-14.038,3.595-22.395
				c0-13.123-2.697-21.637-8.092-25.514c-5.395-3.878-19.783-7.306-43.161-10.3c-12.589,0-18.881-5.982-18.881-17.983
				c0-13.177,10.479-19.783,31.47-19.783l44.96,0.902l80.927,2.697c5.395,0,9.286,0,11.687,0c4.793,0,8.092,0,9.892,0
				c26.371,0,50.045-1.194,71.036-3.599h43.161c14.976,0,22.476,5.17,22.476,15.497c0,14.362-12.292,22.678-36.864,24.967
				c-15.596,0-27.579,4.497-35.967,13.486C3220.496,993.831,3213.006,1010.014,3206.417,1033.392z"/>
			<path class="st19" d="M3577.739,1001.922H3396.64l-28.073,42.443c-7.854,12.647-13.585,21.991-17.211,28
				c-7.248,12.041-12.378,21.682-15.398,28.903c-7.248,13.249-10.856,24.388-10.856,33.409c0,17.463,17.674,28.297,53.048,32.511
				c16.188,2.419,24.28,9.344,24.28,20.779c0,13.854-9.595,20.766-28.772,20.766l-34.171-2.163l-27.683-1.507
				c-21.09-1.148-42.229-1.081-63.311,0.202l-57.019,3.469c-14.388,0-21.583-5.395-21.583-16.184c0-8.994,2.854-15.43,8.541-19.334
				c5.704-3.891,16.498-6.741,32.372-8.541c15.892-1.8,17.188-8.388,27.977-19.783l35.051-44.072l15.286-23.378l16.188-22.48
				l16.184-23.378l284.152-404.618c14.389-21.578,24.576-34.755,30.572-39.562c5.987-4.789,15.286-7.194,27.875-7.194
				c13.783,0,23.225,3.613,28.324,10.821c5.085,7.221,7.643,22.844,7.643,46.895l27.875,450.88c0,30.657,3.146,50.943,9.443,60.862
				c6.292,9.923,18.123,16.089,35.518,18.49c17.378,2.401,26.075,9.317,26.075,20.739c0,13.235-8.994,19.837-26.977,19.837
				l-28.772-2.697l-71.036-2.697c-16.79,0-35.222,0.673-55.296,2.024c-20.093,1.346-41.518,2.473-64.29,3.37h-29.675
				c-13.796,0-20.68-5.691-20.68-17.086c0-7.782,2.836-13.486,8.541-17.081c5.691-3.599,16.327-6.297,31.923-8.092
				c15.578-1.8,26.075-6.144,31.47-13.042c5.395-6.885,8.092-18.728,8.092-35.513v-36.869L3577.739,1001.922z M3574.171,956.966
				l-8.065-207.964l-140.55,207.964H3574.171z"/>
		</g>
		<path class="st19" d="M2141.034,727.658l-284.125,423.526c-13.796,20.977-23.984,34.154-30.572,39.548
			c-6.606,5.395-15.596,8.092-26.991,8.092c-11.996,0-20.093-2.697-24.276-8.105c-4.201-5.408-6.297-17.126-6.297-35.154
			l-14.429-429.015l-90.774,247.481l-14.389,48.739c-11.395,37.919-17.983,60.947-19.778,69.07
			c-1.8,8.119-2.697,18.499-2.697,31.133c0,14.442,3.442,23.925,10.34,28.436c6.885,4.524,23.517,8.877,49.902,13.091
			c14.976,1.8,22.48,8.419,22.48,19.855c0,14.442-9.595,21.664-28.772,21.664l-33.269-3.231l-53.052-2.163l-69.859,2.697
			c-15.582,0-23.378-5.987-23.378-17.983c0-9.736,7.918-16.912,23.746-21.51c9.011-2.617,17-7.972,23.313-14.914
			c3.136-3.448,5.715-6.288,5.715-6.288c6.588-8.092,19.473-38.803,38.664-92.165l116.894-329.099
			c10.789-32.367,16.184-52.446,16.184-60.242c0-6.588-2.85-11.382-8.541-14.388c-5.704-2.994-17.238-5.843-34.62-8.541
			c-17.391-2.697-26.075-9.133-26.075-19.334c0-5.395,2.388-10.183,7.194-14.384c4.789-4.187,10.479-6.297,17.086-6.297
			l33.269,3.599h44.956h44.961h62.939h16.188c7.194,0,11.377,1.207,12.589,3.595c1.795,3.007,2.697,10.497,2.697,22.48
			l14.384,367.651l242.791-374.831c5.987-9.16,10.188-14.595,12.589-16.323c2.392-1.714,7.194-2.572,14.388-2.572h8.994
			c10.789,0,22.166,0,34.167,0c11.983,0,25.178,0,39.562,0h67.427h28.772c13.177,0,19.783,5.395,19.783,16.157
			c0,14.976-10.34,23.504-31.021,25.599c-20.685,2.091-33.579,6.279-38.668,12.557c-5.098,6.297-10.34,20.515-15.735,42.654
			l-88.117,367.215c-2.406,10.174-4.806,22.453-7.194,36.81c-2.401,14.375-3.595,23.957-3.595,28.732
			c0,10.17,2.836,17.66,8.541,22.449c5.691,4.793,16.327,8.388,31.918,10.78c15.582,2.388,23.382,9.272,23.382,20.636
			c0,13.769-10.497,20.654-31.474,20.654h-28.772c-42.569-4.789-77.328-7.194-104.305-7.194c-29.98,0-55.75,1.207-77.328,3.599
			l-44.961,3.595c-14.99,0-22.476-6.292-22.476-18.881c0-10.188,5.395-17.086,16.184-20.681l15.286-2.697l10.789-0.902l9.891-1.8
			c11.983-1.194,20.528-5.843,25.626-13.935c5.085-8.092,11.83-28.62,20.232-61.593L2141.034,727.658z"/>
	</g>
	<g>
		<g>
			
				<linearGradient id="SVGID_1_" gradientUnits="userSpaceOnUse" x1="370.0282" y1="-3196.9309" x2="586.2901" y2="-3791.1074" gradientTransform="matrix(1 0 0 -1 0 -2501.8342)">
				<stop  offset="0" style="stop-color:#6D83EE"/>
				<stop  offset="0.24" style="stop-color:#0044C6"/>
				<stop  offset="1" style="stop-color:#84CD28"/>
			</linearGradient>
			<polygon class="st2" points="405.688,750.35 218.221,750.35 550.64,1234.02 738.097,1234.02 			"/>
			<polygon class="st19" points="717.814,1234.02 738.097,1234.02 405.688,750.35 385.395,750.35 			"/>
			
				<linearGradient id="SVGID_00000072960873481846710980000016097768618626634676_" gradientUnits="userSpaceOnUse" x1="83.7391" y1="-3245.1084" x2="449.0777" y2="-3761.196" gradientTransform="matrix(1 0 0 -1 0 -2501.8342)">
				<stop  offset="0" style="stop-color:#6D83EE"/>
				<stop  offset="0.24" style="stop-color:#0044C6"/>
				<stop  offset="1" style="stop-color:#84CD28"/>
			</linearGradient>
			<polygon style="fill:url(#SVGID_00000072960873481846710980000016097768618626634676_);" points="187.467,750.35 0,750.35 
				332.419,1234.02 519.886,1234.02 			"/>
			<polygon class="st19" points="499.593,1234.02 519.886,1234.02 187.467,750.35 167.174,750.35 			"/>
			
				<linearGradient id="SVGID_00000049925520144628920680000007570171540045120691_" gradientUnits="userSpaceOnUse" x1="332.4193" y1="-3118.8442" x2="1367.9995" y2="-3118.8442" gradientTransform="matrix(1 0 0 -1 0 -2501.8342)">
				<stop  offset="0" style="stop-color:#8DBC30"/>
				<stop  offset="0.31" style="stop-color:#E4D300"/>
				<stop  offset="0.49" style="stop-color:#E6970B"/>
				<stop  offset="0.66" style="stop-color:#E86316"/>
				<stop  offset="0.81" style="stop-color:#E93E1D"/>
				<stop  offset="0.92" style="stop-color:#EA2822"/>
				<stop  offset="1" style="stop-color:#EB2024"/>
			</linearGradient>
			<polygon style="fill:url(#SVGID_00000049925520144628920680000007570171540045120691_);" points="1180.532,0 332.419,1234.02 
				519.876,1234.02 1368,0 			"/>
			
				<linearGradient id="SVGID_00000115512772514251330150000004212644461803820991_" gradientUnits="userSpaceOnUse" x1="431.087" y1="-3565.115" x2="1705.7705" y2="-2672.5688" gradientTransform="matrix(1 0 0 -1 0 -2501.8342)">
				<stop  offset="0" style="stop-color:#8DBC30"/>
				<stop  offset="0.31" style="stop-color:#E4D300"/>
				<stop  offset="0.49" style="stop-color:#E6970B"/>
				<stop  offset="0.66" style="stop-color:#E86316"/>
				<stop  offset="0.81" style="stop-color:#E93E1D"/>
				<stop  offset="0.92" style="stop-color:#EA2822"/>
				<stop  offset="1" style="stop-color:#EB2024"/>
			</linearGradient>
			<polygon style="fill:url(#SVGID_00000115512772514251330150000004212644461803820991_);" points="1398.754,0 550.64,1234.02 
				738.097,1234.02 1586.22,0 			"/>
			<polygon class="st19" points="1565.928,0 717.814,1234.02 738.097,1234.02 1586.22,0 			"/>
			<polygon class="st19" points="1347.707,0 499.593,1234.02 519.886,1234.02 1368,0 			"/>
		</g>
		
			<linearGradient id="SVGID_00000045609505618695337510000013355233804171724175_" gradientUnits="userSpaceOnUse" x1="587.3777" y1="-3656.6123" x2="708.6126" y2="-3746.2273" gradientTransform="matrix(1 0 0 -1 0 -2501.8342)">
			<stop  offset="0" style="stop-color:#000000;stop-opacity:0"/>
			<stop  offset="0.16" style="stop-color:#000000"/>
		</linearGradient>
		<polygon style="fill:url(#SVGID_00000045609505618695337510000013355233804171724175_);" points="540.642,1219.475 
			550.64,1234.02 644.408,1097.698 634.419,1083.153 		"/>
		<g>
			
				<linearGradient id="SVGID_00000044882980637645028110000004416630007572513720_" gradientUnits="userSpaceOnUse" x1="368.5872" y1="-3656.6794" x2="440.3991" y2="-3703.8586" gradientTransform="matrix(1 0 0 -1 0 -2501.8342)">
				<stop  offset="0" style="stop-color:#000000;stop-opacity:0"/>
				<stop  offset="0.25" style="stop-color:#000000"/>
			</linearGradient>
			<polygon style="fill:url(#SVGID_00000044882980637645028110000004416630007572513720_);" points="416.169,1083.153 
				322.391,1219.475 332.38,1234.01 426.158,1097.649 			"/>
			
				<linearGradient id="SVGID_00000015323599586307297580000005531556606120777400_" gradientUnits="userSpaceOnUse" x1="470.5157" y1="-3492.5237" x2="510.1269" y2="-3520.6401" gradientTransform="matrix(1 0 0 -1 0 -2501.8342)">
				<stop  offset="0.2" style="stop-color:#000000;stop-opacity:0"/>
				<stop  offset="0.69" style="stop-color:#000000"/>
			</linearGradient>
			<polygon style="fill:url(#SVGID_00000015323599586307297580000005531556606120777400_);" points="441.54,1075.28 
				535.278,938.909 525.348,924.452 431.57,1060.774 			"/>
		</g>
	</g>
</g>
</svg>
