<?xml version="1.0" encoding="utf-8"?>
<!-- Generator: Adobe Illustrator 26.0.1, SVG Export Plug-In . SVG Version: 6.00 Build 0)  -->
<svg version="1.1" id="Layer_1" xmlns="http://www.w3.org/2000/svg" xmlns:xlink="http://www.w3.org/1999/xlink" x="0px" y="0px"
	 viewBox="0 0 3839 488.3" style="enable-background:new 0 0 3839 488.3;" xml:space="preserve">
<style type="text/css">
	.st0{fill:#FF001F;}
	.st1{fill:url(#SVGID_1_);}
	.st2{fill:url(#SVGID_00000177461366665024777390000017955051118783007884_);}
	.st3{clip-path:url(#SVGID_00000002344142698243382200000005767505052091679674_);}
	.st4{fill:url(#SVGID_00000140706877905014193980000005365220795409479083_);}
	.st5{fill:url(#SVGID_00000078752808315172776930000015393466882660433336_);}
	.st6{fill:url(#SVGID_00000027602999552700308990000012504518247089349817_);}
	.st7{fill:#FFFFFF;}
</style>
<g>
	<g>
		<g>
			
				<linearGradient id="SVGID_1_" gradientUnits="userSpaceOnUse" x1="544.907" y1="-2541.0771" x2="1033.7836" y2="-2541.0771" gradientTransform="matrix(1 0 0 -1 1523.75 -2249.748)">
				<stop  offset="0" style="stop-color:#C4BCBC"/>
				<stop  offset="1" style="stop-color:#8A8A8A"/>
			</linearGradient>
			<path class="st1" d="M2299.2,488c-50.4,0-102.6,0.6-151.9-9.7c-39.5-8.6-64.8-28.7-72.8-69.3c-7.5-37.3-5.7-77.4-5.7-115.2
				c0-22.9,0-45.9,1.2-68.2c1.1-35,1.7-72.8,28.7-98c9.2-8.6,20.1-14.3,32.1-18.3c50.4-16.6,158.8-14.9,212.1-14.9
				c43.6,0,88.3-1.2,131.2,6.9c17.2,3.4,32.7,9.2,46.4,20.1c30.4,23.5,30.4,68.8,30.4,103.2c0,4-0.6,8.6-0.6,12.6h-116.4
				c-0.6-10.3-0.6-29.2-8.6-36.1c-5.2-4.6-14.3-6.3-21.2-6.9c-31-4-63.6-4-94.6-4c-16.6,0-32.7,0-49.3,0.6
				c-17.2,0.6-41.8,0.6-56.2,11.5c-20.1,15.5-18.3,68.8-18.3,91.1c0,20.6-2.3,72.8,17.2,87.1c7.4,5.2,15.5,8,24.6,9.2
				c24.6,3.4,51.6,2.9,76.8,2.9h59c21.2,0,62.5,3.4,72.2-21.2c4-10.3,4.6-25.2,4.6-36.1h116.3c0.6,9.2,1.1,18.9,1.1,28.1
				c0,32.7-0.6,71.6-26.9,95.1c-35.5,32.1-137,29.8-182.3,29.8h-49.1V488z"/>
			
				<linearGradient id="SVGID_00000170245895613640388520000005287153638491775129_" gradientUnits="userSpaceOnUse" x1="1337.6385" y1="-2732.167" x2="1337.6385" y2="-2349.7454" gradientTransform="matrix(1 0 0 -1 1523.75 -2249.748)">
				<stop  offset="0" style="stop-color:#C4BCBC"/>
				<stop  offset="1" style="stop-color:#8A8A8A"/>
			</linearGradient>
			<path style="fill:url(#SVGID_00000170245895613640388520000005287153638491775129_);" d="M3111.3,360.2
				c-2.3,30.9-10.9,68.2-34.4,90c-39.6,36.1-131.3,32.1-181.1,32.1h-286.6V100H2894c21.8,0,43.6,0,65.3,0.6
				c59.6,1.2,121.5,6.3,143.3,71.6c12,36.1,10.9,76.2,10.9,113.5C3113.6,310.4,3113,335.6,3111.3,360.2z M2891.8,195.7h-167.9v189.1
				h162.2c13.8,0,26.9-0.6,40.7-1.1c16-0.6,41.8-1.1,55-12c17.8-14.9,17.2-57.9,17.2-79.1C2998.9,195.7,2981.7,195.7,2891.8,195.7z"
				/>
		</g>
		<g>
			<path class="st0" d="M3501.5,216.1c-5.3,22-24.7,32.7-45.6,36.8c-19,3.8-38.7,4.9-58.1,5.3c-24.3,0.8-48.2,1.1-72.5,1.1
				c-29.6,0-83.9,1.5-107.4-19.4c-18.6-16.7-16.7-52-16.7-74.8h73.6v4.6c0,8.4-1.1,19,6.1,25.1c6.5,5.3,27.3,4.6,35.3,4.6
				c11.8,0,23.9,0.4,35.7,0.4c13.7,0,27.3-0.4,41-0.8c19.4-0.4,36.8,0.8,36.8-22.4c0-4.2,0-9.5-2.7-12.9c-5.3-8.3-25.8-7.6-34.2-8
				c-24.7-0.8-49-1.1-73.7-0.8v-54.3h58.5c10.6,0,23.5,0,34.2-2.7c10.6-2.7,12.9-9.5,12.9-19.7c0-5.3-0.8-10.3-4.9-14
				c-8-7.2-61.9-5.7-73.3-5.7c-11.8,0-23.5,0.4-35.3,0.4c-9.1,0-23.5-0.4-30.8,6.1c-6.5,5.7-4.9,18.6-4.9,26.6h-73.6V78.3
				c0-11.8,0.4-24.3,3.4-35.7c6.1-22.4,26.6-32.6,47.8-36.4c34.7-6.1,74.9-6.1,110.2-6.1c15.9,0,31.5,0,47.5,0.8
				c24.7,0.8,55,1.1,74,19.7c13.3,12.9,14.8,34.6,14.8,52c0,32.7-8.7,46.7-41.4,53.5c6.8,1.9,14,3,20.5,5.7
				c24.7,9.5,25.8,32.3,25.8,55.4C3504.6,196.8,3503.8,206.6,3501.5,216.1z"/>
			<path class="st0" d="M3537.2,256.3c0-9.9-0.8-20.1-0.8-30c0-20.5-0.4-41,3-61.1c6.8-42.1,43.3-47.5,79.7-50.5l95.7-7.6
				c12.1-1.1,25.4-1.1,37.2-5.3c11-3.8,11-10.3,11-20.9c0-7.2,0-15.2-6.5-19.7c-9.5-7.2-50.5-5.3-61.5-5.3
				c-23.2,0-48.2-1.1-71.4,2.7c-17.5,2.7-15.6,15.2-15.6,30.4v8.3h-74.8V87c0-20.9,0.4-49.7,15.9-66.1c17.5-18.2,56.2-19,79.3-20.1
				c16.3-0.8,32.6-0.8,49-0.8h7.2l62.6,0.4c24.3,0,55.4,0.4,73.6,19c14,14.4,14,43.3,14,61.9c0,19-0.4,39.1-11,55.8
				c-14,22.4-53.9,25.4-77.4,27c-18.2,1.1-36.1,2.3-54.3,3.4c-14.4,0.8-28.8,1.9-43.3,3c-6.5,0.4-22.8,1.5-28.9,3.8
				c-12.1,4.6-12.1,12.9-12.1,23.9H3839v58.1L3537.2,256.3L3537.2,256.3z"/>
		</g>
		<g>
			<g>
				<defs>
					<polyline id="SVGID_00000027566429390739402400000002577989552130728875_" points="1938.9,352.8 2954.8,49.4 3339.5,188.7 
						1906.5,434.5 					"/>
				</defs>
				<clipPath id="SVGID_00000176017494289080012260000008462751920367836081_">
					<use xlink:href="#SVGID_00000027566429390739402400000002577989552130728875_"  style="overflow:visible;"/>
				</clipPath>
				<g style="clip-path:url(#SVGID_00000176017494289080012260000008462751920367836081_);">
					<g>
						
							<linearGradient id="SVGID_00000167386563841114843120000006565318410369393573_" gradientUnits="userSpaceOnUse" x1="1008.5203" y1="-2272.6323" x2="1121.6375" y2="-2804.8066" gradientTransform="matrix(1 0 0 -1 1523.75 -2249.748)">
							<stop  offset="0.3352" style="stop-color:#91E8BA"/>
							<stop  offset="0.3652" style="stop-color:#BFE891"/>
							<stop  offset="0.3936" style="stop-color:#ECD593"/>
							<stop  offset="0.4203" style="stop-color:#EAA792"/>
							<stop  offset="0.4402" style="stop-color:#EB9292"/>
							<stop  offset="0.4627" style="stop-color:#E992C0"/>
							<stop  offset="0.5007" style="stop-color:#E792E9"/>
							<stop  offset="0.5099" style="stop-color:#9294E9"/>
							<stop  offset="0.5854" style="stop-color:#92E9E4"/>
						</linearGradient>
						<path style="fill:url(#SVGID_00000167386563841114843120000006565318410369393573_);" d="M2440.2,335.1
							c0,10.9-0.6,25.8-4.6,36.1c-9.7,24.6-51,21.2-72.2,21.2h-59c-25.2,0-52.2,0.6-76.8-2.9c-9.2-1.1-17.2-4-24.6-9.2
							c-19.5-14.3-17.2-66.5-17.2-87.1c0-22.3-1.7-75.6,18.3-91.1c14.3-10.9,39-10.9,56.2-11.5c16.6-0.6,32.7-0.6,49.3-0.6
							c31,0,63.6,0,94.6,4c6.9,0.6,16,2.3,21.2,6.9c8,6.9,8,25.8,8.6,36.1h116.3c0-4,0.6-8.6,0.6-12.6c0-34.4,0-79.7-30.4-103.2
							c-13.8-10.9-29.2-16.6-46.4-20.1c-43-8-87.7-6.9-131.2-6.9c-53.3,0-161.6-1.7-212.1,14.9c-12,4-22.9,9.7-32.1,18.3
							c-26.9,25.2-27.5,63-28.7,98c-1.2,22.4-1.2,45.3-1.2,68.2c0,37.8-1.7,77.9,5.7,115.2c8,40.7,33.2,60.8,72.8,69.3
							c49.3,10.3,101.4,9.7,151.9,9.7h49.3c45.3,0,146.7,2.3,182.3-29.8c26.4-23.5,26.9-62.5,26.9-95.1c0-9.2-0.6-18.9-1.1-28.1
							h-116.4V335.1z M3102.7,172.3c-21.8-65.3-83.7-70.5-143.3-71.6c-21.8-0.6-43.6-0.6-65.3-0.6h-284.8v382.3h286.6
							c49.9,0,141.6,4,181.1-32.1c23.5-21.8,32.1-59,34.4-90c1.7-24.6,2.3-49.9,2.3-74.5C3113.6,248.5,3114.7,208.4,3102.7,172.3z
							 M2981.7,371.7c-13.2,10.9-39,11.5-55,12c-13.8,0.6-26.9,1.1-40.7,1.1h-162.2V195.7h167.9c90,0,107.2,0,107.2,96.9
							C2998.9,313.8,2999.5,356.8,2981.7,371.7z"/>
					</g>
				</g>
			</g>
		</g>
		<g>
			<g>
				
					<linearGradient id="SVGID_00000106865772835417371830000016133705436233077135_" gradientUnits="userSpaceOnUse" x1="665.8051" y1="-2759.5381" x2="917.4023" y2="-2323.7588" gradientTransform="matrix(1 0 0 -1 1523.75 -2249.748)">
					<stop  offset="0" style="stop-color:#C4BCBC"/>
					<stop  offset="1" style="stop-color:#8A8A8A"/>
				</linearGradient>
				<path style="fill:url(#SVGID_00000106865772835417371830000016133705436233077135_);" d="M2372,106.6c32.2,0,66.4,0.5,99.7,6.7
					c17.2,3.4,30.3,9,41.1,17.6h0.1h0.1c25.6,19.8,25.6,60.6,25.6,93.4c0,0.1,0,0.2,0,0.3h-92.9c-0.9-11.9-3.2-25.3-12.2-33.1
					c-6.2-5.5-15.6-8.8-28-9.9c-31.7-4.1-64.3-4.1-95.9-4.1c-16.9,0-32.9,0-49.7,0.6c-1.1,0-2.3,0.1-3.5,0.1
					c-18.2,0.5-43.2,1.3-59.8,13.9l0,0l0,0c-21.7,16.8-23.3,58.3-23.2,96c0,1.8,0,3.4,0,4.9c0,1.7,0,3.7,0,5.9
					c-0.3,36,1.1,75.6,22.3,91.2l0.1,0.1l0.1,0.1c8.9,6.2,18.7,9.8,30.1,11.3c20,2.8,41.1,3,59.3,3c3.2,0,6.5,0,9.7,0
					c3.2,0,6.3,0,9.4,0h59c2.1,0,4.4,0,6.9,0.1c3,0,6,0.1,9.3,0.1c16.7,0,56,0,67.5-29.2l0,0l0,0c3.3-8.5,4.6-18.9,5.1-28.2h92.6
					c0.3,5.4,0.5,10.7,0.5,15.7c0,29.2,0,65.6-22.8,85.9l0,0l0,0c-29.5,26.7-120.4,26.7-154.7,26.7c-3.8,0-7.4,0-10.8,0
					c-3,0-5.9,0-8.5,0h-49.3h-7.5h-7.6c-48.6,0-92.3-0.7-134.2-9.5c-18.5-4-32.4-10.5-42.5-19.7c-10.6-9.7-17.4-22.7-20.8-40
					c-6-30.2-5.8-63-5.6-94.7c0-5.9,0.1-12.1,0.1-18c0-22.4,0-45.5,1.1-67.6v-0.1V226l0.1-2.5c1-32.3,2.1-65.7,24.7-86.9
					c7.2-6.7,16.2-11.8,27.5-15.6c38.5-12.7,114.5-14.3,176.5-14.3c6.3,0,12.3,0,17.9,0c4.9,0,9.6,0,13.9,0c4.9,0,9.7,0,14.6,0
					C2362.2,106.6,2367.1,106.6,2372,106.6 M2372,94.2c-9.8,0-19.5,0.1-29.2,0.1c-9.1,0-19.9-0.1-31.7-0.1
					c-57,0-138.5,1.2-180.3,14.9c-12,4-22.9,9.7-32.1,18.3c-26.9,25.2-27.5,63-28.7,98c-1.2,22.4-1.2,45.3-1.2,68.2
					c0,37.8-1.7,77.9,5.7,115.2c8,40.7,33.2,60.8,72.8,69.3c44.4,9.3,91.1,9.8,136.8,9.8c5.1,0,10.1,0,15.1,0h49.3
					c5.6,0,12.2,0,19.3,0c50.2,0,131.8-1.8,163-29.8c26.4-23.5,26.9-62.5,26.9-95.1c0-9.2-0.6-18.9-1.1-28.1h-116.3
					c0,10.9-0.6,25.8-4.6,36.1c-7.6,19.3-34.5,21.4-56,21.4c-6,0-11.6-0.2-16.2-0.2h-59c-6.3,0-12.7,0-19.1,0
					c-19.4,0-39.2-0.3-57.7-2.9c-9.2-1.1-17.2-4-24.6-9.2c-19.5-14.3-17.2-66.5-17.2-87.1c0-22.3-1.7-75.6,18.3-91.1
					c14.3-10.9,39-10.9,56.2-11.5c16.6-0.6,32.7-0.6,49.3-0.6c31,0,63.6,0,94.6,4c6.9,0.6,16,2.3,21.2,6.9c8,6.9,8,25.8,8.6,36.1
					h116.3c0-4,0.6-8.6,0.6-12.6c0-34.4,0-79.7-30.4-103.2c-13.8-10.9-29.2-16.6-46.4-20.1C2440.6,94.9,2406.1,94.2,2372,94.2
					L2372,94.2z"/>
			</g>
			<g>
				
					<linearGradient id="SVGID_00000083058974849348156770000005414553347978328736_" gradientUnits="userSpaceOnUse" x1="1172.7689" y1="-2782.3728" x2="1442.7384" y2="-2314.7722" gradientTransform="matrix(1 0 0 -1 1523.75 -2249.748)">
					<stop  offset="0" style="stop-color:#C4BCBC"/>
					<stop  offset="1" style="stop-color:#8A8A8A"/>
				</linearGradient>
				<path style="fill:url(#SVGID_00000083058974849348156770000005414553347978328736_);" d="M2894.1,112.4c21.3,0,43.4,0,65,0.6
					l0,0l0,0c26.7,0.5,57.3,1.8,81.7,11c25.5,9.5,41.4,26.1,50.1,52.2c10.4,31.3,10.4,66.6,10.3,100.6c0,3,0,6,0,9
					c0,27.7-0.7,51.8-2.3,73.6c-1.6,21.5-7.6,60.7-30.4,81.8c-12.5,11.4-33.3,19.5-61.9,24.1c-27,4.3-57,4.9-80.1,4.9
					c-5.9,0-11.5,0-17-0.1c-4.9,0-9.5-0.1-13.8-0.1h-274.2V112.4H2894.1 M2711.5,397.2h12.4h162.2c13.5,0,26.2-0.5,39.6-1.1l1.5-0.1
					l1.5-0.1c17.9-0.6,44.9-1.6,61-14.8l0,0l0,0c20-16.8,21.6-53.5,21.6-86.6v-1.9c0-48.9-3.9-78.4-24.6-94.5
					c-18.9-14.7-47.5-14.7-94.9-14.7h-167.9h-12.4v12.4v189.1L2711.5,397.2 M2894.1,100h-284.8v382.3h286.6c9.1,0,19.5,0.1,30.8,0.1
					c50.7,0,118-2.7,150.3-32.2c23.5-21.8,32.1-59,34.4-90c1.7-24.6,2.3-49.9,2.3-74.5c0-37.3,1.1-77.4-10.9-113.5
					c-21.8-65.3-83.7-70.5-143.3-71.6C2937.6,100,2915.8,100,2894.1,100L2894.1,100z M2723.8,384.9V195.7h167.9
					c90,0,107.2,0,107.2,96.9c0,21.2,0.6,64.2-17.2,79.1c-13.2,10.9-39,11.5-55,12c-13.8,0.6-26.9,1.1-40.7,1.1L2723.8,384.9
					L2723.8,384.9z"/>
			</g>
		</g>
		<g>
			<g>
				<path id="path6187_00000062899658673695639780000003666187343966688896_" class="st0" d="M394.4,467c-0.1-4.6-1.3-7.6-3.8-9.2
					c-2.5-1.6-5.8-2.6-10-3c-14.2-2.3-22.7-7.8-25.4-16.3c-2.7-8.5-4-19.5-3.9-32.9l-14.4-276c0.1-9.9-0.9-18.3-2.8-25
					c-1.9-6.7-8.3-10.2-19.4-10.4c-10,0.3-17.3,3.2-21.9,8.8c-4.6,5.6-9.3,12.2-14,20l-177,248.9l-29.9,42c-5.9,9-12.3,17.3-19.2,25
					c-7,7.7-15.9,12.5-26.7,14.2c-6.2,0.5-11.9,1.7-17.4,3.6c-5.4,1.9-8.3,6.4-8.6,13.6c0.2,4.3,1.6,7.1,4.5,8.3
					c2.8,1.2,6.1,1.8,9.9,1.7c10.2-0.1,20.6-0.7,31-1.7c10.5-1,20.9-1.5,31.5-1.7c9.4,0.1,18.8,0.6,28.2,1.4
					c9.4,0.8,18.8,1.3,28.2,1.4c4.4,0.1,8.4-0.9,12-2.8c3.6-1.9,5.5-5.2,5.7-9.9c-0.6-6.8-4.8-10.8-12.5-11.9s-15.4-2.6-23.2-4.5
					c-7.7-1.9-11.9-7.5-12.5-16.7c1.4-9.9,7.9-24,19.5-42.2c11.6-18.3,20-31.1,25.3-38.5h110.6c0.6,11.6,1.2,23.3,1.8,35.1
					c0.6,11.8,0.9,23.5,1,35.1c-0.6,16.2-4.9,25.7-12.8,28.5c-7.9,2.8-15.8,4.4-23.7,4.7c-7.9,0.3-12.2,4.9-12.8,13.8
					c0.1,3.8,1.3,6.4,3.6,7.9c2.3,1.5,5.2,2.1,8.6,2.1c15.2-0.1,30.5-0.7,45.9-1.7s30.7-1.5,45.9-1.7c10.2,0.1,20.5,0.5,30.7,1.1
					c10.2,0.6,20.5,1,30.7,1.1c4.6,0.1,8.5-0.6,11.9-2.1C392.4,475.5,394.2,472.1,394.4,467L394.4,467z M257.7,326h-92.4l87.9-128.3
					L257.7,326z"/>
				<path id="path4766_00000103984031764614738900000001078586807863991727_" class="st0" d="M1194.8,115.8
					c-0.1-3.3-1.2-5.8-3.2-7.5c-2.1-1.7-4.7-2.5-7.8-2.5c-5,0-9.8,0.3-14.7,0.7c-4.8,0.4-9.7,0.9-14.7,1.5
					c-12.2,1.3-24.6,2.1-37.1,2.4c-12.5,0.3-25.1,0.4-37.5,0.3c-9.1-0.1-18.3-0.5-27.4-1.1c-9.1-0.6-18.3-1-27.4-1.1
					c-4.3,0-8.2,1.2-11.7,3.7c-3.4,2.4-5.3,6-5.5,10.7c1.6,8.3,7.8,12.3,18.8,11.8c11-0.5,17.2,4.2,18.8,14.2
					c-0.1,2.8-0.4,5.6-1,8.6c-0.7,2.9-1.4,5.8-2.3,8.6l-69.7,241.7c-2.7,11.3-5.6,21.1-8.9,29.4s-10.8,13.8-22.6,16.5
					c-5.4,0.8-11.7,2.1-19,3.9c-7.3,1.8-11.3,6-12,12.7c0.2,3.8,1.6,6.5,4.4,8.2c2.8,1.6,5.9,2.4,9.4,2.4c11.9-0.2,23.9-0.9,36-2.2
					c12.1-1.3,24.3-2,36.4-2.2c13,0.1,26.1,0.6,39.3,1.4c13.2,0.8,26.2,1.3,39.3,1.4c5.4,0.4,11.5,0.2,18.5-0.7
					c6.9-0.9,10.8-4.7,11.4-11.5c-0.5-7.1-4.1-10.9-10.8-11.3c-6.7-0.5-13.3-1.5-20-3.2c-6.7-1.7-10.2-7.9-10.8-18.7
					c0.1-4.4,0.6-9,1.7-13.6s2.4-9.1,3.8-13.6l69.7-242.8c2.6-10,5.6-17.2,9.1-21.8c3.5-4.5,10.4-7.8,20.7-9.7
					c5.2-0.7,10.8-2.1,16.8-4.4C1191,125.8,1194.3,121.7,1194.8,115.8L1194.8,115.8z"/>
				<path id="path4768_00000080899286533777255200000012213673088714261397_" class="st0" d="M1558.6,118.6
					c-0.8-6-6.8-10.2-18.2-12.7c-11.3-2.5-23.2-4-35.7-4.5c-12.5-0.5-20.9-0.7-25.2-0.5c-46.2,0.1-94.6,9.5-145.1,28.1
					c-50.5,18.6-93.6,45.9-129.2,81.8s-54.3,79.8-55.9,131.7c0.7,33,10.2,60.2,28.6,81.7c18.4,21.5,41.6,37.5,69.6,48
					c28,10.5,56.9,15.7,86.5,15.7c18,0,36.2-1.1,54.3-3.2c18.2-2.2,36-5.3,53.5-9.5c6.7-1.3,12.4-3.1,17.2-5.2
					c4.8-2.1,8.5-6.5,11-13.1c4.9-13.9,9.2-27.9,13.1-42.1c3.8-14.2,7.8-28.4,11.8-42.5c6.7-20.1,14.6-31.9,23.7-35.4
					s17.3-5.1,24.3-4.9c7.1,0.2,10.8-4.2,11.2-13.3c-0.2-3.8-1.6-6.5-4.4-8.2c-2.8-1.6-5.9-2.4-9.4-2.4c-13.8,0.2-27.7,0.8-41.6,1.9
					s-27.9,1.8-42,1.9c-13.3-0.1-26.5-0.7-39.8-1.7c-13.3-1-26.5-1.5-39.8-1.7c-4.4-0.1-8.7,0.7-12.8,2.4c-4.1,1.7-6.3,5.2-6.6,10.3
					c0.5,6.3,4.2,9.7,11,10.4c6.8,0.7,13.7,2,20.5,4c6.8,2,10.5,8,11,18.2c-0.6,10.4-3.8,24.6-9.6,42.7s-10.5,32.6-14.2,43.6
					c-2.2,8.5-5,14.5-8.6,18c-3.6,3.6-9.9,5.3-19,5.2c-32.4-0.7-56.9-11.2-73.5-31.5s-24.9-46.1-25-77.5c0.3-28.9,6.2-57,18-84.2
					c11.7-27.2,27.7-51.2,47.8-71.8c19.9-20,44.5-37.1,73.8-51.3c29.3-14.2,58.1-21.6,86.6-22.3c13.5-0.1,21.9,2.5,25,7.9
					c3.1,5.4,4.4,14.4,3.8,27c-0.1,3.3-0.2,6.6-0.6,10c-0.3,3.3-0.5,6.6-0.6,10c-0.2,5.5,0.7,10.5,2.7,15c2,4.5,6,6.9,12.2,7.1
					c6.8-0.5,11.8-3.9,15-10.2s5.6-12.3,7.1-18c1.4-4.2,4.5-13.6,9.2-28.1C1555.4,131.4,1558,122.3,1558.6,118.6L1558.6,118.6z"/>
				<path id="path4770_00000134945316533782425390000008464312613247317902_" class="st0" d="M1875.8,467c-0.1-4.6-1.3-7.6-3.8-9.2
					c-2.5-1.6-5.8-2.6-10-3c-14.2-2.3-22.7-7.8-25.4-16.3c-2.7-8.5-4-19.5-3.9-32.9l-14.4-276c0.1-9.9-0.9-18.3-2.8-25
					c-1.9-6.7-8.3-10.2-19.4-10.4c-10,0.3-17.3,3.2-21.9,8.8c-4.6,5.6-9.3,12.2-14,20l-177,248.9l-29.9,42c-5.9,9-12.3,17.3-19.2,25
					c-7,7.7-15.9,12.5-26.7,14.2c-6.2,0.5-11.9,1.7-17.4,3.6c-5.4,1.9-8.3,6.4-8.6,13.6c0.2,4.3,1.6,7.1,4.5,8.3
					c2.9,1.2,6.1,1.8,9.9,1.7c10.2-0.1,20.6-0.7,31-1.7c10.5-1,20.9-1.5,31.5-1.7c9.4,0.1,18.8,0.6,28.2,1.4
					c9.4,0.8,18.8,1.3,28.2,1.4c4.4,0.1,8.4-0.9,12-2.8c3.6-1.9,5.5-5.2,5.7-9.9c-0.6-6.8-4.8-10.8-12.5-11.9
					c-7.7-1.1-15.4-2.6-23.2-4.5c-7.7-1.9-11.9-7.5-12.5-16.7c1.4-9.9,7.9-24,19.5-42.2c11.6-18.3,20-31.1,25.3-38.5h110.6
					c0.6,11.6,1.2,23.3,1.8,35.1c0.6,11.8,0.9,23.5,1,35.1c-0.6,16.2-4.9,25.7-12.8,28.5c-7.9,2.8-15.8,4.4-23.7,4.7
					c-7.9,0.3-12.2,4.9-12.8,13.8c0.1,3.8,1.3,6.4,3.6,7.9c2.3,1.5,5.2,2.1,8.6,2.1c15.2-0.1,30.5-0.7,45.9-1.7
					c15.4-1,30.7-1.5,45.9-1.7c10.2,0.1,20.5,0.5,30.7,1.1c10.2,0.6,20.5,1,30.7,1.1c4.6,0.1,8.5-0.6,11.9-2.1
					C1873.9,475.5,1875.7,472.1,1875.8,467L1875.8,467z M1739.2,326h-92.4l87.9-128.3L1739.2,326z"/>
				<path id="path4764_00000053517042254087371870000015289257491786861971_" class="st0" d="M960.4,118c-0.1-3.6-1.2-6.1-3.3-7.7
					c-2.1-1.6-4.9-2.3-8.3-2.3c-11.6,0.1-23.3,0.3-35.1,0.8s-23.5,0.8-35.1,0.8c-6.2-0.3-15.4-0.7-27.7-1
					c-12.3-0.4-20.6,1.1-24.8,4.4c-0.8,1.2-1.5,2.4-2.2,3.9c-0.7,1.4-1.4,2.7-2.2,3.9L669.5,350.9l-6.1-226.2
					c0.3-4.3,0.1-8-0.5-11.1c-0.6-3.1-3.4-4.8-8.4-4.9c-12.7,0.1-25.6,0.3-38.4,0.7c-12.9,0.4-25.7,0.3-38.4-0.1
					c-7.2-0.3-14.4-0.8-21.5-1.3s-14.2-0.8-21.1-0.9c-4.7-0.2-9.2,0.5-13.6,1.9c-4.3,1.5-6.6,4.9-6.9,10.2c1.8,8.8,8.8,13.1,21,13
					c12.3-0.1,19.3,4.2,21,13c-0.2,6.2-1.5,12.5-3.8,18.9c-2.3,6.5-4.6,12.5-6.7,18.1c-13.5,37.4-26.9,74.8-40.3,112.2
					c-13.4,37.4-27.3,74.7-41.6,111.8c-5.4,15.8-10.7,26.9-15.8,33.3c-5.2,6.3-16.1,10.9-32.8,13.8c-4.6,0.7-8.7,2.1-12.2,4.1
					c-3.5,2.1-5.3,5.7-5.5,10.8c0.2,4.6,1.8,7.5,4.8,8.8c3.1,1.3,6.6,1.9,10.6,1.7c9.7-0.1,19.5-0.3,29.3-0.8
					c9.8-0.5,19.6-0.8,29.3-0.8c9.1,0.1,18.1,0.6,27,1.4c8.9,0.8,17.8,1.3,26.6,1.4c4.1,0,8-1,11.8-3.1c3.7-2.1,5.7-5.5,5.9-10.2
					c-0.6-7.8-4.9-11.9-12.9-12.5c-8-0.5-16-1.8-24-3.9c-8-2-12.3-9.1-12.9-21.3c0.8-17.4,7-43.3,18.5-77.7
					c11.5-34.4,23.7-67.7,36.4-99.9c12.8-32.3,21.4-54,25.9-65.2l6.1,263.3c-0.2,8.1,0.7,14.6,2.6,19.3c1.9,4.7,7.3,7.2,16.2,7.3
					c9.1-0.4,16.3-3.5,21.5-9.5s10-12.6,14.4-19.8l177-260.5l-58.6,220.1c-1.8,9.5-4.4,19-8,28.6c-3.5,9.6-10.5,15.6-20.8,17.8
					c-5.9,0.4-12.6,1.4-20,2.9c-7.4,1.5-11.4,6.1-12.1,13.7c0.1,4.1,1.5,7,4.2,8.6c2.7,1.7,5.9,2.5,9.6,2.4
					c12.7-0.2,25.6-0.9,38.4-2.2c12.9-1.3,25.7-2,38.4-2.2c13.3,0.2,26.5,0.9,39.8,2.2c13.3,1.3,26.5,2,39.8,2.2
					c4.9,0.1,9.3-0.7,13.2-2.5c3.9-1.8,5.9-5.4,6.2-10.8c-0.5-6.7-3.8-10.5-10-11.5c-6.2-1-12.4-2.5-18.6-4.4
					c-6.2-1.9-9.6-7.5-10-16.7c0.1-6.7,0.9-13.5,2.4-20.4s3.1-13.6,4.8-20l56.4-226.2c2-9.9,4.5-17.7,7.7-23.3
					c3.1-5.6,10-9.1,20.5-10.4c5.6-0.3,11.1-1.5,16.4-3.5C957.2,128.6,960,124.4,960.4,118L960.4,118z"/>
			</g>
		</g>
	</g>
</g>
</svg>
