<?xml version="1.0" encoding="utf-8"?>
<!-- Generator: Adobe Illustrator 26.5.0, SVG Export Plug-In . SVG Version: 6.00 Build 0)  -->
<svg version="1.1" id="Layer_1" xmlns="http://www.w3.org/2000/svg" xmlns:xlink="http://www.w3.org/1999/xlink" x="0px" y="0px"
	 viewBox="0 0 3839 1265.53" style="enable-background:new 0 0 3839 1265.53;" xml:space="preserve">
<style type="text/css">
	.st0{fill:#0F2166;}
	.st1{fill:#FD2537;}
	.st2{fill:url(#SVGID_1_);}
	.st3{fill:url(#SVGID_00000112605231172133355750000016187892958225625767_);}
	.st4{fill:url(#SVGID_00000048476709592219488050000005993554235502744491_);}
	.st5{fill:url(#SVGID_00000002366057992191959470000008485279295013268395_);}
	.st6{fill:url(#SVGID_00000112610854600756450750000003734047179260360593_);}
	.st7{fill:url(#SVGID_00000116929099889382012710000016482949590743236012_);}
	.st8{fill:url(#SVGID_00000174600063519309021260000018344400867265982603_);}
	.st9{fill:url(#SVGID_00000103228405437632451320000017694707764250985134_);}
	.st10{fill:url(#SVGID_00000030483173028897924610000009134501220658395310_);}
	.st11{fill:url(#SVGID_00000176747197927025117280000017552143220607153796_);}
	.st12{fill:url(#SVGID_00000144309854225988410650000006119826554183450255_);}
	.st13{fill:#8B8B8B;}
	
		.st14{fill:url(#SVGID_00000038399003113088338490000017813992922834455186_);stroke:#000000;stroke-width:4.8265;stroke-linecap:round;stroke-linejoin:round;}
	
		.st15{fill:url(#SVGID_00000050653745752931718810000000442549554382355617_);stroke:#000000;stroke-width:4.8265;stroke-linecap:round;stroke-linejoin:round;}
	
		.st16{fill:url(#SVGID_00000150066298120732977990000006931367623394683567_);stroke:#000000;stroke-width:4.8265;stroke-linecap:round;stroke-linejoin:round;}
	
		.st17{fill:url(#SVGID_00000020382278904173878450000013228002734374455176_);stroke:#000000;stroke-width:4.8265;stroke-linecap:round;stroke-linejoin:round;}
	.st18{fill:url(#SVGID_00000170981280936121551610000004747620870555081383_);}
	.st19{fill:#FFFFFF;}
	.st20{fill:url(#SVGID_00000007388656496139665980000006197377413592651142_);}
	.st21{fill:url(#SVGID_00000055672056425002196640000005038250238975017661_);}
	.st22{fill:url(#SVGID_00000060009067815771923860000018128840316495733659_);}
	.st23{fill:url(#SVGID_00000077305240200026174600000012304229205334929800_);}
	.st24{fill:url(#SVGID_00000097479712254577716170000012245006995446493862_);}
	.st25{fill:url(#SVGID_00000132053928068398025900000013154023166182756241_);}
	.st26{fill:url(#SVGID_00000054957542864770509200000012197235993829192085_);}
	.st27{fill:url(#SVGID_00000112610433328962060690000013118644471152955282_);}
	.st28{fill:url(#SVGID_00000088099063854144828990000018147454856811438234_);}
	.st29{fill:url(#SVGID_00000100358824695943363560000008950011432348823707_);}
	.st30{fill:url(#SVGID_00000042726631254676309540000011316814248365369502_);}
	.st31{fill:url(#SVGID_00000141426264362797400790000018302902051087958461_);}
	.st32{fill:url(#SVGID_00000085971676165189380100000016745002357680934317_);}
	.st33{fill:url(#SVGID_00000081618130511123802400000011408744236609882279_);}
	.st34{fill:url(#SVGID_00000132770350406970689830000017939874627691176083_);}
	.st35{fill:url(#SVGID_00000142886282604004423670000010195618936575320197_);}
	.st36{fill:url(#SVGID_00000044141605166303781940000005048800498031205302_);}
	.st37{fill:url(#SVGID_00000147191955275439633820000005293391557019424684_);}
	.st38{fill:url(#SVGID_00000176045086384062548100000006604832212633103529_);}
	.st39{fill:url(#SVGID_00000142889697448623580430000003155714747257544360_);}
	
		.st40{fill:url(#SVGID_00000018239025727774908380000001673329637274247336_);stroke:#FFFFFF;stroke-width:4.8265;stroke-linecap:round;stroke-linejoin:round;}
	
		.st41{fill:url(#SVGID_00000074404649245059590460000014738678589045895056_);stroke:#FFFFFF;stroke-width:4.8265;stroke-linecap:round;stroke-linejoin:round;}
	
		.st42{fill:url(#SVGID_00000143612220759472360530000002749095396708484000_);stroke:#FFFFFF;stroke-width:4.8265;stroke-linecap:round;stroke-linejoin:round;}
	
		.st43{fill:url(#SVGID_00000101068678731915904870000012004747509788064145_);stroke:#FFFFFF;stroke-width:4.8265;stroke-linecap:round;stroke-linejoin:round;}
	.st44{fill:url(#SVGID_00000008109282274730021240000016477135815944261292_);}
	.st45{fill:url(#SVGID_00000086653344218798182010000013795611866858599332_);}
	.st46{fill:url(#SVGID_00000144322091623527963780000014786012469873864870_);}
	.st47{fill:url(#SVGID_00000065032007823357424070000002188703469228524453_);}
	.st48{fill:url(#SVGID_00000016076082837367315680000006326888161014609555_);}
	.st49{fill:url(#SVGID_00000171707060049403874410000000722301805380469432_);}
	.st50{fill:url(#SVGID_00000032643428974565541700000016934030622733972650_);}
</style>
<g>
	<g>
		<g>
			<linearGradient id="SVGID_1_" gradientUnits="userSpaceOnUse" x1="375.5903" y1="705.5389" x2="595.1042" y2="1308.6483">
				<stop  offset="2.983562e-07" style="stop-color:#6D83EE"/>
				<stop  offset="0.2399" style="stop-color:#0044C6"/>
				<stop  offset="1" style="stop-color:#84CD28"/>
			</linearGradient>
			<polygon class="st2" points="411.781,761.623 221.499,761.623 558.914,1252.564 749.195,1252.564 			"/>
		</g>
		<g>
			<g>
				<polygon points="728.601,1252.564 749.195,1252.564 411.781,761.623 391.187,761.623 				"/>
			</g>
		</g>
		<g>
			
				<linearGradient id="SVGID_00000029761337886761881170000000226447055696776090_" gradientUnits="userSpaceOnUse" x1="85.002" y1="754.4462" x2="455.8269" y2="1278.2936">
				<stop  offset="2.983562e-07" style="stop-color:#6D83EE"/>
				<stop  offset="0.2399" style="stop-color:#0044C6"/>
				<stop  offset="1" style="stop-color:#84CD28"/>
			</linearGradient>
			<polygon style="fill:url(#SVGID_00000029761337886761881170000000226447055696776090_);" points="190.282,761.623 0,761.623 
				337.414,1252.564 527.696,1252.564 			"/>
		</g>
		<g>
			<g>
				<polygon points="507.101,1252.564 527.696,1252.564 190.281,761.623 169.688,761.623 				"/>
			</g>
		</g>
		
			<linearGradient id="SVGID_00000065776550084301538380000008179000499531600000_" gradientUnits="userSpaceOnUse" x1="337.4138" y1="626.2819" x2="1388.559" y2="626.2819">
			<stop  offset="3.782731e-07" style="stop-color:#8DBC30"/>
			<stop  offset="0.3144" style="stop-color:#E4D300"/>
			<stop  offset="0.4876" style="stop-color:#E6970C"/>
			<stop  offset="0.6581" style="stop-color:#E86416"/>
			<stop  offset="0.8057" style="stop-color:#EA3F1E"/>
			<stop  offset="0.9246" style="stop-color:#EB2822"/>
			<stop  offset="1" style="stop-color:#EB2024"/>
		</linearGradient>
		<polygon style="fill:url(#SVGID_00000065776550084301538380000008179000499531600000_);" points="1198.277,0 337.414,1252.564 
			527.695,1252.564 1388.559,0 		"/>
		
			<linearGradient id="SVGID_00000031914005373999881750000016533258798357758127_" gradientUnits="userSpaceOnUse" x1="437.5654" y1="1079.2607" x2="1731.4069" y2="173.3032">
			<stop  offset="3.782731e-07" style="stop-color:#8DBC30"/>
			<stop  offset="0.3144" style="stop-color:#E4D300"/>
			<stop  offset="0.4876" style="stop-color:#E6970C"/>
			<stop  offset="0.6581" style="stop-color:#E86416"/>
			<stop  offset="0.8057" style="stop-color:#EA3F1E"/>
			<stop  offset="0.9246" style="stop-color:#EB2822"/>
			<stop  offset="1" style="stop-color:#EB2024"/>
		</linearGradient>
		<polygon style="fill:url(#SVGID_00000031914005373999881750000016533258798357758127_);" points="1419.777,0 558.914,1252.564 
			749.195,1252.564 1610.059,0 		"/>
		<g>
			<polygon points="1589.466,0 728.601,1252.564 749.195,1252.564 1610.059,0 			"/>
		</g>
		<g>
			<polygon points="1367.967,0 507.101,1252.564 527.696,1252.564 1388.559,0 			"/>
		</g>
	</g>
	<g>
		<g>
			<path d="M1281.639,1042.833h-183.82l-28.494,43.081c-7.972,12.837-13.789,22.322-17.47,28.421
				c-7.357,12.222-12.564,22.007-15.63,29.337c-7.357,13.448-11.02,24.754-11.02,33.911c0,17.725,17.939,28.722,53.845,33
				c16.431,2.455,24.645,9.484,24.645,21.092c0,14.063-9.74,21.078-29.205,21.078l-34.685-2.196l-60.236-3.28l-77.579,5.476h-24.64
				c-14.605,0-21.907-5.476-21.907-16.427c0-9.129,2.897-15.662,8.669-19.625c5.79-3.95,16.746-6.842,32.858-8.669
				c16.131-1.827,29.665-8.514,40.616-20.08l35.578-44.734l15.516-23.729l16.431-22.818l16.427-23.729l288.422-410.699
				c14.605-21.903,24.945-35.277,31.031-40.156c6.077-4.861,15.516-7.302,28.294-7.302c13.99,0,23.574,3.667,28.749,10.983
				c5.161,7.33,7.758,23.187,7.758,47.6l28.294,457.656c0,18.358,1.111,33.052,3.335,44.083c1.892,9.385,6.515,17.974,13.085,24.938
				h0c5.818,6.167,12.917,11.156,20.997,13.721c10.892,3.458,16.342,9.743,16.342,18.853c0,13.434-9.129,20.135-27.383,20.135
				l-29.205-2.738l-53.759-2.738c-17.042,0-35.751,0.683-56.127,2.055c-20.395,1.367-42.142,2.51-65.256,3.421h-30.12
				c-14.003,0-20.991-5.776-20.991-17.343c0-7.899,2.879-13.689,8.669-17.338c5.776-3.653,16.573-6.391,32.403-8.213
				c15.812-1.827,26.467-6.236,31.943-13.238c5.476-6.988,8.213-19.01,8.213-36.047v-37.423L1281.639,1042.833z M1278.017,997.201
				l-8.186-211.089l-142.662,211.089H1278.017z"/>
			<path d="M2677.161,730.695l-114.997,400.668c-5.476,19.484-8.213,34.384-8.213,44.725c0,22.517,12.163,33.769,36.507,33.769
				c21.903,0,32.854,6.842,32.854,20.518c0,13.092-9.439,19.638-28.294,19.638h-52.934l-98.57-3.649
				c-18.869,0-33.168,0.31-42.894,0.911c-9.744,0.615-33.769,2.738-72.103,6.387h-3.653c-15.812,0-23.729-6.072-23.729-18.254
				c0-7.298,2.738-12.318,8.213-15.056s17.944-6.077,37.423-10.04c19.465-3.95,31.328-9.129,35.596-15.516
				c4.246-6.391,11.247-26.927,20.991-61.608l114.086-398.846c4.246-14.6,6.387-24.326,6.387-29.205
				c0-15.816-11.266-23.729-33.769-23.729c-19.479,0-29.205-5.817-29.205-17.456c0-6.988,2.423-12.505,7.302-16.586
				c4.861-4.077,11.548-6.118,20.076-6.118h41.983c2.428,0,9.43,0,20.996,0c11.548,0,21.288,0,29.205,0
				c58.41,0,99.167-1.453,122.3-4.378l48.374-2.92c12.163,0,18.254,5.79,18.254,17.338c0,7.917-3.052,13.694-9.129,17.343
				c-6.091,3.649-17.197,6.847-33.314,9.585c-16.126,2.738-26.923,7.157-32.398,13.234
				C2689.028,697.536,2683.238,710.615,2677.161,730.695z"/>
			<path d="M3237.547,1074.776c0,0-19.367,68.228-28.333,98.828c-10.473,35.743-109.372,91.926-229.955,91.926
				c-91.272,0-165.512-22.818-222.697-68.45c-57.202-45.636-85.792-104.647-85.792-177.065c0-57.799,17.338-112.56,52.023-164.282
				c34.68-51.709,83.651-96.133,146.94-133.251c51.713-30.421,107.54-54.15,167.48-71.192
				c59.922-17.028,118.792-25.556,176.605-25.556c38.931,0,73.315,3.28,103.135,9.812c15.202,3.581,22.818,10.127,22.818,19.638
				c0,5.362-1.827,12.277-5.48,20.75l-22.814,69.361c-9.129,31.647-20.991,47.463-35.596,47.463
				c-15.83,0-23.729-12.464-23.729-37.423l1.822-46.547c0-15.812-3.193-26.923-9.58-33.309c-6.391-6.391-17.201-9.585-32.403-9.585
				c-38.944,0-78.804,7.926-119.562,23.77c-40.771,15.844-79.401,38.393-115.908,67.639c-43.213,34.74-77.283,77.41-102.224,127.994
				c-24.955,50.597-37.418,103.003-37.418,157.235c0,56.077,14.6,100.57,43.81,133.483c29.205,32.913,69.047,49.358,119.562,49.358
				c15.201,0,25.697-2.269,31.487-6.819c5.776-4.533,11.093-14.987,15.971-31.359l33.769-119.047
				c2.423-6.674,3.649-14.249,3.649-22.732c0-13.32-2.738-21.962-8.213-25.898c-5.476-3.936-20.08-7.416-43.81-10.455
				c-12.778,0-19.165-6.072-19.165-18.254c0-13.375,10.637-20.08,31.943-20.08l45.636,0.916l82.144,2.738c5.476,0,9.425,0,11.862,0
				c4.865,0,8.213,0,10.04,0c26.768,0,50.798-1.212,72.104-3.654h43.809c15.202,0,22.814,5.248,22.814,15.73
				c0,14.577-12.477,23.019-37.418,25.342c-15.83,0-27.993,4.565-36.507,13.689
				C3251.837,1034.62,3244.234,1051.046,3237.547,1074.776z"/>
			<path d="M3614.449,1042.833h-183.821l-28.494,43.081c-7.972,12.837-13.789,22.322-17.47,28.421
				c-7.357,12.222-12.564,22.007-15.63,29.337c-7.357,13.448-11.02,24.754-11.02,33.911c0,17.725,17.939,28.722,53.845,33
				c16.431,2.455,24.645,9.484,24.645,21.092c0,14.063-9.74,21.078-29.205,21.078l-34.685-2.196l-28.099-1.53
				c-21.407-1.166-42.864-1.097-64.263,0.205l-57.875,3.521c-14.605,0-21.907-5.476-21.907-16.427
				c0-9.129,2.897-15.662,8.669-19.625c5.79-3.95,16.746-6.842,32.858-8.669c16.131-1.827,17.447-8.514,28.398-20.08l35.578-44.734
				l15.516-23.729l16.431-22.818l16.427-23.729l288.422-410.699c14.605-21.903,24.946-35.277,31.031-40.156
				c6.077-4.861,15.516-7.302,28.294-7.302c13.99,0,23.574,3.667,28.749,10.983c5.161,7.33,7.758,23.187,7.758,47.6l28.294,457.656
				c0,31.118,3.193,51.709,9.585,61.776c6.387,10.072,18.395,16.331,36.052,18.768c17.639,2.437,26.467,9.457,26.467,21.051
				c0,13.434-9.129,20.135-27.383,20.135l-29.205-2.738l-72.103-2.738c-17.042,0-35.751,0.683-56.127,2.055
				c-20.395,1.367-42.142,2.51-65.257,3.421h-30.12c-14.003,0-20.991-5.776-20.991-17.343c0-7.899,2.879-13.689,8.669-17.338
				c5.776-3.653,16.573-6.391,32.403-8.213c15.812-1.827,26.467-6.236,31.943-13.238c5.476-6.988,8.213-19.01,8.213-36.047v-37.423
				L3614.449,1042.833z M3610.828,997.201l-8.186-211.089l-142.662,211.089H3610.828z"/>
		</g>
		<path d="M2156.153,764.446l-288.395,429.891c-14.003,21.292-24.344,34.667-31.031,40.142c-6.706,5.476-15.83,8.214-27.396,8.214
			c-12.177,0-20.395-2.738-24.64-8.227c-4.264-5.489-6.391-17.384-6.391-35.683l-14.646-435.462l-92.138,251.2l-14.605,49.472
			c-11.566,38.489-18.254,61.863-20.076,70.108c-1.827,8.241-2.738,18.777-2.738,31.601c0,14.659,3.494,24.285,10.496,28.863
			c6.988,4.592,23.87,9.011,50.652,13.288c15.201,1.827,22.818,8.546,22.818,20.153c0,14.659-9.74,21.989-29.205,21.989
			l-33.769-3.28l-53.85-2.196l-70.909,2.738c-15.816,0-23.729-6.077-23.729-18.254c0-9.882,8.037-17.166,24.103-21.833
			c9.147-2.657,17.255-8.092,23.663-15.138c3.183-3.5,5.801-6.383,5.801-6.383c6.687-8.214,19.766-39.386,39.245-93.55
			l118.651-334.045c10.951-32.854,16.427-53.235,16.427-61.148c0-6.687-2.893-11.553-8.669-14.605
			c-5.79-3.038-17.497-5.931-35.141-8.669c-17.652-2.738-26.467-9.27-26.467-19.625c0-5.476,2.424-10.336,7.302-14.6
			c4.861-4.25,10.637-6.391,17.343-6.391l33.769,3.653h45.632h45.636h63.885h16.431c7.302,0,11.548,1.225,12.778,3.649
			c1.822,3.052,2.738,10.655,2.738,22.818l14.6,373.176l246.439-380.465c6.077-9.298,10.341-14.814,12.778-16.568
			c2.428-1.74,7.302-2.61,14.605-2.61h9.129c10.951,0,22.499,0,34.68,0c12.163,0,25.556,0,40.156,0h68.441h29.205
			c13.375,0,20.08,5.476,20.08,16.4c0,15.201-10.496,23.857-31.487,25.984c-20.996,2.123-34.083,6.373-39.25,12.746
			c-5.175,6.391-10.496,20.823-15.971,43.295l-89.441,372.734c-2.442,10.327-4.879,22.791-7.302,37.364
			c-2.437,14.591-3.649,24.317-3.649,29.164c0,10.323,2.879,17.926,8.669,22.786c5.776,4.865,16.573,8.514,32.398,10.942
			c15.816,2.423,23.734,9.411,23.734,20.946c0,13.976-10.655,20.964-31.947,20.964h-29.205c-43.208-4.861-78.49-7.302-105.873-7.302
			c-30.43,0-56.588,1.225-78.49,3.653l-45.636,3.649c-15.215,0-22.814-6.387-22.814-19.165c0-10.341,5.476-17.342,16.427-20.991
			l15.516-2.738l10.951-0.916l10.04-1.827c12.163-1.212,20.837-5.931,26.011-14.145c5.161-8.214,12.008-29.05,20.536-62.519
			L2156.153,764.446z"/>
	</g>
	<g>
		
			<linearGradient id="SVGID_00000099644445042016702480000000644488118703192200_" gradientUnits="userSpaceOnUse" x1="596.2079" y1="1172.1375" x2="719.2596" y2="1263.0972">
			<stop  offset="0" style="stop-color:#000000;stop-opacity:0"/>
			<stop  offset="0.1572" style="stop-color:#000000"/>
		</linearGradient>
		<polygon style="fill:url(#SVGID_00000099644445042016702480000000644488118703192200_);" points="548.768,1237.802 
			558.914,1252.564 654.098,1114.196 643.954,1099.438 		"/>
	</g>
	<g>
		
			<linearGradient id="SVGID_00000067924726154406781250000016338283569924660899_" gradientUnits="userSpaceOnUse" x1="374.1254" y1="1172.2053" x2="447.0173" y2="1220.0957">
			<stop  offset="0" style="stop-color:#000000;stop-opacity:0"/>
			<stop  offset="0.2537" style="stop-color:#000000"/>
		</linearGradient>
		<polygon style="fill:url(#SVGID_00000067924726154406781250000016338283569924660899_);" points="422.423,1099.438 
			327.238,1237.801 337.38,1252.563 432.566,1114.149 		"/>
		
			<linearGradient id="SVGID_00000125574961143408273030000009908308733099485327_" gradientUnits="userSpaceOnUse" x1="477.5886" y1="1005.5816" x2="517.7944" y2="1034.12">
			<stop  offset="0.2023" style="stop-color:#000000;stop-opacity:0"/>
			<stop  offset="0.6884" style="stop-color:#000000"/>
		</linearGradient>
		<polygon style="fill:url(#SVGID_00000125574961143408273030000009908308733099485327_);" points="448.176,1091.44 
			543.327,953.025 533.242,938.349 438.056,1076.715 		"/>
	</g>
</g>
</svg>
