<?xml version="1.0" encoding="utf-8"?>
<!-- Generator: Adobe Illustrator 26.0.3, SVG Export Plug-In . SVG Version: 6.00 Build 0)  -->
<svg version="1.1" id="Layer_1" xmlns="http://www.w3.org/2000/svg" xmlns:xlink="http://www.w3.org/1999/xlink" x="0px" y="0px"
	 viewBox="0 0 3839.1 924.6" style="enable-background:new 0 0 3839.1 924.6;" xml:space="preserve">
<style type="text/css">
	.st0{fill:#5B5B5B;}
	.st1{fill:#FFFFFF;}
	.st2{fill:#C0214E;}
</style>
<g>
	<g>
		<rect x="9.2" y="9.2" class="st0" width="3820.7" height="906.2"/>
		<path class="st1" d="M3829.8,9.2v906.2H9.2V9.2H3829.8 M3839,0h-9.2H9.2H0v9.2v906.2v9.2h9.2h3820.7h9.2v-9.2V9.2L3839,0L3839,0z"
			/>
	</g>
	<g>
		<g>
			<path class="st1" d="M2532.8,675.5V252.6c0-61.6,31.7-94.3,89.9-94.3h254.6v155H2813v-94.1h-174.5c-26.4,0-37,16.7-37,50.2v389.4
				c0,33.5,10.5,50.2,37,50.2H2813V608.5h64.3v161.3h-254.6C2564.5,769.8,2532.8,737.2,2532.8,675.5z"/>
			<path class="st1" d="M2913.4,709h53.8V219.2h-53.8v-60.8H3205c58.2,0,89.9,32.6,89.9,94.3v140.1c0,61.6-31.7,94.3-89.9,94.3
				h-169.1v222h55.5v60.8h-178V709z M3189.1,426.2c26.4,0,37-16.7,37-50.2V269.4c0-33.5-10.5-50.2-37-50.2h-153.3v207H3189.1
				L3189.1,426.2z"/>
			<path class="st1" d="M3336.2,675.5V252.6c0-61.6,31.7-94.3,89.9-94.3h254.5v155h-64.3v-94.1h-174.5c-26.4,0-37,16.7-37,50.2
				v389.4c0,33.5,10.5,50.2,37,50.2h174.5V608.5h64.3v161.3H3426C3368,769.8,3336.2,737.2,3336.2,675.5z"/>
		</g>
		<g>
			<g>
				<polygon class="st2" points="1593.2,9.2 1144.5,915.4 1640.8,915.4 2076.2,9.2 				"/>
			</g>
			<g>
				<path class="st1" d="M469,767.9H347.5l-10.1-120.6H288l-9.2,120.6H158.3l76.8-609.5h158L469,767.9z M312.8,310.1l-17.3,236.7
					h34.8L312.8,310.1z"/>
				<path class="st1" d="M878.4,767.9h-116V422.5l-45.7,345.4h-74.9l-48.4-347.3v347.3h-116V158.4h170l30,269.6l32-269.6h169V767.9z
					"/>
				<path class="st1" d="M1068.4,367.6v-72.2c0-19.2-0.9-25.6-2.8-30.2c-3.7-6.4-9.2-11-15.5-11c-6.4,0-13.7,4.6-16.4,11
					c-1.8,5.5-2.8,10.1-2.8,30.2v44.8c0,20.1,5.5,27.4,29.3,40.2l54.9,30.2c72.2,40.2,82.3,56.7,82.3,138.9v97.8
					c0,53-3.7,70.4-18.3,89.5c-20.1,27.4-42,32.9-137,32.9c-75.9,0-96.9-4.6-117-27.4c-11.9-12.8-17.3-27.4-20.1-50.3
					c-1.8-11.9-1.8-25.6-1.8-66.7V515.7h128v102.4v15.5c0,24.7,5.5,34.8,19.2,34.8c11.9,0,18.3-10.1,18.3-27.4v-15.5v-67.6
					l-0.9-12.8c-0.9-22.8-3.7-27.4-25.6-39.3c-8.3-4.6-14.6-7.3-15.5-8.3l-53.9-30.2c-59.4-33.8-69.4-53-69.4-128.9v-71.3
					c0-50.3,5.5-72.2,24.7-89.5c20.1-18.3,43.8-22.8,132.5-22.8c77.7,0,98.7,5.5,117.9,31.1c15.5,20.1,19.2,39.3,19.2,95.9v85.9
					h-129.1v-0.1H1068.4z"/>
				<path class="st1" d="M1399,767.9h-128.9V257.1h-64.9v-98.7H1462v98.7h-63V767.9L1399,767.9z"/>
				<path class="st1" d="M1607.2,158.4l45.7,0.9c89.5,1.8,111.4,25.6,111.4,117.9v63.9c0,85-12.8,114.2-57.6,126.1
					c21.9,7.3,34.8,17.3,43.8,33.8c11.9,21,13.7,37.4,13.7,108.8V768h-128V585.1c0-60.4,0-59.4-32-60.4c-1.8,0-2.8,0-5.5,0v243.1
					H1470V158.4H1607.2z M1608,413.3c24.7,0,28.3-5.5,28.3-44.8v-65.8l-0.9-16.4c0-21.9-5.5-28.3-22.8-28.3h-8.3h-5.5v155.4
					C1603.5,413.3,1606.2,413.3,1608,413.3z"/>
				<path class="st1" d="M2078.6,767.9h-121.5L1947,647.3h-49.3l-9.2,120.6h-120.6l76.8-609.5h158.1L2078.6,767.9z M1922.3,310.1
					L1905,546.8h34.8L1922.3,310.1z"/>
				<path class="st1" d="M2212,158.4c110.6,0,126.1,2.8,147.1,27.4c19.2,21.9,23.8,45.7,23.8,129.8v300.7c0,74.9-2.8,95-17.3,117
					c-17.3,25.6-42.9,33.8-106,33.8l-64.9,0.9h-107.9V158.4H2212z M2227.5,668.3c20.1,0,24.7-6.4,24.7-32c0-3.7,0-6.4,0-12.8
					c0-10.1,0-21,0-30.2v-286v-15.5c0-27.4-4.6-33.8-24.7-33.8c-2.8,0-7.3,0.9-11.9,0.9v409.4
					C2220.3,668.3,2224.8,668.3,2227.5,668.3z"/>
			</g>
		</g>
	</g>
</g>
</svg>
