<?xml version="1.0" encoding="utf-8"?>
<!-- Generator: Adobe Illustrator 27.0.1, SVG Export Plug-In . SVG Version: 6.00 Build 0)  -->
<svg version="1.1" id="Layer_1" xmlns="http://www.w3.org/2000/svg" xmlns:xlink="http://www.w3.org/1999/xlink" x="0px" y="0px"
	 viewBox="0 0 3839 1211.7" style="enable-background:new 0 0 3839 1211.7;" xml:space="preserve">
<style type="text/css">
	.st0{fill:#62B647;}
	.st1{fill:#FFFFFF;}
	.st2{clip-path:url(#SVGID_00000065760840086112192720000013431796790160437674_);fill:#0D97D3;}
	.st3{clip-path:url(#SVGID_00000129893016816560503890000003694552456032227470_);fill:#924092;}
	.st4{clip-path:url(#SVGID_00000142134633352953290260000013005323778972865433_);fill:#E11F32;}
	.st5{clip-path:url(#SVGID_00000023963946702462285660000001396558025972359595_);fill:#F08020;}
	.st6{clip-path:url(#SVGID_00000149381391974911020140000003999807740398687402_);fill:#F2BC1A;}
	.st7{clip-path:url(#SVGID_00000123427421868352370580000004006338284172710058_);fill:#62B647;}
</style>
<g>
	<g>
		<path class="st0" d="M688.2,191.1c20.8-27.2,36.6-56.6,46.5-88.9c10.8-35.4,13.4-69,7.9-102.2c-30,2.8-61.2,13-93.8,31.1
			c-32.6,18-58.4,39.9-79.3,65.5c-20.9,25.6-35.9,54.1-46.7,84.9c-12.3,36.4-15.7,69.1-9.5,100.7c32.6,1,64.7-7.5,98-25.7
			C641.6,240.2,667.5,218.3,688.2,191.1z"/>
		<path class="st1" d="M330,1211.7c16.9-0.9,34.7-4.2,51.6-9.1c8.4-2.5,22.8-8.2,44.9-17.4c18.5-7.5,33.8-13.3,47.4-16.6
			c19.4-4.9,39.7-7.5,60.9-7.5c21.2,0,41.5,2.5,60.9,7.5c11.8,3.3,27.9,9.1,47.4,17.4c19.4,8.2,34.7,13.3,44.8,16.6
			c17.8,4.9,35.5,7.5,54.1,6.6c27.1,0,52.4-7.5,76-22.3c20.3-13.3,40.6-31.4,61.8-56.3c13.5-15.7,31.3-39.8,54.1-72.1
			c24.6-36.5,46.5-75.4,65.2-118.5c6.8-15.7,14.4-34.7,21.2-56.3c-13.5-4.9-27.9-12.4-44-23.2c-32.9-21.5-60-48-80.3-78.7
			c-28.7-42.2-43.1-91.1-44-146.7c0-45.5,11-89.5,33.8-129.3c16-28.1,38.1-53.9,64.3-77.1c11.8-10.8,24.6-19.9,38.1-28.1
			c-32.1-46.4-75.3-79.5-128.5-100.3c-30.5-11.5-64.3-19-101.5-21.5c-19.4-1.6-39.7-0.9-60,2.5c-16.9,2.5-35.5,7.5-55,13.3
			c-12.7,4.9-28.7,10.8-49,18.2c-20.3,8.2-34.7,13.3-42.2,15.7c-13.5,4.2-25.3,6.6-33.8,6.6c-11,0-25.3-2.5-42.2-8.2
			c-5-1.6-21.2-8.2-49.9-19c-21.9-8.2-40.6-14.9-55.8-19c-21.2-4.9-40.6-7.5-59.1-7.5c-53.2,0.9-102.4,14.9-148.9,43.1
			c-46.5,27.4-82.8,64.6-109.9,111.8C17.7,495,0,565.5,0,645.8c0,72.1,12.7,145.8,38.8,222.8c23.7,70.5,55,132.6,93,186.4
			c21.9,32.3,40.6,57.2,55.8,74.5c21.9,26.5,44,45.5,65.1,58.8C277.7,1204.2,303,1211.7,330,1211.7z"/>
		<g>
			<g>
				<g>
					<defs>
						<path id="SVGID_1_" d="M330,1211.7c16.9-0.9,34.7-4.2,51.6-9.1c8.4-2.5,22.8-8.2,44.9-17.4c18.5-7.5,33.8-13.3,47.4-16.6
							c19.4-4.9,39.7-7.5,60.9-7.5c21.2,0,41.5,2.5,60.9,7.5c11.8,3.3,27.9,9.1,47.4,17.4c19.4,8.2,34.7,13.3,44.8,16.6
							c17.8,4.9,35.5,7.5,54.1,6.6c27.1,0,52.4-7.5,76-22.3c20.3-13.3,40.6-31.4,61.8-56.3c13.5-15.7,31.3-39.8,54.1-72.1
							c24.6-36.5,46.5-75.4,65.2-118.5c6.8-15.7,14.4-34.7,21.2-56.3c-13.5-4.9-27.9-12.4-44-23.2c-32.9-21.5-60-48-80.3-78.7
							c-28.7-42.2-43.1-91.1-44-146.7c0-45.5,11-89.5,33.8-129.3c16-28.1,38.1-53.9,64.3-77.1c11.8-10.8,24.6-19.9,38.1-28.1
							c-32.1-46.4-75.3-79.5-128.5-100.3c-30.5-11.5-64.3-19-101.5-21.5c-19.4-1.6-39.7-0.9-60,2.5c-16.9,2.5-35.5,7.5-55,13.3
							c-12.7,4.9-28.7,10.8-49,18.2c-20.3,8.2-34.7,13.3-42.2,15.7c-13.5,4.2-25.3,6.6-33.8,6.6c-11,0-25.3-2.5-42.2-8.2
							c-5-1.6-21.2-8.2-49.9-19c-21.9-8.2-40.6-14.9-55.8-19c-21.2-4.9-40.6-7.5-59.1-7.5c-53.2,0.9-102.4,14.9-148.9,43.1
							c-46.5,27.4-82.8,64.6-109.9,111.8C17.7,495,0,565.5,0,645.8c0,72.1,12.7,145.8,38.8,222.8c23.7,70.5,55,132.6,93,186.4
							c21.9,32.3,40.6,57.2,55.8,74.5c21.9,26.5,44,45.5,65.1,58.8C277.7,1204.2,303,1211.7,330,1211.7z"/>
					</defs>
					<clipPath id="SVGID_00000171699107063833603260000012018180975321040550_">
						<use xlink:href="#SVGID_1_"  style="overflow:visible;"/>
					</clipPath>
					
						<rect x="-92" y="1057.6" style="clip-path:url(#SVGID_00000171699107063833603260000012018180975321040550_);fill:#0D97D3;" width="1203.3" height="154.1"/>
				</g>
			</g>
		</g>
		<g>
			<g>
				<g>
					<defs>
						<path id="SVGID_00000070837156030899866790000004754267921895653053_" d="M330,1211.7c16.9-0.9,34.7-4.2,51.6-9.1
							c8.4-2.5,22.8-8.2,44.9-17.4c18.5-7.5,33.8-13.3,47.4-16.6c19.4-4.9,39.7-7.5,60.9-7.5c21.2,0,41.5,2.5,60.9,7.5
							c11.8,3.3,27.9,9.1,47.4,17.4c19.4,8.2,34.7,13.3,44.8,16.6c17.8,4.9,35.5,7.5,54.1,6.6c27.1,0,52.4-7.5,76-22.3
							c20.3-13.3,40.6-31.4,61.8-56.3c13.5-15.7,31.3-39.8,54.1-72.1c24.6-36.5,46.5-75.4,65.2-118.5c6.8-15.7,14.4-34.7,21.2-56.3
							c-13.5-4.9-27.9-12.4-44-23.2c-32.9-21.5-60-48-80.3-78.7c-28.7-42.2-43.1-91.1-44-146.7c0-45.5,11-89.5,33.8-129.3
							c16-28.1,38.1-53.9,64.3-77.1c11.8-10.8,24.6-19.9,38.1-28.1c-32.1-46.4-75.3-79.5-128.5-100.3c-30.5-11.5-64.3-19-101.5-21.5
							c-19.4-1.6-39.7-0.9-60,2.5c-16.9,2.5-35.5,7.5-55,13.3c-12.7,4.9-28.7,10.8-49,18.2c-20.3,8.2-34.7,13.3-42.2,15.7
							c-13.5,4.2-25.3,6.6-33.8,6.6c-11,0-25.3-2.5-42.2-8.2c-5-1.6-21.2-8.2-49.9-19c-21.9-8.2-40.6-14.9-55.8-19
							c-21.2-4.9-40.6-7.5-59.1-7.5c-53.2,0.9-102.4,14.9-148.9,43.1c-46.5,27.4-82.8,64.6-109.9,111.8C17.7,495,0,565.5,0,645.8
							c0,72.1,12.7,145.8,38.8,222.8c23.7,70.5,55,132.6,93,186.4c21.9,32.3,40.6,57.2,55.8,74.5c21.9,26.5,44,45.5,65.1,58.8
							C277.7,1204.2,303,1211.7,330,1211.7z"/>
					</defs>
					<clipPath id="SVGID_00000013871593847398883820000002379930665308734891_">
						<use xlink:href="#SVGID_00000070837156030899866790000004754267921895653053_"  style="overflow:visible;"/>
					</clipPath>
					
						<rect x="-92" y="903.4" style="clip-path:url(#SVGID_00000013871593847398883820000002379930665308734891_);fill:#924092;" width="1203.3" height="154.1"/>
				</g>
			</g>
		</g>
		<g>
			<g>
				<g>
					<defs>
						<path id="SVGID_00000049183934424121167870000001775619063938201739_" d="M330,1211.7c16.9-0.9,34.7-4.2,51.6-9.1
							c8.4-2.5,22.8-8.2,44.9-17.4c18.5-7.5,33.8-13.3,47.4-16.6c19.4-4.9,39.7-7.5,60.9-7.5c21.2,0,41.5,2.5,60.9,7.5
							c11.8,3.3,27.9,9.1,47.4,17.4c19.4,8.2,34.7,13.3,44.8,16.6c17.8,4.9,35.5,7.5,54.1,6.6c27.1,0,52.4-7.5,76-22.3
							c20.3-13.3,40.6-31.4,61.8-56.3c13.5-15.7,31.3-39.8,54.1-72.1c24.6-36.5,46.5-75.4,65.2-118.5c6.8-15.7,14.4-34.7,21.2-56.3
							c-13.5-4.9-27.9-12.4-44-23.2c-32.9-21.5-60-48-80.3-78.7c-28.7-42.2-43.1-91.1-44-146.7c0-45.5,11-89.5,33.8-129.3
							c16-28.1,38.1-53.9,64.3-77.1c11.8-10.8,24.6-19.9,38.1-28.1c-32.1-46.4-75.3-79.5-128.5-100.3c-30.5-11.5-64.3-19-101.5-21.5
							c-19.4-1.6-39.7-0.9-60,2.5c-16.9,2.5-35.5,7.5-55,13.3c-12.7,4.9-28.7,10.8-49,18.2c-20.3,8.2-34.7,13.3-42.2,15.7
							c-13.5,4.2-25.3,6.6-33.8,6.6c-11,0-25.3-2.5-42.2-8.2c-5-1.6-21.2-8.2-49.9-19c-21.9-8.2-40.6-14.9-55.8-19
							c-21.2-4.9-40.6-7.5-59.1-7.5c-53.2,0.9-102.4,14.9-148.9,43.1c-46.5,27.4-82.8,64.6-109.9,111.8C17.7,495,0,565.5,0,645.8
							c0,72.1,12.7,145.8,38.8,222.8c23.7,70.5,55,132.6,93,186.4c21.9,32.3,40.6,57.2,55.8,74.5c21.9,26.5,44,45.5,65.1,58.8
							C277.7,1204.2,303,1211.7,330,1211.7z"/>
					</defs>
					<clipPath id="SVGID_00000142873568786551305410000005661806891295625620_">
						<use xlink:href="#SVGID_00000049183934424121167870000001775619063938201739_"  style="overflow:visible;"/>
					</clipPath>
					
						<rect x="-92" y="749.3" style="clip-path:url(#SVGID_00000142873568786551305410000005661806891295625620_);fill:#E11F32;" width="1203.3" height="154.1"/>
				</g>
			</g>
		</g>
		<g>
			<g>
				<g>
					<defs>
						<path id="SVGID_00000068645961513488323580000013314299815620852905_" d="M330,1211.7c16.9-0.9,34.7-4.2,51.6-9.1
							c8.4-2.5,22.8-8.2,44.9-17.4c18.5-7.5,33.8-13.3,47.4-16.6c19.4-4.9,39.7-7.5,60.9-7.5c21.2,0,41.5,2.5,60.9,7.5
							c11.8,3.3,27.9,9.1,47.4,17.4c19.4,8.2,34.7,13.3,44.8,16.6c17.8,4.9,35.5,7.5,54.1,6.6c27.1,0,52.4-7.5,76-22.3
							c20.3-13.3,40.6-31.4,61.8-56.3c13.5-15.7,31.3-39.8,54.1-72.1c24.6-36.5,46.5-75.4,65.2-118.5c6.8-15.7,14.4-34.7,21.2-56.3
							c-13.5-4.9-27.9-12.4-44-23.2c-32.9-21.5-60-48-80.3-78.7c-28.7-42.2-43.1-91.1-44-146.7c0-45.5,11-89.5,33.8-129.3
							c16-28.1,38.1-53.9,64.3-77.1c11.8-10.8,24.6-19.9,38.1-28.1c-32.1-46.4-75.3-79.5-128.5-100.3c-30.5-11.5-64.3-19-101.5-21.5
							c-19.4-1.6-39.7-0.9-60,2.5c-16.9,2.5-35.5,7.5-55,13.3c-12.7,4.9-28.7,10.8-49,18.2c-20.3,8.2-34.7,13.3-42.2,15.7
							c-13.5,4.2-25.3,6.6-33.8,6.6c-11,0-25.3-2.5-42.2-8.2c-5-1.6-21.2-8.2-49.9-19c-21.9-8.2-40.6-14.9-55.8-19
							c-21.2-4.9-40.6-7.5-59.1-7.5c-53.2,0.9-102.4,14.9-148.9,43.1c-46.5,27.4-82.8,64.6-109.9,111.8C17.7,495,0,565.5,0,645.8
							c0,72.1,12.7,145.8,38.8,222.8c23.7,70.5,55,132.6,93,186.4c21.9,32.3,40.6,57.2,55.8,74.5c21.9,26.5,44,45.5,65.1,58.8
							C277.7,1204.2,303,1211.7,330,1211.7z"/>
					</defs>
					<clipPath id="SVGID_00000000221705284951249030000007989517972686025900_">
						<use xlink:href="#SVGID_00000068645961513488323580000013314299815620852905_"  style="overflow:visible;"/>
					</clipPath>
					
						<rect x="-92" y="595.3" style="clip-path:url(#SVGID_00000000221705284951249030000007989517972686025900_);fill:#F08020;" width="1203.3" height="154.1"/>
				</g>
			</g>
		</g>
		<g>
			<g>
				<g>
					<defs>
						<path id="SVGID_00000061431741736185012250000015656647574223084989_" d="M330,1211.7c16.9-0.9,34.7-4.2,51.6-9.1
							c8.4-2.5,22.8-8.2,44.9-17.4c18.5-7.5,33.8-13.3,47.4-16.6c19.4-4.9,39.7-7.5,60.9-7.5c21.2,0,41.5,2.5,60.9,7.5
							c11.8,3.3,27.9,9.1,47.4,17.4c19.4,8.2,34.7,13.3,44.8,16.6c17.8,4.9,35.5,7.5,54.1,6.6c27.1,0,52.4-7.5,76-22.3
							c20.3-13.3,40.6-31.4,61.8-56.3c13.5-15.7,31.3-39.8,54.1-72.1c24.6-36.5,46.5-75.4,65.2-118.5c6.8-15.7,14.4-34.7,21.2-56.3
							c-13.5-4.9-27.9-12.4-44-23.2c-32.9-21.5-60-48-80.3-78.7c-28.7-42.2-43.1-91.1-44-146.7c0-45.5,11-89.5,33.8-129.3
							c16-28.1,38.1-53.9,64.3-77.1c11.8-10.8,24.6-19.9,38.1-28.1c-32.1-46.4-75.3-79.5-128.5-100.3c-30.5-11.5-64.3-19-101.5-21.5
							c-19.4-1.6-39.7-0.9-60,2.5c-16.9,2.5-35.5,7.5-55,13.3c-12.7,4.9-28.7,10.8-49,18.2c-20.3,8.2-34.7,13.3-42.2,15.7
							c-13.5,4.2-25.3,6.6-33.8,6.6c-11,0-25.3-2.5-42.2-8.2c-5-1.6-21.2-8.2-49.9-19c-21.9-8.2-40.6-14.9-55.8-19
							c-21.2-4.9-40.6-7.5-59.1-7.5c-53.2,0.9-102.4,14.9-148.9,43.1c-46.5,27.4-82.8,64.6-109.9,111.8C17.7,495,0,565.5,0,645.8
							c0,72.1,12.7,145.8,38.8,222.8c23.7,70.5,55,132.6,93,186.4c21.9,32.3,40.6,57.2,55.8,74.5c21.9,26.5,44,45.5,65.1,58.8
							C277.7,1204.2,303,1211.7,330,1211.7z"/>
					</defs>
					<clipPath id="SVGID_00000067195777159825798370000000904145230077458583_">
						<use xlink:href="#SVGID_00000061431741736185012250000015656647574223084989_"  style="overflow:visible;"/>
					</clipPath>
					
						<rect x="-92" y="441.1" style="clip-path:url(#SVGID_00000067195777159825798370000000904145230077458583_);fill:#F2BC1A;" width="1203.3" height="154.1"/>
				</g>
			</g>
		</g>
		<g>
			<g>
				<g>
					<defs>
						<path id="SVGID_00000110461055007093912610000016563619946447374523_" d="M330,1211.7c16.9-0.9,34.7-4.2,51.6-9.1
							c8.4-2.5,22.8-8.2,44.9-17.4c18.5-7.5,33.8-13.3,47.4-16.6c19.4-4.9,39.7-7.5,60.9-7.5c21.2,0,41.5,2.5,60.9,7.5
							c11.8,3.3,27.9,9.1,47.4,17.4c19.4,8.2,34.7,13.3,44.8,16.6c17.8,4.9,35.5,7.5,54.1,6.6c27.1,0,52.4-7.5,76-22.3
							c20.3-13.3,40.6-31.4,61.8-56.3c13.5-15.7,31.3-39.8,54.1-72.1c24.6-36.5,46.5-75.4,65.2-118.5c6.8-15.7,14.4-34.7,21.2-56.3
							c-13.5-4.9-27.9-12.4-44-23.2c-32.9-21.5-60-48-80.3-78.7c-28.7-42.2-43.1-91.1-44-146.7c0-45.5,11-89.5,33.8-129.3
							c16-28.1,38.1-53.9,64.3-77.1c11.8-10.8,24.6-19.9,38.1-28.1c-32.1-46.4-75.3-79.5-128.5-100.3c-30.5-11.5-64.3-19-101.5-21.5
							c-19.4-1.6-39.7-0.9-60,2.5c-16.9,2.5-35.5,7.5-55,13.3c-12.7,4.9-28.7,10.8-49,18.2c-20.3,8.2-34.7,13.3-42.2,15.7
							c-13.5,4.2-25.3,6.6-33.8,6.6c-11,0-25.3-2.5-42.2-8.2c-5-1.6-21.2-8.2-49.9-19c-21.9-8.2-40.6-14.9-55.8-19
							c-21.2-4.9-40.6-7.5-59.1-7.5c-53.2,0.9-102.4,14.9-148.9,43.1c-46.5,27.4-82.8,64.6-109.9,111.8C17.7,495,0,565.5,0,645.8
							c0,72.1,12.7,145.8,38.8,222.8c23.7,70.5,55,132.6,93,186.4c21.9,32.3,40.6,57.2,55.8,74.5c21.9,26.5,44,45.5,65.1,58.8
							C277.7,1204.2,303,1211.7,330,1211.7z"/>
					</defs>
					<clipPath id="SVGID_00000107573244343198499130000014019192905439978929_">
						<use xlink:href="#SVGID_00000110461055007093912610000016563619946447374523_"  style="overflow:visible;"/>
					</clipPath>
					
						<rect x="-92" y="257.9" style="clip-path:url(#SVGID_00000107573244343198499130000014019192905439978929_);fill:#62B647;" width="1203.3" height="183.2"/>
				</g>
			</g>
		</g>
	</g>
	<g>
		<g>
			<path class="st1" d="M1382.9,719.6c-15.1,0-18.6,2.7-30.1,45.5c-17.7,72.8-25.7,96.5-25.7,112s11.5,23.7,32.8,26.4
				c15.1,1.8,26.6,2.7,26.6,12.8c0,8.2-7.1,10-15.9,10c-15.9,0-38.1-3.6-57.6-3.6c-23,0-51.4,3.6-57.6,3.6s-10.6-3.6-10.6-10
				c0-8.2,7.1-10.9,14.2-11.8c13.3-1.8,25.7-5.5,33.7-31c49.6-157.5,93-318.7,134.6-478.1c3.5-10.9,6.2-21,8-31
				c2.7-12.8,5.3-25.5,15.9-25.5c9.7,0,11.5,7.3,15.1,20.9c47.8,165.7,96.5,333.3,145.2,499.9c6.2,19.1,15.1,41.9,31,44.6
				c10.6,2.7,26.6,4.5,26.6,14.6c0,5.5-6.2,7.3-17.7,7.3c-23,0-41.6-3.6-65.5-3.6c-24.8,0-49.6,3.6-69.1,3.6
				c-7.1,0-15.1-2.7-15.1-10c0-8.2,10.6-11.8,23.9-11.8c14.2,0,29.2-2.7,29.2-23.7c0-11.8-12.4-45.5-31-115.6
				c-11.5-39.2-13.3-45.5-33.7-45.5L1382.9,719.6L1382.9,719.6z M1480.3,696.8c17.7,0,19.5-1.8,19.5-7.3c0-3.6-1.8-11.8-4.4-20
				c-8.8-31.9-26.6-86.5-47.8-167.5c-2.7-13.7-7.1-20-12.4-20c-6.2,0-8,7.3-13.3,30c-18.6,70.1-31,115.6-39.8,147.5
				c-5.3,21.8-7.1,28.2-7.1,31c0,4.5,2.7,6.4,18.6,6.4L1480.3,696.8L1480.3,696.8z"/>
			<path class="st1" d="M1745.9,1050.1c0,35.3,8.7,43.9,41.7,48.7c10.4,1.9,18.2,2.9,18.2,13.4c0,5.7-6.1,9.5-18.2,9.5
				c-15.6,0-26.1-3.8-62.5-3.8c-33.9,0-54.7,3.8-68.6,3.8c-13,0-17.4-2.9-17.4-9.5s3.5-10.5,13.9-13.4c35.6-6.7,39.1-11.4,39.1-55.3
				V593.3c0-21.9-3.5-27.7-21.7-33.4c-15.6-4.8-21.7-5.7-21.7-10.5c0-9.5,4.3-10.5,13-15.3c27.8-14.3,48.6-28.6,59-39.1
				c10.4-7.6,13.9-13.4,18.2-13.4s6.1,3.8,6.1,13.4v40.1c0,3.8,1.7,6.7,5.2,6.7s12.2-9.5,22.6-20c19.1-17.2,43.4-35.3,71.2-35.3
				c72.9,0,138.1,88.7,138.1,226.1c0,129.8-65.1,221.3-155.4,221.3c-23.4,0-40.8-6.7-55.6-12.4c-8.7-3.8-14.8-7.6-20-7.6
				s-5.2,6.7-5.2,21L1745.9,1050.1L1745.9,1050.1z M1923.9,710.7c0-111.6-35.6-187-96.4-187c-22.6,0-45.2,9.5-60.8,26.7
				c-13,14.3-20.8,33.4-20.8,51.5v221.3c0,33.4,6.9,57.2,21.7,72.5c13,14.3,32.1,21,51.2,21c59.9,0,105.1-65.8,105.1-205.1
				L1923.9,710.7L1923.9,710.7z"/>
			<path class="st1" d="M2093.2,1050.1c0,35.3,8.7,43.9,41.7,48.7c10.4,1.9,18.2,2.9,18.2,13.4c0,5.7-6.1,9.5-18.2,9.5
				c-15.6,0-26.1-3.8-62.5-3.8c-33.9,0-54.7,3.8-68.6,3.8c-13,0-17.4-2.9-17.4-9.5s3.5-10.5,13.9-13.4c35.6-6.7,39.1-11.4,39.1-55.3
				V593.3c0-21.9-3.5-27.7-21.7-33.4c-15.6-4.8-21.7-5.7-21.7-10.5c0-9.5,4.3-10.5,13-15.3c27.8-14.3,48.6-28.6,59-39.1
				c10.4-7.6,13.9-13.4,18.2-13.4s6.1,3.8,6.1,13.4v40.1c0,3.8,1.7,6.7,5.2,6.7s12.1-9.5,22.6-20c19.1-17.2,43.4-35.3,71.2-35.3
				c72.9,0,138.1,88.7,138.1,226.1c0,129.8-65.1,221.3-155.4,221.3c-23.4,0-40.8-6.7-55.6-12.4c-8.7-3.8-14.8-7.6-20-7.6
				s-5.2,6.7-5.2,21L2093.2,1050.1L2093.2,1050.1z M2271.2,710.7c0-111.6-35.6-187-96.4-187c-22.6,0-45.1,9.5-60.8,26.7
				c-13,14.3-20.8,33.4-20.8,51.5v221.3c0,33.4,6.9,57.2,21.7,72.5c13,14.3,32.1,21,51.2,21c59.9,0,105.1-65.8,105.1-205.1
				L2271.2,710.7L2271.2,710.7z"/>
			<path class="st1" d="M2384.4,397.3c0-23.9-3.5-29.6-27.8-33.4c-13-1.9-17.4-2.9-17.4-9.5s3.5-9.5,12.1-12.4
				c31.3-11.5,52.1-20,63.4-27.7c10.4-6.7,13.9-9.5,19.1-9.5c2.6,0,4.3,2.9,4.3,14.3v543.3c0,29.6,8.7,34.3,39.1,41
				c9.6,1.9,18.2,2.9,18.2,11.5c0,6.7-3.5,11.5-9.6,11.5c-11.3,0-24.3-3.8-73.8-3.8c-44.3,0-57.3,3.8-69.5,3.8
				c-4.3,0-10.4-2.9-10.4-11.5c0-6.7,7.8-10.5,15.6-11.5c33-3.8,36.5-15.3,36.5-46.8L2384.4,397.3L2384.4,397.3z"/>
			<path class="st1" d="M2580.3,684.9c-17.4,0-22.6,4.8-22.6,20c0,112.6,45.1,188.9,113.7,188.9c41.7,0,68.6-20,81.6-51.5
				c8.7-18.1,11.3-31.5,17.4-31.5c3.5,0,6.1,2.9,6.1,11.5c0,14.3-7.8,32.4-13,43.9c-20.8,42-61.6,67.7-105.1,67.7
				c-99,0-159.8-89.7-159.8-217.5c0-161.2,83.4-234.7,159.8-234.7c70.3,0,118.1,60.1,118.1,151.7c0,47.7,0,51.5-19.1,51.5
				L2580.3,684.9L2580.3,684.9z M2560.3,640c0,15.3,2.6,19.1,36.5,19.1c18.2,0,34.7-1,49.5-1.9c29.5-1.9,53.8-5.7,62.5-10.5
				c10.4-6.7,15.6-17.2,15.6-42c0-57.2-25.2-101.1-72.1-101.1c-54.7,0-92,65.8-92,135.5L2560.3,640L2560.3,640z"/>
		</g>
		<g>
			<path class="st1" d="M3233.5,908.9c-30.1-4.8-33.5-21-33.5-55.3V424.1c0-26.7,5.1-39.1,30.1-42c24.9-3.8,36.1-1.9,36.1-14.3
				c0-8.6-6.9-12.4-18-12.4c-21.5,0-284.7,0-307.9,0c-12.9,0-18,5.7-18,12.4c0,13.4,8.6,10.5,33.5,14.3c24,2.9,30.1,8.6,30.1,42
				v433.4c0,40.1-2.6,45.8-33.5,51.5c-14.6,2.9-29.2,3.8-29.2,15.3c0,10.5,6,10.5,16.3,10.5c12.9,0,295,0,307,0
				c14.6,0,18-3.8,18-9.5C3264.4,912.8,3248.1,911.8,3233.5,908.9z M3141.7,857.4c0,40.1-2.6,45.8-33.5,51.5c-0.1,0-0.1,0-0.2,0
				c-9.9,1.9-20.1,2-30.1,0c-0.1,0-0.2,0-0.3,0c-30.1-4.8-33.5-21-33.5-55.3V424.1c0-26.7,5.1-39.1,30.1-42c0.1,0,0.1,0,0.2,0
				c12.2-1.9,24.6-1.9,36.9,0c0.1,0,0.2,0,0.3,0c24,2.9,30.1,8.6,30.1,42L3141.7,857.4L3141.7,857.4z"/>
			<g>
				<path class="st1" d="M3537.7,894c0,4.8-0.6,9.5-2.4,12.9c-2.4,6.1-6.7,10.2-14,14.2c-20.8,14.2-54.3,22.4-89.1,22.4
					c-99.5,0-167.3-89.6-167.3-213.7c0-143.8,85.5-231.4,177.7-231.4c34.8,0,61.7,6.1,79.4,17c7.9,4.1,9.2,11.5,9.8,38
					c0,17.6,0.6,32.6,0,48.2c-0.6,17-2.4,20.4-9.8,20.4c-6.7,0-10.4-9.5-18.9-31.2c-15.3-42.1-30.5-72.6-66.6-72.6
					c-63.5,0-104.4,90.9-104.4,202.2c0,130.3,39.7,193,105,193c39.5,0,43.4-28.1,43.4-43v-82.1c0-36-6.7-38-24.4-40.7
					c-13.4-1.4-20.1-2-20.1-11.5c0-5.4,4.9-8.8,14-8.8c15.3,0.7,31.1,2.7,57.4,2.7c27.5,0,41.5-2.7,52.5-2.7
					c9.8,0,13.4,2.7,13.4,8.8c0,9.5-5.5,7.5-20.1,12.2c-11,3.4-15.3,6.1-15.3,32.6L3537.7,894L3537.7,894z"/>
				<path class="st1" d="M3681.1,949.3c-31.8-1.8-58.2-5-75.1-17.8c-7.1-7.5-7.1-28-7.8-61.2c0-19.7,0-44.8,2.6-59
					c0.6-7.5,3.2-10.2,9.1-10.2c8.4,0,10.4,8.1,12.3,17.6c15.6,66.5,51.5,102.8,94.3,102.8c40.9,0,70.4-32.9,70.4-79
					c0-49.5-42-77.3-80.3-101.8c-9.1-5.4-18.8-12.2-27.9-18.3c-39-26.5-84.7-57-84.7-116c0-65.1,47.6-107.9,130.1-107.9
					c29.9,0,64.9,9.5,78.6,17.6c5.8,3.4,6.5,6.1,7.1,21.7c0.6,10.9,0.6,25.1,0.6,46.1c0,28.5-0.6,33.9-9.7,33.9s-9.1-11.5-13-25.1
					c-14.3-50.9-47.5-72-79.9-72c-31.2,0-64.7,21.8-64.7,57.8c0,67.1,64.8,82.1,109.6,109.9c40.9,26.5,86.3,71.8,86.3,136.9
					C3839,890.9,3762.4,953.9,3681.1,949.3z"/>
			</g>
		</g>
	</g>
</g>
</svg>
