<?xml version="1.0" encoding="utf-8"?>
<!-- Generator: Adobe Illustrator 25.0.0, SVG Export Plug-In . SVG Version: 6.00 Build 0)  -->
<svg version="1.1" id="Layer_1" xmlns="http://www.w3.org/2000/svg" xmlns:xlink="http://www.w3.org/1999/xlink" x="0px" y="0px"
	 viewBox="0 0 3865.1 1219.9" style="enable-background:new 0 0 3865.1 1219.9;" xml:space="preserve">
<style type="text/css">
	.st0{fill:#0F9AD6;}
	.st1{fill:#943F95;}
	.st2{fill:#E61D32;}
	.st3{fill:#F38020;}
	.st4{fill:#F6BF16;}
	.st5{clip-path:url(#SVGID_2_);fill:#62B947;}
	.st6{fill:#62B947;}
	.st7{fill:#FFFFFF;}
	.st8{clip-path:url(#SVGID_4_);fill:#62B947;}
	.st9{clip-path:url(#SVGID_6_);fill:#FFFFFF;}
	.st10{clip-path:url(#SVGID_8_);}
	.st11{fill:url(#SVGID_9_);}
	.st12{fill:#606161;}
	.st13{fill:url(#SVGID_10_);}
	.st14{fill:url(#SVGID_11_);}
	.st15{fill:url(#SVGID_12_);}
	.st16{fill:url(#SVGID_13_);}
	.st17{fill:url(#SVGID_14_);}
	.st18{fill:url(#SVGID_15_);}
	.st19{clip-path:url(#SVGID_17_);fill:#62B947;}
</style>
<g>
	<g>
		<path class="st7" d="M3424.9,396.1h-98V264.5h251.6v582.8h-251.6V715.7h98V396.1z"/>
	</g>
	<g>
		<path class="st7" d="M3767.1,715.7h98v131.6h-251.6V264.5h251.6v131.6h-98V715.7z"/>
	</g>
	<g>
		<g>
			<path d="M943.9,810.2c-52.9-55.7-79.7-119.8-79.7-190.6c0-71.2,25.7-134.6,76.3-188.3c15.6-16.6,32.4-30.6,50.3-42.2
				c-19.3-25-96.1-114-210.9-114c-109.3,0-137.5,65.4-213.3,65.4c-83.5,0-111.2-72.4-219.6-72.4c0,0-321.9,9.6-321.9,400.2
				c0,140.9,123.1,551.6,306.2,551.6c91.6,0,80.6-56.3,200.1-56.3c118.9,0,98.6,47.6,210.5,47.6c115.7,0,266.3-159.8,280.2-341.7
				C994.2,855.4,968,835.6,943.9,810.2z"/>
		</g>
		<path class="st7" d="M1130.7,396.9h284.5v450.5h-153.6V528.5h-84.8c-27.8,0-50.8,8.6-69.1,25.9c-18.3,17.2-27.4,39.5-27.4,66.6
			c0,26.7,9.4,49.2,28.2,67.4c18.8,18.2,42,27.3,69.8,27.3h48.3v131.6h-94.3c-58,0-109.2-23.4-153.6-70.1
			C934.2,730.5,912,678,912,619.5c0-58.9,21.1-110.7,63.3-155.5C1017.5,419.3,1069.3,396.9,1130.7,396.9z"/>
		<path class="st7" d="M1462.7,979V396.9h289.6c59,0,109.6,22.3,151.7,66.8c42.2,44.5,63.3,98.7,63.3,162.4
			c0,61.8-21.2,114.1-63.6,157c-42.4,42.8-93.9,64.3-154.3,64.3h-98V715.7h43.9c29.3,0,53.9-8.2,73.9-24.8c20-16.5,30-37.9,30-64.1
			c0-25.3-9.5-47.6-28.5-67c-20.5-20.9-45.6-31.3-75.3-31.3h-79V979H1462.7z"/>
		<path class="st7" d="M1998,979V396.9h289.6c59,0,109.6,22.3,151.7,66.8c42.2,44.5,63.3,98.7,63.3,162.4
			c0,61.8-21.2,114.1-63.6,157c-42.4,42.8-93.9,64.3-154.3,64.3h-98V715.7h43.9c29.3,0,53.9-8.2,73.9-24.8c20-16.5,30-37.9,30-64.1
			c0-25.3-9.5-47.6-28.5-67c-20.5-20.9-45.6-31.3-75.3-31.3h-79V979H1998z"/>
		<path class="st7" d="M2533.3,264.5h153.6v582.8h-153.6V264.5z"/>
		<path class="st7" d="M3232.4,715.7v131.6h-259.6c-69.2,0-128-20-176.2-59.9c-51.7-42.8-77.5-98.6-77.5-167.2
			c0-58.4,25.3-110.2,76.1-155.5c50.7-45.3,110.2-67.9,178.4-67.9h258.9v131.3L3130,677.7h-174l108.2-149.2h-79
			c-29.3,0-52.9,8.5-70.9,25.5c-18,17-27.1,38.6-27.1,64.8c0,27.7,9.5,50.8,28.5,69.2c19,18.5,42.2,27.7,69.5,27.7H3232.4z"/>
		<path class="st0" d="M742,1211.2c71.9,0,157.2-61.7,214.8-152H140.5c50.6,91.4,115.7,160.7,190.9,160.7
			c91.6,0,80.6-56.3,200.1-56.3C650.3,1163.6,630.1,1211.2,742,1211.2z"/>
		<path class="st1" d="M140.5,1059.2h816.4c29.6-46.4,52-100.4,61.4-157.5H72.7C90.8,955.7,113.6,1010.5,140.5,1059.2z"/>
		<path class="st2" d="M72.7,901.6h945.5c1.8-10.6,3.1-21.4,3.9-32.2c-28-14.1-54.1-33.8-78.3-59.2c-19.8-20.9-36-42.9-48.4-66.1
			H32.6C40.4,790.5,54,845.6,72.7,901.6z"/>
		<path class="st3" d="M864.2,619.5c0-11.2,0.7-22.1,2-32.9H30.3c-3.4,25.2-5.2,52.3-5.2,81.7c0,20.3,2.6,46.3,7.5,75.8h862.8
			C874.7,705.5,864.2,663.8,864.2,619.5z"/>
		<path class="st4" d="M82.2,429.1C57.8,470.2,39,521.8,30.3,586.6h835.8c6.8-57.9,31.6-110.1,74.3-155.4c0.7-0.7,1.4-1.4,2.1-2.1
			H82.2z"/>
		<g>
			<defs>
				<path id="SVGID_3_" d="M943.9,810.2c-52.9-55.7-79.7-119.8-79.7-190.6c0-71.2,25.7-134.6,76.3-188.3
					c15.6-16.6,32.4-30.6,50.3-42.2c-19.3-25-96.1-114-210.9-114c-109.3,0-137.5,65.4-213.3,65.4c-83.5,0-111.2-72.4-219.6-72.4
					c0,0-321.9,9.6-321.9,400.2c0,140.9,123.1,551.6,306.2,551.6c91.6,0,80.6-56.3,200.1-56.3c118.9,0,98.6,47.6,210.5,47.6
					c115.7,0,266.3-159.8,280.2-341.7C994.2,855.4,968,835.6,943.9,810.2z"/>
			</defs>
			<clipPath id="SVGID_2_">
				<use xlink:href="#SVGID_3_"  style="overflow:visible;"/>
			</clipPath>
			<rect y="268.1" class="st5" width="1131.7" height="161"/>
		</g>
		<path class="st6" d="M717.2,208.6C732.8,193.1,766.2,81.1,766.2,0l0,0c-73.6,17.1-142.5,57.5-182.3,112.7l0,0
			c-39.7,55.2-62.3,125-48.9,208.6l0,0C634.5,312.7,681.2,262.7,717.2,208.6L717.2,208.6z"/>
	</g>
</g>
</svg>
