<?xml version="1.0" encoding="UTF-8"?>
<!DOCTYPE svg PUBLIC "-//W3C//DTD SVG 1.1//EN" "http://www.w3.org/Graphics/SVG/1.1/DTD/svg11.dtd">
<svg version="1.1" xmlns="http://www.w3.org/2000/svg" xmlns:xlink="http://www.w3.org/1999/xlink" x="0" y="0" width="1000" height="237" viewBox="0, 0, 1000, 237">
  <g id="Background">
    <rect x="0" y="0" width="1000" height="237" fill="#FFFFFF"/>
  </g>
  <g id="Layer_1">
    <path d="M-0.435,0 L1000,0 L1000,237 L-0.435,237 z" fill="#019ADE"/>
    <path d="M-0.435,237 L183.473,0 L203.246,0 L203.223,237 z M316.307,205.4 C310.99,202.727 306.752,199.237 303.589,194.931 C300.426,190.626 298.156,185.988 296.776,181.019 C295.396,176.047 294.721,171.226 294.753,166.555 C294.735,161.699 295.434,156.666 296.846,151.457 C298.261,146.247 300.478,141.191 303.505,136.283 C306.532,131.378 310.463,126.951 315.293,123.002 C320.125,119.057 325.953,115.917 332.774,113.589 C339.596,111.258 347.507,110.067 356.509,110.011 C360.083,110.029 363.006,110.2 365.276,110.528 C367.546,110.852 369.633,111.223 371.538,111.644 L369.242,127.316 C366.786,126.89 364.499,126.542 362.38,126.272 C360.263,126.003 358.028,125.864 355.674,125.855 C348.223,125.93 341.808,127.226 336.427,129.746 C331.049,132.262 326.637,135.547 323.19,139.602 C319.746,143.655 317.197,148.024 315.548,152.709 C313.898,157.394 313.081,161.94 313.092,166.346 C313.069,167.726 313.223,169.53 313.556,171.753 C313.892,173.977 314.545,176.345 315.516,178.856 C316.487,181.367 317.919,183.744 319.809,185.988 C321.7,188.232 324.19,190.064 327.277,191.487 C330.368,192.908 334.198,193.641 338.767,193.688 C343.072,193.638 346.872,193.088 350.169,192.035 C353.468,190.98 356.323,189.716 358.741,188.246 C361.159,186.773 363.2,185.388 364.858,184.086 L362.145,202.86 C360.62,203.73 358.657,204.675 356.26,205.702 C353.862,206.725 350.989,207.612 347.641,208.357 C344.292,209.105 340.431,209.496 336.053,209.531 C328.208,209.453 321.624,208.076 316.307,205.4 z M923.213,208.334 C919.908,207.522 916.53,206.212 913.066,204.403 C909.602,202.594 905.775,200.202 901.586,197.225 L904.499,180.108 C910.095,184.437 915.298,187.837 920.082,190.313 C924.865,192.786 929.489,194.047 933.939,194.096 C937.259,194.047 940.013,193.099 942.202,191.252 C944.405,189.403 945.55,186.942 945.623,183.869 C945.666,181.642 945.014,179.578 943.68,177.673 C942.361,175.774 940.158,173.617 937.056,171.202 C933.968,168.79 929.794,165.706 924.546,161.949 C921.72,160.009 919.125,157.809 916.777,155.353 C914.414,152.895 912.515,150.126 911.095,147.041 C909.66,143.96 908.92,140.507 908.891,136.689 C908.891,132.097 909.95,127.835 912.095,123.904 C914.24,119.97 917.458,116.792 921.749,114.366 C926.054,111.942 931.432,110.693 937.897,110.623 C942.361,110.681 946.449,111.281 950.145,112.421 C953.842,113.56 957.089,114.885 959.886,116.395 C962.684,117.906 964.945,119.245 966.699,120.416 L966.699,138.985 C963.844,136.796 960.901,134.775 957.857,132.917 C954.798,131.062 951.638,129.563 948.348,128.424 C945.072,127.287 941.651,126.702 938.114,126.67 C934.403,126.725 931.432,127.603 929.214,129.305 C926.996,131.004 925.851,133.187 925.793,135.854 C925.851,137.663 926.576,139.449 927.996,141.206 C929.417,142.962 931.214,144.682 933.403,146.369 C935.592,148.056 937.853,149.703 940.201,151.303 C944.883,154.504 948.942,157.542 952.363,160.424 C955.784,163.305 958.437,166.457 960.307,169.872 C962.177,173.29 963.119,177.398 963.148,182.199 C963.148,185.625 962.524,188.956 961.278,192.192 C960.046,195.427 958.19,198.347 955.712,200.953 C953.247,203.556 950.189,205.629 946.507,207.168 C942.84,208.708 938.578,209.496 933.722,209.531 C930.011,209.546 926.518,209.146 923.213,208.334 z M656.287,203.661 C650.414,199.828 645.894,194.581 642.731,187.921 C639.568,181.262 637.968,173.652 637.933,165.094 C637.959,157.583 639.029,150.52 641.139,143.905 C643.25,137.289 646.248,131.444 650.132,126.368 C654.017,121.295 658.632,117.314 663.978,114.427 C669.321,111.542 675.241,110.072 681.735,110.017 C688.331,110.064 694.175,111.687 699.269,114.888 C704.365,118.088 708.369,122.585 711.286,128.38 C714.199,134.175 715.686,140.988 715.744,148.819 C715.736,150.99 715.649,152.808 715.483,154.275 C715.318,155.739 715.127,156.982 714.909,158.006 L656.281,158.006 C656.174,159.65 656.078,161.206 655.997,162.67 C655.913,164.134 655.87,165.636 655.867,167.181 C655.936,173.038 657.07,178.03 659.264,182.155 C661.462,186.283 664.294,189.438 667.765,191.618 C671.235,193.798 674.919,194.897 678.813,194.914 C682.733,194.856 686.623,194.091 690.488,192.621 C694.352,191.148 698.043,189.319 701.562,187.13 C705.079,184.941 708.276,182.741 711.152,180.526 L708.442,199.089 C702.852,202.994 697.384,205.725 692.036,207.282 C686.684,208.838 681.79,209.586 677.352,209.525 C669.182,209.45 662.161,207.496 656.287,203.661 z M756.858,207.934 C752.228,206.896 748.326,205.499 745.154,203.742 C741.983,201.985 739.272,200.016 737.019,197.833 C733.3,194.349 730.296,190.003 728.015,184.796 C725.73,179.592 724.556,173.786 724.489,167.379 C724.501,161.966 725.377,156.565 727.116,151.176 C728.855,145.786 731.381,140.672 734.694,135.831 C738.008,130.992 742.035,126.684 746.775,122.91 C751.512,119.138 756.89,116.16 762.905,113.977 C766.842,112.612 770.515,111.652 773.927,111.102 C777.34,110.548 780.659,110.241 783.886,110.174 C787.113,110.107 790.417,110.122 793.798,110.22 L800.269,64.299 L818.22,64.299 L797.764,206.603 C796.123,207.09 793.348,207.682 789.44,208.377 C785.53,209.073 780.303,209.456 773.759,209.525 C767.123,209.502 761.49,208.972 756.858,207.934 z M834.185,203.661 C828.311,199.828 823.792,194.581 820.629,187.921 C817.466,181.262 815.866,173.652 815.831,165.094 C815.857,157.583 816.927,150.52 819.037,143.905 C821.148,137.289 824.145,131.444 828.03,126.368 C831.915,121.295 836.53,117.314 841.876,114.427 C847.219,111.542 853.139,110.072 859.633,110.017 C866.229,110.064 872.073,111.687 877.167,114.888 C882.263,118.088 886.267,122.585 889.178,128.38 C892.091,134.175 893.584,140.988 893.642,148.819 C893.628,150.99 893.541,152.808 893.381,154.275 C893.222,155.739 893.019,156.982 892.802,158.006 L834.179,158.006 C834.072,159.65 833.976,161.206 833.895,162.67 C833.811,164.134 833.767,165.636 833.765,167.181 C833.834,173.038 834.968,178.03 837.162,182.155 C839.36,186.283 842.192,189.438 845.662,191.618 C849.133,193.798 852.817,194.897 856.711,194.914 C860.63,194.856 864.521,194.091 868.385,192.621 C872.25,191.148 875.94,189.319 879.46,187.13 C882.977,184.941 886.174,182.741 889.047,180.526 L886.339,199.089 C880.75,202.994 875.282,205.725 869.934,207.282 C864.582,208.838 859.688,209.586 855.25,209.525 C847.08,209.45 840.058,207.496 834.185,203.661 z M228.356,206.626 L241.71,112.916 L259.24,112.916 L256.527,132.911 C258.394,129.232 260.548,125.771 262.989,122.524 C265.43,119.28 268.216,116.636 271.35,114.595 C274.484,112.554 278.029,111.502 281.984,111.438 C283.74,111.458 285.236,111.623 286.471,111.936 C287.706,112.247 288.785,112.574 289.704,112.916 L289.704,132.911 C288.573,132.233 287.138,131.555 285.402,130.873 C283.668,130.195 281.555,129.83 279.064,129.777 C277.409,129.722 275.64,129.995 273.762,130.598 C271.88,131.201 269.805,132.465 267.532,134.387 C265.259,136.312 262.702,139.228 259.864,143.142 C259.304,143.873 258.446,145.128 257.283,146.905 C256.124,148.682 254.898,150.987 253.605,153.822 L246.093,206.626 z M371.639,206.626 L392.095,64.299 L409.838,64.299 L400.653,128.357 C403.573,125.11 406.756,122.104 410.2,119.338 C413.647,116.569 417.369,114.337 421.37,112.635 C425.374,110.936 429.67,110.061 434.259,110.011 C437.541,109.982 440.8,110.803 444.038,112.473 C447.273,114.143 449.978,116.833 452.147,120.544 C454.318,124.255 455.446,129.154 455.53,135.245 C455.533,137.141 455.504,138.681 455.446,139.86 C455.385,141.037 455.278,142.159 455.127,143.223 C454.976,144.287 454.765,145.592 454.486,147.14 L446.146,206.626 L428.206,206.626 L436.764,145.682 C436.97,144.598 437.135,143.658 437.257,142.858 C437.382,142.061 437.469,141.229 437.521,140.362 C437.573,139.495 437.599,138.414 437.599,137.124 C437.634,135.57 437.512,134.083 437.234,132.662 C436.956,131.239 436.312,129.804 435.303,128.357 C434.216,126.887 432.894,125.756 431.337,124.965 C429.78,124.174 428.25,123.773 426.745,123.765 C424.289,123.823 421.959,124.403 419.755,125.504 C417.549,126.606 415.575,127.881 413.832,129.331 C412.09,130.781 410.69,132.056 409.629,133.158 C409.319,133.453 408.591,134.181 407.449,135.338 C406.304,136.495 404.929,137.964 403.32,139.744 C401.711,141.527 400.056,143.505 398.357,145.682 L389.382,206.626 z M461.554,206.626 L474.913,112.916 L492.638,112.916 L479.294,206.626 z M490.571,206.626 L503.93,112.916 L521.464,112.916 L519.168,129.577 C524.789,123.347 530.303,118.758 535.71,115.815 C541.122,112.87 546.532,111.412 551.939,111.438 C554.922,111.397 557.908,112.009 560.9,113.276 C563.892,114.54 566.524,116.697 568.794,119.747 C571.067,122.796 572.615,126.98 573.439,132.291 C574.911,130.363 576.796,128.218 579.092,125.861 C581.388,123.504 584.035,121.234 587.032,119.045 C590.033,116.859 593.318,115.056 596.892,113.638 C600.467,112.221 604.27,111.487 608.297,111.438 C610.434,111.406 612.759,111.745 615.272,112.455 C617.789,113.166 620.192,114.441 622.482,116.285 C624.776,118.129 626.657,120.738 628.127,124.107 C629.6,127.478 630.359,131.807 630.408,137.095 C630.397,139.489 630.266,141.846 630.017,144.166 C629.771,146.485 629.484,148.79 629.159,151.083 L621.233,206.626 L603.496,206.626 L612.054,147.117 C612.173,145.922 612.304,144.6 612.446,143.148 C612.591,141.696 612.669,140.374 612.681,139.182 C612.62,135.196 611.999,132.192 610.825,130.172 C609.651,128.151 608.291,126.803 606.743,126.127 C605.198,125.452 603.838,125.139 602.661,125.191 C600.035,125.235 597.347,125.965 594.602,127.383 C591.859,128.798 589.181,130.627 586.563,132.865 C583.948,135.103 581.515,137.477 579.269,139.991 C577.019,142.502 575.077,144.876 573.439,147.117 L564.672,206.626 L546.929,206.626 L554.235,155.469 C554.754,151.463 555.128,147.989 555.357,145.053 C555.589,142.116 555.702,139.95 555.696,138.556 C555.63,134.842 554.954,132.036 553.673,130.134 C552.391,128.232 550.913,126.954 549.234,126.304 C547.558,125.655 546.094,125.353 544.842,125.4 C542.529,125.443 540.169,126.084 537.765,127.319 C535.359,128.554 533.02,130.122 530.747,132.024 C528.471,133.926 526.372,135.9 524.45,137.944 C522.525,139.991 520.887,141.846 519.533,143.507 C518.182,145.174 517.225,146.383 516.663,147.143 L508.105,206.626 z M778.43,194.963 C779.607,194.859 780.694,194.702 781.691,194.494 L791.711,124.832 C789.226,124.756 786.051,124.852 782.187,125.119 C778.32,125.382 774.258,126.261 770.002,127.751 C763.688,130.059 758.548,133.303 754.579,137.483 C750.61,141.667 747.694,146.302 745.835,151.39 C743.974,156.478 743.055,161.528 743.076,166.546 C743.035,171.495 744.018,176.128 746.021,180.442 C748.024,184.759 751.277,188.264 755.785,190.957 C760.29,193.65 766.283,195.039 773.759,195.12 C775.693,195.12 777.25,195.068 778.43,194.963 z M696.323,134.059 C694.885,130.902 692.903,128.508 690.372,126.878 C687.846,125.249 684.968,124.432 681.735,124.423 C677.946,124.487 674.728,125.31 672.081,126.896 C669.437,128.479 667.257,130.444 665.541,132.787 C663.825,135.132 662.465,137.475 661.462,139.814 C660.462,142.157 659.708,144.113 659.204,145.688 L698.422,145.688 C698.46,141.093 697.761,137.216 696.323,134.059 z M874.221,134.059 C872.783,130.902 870.8,128.508 868.269,126.878 C865.744,125.249 862.866,124.432 859.633,124.423 C855.844,124.487 852.626,125.31 849.979,126.896 C847.335,128.479 845.155,130.444 843.439,132.787 C841.723,135.132 840.363,137.475 839.36,139.814 C838.36,142.157 837.606,144.113 837.101,145.688 L876.32,145.688 C876.358,141.093 875.659,137.216 874.221,134.059 z M481.512,99.259 C479.981,98.328 478.775,97.108 477.891,95.597 C477.009,94.087 476.557,92.449 476.54,90.683 C476.603,87.993 477.569,85.706 479.433,83.827 C481.297,81.943 483.668,80.96 486.547,80.879 C488.577,80.908 490.357,81.386 491.884,82.308 C493.412,83.233 494.604,84.436 495.459,85.917 C496.317,87.399 496.752,88.987 496.764,90.683 C496.752,92.318 496.335,93.893 495.514,95.412 C494.691,96.928 493.531,98.18 492.038,99.166 C490.542,100.152 488.782,100.662 486.756,100.697 C484.79,100.671 483.042,100.192 481.512,99.259 z" fill="#FFFFFF"/>
    <path d="M186.382,110.828 L186.382,24.462 L126.278,101.917 C147.298,97.414 168.37,100.514 186.382,110.828 z" fill="#F6564A"/>
    <path d="M186.382,237 L186.382,131.231 C164.329,114.596 135.138,112.173 108.247,125.152 L21.456,237 z" fill="#F2CE2E"/>
  </g>
</svg>