<?xml version="1.0" encoding="utf-8"?>
<!-- Generator: Adobe Illustrator 25.0.0, SVG Export Plug-In . SVG Version: 6.00 Build 0)  -->
<svg version="1.1" id="Layer_1" xmlns="http://www.w3.org/2000/svg" xmlns:xlink="http://www.w3.org/1999/xlink" x="0px" y="0px"
	 viewBox="0 0 3839 891.3" style="enable-background:new 0 0 3839 891.3;" xml:space="preserve">
<style type="text/css">
	.st0{fill:#FFFFFF;}
	.st1{fill:url(#SVGID_1_);}
	.st2{fill:url(#SVGID_2_);}
	.st3{fill:url(#SVGID_3_);}
	.st4{fill:url(#SVGID_4_);}
	.st5{fill:url(#SVGID_5_);}
	.st6{fill:url(#SVGID_6_);}
	.st7{fill:url(#SVGID_7_);}
	.st8{fill:url(#SVGID_8_);}
	.st9{fill:url(#SVGID_9_);}
	.st10{fill:url(#SVGID_10_);}
	.st11{fill:url(#SVGID_11_);}
	.st12{fill:url(#SVGID_12_);}
	.st13{fill:url(#SVGID_13_);}
	.st14{fill:url(#SVGID_14_);}
	.st15{fill:url(#SVGID_15_);}
	.st16{fill:url(#SVGID_16_);}
	.st17{fill:url(#SVGID_17_);}
	.st18{fill:url(#SVGID_18_);}
	.st19{fill:url(#SVGID_19_);}
	.st20{fill:url(#SVGID_20_);}
	.st21{fill:url(#SVGID_21_);}
	.st22{fill:url(#SVGID_22_);}
	.st23{fill:url(#SVGID_23_);}
	.st24{fill:url(#SVGID_24_);}
	.st25{fill:url(#SVGID_25_);}
	.st26{fill:url(#SVGID_26_);}
	.st27{fill:url(#SVGID_27_);}
	.st28{fill:url(#SVGID_28_);}
	.st29{fill:url(#SVGID_29_);}
	.st30{fill:url(#SVGID_30_);}
	.st31{fill:url(#SVGID_31_);}
	.st32{fill:url(#SVGID_32_);}
	.st33{fill:url(#SVGID_33_);}
	.st34{fill:url(#SVGID_34_);}
	.st35{fill:url(#SVGID_35_);}
	.st36{fill:url(#SVGID_36_);}
	.st37{fill:url(#SVGID_37_);}
	.st38{fill:url(#SVGID_38_);}
	.st39{fill:url(#SVGID_39_);}
	.st40{fill:url(#SVGID_40_);}
	.st41{fill:url(#SVGID_41_);}
	.st42{fill:url(#SVGID_42_);}
	.st43{fill:url(#SVGID_43_);}
	.st44{fill:url(#SVGID_44_);}
	.st45{fill:url(#SVGID_45_);}
	.st46{fill:url(#SVGID_46_);}
	.st47{fill:url(#SVGID_47_);}
	.st48{fill:url(#SVGID_48_);}
	.st49{fill:url(#SVGID_49_);}
	.st50{fill:url(#SVGID_50_);}
	.st51{fill:url(#SVGID_51_);}
	.st52{fill:url(#SVGID_52_);}
	.st53{fill:url(#SVGID_53_);}
	.st54{fill:url(#SVGID_54_);}
	.st55{fill:url(#SVGID_55_);}
	.st56{fill:url(#SVGID_56_);}
	.st57{fill:url(#SVGID_57_);}
	.st58{fill:url(#SVGID_58_);}
	.st59{fill:url(#SVGID_59_);}
	.st60{fill:url(#SVGID_60_);}
	.st61{fill:url(#SVGID_61_);}
	.st62{fill:url(#SVGID_62_);}
	.st63{fill:url(#SVGID_63_);}
	.st64{fill:url(#SVGID_64_);}
	.st65{fill:url(#SVGID_65_);}
	.st66{fill:url(#SVGID_66_);}
	.st67{fill:url(#SVGID_67_);}
	.st68{fill:url(#SVGID_68_);}
	.st69{fill:url(#SVGID_69_);}
	.st70{fill:url(#SVGID_70_);}
	.st71{fill:url(#SVGID_71_);}
	.st72{fill:url(#SVGID_72_);}
	.st73{fill:url(#SVGID_73_);}
	.st74{fill:url(#SVGID_74_);}
	.st75{fill:url(#SVGID_75_);}
	.st76{fill:url(#SVGID_76_);}
	.st77{fill:url(#SVGID_77_);}
	.st78{fill:url(#SVGID_78_);}
	.st79{fill:url(#SVGID_79_);}
	.st80{fill:url(#SVGID_80_);}
	.st81{fill:url(#SVGID_81_);}
	.st82{fill:url(#SVGID_82_);}
	.st83{fill:url(#SVGID_83_);}
	.st84{fill:url(#SVGID_84_);}
	.st85{fill:url(#SVGID_85_);}
	.st86{fill:url(#SVGID_86_);}
	.st87{fill:url(#SVGID_87_);}
	.st88{fill:url(#SVGID_88_);}
	.st89{fill:url(#SVGID_89_);}
	.st90{fill:url(#SVGID_90_);}
	.st91{fill:url(#SVGID_91_);}
	.st92{fill:url(#SVGID_92_);}
	.st93{fill:url(#SVGID_93_);}
	.st94{fill:url(#SVGID_94_);}
	.st95{fill:url(#SVGID_95_);}
	.st96{fill:url(#SVGID_96_);}
	.st97{fill:url(#SVGID_97_);}
	.st98{fill:url(#SVGID_98_);}
	.st99{fill:url(#SVGID_99_);}
	.st100{fill:url(#SVGID_100_);}
</style>
<g>
	<g>
		<linearGradient id="SVGID_1_" gradientUnits="userSpaceOnUse" x1="216.7793" y1="891.3185" x2="216.7793" y2="0">
			<stop  offset="0" style="stop-color:#EF5023"/>
			<stop  offset="0.2217" style="stop-color:#E04620"/>
			<stop  offset="0.6488" style="stop-color:#B82C16"/>
			<stop  offset="1" style="stop-color:#92140E"/>
		</linearGradient>
		<polygon class="st1" points="222.8,891.3 0,891.3 210.8,0 433.6,0 		"/>
		<linearGradient id="SVGID_2_" gradientUnits="userSpaceOnUse" x1="592.428" y1="737.0286" x2="592.428" y2="85.0231">
			<stop  offset="0" style="stop-color:#EF5023"/>
			<stop  offset="0.2217" style="stop-color:#E04620"/>
			<stop  offset="0.6488" style="stop-color:#B82C16"/>
			<stop  offset="1" style="stop-color:#92140E"/>
		</linearGradient>
		<polygon class="st2" points="558.1,85 403.9,737 626.7,737 780.9,85 		"/>
		<linearGradient id="SVGID_3_" gradientUnits="userSpaceOnUse" x1="875.1" y1="652.026" x2="875.1" y2="170.0433">
			<stop  offset="0" style="stop-color:#EF5023"/>
			<stop  offset="0.2217" style="stop-color:#E04620"/>
			<stop  offset="0.6488" style="stop-color:#B82C16"/>
			<stop  offset="1" style="stop-color:#92140E"/>
		</linearGradient>
		<polygon class="st3" points="820.7,170 706.7,652 929.5,652 1043.5,170 		"/>
		<linearGradient id="SVGID_4_" gradientUnits="userSpaceOnUse" x1="418.7499" y1="737.0286" x2="418.7499" y2="2.946930e-03">
			<stop  offset="0" style="stop-color:#008039"/>
			<stop  offset="0.1163" style="stop-color:#06833D"/>
			<stop  offset="0.266" style="stop-color:#168B47"/>
			<stop  offset="0.4338" style="stop-color:#309859"/>
			<stop  offset="0.615" style="stop-color:#55AA72"/>
			<stop  offset="0.8068" style="stop-color:#84C191"/>
			<stop  offset="1" style="stop-color:#BCDCB6"/>
		</linearGradient>
		<polygon class="st4" points="433.6,0 210.8,0 403.9,737 626.7,737 		"/>
		<linearGradient id="SVGID_5_" gradientUnits="userSpaceOnUse" x1="743.8134" y1="652.0173" x2="743.8134" y2="85.0231">
			<stop  offset="0" style="stop-color:#008039"/>
			<stop  offset="0.1163" style="stop-color:#06833D"/>
			<stop  offset="0.266" style="stop-color:#168B47"/>
			<stop  offset="0.4338" style="stop-color:#309859"/>
			<stop  offset="0.615" style="stop-color:#55AA72"/>
			<stop  offset="0.8068" style="stop-color:#84C191"/>
			<stop  offset="1" style="stop-color:#BCDCB6"/>
		</linearGradient>
		<polygon class="st5" points="929.5,652 780.9,85 558.1,85 706.7,652 		"/>
	</g>
	<g>
		<g>
			<path d="M1588.5,336.8l8.8-32.8h-275l3.1,32.8h88.4l-45.4,191.8c-3.8,16.2,8.4,31.7,25.1,31.7h53.2l52.8-223.5H1588.5z"/>
			<path d="M2933.1,304.2l-52.8,223.3h-41.1l52.8-223.4h-85.7l-52.8,223.4h-41.1l52.8-223.4h-85.7l-53.1,224.7
				c-3.8,16.2,8.4,31.7,25.1,31.7l306.9,0.1l60.6-256.3H2933.1z"/>
			<path d="M3483.1,304.1l-52.8,223.3h-31.7L3378.2,304h-83.8l21.3,232.9c1.2,13.3,12.3,23.4,25.6,23.4l166.9,0.1l60.6-256.3H3483.1
				z"/>
			<path d="M3647.4,304l-37.5,0.2l-53.1,224.7c-3.8,16.2,8.4,31.7,25.1,31.7h53.2l143.4-0.2l7.8-32.8h-143.3l23.3-98.6h126.9
				l7.8-32.8H3674l14-59.2h143.3l7.7-32.7L3647.4,304z"/>
			<path d="M1628.5,304.3l-53.1,224.6c-3.8,16.2,8.5,31.7,25.1,31.7l198-0.2l53.1-224.6c3.8-16.2-8.5-31.7-25.1-31.7L1628.5,304.3z
				 M1661.5,527.5l45.1-190.7h59l-45.1,190.7H1661.5z"/>
			<path d="M1900.2,304l-60.6,256.3h85.7l52.8-223.5h41.1l-52.8,223.6h85.7l52.9-223.6h41.1l-52.9,223.6h85.7l53.1-224.7
				c3.8-16.2-8.4-31.7-25.1-31.7L1900.2,304z"/>
			<path d="M2280.8,304.2l-53.1,224.7c-3.8,16.2,8.4,31.7,25.1,31.7h53.2l60.6-256.3H2280.8z"/>
			<path d="M1104.1,304l-60.6,256.3h85.7l15.7-66.7h83.1l6.1,66.7h83.8l-21.3-232.9c-1.2-13.3-12.3-23.4-25.7-23.4H1104.1z
				 M1152.7,460.8l29.3-124h31.6l11.3,124H1152.7z"/>
			<path d="M3060.2,304l-60.6,256.3h85.7l15.8-66.7h83.1l6.1,66.7h83.8l-21.3-232.9c-1.2-13.3-12.3-23.4-25.7-23.4H3060.2z
				 M3108.8,460.8l29.3-124h31.7l11.3,124H3108.8z"/>
			<path d="M2471.7,396l14-59.2h144.8l7.8-32.8l-230.6,0.3l-22,92.9c-3.8,16.2,8.4,31.7,25.1,31.7h112.2l-23.3,98.6h-144.7
				l-7.8,32.8h230.6l31.3-132.6c3.8-16.2-8.5-31.7-25.1-31.7H2471.7z"/>
		</g>
	</g>
</g>
</svg>
