<?xml version="1.0" encoding="utf-8"?>
<!-- Generator: Adobe Illustrator 25.0.0, SVG Export Plug-In . SVG Version: 6.00 Build 0)  -->
<svg version="1.1" id="Layer_1" xmlns="http://www.w3.org/2000/svg" xmlns:xlink="http://www.w3.org/1999/xlink" x="0px" y="0px"
	 viewBox="0 0 3839 871.4" style="enable-background:new 0 0 3839 871.4;" xml:space="preserve">
<style type="text/css">
	.st0{fill:#FFFFFF;}
	.st1{fill:url(#SVGID_1_);}
	.st2{fill:url(#SVGID_2_);}
	.st3{fill:url(#SVGID_3_);}
	.st4{fill:url(#SVGID_4_);}
	.st5{fill:url(#SVGID_5_);}
	.st6{fill:url(#SVGID_6_);}
	.st7{fill:url(#SVGID_7_);}
	.st8{fill:url(#SVGID_8_);}
	.st9{fill:url(#SVGID_9_);}
	.st10{fill:url(#SVGID_10_);}
	.st11{fill:url(#SVGID_11_);}
	.st12{fill:url(#SVGID_12_);}
	.st13{fill:url(#SVGID_13_);}
	.st14{fill:url(#SVGID_14_);}
	.st15{fill:url(#SVGID_15_);}
	.st16{fill:url(#SVGID_16_);}
	.st17{fill:url(#SVGID_17_);}
	.st18{fill:url(#SVGID_18_);}
	.st19{fill:url(#SVGID_19_);}
	.st20{fill:url(#SVGID_20_);}
	.st21{fill:url(#SVGID_21_);}
	.st22{fill:url(#SVGID_22_);}
	.st23{fill:url(#SVGID_23_);}
	.st24{fill:url(#SVGID_24_);}
	.st25{fill:url(#SVGID_25_);}
	.st26{fill:url(#SVGID_26_);}
	.st27{fill:url(#SVGID_27_);}
	.st28{fill:url(#SVGID_28_);}
	.st29{fill:url(#SVGID_29_);}
	.st30{fill:url(#SVGID_30_);}
	.st31{fill:url(#SVGID_31_);}
	.st32{fill:url(#SVGID_32_);}
	.st33{fill:url(#SVGID_33_);}
	.st34{fill:url(#SVGID_34_);}
	.st35{fill:url(#SVGID_35_);}
	.st36{fill:url(#SVGID_36_);}
	.st37{fill:url(#SVGID_37_);}
	.st38{fill:url(#SVGID_38_);}
	.st39{fill:url(#SVGID_39_);}
	.st40{fill:url(#SVGID_40_);}
	.st41{fill:url(#SVGID_41_);}
	.st42{fill:url(#SVGID_42_);}
	.st43{fill:url(#SVGID_43_);}
	.st44{fill:url(#SVGID_44_);}
	.st45{fill:url(#SVGID_45_);}
	.st46{fill:url(#SVGID_46_);}
	.st47{fill:url(#SVGID_47_);}
	.st48{fill:url(#SVGID_48_);}
	.st49{fill:url(#SVGID_49_);}
	.st50{fill:url(#SVGID_50_);}
	.st51{fill:url(#SVGID_51_);}
	.st52{fill:url(#SVGID_52_);}
	.st53{fill:url(#SVGID_53_);}
	.st54{fill:url(#SVGID_54_);}
	.st55{fill:url(#SVGID_55_);}
	.st56{fill:url(#SVGID_56_);}
	.st57{fill:url(#SVGID_57_);}
	.st58{fill:url(#SVGID_58_);}
	.st59{fill:url(#SVGID_59_);}
	.st60{fill:url(#SVGID_60_);}
	.st61{fill:url(#SVGID_61_);}
	.st62{fill:url(#SVGID_62_);}
	.st63{fill:url(#SVGID_63_);}
	.st64{fill:url(#SVGID_64_);}
	.st65{fill:url(#SVGID_65_);}
	.st66{fill:url(#SVGID_66_);}
	.st67{fill:url(#SVGID_67_);}
	.st68{fill:url(#SVGID_68_);}
	.st69{fill:url(#SVGID_69_);}
	.st70{fill:url(#SVGID_70_);}
	.st71{fill:url(#SVGID_71_);}
	.st72{fill:url(#SVGID_72_);}
	.st73{fill:url(#SVGID_73_);}
	.st74{fill:url(#SVGID_74_);}
	.st75{fill:url(#SVGID_75_);}
	.st76{fill:url(#SVGID_76_);}
	.st77{fill:url(#SVGID_77_);}
	.st78{fill:url(#SVGID_78_);}
	.st79{fill:url(#SVGID_79_);}
	.st80{fill:url(#SVGID_80_);}
	.st81{fill:url(#SVGID_81_);}
	.st82{fill:url(#SVGID_82_);}
	.st83{fill:url(#SVGID_83_);}
	.st84{fill:url(#SVGID_84_);}
	.st85{fill:url(#SVGID_85_);}
	.st86{fill:url(#SVGID_86_);}
	.st87{fill:url(#SVGID_87_);}
	.st88{fill:url(#SVGID_88_);}
	.st89{fill:url(#SVGID_89_);}
	.st90{fill:url(#SVGID_90_);}
	.st91{fill:url(#SVGID_91_);}
	.st92{fill:url(#SVGID_92_);}
	.st93{fill:url(#SVGID_93_);}
	.st94{fill:url(#SVGID_94_);}
	.st95{fill:url(#SVGID_95_);}
	.st96{fill:url(#SVGID_96_);}
	.st97{fill:url(#SVGID_97_);}
	.st98{fill:url(#SVGID_98_);}
	.st99{fill:url(#SVGID_99_);}
	.st100{fill:url(#SVGID_100_);}
</style>
<g>
	<g>
		<linearGradient id="SVGID_1_" gradientUnits="userSpaceOnUse" x1="211.9332" y1="871.3933" x2="211.9332" y2="0">
			<stop  offset="0" style="stop-color:#EF5023"/>
			<stop  offset="0.2217" style="stop-color:#E04620"/>
			<stop  offset="0.6488" style="stop-color:#B82C16"/>
			<stop  offset="1" style="stop-color:#92140E"/>
		</linearGradient>
		<polygon class="st1" points="217.8,871.4 0,871.4 206.1,0 423.9,0 		"/>
		<linearGradient id="SVGID_2_" gradientUnits="userSpaceOnUse" x1="579.1844" y1="720.5526" x2="579.1844" y2="83.1224">
			<stop  offset="0" style="stop-color:#EF5023"/>
			<stop  offset="0.2217" style="stop-color:#E04620"/>
			<stop  offset="0.6488" style="stop-color:#B82C16"/>
			<stop  offset="1" style="stop-color:#92140E"/>
		</linearGradient>
		<polygon class="st2" points="545.6,83.1 394.9,720.6 612.7,720.6 763.5,83.1 		"/>
		<linearGradient id="SVGID_3_" gradientUnits="userSpaceOnUse" x1="855.5374" y1="637.4502" x2="855.5374" y2="166.242">
			<stop  offset="0" style="stop-color:#EF5023"/>
			<stop  offset="0.2217" style="stop-color:#E04620"/>
			<stop  offset="0.6488" style="stop-color:#B82C16"/>
			<stop  offset="1" style="stop-color:#92140E"/>
		</linearGradient>
		<polygon class="st3" points="802.4,166.2 690.9,637.5 908.7,637.5 1020.2,166.2 		"/>
		<linearGradient id="SVGID_4_" gradientUnits="userSpaceOnUse" x1="409.3889" y1="720.5526" x2="409.3889" y2="2.881053e-03">
			<stop  offset="0" style="stop-color:#008039"/>
			<stop  offset="0.1163" style="stop-color:#06833D"/>
			<stop  offset="0.266" style="stop-color:#168B47"/>
			<stop  offset="0.4338" style="stop-color:#309859"/>
			<stop  offset="0.615" style="stop-color:#55AA72"/>
			<stop  offset="0.8068" style="stop-color:#84C191"/>
			<stop  offset="1" style="stop-color:#BCDCB6"/>
		</linearGradient>
		<polygon class="st4" points="423.9,0 206.1,0 394.9,720.6 612.7,720.6 		"/>
		<linearGradient id="SVGID_5_" gradientUnits="userSpaceOnUse" x1="727.1857" y1="637.4416" x2="727.1857" y2="83.1224">
			<stop  offset="0" style="stop-color:#008039"/>
			<stop  offset="0.1163" style="stop-color:#06833D"/>
			<stop  offset="0.266" style="stop-color:#168B47"/>
			<stop  offset="0.4338" style="stop-color:#309859"/>
			<stop  offset="0.615" style="stop-color:#55AA72"/>
			<stop  offset="0.8068" style="stop-color:#84C191"/>
			<stop  offset="1" style="stop-color:#BCDCB6"/>
		</linearGradient>
		<polygon class="st5" points="908.7,637.4 763.4,83.1 545.6,83.1 690.9,637.4 		"/>
	</g>
	<g>
		<g>
			<path class="st0" d="M3761.7,502.8h-17v-5.7h40.7v5.7h-17V548h-6.8V502.8z"/>
			<path class="st0" d="M3788.3,497.1h9.3l16,42.8l16.1-42.8h9.3V548h-6.4v-42.3h-0.1l-15.9,42.3h-5.8l-15.9-42.3h-0.1V548h-6.4
				V497.1z"/>
		</g>
		<g>
			<path class="st0" d="M1553,329.3l8.6-32.1h-268.8l3,32.1h86.4l-44.3,187.5c-3.7,15.8,8.3,31,24.5,31h52l51.7-218.5H1553z"/>
			<path class="st0" d="M2867.5,297.4l-51.6,218.3h-40.2l51.6-218.4h-83.8l-51.6,218.4h-40.2l51.6-218.4h-83.8l-51.9,219.6
				c-3.7,15.8,8.3,31,24.5,31l300,0.1l59.2-250.6H2867.5z"/>
			<path class="st0" d="M3405.2,297.3l-51.6,218.4h-31l-19.9-218.5h-81.9l20.8,227.7c1.2,13,12,22.9,25.1,22.9l163.2,0.1l59.3-250.6
				H3405.2z"/>
			<path class="st0" d="M3565.9,297.2l-36.6,0.2L3477.3,517c-3.7,15.8,8.3,31,24.5,31h52l140.2-0.2l7.6-32.1h-140.1l22.8-96.4h124
				l7.6-32.1h-124l13.7-57.8h140.1l7.6-32L3565.9,297.2z"/>
			<path class="st0" d="M1592.1,297.4L1540.2,517c-3.7,15.8,8.3,31,24.5,31l193.5-0.2l51.9-219.6c3.7-15.8-8.3-31-24.5-31
				L1592.1,297.4z M1624.3,515.7l44.1-186.4h57.7l-44.1,186.4H1624.3z"/>
			<path class="st0" d="M1857.8,297.2l-59.3,250.6h83.8l51.7-218.5h40.2l-51.7,218.6h83.8l51.7-218.6h40.2l-51.7,218.6h83.8
				l51.9-219.6c3.7-15.8-8.3-31-24.5-31L1857.8,297.2z"/>
			<path class="st0" d="M2229.8,297.4L2177.9,517c-3.7,15.8,8.3,31,24.5,31h52l59.3-250.6H2229.8z"/>
			<path class="st0" d="M1079.4,297.2l-59.3,250.6h83.8l15.4-65.2h81.2l6,65.2h81.9l-20.8-227.7c-1.2-13-12.1-22.9-25.1-22.9H1079.4
				z M1127,450.5l28.7-121.2h30.9l11.1,121.2H1127z"/>
			<path class="st0" d="M2991.8,297.2l-59.3,250.6h83.8l15.4-65.2h81.2l5.9,65.2h81.9L3180,320.1c-1.2-13-12.1-22.9-25.1-22.9
				H2991.8z M3039.3,450.5l28.7-121.2h31l11.1,121.2H3039.3z"/>
			<path class="st0" d="M2416.4,387.1l13.7-57.8h141.5l7.6-32.1l-225.4,0.3l-21.5,90.8c-3.7,15.8,8.3,31,24.5,31h109.7l-22.8,96.4
				h-141.5l-7.7,32.1H2520l30.6-129.7c3.7-15.8-8.3-31-24.5-31H2416.4z"/>
		</g>
	</g>
</g>
</svg>
