<?xml version="1.0" encoding="utf-8"?>
<!-- Generator: Adobe Illustrator 25.4.1, SVG Export Plug-In . SVG Version: 6.00 Build 0)  -->
<svg version="1.1" id="Layer_1" xmlns="http://www.w3.org/2000/svg" xmlns:xlink="http://www.w3.org/1999/xlink" x="0px" y="0px"
	 viewBox="0 0 3839 863.8" style="enable-background:new 0 0 3839 863.8;" xml:space="preserve">
<style type="text/css">
	.st0{fill:#FFFFFF;}
</style>
<g>
	<g>
		<g>
			<circle class="st0" cx="29.9" cy="35.7" r="29.9"/>
			<circle class="st0" cx="29.9" cy="124.4" r="29.9"/>
			<circle class="st0" cx="29.9" cy="213" r="29.9"/>
			<circle class="st0" cx="29.9" cy="301.7" r="29.9"/>
			<circle class="st0" cx="29.9" cy="390.4" r="29.9"/>
		</g>
		<g>
			<circle class="st0" cx="70" cy="80" r="29.9"/>
			<circle class="st0" cx="70" cy="257.4" r="29.9"/>
			<circle class="st0" cx="70" cy="346.1" r="29.9"/>
			<circle class="st0" cx="70" cy="434.8" r="29.9"/>
			<circle class="st0" cx="70" cy="789.5" r="29.9"/>
		</g>
		<g>
			<circle class="st0" cx="110.1" cy="35.7" r="29.9"/>
			<circle class="st0" cx="110.1" cy="301.7" r="29.9"/>
			<circle class="st0" cx="110.1" cy="390.4" r="29.9"/>
			<circle class="st0" cx="110.1" cy="479.1" r="29.9"/>
		</g>
		<g>
			<circle class="st0" cx="150.2" cy="168.7" r="29.9"/>
			<circle class="st0" cx="150.2" cy="346.1" r="29.9"/>
			<circle class="st0" cx="150.2" cy="434.8" r="29.9"/>
			<circle class="st0" cx="150.2" cy="523.4" r="29.9"/>
			<circle class="st0" cx="150.2" cy="789.5" r="29.9"/>
		</g>
		<g>
			<circle class="st0" cx="190.3" cy="35.7" r="29.9"/>
			<circle class="st0" cx="190.3" cy="124.4" r="29.9"/>
			<circle class="st0" cx="190.3" cy="213" r="29.9"/>
			<circle class="st0" cx="190.3" cy="390.4" r="29.9"/>
			<circle class="st0" cx="190.3" cy="479.1" r="29.9"/>
			<circle class="st0" cx="190.3" cy="567.8" r="29.9"/>
		</g>
		<g>
			<circle class="st0" cx="230.3" cy="168.7" r="29.9"/>
			<circle class="st0" cx="230.3" cy="346.1" r="29.9"/>
			<circle class="st0" cx="230.3" cy="434.8" r="29.9"/>
			<circle class="st0" cx="230.3" cy="523.4" r="29.9"/>
			<circle class="st0" cx="230.3" cy="612.1" r="29.9"/>
			<circle class="st0" cx="230.3" cy="789.5" r="29.9"/>
		</g>
		<g>
			<circle class="st0" cx="270.4" cy="35.7" r="29.9"/>
			<circle class="st0" cx="270.4" cy="390.4" r="29.9"/>
			<circle class="st0" cx="270.4" cy="479.1" r="29.9"/>
			<circle class="st0" cx="270.4" cy="567.8" r="29.9"/>
			<circle class="st0" cx="270.4" cy="656.5" r="29.9"/>
			<g>
				<circle class="st0" cx="270.4" cy="745.2" r="29.9"/>
			</g>
		</g>
		<g>
			<circle class="st0" cx="310.5" cy="80" r="29.9"/>
			<circle class="st0" cx="310.5" cy="257.4" r="29.9"/>
			<circle class="st0" cx="310.5" cy="346.1" r="29.9"/>
			<circle class="st0" cx="310.5" cy="434.8" r="29.9"/>
			<circle class="st0" cx="310.5" cy="523.4" r="29.9"/>
			<circle class="st0" cx="310.5" cy="612.1" r="29.9"/>
			<circle class="st0" cx="310.5" cy="700.8" r="29.9"/>
			<circle class="st0" cx="310.5" cy="789.5" r="29.9"/>
		</g>
		<g>
			<circle class="st0" cx="350.6" cy="35.7" r="29.9"/>
			<circle class="st0" cx="350.6" cy="124.4" r="29.9"/>
			<circle class="st0" cx="350.6" cy="301.7" r="29.9"/>
			<circle class="st0" cx="350.6" cy="390.4" r="29.9"/>
			<circle class="st0" cx="350.6" cy="479.1" r="29.9"/>
			<circle class="st0" cx="350.6" cy="567.8" r="29.9"/>
			<circle class="st0" cx="350.6" cy="656.5" r="29.9"/>
		</g>
		<g>
			<circle class="st0" cx="390.7" cy="80" r="29.9"/>
			<circle class="st0" cx="390.7" cy="257.4" r="29.9"/>
			<circle class="st0" cx="390.7" cy="346.1" r="29.9"/>
			<circle class="st0" cx="390.7" cy="434.8" r="29.9"/>
			<circle class="st0" cx="390.7" cy="523.4" r="29.9"/>
			<circle class="st0" cx="390.7" cy="612.1" r="29.9"/>
			<circle class="st0" cx="390.7" cy="789.5" r="29.9"/>
		</g>
		<g>
			<circle class="st0" cx="430.8" cy="35.7" r="29.9"/>
			<circle class="st0" cx="430.8" cy="567.8" r="29.9"/>
			<circle class="st0" cx="430.8" cy="656.5" r="29.9"/>
			<g>
				<circle class="st0" cx="430.8" cy="745.2" r="29.9"/>
			</g>
		</g>
		<g>
			<circle class="st0" cx="470.9" cy="168.7" r="29.9"/>
			<circle class="st0" cx="470.9" cy="346.1" r="29.9"/>
			<circle class="st0" cx="470.9" cy="612.1" r="29.9"/>
			<circle class="st0" cx="470.9" cy="700.8" r="29.9"/>
			<circle class="st0" cx="470.9" cy="789.5" r="29.9"/>
		</g>
		<g>
			<circle class="st0" cx="511" cy="35.7" r="29.9"/>
			<circle class="st0" cx="511" cy="124.4" r="29.9"/>
			<circle class="st0" cx="511" cy="213" r="29.9"/>
			<circle class="st0" cx="511" cy="656.5" r="29.9"/>
		</g>
		<g>
			<circle class="st0" cx="551.1" cy="168.7" r="29.9"/>
			<circle class="st0" cx="551.1" cy="346.1" r="29.9"/>
			<circle class="st0" cx="551.1" cy="700.8" r="29.9"/>
		</g>
		<g>
			<circle class="st0" cx="591.2" cy="35.7" r="29.9"/>
			<circle class="st0" cx="591.2" cy="301.7" r="29.9"/>
			<g>
				<circle class="st0" cx="591.2" cy="745.2" r="29.9"/>
			</g>
		</g>
		<g>
			<circle class="st0" cx="631.2" cy="80" r="29.9"/>
			<circle class="st0" cx="631.2" cy="257.4" r="29.9"/>
			<circle class="st0" cx="631.2" cy="789.5" r="29.9"/>
		</g>
		<g>
			<circle class="st0" cx="671.3" cy="35.7" r="29.9"/>
			<circle class="st0" cx="671.3" cy="124.4" r="29.9"/>
			<circle class="st0" cx="671.3" cy="213" r="29.9"/>
			<circle class="st0" cx="671.3" cy="301.7" r="29.9"/>
			<circle class="st0" cx="671.3" cy="390.4" r="29.9"/>
			<circle class="st0" cx="671.3" cy="479.1" r="29.9"/>
			<circle class="st0" cx="671.3" cy="567.8" r="29.9"/>
			<circle class="st0" cx="671.3" cy="656.5" r="29.9"/>
			<g>
				<circle class="st0" cx="671.3" cy="745.2" r="29.9"/>
				<circle class="st0" cx="671.3" cy="833.8" r="29.9"/>
			</g>
		</g>
	</g>
	<g>
		<path class="st0" d="M1044.1,15.7c13.3,6.6,23.5,14.8,30.7,24.6c7.2,9.9,12.1,20.4,14.4,31.5c2.3,11.2,3.5,21.3,3.5,30.5
			c0,11.3-1.7,21.7-5,31.3c-3.4,9.6-8.2,17.9-14.6,25.4c-6.4,7.4-14,13.6-22.8,18.3c-8.9,4.8-18.5,7.9-29.2,9.3
			c25.8,1.8,45.8,11.1,59.9,28.1c14.2,16.9,21.2,39.2,21.2,66.8c0,11.7-2,23.7-6.1,36.1c-4.1,12.4-10.7,23.6-19.8,33.7
			c-9.2,10.1-21,18.2-35.5,24.6s-32.3,9.6-53.5,9.6H800.5v-35h53.5V40.9h-53V5.8h190.8C1013.4,5.8,1030.8,9.2,1044.1,15.7z
			 M1005.6,167.2c10.3-4.4,18.3-10.1,24.4-16.9c6-6.9,10.2-14.6,12.5-23c2.3-8.5,3.5-16.8,3.5-24.9c0-7.8-0.9-15.4-2.7-22.8
			c-1.8-7.4-5.2-14-10.4-19.5c-5.1-5.7-12.1-10.3-20.9-13.8c-8.9-3.6-20.3-5.3-34.5-5.3h-77.4v133h66.8
			C982.5,173.9,995.5,171.7,1005.6,167.2z M1013.1,342.2c11-5.5,19.5-12.1,25.7-19.6c6.2-7.6,10.4-15.3,12.5-23
			c2.1-7.8,3.2-14.2,3.2-19c0-10.3-1.2-19.7-3.5-28.6c-2.3-8.9-6.1-16.5-11.4-22.8c-5.3-6.4-12.3-11.4-20.9-15.1
			c-8.7-3.7-19.3-5.6-32.1-5.6h-86.4v142.1h70C987.8,350.5,1002.1,347.7,1013.1,342.2z"/>
		<path class="st0" d="M1397.6,15.7c13.3,6.6,23.5,14.8,30.7,24.6s12.1,20.4,14.4,31.5c2.3,11.2,3.5,21.3,3.5,30.5
			c0,11.3-1.7,21.7-5,31.3c-3.4,9.6-8.2,17.9-14.6,25.4c-6.4,7.4-14,13.6-22.8,18.3c-8.9,4.8-18.5,7.9-29.2,9.3
			c25.8,1.8,45.8,11.1,59.9,28.1c14.2,16.9,21.2,39.2,21.2,66.8c0,11.7-2,23.7-6.1,36.1c-4.1,12.4-10.7,23.6-19.8,33.7
			c-9.2,10.1-21,18.2-35.5,24.6s-32.3,9.6-53.5,9.6h-186.6v-35h53.5V40.9h-53V5.8h190.8C1366.9,5.8,1384.3,9.2,1397.6,15.7z
			 M1359.1,167.2c10.3-4.4,18.3-10.1,24.4-16.9c6.1-6.9,10.2-14.6,12.5-23s3.5-16.8,3.5-24.9c0-7.8-0.9-15.4-2.7-22.8
			c-1.8-7.5-5.2-14-10.4-19.5c-5.1-5.7-12.1-10.3-20.9-13.8c-8.9-3.6-20.3-5.3-34.5-5.3h-77.4v133h66.8
			C1335.9,173.9,1348.8,171.7,1359.1,167.2z M1366.6,342.2c11-5.5,19.5-12.1,25.7-19.6c6.2-7.6,10.4-15.3,12.5-23
			c2.1-7.8,3.2-14.2,3.2-19c0-10.3-1.2-19.7-3.5-28.6c-2.3-8.9-6.1-16.5-11.4-22.8c-5.3-6.4-12.3-11.4-20.9-15.1
			c-8.7-3.7-19.3-5.6-32.1-5.6h-86.4v142.1h70C1341.2,350.5,1355.6,347.7,1366.6,342.2z"/>
		<path class="st0" d="M1841.8,5.8v134.7h-41.4c-1.8-30.7-11.2-55.6-28.1-74.8s-41.6-28.6-73.7-28.6c-40.7,0-71.5,13.5-92.5,40.3
			c-21,26.8-31.5,64.8-31.5,114c0,52.2,10.3,92.4,30.7,120.3c20.4,27.9,50.5,41.9,90.1,41.9c30,0,53.6-8.8,70.8-26.2
			c17.1-17.4,26.6-40.8,28.4-69.7h48.8c-1.1,21.5-5.3,40.6-12.7,57.2c-7.4,16.7-17.5,30.7-30.5,42.2c-12.9,11.5-28.3,20.1-46.1,25.9
			c-17.8,5.8-37.6,8.8-59.1,8.8c-32.2,0-59.2-5.7-81.1-16.9c-21.9-11.3-39.6-26.2-53-44.8c-13.5-18.5-23-39.5-28.9-62.8
			c-5.9-23.3-8.8-47.2-8.8-71.6c0-25.8,3.4-50.5,10.1-74.2c6.7-23.6,16.9-44.6,30.7-62.6c13.8-17.9,31.4-32.3,52.7-43
			C1638.1,5.3,1663.7,0,1693.4,0c27.6,0,50.7,5.3,69.5,15.9s32.3,25.6,40.8,45.1V5.8H1841.8z"/>
		<path class="st0" d="M2271.1,330.2L2372.3,5.8h133.6v35.1h-54v309.6h54v35h-147.4v-35h48.8V40.9h-3.7l-113,344.6h-41.4
			L2136.4,40.9h-3.7v309.6h49.3v35h-144.2v-35h54.6V40.9h-54.6V5.8H2173L2271.1,330.2z"/>
		<path class="st0" d="M2686.9,40.9h-53.5v309.6h53.5v35h-152.6v-35h53V40.9h-53V5.8h152.6V40.9z"/>
		<path class="st0" d="M3048.5,5.8v134.7h-41.4c-1.8-30.7-11.2-55.6-28.1-74.8c-16.9-19.1-41.6-28.6-73.7-28.6
			c-40.7,0-71.5,13.5-92.5,40.3c-21,26.8-31.5,64.8-31.5,114c0,52.2,10.3,92.4,30.7,120.3c20.4,27.9,50.5,41.9,90.1,41.9
			c30,0,53.6-8.8,70.8-26.2c17.1-17.4,26.6-40.8,28.4-69.7h48.8c-1.1,21.5-5.3,40.6-12.7,57.2s-17.5,30.7-30.5,42.2
			c-12.9,11.5-28.3,20.1-46.1,25.9c-17.8,5.8-37.6,8.8-59.1,8.8c-32.2,0-59.2-5.7-81.1-16.9c-21.9-11.3-39.6-26.2-53-44.8
			c-13.5-18.5-23-39.5-28.9-62.8c-5.9-23.3-8.8-47.2-8.8-71.6c0-25.8,3.4-50.5,10.1-74.2c6.7-23.7,16.9-44.6,30.7-62.6
			c13.8-17.9,31.4-32.3,52.7-43C2844.8,5.3,2870.3,0,2900,0c27.5,0,50.7,5.3,69.5,15.9c18.7,10.6,32.3,25.6,40.8,45.1V5.8H3048.5z"
			/>
		<path class="st0" d="M3307.8,8.2c12.9,1.6,24.1,5.2,33.7,10.9c12.8,7.4,23,18.4,31,33.1s12,31.5,12,50.6c0,29.6-7,53.2-20.9,70.8
			c-14,17.4-33.7,27.3-59.1,29.4c14.9,2.8,25.6,6.9,32.3,12.2c6.7,5.3,11.7,11.5,14.9,18.5c3.2,6.7,5.9,13.9,8,21.4
			c2.1,7.6,4.4,16,6.9,25.1c2.5,9.2,5.4,19.5,8.8,31s7,24.4,10.9,39h40.8v35h-78c-1.4-4.6-3.1-10.4-5-17.2c-2-6.9-4-14.3-6.1-22.2
			c-2.1-8-4.3-16.1-6.6-24.3c-2.3-8.4-4.7-16.4-7.2-24.1c-1.4-4.2-2.8-9.3-4.2-15.2c-1.4-5.8-3.2-11.9-5.3-18.2
			c-2.1-6.4-4.8-12.6-8-18.5c-3.2-6-7.3-11.2-12.2-15.4c-5-3.9-10.9-6.8-17.7-8.8c-6.9-2-16.6-2.9-28.9-2.9h-54.8v132h51.4v35
			h-151.6v-35h54V40.9h-54V5.8H3274C3283.7,5.8,3294.8,6.6,3307.8,8.2z M3308,172.3c7.4-4.2,13.1-9.6,16.9-15.9
			c3.9-6.4,6.8-12.7,8.8-18.7c1.9-6.2,3.1-11.9,3.4-16.9c0.3-5.2,0.5-8.8,0.5-10.9c0-9.6-1.8-19.9-5.3-31.3
			c-3.5-11.3-9.4-19.9-17.4-25.9c-5-3.9-11.4-6.8-19.3-8.8c-8-2-16.6-2.9-25.7-2.9h-76.9v142.1h64.1
			C3279.1,182.9,3296,179.4,3308,172.3z"/>
		<path class="st0" d="M3808.3,266.6c-5.7,19.1-13.1,36.6-22.2,52.5c-13.8,24.3-33.3,42.6-58.5,54.6c-25.2,12.1-52.9,18-83,18
			c-27.2,0-51.8-4.5-74-13.6c-22.1-9.1-41-21.8-56.7-38.4c-15.8-16.7-27.8-36.7-36.3-60.2c-8.5-23.5-12.8-49.8-12.8-78.8
			c0-33.9,4.5-63.5,13.6-88.7c9-25.2,21.4-46.2,37.4-62.8c15.9-16.7,34.7-29,56.4-37.1s45.4-12.2,70.8-12.2
			c35.3,0,64.8,7.1,88.2,21.2c23.5,14.2,42.7,32.7,57.5,55.6c9.9,15.6,17,33.7,21.4,54.6c4.4,20.9,6.6,43.5,6.6,67.9
			C3816.8,225.1,3814,247.6,3808.3,266.6z M3694.8,346.2c15.3-7.4,28.1-18.1,38.7-32.1c10.6-14,18.8-30.8,24.6-50.6
			c5.8-19.8,8.8-42.3,8.8-67.3c0-24.7-2.8-47.1-8.5-67.1c-5.7-19.9-13.8-37-24.4-51.1c-10.6-14.2-23.7-24.9-39.5-32.3
			s-33.7-11.1-53.8-11.1c-21.2,0-39.7,4.2-55.3,12.5c-15.8,8.3-28.8,19.8-39.2,34.7s-18.1,32.3-23,52.2c-5,19.9-7.4,41.6-7.4,64.9
			c0,30,3.3,54.2,9.8,72.7c6.6,18.3,15.3,33.7,26.2,46.2c12.4,14.2,26.7,24.3,43,30.5c16.3,6.2,32.7,9.3,49.3,9.3
			C3662.7,357.3,3679.7,353.6,3694.8,346.2z"/>
		<path class="st0" d="M1135,477.8v134.7h-41.4c-1.8-30.7-11.2-55.6-28.1-74.8c-16.9-19-41.6-28.6-73.7-28.6
			c-40.7,0-71.5,13.5-92.5,40.3s-31.5,64.8-31.5,114c0,52.2,10.3,92.4,30.7,120.3c20.4,27.9,50.5,41.9,90.1,41.9
			c30,0,53.6-8.8,70.8-26.2c17.1-17.4,26.6-40.8,28.4-69.7h48.8c-1.1,21.5-5.3,40.6-12.7,57.2c-7.4,16.7-17.5,30.7-30.5,42.2
			c-12.9,11.5-28.3,20.1-46.1,25.9c-17.8,5.8-37.6,8.8-59.1,8.8c-32.2,0-59.2-5.7-81.1-16.9c-21.9-11.3-39.6-26.2-53-44.8
			c-13.5-18.5-23-39.5-28.9-62.8c-5.8-23.3-8.8-47.2-8.8-71.6c0-25.8,3.4-50.5,10.1-74.2c6.7-23.7,16.9-44.6,30.7-62.6
			c13.8-17.9,31.4-32.3,52.7-43c21.3-10.6,46.9-15.9,76.6-15.9c27.6,0,50.7,5.3,69.5,15.9c18.7,10.6,32.3,25.6,40.8,45.1v-55.1H1135
			z"/>
		<path class="st0" d="M1541.4,738.7c-5.7,19-13.1,36.6-22.2,52.4c-13.8,24.3-33.3,42.6-58.5,54.6c-25.2,12.1-52.9,18-83,18
			c-27.2,0-51.8-4.5-74-13.6s-41-21.8-56.7-38.4c-15.8-16.7-27.8-36.7-36.3-60.2c-8.5-23.5-12.8-49.8-12.8-78.8
			c0-33.9,4.5-63.5,13.6-88.7c9-25.2,21.4-46.2,37.4-62.8c15.9-16.7,34.7-29,56.4-37.1c21.7-8.1,45.4-12.2,70.8-12.2
			c35.3,0,64.8,7.1,88.2,21.2c23.5,14.2,42.7,32.7,57.5,55.6c9.9,15.6,17,33.7,21.4,54.6s6.6,43.5,6.6,67.9
			C1549.9,697.1,1547.1,719.6,1541.4,738.7z M1428,818.2c15.2-7.4,28.1-18.1,38.7-32.1s18.8-30.8,24.6-50.6
			c5.8-19.8,8.8-42.3,8.8-67.3c0-24.7-2.8-47.1-8.5-67.1c-5.7-19.9-13.8-37-24.4-51.1c-10.6-14.2-23.7-24.9-39.5-32.3
			c-15.8-7.4-33.7-11.1-53.8-11.1c-21.2,0-39.7,4.2-55.3,12.5c-15.8,8.3-28.8,19.8-39.2,34.7c-10.5,14.9-18.1,32.3-23,52.2
			c-5,19.9-7.4,41.6-7.4,65c0,30,3.3,54.2,9.8,72.6c6.6,18.3,15.3,33.7,26.2,46.2c12.4,14.2,26.7,24.3,43,30.5
			c16.3,6.2,32.7,9.3,49.3,9.3C1395.9,829.3,1412.8,825.6,1428,818.2z"/>
		<path class="st0" d="M1829.1,802.2l101.3-324.4H2064v35h-54v309.6h54v35h-147.4v-35h48.8V512.9h-3.7l-112.9,344.6h-41.4
			l-113-344.6h-3.7v309.6h49.3v35h-144.2v-35h54.6V512.9h-54.6v-35h135.2L1829.1,802.2z"/>
		<path class="st0" d="M2330.1,488.4c14.4,7.1,25.5,16.2,33.7,27.3c8.2,11.2,13.7,23.4,16.8,36.9c3,13.5,4.5,26.5,4.5,39.2
			c0,20.8-3.5,38.2-10.4,51.9c-6.9,13.8-16.4,26.1-28.4,37.1c-7.4,6.7-16.8,11.9-28.3,15.4c-11.5,3.6-23.9,5.3-37.4,5.3h-84.8v120.8
			h63.6v35h-163.8v-35h54V512.9h-54v-35h178.7C2297.2,477.8,2315.8,481.4,2330.1,488.4z M2299.4,660.4c9.4-4.1,16.8-9.6,22.5-16.5
			c5.7-6.9,9.8-15,12.2-24.1c2.5-9.2,3.7-18.9,3.7-29.1c0-8.9-0.9-17.8-2.7-27c-1.8-9.2-5.6-17.5-11.4-25.1
			c-5.8-7.6-14.1-13.8-24.6-18.5c-10.6-4.8-24.5-7.2-41.9-7.2h-61.5v153.7h69.5C2278.6,666.5,2290,664.5,2299.4,660.4z"/>
		<path class="st0" d="M2561.4,512.9h-56.7v206.2c0,14.9,1.6,28.7,4.8,41.6c3.2,12.9,8.4,24.2,15.7,33.9
			c7.3,9.7,16.7,17.3,28.3,22.8c11.7,5.5,25.8,8.2,42.4,8.2c12.4,0,24.7-2.5,37.1-7.4c12.4-5,22.2-11.5,29.7-19.6
			c5.3-6,9.7-12.2,13-18.5c3.4-6.4,6.1-13.4,8.2-21.1c2.1-7.8,3.6-16.5,4.5-26s1.3-20.5,1.3-32.8V512.9h-55.6v-35h143.7v35h-47.2
			v209.4c0,14.5-1.2,27.3-3.7,38.4c-2.5,11.2-5.9,21.2-10.4,30.2c-4.4,9-9.8,17.1-15.9,24.3c-6.2,7.3-13,14.3-20.4,20.9
			c-5.7,5-12.3,9.2-19.9,12.5c-7.6,3.4-15.4,6.1-23.3,8.2c-8,2.1-15.9,3.7-23.6,4.8c-7.8,1.1-14.5,1.6-20.1,1.6
			c-12.4,0-25.1-1.5-38.2-4.5c-13.1-3-24.9-7.9-35.5-14.6c-11.7-7.1-21.3-14.7-29.1-22.8c-7.8-8.1-14.1-17.2-18.8-27.3
			c-4.8-10.1-8.2-21.4-10.4-34.2c-2.2-12.8-3.2-27.2-3.2-43.5V512.9h-46.7v-35h150.1v35H2561.4z"/>
		<path class="st0" d="M3114.2,599.2h-42.4v-81.1h-87.9v304.3h58.8v35h-163.3v-35h58.3V518.2h-88.5v81.1h-42.4V477.8h307.4V599.2z"
			/>
		<path class="st0" d="M3458.5,591.2h-41.4v-78.5h-161.7v134.1h78.5V589h38.2v149.6h-38.2v-56.7h-78.5v140.5h161.7v-83.3h41.4v118.2
			h-303.2v-35h54V512.9h-54v-35h303.2V591.2z"/>
		<path class="st0" d="M3720,480.2c12.9,1.6,24.1,5.2,33.7,10.9c12.8,7.4,23,18.4,31,33.1c8,14.7,12,31.5,12,50.6
			c0,29.6-7,53.2-20.9,70.8c-14,17.5-33.7,27.3-59.1,29.4c14.9,2.8,25.6,6.9,32.3,12.2c6.7,5.3,11.7,11.5,14.9,18.5
			c3.2,6.7,5.9,13.9,8,21.4c2.1,7.6,4.4,16,6.9,25.1c2.5,9.2,5.4,19.5,8.8,31c3.4,11.5,7,24.4,10.9,39h40.8v35h-78
			c-1.4-4.6-3.1-10.4-5-17.2c-1.9-6.9-4-14.3-6.1-22.2c-2.1-8-4.3-16.1-6.6-24.3c-2.3-8.4-4.7-16.4-7.2-24.1
			c-1.4-4.2-2.8-9.3-4.2-15.2c-1.4-5.8-3.2-11.9-5.3-18.2c-2.1-6.4-4.8-12.6-8-18.5c-3.2-6-7.3-11.2-12.2-15.4
			c-5-3.9-10.9-6.8-17.7-8.8s-16.6-2.9-28.9-2.9h-54.6v132h51.4v35H3505v-35h54V512.9h-54v-35h181.3
			C3695.8,477.8,3707.1,478.6,3720,480.2z M3720.3,644.3c7.4-4.2,13.1-9.6,16.9-15.9c3.9-6.4,6.8-12.7,8.8-18.8
			c1.9-6.2,3.1-11.8,3.4-16.9c0.3-5.2,0.5-8.8,0.5-10.9c0-9.6-1.8-19.9-5.3-31.3c-3.5-11.3-9.4-19.9-17.4-25.9
			c-5-3.9-11.4-6.8-19.3-8.8s-16.6-2.9-25.7-2.9h-76.9V655h64.1C3691.2,654.9,3708.3,651.4,3720.3,644.3z"/>
	</g>
</g>
</svg>
