<?xml version="1.0" encoding="utf-8"?>
<!-- Generator: Adobe Illustrator 25.4.1, SVG Export Plug-In . SVG Version: 6.00 Build 0)  -->
<svg version="1.1" id="Layer_1" xmlns="http://www.w3.org/2000/svg" xmlns:xlink="http://www.w3.org/1999/xlink" x="0px" y="0px"
	 viewBox="0 0 3839 1178.4" style="enable-background:new 0 0 3839 1178.4;" xml:space="preserve">
<style type="text/css">
	.st0{fill-rule:evenodd;clip-rule:evenodd;fill:#002684;}
	.st1{fill-rule:evenodd;clip-rule:evenodd;fill:#12506F;}
	.st2{fill-rule:evenodd;clip-rule:evenodd;fill:#247A5B;}
	.st3{fill-rule:evenodd;clip-rule:evenodd;fill:#36A346;}
	.st4{fill-rule:evenodd;clip-rule:evenodd;fill:#48CD31;}
	.st5{fill-rule:evenodd;clip-rule:evenodd;fill:#6AD534;}
	.st6{fill-rule:evenodd;clip-rule:evenodd;fill:#8CDD37;}
	.st7{fill-rule:evenodd;clip-rule:evenodd;fill:#AFE63A;}
	.st8{fill-rule:evenodd;clip-rule:evenodd;fill:#D1EE3D;}
	.st9{fill-rule:evenodd;clip-rule:evenodd;fill:#F3F640;}
	.st10{fill-rule:evenodd;clip-rule:evenodd;fill:#F6D730;}
	.st11{fill-rule:evenodd;clip-rule:evenodd;fill:#F9B721;}
	.st12{fill-rule:evenodd;clip-rule:evenodd;fill:#FB9811;}
	.st13{fill-rule:evenodd;clip-rule:evenodd;fill:#FE7801;}
	.st14{fill-rule:evenodd;clip-rule:evenodd;fill:#FE5C13;}
	.st15{fill-rule:evenodd;clip-rule:evenodd;fill:#FE4125;}
	.st16{fill-rule:evenodd;clip-rule:evenodd;fill:#FE2537;}
	.st17{fill-rule:evenodd;clip-rule:evenodd;fill:#14A4FE;}
	.st18{fill-rule:evenodd;clip-rule:evenodd;fill:#21AECB;}
	.st19{fill-rule:evenodd;clip-rule:evenodd;fill:#2EB998;}
	.st20{fill-rule:evenodd;clip-rule:evenodd;fill:#3BC364;}
	.st21{fill-rule:evenodd;clip-rule:evenodd;fill:#24795B;}
	.st22{fill-rule:evenodd;clip-rule:evenodd;fill:#48CC31;}
	.st23{fill-rule:evenodd;clip-rule:evenodd;fill:#6AD434;}
	.st24{fill-rule:evenodd;clip-rule:evenodd;fill:#8BDC37;}
	.st25{fill-rule:evenodd;clip-rule:evenodd;fill:#AEE53A;}
	.st26{fill-rule:evenodd;clip-rule:evenodd;fill:#D0ED3D;}
	.st27{fill-rule:evenodd;clip-rule:evenodd;fill:#F2F540;}
	.st28{fill-rule:evenodd;clip-rule:evenodd;fill:#F5D630;}
	.st29{fill-rule:evenodd;clip-rule:evenodd;fill:#F8B621;}
	.st30{fill-rule:evenodd;clip-rule:evenodd;fill:#FA9711;}
	.st31{fill-rule:evenodd;clip-rule:evenodd;fill:#FD7801;}
	.st32{fill-rule:evenodd;clip-rule:evenodd;fill:#F9500E;}
	.st33{fill-rule:evenodd;clip-rule:evenodd;fill:#F6281C;}
	.st34{fill-rule:evenodd;clip-rule:evenodd;fill:#F20029;}
	.st35{fill:#002684;}
	.st36{fill:#F20029;}
	.st37{fill:#FFFFFF;}
	.st38{fill-rule:evenodd;clip-rule:evenodd;fill:#14A3FD;}
	.st39{fill-rule:evenodd;clip-rule:evenodd;fill:#3E3632;}
	.st40{fill:#282422;}
	.st41{fill:url(#SVGID_1_);}
	.st42{fill:url(#SVGID_00000156584648944845928860000007154606499327454872_);}
	.st43{fill:url(#SVGID_00000133523655130170354920000010183421704639310248_);}
	.st44{fill:url(#SVGID_00000145056716003527106070000015154949277932277144_);}
	.st45{fill:url(#SVGID_00000065032064006897515700000014942337187161228440_);}
	.st46{fill:url(#SVGID_00000162329907897552705710000015151786065134809766_);}
	.st47{fill:url(#SVGID_00000140014945992165323530000001281771348973032629_);}
	.st48{fill:url(#SVGID_00000132047553402695462300000017129488734917108648_);}
	.st49{fill:url(#SVGID_00000054984165269335486200000010422261464174519732_);}
	.st50{fill:url(#SVGID_00000066491468940321606670000012207837004568024977_);}
	.st51{fill:url(#SVGID_00000094604244453748291480000010591495098667462016_);}
	.st52{fill:url(#SVGID_00000150798213603577454610000009443800907108041403_);}
	.st53{fill:url(#SVGID_00000061435889975299664110000002734057154299279751_);}
	.st54{fill:url(#SVGID_00000036213802591917946980000002979862262518882184_);}
	.st55{fill:url(#SVGID_00000037684463135732060870000015523821713786593695_);}
	.st56{fill:url(#SVGID_00000181081967572728837230000001687739977476964521_);}
	.st57{fill:url(#SVGID_00000096041650267492505220000011793672028881047464_);}
	.st58{fill:url(#SVGID_00000106867909344775693100000001948450635345313680_);}
	.st59{fill:url(#SVGID_00000101098097703730166500000006089322677239775671_);}
	.st60{fill:url(#SVGID_00000183927773576357101560000005829735621357116335_);}
	.st61{fill:url(#SVGID_00000065057054821507548160000015237986673781580198_);}
	.st62{fill:url(#SVGID_00000093863856530584140180000002592216939145728185_);}
	.st63{fill:url(#SVGID_00000085229792100935039790000006571389051931726731_);}
	.st64{fill:url(#SVGID_00000088823307362979702040000001976796658659360918_);}
	.st65{fill:url(#SVGID_00000174603586659501492840000013319059250024035211_);}
	.st66{fill:url(#SVGID_00000105415677441896149140000000974085818436235684_);}
	.st67{fill:url(#SVGID_00000072268327157736942150000004054313856099060894_);}
	.st68{fill:url(#SVGID_00000052805457087818053240000010608994666658281903_);}
	.st69{fill:url(#SVGID_00000154402084876659929690000004158481792628055472_);}
	.st70{fill-rule:evenodd;clip-rule:evenodd;fill:#FFFFFF;}
	.st71{fill:url(#SVGID_00000031899655381761358790000007824675580590931596_);}
	.st72{fill:url(#SVGID_00000096047545422679208810000003796424242930751141_);}
	.st73{fill:url(#SVGID_00000003072140268895744420000007810184013530636957_);}
	.st74{fill:url(#SVGID_00000011716412097766025740000008754471489294250936_);}
	.st75{fill:url(#SVGID_00000047047159417805874130000014207129744940853135_);}
	.st76{fill:url(#SVGID_00000180347093374530565820000005451455081204515223_);}
	.st77{fill:url(#SVGID_00000018943245735633674340000004641545786783352236_);}
	.st78{fill:url(#SVGID_00000078010242011171500600000014155624311084584605_);}
	.st79{fill:url(#SVGID_00000176745421295824082260000017046580944714695043_);}
	.st80{fill:url(#SVGID_00000068638759307403574110000012916035902692954017_);}
	.st81{fill:url(#SVGID_00000014626730822644638160000003800587420080026510_);}
	.st82{fill:url(#SVGID_00000123406829526861393510000017907441266455019656_);}
	.st83{fill:url(#SVGID_00000013896076322232594880000007939946257243473814_);}
	.st84{fill:url(#SVGID_00000124136088278723205440000006029963567765054627_);}
	.st85{fill:url(#SVGID_00000145753856877366818800000008254781919307573395_);}
	.st86{fill:url(#SVGID_00000145020602673938222990000007426083288881510320_);}
	.st87{fill:url(#SVGID_00000018203963600734951870000004813496626399647660_);}
	.st88{fill:url(#SVGID_00000128464195061513171060000017484932331105667249_);}
	.st89{fill:url(#SVGID_00000119118350401278539020000003756326835286588311_);}
	.st90{fill:url(#SVGID_00000159453929656381086560000017719158958344348309_);}
	.st91{fill:url(#SVGID_00000092434459087060689800000012188480755835613844_);}
	.st92{fill:url(#SVGID_00000084493360448494326240000006295244292071426691_);}
	.st93{fill:url(#SVGID_00000107555259138597678310000006535235548406380187_);}
	.st94{fill:url(#SVGID_00000043425007622691196890000012423731789656447407_);}
	.st95{fill:url(#SVGID_00000049194668658671122480000001545527099713172409_);}
	.st96{fill:url(#SVGID_00000057123666047878852150000013582279430326649260_);}
	.st97{fill:url(#SVGID_00000072972058750676556660000007133477040157930385_);}
	.st98{fill:url(#SVGID_00000026134266673959265990000015451315036938142137_);}
	.st99{fill:url(#SVGID_00000147220955693676367020000018079670165859320963_);}
	.st100{fill:#0F2166;}
	.st101{fill:#FD2537;}
</style>
<g>
	<g>
		<g>
			<g>
				<polygon id="polygon7_00000018951817930153199290000003973981871362858381_" class="st34" points="0,611.3 0,611.3 
					2247.7,611.3 2247.7,669.7 0,669.7 				"/>
				<polygon class="st31" points="0,738.5 0,738.5 2247.7,738.5 2247.7,796.9 0,796.9 				"/>
				<polygon class="st27" points="0,865.7 0,865.7 2247.7,865.7 2247.7,924 0,924 				"/>
				<polygon class="st22" points="0,992.8 0,992.8 2247.7,992.8 2247.7,1051.1 0,1051.1 				"/>
				<polygon id="polygon15_00000077287380264179007140000002698453562214206886_" class="st38" points="0,1119.9 0,1119.9 
					2247.7,1119.9 2247.7,1178.3 0,1178.3 				"/>
			</g>
		</g>
		<g>
			<path class="st35" d="M2918.7,773.2c0-8.3-0.8-19.9-8.3-25.7s-19.1-6.6-27.4-7.5c-43.2-4.2-88-4.2-132-4.2
				c-40.7,0-84.7,0-124.5,7.5c-9.1,1.7-17.4,4.1-24.9,10c-19.1,14.9-17.4,56.4-17.4,78v21.6v9.1c10-10,19.9-18.3,32.4-24.9
				c46.5-26.6,139.5-24.1,191.7-24.1c56.4,0,125.3,0.8,179.3,18.3c19.9,6.6,36.5,15.8,51.5,30.7c33.2,32.4,34,94.6,34,137.8
				c0,78.9-13.3,149.4-101.3,166.8c-34,6.6-68.9,9.1-102.9,10c-49.8,0.8-98.8,1.7-148.6,1.7c-69.7,0-199.9,4.2-253.1-44
				c-38.2-34-40.7-100.4-42.3-147.8c-0.8-36.5-1.7-73.9-1.7-110.4c0-66.4-7.5-174.3,47.3-221.5c52.3-45.7,230.7-43.2,296.2-43.2
				c36.5,0,73,0,109.6,1.7c50.6,1.7,136.1,4.1,174.3,43.2c26.6,27.4,25.7,81.3,25.7,117L2918.7,773.2L2918.7,773.2z M2870.6,942.6
				c-44.8-6.6-93-5-138.6-5c-33.2,0-67.2-1.7-100.4,3.3c-32.4,5-44.8,24.9-44.8,56.4c0,14.1,3.3,32.4,13.3,43.2
				c16.6,17.4,110.4,13.3,132,13.3c29.1,0,57.3-0.8,86.3-1.7c20.8-0.8,63.1,1.7,79.7-14.1c10-10,11.6-28.2,11.6-41.5
				C2909.6,965.7,2902.9,947.5,2870.6,942.6z"/>
			<path class="st35" d="M3731.9,1068.6v102.9h-160.2v-102.9h-441.5V857.1l328.6-239h273v326.1H3839v124.5L3731.9,1068.6
				L3731.9,1068.6z M3571.8,746.7h-34l-257.2,176v21.6h291.3L3571.8,746.7L3571.8,746.7z"/>
		</g>
		<g>
			<path id="path4595_00000089556121656661795300000000165099189710726290_" class="st35" d="M3383.3,158.1H3312v204.5h74.4V255.7
				c0-27.9,17.1-41.9,48.1-41.9s38.8,9.3,40.3,35.6h69.8c0-69.7-9.3-96.1-83.7-96.1c-45,0-60.5,9.3-77.5,43.4L3383.3,158.1
				L3383.3,158.1z M3725.8,322.3c-71.3,0-82.1-6.2-82.1-41.9H3839c-3.1-99.2-3.1-122.4-134.9-122.4c-111.6,0-136.5,20.1-136.5,108.5
				c0,82.2,32.6,102.3,122.5,103.9c100.8,0,148.8-4.7,148.8-71.3H3766C3763,314.6,3756.8,322.3,3725.8,322.3z M3642.2,237.1
				c3.1-21.7,9.3-29.5,58.9-29.5c54.3,0,62,3.1,65.1,29.5H3642.2z M871.1,244.8h74.4C939.3,175,919.1,158,815.3,158
				c-117.8,0-144.2,18.6-144.2,105.4s24.8,107,134.9,107c116.3,0,139.5-15.5,139.5-88.4h-74.4c0,20.2-7.7,29.5-65.1,29.5
				c-49.6,0-60.5-12.4-60.5-52.7c0-38.8,10.8-38.8,69.8-38.8C858.7,220,866.4,224.7,871.1,244.8z M2599.1,257.2
				c0-83.7-24.8-100.7-144.2-100.7c-128.7,0-144.1,21.7-144.1,108.5s21.7,105.4,144.1,105.4C2585.1,370.4,2599.1,348.7,2599.1,257.2
				z M2386.8,261.9c0-41.9,9.3-46.5,63.6-46.5c60.5,0,71.3,1.5,71.3,46.5c0,41.9-7.8,49.6-65.1,49.6
				C2394.5,311.5,2386.8,305.3,2386.8,261.9L2386.8,261.9z M3267,257.2c0-83.7-23.3-100.7-142.6-100.7
				c-127.1,0-142.6,20.1-142.6,107c0,88.4,21.7,107,142.6,107C3254.7,370.4,3267,348.7,3267,257.2z M3056.3,261.9
				c0-41.9,9.3-46.5,63.5-46.5c60.5,0,71.3,1.5,71.3,46.5c0,41.9-7.7,49.6-65.1,49.6C3064.1,311.5,3056.3,305.3,3056.3,261.9z
				 M1275.6,257.2c0-83.7-23.3-100.7-142.6-100.7c-128.7,0-144.2,20.1-144.2,107c0,88.4,21.7,107,144.2,107
				C1263.2,370.4,1275.6,348.7,1275.6,257.2z M1066.3,261.9c0-41.9,9.3-46.5,62-46.5c60.5,0,71.3,1.5,71.3,46.5
				c0,41.9-7.8,49.6-65.1,49.6C1074,311.5,1066.3,305.3,1066.3,261.9z M2858,71.3v119.4c-17-23.3-32.5-35.6-94.5-35.6
				c-99.2,0-117.8,26.4-117.8,107c0,82.2,26.4,105.4,122.5,105.4c60.5,0,79.1-15.5,93-41.8v37.2h74.4V71.3H2858L2858,71.3z
				 M2803.7,213.8c41.8,0,55.8,6.2,55.8,38.7c0,49.6-3.1,54.3-62,54.3s-74.4-1.6-74.4-43.4C2723.1,215.4,2741.7,213.8,2803.7,213.8z
				 M1393.3,158.1h-69.7v204.5h74.4V257.2c0-31,15.5-41.8,57.4-41.8c38.8,0,49.6,13.9,49.6,52.7v94.5h76V254.1
				c0-29.5,23.2-38.7,58.9-38.7c34.1,0,49.6,9.3,49.6,38.7v108.5h74.4V241.7c0-60.4-37.2-88.4-105.4-88.4c-58.9,0-80.6,21.7-88.4,45
				c-15.5-26.4-37.2-45-96.1-45c-55.8,0-71.3,18.6-80.6,52.7L1393.3,158.1L1393.3,158.1z M1893.9,158.1h-69.8v204.5h74.4V257.2
				c0-31,18.6-41.8,55.8-41.8c38.8,0,49.6,12.4,49.6,52.7v94.5h76V254.1c0-29.5,21.7-38.7,57.4-38.7c34.1,0,51.1,10.8,51.1,38.7
				v108.5h74.4V241.7c0-60.4-37.2-88.4-105.4-88.4c-58.9,0-79.1,20.1-88.4,45c-15.5-26.4-37.2-45-96.1-45c-54.2,0-68.2,18.6-79,52.7
				V158.1L1893.9,158.1z"/>
			<g>
				<path class="st35" d="M334.5,388.8c-20.4,11.4-43.8,18-68.8,18c-77.7,0-141-63.2-141-141s63.2-141,141-141
					c25,0,48.4,6.5,68.8,18V9c-21.9-5.9-45-9-68.8-9C119,0,0,119,0,265.8s119,265.8,265.8,265.8c23.8,0,46.8-3.2,68.8-9L334.5,388.8
					L334.5,388.8z"/>
				<g>
					<g>
						<rect x="334.5" y="149.8" class="st35" width="111.5" height="106.4"/>
						<polygon class="st35" points="566.3,149.8 459.9,256.1 410.9,256.1 410.9,149.8 						"/>
					</g>
					<g>
						<rect x="334.5" y="275.5" class="st36" width="111.5" height="106.4"/>
						<polygon class="st36" points="566.3,381.8 459.9,275.5 410.9,275.5 410.9,381.8 						"/>
					</g>
				</g>
			</g>
		</g>
	</g>
</g>
</svg>
