<?xml version="1.0" encoding="utf-8"?>
<!-- Generator: Adobe Illustrator 25.1.0, SVG Export Plug-In . SVG Version: 6.00 Build 0)  -->
<svg version="1.1" id="Layer_1" xmlns="http://www.w3.org/2000/svg" xmlns:xlink="http://www.w3.org/1999/xlink" x="0px" y="0px"
	 viewBox="0 0 3840 635.1" style="enable-background:new 0 0 3840 635.1;" xml:space="preserve">
<style type="text/css">
	.st0{fill:#E50300;}
	.st1{fill:#FFFFFF;}
</style>
<g>
	<rect x="1415.6" y="46.7" width="2377.8" height="541.7"/>
	<g>
		<g>
			<g>
				<rect x="2481.6" y="198.1" class="st1" width="82" height="244.7"/>
				<rect x="3493" y="282.8" class="st1" width="82" height="160.1"/>
				<rect x="3493" y="198.1" class="st1" width="82" height="48.9"/>
				<g>
					<path class="st1" d="M2043.6,293.9c-55.2,0-99.9,14.3-99.9,32c0,17.7,44.7,32,99.9,32s99.9-14.3,99.9-32
						C2143.6,308.3,2098.8,293.9,2043.6,293.9z M2043.6,350.7c-43.3,0-78.5-11.1-78.5-24.8s35.1-24.8,78.5-24.8s78.5,11.1,78.5,24.8
						S2086.9,350.7,2043.6,350.7z"/>
				</g>
				<path class="st1" d="M2349.6,357.4c-41.9,40.7-163,70.1-305.9,70.1c-177.7,0-321.7-45.5-321.7-101.5s144-101.5,321.7-101.5
					c142.9,0,264,29.4,305.9,70.1h92c-43.9-57.3-205.4-99.9-397.9-99.9c-226.3,0-409.8,58.8-409.8,131.2s183.5,131.2,409.8,131.2
					c192.5,0,354-42.5,397.9-99.9L2349.6,357.4L2349.6,357.4z"/>
				<path class="st1" d="M2761.9,198.1L2761.9,198.1h-208.6v27.7h208.6c177.7,0,321.7,42.4,321.7,94.6s-144,94.6-321.7,94.6h-208.6
					v27.7h208.6l0,0c226.3,0,409.8-54.8,409.8-122.4C3171.7,252.9,2988.2,198.1,2761.9,198.1z"/>
				<polygon class="st0" points="3217,285.8 3217,355.2 3423.2,320.5 				"/>
			</g>
			<path class="st1" d="M1368.9,0v635.1H3840V0H1368.9z M3793.3,588.4H1415.6V46.7h2377.7V588.4z"/>
		</g>
		<g>
			<path class="st1" d="M979.5,198c-27.8,0-84.1,0.3-84.2,0v244.9h68.5l0.4-61.2h30.6c65.3,0,99.5-31.5,99.5-91.8
				C1094.2,223.5,1051.4,198,979.5,198z M979.5,335.7h-15.3v-91.8c4.1-0.2,11.7,0,15.3,0c34.6,0,47.1,17.7,47.1,47.4
				C1026.5,322,1015.9,335.7,979.5,335.7z"/>
			<polygon class="st1" points="367.3,442.9 367.3,343.4 298.4,343.4 298.4,442.9 229.6,442.9 229.6,198 298.4,198 298.4,297.5 
				367.3,297.5 367.3,198 436.2,198 436.2,442.9 			"/>
			<polygon class="st1" points="489.7,442.9 489.7,198 550.9,198 558.6,198 558.6,442.9 			"/>
			<polygon class="st1" points="741.7,442.9 612.2,442.9 612.2,198 681,198 681,397 749.9,397 			"/>
			<rect x="772.9" y="198" class="st1" width="68.9" height="244.9"/>
			<path class="st1" d="M1186.1,259.2v7.7c0,37.6,114.8,20.3,114.8,99.5c0,59.4-40.9,76.5-99.5,76.5c-23,0-60.2-4.3-84.2-7.6v-53.6
				c21.1,10.9,61.1,15.3,84.2,15.3c25.9,0,30.6-8.1,30.6-23c0-42.2-114.8-24-114.8-107.1c0-48.2,47.2-68.9,103.8-68.9
				c40.1,0,46.3,3.7,64.6,7.7v45.9c-16.3-6.9-39.1-7.6-61.2-7.6C1204.2,243.9,1186.1,246.3,1186.1,259.2z"/>
			<path class="st1" d="M84.2,198C56.3,198,0,198.3,0,198v244.9h68.5l0.4-61.2h30.6c65.3,0,99.5-31.5,99.5-91.8
				C198.9,223.5,156.1,198,84.2,198z M84.2,335.7H68.9v-91.8c4.1-0.2,11.7,0,15.3,0c34.6,0,47.1,17.7,47.1,47.4
				C131.2,322,120.6,335.7,84.2,335.7z"/>
		</g>
	</g>
</g>
</svg>
