<?xml version="1.0" encoding="utf-8"?>
<!-- Generator: Adobe Illustrator 25.1.0, SVG Export Plug-In . SVG Version: 6.00 Build 0)  -->
<svg version="1.1" id="Layer_1" xmlns="http://www.w3.org/2000/svg" xmlns:xlink="http://www.w3.org/1999/xlink" x="0px" y="0px"
	 viewBox="0 0 3840 1134.2" style="enable-background:new 0 0 3840 1134.2;" xml:space="preserve">
<style type="text/css">
	.st0{fill:#D8D8D8;}
	.st1{fill:url(#SVGID_1_);}
	.st2{fill:#FFFFFF;}
	.st3{fill:url(#SVGID_2_);}
	.st4{fill:url(#SVGID_3_);}
	.st5{fill:#999999;}
	.st6{fill:url(#SVGID_4_);}
	.st7{fill:#666666;}
</style>
<g>
	<g>
		<linearGradient id="SVGID_1_" gradientUnits="userSpaceOnUse" x1="-9.094947e-13" y1="567.1044" x2="3840" y2="567.1044">
			<stop  offset="0" style="stop-color:#D81526"/>
			<stop  offset="0.25" style="stop-color:#DE551E"/>
			<stop  offset="0.5" style="stop-color:#EEB824"/>
			<stop  offset="0.75" style="stop-color:#75B230"/>
			<stop  offset="1" style="stop-color:#49A070"/>
		</linearGradient>
		<path class="st1" d="M785.1,544.8h409.3c86.4,0,156.5-70.1,156.5-156.5V156.9c0-86.4-70-156.4-156.4-156.5L785.3,0
			c-86.5-0.1-156.7,70-156.7,156.5v231.8C628.6,474.8,698.7,544.8,785.1,544.8z M787.3,195.5c0-33.5,27.2-60.7,60.7-60.7h283.6
			c33.5,0,60.7,27.2,60.7,60.7v151.3c0,33.5-27.2,60.7-60.7,60.7H848c-33.5,0-60.7-27.2-60.7-60.7V195.5z M3683.6,1.7l-409.3-0.4
			c-86.5-0.1-156.7,70-156.7,156.5v231.8c0,86.4,70.1,156.5,156.5,156.5h409.3c86.4,0,156.5-70.1,156.5-156.5V158.2
			C3840,71.9,3770,1.8,3683.6,1.7z M3681.3,348.2c0,33.5-27.2,60.7-60.7,60.7h-283.6c-33.5,0-60.7-27.2-60.7-60.7V196.9
			c0-33.5,27.2-60.7,60.7-60.7h283.6c33.5,0,60.7,27.2,60.7,60.7V348.2z M600.3,408.9H219.4c-33.5,0-60.7-27.2-60.7-60.7V196.9
			c0-33.5,27.2-60.7,60.7-60.7h380.9l0-134.6L156.7,1.3C70.2,1.2,0,71.3,0,157.8v231.8c0,86.4,70.1,156.5,156.5,156.5h443.8V408.9z
			 M2645.7,546.2h443.8V408.9h-380.9c-33.5,0-60.7-27.2-60.7-60.7V196.9c0-33.5,27.2-60.7,60.7-60.7h380.9l0-134.6l-443.6-0.2
			c-86.5-0.1-156.7,70-156.7,156.5v231.8C2489.2,476.1,2559.3,546.2,2645.7,546.2z M1535.5,545.1h297.3V407.9h-234.4
			c-33.5,0-60.7-27.2-60.7-60.7V1.9H1379v386.7C1379,475,1449.1,545.1,1535.5,545.1z M2017.4,546.2h443.7V408.9h-401.1
			c-22.4,0-40.6-18.2-40.6-40.6c0-22.4,18.2-40.6,40.6-40.6h363.2V219.7h-362c-23.1,0-41.8-18.7-41.8-41.8s18.7-41.8,41.8-41.8
			h399.9l0-134.6l-600.3-0.4v388.5C1860.8,476.1,1930.9,546.2,2017.4,546.2z M1062.3,1132.8h159.5v-542h-159.5V1132.8z M1949,1132.8
			h158.7v-542H1949V1132.8z M1751.4,794.3h-298.2c-18.9,0-34.3-15.3-34.3-34.3v0c0-18.9,15.3-34.3,34.3-34.3h439.4v-135H1419
			c-87.6,0-158.7,71-158.7,158.7v21.2c0,87.6,71,158.7,158.7,158.7h298.2c18.9,0,34.3,15.3,34.3,34.3s-15.3,34.3-34.3,34.3h-456.8
			v135h491.1c87.6,0,158.7-71,158.7-158.7v-21.2C1910.1,865.3,1839,794.3,1751.4,794.3z M2712.2,589.8l-409.3-0.4
			c-86.5-0.1-156.7,70-156.7,156.5v231.8c0,86.4,70.1,156.5,156.5,156.5h409.3c86.4,0,156.5-70.1,156.5-156.5V746.3
			C2868.6,659.9,2798.6,589.9,2712.2,589.8z M2709.9,936.2c0,33.5-27.2,60.7-60.7,60.7h-283.6c-33.5,0-60.7-27.2-60.7-60.7V784.9
			c0-33.5,27.2-60.7,60.7-60.7h283.6c33.5,0,60.7,27.2,60.7,60.7V936.2z M3473.1,589.8l-409.3-0.4c-1.2,0-2.4,0.1-3.5,0.2v-0.2
			h-153.1v543.4h158.7V784.9c0-33.5,27.2-60.7,60.7-60.7h283.6c33.5,0,60.7,27.2,60.7,60.7V1131l158.7,1.8V746.3
			C3629.5,659.9,3559.5,589.9,3473.1,589.8z M614.8,981.6L389.2,590.8H206l312.9,542h191.8l312.9-542H840.4L614.8,981.6z"/>
	</g>
</g>
</svg>
