<?xml version="1.0" encoding="utf-8"?>
<!-- Generator: Adobe Illustrator 25.2.3, SVG Export Plug-In . SVG Version: 6.00 Build 0)  -->
<svg version="1.1" id="Layer_1" xmlns="http://www.w3.org/2000/svg" xmlns:xlink="http://www.w3.org/1999/xlink" x="0px" y="0px"
	 viewBox="0 0 3839 773.36" style="enable-background:new 0 0 3839 773.36;" xml:space="preserve">
<style type="text/css">
	.st0{fill:none;stroke:#000000;stroke-width:54.1005;stroke-miterlimit:10;}
	.st1{fill:none;stroke:#000000;stroke-width:55.7397;stroke-miterlimit:10;}
	.st2{fill:#FFEF00;}
	.st3{fill:url(#SVGID_1_);}
	.st4{fill:#FFFFFF;}
	.st5{fill:url(#SVGID_2_);}
	.st6{fill:url(#SVGID_3_);}
	.st7{fill:url(#SVGID_4_);}
	.st8{fill:url(#SVGID_5_);}
	.st9{fill:url(#SVGID_6_);}
	.st10{fill:url(#SVGID_7_);}
	.st11{fill:url(#SVGID_8_);}
	.st12{fill:url(#SVGID_9_);}
	.st13{fill:url(#SVGID_10_);}
	.st14{fill:url(#SVGID_11_);}
	.st15{fill:url(#SVGID_12_);}
	.st16{fill:url(#SVGID_13_);}
	.st17{fill:url(#SVGID_14_);}
	.st18{fill:url(#SVGID_15_);}
	.st19{fill:url(#SVGID_16_);}
	.st20{fill:url(#SVGID_17_);}
	.st21{fill:url(#SVGID_18_);}
	.st22{fill:url(#SVGID_19_);}
	.st23{fill:url(#SVGID_20_);}
	.st24{fill:url(#SVGID_21_);}
</style>
<g>
	<g>
		<linearGradient id="SVGID_1_" gradientUnits="userSpaceOnUse" x1="342.707" y1="605.4673" x2="342.707" y2="158.4927">
			<stop  offset="0" style="stop-color:#7F5923"/>
			<stop  offset="0.1445" style="stop-color:#AD8237"/>
			<stop  offset="0.2786" style="stop-color:#DAB056"/>
			<stop  offset="0.4222" style="stop-color:#E8D97F"/>
			<stop  offset="0.5487" style="stop-color:#D2B664"/>
			<stop  offset="0.6888" style="stop-color:#C39346"/>
			<stop  offset="0.8446" style="stop-color:#D3B461"/>
			<stop  offset="1" style="stop-color:#E9DC81"/>
		</linearGradient>
		<path class="st3" d="M644.94,535.91V502.8c0-58.76-47.8-106.56-106.56-106.56h-46.27c-6.78,0-12.3-5.52-12.3-12.3
			c0-6.78,5.52-12.31,12.3-12.31h46.27c58.76,0,106.56-47.8,106.56-106.56s-47.8-106.56-106.56-106.56h-82.46
			c-58.76,0-106.57,47.8-106.57,106.56v270.85c0,8.73-7.1,15.84-15.84,15.84H226.72c-45.38,0-88.38-17.3-121.07-48.71
			c-32.73-31.45-51.17-73.41-51.91-118.14c-0.77-45.93,16.53-89.23,48.69-121.94c32.18-32.72,75.17-50.74,121.05-50.74h84.47v-53.72
			h-84.47c-60.4,0-116.99,23.72-159.35,66.79C21.79,268.34-0.98,325.35,0.03,385.79c0.99,59.15,25.28,114.54,68.4,155.98
			c42.74,41.08,98.96,63.7,158.29,63.7h106.79c38.35,0,69.56-31.2,69.56-69.56V265.06c0-29.14,23.71-52.84,52.84-52.84h82.46
			c29.14,0,52.84,23.71,52.84,52.84s-23.71,52.84-52.84,52.84h-46.27c-36.41,0-66.03,29.62-66.03,66.03
			c0,36.41,29.62,66.02,66.03,66.02h46.27c29.14,0,52.84,23.71,52.84,52.84v33.11c0,38.35,31.2,69.56,69.56,69.56h24.64v-53.72
			h-24.64C652.04,551.75,644.94,544.64,644.94,535.91z"/>
		<linearGradient id="SVGID_2_" gradientUnits="userSpaceOnUse" x1="342.7069" y1="158.4926" x2="342.7069" y2="605.4673">
			<stop  offset="0" style="stop-color:#7F5923"/>
			<stop  offset="0.1445" style="stop-color:#AD8237"/>
			<stop  offset="0.2786" style="stop-color:#DAB056"/>
			<stop  offset="0.4222" style="stop-color:#E8D97F"/>
			<stop  offset="0.5487" style="stop-color:#D2B664"/>
			<stop  offset="0.6888" style="stop-color:#C39346"/>
			<stop  offset="0.8446" style="stop-color:#D3B461"/>
			<stop  offset="1" style="stop-color:#E9DC81"/>
		</linearGradient>
		<path class="st5" d="M538.38,164.49c55.45,0,100.56,45.11,100.56,100.56s-45.11,100.56-100.56,100.56h-46.27
			c-10.09,0-18.3,8.21-18.3,18.31c0,10.09,8.21,18.3,18.3,18.3h46.27c55.45,0,100.56,45.11,100.56,100.56v33.11
			c0,12.04,9.8,21.84,21.84,21.84h18.64v41.72h-18.64c-35.05,0-63.56-28.51-63.56-63.56V502.8c0-32.45-26.4-58.84-58.84-58.84
			h-46.27c-33.1,0-60.03-26.93-60.03-60.02c0-33.1,26.93-60.03,60.03-60.03h46.27c32.45,0,58.84-26.4,58.84-58.84
			c0-32.45-26.4-58.84-58.84-58.84h-82.46c-32.45,0-58.84,26.4-58.84,58.84v270.85c0,35.05-28.51,63.56-63.56,63.56H226.72
			c-57.77,0-112.51-22.03-154.13-62.02c-41.96-40.32-65.6-94.22-66.56-151.76c-0.98-58.82,21.17-114.29,62.38-156.2
			c41.22-41.91,96.29-65,155.07-65h78.47v41.72h-78.47c-47.5,0-92.01,18.66-125.33,52.53c-33.3,33.87-51.21,78.7-50.42,126.25
			c0.77,46.34,19.86,89.8,53.75,122.37c33.81,32.49,78.28,50.39,125.22,50.39h106.79c12.04,0,21.84-9.8,21.84-21.84V265.06
			c0-55.45,45.11-100.56,100.57-100.56H538.38 M538.38,158.49h-82.46c-58.76,0-106.57,47.8-106.57,106.56v270.85
			c0,8.73-7.1,15.84-15.84,15.84H226.72c-45.38,0-88.38-17.3-121.07-48.71c-32.73-31.45-51.17-73.41-51.91-118.14
			c-0.77-45.93,16.53-89.23,48.69-121.94c32.18-32.72,75.17-50.74,121.05-50.74h84.47v-53.72h-84.47
			c-60.4,0-116.99,23.72-159.35,66.79C21.79,268.34-0.98,325.35,0.03,385.79c0.99,59.15,25.28,114.54,68.4,155.98
			c42.74,41.08,98.96,63.7,158.29,63.7h106.79c38.35,0,69.56-31.2,69.56-69.56V265.06c0-29.14,23.71-52.84,52.84-52.84h82.46
			c29.14,0,52.84,23.71,52.84,52.84s-23.71,52.84-52.84,52.84h-46.27c-36.41,0-66.03,29.62-66.03,66.03
			c0,36.41,29.62,66.02,66.03,66.02h46.27c29.14,0,52.84,23.71,52.84,52.84v33.11c0,38.35,31.2,69.56,69.56,69.56h24.64v-53.72
			h-24.64c-8.73,0-15.84-7.1-15.84-15.84V502.8c0-58.76-47.8-106.56-106.56-106.56h-46.27c-6.78,0-12.3-5.52-12.3-12.3
			c0-6.78,5.52-12.31,12.3-12.31h46.27c58.76,0,106.56-47.8,106.56-106.56S597.14,158.49,538.38,158.49L538.38,158.49z"/>
	</g>
	<g>
		<linearGradient id="SVGID_3_" gradientUnits="userSpaceOnUse" x1="1538.4581" y1="605.4673" x2="1538.4581" y2="158.4927">
			<stop  offset="0" style="stop-color:#7F5923"/>
			<stop  offset="0.1445" style="stop-color:#AD8237"/>
			<stop  offset="0.2786" style="stop-color:#DAB056"/>
			<stop  offset="0.4222" style="stop-color:#E8D97F"/>
			<stop  offset="0.5487" style="stop-color:#D2B664"/>
			<stop  offset="0.6888" style="stop-color:#C39346"/>
			<stop  offset="0.8446" style="stop-color:#D3B461"/>
			<stop  offset="1" style="stop-color:#E9DC81"/>
		</linearGradient>
		<path class="st6" d="M1548.82,228.05v311.39c0,6.78-5.52,12.3-12.3,12.3c-6.78,0-12.3-5.52-12.3-12.3V228.05
			c0-38.35-31.2-69.56-69.56-69.56h-112.82v53.72h112.82c8.73,0,15.84,7.1,15.84,15.84v311.39c0,36.41,29.62,66.03,66.03,66.03
			c36.41,0,66.03-29.62,66.03-66.03V228.05c0-8.73,7.1-15.84,15.84-15.84h116.71v-53.72h-116.71
			C1580.02,158.49,1548.82,189.7,1548.82,228.05z"/>
		<linearGradient id="SVGID_4_" gradientUnits="userSpaceOnUse" x1="1538.458" y1="158.4926" x2="1538.458" y2="605.4673">
			<stop  offset="0" style="stop-color:#7F5923"/>
			<stop  offset="0.1445" style="stop-color:#AD8237"/>
			<stop  offset="0.2786" style="stop-color:#DAB056"/>
			<stop  offset="0.4222" style="stop-color:#E8D97F"/>
			<stop  offset="0.5487" style="stop-color:#D2B664"/>
			<stop  offset="0.6888" style="stop-color:#C39346"/>
			<stop  offset="0.8446" style="stop-color:#D3B461"/>
			<stop  offset="1" style="stop-color:#E9DC81"/>
		</linearGradient>
		<path class="st7" d="M1729.08,164.49v41.72h-110.71c-12.04,0-21.84,9.8-21.84,21.84v311.39c0,33.1-26.93,60.03-60.03,60.03
			c-33.1,0-60.03-26.93-60.03-60.03V228.05c0-12.04-9.8-21.84-21.84-21.84h-106.82v-41.72h106.82c35.05,0,63.56,28.51,63.56,63.56
			v311.39c0,10.09,8.21,18.3,18.3,18.3c10.09,0,18.3-8.21,18.3-18.3V228.05c0-35.05,28.51-63.56,63.56-63.56H1729.08
			 M1735.08,158.49h-116.71c-38.35,0-69.56,31.2-69.56,69.56v311.39c0,6.78-5.52,12.3-12.3,12.3c-6.78,0-12.3-5.52-12.3-12.3V228.05
			c0-38.35-31.2-69.56-69.56-69.56h-112.82v53.72h112.82c8.73,0,15.84,7.1,15.84,15.84v311.39c0,36.41,29.62,66.03,66.03,66.03
			c36.41,0,66.03-29.62,66.03-66.03V228.05c0-8.73,7.1-15.84,15.84-15.84h116.71V158.49L1735.08,158.49z"/>
	</g>
	<g>
		<linearGradient id="SVGID_5_" gradientUnits="userSpaceOnUse" x1="2900.1873" y1="605.4683" x2="2900.1873" y2="158.4937">
			<stop  offset="0" style="stop-color:#7F5923"/>
			<stop  offset="0.1445" style="stop-color:#AD8237"/>
			<stop  offset="0.2786" style="stop-color:#DAB056"/>
			<stop  offset="0.4222" style="stop-color:#E8D97F"/>
			<stop  offset="0.5487" style="stop-color:#D2B664"/>
			<stop  offset="0.6888" style="stop-color:#C39346"/>
			<stop  offset="0.8446" style="stop-color:#D3B461"/>
			<stop  offset="1" style="stop-color:#E9DC81"/>
		</linearGradient>
		<rect x="2873.33" y="158.49" class="st8" width="53.72" height="446.97"/>
		<linearGradient id="SVGID_6_" gradientUnits="userSpaceOnUse" x1="2900.1875" y1="158.4936" x2="2900.1875" y2="605.4683">
			<stop  offset="0" style="stop-color:#7F5923"/>
			<stop  offset="0.1445" style="stop-color:#AD8237"/>
			<stop  offset="0.2786" style="stop-color:#DAB056"/>
			<stop  offset="0.4222" style="stop-color:#E8D97F"/>
			<stop  offset="0.5487" style="stop-color:#D2B664"/>
			<stop  offset="0.6888" style="stop-color:#C39346"/>
			<stop  offset="0.8446" style="stop-color:#D3B461"/>
			<stop  offset="1" style="stop-color:#E9DC81"/>
		</linearGradient>
		<path class="st9" d="M2921.05,164.49v434.97h-41.72V164.49H2921.05 M2927.05,158.49h-53.72v446.97h53.72V158.49L2927.05,158.49z"
			/>
	</g>
	<g>
		<linearGradient id="SVGID_7_" gradientUnits="userSpaceOnUse" x1="1802.0776" y1="605.4683" x2="1802.0776" y2="158.4937">
			<stop  offset="0" style="stop-color:#7F5923"/>
			<stop  offset="0.1445" style="stop-color:#AD8237"/>
			<stop  offset="0.2786" style="stop-color:#DAB056"/>
			<stop  offset="0.4222" style="stop-color:#E8D97F"/>
			<stop  offset="0.5487" style="stop-color:#D2B664"/>
			<stop  offset="0.6888" style="stop-color:#C39346"/>
			<stop  offset="0.8446" style="stop-color:#D3B461"/>
			<stop  offset="1" style="stop-color:#E9DC81"/>
		</linearGradient>
		<rect x="1775.22" y="158.49" class="st10" width="53.72" height="446.97"/>
		<linearGradient id="SVGID_8_" gradientUnits="userSpaceOnUse" x1="1802.0776" y1="158.4936" x2="1802.0776" y2="605.4683">
			<stop  offset="0" style="stop-color:#7F5923"/>
			<stop  offset="0.1445" style="stop-color:#AD8237"/>
			<stop  offset="0.2786" style="stop-color:#DAB056"/>
			<stop  offset="0.4222" style="stop-color:#E8D97F"/>
			<stop  offset="0.5487" style="stop-color:#D2B664"/>
			<stop  offset="0.6888" style="stop-color:#C39346"/>
			<stop  offset="0.8446" style="stop-color:#D3B461"/>
			<stop  offset="1" style="stop-color:#E9DC81"/>
		</linearGradient>
		<path class="st11" d="M1822.94,164.49v434.97h-41.72V164.49H1822.94 M1828.94,158.49h-53.72v446.97h53.72V158.49L1828.94,158.49z"
			/>
	</g>
	<g>
		<linearGradient id="SVGID_9_" gradientUnits="userSpaceOnUse" x1="2463.646" y1="605.4683" x2="2463.646" y2="158.4937">
			<stop  offset="0" style="stop-color:#7F5923"/>
			<stop  offset="0.1445" style="stop-color:#AD8237"/>
			<stop  offset="0.2786" style="stop-color:#DAB056"/>
			<stop  offset="0.4222" style="stop-color:#E8D97F"/>
			<stop  offset="0.5487" style="stop-color:#D2B664"/>
			<stop  offset="0.6888" style="stop-color:#C39346"/>
			<stop  offset="0.8446" style="stop-color:#D3B461"/>
			<stop  offset="1" style="stop-color:#E9DC81"/>
		</linearGradient>
		<rect x="2436.79" y="158.49" class="st12" width="53.72" height="446.97"/>
		<linearGradient id="SVGID_10_" gradientUnits="userSpaceOnUse" x1="2463.646" y1="158.4936" x2="2463.646" y2="605.4683">
			<stop  offset="0" style="stop-color:#7F5923"/>
			<stop  offset="0.1445" style="stop-color:#AD8237"/>
			<stop  offset="0.2786" style="stop-color:#DAB056"/>
			<stop  offset="0.4222" style="stop-color:#E8D97F"/>
			<stop  offset="0.5487" style="stop-color:#D2B664"/>
			<stop  offset="0.6888" style="stop-color:#C39346"/>
			<stop  offset="0.8446" style="stop-color:#D3B461"/>
			<stop  offset="1" style="stop-color:#E9DC81"/>
		</linearGradient>
		<path class="st13" d="M2484.51,164.49v434.97h-41.72V164.49H2484.51 M2490.51,158.49h-53.72v446.97h53.72V158.49L2490.51,158.49z"
			/>
	</g>
	<g>
		<linearGradient id="SVGID_11_" gradientUnits="userSpaceOnUse" x1="1073.8647" y1="605.4673" x2="1073.8647" y2="154.0095">
			<stop  offset="0" style="stop-color:#7F5923"/>
			<stop  offset="0.1445" style="stop-color:#AD8237"/>
			<stop  offset="0.2786" style="stop-color:#DAB056"/>
			<stop  offset="0.4222" style="stop-color:#E8D97F"/>
			<stop  offset="0.5487" style="stop-color:#D2B664"/>
			<stop  offset="0.6888" style="stop-color:#C39346"/>
			<stop  offset="0.8446" style="stop-color:#D3B461"/>
			<stop  offset="1" style="stop-color:#E9DC81"/>
		</linearGradient>
		<path class="st14" d="M1386.16,541.25l-17.89-49.97c-10.06-28.08-36.85-46.95-66.68-46.95h-104.74c-6.78,0-12.3-5.52-12.3-12.3
			c0-6.78,5.52-12.3,12.3-12.3h51.91c21.48,0,41.69-10.48,54.05-28.05s15.43-40.12,8.19-60.34l-45.34-126.65
			c-11.02-30.78-39.27-50.67-71.97-50.67c-32.7,0-60.95,19.89-71.97,50.67l-121.06,338.09c-1.92,5.37-7.04,8.97-12.74,8.97H815.96
			c-29.14,0-52.85-23.71-52.85-52.85v-36.71c0-6.75,5.49-12.24,12.23-12.24h127.48c36.37,0,65.96-29.59,65.96-65.96v-0.14
			c0-36.37-29.59-65.96-65.96-65.96H775.35c-6.75,0-12.23-5.49-12.23-12.24v-40.6c0-29.14,23.71-52.85,52.85-52.85h152.86v-53.72
			H815.96c-58.76,0-106.57,47.81-106.57,106.57v40.6c0,36.37,29.59,65.96,65.96,65.96h127.48c6.75,0,12.23,5.49,12.23,12.24V384
			c0,6.75-5.49,12.23-12.23,12.23H775.35c-36.37,0-65.96,29.59-65.96,65.96v36.71c0,58.76,47.81,106.57,106.57,106.57h171.96
			c28.33,0,53.77-17.92,63.32-44.58l121.06-338.09c5-13.97,17.64-15.06,21.39-15.06c3.75,0,16.39,1.09,21.39,15.06l45.34,126.64
			c1.89,5.26-0.15,9.34-1.53,11.31c-1.38,1.96-4.53,5.26-10.13,5.26h-51.91c-36.41,0-66.03,29.62-66.03,66.02
			c0,36.41,29.62,66.03,66.03,66.03h104.74c7.2,0,13.67,4.56,16.1,11.34l17.89,49.97c9.87,27.58,36.19,46.11,65.49,46.11h37.27
			v-53.72h-37.27C1394.4,551.75,1388.41,547.53,1386.16,541.25z"/>
		<linearGradient id="SVGID_12_" gradientUnits="userSpaceOnUse" x1="1073.8646" y1="154.0095" x2="1073.8646" y2="605.4673">
			<stop  offset="0" style="stop-color:#7F5923"/>
			<stop  offset="0.1445" style="stop-color:#AD8237"/>
			<stop  offset="0.2786" style="stop-color:#DAB056"/>
			<stop  offset="0.4222" style="stop-color:#E8D97F"/>
			<stop  offset="0.5487" style="stop-color:#D2B664"/>
			<stop  offset="0.6888" style="stop-color:#C39346"/>
			<stop  offset="0.8446" style="stop-color:#D3B461"/>
			<stop  offset="1" style="stop-color:#E9DC81"/>
		</linearGradient>
		<path class="st15" d="M1193.69,160.01c30.13,0,56.16,18.33,66.32,46.7l45.34,126.64c6.58,18.39,3.8,38.9-7.44,54.87
			c-11.24,15.97-29.62,25.5-49.15,25.5h-51.91c-10.09,0-18.3,8.21-18.3,18.3c0,10.09,8.21,18.3,18.3,18.3h104.74
			c27.3,0,51.83,17.27,61.03,42.97l17.89,49.97c3.1,8.66,11.36,14.48,20.56,14.48h31.27v41.72h-31.27
			c-26.77,0-50.81-16.93-59.84-42.13l-17.89-49.97c-3.28-9.16-12.02-15.32-21.75-15.32h-104.74c-33.1,0-60.03-26.93-60.03-60.03
			c0-33.1,26.93-60.02,60.03-60.02h51.91c6.06,0,11.54-2.84,15.03-7.8c3.49-4.96,4.32-11.07,2.28-16.78l-45.34-126.64
			c-5.03-14.04-17.26-19.04-27.04-19.04c-9.78,0-22.01,5-27.04,19.04l-121.06,338.09c-8.7,24.29-31.87,40.61-57.67,40.61H815.96
			c-55.46,0-100.57-45.12-100.57-100.57v-36.71c0-33.06,26.9-59.96,59.96-59.96h127.48c10.05,0,18.23-8.18,18.23-18.23v-0.14
			c0-10.05-8.18-18.24-18.23-18.24H775.35c-33.06,0-59.96-26.9-59.96-59.96v-40.6c0-55.45,45.12-100.57,100.57-100.57h146.86v41.72
			H815.96c-32.45,0-58.85,26.4-58.85,58.85v40.6c0,10.05,8.18,18.24,18.23,18.24h127.48c33.06,0,59.96,26.9,59.96,59.96V384
			c0,33.06-26.9,59.96-59.96,59.96H775.35c-10.05,0-18.23,8.18-18.23,18.24v36.71c0,32.45,26.4,58.85,58.85,58.85h171.96
			c8.23,0,15.62-5.2,18.39-12.95l121.06-338.09C1137.53,178.34,1163.56,160.01,1193.69,160.01 M1193.69,154.01
			c-32.7,0-60.95,19.89-71.97,50.67l-121.06,338.09c-1.92,5.37-7.04,8.97-12.74,8.97H815.96c-29.14,0-52.85-23.71-52.85-52.85
			v-36.71c0-6.75,5.49-12.24,12.23-12.24h127.48c36.37,0,65.96-29.59,65.96-65.96v-0.14c0-36.37-29.59-65.96-65.96-65.96H775.35
			c-6.75,0-12.23-5.49-12.23-12.24v-40.6c0-29.14,23.71-52.85,52.85-52.85h152.86v-53.72H815.96
			c-58.76,0-106.57,47.81-106.57,106.57v40.6c0,36.37,29.59,65.96,65.96,65.96h127.48c6.75,0,12.23,5.49,12.23,12.24V384
			c0,6.75-5.49,12.23-12.23,12.23H775.35c-36.37,0-65.96,29.59-65.96,65.96v36.71c0,58.76,47.81,106.57,106.57,106.57h171.96
			c28.33,0,53.77-17.92,63.32-44.58l121.06-338.09c5-13.97,17.64-15.06,21.39-15.06c3.75,0,16.39,1.09,21.39,15.06l45.34,126.64
			c1.89,5.26-0.15,9.34-1.53,11.31c-1.38,1.96-4.53,5.26-10.13,5.26h-51.91c-36.41,0-66.03,29.62-66.03,66.02
			c0,36.41,29.62,66.03,66.03,66.03h104.74c7.2,0,13.67,4.56,16.1,11.34l17.89,49.97c9.87,27.58,36.19,46.11,65.49,46.11h37.27
			v-53.72h-37.27c-6.67,0-12.66-4.22-14.91-10.5l-17.89-49.97c-10.06-28.08-36.85-46.95-66.68-46.95h-104.74
			c-6.78,0-12.3-5.52-12.3-12.3c0-6.78,5.52-12.3,12.3-12.3h51.91c21.48,0,41.69-10.48,54.05-28.05s15.43-40.12,8.19-60.34
			l-45.34-126.65C1254.63,173.9,1226.39,154.01,1193.69,154.01L1193.69,154.01z"/>
	</g>
	<g>
		<linearGradient id="SVGID_13_" gradientUnits="userSpaceOnUse" x1="2126.9641" y1="773.3594" x2="2126.9641" y2="0">
			<stop  offset="0" style="stop-color:#7F5923"/>
			<stop  offset="0.1445" style="stop-color:#AD8237"/>
			<stop  offset="0.2786" style="stop-color:#DAB056"/>
			<stop  offset="0.4222" style="stop-color:#E8D97F"/>
			<stop  offset="0.5487" style="stop-color:#D2B664"/>
			<stop  offset="0.6888" style="stop-color:#C39346"/>
			<stop  offset="0.8446" style="stop-color:#D3B461"/>
			<stop  offset="1" style="stop-color:#E9DC81"/>
		</linearGradient>
		<path class="st16" d="M2447.16,0h-35.53c-15.09,0-29.46,4.76-41.55,13.78c-12.1,9.01-20.78,21.42-25.09,35.87L2149.97,702.5
			c-4.75,15.9-18.81,17.14-23.01,17.14c-4.2,0-18.26-1.24-23.01-17.14L1908.95,49.65c-4.32-14.46-13-26.86-25.09-35.87
			C1871.76,4.76,1857.39,0,1842.3,0h-35.53v53.72h35.53c6.95,0,13.19,4.65,15.17,11.3l195.01,652.85
			c5.16,17.27,15.42,31.65,29.68,41.59c13.05,9.09,28.54,13.9,44.8,13.9c16.25,0,31.75-4.81,44.8-13.9
			c14.26-9.93,24.52-24.31,29.68-41.59l195.01-652.85c1.99-6.66,8.23-11.3,15.17-11.3h35.53V0z"/>
		<linearGradient id="SVGID_14_" gradientUnits="userSpaceOnUse" x1="2126.9641" y1="-2.781403e-05" x2="2126.9641" y2="773.3594">
			<stop  offset="0" style="stop-color:#7F5923"/>
			<stop  offset="0.1445" style="stop-color:#AD8237"/>
			<stop  offset="0.2786" style="stop-color:#DAB056"/>
			<stop  offset="0.4222" style="stop-color:#E8D97F"/>
			<stop  offset="0.5487" style="stop-color:#D2B664"/>
			<stop  offset="0.6888" style="stop-color:#C39346"/>
			<stop  offset="0.8446" style="stop-color:#D3B461"/>
			<stop  offset="1" style="stop-color:#E9DC81"/>
		</linearGradient>
		<path class="st17" d="M2441.16,6v41.72h-29.53c-9.58,0-18.18,6.41-20.92,15.59L2195.7,716.16c-4.77,15.96-14.23,29.23-27.36,38.38
			c-12.04,8.39-26.34,12.82-41.37,12.82c-15.02,0-29.32-4.43-41.36-12.82c-13.14-9.15-22.6-22.42-27.36-38.38L1863.22,63.31
			c-2.74-9.18-11.34-15.59-20.92-15.59h-29.53V6h29.53c13.79,0,26.92,4.35,37.97,12.59c11.05,8.24,18.98,19.57,22.93,32.78
			l195.01,652.85c4.72,15.79,17.95,21.42,28.76,21.42c10.81,0,24.04-5.63,28.75-21.42l195.01-652.85
			c3.95-13.21,11.87-24.54,22.93-32.78C2384.71,10.35,2397.84,6,2411.63,6H2441.16 M2447.16,0h-35.53
			c-15.09,0-29.46,4.76-41.55,13.78c-12.1,9.01-20.78,21.42-25.09,35.87L2149.97,702.5c-4.75,15.9-18.81,17.14-23.01,17.14
			c-4.2,0-18.26-1.24-23.01-17.14L1908.95,49.65c-4.32-14.46-13-26.86-25.09-35.87C1871.76,4.76,1857.39,0,1842.3,0h-35.53v53.72
			h35.53c6.95,0,13.19,4.65,15.17,11.3l195.01,652.85c5.16,17.27,15.42,31.65,29.68,41.59c13.05,9.09,28.54,13.9,44.79,13.9
			c0,0,0,0,0.01,0c16.25,0,31.75-4.81,44.8-13.9c14.26-9.93,24.52-24.31,29.68-41.59l195.01-652.85c1.99-6.66,8.23-11.3,15.17-11.3
			h35.53V0L2447.16,0z"/>
	</g>
	<g>
		<linearGradient id="SVGID_15_" gradientUnits="userSpaceOnUse" x1="2681.9148" y1="605.4673" x2="2681.9148" y2="158.4917">
			<stop  offset="0" style="stop-color:#7F5923"/>
			<stop  offset="0.1445" style="stop-color:#AD8237"/>
			<stop  offset="0.2786" style="stop-color:#DAB056"/>
			<stop  offset="0.4222" style="stop-color:#E8D97F"/>
			<stop  offset="0.5487" style="stop-color:#D2B664"/>
			<stop  offset="0.6888" style="stop-color:#C39346"/>
			<stop  offset="0.8446" style="stop-color:#D3B461"/>
			<stop  offset="1" style="stop-color:#E9DC81"/>
		</linearGradient>
		<path class="st18" d="M2705.22,355.12h-46.6c-39.4,0-71.45-32.05-71.45-71.45s32.05-71.45,71.45-71.45l165.31,0v-53.72l-165.31,0
			c-69.02,0-125.17,56.15-125.17,125.17s56.15,125.17,125.17,125.17h46.6c39.4,0,71.45,32.05,71.45,71.45s-32.05,71.45-71.45,71.45
			h-165.88v53.72h165.88c69.02,0,125.17-56.15,125.17-125.17S2774.24,355.12,2705.22,355.12z"/>
		<linearGradient id="SVGID_16_" gradientUnits="userSpaceOnUse" x1="2681.9148" y1="158.4917" x2="2681.9148" y2="605.4673">
			<stop  offset="0" style="stop-color:#7F5923"/>
			<stop  offset="0.1445" style="stop-color:#AD8237"/>
			<stop  offset="0.2786" style="stop-color:#DAB056"/>
			<stop  offset="0.4222" style="stop-color:#E8D97F"/>
			<stop  offset="0.5487" style="stop-color:#D2B664"/>
			<stop  offset="0.6888" style="stop-color:#C39346"/>
			<stop  offset="0.8446" style="stop-color:#D3B461"/>
			<stop  offset="1" style="stop-color:#E9DC81"/>
		</linearGradient>
		<path class="st19" d="M2817.92,164.49v41.72l-159.31,0c-42.71,0-77.45,34.75-77.45,77.45s34.75,77.45,77.45,77.45h46.6
			c65.71,0,119.17,53.46,119.17,119.17c0,65.71-53.46,119.17-119.17,119.17h-159.88v-41.72h159.88c42.71,0,77.45-34.75,77.45-77.45
			c0-42.71-34.75-77.45-77.45-77.45h-46.6c-65.71,0-119.17-53.46-119.17-119.17s53.46-119.17,119.17-119.17L2817.92,164.49
			 M2823.92,158.49l-165.31,0c-69.02,0-125.17,56.15-125.17,125.17s56.15,125.17,125.17,125.17h46.6c39.4,0,71.45,32.05,71.45,71.45
			s-32.05,71.45-71.45,71.45h-165.88v53.72h165.88c69.02,0,125.17-56.15,125.17-125.17s-56.15-125.17-125.17-125.17h-46.6
			c-39.4,0-71.45-32.05-71.45-71.45s32.05-71.45,71.45-71.45l165.31,0V158.49L2823.92,158.49z"/>
	</g>
	<g>
		<linearGradient id="SVGID_17_" gradientUnits="userSpaceOnUse" x1="3192.9294" y1="612.5947" x2="3192.9294" y2="152.0759">
			<stop  offset="0" style="stop-color:#7F5923"/>
			<stop  offset="0.1445" style="stop-color:#AD8237"/>
			<stop  offset="0.2786" style="stop-color:#DAB056"/>
			<stop  offset="0.4222" style="stop-color:#E8D97F"/>
			<stop  offset="0.5487" style="stop-color:#D2B664"/>
			<stop  offset="0.6888" style="stop-color:#C39346"/>
			<stop  offset="0.8446" style="stop-color:#D3B461"/>
			<stop  offset="1" style="stop-color:#E9DC81"/>
		</linearGradient>
		<path class="st20" d="M3355.75,219.52c-43.49-43.49-101.31-67.44-162.82-67.44s-119.33,23.95-162.82,67.44
			c-43.49,43.49-67.44,101.31-67.44,162.82s23.95,119.33,67.44,162.82c43.49,43.49,101.31,67.44,162.82,67.44
			s119.33-23.95,162.82-67.44c43.49-43.49,67.44-101.31,67.44-162.82S3399.24,263.01,3355.75,219.52z M3192.93,557.24
			c-96.45,0-174.91-78.46-174.91-174.91c0-96.45,78.46-174.91,174.91-174.91c96.45,0,174.91,78.46,174.91,174.91
			C3367.84,478.78,3289.37,557.24,3192.93,557.24z"/>
		<linearGradient id="SVGID_18_" gradientUnits="userSpaceOnUse" x1="3192.9294" y1="152.0759" x2="3192.9294" y2="612.5947">
			<stop  offset="0" style="stop-color:#7F5923"/>
			<stop  offset="0.1445" style="stop-color:#AD8237"/>
			<stop  offset="0.2786" style="stop-color:#DAB056"/>
			<stop  offset="0.4222" style="stop-color:#E8D97F"/>
			<stop  offset="0.5487" style="stop-color:#D2B664"/>
			<stop  offset="0.6888" style="stop-color:#C39346"/>
			<stop  offset="0.8446" style="stop-color:#D3B461"/>
			<stop  offset="1" style="stop-color:#E9DC81"/>
		</linearGradient>
		<path class="st21" d="M3192.93,158.08c59.9,0,116.22,23.33,158.57,65.68c42.36,42.36,65.68,98.67,65.68,158.57
			c0,59.9-23.33,116.22-65.68,158.58c-42.36,42.36-98.67,65.68-158.57,65.68c-59.9,0-116.22-23.33-158.58-65.68
			c-42.36-42.36-65.68-98.67-65.68-158.57c0-59.9,23.33-116.22,65.68-158.58C3076.71,181.4,3133.03,158.08,3192.93,158.08
			 M3192.93,563.24c99.75,0,180.91-81.16,180.91-180.91c0-99.75-81.16-180.91-180.91-180.91c-99.75,0-180.91,81.16-180.91,180.91
			C3012.02,482.09,3093.18,563.24,3192.93,563.24 M3192.93,152.08c-61.51,0-119.33,23.95-162.82,67.44
			c-43.49,43.49-67.44,101.31-67.44,162.82s23.95,119.33,67.44,162.82c43.49,43.49,101.31,67.44,162.82,67.44
			s119.33-23.95,162.82-67.44c43.49-43.49,67.44-101.31,67.44-162.82s-23.95-119.33-67.44-162.82
			C3312.26,176.03,3254.43,152.08,3192.93,152.08L3192.93,152.08z M3192.93,557.24c-96.45,0-174.91-78.46-174.91-174.91
			c0-96.45,78.46-174.91,174.91-174.91c96.45,0,174.91,78.46,174.91,174.91C3367.84,478.78,3289.37,557.24,3192.93,557.24
			L3192.93,557.24z"/>
	</g>
	<g>
		<linearGradient id="SVGID_19_" gradientUnits="userSpaceOnUse" x1="3630.1184" y1="605.4673" x2="3630.1184" y2="145.5534">
			<stop  offset="0" style="stop-color:#7F5923"/>
			<stop  offset="0.1445" style="stop-color:#AD8237"/>
			<stop  offset="0.2786" style="stop-color:#DAB056"/>
			<stop  offset="0.4222" style="stop-color:#E8D97F"/>
			<stop  offset="0.5487" style="stop-color:#D2B664"/>
			<stop  offset="0.6888" style="stop-color:#C39346"/>
			<stop  offset="0.8446" style="stop-color:#D3B461"/>
			<stop  offset="1" style="stop-color:#E9DC81"/>
		</linearGradient>
		<path class="st22" d="M3814.36,158.49c-38.35,0-69.56,31.2-69.56,69.56v308.81c0,8.21-6.68,14.88-14.88,14.88
			c-6.27,0-11.9-3.97-14.01-9.87L3589.68,189.3c-11.01-30.74-41.15-48.31-73.33-42.72c-32.17,5.58-54.63,32.29-54.63,64.94l0,324.39
			c0,8.73-7.1,15.84-15.84,15.84h-24.64v53.72h24.64c38.35,0,69.56-31.2,69.56-69.56l0-324.39c0-8.92,6.33-11.35,10.1-12.01
			c3.77-0.66,10.55-0.5,13.56,7.9l126.24,352.58c9.74,27.2,35.7,45.48,64.59,45.48c37.83,0,68.6-30.78,68.6-68.6V228.05
			c0-8.73,7.1-15.84,15.84-15.84H3839v-53.72H3814.36z"/>
		<linearGradient id="SVGID_20_" gradientUnits="userSpaceOnUse" x1="3630.1184" y1="145.5534" x2="3630.1184" y2="605.4673">
			<stop  offset="0" style="stop-color:#7F5923"/>
			<stop  offset="0.1445" style="stop-color:#AD8237"/>
			<stop  offset="0.2786" style="stop-color:#DAB056"/>
			<stop  offset="0.4222" style="stop-color:#E8D97F"/>
			<stop  offset="0.5487" style="stop-color:#D2B664"/>
			<stop  offset="0.6888" style="stop-color:#C39346"/>
			<stop  offset="0.8446" style="stop-color:#D3B461"/>
			<stop  offset="1" style="stop-color:#E9DC81"/>
		</linearGradient>
		<path class="st23" d="M3528.19,151.55c25.27,0,47.18,15.61,55.83,39.77l126.24,352.58c2.97,8.28,10.87,13.84,19.66,13.84
			c11.51,0,20.88-9.37,20.88-20.88V228.05c0-35.05,28.51-63.56,63.56-63.56H3833v41.72h-18.64c-12.04,0-21.84,9.8-21.84,21.84
			v308.81c0,34.52-28.08,62.6-62.6,62.6c-26.37,0-50.05-16.68-58.94-41.5l-126.24-352.58c-2.76-7.7-8.78-12.11-16.53-12.11
			c-1.21,0-2.46,0.11-3.7,0.33c-9.44,1.64-15.08,8.34-15.08,17.92l0,324.39c0,35.05-28.51,63.56-63.56,63.56h-18.64v-41.72h18.64
			c12.04,0,21.84-9.8,21.84-21.84l0-324.39c0-29.68,20.42-53.95,49.66-59.02C3520.97,151.87,3524.61,151.55,3528.19,151.55
			 M3528.19,145.55c-3.9,0-7.85,0.34-11.84,1.03c-32.17,5.58-54.63,32.29-54.63,64.94l0,324.39c0,8.73-7.1,15.84-15.84,15.84h-24.64
			v53.72h24.64c38.35,0,69.56-31.2,69.56-69.56l0-324.39c0-8.92,6.33-11.35,10.1-12.01c0.78-0.14,1.69-0.24,2.67-0.24
			c3.75,0,8.5,1.48,10.88,8.14l126.24,352.58c9.74,27.2,35.7,45.48,64.59,45.48c37.83,0,68.6-30.78,68.6-68.6V228.05
			c0-8.73,7.1-15.84,15.84-15.84H3839v-53.72h-24.64c-38.35,0-69.56,31.2-69.56,69.56v308.81c0,8.21-6.68,14.88-14.88,14.88
			c-6.27,0-11.9-3.97-14.01-9.87L3589.68,189.3C3580.04,162.38,3555.71,145.55,3528.19,145.55L3528.19,145.55z"/>
	</g>
</g>
</svg>
