<?xml version="1.0" encoding="utf-8"?>
<!-- Generator: Adobe Illustrator 25.4.1, SVG Export Plug-In . SVG Version: 6.00 Build 0)  -->
<svg version="1.1" id="Layer_1" xmlns="http://www.w3.org/2000/svg" xmlns:xlink="http://www.w3.org/1999/xlink" x="0px" y="0px"
	 viewBox="0 0 3839 1761.7" style="enable-background:new 0 0 3839 1761.7;" xml:space="preserve">
<style type="text/css">
	.st0{fill:#828283;}
	.st1{fill:#FFFFFF;}
	.st2{fill:#FBBE02;}
	.st3{fill:#8D2877;}
	.st4{fill:#BC2223;}
</style>
<g>
	<g>
		<g>
			<g>
				<polygon class="st0" points="23.8,1717.6 23.8,1361.9 477.5,1251.7 23.8,1141.5 23.8,785.8 824.8,785.8 824.8,1026.2 
					341.7,1026.2 824.8,1156.9 824.8,1346.2 341.7,1477.1 824.8,1477.1 824.8,1717.6 				"/>
				<path class="st1" d="M819.8,790.8v230.4H312.4v2.2l507.4,137.3v181.7l-507.4,137.4v2.2h507.4v230.5H28.7v-346.8l465.3-113v-2.2
					L28.7,1137.5V790.8H819.8 M829.7,780.8h-9.9H28.7h-9.9v9.9v346.8v7.8l7.6,1.8l430,104.5l-430,104.4l-7.6,1.8v7.8v346.8v9.9h9.9
					h791.1h9.9v-9.9v-230.5v-9.9h-9.9H379.1L822.4,1352l7.3-2v-7.6v-181.7v-7.6l-7.3-2l-443.3-120h440.7h9.9v-9.9V790.8V780.8
					L829.7,780.8z"/>
			</g>
			<g>
				<path class="st0" d="M549,514.4h5c18.5,0,35.9-2.9,50.3-8.5c36.1-13.4,54.4-51,54.4-111.7c0-22.5-4.8-95.9-67-95.9
					c-37.2,0-47.7,31.9-86.1,167c-1.3,4.5-2.6,9-3.8,13.6c-17.4,61.6-35.3,125.3-68.6,174.4c-38.3,56.4-91.2,83.8-161.7,83.8
					c-44.7,0-85.1-9.3-120.3-27.5c-32.5-16.9-60.5-41.5-83.1-73C27.4,579.6,5,500.2,5,412.9c0-45.1,4.5-86.9,13.4-124.3
					C28,248,42.9,212.5,62.6,183.2C107.4,116.4,176.5,80.9,268,77.8l5.1-0.2V319l-5.7-0.9c-3.6-0.5-7.1-0.8-10.5-0.8
					c-19.8,0-35.4,9-47.8,27.5l-0.1,0.2c-12.1,16.8-19.1,42-19.1,69.1c0,19.3,3.5,82.4,48,82.5c40.7-3.4,57.6-73.7,77.2-154.9
					c5.6-23,11.3-46.8,17.9-70.8c13.3-48,33.6-109.1,72.3-155.2c18.9-22.5,41.2-39.9,66.1-51.6c27.5-13,59.4-19.5,94.7-19.5
					c50,0,94.4,11.1,132,33c34.2,19.9,63,48.9,85.8,86.1c20.4,33.4,35.9,73.4,46,118.9c9.1,41,13.7,85.6,13.7,132.5
					c0,27.5-3.5,123.8-48.2,209.1c-22.4,42.7-51.9,76.4-87.7,100.3c-42.5,28.3-94.2,43-153.8,43.5l-5,0L549,514.4z"/>
				<path class="st1" d="M566.2,49.5c206.1,0,272.6,189.5,272.6,365.6c0,89.7-32.1,345.7-284.7,347.9L554,519.3
					c20,0,37.7-3.3,52.1-8.9c47.6-17.7,57.6-70.9,57.6-116.4c0-39.9-13.3-100.8-72-100.8c-41,0-52.1,34.3-90.9,170.7
					c-35.5,125.2-69.8,268.1-229.3,268.1C88.6,732.1,9.9,575.8,9.9,412.9c0-171.8,65.3-323.5,258.2-330.2v230.4
					c-3.9-0.6-7.7-0.9-11.3-0.9c-23.8,0-40.3,12.3-51.9,29.7c-14.4,20-20,47.6-20,72c0,33.2,8.9,87.5,53.2,87.5
					c56.5-4.5,68.7-117.5,99.8-229.3C369,160.3,421,49.5,566.2,49.5 M566.2,39.6c-36,0-68.6,6.7-96.8,20
					c-25.6,12-48.4,29.8-67.8,52.9c-17,20.2-31.5,44.3-44.5,73.7c-10.4,23.5-19.8,50.8-28.8,83.3c-6.7,24-12.4,47.9-18,70.9
					c-19.1,79.2-35.6,147.7-72.6,151.1c-39.8-0.4-42.9-59.4-42.9-77.6c0-26.1,6.6-50.2,18.1-66.2l0.1-0.1l0.1-0.2
					c11.3-17,25.6-25.3,43.6-25.3c3.1,0,6.4,0.3,9.8,0.8l11.4,1.7v-11.5V82.7V72.4l-10.3,0.4c-47.9,1.7-90.3,12.2-126.1,31.4
					c-33.3,17.9-61.4,43.5-83.3,76.2c-20.1,29.9-35.2,65.9-45,107.1C4.5,325.2,0,367.4,0,412.9c0,42.7,5.2,83.5,15.5,121.2
					c10.9,40.1,27.2,75.5,48.5,105.2c23,32.2,51.6,57.3,84.8,74.6c35.8,18.6,77.1,28.1,122.6,28.1c72.3,0,126.5-28.1,165.8-86
					c33.8-49.8,51.8-113.8,69.3-175.8c1.3-4.5,2.6-9.1,3.8-13.6c19.2-67.4,31.7-110.1,44-134.7c12-24.1,22.4-28.7,37.4-28.7
					c57.6,0,62.1,69.6,62.1,90.9c0,58.4-17.2,94.4-51.1,107l-0.1,0l-0.1,0c-13.9,5.4-30.6,8.2-48.5,8.2h-10l0,10l0.1,243.7l0,10
					l10-0.1c60.5-0.5,113.2-15.4,156.5-44.3c36.5-24.3,66.5-58.7,89.3-102.1c18-34.3,31.3-73.9,39.6-117.6c8-41.9,9.1-76.7,9.1-93.8
					c0-47.3-4.7-92.3-13.9-133.6c-10.2-46-25.9-86.6-46.6-120.4c-23.2-37.9-52.6-67.5-87.5-87.8C662.3,50.9,617.1,39.6,566.2,39.6
					L566.2,39.6z"/>
			</g>
		</g>
		<g>
			<g>
				<path class="st2" d="M3137.5,1756.6c-112.3,0-217.4-16.4-312.2-48.7c-101-34.4-185.3-85.3-250.5-151.2
					c-48.7-49.2-86.1-106.6-111.2-170.5c-26.8-68-39.8-144-38.9-226.1l0.1-4.9h363.8v5c0,189.4,135.7,302.4,362.9,302.4
					c74.8,0,318.7-14.6,318.7-202.3c0-84.5-56.3-142.2-182.7-187.3l-3.9-1.4l0.7-4.1c6.2-38.5,10.3-78.1,12.4-117.5l0.3-6.3
					c0.1-2.1,0.2-4.2,0.2-6.3c0.1-2.1,0.1-4.2,0.2-6.3c0.2-3.9,0.3-7.9,0.4-11.7l0-0.1c0-3.1,0.1-6.4,0.2-9.5
					c0.1-4.6,0.2-9.2,0.2-14.1c0-2.4,0-4.7,0.1-7.2v-0.9c0-7.5-0.1-15-0.2-22.2c0-1.3-0.1-2.5-0.1-3.8c0-1.2,0-2.4-0.1-3.6l0-0.2
					c-0.1-4.7-0.2-9.5-0.4-14.2c-0.1-1.6-0.1-3.2-0.2-4.7c-0.1-1.6-0.2-3.2-0.2-4.9l-0.6-11.8l-0.6-10.9c-0.1-2-0.2-3.9-0.4-6
					c-0.1-1.1-0.2-2.2-0.2-3.3c-1.3-17.7-2.7-34-4.6-49.8l0-0.3v-0.1c0-0.2-0.1-0.5-0.1-0.9c-0.7-5.7-1.4-11.5-2.2-17.3l-0.3-2.2
					l-0.1-0.7c-0.3-2.3-0.5-4.7-0.9-6.9l-1.2-7.5l7.3,1.9c14.3,3.8,29,7.5,43.2,11.1c4.4,1.1,9.2,2.3,14.3,3.5
					c65.5,16.1,187.6,46,291.4,117.2c127.2,87.2,191.7,211.2,191.7,368.5c0,77.1-15.1,149.1-45,214.1
					c-30.2,65.8-75,123.2-133.2,170.8c-59.9,49-133.3,86.9-218.3,112.7C3348.9,1743,3247.9,1756.6,3137.5,1756.6z"/>
				<path class="st1" d="M3292.1,722.9c14,3.7,28.4,7.4,43.3,11.1c121.1,30.2,493.7,107.1,493.7,484.3
					c0,305-239.9,533.3-691.6,533.3c-368,0-712.6-181.6-707.9-591.4h354c0,221.3,172.3,307.4,367.9,307.4
					c128.1,0,323.7-37.3,323.7-207.3c0-99.3-76.4-152.9-186-191.9c6.2-38.6,10.3-78,12.4-118.1c0.1-2.1,0.2-4.3,0.3-6.4
					c0.2-4.2,0.3-8.4,0.5-12.6c0.2-4,0.3-8,0.4-11.9c0-3.1,0.1-6.3,0.2-9.4c0.2-7,0.2-14,0.3-21.4c0-0.3,0-0.7,0-1
					c0-7.5-0.1-14.9-0.2-22.4c-0.1-2.5-0.1-5-0.2-7.5c-0.1-4.8-0.2-9.6-0.4-14.4c-0.1-3.2-0.3-6.4-0.4-9.5c-0.2-4-0.4-8-0.6-11.9
					c-0.2-3.6-0.4-7.3-0.6-10.8c-0.1-3.2-0.4-6.3-0.6-9.4c-1.2-16.8-2.7-33.5-4.6-50c0-0.3-0.1-0.7-0.1-1.1
					c-0.7-5.9-1.4-11.7-2.2-17.6c-0.1-0.7-0.2-1.4-0.3-2.1C3292.8,728.2,3292.5,725.5,3292.1,722.9 M3280,709.5l2.3,15
					c0.3,2.2,0.6,4.5,0.9,6.8l0.1,0.7l0,0.1l0,0.1l0.2,1.2l0.1,0.8c0.8,5.7,1.5,11.4,2.1,17.1c0,0.3,0,0.6,0.1,0.8v0.1l0.1,0.6
					c1.8,15.7,3.3,31.9,4.5,49.5c0.1,1.1,0.2,2.2,0.2,3.3c0.1,2,0.3,3.9,0.3,5.8l0,0.1l0,0.1l0.3,5.3l0.3,5.5l0.2,4.6l0.4,7.2
					c0.1,1.6,0.1,3.3,0.2,4.8c0.1,1.6,0.1,3.1,0.2,4.6l0,0.1l0,0.1c0.2,4.6,0.3,9.4,0.4,14l0,0.2l0,0.1l0,0.1c0,1.1,0.1,2.3,0.1,3.5
					c0,1.2,0,2.5,0.1,3.8c0.1,7.3,0.2,14.8,0.2,22.1v0.9c0,2.4-0.1,4.8-0.1,7.1c0,4.9-0.1,9.4-0.2,14c-0.1,3.1-0.2,6.4-0.2,9.6
					c-0.1,3.8-0.2,7.8-0.4,11.6c-0.1,2.2-0.2,4.3-0.3,6.4c-0.1,2.2-0.1,4.2-0.2,6.3l-0.2,3.3l-0.1,3.1c-2,39.2-6.2,78.6-12.3,117
					l-1.3,8.2l7.8,2.8c124.1,44.2,179.4,100.5,179.4,182.6c0,183.1-240.2,197.3-313.8,197.3c-107.6,0-357.9-29-357.9-297.5v-9.9
					h-9.9h-354h-9.8l-0.1,9.8c-0.9,82.7,12.3,159.4,39.3,228c25.4,64.5,63.2,122.4,112.3,172.1c33.3,33.7,72.1,63.9,115.4,89.7
					c41.5,24.8,87.6,45.9,137.1,62.7c47.8,16.3,99,28.7,152.4,36.9c52.1,8,106.4,12.1,161.5,12.1c110.9,0,212.4-13.7,301.5-40.9
					c85.6-26,159.6-64.3,220-113.6c58.8-48.1,104.1-106.1,134.6-172.6c30.2-65.6,45.4-138.3,45.4-216.2
					c0-159-65.2-284.4-193.9-372.6c-45.3-31.1-99.4-57.9-160.8-79.7c-51.7-18.4-98.3-29.8-132.3-38.1c-5.1-1.2-9.9-2.4-14.3-3.5
					c-14.2-3.6-28.9-7.4-43.2-11.1L3280,709.5L3280,709.5z"/>
			</g>
			<g>
				<path class="st3" d="M2423.3,1756.7c-133.7,0-256.8-25.8-365.9-76.5l-8.9-4.1l8.6-4.7c75.4-41.5,141.5-96,196.5-161.8
					c20.4-24.4,39.7-51,57.5-79.1l1.9-3l3.4,0.8c33.6,7.4,69.6,11.2,107,11.2c0.4,0,0.8,0,1.2,0c0.6,0,1.2-0.1,1.7-0.1h3.1l1.4,2.8
					c26.8,56.2,62.6,107.2,106.4,151.6c44.2,44.7,96.7,83.3,155.8,114.7l10.6,5.6l-11.4,3.5
					C2608.5,1743.6,2518,1756.7,2423.3,1756.7z"/>
				<path class="st1" d="M2315.3,1433c33.2,7.4,69.2,11.3,108.1,11.3c1,0,2-0.1,3-0.1c27,56.6,62.9,107.9,107.3,153
					c44.7,45.2,97.2,83.8,157,115.6c-81.3,25.3-170.6,39-267.4,39c-136.8,0-258.7-27.2-363.8-76.1c75.7-41.7,142.1-96.2,197.9-163
					C2278.3,1487.7,2297.6,1461.1,2315.3,1433 M2310.6,1421.8l-3.7,5.9c-17.6,27.9-36.9,54.4-57.1,78.6
					c-54.6,65.4-120.2,119.5-195.1,160.7l-17.2,9.5l17.8,8.3c109.8,51.1,233.6,77,368,77c95.2,0,186.2-13.3,270.4-39.4l22.8-7.1
					l-21.1-11.2c-58.7-31.1-110.7-69.4-154.6-113.8c-43.4-44-78.9-94.5-105.4-150.2l-2.7-5.7h-6.3c-0.7,0-1.4,0-2,0.1
					c-0.4,0-0.7,0-1,0c-37.1,0-72.7-3.7-106-11.1L2310.6,1421.8L2310.6,1421.8z"/>
			</g>
			<g>
				<path class="st4" d="M919.7,1717.2V44.7h722.1c100.8,0,195.3,14.8,280.9,43.9l9.4,3.2l-8.2,5.6c-53.2,36.4-102,79.6-145.3,128.3
					c-38.2,43-72.5,91.1-102,143.1l-1.7,3l-3.4-0.6c-37-6.2-77.5-9.3-120.5-9.3h-255.8v1037.9h321c256.4,0,409.5-184.4,409.5-493.4
					v-17.1c0-71.3,8.6-139.6,25.6-202.9c16.6-62,40.4-116.1,70.6-160.8c42.2-62.4,98.1-106,166.1-129.6l4-1.4l2,3.7
					c71.2,129.3,107.2,288.5,107.2,473.2c0,248-65,456.9-188,604.3c-64.4,77.2-144.3,136.8-237.4,177.4c-97.5,42.5-209.9,64-334,64
					H919.7z"/>
				<path class="st1" d="M1641.9,49.6c99.8,0,193.7,14.5,279.3,43.7c-53.3,36.5-102.2,79.6-146.2,129.1
					c-38.9,43.8-73.1,91.9-102.6,143.9c-37-6.2-77.3-9.3-121.3-9.3h-260.8v1047.8h326c211.9,0,414.5-130.5,414.5-498.4
					c0-4.7,0-16.1,0-17.1c0-144.1,36-273.2,95.4-360.9c41.8-61.8,96.5-104.4,163.6-127.7c68.1,123.8,106.6,280.6,106.6,470.8
					c0,482-246.8,840.6-754.5,840.7H924.7V49.6H1641.9 M1641.9,39.7H924.7h-9.9v9.9v1662.6v9.9h9.9h717.2
					c124.8,0,237.9-21.7,336-64.4c93.8-40.8,174.3-101,239.2-178.7c123.8-148.2,189.2-358.3,189.2-607.4
					c0-185.5-36.3-345.5-107.8-475.6l-4-7.4l-7.9,2.7c-69,23.9-125.7,68.2-168.6,131.5c-30.6,45.1-54.5,99.7-71.3,162.3
					c-17.1,63.8-25.8,132.5-25.8,204.2v17.1c0,440.8-282.9,488.4-404.6,488.4h-316.1V366.9H1551c42.7,0,83,3.1,119.7,9.2l6.9,1.1
					l3.4-6c29.3-51.6,63.4-99.5,101.4-142.2c43-48.4,91.6-91.3,144.4-127.5l16.4-11.2l-18.8-6.4
					C1838.3,54.5,1743.2,39.7,1641.9,39.7L1641.9,39.7z"/>
			</g>
			<g>
				<path class="st3" d="M1703,1334.5c-33.3-65-58.8-136-76-210.9c-17.2-75.2-25.9-154.6-25.9-235.9c0-123.5,18.7-240.2,55.6-347.1
					c37-107,91.2-201.3,161.3-280.3c71.9-81,158.9-144.1,258.6-187.3C2180.8,27.9,2297.5,5,2423.4,5c97.5,0,190.2,13.9,275.6,41.3
					l10.7,3.4l-9.7,5.6c-16.7,9.7-33.4,20.3-49.5,31.6c-88.3,62.3-151.4,140.8-187.5,233.2l-1.3,3.4l-3.6-0.2
					c-12-0.7-23.3-1.1-34.6-1.1c-376.8,0-437,357.9-445.4,511.8l0,0.1l0,0.1c-3.1,30.4-4.7,55.4-4.7,72.2
					c0,154.9-37.5,271.6-111.3,346.9c-40.9,41.6-92.5,69.8-153.5,83.8l-3.8,0.9L1703,1334.5z"/>
				<path class="st1" d="M2423.4,9.9c99.5,0,191,14.4,274.1,41.1c-17.2,9.9-33.8,20.6-49.8,31.8c-89.3,63.1-153.1,142.8-189.3,235.5
					c-11.4-0.7-23-1.1-34.9-1.1c-308,0-435.6,245.8-450.3,516.5c-2.9,28.2-4.8,54.5-4.8,72.7c0,153.6-37,269.1-109.9,343.4
					c-45.7,46.5-100.1,70.7-151.1,82.4c-66.3-129.6-101.3-281.5-101.3-444.5C1606.1,394.1,1908.8,9.9,2423.4,9.9 M2423.4,0
					c-126.6,0-243.9,23.1-348.8,68.6c-100.3,43.5-187.9,107-260.3,188.6c-70.5,79.5-125.1,174.3-162.3,282
					c-37.1,107.4-55.9,224.7-55.9,348.7c0,81.7,8.8,161.4,26,237c17.2,75.3,42.9,146.6,76.4,212l3.5,6.9l7.6-1.7
					c61.9-14.2,114.4-42.9,155.9-85.2c74.8-76.2,112.7-194.1,112.7-350.4c0-16.6,1.6-41.4,4.7-71.7l0-0.2l0-0.2
					c8.3-152.5,67.8-507.1,440.4-507.1c11.2,0,22.4,0.4,34.3,1.1l7.2,0.4l2.6-6.8c35.7-91.5,98.2-169.2,185.7-231
					c15.9-11.2,32.5-21.7,49.1-31.3l19.4-11.2l-21.4-6.9C2614.6,14,2521.4,0,2423.4,0L2423.4,0z"/>
			</g>
			<g>
				<path class="st2" d="M2808.4,936.8c-103-39.5-178.7-87.6-231.5-147.2c-31-34.9-54.7-74.8-70.6-118.5
					c-17.2-47.1-25.9-100.3-25.9-158.3c0-158,69.3-290.5,200.3-383c57.8-40.8,125.4-72.4,201.2-93.9c72.2-20.6,148-31,225.3-31
					c89.9,0,174.6,10,251.6,29.8c82.3,21.1,154.3,53,214.3,94.8c64.6,45.1,114.8,101.6,149.2,167.9c37,71.6,55.8,155,55.8,248.2v5
					h-363.6l-0.3-4.7c-5.4-92.4-38.3-156.8-100.7-197c-52.1-33.5-124.9-49.9-222.6-49.9c-3.9,0-7.6,0-11.3,0c-3.4,0-6.7,0-10,0
					c-24.6,0-46.3,0.8-83.5,10.5l-0.2,0l-0.2,0c-6.7,1.3-12.9,3.1-19,5.3c-37.7,14.1-72.2,36.9-97.1,64.3
					c-65.5,71.8-81.4,176.4-74.4,250.4c1,11.3,2.4,23.9,3.9,37.1c0.5,4.4,1,8.9,1.5,13.4l0,0.3c7.5,67.8,17.8,160.7,14.5,251.8
					l-0.3,7L2808.4,936.8z"/>
				<path class="st1" d="M3107.1,9.9c346.9,0,665.9,151.4,665.9,535.8h-354c-11.6-200.3-153.7-251.5-328.3-251.5
					c-7.6,0-14.5-0.1-21.2-0.1c-25.8,0-47.8,1-84.8,10.7c-6.7,1.3-13.2,3.1-19.8,5.6c-37.3,13.9-72.6,36.6-99.1,65.6
					c-66.6,73.1-82.7,179.2-75.7,254.2c1.4,15.1,3.4,32.3,5.4,50.6c7.6,68.2,17.8,160.5,14.5,251.3
					c-179-68.6-324.8-180.6-324.8-419.3C2485.3,173,2806.7,9.9,3107.1,9.9 M3107.1,0c-38.1,0-76.6,2.6-114.3,7.8
					c-38.3,5.2-76.1,13.1-112.3,23.4c-76.3,21.7-144.4,53.5-202.7,94.7c-62.9,44.4-112.1,98.3-146.3,160.3
					c-37.3,67.5-56.1,143.8-56.1,226.8c0,58.5,8.8,112.3,26.2,160c16.1,44.2,40.2,84.6,71.6,120c28.8,32.5,63.3,60.9,105.5,86.9
					c36.9,22.7,78.7,42.8,127.9,61.7l13,5l0.5-13.9c3.3-91.4-7-184.5-14.5-252.5l0-0.3c-0.5-4.5-1-9-1.5-13.4
					c-1.5-13.3-2.8-25.8-3.9-37.1c-6.9-72.9,8.7-176,73.1-246.6c24.5-26.9,58.3-49.2,95.2-63c5.8-2.2,11.8-3.9,18.2-5.1l0.3-0.1
					l0.3-0.1c36.6-9.6,58-10.4,82.2-10.4c3.2,0,6.5,0,9.9,0c3.6,0,7.4,0,11.3,0c96.7,0,168.6,16,219.9,49.1
					c61,39.3,93.2,102.4,98.5,193.1l0.5,9.4h9.4h354h9.9v-9.9c0-93.9-19-178.2-56.4-250.4c-34.7-67.1-85.4-124.2-150.8-169.7
					c-60.4-42.1-133-74.3-215.9-95.6C3282.5,10.1,3197.4,0,3107.1,0L3107.1,0z"/>
			</g>
		</g>
	</g>
	<g>
		<path class="st3" d="M3098.1,1407.9c-111.9-12.2-185-49.7-223.6-114.5c-33.7-56.7-35.1-124.7-33.7-184.1l0-0.6l0.2-0.6
			c7.2-25,13.1-51.3,17.6-78.3c14.4-86,15.3-180,2.8-271.9l0-0.2c-2.7-30.2-5.9-58.6-8.6-83.7c-2-17.8-3.8-34.6-5.2-49.2
			c-1.8-18.8-3.2-57.1,7.2-102.1c10.1-43.6,28.2-80,53.8-108.1c38.7-42.5,93-64.1,161.3-64.1c8.3,0,17,0.3,25.8,1h2.5l1.6,2.3
			c27.2,41.9,51.1,87.7,71.1,136.1c28.9,70.7,49.8,147,62.2,226.8c12.3,79.3,15.9,160.2,10.7,240.5
			c-10.9,168.3-59.7,323.4-140.9,448.6l-1.7,2.6L3098.1,1407.9z"/>
		<path class="st1" d="M3069.8,355.6c8.2,0,16.8,0.3,25.6,1c0.1,0,0.1,0,0.1,0c27.6,42.7,51.2,88.2,70.7,135.3
			c115.9,283.4,100.1,652.8-67.5,911.2c-246.3-27-255.6-174-252.8-293.5c7.4-25.7,13.2-52,17.7-78.9c14.9-89.2,15-184,2.8-273.4
			c-4.7-52-10.5-98.2-13.8-132.9C2844.4,538.2,2872.8,355.6,3069.8,355.6 M3069.8,345.6l0,9.9L3069.8,345.6
			c-69.8,0-125.3,22.1-164.9,65.7c-26.2,28.7-44.6,65.9-54.9,110.4c-10.5,45.6-9.1,84.5-7.3,103.6c1.4,14.6,3.2,31.4,5.2,49.3
			c2.8,25,5.9,53.4,8.6,83.6l0,0.2l0,0.2c12.5,91.4,11.6,184.9-2.7,270.4c-4.5,26.8-10.3,53-17.5,77.8l-0.4,1.2l0,1.3
			c-1.4,60,0,128.9,34.4,186.7c18.5,31,45.3,56.4,79.8,75.3c38.5,21.1,88.1,35.1,147.5,41.6l6.1,0.7l3.3-5.1
			c41.4-63.8,74.6-135.8,98.7-214c23.1-75.1,37.6-154.8,42.9-237c5.2-80.6,1.6-161.9-10.8-241.6c-12.5-80.2-33.5-156.8-62.5-227.9
			c-20.2-48.7-44.3-94.7-71.6-136.9l-2.9-4.5h-5.1C3086.9,345.9,3078.2,345.6,3069.8,345.6L3069.8,345.6z"/>
	</g>
</g>
</svg>
