<?xml version="1.0" encoding="utf-8"?>
<!-- Generator: Adobe Illustrator 25.0.0, SVG Export Plug-In . SVG Version: 6.00 Build 0)  -->
<svg version="1.1" id="Layer_1" xmlns="http://www.w3.org/2000/svg" xmlns:xlink="http://www.w3.org/1999/xlink" x="0px" y="0px"
	 viewBox="0 0 3840 479.3" style="enable-background:new 0 0 3840 479.3;" xml:space="preserve">
<style type="text/css">
	.st0{fill:#EC2224;}
	.st1{fill:#FFFFFF;}
	.st2{fill:url(#SVGID_1_);}
	.st3{fill:url(#SVGID_2_);}
	.st4{fill:url(#SVGID_3_);}
	.st5{fill:url(#SVGID_4_);}
	.st6{fill:url(#SVGID_5_);}
	.st7{fill:url(#SVGID_6_);}
	.st8{fill:url(#SVGID_7_);}
	.st9{fill:url(#SVGID_8_);}
	.st10{fill:url(#SVGID_9_);}
	.st11{fill:url(#SVGID_10_);}
	.st12{fill:url(#SVGID_11_);}
	.st13{fill:url(#SVGID_12_);}
	.st14{fill:url(#SVGID_13_);}
	.st15{fill:url(#SVGID_14_);}
	.st16{fill:url(#SVGID_15_);}
	.st17{fill:url(#SVGID_16_);}
	.st18{fill:url(#SVGID_17_);}
	.st19{fill:url(#SVGID_18_);}
	.st20{fill:url(#SVGID_19_);}
	.st21{fill:url(#SVGID_20_);}
	.st22{fill:url(#SVGID_21_);}
	.st23{fill:url(#SVGID_22_);}
	.st24{fill:url(#SVGID_23_);}
	.st25{fill:url(#SVGID_24_);}
	.st26{fill:url(#SVGID_25_);}
	.st27{fill:url(#SVGID_26_);}
	.st28{fill:url(#SVGID_27_);}
	.st29{fill:url(#SVGID_28_);}
	.st30{fill:url(#SVGID_29_);}
	.st31{fill:url(#SVGID_30_);}
	.st32{fill:url(#SVGID_31_);}
	.st33{fill:url(#SVGID_32_);}
	.st34{fill:url(#SVGID_33_);}
	.st35{fill:url(#SVGID_34_);}
	.st36{fill:url(#SVGID_35_);}
	.st37{fill:url(#SVGID_36_);}
	.st38{fill:url(#SVGID_37_);}
	.st39{fill:url(#SVGID_38_);}
</style>
<g>
	<g>
		<polygon class="st0" points="325.6,328.2 293.9,383.1 276.9,383.1 308.6,328.2 		"/>
		<path class="st0" d="M390.6,215.7l73.9-128c7.6-13.2,21.7-21.4,37-21.4h156.9l8.5-14.8H559.3l-57.5,0c-20.7,0-40,11.1-50.3,29
			L423.6,129l-0.8,1.5l-49.2,85.3H390.6z"/>
		<g>
			<path class="st0" d="M691.5,8.9l-132.3,0l0,0h-57.5c-36,0-69.3,19.2-87.3,50.4l-27.9,48.3l-0.8,1.5l-61.5,106.6h38.3l80.7-139.8
				C455.2,55,477.7,42,501.8,42h170.6L691.5,8.9z"/>
			<path class="st0" d="M478.1,149.6h132.3l42.5-73.6H501.4c-11.8,0-22.8,6.3-28.7,16.6l-71.1,123.2h38.3L478.1,149.6z"/>
			<polygon class="st0" points="374.9,328.2 343.2,383.1 304.9,383.1 336.7,328.2 			"/>
			<polygon class="st0" points="259.3,328.2 227.5,383.1 265.8,383.1 297.5,328.2 			"/>
		</g>
		<path class="st0" d="M97.4,149.6h90.4l-12.3,21.3C136.7,238,185.2,322,262.8,322h0l379.5,0l-35.3,61.1h38.3l25.7-44.5
			c5.9-10.3,5.9-22.9,0-33.1c-5.9-10.3-16.9-16.6-28.7-16.6H262.8c-24.5,0-46.4-12.6-58.6-33.8c-12.2-21.2-12.2-46.5,0-67.7
			l12.3-21.3c5.9-10.3,5.9-22.9,0-33.1c-5.9-10.3-16.9-16.6-28.7-16.6H78.3L97.4,149.6z"/>
		<path class="st0" d="M58.7,82.5h128c24.5,0,46.4,12.6,58.6,33.8c12.2,21.2,12.2,46.5,0,67.7L233,205.3c-5.9,10.3-5.9,22.9,0,33.1
			c5.9,10.3,16.9,16.6,28.7,16.6l379.5,0c24.5,0,46.4,12.6,58.6,33.8c10.8,18.7,12.1,40.6,3.8,60l-19.8,34.3h38.9l5.8-10.1
			c38.8-67.2-9.7-151.2-87.3-151.2l-205,0H320.6l-58.9,0l12.3-21.3c38.8-67.2-9.7-151.2-87.3-151.2h-1l-22,22l-22-22H39.6L58.7,82.5
			z"/>
		<g>
			<polygon class="st0" points="148,43.2 163.8,27.4 179.6,43.2 196.3,43.2 163.8,10.7 131.3,43.2 			"/>
		</g>
		<path class="st0" d="M50.5,116.5L0,98.1l29.3-18.4l7.2,12.5h150.3c21,0,39.8,10.9,50.3,29c10.5,18.2,10.5,39.9,0,58.1l-12.3,21.3
			c-7.6,13.2-7.6,29.5,0,42.7c7.6,13.2,21.7,21.4,37,21.4l379.5,0c21,0,39.8,10.9,50.3,29s10.5,39.9,0,58.1l-18.1,31.4h-17
			l22.9-39.7c7.6-13.2,7.6-29.5,0-42.7c-7.6-13.2-21.7-21.4-37-21.4H378.5H262.8c-21,0-39.8-10.9-50.3-29
			c-10.5-18.2-10.5-39.9,0-58.1l12.3-21.3c7.6-13.2,7.6-29.5,0-42.7c-7.6-13.2-21.7-21.4-37-21.4H45.1L50.5,116.5z"/>
	</g>
	<g>
		<path d="M3531.3,171.9c-5.8-100.1,56.6-157.8,154.6-157.8c88.6,0,148.8,37.2,148.8,114.8c0,93.3-91.2,122.6-159.8,164.6v0.5H3840
			v89.1h-316c-2.1-35.1,8.4-65.5,26.2-90.1c30.4-42.5,82.8-70.2,129.5-98.5c18.9-11.5,49.3-26.2,49.3-52.9c0-33-19.4-44.5-44-44.5
			c-41.9,0-56.1,30.4-55,74.9H3531.3z"/>
		<g>
			<path d="M2631.7,416.8h25.9c19.3,0,27.6,14,27.6,31.2s-8.3,31.2-27.6,31.2h-25.9V416.8z M2642.6,470.3h10.8
				c17.2,0,20.8-9.8,20.8-22.3s-3.7-22.3-20.8-22.3h-10.8V470.3z"/>
			<path d="M2724.7,416.8h11.6l24.1,62.5h-11.7l-5.9-16.5h-24.9l-5.9,16.5h-11.3L2724.7,416.8z M2720.9,454.4h19.1l-9.4-26.9h-0.3
				L2720.9,454.4z"/>
			<path d="M2765.5,416.8h50.6v9.5h-19.9v53h-10.9v-53h-19.8V416.8z"/>
			<path d="M2845.1,416.8h11.6l24.1,62.5h-11.7l-5.9-16.5h-24.9l-5.9,16.5h-11.3L2845.1,416.8z M2841.2,454.4h19.1l-9.4-26.9h-0.3
				L2841.2,454.4z"/>
			<path d="M2937.3,416.8h10.9v53h31.8v9.5h-42.7V416.8z"/>
			<path d="M2986.6,416.8h50.6v9.5h-19.9v53h-10.9v-53h-19.8V416.8z"/>
			<path d="M3057.6,416.8h25.9c19.3,0,27.6,14,27.6,31.2s-8.3,31.2-27.6,31.2h-25.9V416.8z M3068.5,470.3h10.8
				c17.2,0,20.8-9.8,20.8-22.3s-3.7-22.3-20.8-22.3h-10.8V470.3z"/>
			<path d="M3115.7,467.5h12.2v11.8h-12.2V467.5z"/>
		</g>
		<g>
			<g>
				<linearGradient id="SVGID_1_" gradientUnits="userSpaceOnUse" x1="829.1293" y1="196.0153" x2="3111.0005" y2="196.0153">
					<stop  offset="0.1596" style="stop-color:#EA2427"/>
					<stop  offset="0.5303" style="stop-color:#FFCC05"/>
					<stop  offset="0.7318" style="stop-color:#6DBD46"/>
					<stop  offset="1" style="stop-color:#46A2DA"/>
				</linearGradient>
				<path class="st2" d="M1018.3,8.9H829.1v374.2h166.7c130.5,0,191.3-72.9,191.3-187.6C1187.1,101.2,1143.1,8.9,1018.3,8.9z
					 M989.5,287.2h-45.1V104.8h36.7c83.3,0,90.7,65.5,90.7,89.1C1071.8,229,1061.3,287.2,989.5,287.2z M1507.3,209.6
					c38.3-14.2,56.1-55,56.1-93.8c0-70.8-56.6-106.9-122.1-106.9h-219.6v374.2H1337V252.6h61.3c45.6,0,48.7,37.2,51.9,72.8
					c1.6,19.4,3.7,38.8,9.4,57.7h115.3c-10.5-17.3-11-61.8-12.6-80.2C1558.2,256.3,1538.8,221.7,1507.3,209.6z M1397.3,172.4H1337
					V98h54c44,0,57.1,13.6,57.1,37.2C1448.1,168.8,1418.7,172.4,1397.3,172.4z M1730,8.9l-137.8,374.2H1708l16.8-53.5h119l15.7,53.5
					H1979L1842.7,8.9H1730z M1750,249.5l36.2-115.3h1l33.5,115.3H1750z M2176.6,257.3h50.8c-5.8,27.8-33,41.4-59.7,41.4
					c-70.2,0-84.4-61.3-84.4-96.4c0-25.7-2.6-109,76.5-109c27.3,0,50.3,19.4,54.5,46.6h110.6c-16.8-88-77-139.9-172.4-139.9
					C2068.1,0,1968,57.1,1968,199.7c0,106.4,68.1,192.3,178.7,192.3c40.9,0,80.7-14.1,106.4-47.2l3.7,38.3h72.8v-206h-153V257.3z
					 M2550.2,0c-113.7,0-189.7,81.8-189.7,196c0,114.3,76,196,189.7,196c113.7,0,189.7-81.8,189.7-196C2740,81.8,2664,0,2550.2,0z
					 M2550.2,298.7c-29.3,0-74.4-19.4-74.4-102.7c0-83.3,45.1-102.7,74.4-102.7c29.4,0,74.4,19.4,74.4,102.7
					C2624.6,279.3,2579.6,298.7,2550.2,298.7z M3002,8.9v200.2h-1.1l-109-200.2H2774v374.2h109V178.7h1l114.8,204.4H3111V8.9H3002z"
					/>
			</g>
		</g>
		<path d="M3220,139.9c0.5-43,17.8-74.4,45.6-95.4c27.8-20.4,65.5-30.4,106.4-30.4c105.9,0,141,62.9,141,93.8
			c0,76.5-48.2,76.5-48.2,78.1v1c0,4.2,59.7,4.2,59.7,85.4c0,44.5-33.5,114.8-153,114.8c-164,0-164.6-115.3-161.9-142.6h99.6
			c-0.5,19.4,4.2,34.1,14.1,43.5c10,12.1,25.2,16.3,43.5,16.3c29.9,0,48.7-11,48.7-40.9c0-32-24.6-37.7-48.7-37.7
			c-15.2,0-22.5,1.6-30.4,2.6v-71.3c7.9,0.5,16.3,2.1,30.4,2.1c22,0,49.8-4.7,49.8-33c0-23.1-26.2-32-47.7-32
			c-28.3,0-51.4,15.2-50.3,45.6H3220z"/>
	</g>
</g>
</svg>
