<?xml version="1.0" encoding="utf-8"?>
<!-- Generator: Adobe Illustrator 26.0.1, SVG Export Plug-In . SVG Version: 6.00 Build 0)  -->
<svg version="1.1" id="Layer_1" xmlns="http://www.w3.org/2000/svg" xmlns:xlink="http://www.w3.org/1999/xlink" x="0px" y="0px"
	 viewBox="0 0 3839 642" style="enable-background:new 0 0 3839 642;" xml:space="preserve">
<style type="text/css">
	.st0{fill:#F05100;}
	.st1{fill:#39689C;}
	.st2{fill:#CF3312;}
	.st3{fill:#FFFFFF;}
</style>
<g>
	<g>
		<polygon class="st3" points="3767.4,534.4 3751.9,534.4 3751.9,529.1 3788.8,529.1 3788.8,534.4 3773.4,534.4 3773.4,576 
			3767.4,576 		"/>
		<polygon class="st3" points="3813.8,576 3801,537.9 3801,576 3794.8,576 3794.8,529.1 3803.4,529.1 3816.9,569 3830.4,529.1 
			3839,529.1 3839,576 3832.8,576 3832.8,537.9 3820,576 		"/>
		<path class="st3" d="M831.8,131c0-16.3-3.1-37.4-10.3-46.3c47.2,0,149.2,0.3,192.9,0.3c100.6,0,252.4,55.9,252.4,244.1
			c0,139.8-107.2,243.8-252.4,243.8c-31.9,0-153.4-0.4-196.6-0.4c8.8-16.3,14-38.5,14-56V131L831.8,131z M904.2,525
			c46.5,6,89.3,7.9,128.1,2.3c37.5-5.4,163.6-32.5,162.8-199.9c-0.7-158.6-98.8-194.9-174.2-199.3c-39.4-2.3-77.5-0.8-116.7,6
			L904.2,525L904.2,525z"/>
		<path class="st3" d="M1308.4,234.5l72.3-11.3c0,14.8,0,58.2,0,63.7c18.6-45.8,76.3-82.7,158.2-50.8l-19.2,50.4
			c-75.1-35.6-139-4.4-139,79v171.9c0,8.2,1.8,24.7,6.7,35.3h-75.1c7.6-9.3,11.1-27.1,11.1-35.3v-248
			C1323.4,271.4,1319.7,243.5,1308.4,234.5L1308.4,234.5z"/>
		<path class="st3" d="M3593.8,269c0,4.7,0,204.7,0,219.6c0,69,47.5,87.4,82.8,87.4c14.9,0.7,36-2.8,50.7-6l9.1-42.6
			c-17.2,6.6-37.1,8.1-49.1,8.1c-22.1,0-38.1-14.7-38.1-37.6c0-20.6-0.5-222.1,0-228.6h-0.2c2.9,0,48.7-0.2,53.4,0
			c15,0.5,26.6,1.4,36.5,5.4l0.1-40.1c0,0-87.9-0.1-89.7-0.1l0.4-102.8l-66.6,18.4c9.2,8.6,12.2,33.7,12.2,50.3
			c0,0-0.1,30.7-0.1,34.4c-3,0-36.8,0.2-42.4,0.2v33.9C3558.5,269,3593.8,269,3593.8,269L3593.8,269z"/>
		<path class="st3" d="M3305.9,501.3c28.6,20.5,73.6,38.6,106.6,38.6c45.7,0,78.5-22.2,78.5-64.1c0-77.3-176.2-64.5-176.2-162.5
			c0-66.3,59.3-91.3,115.8-91.3c18.2,0,59.6,3.9,86,14.1l-0.2,45.3c-23.4-20-59.2-24.9-82.7-24.9c-37.4,0-65.5,18.6-65.5,55
			c0,53.4,176,50.3,176,159.9c0,70.9-61.4,104-129.1,104c-32.9,0-67.3-5.8-95.9-14L3305.9,501.3L3305.9,501.3z"/>
		<path class="st3" d="M2242.2,269.7c0-4,0.1-39.9,0.1-44.5l-73.2,11.3c8.8,9.2,15.6,38.1,15.6,58.7V535c0,8.2-3.5,28.1-11.1,37.4
			h79.8c-7.6-9.3-11.1-29.2-11.1-37.4V354.6c0-66,40.9-89.2,81.5-89.2c36.8,0,70.1,15.9,70.1,89.2V535c0,8.2-3.5,28.1-11.1,37.4
			h77.4c-7.6-9.3-11.1-29.2-11.1-37.4V354.6c0-73.2,45.2-89.2,82.1-89.2c36.8,0,75.3,23.1,75.3,89.2V535c0,8.2-3.5,28.1-11.1,37.4
			h74.6c-7.6-9.3-11.1-29.2-11.1-37.4V320.3c0-36.6-37.4-95.3-124.6-95.3c-50.8,0-80.1,22.6-102.3,42
			c-18.9-22.1-49.7-42.8-99.2-42.8C2284.6,224.3,2256.1,252.5,2242.2,269.7L2242.2,269.7z"/>
		<path class="st3" d="M2069.7,382.3c-10.4,9.8-32.3,17.5-54.9,20.5c-59.3,7.8-110.8,17.6-110.8,75.4c0,34.3,37.4,61.3,67,61.3
			c78.4,0,98.7-56.6,98.7-101.2V382.3L2069.7,382.3L2069.7,382.3z M1884.5,240.8c29.9-12,78.2-17.5,108.5-17.5
			c77.4,0,128.8,38.6,128.8,128.4v148.7c0,27.6,0.4,53.7,10.2,72h-62.2l-2.2-39.2c-23.5,30.4-51.7,44-99.4,44
			c-94.2,0-114.8-64.4-114.8-95.3c0-110.4,105.1-111.7,150.6-118.2c25.2-3.6,57.7-10.7,62.6-34.4c8.1-39.1-19.9-68.5-77.1-68.5
			c-42,0-76.4,12.8-105.1,30V240.8L1884.5,240.8z M3220.4,382.3c-10.4,9.8-32.3,17.5-54.9,20.5c-59.3,7.8-110.7,17.6-110.7,75.4
			c0,34.3,37.4,61.3,67,61.3c78.4,0,98.7-56.6,98.7-101.2L3220.4,382.3L3220.4,382.3z M3035.3,240.8c29.9-12,78.3-17.5,108.5-17.5
			c77.3,0,128.7,38.6,128.7,128.4v148.7c0,27.6-6,53.1,10.2,72h-62.1l-2.3-39.2c-23.6,30.4-51.6,44-99.4,44
			c-94.2,0-114.8-64.4-114.8-95.3c0-110.4,105.1-111.7,150.6-118.2c25.3-3.6,57.8-10.7,62.6-34.4c8.1-39.1-19.9-68.5-77.1-68.5
			c-42,0-76.3,12.8-105.1,30L3035.3,240.8L3035.3,240.8L3035.3,240.8z"/>
		<path class="st3" d="M2969.1,286.4c-23.3-13.6-60.1-24.4-85.8-24.4c-90.2,0-131.5,55.4-131.5,135.3c0,79.1,40.4,139.7,128.6,139.7
			c30.2,0,71.4-13.6,103.3-33.2l-13,58.2c-32.5,9.7-59.9,14.3-96.1,14.3c-123.9,0-181.9-87.9-181.9-179.3
			c0-101.1,77.9-172.1,183.3-172.1c46.1,0,79.7,11.3,93.3,15.2L2969.1,286.4L2969.1,286.4z"/>
		<path class="st3" d="M1582.4,401.6c0.1-8.4,1.2-16.3,2.1-24h239.7c0-82.4-41.2-153-138.9-153c-101.4,0-161.4,79.3-161.4,180.3
			c0,91.4,67,173,181.6,173c36.3,0,66.6-8.9,99.4-20.4l11.5-58.5c-28,23.1-73.3,36.7-114.1,36.7
			C1628.8,535.6,1582,482.5,1582.4,401.6L1582.4,401.6z M1592,341c7.8-40.1,44.9-81,89.3-81c67.9,0,87.5,53,87.5,81
			C1768.7,341,1592,341.1,1592,341L1592,341z"/>
	</g>
	<path class="st1" d="M440.9,8.7c26.9,4,54.4,13.4,68.7,17.8c28.9,8.8,75.7,36.2,92.3,49.4c7.8,6.2,24.3,22.5,30.7,30.7
		c6.2,8,18.1,25.3,25.6,35.9c12.1,17.6,26.2,43.8,38.3,67.9c13.4,26.9,14.4,34.8,18.4,57.3l8.9,39.7c0.8,6.9,1.5,32-13.3,35.6
		c-14.8,3.5-28.4-3.3-34.9-13.2c-8.9-13.8-7.7-33.4-17.8-55.8c-7.9-18.1-11.3-44.4-23.8-63.4l-9.8-16.6
		c-17.4-26.8-35.6-48.1-46.4-62c-9.6-11.7-27.4-27.5-44.2-38.8c-15.6-9.5-40.9-20.3-59.1-25.8c-5.8-1.9-30.6-9.2-46.1-11.2
		c-21-2.3-34.7-5.7-54.6-7.1c-24.6-1.7-36.4-3.9-68.2-0.2c-12.1,3.3-31.2,4.6-48.4,11.2c-13.9,5.7-33.2,14.8-52.2,26
		c-20.4,11.2-51.3,34-71.9,53.6c-20.7,22.1-31,34-45.3,62c-6.4,13.7-18.6,35.1-23.5,50.3c-3.4,15.4-9.8,44-8.7,58
		c0.5,24.9-1.7,30.1,0.2,50.5c0.1,18.4,6.1,31.1,8.6,46.1c2.1,10.4,12.1,46.2,18.2,54.6c28,60.3,65.5,86.4,107.4,105.2
		c11.8,6,48.7,15.9,59.4,18.7c18.2,3.3,42.2,5.5,65.2,5.9c24.3,0.5,57.7-2.8,78-10.3c22-8.1,47.4-19.6,47.1-19.2
		c10.2-5.6,25.8-14.8,30.6-18.8c9.4-6,15-8.3,20.5-14.1c8-7,12.9-11,18.9-19.7c3.4-4.9,8.8-12.4,13.9-19c5.6-9.2,8.8-18.9,14.3-30.9
		c6.6-17.8,5.5-16.9,6.8-35.7c1.2-5.5-0.1-23.8-1.1-27c-3-17-1.9-31.9-5.8-48.4c-5.2-22.3-9.6-38.9-16.3-60.3
		c-6.3-24-24.8-46.3-38.6-62.2c-8.6-9.9-35.2-33.2-72.2-47.7c-10.4-3.5-27.4-7.5-38.2-9.4c-23.1-2.4-26.9-0.9-49,0.8
		c-7.6,1.3-25.3,4.9-31.8,7.2c-19,6.7-26,10.9-45.4,22.8c-9,5.2-15.9,9.3-25.1,17.9c-7.4,6.8-12.6,18.4-18.6,25.2
		c-8.2,11.1-17.3,26-23.4,42c-6.6,15.9-8.8,38.4-7.7,52.8c0,11,3,31.1,4.2,35.5c1.2,4.4,4.2,18.1,4.8,20.8
		c0.7,2.7,7.8,17.2,8.8,19.3c4,8.5,11.7,20.8,24.6,33.3c9.6,10.4,28,20.7,41.8,24.6c12.4,6.8,33.3,8,44.8,8c5.7-0.4,20.2-1.2,27.8-3
		c15.4-3.7,18.2-3.8,34.1-10.7c14.2-6.6,23.9-9,33.8-16.3c0,0,13.6-10.6,19.8-18.5c3.3-4.1,8.9-23.7,7.9-35.9
		c-0.5-16.6,2-26-1.5-39.7c-3.4-13.7-9.2-29.5-15.5-39.3c-6.4-9.9-20-19.5-35.6-27.2c-8.7-4.3-29.4-8.3-38.1-9.3
		c-16.6-2-30.5,5.6-39,14.2c-7.3,8.4-21.8,25.8-16,43.7c5.2,16.3,11.5,33.6,35.9,32.3c16.8,3.5,36.1-1.5,42.6,1.4
		c9.6,5.4,13.2,17.4,9.8,25.8c-2.4,16.1-17.9,18.1-34.4,19.3c-14.8,2.5-52.3-4.8-60.5-10.9c-5.5-3.3-14-11.2-19.9-16.5
		c-4.3-3.9-9.1-12.4-12.4-18.5c-4.1-7.5-6.1-13.1-7.2-18c-1.2-5.8-3.8-17-2.8-28.1c0.7-7.5,2.7-10.7,4.7-21.7
		c4-12.5,8.9-21.9,16.9-32.7c10.4-10.5,23.6-23.1,36.4-28.9c11.4-6,31.2-8.2,49.2-7.1c14.6,1.4,31.9,3.2,43.3,7
		c19.5,7,25.1,8.4,41.2,18.5c13.5,8.4,27.2,23.8,34.8,36.6c16.2,33.1,25.5,69.9,18.7,119.6c-0.5,8.4-3.2,16.5-8.4,27.7
		c-4.8,10.2-13.3,22.7-26,32c-5.1,4.7-13.2,10.6-19.7,14c-9.3,5.6-15.6,8.6-25.3,13.5c-8.5,4-18.5,8.6-31.5,12.2
		c-14.1,5.6-24.9,5.8-42.5,8.4c-17.4,4.4-65,1.3-93.4-11.3c-19.4-8.1-41.1-22.5-57.6-40c-9.2-9.6-18.2-27.1-20.8-30.6
		c-13.1-25.3-15.7-49-17.8-54c-2.9-6.8-4.3-22-6.2-32.4c-2.2-11.7-0.8-60.6,10.9-91.9c6.6-12.5,10.5-23.6,15-29.5
		c8.1-11.5,12-18.7,18.8-26.8c10.4-12.5,17.9-22.8,27.9-30c25.7-20.9,47.1-31.9,76.2-45.7c36.1-14.7,46.9-11.7,81-11.1
		c15.4,0.1,37.7,5,48.7,7c20.4,2.7,32.1,7.6,45.9,11.5c14.8,4.1,23.3,10.7,35.4,18c10,6.4,21.7,15.2,29.4,22.4
		c19.8,14.5,29.4,29.8,41.5,48.6c2.2,3.1,16.6,33.9,18.9,42.4c1.1,4.3,4.3,16.6,6.4,23.8c2.7,11.4,4,21.5,7,34.4
		c2.7,13.3,7.3,38.3,9.2,61.7c3.3,20.1-2,61.1-5.2,73.6c-7,23.5-19.3,52.1-43.5,79.7c-10.3,12.2-21.2,21.7-33.9,32
		c-9.7,8-18,12.8-32.9,21.7c-20.3,12.1-35.7,19.8-64.2,31c-11.6,3.7-26.2,8.6-41.9,11.8c-30.5,2.8-61.8,5.5-96,1.4
		s-68.4-13.7-88.7-19.9c-11.2-4.2-32.8-13.2-41.9-18.2c-5.9-3-25.7-16.5-29-19.8c-13.6-8.4-43.9-36.9-63.5-63.5
		c-4.3-8.2-19.7-32.9-23.1-43.7c-8.9-18.3-15.1-40.4-18.7-49.8C11.3,403,4.8,388.8,2.2,366.7c0.3-5.2-1-17.5-2.2-24.2
		c1.7-15.1-0.6-29.4,2.4-45.9c2.6-13.9,6.1-19.7,7-32.3c0.8-5.4,7.7-21.6,9.6-28.8c5.6-11.9,7-21.6,14.3-34.9
		c10.5-20.6,21.5-44.4,38.4-65.1c4.8-6.4,18.5-21.9,23.1-27.2c11-11,17.5-12.7,29.9-23.8c1.3-0.8,9.5-10.2,18.2-13.4
		c14.3-11,26.7-15.1,40.3-25.2c27.3-13.6,37.2-18.2,64.3-29.5C263.3,11,285.2,7.9,293,4.9c15-0.9,30.1-5.7,45.9-4.8
		c17.7-0.2,35.5,1.1,53.2,2.7C404.1,3.5,419.7,4.1,440.9,8.7L440.9,8.7z"/>
</g>
</svg>
