<?xml version="1.0" encoding="UTF-8" standalone="no"?>
<svg
   height="169"
   viewBox="0 0 590.55017 107.31504"
   width="930"
   version="1.1"
   id="svg18"
   sodipodi:docname="electron.svg"
   inkscape:version="1.1.2 (0a00cf5339, 2022-02-04)"
   xmlns:inkscape="http://www.inkscape.org/namespaces/inkscape"
   xmlns:sodipodi="http://sodipodi.sourceforge.net/DTD/sodipodi-0.dtd"
   xmlns="http://www.w3.org/2000/svg"
   xmlns:svg="http://www.w3.org/2000/svg">
  <defs
     id="defs22" />
  <sodipodi:namedview
     id="namedview20"
     pagecolor="#ffffff"
     bordercolor="#666666"
     borderopacity="1.0"
     inkscape:pageshadow="2"
     inkscape:pageopacity="0.0"
     inkscape:pagecheckerboard="0"
     showgrid="false"
     inkscape:zoom="2.0117335"
     inkscape:cx="371.073"
     inkscape:cy="190.13453"
     inkscape:window-width="3840"
     inkscape:window-height="2065"
     inkscape:window-x="0"
     inkscape:window-y="0"
     inkscape:window-maximized="1"
     inkscape:current-layer="svg18" />
  <g
     id="g124940">
    <g
       id="g53812"
       transform="matrix(1.0739438,0,0,1,-20.029824,-0.23997174)"
       style="fill:#79bc38;fill-opacity:1">
      <path
         d="m 247.80621,53.41929 -27.46701,-0.122161 -0.0821,-0.732965 c -0.11407,-1.000373 0.38143,-7.564356 0.77382,-10.261515 0.17612,-1.209104 0.38144,-2.693311 0.45626,-3.298344 0.34859,-2.808738 1.71556,-8.623404 2.93012,-12.46041 1.26203,-3.987062 2.50306,-6.925657 4.4732,-10.591445 1.82323,-3.393572 3.17102,-5.312556 5.57735,-7.9394958 2.60618,-2.8443287 5.19319,-4.6892467 8.17897,-5.83198 3.36905,-1.0542389 6.27635,-1.40821684 9.44828,-0.3212736 3.58076,1.2466183 5.65767,2.6529113 8.83143,5.981074 4.26423,4.4718584 7.7364,10.9059854 10.42378,19.3148864 1.62157,5.074006 2.9292,12.091042 3.57437,19.178298 0.27557,3.023241 0.4663,5.881998 0.42432,6.352366 l -0.0757,0.856088 z"
         fill="#52ad67"
         id="path6"
         style="fill:#79bc38;fill-opacity:1;stroke-width:0.936886" />
      <path
         d="m 272.95355,105.07355 c -1.13216,-0.83781 -2.68273,-1.91032 -3.44552,-2.38261 -2.30567,-1.42842 -4.6652,-2.849142 -5.69828,-3.431091 -1.1687,-0.657937 -8.62917,-4.391058 -8.77538,-4.391058 -0.0558,0 -0.63389,-0.236627 -1.28317,-0.526158 -0.64928,-0.289531 -1.31203,-0.554052 -1.47363,-0.586757 -0.16063,-0.03463 -0.76567,-0.279912 -1.34377,-0.547319 -0.57713,-0.267407 -1.87569,-0.782022 -2.8828,-1.144657 a 557.46919,557.46919 0 0 1 -3.05402,-1.106182 c -1.81125,-0.665632 -6.9449,-2.217172 -11.60529,-3.506113 -1.46977,-0.406883 -6.73135,-1.554425 -8.67342,-1.891089 -4.47667,-0.778175 -5.88969,-1.061934 -6.07822,-1.222571 -0.11736,-0.100999 -0.13756,-0.584833 -0.0462,-1.077324 l 0.16834,-0.894564 1.26778,0.163522 c 1.95746,0.250093 6.70923,1.071553 8.47431,1.464007 0.87436,0.193341 2.96264,0.637737 4.64307,0.985944 4.8268,1.001335 5.45107,1.14081 6.23021,1.387055 0.40303,0.127932 1.33703,0.332816 2.07673,0.454977 0.7397,0.122161 1.89301,0.37514 2.56538,0.559824 l 1.22161,0.336664 0.077,-0.846469 c 0.0423,-0.465558 0.024,-0.900335 -0.0404,-0.964782 -0.0644,-0.06445 -0.97921,-0.22797 -2.03152,-0.362636 -12.67206,-2.274885 -24.64094,-13.41365 -24.7102,-26.367513 l 0.0741,-1.56693 h 58.3929 l -0.0385,2.565379 c -0.0673,4.34104 -1.57366,8.580119 -4.73253,13.315536 -1.19948,1.798747 -5.47319,5.951256 -7.49317,7.284444 -3.58595,2.362419 -8.70228,4.367012 -11.96792,4.686361 -2.62117,0.255865 -2.52113,0.178913 -2.52113,1.967079 0,1.512102 0.024,1.572701 0.6714,1.712176 1.969,0.425159 11.25708,3.744664 14.96519,5.348146 4.5517,1.968041 5.68,2.493237 10.38368,4.834493 5.42317,2.701006 7.00068,3.611926 6.88333,3.974556 -0.10292,0.31743 -7.1719,3.29931 -7.82022,3.29931 -0.17603,0 -1.24758,-0.68583 -2.37973,-1.52365 z"
         fill="#38894b"
         id="path8"
         style="fill:#79bc38;fill-opacity:1;stroke-width:0.961897" />
    </g>
    <g
       aria-label="electron"
       id="text1501-2"
       style="font-size:73.8105px;line-height:1.25;font-family:'DejaVu Serif';-inkscape-font-specification:'DejaVu Serif';text-align:center;letter-spacing:0px;word-spacing:0px;text-anchor:middle;stroke-width:1.84526"
       transform="translate(0,-3.6191278)">
      <path
         d="m 323.24749,62.481243 h -28.57995 v 0.288322 q 0,7.748661 2.91927,11.713093 2.91926,3.928391 8.61362,3.928391 4.36088,0 7.13598,-2.270538 2.81114,-2.306578 3.92839,-6.811614 h 5.33396 q -1.58577,6.30705 -5.87456,9.478595 -4.25276,3.171545 -11.20853,3.171545 -8.39739,0 -13.51511,-5.514164 -5.08168,-5.550203 -5.08168,-14.704436 0,-9.082151 5.0096,-14.632355 5.0096,-5.550203 13.15471,-5.550203 8.6857,0 13.3349,5.370002 4.6492,5.333962 4.8294,15.533362 z m -7.82074,-3.82027 q -0.21624,-6.703493 -2.84719,-10.091279 -2.5949,-3.423827 -7.49637,-3.423827 -4.57712,0 -7.20806,3.423827 -2.63094,3.423827 -3.20759,10.091279 z"
         id="path53877" />
      <path
         d="m 342.06052,77.113598 h 6.27101 v 3.82027 h -19.28156 v -3.82027 h 6.37913 V 28.675457 h -6.37913 v -3.82027 h 13.01055 z"
         id="path53879" />
      <path
         d="m 390.5347,62.481243 h -28.57995 v 0.288322 q 0,7.748661 2.91927,11.713093 2.91926,3.928391 8.61362,3.928391 4.36088,0 7.13598,-2.270538 2.81114,-2.306578 3.92839,-6.811614 h 5.33396 q -1.58577,6.30705 -5.87456,9.478595 -4.25276,3.171545 -11.20853,3.171545 -8.39739,0 -13.51511,-5.514164 -5.08168,-5.550203 -5.08168,-14.704436 0,-9.082151 5.0096,-14.632355 5.0096,-5.550203 13.1547,-5.550203 8.68571,0 13.33491,5.370002 4.6492,5.333962 4.8294,15.533362 z m -7.82074,-3.82027 q -0.21625,-6.703493 -2.84719,-10.091279 -2.5949,-3.423827 -7.49638,-3.423827 -4.57711,0 -7.20805,3.423827 -2.63094,3.423827 -3.20759,10.091279 z"
         id="path53881" />
      <path
         d="m 432.16123,69.437018 q -1.40558,6.126848 -5.40605,9.334433 -4.00047,3.207586 -10.34356,3.207586 -8.36134,0 -13.44302,-5.514164 -5.08168,-5.550203 -5.08168,-14.704436 0,-9.190272 5.08168,-14.668395 5.08168,-5.514163 13.44302,-5.514163 3.64007,0 7.2441,0.864966 3.60403,0.828927 7.2441,2.558861 v 9.802957 h -3.85632 q -0.75684,-5.04564 -3.3157,-7.352218 -2.52282,-2.306578 -7.2441,-2.306578 -5.37,0 -8.10906,4.180673 -2.73906,4.144632 -2.73906,12.433897 0,8.289266 2.70302,12.469939 2.73906,4.180673 8.1451,4.180673 4.2888,0 6.84766,-2.234498 2.55886,-2.234498 3.4959,-6.739533 z"
         id="path53883" />
      <path
         d="m 443.51392,46.479357 h -5.83853 v -3.85631 h 5.83853 V 30.729753 h 6.66745 v 11.893294 h 12.46994 v 3.85631 h -12.46994 v 24.327192 q 0,4.865438 0.93705,6.234969 0.93705,1.369531 3.45987,1.369531 2.5949,0 3.78423,-1.513692 1.18933,-1.549733 1.26141,-4.97356 h 5.0096 q -0.28833,5.225842 -2.84719,7.640541 -2.55886,2.414699 -7.7847,2.414699 -5.7304,0 -8.10906,-2.52282 -2.37866,-2.55886 -2.37866,-8.649668 z"
         id="path53885" />
      <path
         d="m 500.4936,42.550966 v 9.586716 h -3.82027 q -0.1802,-2.847183 -1.58577,-4.252754 -1.40557,-1.405571 -4.10859,-1.405571 -4.90148,0 -7.53242,3.387787 -2.5949,3.387786 -2.5949,9.730876 v 17.515578 h 7.67658 v 3.82027 h -20.29068 v -3.82027 h 5.98269 V 46.407277 h -6.34309 v -3.78423 h 12.9745 v 6.811613 q 1.94617,-4.000471 5.0096,-5.910606 3.06342,-1.946175 7.46034,-1.946175 1.62181,0 3.38778,0.252282 1.80202,0.252282 3.78423,0.720805 z"
         id="path53887" />
      <path
         d="m 522.69443,78.411049 q 5.33396,0 8.03698,-4.216714 2.73906,-4.216713 2.73906,-12.433898 0,-8.217184 -2.73906,-12.397857 -2.70302,-4.216713 -8.03698,-4.216713 -5.33396,0 -8.07303,4.216713 -2.70302,4.180673 -2.70302,12.397857 0,8.217185 2.73906,12.433898 2.73907,4.216714 8.03699,4.216714 z m 0,3.567988 q -8.36135,0 -13.44303,-5.514164 -5.08168,-5.550203 -5.08168,-14.704436 0,-9.154232 5.04564,-14.668395 5.08168,-5.514163 13.47907,-5.514163 8.39738,0 13.44302,5.514163 5.08168,5.514163 5.08168,14.668395 0,9.154233 -5.08168,14.704436 -5.04564,5.514164 -13.44302,5.514164 z"
         id="path53889" />
      <path
         d="m 547.95866,80.933868 v -3.82027 h 5.98269 V 46.479357 h -6.34309 v -3.85631 h 12.9745 v 6.811613 q 1.83806,-3.89235 4.75732,-5.874566 2.9553,-1.982215 6.84766,-1.982215 6.34309,0 9.33443,3.640068 2.99134,3.640069 2.99134,11.35269 v 20.542961 h 5.91061 v 3.82027 h -18.30847 v -3.82027 h 5.73041 V 58.660973 q 0,-7.027855 -1.72993,-9.622756 -1.72994,-2.63094 -6.09081,-2.63094 -4.61316,0 -7.02786,3.387786 -2.4147,3.351747 -2.4147,9.802957 v 17.515578 h 5.76645 v 3.82027 z"
         id="path53891" />
    </g>
    <g
       aria-label="acorn"
       id="text1501-2-6"
       style="font-size:73.8105px;line-height:1.25;font-family:'DejaVu Serif';-inkscape-font-specification:'DejaVu Serif';text-align:center;letter-spacing:0px;word-spacing:0px;text-anchor:middle;stroke-width:1.84526"
       transform="translate(0,-3.6191278)">
      <path
         d="M 25.832787,68.896414 V 60.78735 H 17.29124 q -4.937519,0 -7.3522181,2.126377 -2.414699,2.126376 -2.414699,6.523291 0,4.000471 2.4507393,6.34309 2.4507398,2.342618 6.6314118,2.342618 4.144633,0 6.667453,-2.55886 2.55886,-2.55886 2.55886,-6.667452 z M 32.464199,57.00312 v 20.110478 h 5.910607 v 3.82027 H 25.832787 v -4.144632 q -2.198457,2.666981 -5.08168,3.928391 -2.883223,1.26141 -6.739533,1.26141 -6.3791302,0 -10.1273197,-3.387787 -3.74818954,-3.387787 -3.74818954,-9.154232 0,-5.946647 4.28879374,-9.226313 4.2887938,-3.279666 12.1095355,-3.279666 h 9.298393 v -2.63094 q 0,-4.360875 -2.666981,-6.739533 -2.630941,-2.414699 -7.424298,-2.414699 -3.964432,0 -6.30705,1.802014 -2.3426185,1.802014 -2.919263,5.333962 H 3.091368 v -7.748661 q 3.4598673,-1.477652 6.7034928,-2.198457 3.2796662,-0.756846 6.3791302,-0.756846 7.964903,0 12.109535,3.964431 4.180673,3.928391 4.180673,11.46081 z"
         id="path53848" />
      <path
         d="m 78.415563,69.437018 q -1.405571,6.126848 -5.406043,9.334433 -4.000471,3.207586 -10.343561,3.207586 -8.361346,0 -13.443026,-5.514164 -5.08168,-5.550203 -5.08168,-14.704436 0,-9.190272 5.08168,-14.668395 5.08168,-5.514163 13.443026,-5.514163 3.640068,0 7.244097,0.864966 3.604028,0.828927 7.244097,2.558861 v 9.802957 h -3.856311 q -0.756846,-5.04564 -3.315706,-7.352218 -2.52282,-2.306578 -7.244097,-2.306578 -5.370002,0 -8.109064,4.180673 -2.739061,4.144632 -2.739061,12.433897 0,8.289266 2.703021,12.469939 2.739062,4.180673 8.145104,4.180673 4.288794,0 6.847654,-2.234498 2.55886,-2.234498 3.495908,-6.739533 z"
         id="path53850" />
      <path
         d="m 104.00417,78.411049 q 5.33396,0 8.03698,-4.216714 2.73906,-4.216713 2.73906,-12.433898 0,-8.217184 -2.73906,-12.397857 -2.70302,-4.216713 -8.03698,-4.216713 -5.333962,0 -8.073024,4.216713 -2.703021,4.180673 -2.703021,12.397857 0,8.217185 2.739061,12.433898 2.739062,4.216714 8.036984,4.216714 z m 0,3.567988 q -8.361346,0 -13.443026,-5.514164 -5.08168,-5.550203 -5.08168,-14.704436 0,-9.154232 5.04564,-14.668395 5.08168,-5.514163 13.479066,-5.514163 8.39739,0 13.44303,5.514163 5.08168,5.514163 5.08168,14.668395 0,9.154233 -5.08168,14.704436 -5.04564,5.514164 -13.44303,5.514164 z"
         id="path53852" />
      <path
         d="m 161.52446,42.550966 v 9.586716 h -3.82027 q -0.1802,-2.847183 -1.58577,-4.252754 -1.40557,-1.405571 -4.10859,-1.405571 -4.90148,0 -7.53242,3.387787 -2.5949,3.387786 -2.5949,9.730876 v 17.515578 h 7.67658 v 3.82027 h -20.29068 v -3.82027 h 5.98268 V 46.407277 H 128.908 v -3.78423 h 12.97451 v 6.811613 q 1.94617,-4.000471 5.0096,-5.910606 3.06342,-1.946175 7.46033,-1.946175 1.62182,0 3.38779,0.252282 1.80201,0.252282 3.78423,0.720805 z"
         id="path53854" />
      <path
         d="m 164.55185,80.933868 v -3.82027 h 5.98269 V 46.479357 h -6.34309 v -3.85631 h 12.9745 v 6.811613 q 1.83806,-3.89235 4.75732,-5.874566 2.9553,-1.982215 6.84765,-1.982215 6.34309,0 9.33444,3.640068 2.99134,3.640069 2.99134,11.35269 v 20.542961 h 5.91061 v 3.82027 h -18.30847 v -3.82027 h 5.73041 V 58.660973 q 0,-7.027855 -1.72993,-9.622756 -1.72994,-2.63094 -6.09081,-2.63094 -4.61316,0 -7.02786,3.387786 -2.4147,3.351747 -2.4147,9.802957 v 17.515578 h 5.76645 v 3.82027 z"
         id="path53856" />
    </g>
  </g>
</svg>
