<?xml version="1.0" encoding="utf-8"?>
<!-- Generator: Adobe Illustrator 25.2.1, SVG Export Plug-In . SVG Version: 6.00 Build 0)  -->
<svg version="1.1" id="Layer_1" xmlns="http://www.w3.org/2000/svg" xmlns:xlink="http://www.w3.org/1999/xlink" x="0px" y="0px"
	 viewBox="0 0 3839 918.9" style="enable-background:new 0 0 3839 918.9;" xml:space="preserve">
<style type="text/css">
	.st0{fill:#E31E26;}
	.st1{fill:#F4A51C;}
	.st2{fill:#9A9A9A;}
	.st3{fill:#FFFFFF;}
	.st4{fill:#32398F;}
	.st5{fill:#E33A25;}
</style>
<g>
	<g>
		<g>
			<path class="st4" d="M0,738.2h232.7v77.1c0,49.8-38.4,103.1-96.1,103.1H25.9v-44.9h96.9c50.6,0,71.2-37.6,71.2-58.3V783H0V738.2z
				"/>
			<path class="st4" d="M246.1,783.4h187.1V834c0,42.8-32.3,45.7-44.9,45.7H349c0,37.5-45.2,39.2-45.2,38.8h-58.2v-38h64.8
				c7.4,0,13.4-6,13.4-13.5c0-0.5,0-1-0.1-1.5v-23.7h58.9c10.3-0.2,18.4-8.7,18.1-18.9c0-0.3,0-0.5,0-0.9H246.5L246.1,783.4z"/>
			<rect x="698.2" y="737.7" class="st4" width="32.3" height="116.4"/>
			<path class="st4" d="M892.7,737.7h31.6v94.1c0,67.6-73.2,87-90.7,87h-103v-45.3H834c52.2,0,58.7-49.8,58.7-64.4L892.7,737.7
				L892.7,737.7z"/>
			<rect x="943.9" y="808.8" class="st4" width="219.5" height="45.2"/>
			<polygon class="st4" points="1254.3,737.7 1487,737.7 1487,918.9 1254.3,918.9 1254.3,873.5 1454.7,873.5 1454.7,783 1254.3,783 
							"/>
			<rect x="1506.4" y="737.7" class="st4" width="129.3" height="45.2"/>
			<path class="st4" d="M1506.4,873.5v44.9h129.8c69.1,0,96.6-51.4,96.6-88.9v-91.8h-32v83.7c0,46-48.1,52.1-58.2,52.1
				C1642.5,873.5,1506.4,873.5,1506.4,873.5z"/>
			<path class="st4" d="M1752.1,737.5h32.3V783h126.2c16.7,36.9,57.1,36.4,73.8,9.5v35.4h-200.1v26.3c0,22.6,25.8,19.4,25.8,19.4
				h173.8v44.9h-173.7c-30,2.1-56.1-20.5-58.1-50.6V737.5L1752.1,737.5z"/>
			<path class="st4" d="M1950.2,799.9c-16.8,0.3-30.8-13.1-31.1-29.9c-0.3-16.8,13.1-30.8,29.9-31.1c0.3,0,0.8,0,1.1,0v13.7
				c-9.3,0-16.8,7.5-16.8,16.8c0,9.3,7.5,16.8,16.8,16.8l0,0v13.8H1950.2z"/>
			<polygon class="st4" points="2017.2,789.5 2146.5,789.5 2146.5,874.6 2184.9,874.6 2184.9,918.4 1998.2,918.4 1998.2,874 
				2121.1,874 2121.1,827.8 2017.2,827.8 			"/>
			<rect x="2166" y="809.8" class="st4" width="226.4" height="38.9"/>
			<path class="st4" d="M2405.6,795.7v45.3c51.7,0,63.9-58.7,63.9-58.7h136.1v26.7h-135.4V854h115.9c0,17.4-33.5,19.4-33.5,19.4
				h-128.1v44.8h123.2c46.1,0.9,85.2-33.4,90.5-79.1V737.7h-193.5C2445.8,763.5,2429.9,787,2405.6,795.7z"/>
			<polygon class="st4" points="684.8,803.2 684.8,764.4 452.9,744.3 452.9,783 			"/>
			<polygon class="st4" points="684.8,861 684.8,822.2 452.9,802 452.9,840.8 			"/>
			<polygon class="st4" points="684.8,918.9 684.8,880 452.9,859.8 452.9,898.4 			"/>
			<path class="st4" d="M1950.2,799.9c16.8,0.3,30.8-13.1,31.1-29.9c0.3-16.8-13.1-30.8-29.9-31.1c-0.3,0-0.8,0-1.1,0v13.7
				c9.3,0,16.8,7.5,16.8,16.8c0,9.3-7.5,16.8-16.8,16.8v13.8H1950.2z"/>
		</g>
		<polygon class="st5" points="3805.8,652.8 3763.2,692.8 0,692.8 0,652.8 		"/>
		<path class="st5" d="M1409.6,416c-0.9,106.7,84.8,194.2,191.6,195.4c71.5-0.3,136.8-40.6,169.1-104.3l0.8-1.5h-84.2
			c-22.8,22.6-53.5,35.4-85.7,35.6c-69.1-1.9-123.6-59.2-121.7-128.3c1.7-66.5,55.3-120.1,121.7-121.7c31.8,0.1,62.3,12.7,84.8,35.2
			l85.1,0.2l-0.8-1.5c-32.3-63.7-97.7-103.9-169.1-104.2C1494.3,221.8,1408.7,309.1,1409.6,416z M1774.9,417
			c2.1,105.8,89.5,189.9,195.4,187.8c105.8-2.1,189.9-89.5,187.8-195.4c-2.1-104.3-87.2-187.8-191.5-187.9
			C1859.7,222.8,1774,310.2,1774.9,417L1774.9,417z M1844,417c1.4-67.6,57.4-121.4,125-120c67.6,1.4,121.4,57.4,120,125
			c-1.4,66.6-55.8,120-122.5,120C1898.2,541.3,1843.4,485.3,1844,417L1844,417z M3538.6,223.2h-193.1V608h193.9V534h-121.3v-77.2
			h121.3v-74.1h-121.3v-85.4h121.3v-74.1h-1.1h0.2V223.2z M435,223.2h-57.1L112.6,608.1h82.2c0,0,41-59.7,41.5-60.5h129.8v60.5h69.8
			V223.2H435L435,223.2z M288,472.1l78.1-114.3v121.1h-82.6C284.9,476.7,288,472.1,288,472.1z M2572.7,223.3h-81
			c0,0-113,261.1-114.8,265.3c-1.9-4.3-115.3-265.3-115.3-265.3h-81.8v384.9h72.4V416.6c1.2-0.3,6.9-1.5,8.1-1.9l84.1,193.5h64.7
			c0,0,83.3-191.8,83.9-193.4c1.2,0.2,6.9,1.5,8.2,1.7v191.5h72.4V223.3H2572.7L2572.7,223.3z M3105,223.3h-71.8v259.8
			c0.4,27.5-21.6,50.2-49.2,50.6c-27.5,0.4-50.2-21.6-50.6-49.2c0-0.4,0-1,0-1.4V223.3h-72.7v259.8
			c-1.1,67.7,52.9,123.5,120.6,124.6s123.5-52.9,124.6-120.6c0-1.3,0-2.6,0-3.9V223.4L3105,223.3L3105,223.3z M3562.6,223.4h-1.1
			v386.1h72.7V406.3c3.6,6.1,120,201.8,120,201.8h81.6c0,0-81.9-138.1-83.1-140.3c1.5-0.5,4.8-1.7,4.8-1.7
			c64.9-24.3,97.8-96.5,73.6-161.3c-17.8-47.7-62.7-79.9-113.6-81.5L3562.6,223.4L3562.6,223.4z M3717.7,297.3
			c27.4,1,49.2,23.6,48.9,51.1c0.4,27.5-21.4,50.3-48.9,50.8h-83.4V297.3L3717.7,297.3L3717.7,297.3z M2596.9,223.4h-1v384.8h72.7
			v-137h51.8c68.4-1.3,122.8-57.8,121.6-126.2c-1.2-66.6-55-120.3-121.6-121.6L2596.9,223.4L2596.9,223.4z M2720.3,297.3
			c27.6,0.5,49.5,23.4,48.9,51c-0.5,26.8-22.2,48.4-48.9,48.9h-51.8v-100H2720.3L2720.3,297.3z M3324,223.4h-197.2v73.9h62.6v310.8
			h72.7V297.3h62.9v-73.9H3324L3324,223.4z M1366.9,223.4h-75.2c0,0-77.2,150.6-79,154.1c-1.7-3.4-79-154.1-79-154.1h-76.9
			L1176.4,460l-0.1,148.3h72.9l0.2-148.7c0.1,0,118.5-234.6,118.5-234.6l0.8-1.5L1366.9,223.4L1366.9,223.4z M1037.1,223.4h-71.6
			v384.7h170.9v-74.1h-98.3V223.4H1037.1L1037.1,223.4z M942.4,223.4h-68.1v384.7h69.1V223.4H942.4L942.4,223.4z M851.1,223.4h-81.1
			c0,0-113,260.9-114.8,265.1L540,223.4h-81.7v384.7h72.4V416.5c1.2-0.2,6.9-1.5,8.1-1.7c0.7,1.5,84.1,193.4,84.1,193.4h64.7
			l84-193.4c1.2,0.3,6.9,1.5,8.1,1.9v191.5h72.4V223.4H851.1L851.1,223.4z M198.4,223.4H0v384.7h73.9V456.6h125.5V383H73.9v-88.6
			h125.5v-70.8L198.4,223.4L198.4,223.4z"/>
	</g>
	<g>
		<path class="st4" d="M154.2,113.5v27.9H0.7v-27.9L154.2,113.5L154.2,113.5z M136,21.3v27.5H16.8V21.3H136z"/>
		<path class="st4" d="M248.1,62.9C231,51,212.1,41.8,192.2,35.5L205,11.1c20.5,5.7,40.2,14.3,58.3,25.6L248.1,62.9z M194.7,126.3
			c79.1-6.2,108.6-42.6,125.8-103.5l26.9,13.3c-27,91-80.1,111.7-143.2,120.6L194.7,126.3z"/>
		<path class="st4" d="M526,52.8v26.3h-56.1l-0.2,2.8c0.2,21-8.2,41.2-23.5,55.6c-15.6,11.7-34,19.3-53.3,22.2l-11.7-25
			c10.3-1.6,34.6-5.4,47.9-19.6c7-9.6,11-21.1,11.4-33l0.2-3.1h-65V52.8H526z M511.9,7.6V34H389.9V7.6H511.9z"/>
		<path class="st4" d="M621.2,62.9c-17.2-11.9-36.1-21.1-55.9-27.4l12.8-24.4c20.5,5.7,40.2,14.3,58.3,25.6L621.2,62.9z
			 M567.8,126.3c79.1-6.2,108.6-42.6,125.8-103.5l26.9,13.3c-27,91-80.1,111.7-143.2,120.6L567.8,126.3z"/>
		<path class="st4" d="M786.9,2.6v42.3c29.7,9.4,58.3,22,85.4,37.4l-15,30C835.7,96.6,811.9,84,786.8,75v84.2h-30.9V2.6
			C756,2.6,786.9,2.6,786.9,2.6z M833.4,45.7c-4-9.5-9.1-18.6-15-27l14.5-6.9c6,8.1,11.3,16.8,15.4,25.9L833.4,45.7z M856.4,32
			c-4-8.9-9.2-17.3-15.1-25L856,0c6,7.4,11.3,15.4,15.4,24L856.4,32z"/>
		<path class="st4" d="M1042,66.1v29.7H901.1V66.1H1042z"/>
		<path class="st4" d="M1249.4,13.3c-3.9,35.4-16.6,69.2-37.1,98.2c-28.1,35.7-72.3,44.5-94.9,47.7l-11.6-26.3
			c67-8.9,86.8-32.7,101.9-74.4c3.1-8.3,4.6-14.4,5.9-19h-49.7c-12.9,19.9-30.2,36.7-50.5,49.1l-18.5-20.8
			c13.4-7.3,25.5-17.2,35.4-28.7c9.4-11.3,16.9-23.9,22.4-37.5l29.7,5.7c-1.2,2.5-1.4,2.6-3.1,6L1249.4,13.3L1249.4,13.3z"/>
		<path class="st4" d="M1430.3,51.6c-3.1,30.6-11.7,61.5-35.7,80.3c-18.8,14.8-46.3,24-83.9,26.9l-8.5-26.7
			c71.1-2.6,87.7-27.2,94.2-54.4h-113V51.6H1430.3z M1418.5,8v26.3h-122V8H1418.5L1418.5,8z"/>
		<path class="st4" d="M1522.6,93.1c-16.5-9.2-34.1-16.2-52.4-20.8l9.9-23.8c18.7,3.5,36.7,9.9,53.3,19.2L1522.6,93.1z
			 M1479.7,126.9c57.3-5,95.8-16.9,119.4-96.4l26.7,12.8c-28.1,83.9-71.5,106.1-138.2,114.1L1479.7,126.9z M1538.3,50.3
			c-17.3-8.9-35.5-15.4-54.4-19.6L1494,7.1c19.2,3.3,37.9,9.3,55.4,17.9L1538.3,50.3z"/>
		<path class="st4" d="M1669.9,97c-2.5-15.5-7.3-30.6-14-44.8l22.5-6c7.3,14.2,12.6,29.4,15.6,45.1L1669.9,97z M1670.1,139
			c64.7-15.6,77.5-40.5,89.2-99.5l27.5,6.4c-9.7,41.2-23.3,96.8-103.8,115.5L1670.1,139z M1710.1,88.1c-2.3-15.3-6.6-30.2-12.6-44.5
			l22.5-4.8c7,13.8,11.5,28.6,13.3,43.8L1710.1,88.1z"/>
		<path class="st4" d="M1976.1,13.3c-3.9,35.4-16.6,69.2-37.1,98.2c-28.1,35.7-72.3,44.5-94.9,47.7l-11.6-26.3
			c67-8.9,86.8-32.7,101.9-74.4c3.1-8.3,4.6-14.4,5.9-19h-49.7c-12.9,19.9-30.2,36.7-50.5,49.1l-18.5-20.8
			c13.4-7.3,25.5-17.2,35.4-28.7c9.4-11.3,16.9-23.9,22.4-37.5l29.7,5.7c-1.2,2.5-1.4,2.6-3.1,6L1976.1,13.3L1976.1,13.3z"/>
		<path class="st4" d="M2145.9,161.2c-43.2-14.8-88.5-22.3-134.2-22.5l5.5-27.4c46.7,1.1,93,7.9,137.9,20.2L2145.9,161.2z
			 M2128.9,100.4c-34.7-10.7-70.7-17-107-18.8l5.1-25.6c36.5,0.8,72.8,6.6,107.7,17.3L2128.9,100.4z M2142.3,49.4
			c-38.9-11.5-79.2-18-119.7-19.6l5-25.9c40.5,0.8,80.9,6.3,120.1,16.5L2142.3,49.4z"/>
		<path class="st4" d="M2351,113.5v27.9h-153.5v-27.9L2351,113.5z M2332.9,21.3v27.5h-119.2V21.3H2332.9L2332.9,21.3z"/>
	</g>
</g>
</svg>
