<?xml version="1.0" encoding="utf-8"?>
<!-- Generator: Adobe Illustrator 25.4.1, SVG Export Plug-In . SVG Version: 6.00 Build 0)  -->
<svg version="1.1" id="Layer_1" xmlns="http://www.w3.org/2000/svg" xmlns:xlink="http://www.w3.org/1999/xlink" x="0px" y="0px"
	 viewBox="0 0 3847.1 792.5" style="enable-background:new 0 0 3847.1 792.5;" xml:space="preserve">
<style type="text/css">
	.st0{fill:#FFFFFF;}
	.st1{fill:#7B9A99;}
	.st2{fill:url(#SVGID_1_);}
	.st3{clip-path:url(#SVGID_00000078744019031017409050000002368115689441349789_);}
	.st4{fill:#606161;}
	.st5{clip-path:url(#SVGID_00000181078685625861521860000012616643296988740282_);}
	.st6{clip-path:url(#SVGID_00000117647782914456105690000003067283578126176941_);}
	.st7{fill:url(#SVGID_00000114040350216071072210000010794717567767836840_);}
	.st8{fill:url(#SVGID_00000097499935903527674410000003752221789725615259_);}
	.st9{fill:url(#SVGID_00000011711771445770735310000001723693013314129084_);}
	.st10{fill:url(#SVGID_00000001644444337225285390000007711561968583762857_);}
	.st11{fill:#F58746;}
	.st12{fill:url(#SVGID_00000083049540206216299670000006518991132274538920_);}
	.st13{fill:url(#SVGID_00000132090555805588305550000011559540218873163686_);}
	.st14{fill:url(#SVGID_00000129197262271316844820000006964916805454947473_);}
	.st15{fill:url(#SVGID_00000112632134636384723630000009140118220200303241_);}
	.st16{fill:url(#SVGID_00000000930234361162576610000003617018323470516127_);}
	.st17{fill:url(#SVGID_00000119084315578990874300000008499344173712839566_);}
	.st18{fill:url(#SVGID_00000049218824710327917690000012689377084545522071_);}
	.st19{fill:url(#SVGID_00000057858671958797760510000001620342142863357590_);}
	.st20{fill:url(#SVGID_00000103261593340958954390000014540467949094486948_);}
	.st21{fill:url(#SVGID_00000073680024692196369590000007354124273025930635_);}
	.st22{fill:url(#SVGID_00000011711067255810675700000014438229446049642626_);}
	.st23{fill:url(#SVGID_00000058556268961166271070000002249981325913246385_);}
	.st24{opacity:0.25;fill:url(#SVGID_00000065756366357378267290000000732002309192893587_);}
	.st25{fill:url(#SVGID_00000114048581092664643150000007388827681571269267_);}
	.st26{fill:url(#SVGID_00000134972495356267760030000008532259782165179053_);}
	.st27{fill:url(#SVGID_00000181775414767307863350000015817209298334731691_);}
	.st28{fill:url(#SVGID_00000093892873664805103460000011625774181316425905_);}
	.st29{fill:url(#SVGID_00000113325275073433512790000007953472165286085039_);}
	.st30{fill:url(#SVGID_00000142147035520526077200000010129607534144561062_);}
	.st31{fill:url(#SVGID_00000053541806303169069570000013542266127048438183_);}
	.st32{fill:url(#SVGID_00000096043479434070226960000005293947384978016923_);}
	.st33{fill:url(#SVGID_00000139267347410822203230000012895671104113155968_);}
	.st34{fill:url(#SVGID_00000116235315052387834330000014774236479441898139_);}
	.st35{fill:url(#SVGID_00000093886873626369457940000013222506118159092141_);}
	.st36{fill:url(#SVGID_00000174589867652247336580000010583334865411981497_);}
	.st37{fill:url(#SVGID_00000080170977134459586830000003509849342684205246_);}
	.st38{fill:url(#SVGID_00000163045946615762996100000001657252895964736175_);}
	.st39{fill:url(#SVGID_00000028304677696479568400000003145818421003776674_);}
	.st40{opacity:0.25;fill:url(#SVGID_00000058590087926532726390000000733072843455788692_);}
	.st41{fill:url(#SVGID_00000071522331418675403610000005742692373227770033_);}
	.st42{fill:url(#SVGID_00000116225043730514386650000004130729124317689279_);}
	.st43{fill:url(#SVGID_00000065762830335054594730000012836133745387265685_);}
	.st44{fill:url(#SVGID_00000078763023518520324400000003989013256564207283_);}
	.st45{fill:url(#SVGID_00000067924382461430655190000008044525520798458034_);}
	.st46{fill:url(#SVGID_00000036952356421587445140000002161542646387032506_);}
	.st47{fill:url(#SVGID_00000147202245238912441350000000094129876720200094_);}
	.st48{fill:url(#SVGID_00000096779700389371324760000000262623228183349121_);}
	.st49{clip-path:url(#SVGID_00000152263083615484751180000011302896086067329973_);}
	.st50{clip-path:url(#SVGID_00000028322813388864488050000003552237704641396624_);}
	.st51{clip-path:url(#SVGID_00000057139388192149442220000000732211179295223213_);}
	.st52{fill:url(#SVGID_00000073708415271565992480000017390963908566378897_);}
	.st53{fill:url(#SVGID_00000106860488579628338460000015116032371755874964_);}
	.st54{fill:url(#SVGID_00000135668938359551353820000009269414936472177579_);}
	.st55{fill:url(#SVGID_00000026165487247139617290000005312614611308673665_);}
	.st56{fill:url(#SVGID_00000100352534941722311530000015335794319801721238_);}
	.st57{fill:url(#SVGID_00000121996244374090682890000013372891040307185569_);}
	.st58{fill:url(#SVGID_00000070801070735229487030000016352551501813283242_);}
	.st59{clip-path:url(#SVGID_00000160873012255159434780000018010858424952821148_);}
	.st60{clip-path:url(#SVGID_00000047756486738723844540000008425725953023649423_);}
	.st61{clip-path:url(#SVGID_00000067932518223192182260000012734829724185654661_);}
	.st62{fill:url(#SVGID_00000155860322646367866360000011044423830540470151_);}
	.st63{clip-path:url(#SVGID_00000173162630996691092070000002724134421236594592_);}
	.st64{clip-path:url(#SVGID_00000122709640474377868980000006747491722282522767_);}
	.st65{clip-path:url(#SVGID_00000151543067831851235040000010004222022182723504_);}
	.st66{fill:url(#SVGID_00000080184430382822814920000010260390283149764792_);}
	.st67{fill:url(#SVGID_00000108294617818759691880000009472878936007142564_);}
	.st68{fill:url(#SVGID_00000010995051710869206220000007100422965801217974_);}
	.st69{fill:url(#SVGID_00000158028185885028797040000009695860783812637093_);}
	.st70{fill:url(#SVGID_00000042709273975339394200000010537451858477825680_);}
	.st71{fill:url(#SVGID_00000080885632163933505250000004576923780417655472_);}
	.st72{fill:url(#SVGID_00000076603285691133756870000009336821642327319184_);}
	.st73{fill:url(#SVGID_00000004516383808387761620000007750330432921981840_);}
	.st74{fill:url(#SVGID_00000077306769913956093270000008256833989494556316_);}
	.st75{fill:url(#SVGID_00000072246504139151699540000010038562240289213600_);}
	.st76{fill:url(#SVGID_00000109013295775579659460000018145162289081719185_);}
	.st77{fill:url(#SVGID_00000088826834900465766210000002822288706124300220_);}
	.st78{opacity:0.25;fill:url(#SVGID_00000070800660798586604710000014524402684373027753_);}
	.st79{fill:url(#SVGID_00000088109061133924050420000003099823447250517932_);}
	.st80{fill:url(#SVGID_00000137106346978520556550000016191124219982607537_);}
	.st81{fill:url(#SVGID_00000026157689156405025850000004097263188731009447_);}
	.st82{fill:url(#SVGID_00000162342935315974095390000009752678516039927425_);}
	.st83{fill:url(#SVGID_00000182523296315126107460000017999785468338553505_);}
	.st84{fill:url(#SVGID_00000173841941538205926220000014469700748053479588_);}
	.st85{fill:url(#SVGID_00000080925001078756586280000012908669830199652753_);}
	.st86{fill:url(#SVGID_00000047052248658868873240000016684587579924494745_);}
	.st87{fill:url(#SVGID_00000036944880622599450090000017137294721987822742_);}
	.st88{fill:url(#SVGID_00000065777797207940695100000011039167666410728860_);}
	.st89{fill:url(#SVGID_00000154397019825088023840000013351543036202689437_);}
	.st90{fill:url(#SVGID_00000109727520364290311700000013970862087595367296_);}
	.st91{fill:url(#SVGID_00000081646850028528490310000005776097285065764506_);}
	.st92{fill:url(#SVGID_00000157284245346404943490000003402911509070784397_);}
	.st93{fill:url(#SVGID_00000111879129374385495990000012911075198396776878_);}
	.st94{opacity:0.25;fill:url(#SVGID_00000144309883497050248090000016464117955262586798_);}
	.st95{fill:url(#SVGID_00000102533993262196137980000006343049928086617023_);}
	.st96{fill:url(#SVGID_00000147197730808003074560000005701562586961533588_);}
	.st97{fill:url(#SVGID_00000183225540623831726550000002794967766184376503_);}
	.st98{fill:url(#SVGID_00000116206617590877492860000003753421014878824893_);}
	.st99{fill:url(#SVGID_00000000223462603336033010000002508438631720586658_);}
	.st100{fill:url(#SVGID_00000139289193239717558220000011445825891045215660_);}
	.st101{fill:url(#SVGID_00000068676102874841143630000006729010157661580695_);}
	.st102{fill:url(#SVGID_00000151541412490781581010000001711052694555612816_);}
	.st103{fill:url(#SVGID_00000040553403623150866370000014992220801270962352_);}
	.st104{fill:url(#SVGID_00000016057092408775716040000005380275705015902625_);}
	.st105{fill:url(#SVGID_00000115514422773565718960000001391719763761665461_);}
	.st106{fill:url(#SVGID_00000036930561196917976120000005544297009870463658_);}
	.st107{fill:url(#SVGID_00000181051787954880215210000010287103728547773075_);}
	.st108{fill:url(#SVGID_00000097460784207896471970000006044651313028234903_);}
	.st109{fill:url(#SVGID_00000120546839373417973530000008070319767168196773_);}
	.st110{fill:url(#SVGID_00000078732836037691014340000016188905025706468751_);}
	.st111{fill:url(#SVGID_00000043442476436744469800000007188980423517226915_);}
	.st112{opacity:0.25;fill:url(#SVGID_00000026859700217141388630000017610798524947636640_);}
	.st113{fill:url(#SVGID_00000070077411978822379020000011068070042714418868_);}
	.st114{fill:url(#SVGID_00000095337100992011847310000003379587601269687969_);}
	.st115{fill:url(#SVGID_00000163038808709886394410000001503943909185512844_);}
	.st116{fill:url(#SVGID_00000060752690581298238470000008044967280196814260_);}
	.st117{fill:url(#SVGID_00000023276843738893812290000017831069900998498947_);}
	.st118{fill:url(#SVGID_00000143577806278884664280000009526350844562391984_);}
	.st119{fill:url(#SVGID_00000168105986034418261630000006725120762432104623_);}
	.st120{fill:url(#SVGID_00000005254516346558303370000014139554156951037348_);}
	.st121{fill:url(#SVGID_00000114776470820395210470000015824394648702707840_);}
	.st122{fill:url(#SVGID_00000020381157278274373520000008598423523474829716_);}
	.st123{fill:url(#SVGID_00000152964406356872676860000018402405513978829724_);}
	.st124{fill:url(#SVGID_00000008144199649956643200000011887380118104813215_);}
	.st125{fill:url(#SVGID_00000053524418495693381410000000784985557046075781_);}
	.st126{fill:url(#SVGID_00000004506677094701804610000007915982353122595489_);}
	.st127{fill:url(#SVGID_00000007409401410960915620000016683177719885281721_);}
	.st128{opacity:0.25;fill:url(#SVGID_00000026843333914216682790000008970582271486515636_);}
	.st129{fill:url(#SVGID_00000103986699024268996470000004370412343600205727_);}
	.st130{fill:url(#SVGID_00000000200354758505148080000017959485265835011999_);}
	.st131{fill:url(#SVGID_00000049223365476293154380000003939517982945984668_);}
	.st132{fill:url(#SVGID_00000000198006641743813390000004479834508630990724_);}
	.st133{fill:url(#SVGID_00000176033222043415141210000001111793162064600737_);}
	.st134{fill:url(#SVGID_00000042006006135477961410000013817647530644354483_);}
	.st135{fill:url(#SVGID_00000094577397992111414340000014396589364444708265_);}
	.st136{fill:url(#SVGID_00000016062850520406344800000012737918638541933444_);}
	.st137{fill:url(#SVGID_00000106149822598427482630000002280988804024215697_);}
</style>
<g>
	<g>
		<g>
			<linearGradient id="SVGID_1_" gradientUnits="userSpaceOnUse" x1="2434.7498" y1="589.1439" x2="2434.7498" y2="297.2032">
				<stop  offset="0" style="stop-color:#F2703E"/>
				<stop  offset="1" style="stop-color:#F89D48"/>
			</linearGradient>
			<path class="st2" d="M3835.3,524.8l-84.9-199.5c-7.3-17.1-24-28.1-42.5-28.1H1076.9c-25.6,0-46.4,20.8-46.4,46.4v199.1
				c0,25.6,20.8,46.4,46.4,46.4l2715.8,0c15.5,0,30-7.8,38.5-20.7S3841.4,539.1,3835.3,524.8z"/>
			
				<linearGradient id="SVGID_00000016769951808966243050000018222325346763003537_" gradientUnits="userSpaceOnUse" x1="2434.75" y1="589.1439" x2="2434.75" y2="297.2029">
				<stop  offset="0" style="stop-color:#F6944A;stop-opacity:0"/>
				<stop  offset="1" style="stop-color:#FBC090"/>
			</linearGradient>
			<path style="fill:url(#SVGID_00000016769951808966243050000018222325346763003537_);" d="M3707.9,313.3c12.1,0,23,7.2,27.7,18.3
				l84.9,199.5c4,9.3,3,19.9-2.6,28.4c-5.6,8.5-15,13.5-25.1,13.5H1076.9c-16.7,0-30.3-13.6-30.3-30.3V343.6
				c0-16.7,13.6-30.3,30.3-30.3H3707.9 M3707.9,297.2H1076.9c-25.6,0-46.4,20.8-46.4,46.4v199.1c0,25.6,20.8,46.4,46.4,46.4h2715.8
				c15.5,0,30-7.8,38.5-20.7c8.6-12.9,10-29.3,4-43.6l-84.9-199.5C3743.2,308.3,3726.4,297.2,3707.9,297.2L3707.9,297.2z"/>
		</g>
		<g>
			<g>
				<g>
					<g>
						
							<linearGradient id="SVGID_00000167368617492170378380000005552390778341623733_" gradientUnits="userSpaceOnUse" x1="80.2316" y1="670.1536" x2="793.3101" y2="-42.9249">
							<stop  offset="0" style="stop-color:#F2703E"/>
							<stop  offset="1" style="stop-color:#F89D48"/>
						</linearGradient>
						<path style="fill:url(#SVGID_00000167368617492170378380000005552390778341623733_);" d="M750.1,0H0v101l610.2,214.6H958
							V207.9C958,93.1,864.9,0,750.1,0z M582.3,333.8l-262.8-92.4v377.4l-117,41.9v131.8H667V570.7h-84.7V333.8z M610.2,542.7H958
							V343.6H610.2V542.7z"/>
					</g>
				</g>
				<g>
					
						<linearGradient id="SVGID_00000070837597968702782270000016376313436998570128_" gradientUnits="userSpaceOnUse" x1="3.351961e-05" y1="157.8428" x2="958.0339" y2="157.8428">
						<stop  offset="0" style="stop-color:#F6944A;stop-opacity:0"/>
						<stop  offset="1" style="stop-color:#FBC090"/>
					</linearGradient>
					<path style="fill:url(#SVGID_00000070837597968702782270000016376313436998570128_);" d="M750.1,16.2
						c105.7,0,191.8,86,191.8,191.8v91.6H613L16.2,89.6V16.2H750.1 M750.1,0H0v101l610.2,214.6H958V207.9C958,93.1,864.9,0,750.1,0
						L750.1,0z"/>
					<g>
						
							<linearGradient id="SVGID_00000100376700097207529310000003735895683347350927_" gradientUnits="userSpaceOnUse" x1="210.1141" y1="800.0353" x2="629.3342" y2="380.8151">
							<stop  offset="0" style="stop-color:#F6944A;stop-opacity:0"/>
							<stop  offset="1" style="stop-color:#FBC090"/>
						</linearGradient>
						<path style="fill:url(#SVGID_00000100376700097207529310000003735895683347350927_);" d="M335.7,264.2l230.5,81.1v225.4v16.2
							h16.2h68.5v189.5H218.7V672l106.2-38.1l10.7-3.8v-11.4V264.2 M319.5,241.3v377.4l-117,41.9v131.8H667V570.7h-84.7V333.8
							L319.5,241.3L319.5,241.3z"/>
					</g>
					<g>
						
							<linearGradient id="SVGID_00000121257375966807476880000017030985915711901626_" gradientUnits="userSpaceOnUse" x1="647.3926" y1="579.9053" x2="920.8639" y2="306.434">
							<stop  offset="0" style="stop-color:#F6944A;stop-opacity:0"/>
							<stop  offset="1" style="stop-color:#FBC090"/>
						</linearGradient>
						<path style="fill:url(#SVGID_00000121257375966807476880000017030985915711901626_);" d="M941.9,359.8v166.8H626.4V359.8
							H941.9 M958,343.6H610.2v199.1H958V343.6L958,343.6z"/>
					</g>
				</g>
			</g>
			
				<linearGradient id="SVGID_00000044160878550988579680000010864335173733268365_" gradientUnits="userSpaceOnUse" x1="610.2225" y1="307.6006" x2="958.0339" y2="307.6006">
				<stop  offset="0" style="stop-color:#E65726"/>
				<stop  offset="1" style="stop-color:#F26F48"/>
			</linearGradient>
			<polygon style="fill:url(#SVGID_00000044160878550988579680000010864335173733268365_);" points="958,315.7 941.9,299.5 
				613,299.5 610.2,315.7 			"/>
			
				<linearGradient id="SVGID_00000039102418684495592660000005197858248237631400_" gradientUnits="userSpaceOnUse" x1="697.1753" y1="629.6884" x2="871.0812" y2="455.7824">
				<stop  offset="0" style="stop-color:#E65726"/>
				<stop  offset="1" style="stop-color:#F26F48"/>
			</linearGradient>
			<polygon style="fill:url(#SVGID_00000039102418684495592660000005197858248237631400_);" points="626.4,526.6 610.2,542.7 
				958,542.7 941.9,526.6 			"/>
			
				<linearGradient id="SVGID_00000179635433058538228340000016099362508124900756_" gradientUnits="userSpaceOnUse" x1="318.6539" y1="908.5759" x2="550.881" y2="676.3488">
				<stop  offset="0" style="stop-color:#E65726"/>
				<stop  offset="1" style="stop-color:#F27247"/>
			</linearGradient>
			<polygon style="fill:url(#SVGID_00000179635433058538228340000016099362508124900756_);" points="202.5,792.5 218.7,776.3 
				650.8,776.3 667,792.5 			"/>
			
				<linearGradient id="SVGID_00000034055161973433175660000007597618194159628469_" gradientUnits="userSpaceOnUse" x1="169.5804" y1="759.5024" x2="237.8946" y2="691.1882">
				<stop  offset="0" style="stop-color:#E65726"/>
				<stop  offset="1" style="stop-color:#F26F48"/>
			</linearGradient>
			<polygon style="fill:url(#SVGID_00000034055161973433175660000007597618194159628469_);" points="202.5,660.6 218.7,672 
				218.7,776.3 202.5,792.5 			"/>
			
				<linearGradient id="SVGID_00000147183897799274043400000001099012840386663855_" gradientUnits="userSpaceOnUse" x1="228.1894" y1="686.2711" x2="310.0153" y2="604.4451">
				<stop  offset="0" style="stop-color:#F2703E"/>
				<stop  offset="1" style="stop-color:#F89D48"/>
			</linearGradient>
			<polyline style="opacity:0.25;fill:url(#SVGID_00000147183897799274043400000001099012840386663855_);" points="319.5,618.7 
				335.7,630.1 218.7,672 202.5,660.6 			"/>
			
				<linearGradient id="SVGID_00000148643659740851313600000016375953113639235747_" gradientUnits="userSpaceOnUse" x1="232.0411" y1="531.2593" x2="420.7231" y2="342.5774">
				<stop  offset="0" style="stop-color:#E65726"/>
				<stop  offset="1" style="stop-color:#F26F48"/>
			</linearGradient>
			<polygon style="fill:url(#SVGID_00000148643659740851313600000016375953113639235747_);" points="319.5,241.3 319.5,618.7 
				335.7,630.1 335.7,264.2 			"/>
			
				<linearGradient id="SVGID_00000090277307859070296210000016963472279348213932_" gradientUnits="userSpaceOnUse" x1="206.2154" y1="307.2622" x2="413.4728" y2="100.0048">
				<stop  offset="0" style="stop-color:#E65726"/>
				<stop  offset="1" style="stop-color:#F27247"/>
			</linearGradient>
			<polygon style="fill:url(#SVGID_00000090277307859070296210000016963472279348213932_);" points="16.2,89.6 0,101 610.2,315.7 
				613,299.5 			"/>
			
				<linearGradient id="SVGID_00000177457793777447066000000010104159590491719352_" gradientUnits="userSpaceOnUse" x1="560.4396" y1="492.9527" x2="660.0054" y2="393.3869">
				<stop  offset="0" style="stop-color:#E65726"/>
				<stop  offset="1" style="stop-color:#F26F48"/>
			</linearGradient>
			<polygon style="fill:url(#SVGID_00000177457793777447066000000010104159590491719352_);" points="610.2,343.6 610.2,542.7 
				626.4,526.6 626.4,359.8 			"/>
			
				<linearGradient id="SVGID_00000054961135374842322920000008491576542715260576_" gradientUnits="userSpaceOnUse" x1="-24.0824" y1="76.9644" x2="26.441" y2="26.441">
				<stop  offset="0" style="stop-color:#E65726"/>
				<stop  offset="1" style="stop-color:#F27247"/>
			</linearGradient>
			<polygon style="fill:url(#SVGID_00000054961135374842322920000008491576542715260576_);" points="0,0 0,101 16.2,89.6 16.2,16.2 
							"/>
			
				<linearGradient id="SVGID_00000011007096451312995750000015741710283174836631_" gradientUnits="userSpaceOnUse" x1="566.1343" y1="578.7388" x2="666.9943" y2="578.7388">
				<stop  offset="0" style="stop-color:#FBC090;stop-opacity:0.5"/>
				<stop  offset="1" style="stop-color:#FBC090"/>
			</linearGradient>
			<polygon style="fill:url(#SVGID_00000011007096451312995750000015741710283174836631_);" points="582.3,570.7 566.1,586.8 
				650.8,586.8 667,570.7 			"/>
			
				<linearGradient id="SVGID_00000111191720236975012480000015454369573753753010_" gradientUnits="userSpaceOnUse" x1="697.1753" y1="430.5574" x2="871.0812" y2="256.6515">
				<stop  offset="0" style="stop-color:#FBC090;stop-opacity:0"/>
				<stop  offset="1" style="stop-color:#FBC090"/>
			</linearGradient>
			<polygon style="fill:url(#SVGID_00000111191720236975012480000015454369573753753010_);" points="941.9,359.8 958,343.6 
				610.2,343.6 626.4,359.8 			"/>
			
				<linearGradient id="SVGID_00000002352892549003429510000009400158593381773973_" gradientUnits="userSpaceOnUse" x1="404.9762" y1="333.4894" x2="493.4923" y2="244.9733">
				<stop  offset="0" style="stop-color:#F2703E;stop-opacity:0.5"/>
				<stop  offset="1" style="stop-color:#F89D48;stop-opacity:0.2"/>
			</linearGradient>
			<polygon style="fill:url(#SVGID_00000002352892549003429510000009400158593381773973_);" points="566.1,345.2 582.3,333.8 
				319.5,241.3 335.7,264.2 			"/>
		</g>
		<g>
			<path d="M3667.5,342.2h40.4l85.3,200.5h-45.8l-18.2-44.6H3645l-18.2,44.6h-44.6L3667.5,342.2z M3713.6,459.4l-26.4-64.6
				l-26.4,64.6H3713.6z"/>
		</g>
		<path d="M1076.9,343.6h151.6v39.8h-107.8v42.4h95v39.8h-95v77.1h-43.8V343.6z"/>
		<path d="M1251.3,343.6h43.8v199.1h-43.8V343.6z"/>
		<path d="M1330.6,343.6h40.4l93.3,122.6V343.6h43.2v199.1h-37.3l-96.4-126.5v126.5h-43.2V343.6z"/>
		<path d="M1609.3,342.2h40.4l85.3,200.5h-45.8l-18.2-44.6h-84.2l-18.2,44.6H1524L1609.3,342.2z M1655.4,459.4l-26.4-64.6
			l-26.4,64.6H1655.4z"/>
		<path d="M1751.5,343.6h43.8v159.3h99.2v39.8h-143V343.6z"/>
		<path d="M1984.4,343.6h92.4c22.7,0,40.7,6.3,52,17.6c9.1,9.1,13.7,20.2,13.7,33.8v0.6c0,22.5-11.9,35-26.2,42.9
			c23,8.8,37.3,22.2,37.3,48.9v0.6c0,36.4-29.6,54.6-74.5,54.6h-94.7V343.6z M2067.5,424.1c19.3,0,31.6-6.3,31.6-21v-0.6
			c0-13.1-10.2-20.5-28.7-20.5h-43.2v42.1H2067.5z M2079.1,504.3c19.3,0,31-6.8,31-21.6v-0.6c0-13.4-10-21.6-32.4-21.6h-50.6v43.8
			H2079.1z"/>
		<path d="M2172.4,457.4V343.6h43.8v112.6c0,32.4,16.2,49.2,42.9,49.2s42.9-16.2,42.9-47.8v-114h43.8V456
			c0,60.3-33.8,89.9-87.3,89.9C2205.1,545.8,2172.4,516,2172.4,457.4z"/>
		<path d="M2376.3,343.6h91c25.3,0,44.9,7.1,58,20.2c11.1,11.1,17.1,26.7,17.1,45.5v0.6c0,32.1-17.3,52.3-42.7,61.7l48.6,71.1h-51.2
			l-42.7-63.7h-34.4v63.7h-43.8V343.6z M2464.5,440.3c21.3,0,33.6-11.4,33.6-28.2v-0.6c0-18.8-13.1-28.4-34.4-28.4h-43.5v57.2
			H2464.5z"/>
		<path d="M2567.7,343.6h40.4l93.3,122.6V343.6h43.2v199.1h-37.3L2611,416.2v126.5h-43.2V343.6z"/>
		<path d="M2917.5,342.2h40.4l85.3,200.5h-45.8l-18.2-44.6h-84.2l-18.2,44.6h-44.6L2917.5,342.2z M2963.6,459.4l-26.4-64.6
			l-26.4,64.6H2963.6z"/>
		<path d="M3059.8,343.6h43.8v159.3h99.2v39.8h-143V343.6z"/>
		<path d="M3221.6,343.6h81.3c47.5,0,76.2,28.2,76.2,68.8v0.6c0,46.1-35.8,70-80.5,70h-33.3v59.7h-43.8V343.6z M3300.1,444
			c21.9,0,34.7-13.1,34.7-30.1v-0.6c0-19.6-13.7-30.1-35.5-30.1h-33.8V444H3300.1z"/>
		<path d="M3397.3,343.6h43.8v78.8h80.8v-78.8h43.8v199.1h-43.8v-79.9h-80.8v79.9h-43.8V343.6z"/>
	</g>
</g>
</svg>
