<?xml version="1.0" encoding="utf-8"?>
<!-- Generator: Adobe Illustrator 25.4.1, SVG Export Plug-In . SVG Version: 6.00 Build 0)  -->
<svg version="1.1" id="Layer_1" xmlns="http://www.w3.org/2000/svg" xmlns:xlink="http://www.w3.org/1999/xlink" x="0px" y="0px"
	 viewBox="0 0 3839 873.6" style="enable-background:new 0 0 3839 873.6;" xml:space="preserve">
<style type="text/css">
	.st0{fill:url(#SVGID_1_);}
	.st1{fill:url(#SVGID_00000109708614623833034510000001544773973405923212_);}
	.st2{fill:url(#SVGID_00000099643621717836915300000001211570349366696124_);}
	.st3{fill:url(#SVGID_00000085233502378835333220000001651951974700386461_);}
	.st4{fill:url(#SVGID_00000122711004492912904260000014280228833748903848_);}
	.st5{fill:url(#SVGID_00000052083316573520932450000004517087138056745647_);}
	.st6{fill:url(#SVGID_00000102505643260444722400000013886292285808435354_);}
	.st7{fill:url(#SVGID_00000159445479622251016970000010342314276299990659_);}
	.st8{fill:url(#SVGID_00000113337931092945784730000018146729553215127217_);}
	.st9{fill:url(#SVGID_00000170963211354806534140000013173180887348244630_);}
	.st10{opacity:0.25;fill:url(#SVGID_00000130646397539050842070000016437524099910158501_);}
	.st11{fill:url(#SVGID_00000100379773027264381040000009955925418908163263_);}
	.st12{fill:url(#SVGID_00000023267976815281062270000002223381376350261903_);}
	.st13{fill:url(#SVGID_00000165916088931133178430000008957190276142472098_);}
	.st14{fill:url(#SVGID_00000144305799997013704440000008146323969651358596_);}
	.st15{fill:url(#SVGID_00000044858816502608442530000017469284096559220890_);}
	.st16{fill:url(#SVGID_00000123432687277337667430000000048453859007125893_);}
	.st17{fill:url(#SVGID_00000013907931770563226370000014605152272403422901_);}
	.st18{fill:#7B9A99;}
	.st19{fill:url(#SVGID_00000139288684871448471440000011150016927452741026_);}
	.st20{clip-path:url(#SVGID_00000038413060688317371470000005944133964536874146_);}
	.st21{fill:#606161;}
	.st22{clip-path:url(#SVGID_00000114045902220017974990000017693881467887036833_);}
	.st23{clip-path:url(#SVGID_00000134941664542299079220000018357271897877519036_);}
	.st24{fill:#F58746;}
	.st25{fill:url(#SVGID_00000146489115963988429400000004708383054483611322_);}
	.st26{fill:url(#SVGID_00000029012359506968410330000014318714960337809817_);}
	.st27{fill:url(#SVGID_00000089533995941216043160000001680330541886815149_);}
	.st28{fill:url(#SVGID_00000114772162570474415090000008764157820658319281_);}
	.st29{fill:url(#SVGID_00000124883011268008578070000016369327173623826601_);}
	.st30{fill:url(#SVGID_00000160191592843271444790000005121007770285937082_);}
	.st31{fill:url(#SVGID_00000057842234382068070800000002081536423442731908_);}
	.st32{fill:url(#SVGID_00000009583027996470476770000002472145290200753307_);}
	.st33{fill:url(#SVGID_00000011733314050190881970000012482218186166330245_);}
	.st34{fill:url(#SVGID_00000165196454592995898330000000742420085437945735_);}
	.st35{fill:url(#SVGID_00000065069898470737505230000017785691457423057038_);}
	.st36{fill:url(#SVGID_00000139257721725560350600000001822409205430574761_);}
	.st37{fill:url(#SVGID_00000057837364330552567380000004143352529972456876_);}
	.st38{opacity:0.25;fill:url(#SVGID_00000152971191042029577330000014806975133939063182_);}
	.st39{fill:url(#SVGID_00000059310353315830097040000001821241716751004347_);}
	.st40{fill:url(#SVGID_00000118393603422036782720000010431032479104682418_);}
	.st41{fill:url(#SVGID_00000154409269761031140340000005072657633278908582_);}
	.st42{fill:url(#SVGID_00000064336459894676402130000006448014501527943831_);}
	.st43{fill:url(#SVGID_00000008840931341355618850000000446000300742262462_);}
	.st44{fill:url(#SVGID_00000026147861326846887100000010948194048201211063_);}
	.st45{fill:url(#SVGID_00000036943182525123730340000003514039102817050772_);}
	.st46{fill:url(#SVGID_00000005265815763325462960000003036906882571778200_);}
	.st47{fill:url(#SVGID_00000181088570778282390980000008429246929711461017_);}
	.st48{fill:url(#SVGID_00000078757832229070803530000011441082892761434279_);}
	.st49{fill:url(#SVGID_00000104684024983428019980000014640137889825443488_);}
	.st50{fill:url(#SVGID_00000114053395499675003970000001375062502383322764_);}
	.st51{fill:url(#SVGID_00000101094705803080227660000017690898964072259497_);}
	.st52{fill:url(#SVGID_00000048460921957046814470000010773895015693252536_);}
	.st53{fill:url(#SVGID_00000052800050125723968470000000608503985397805969_);}
	.st54{fill:url(#SVGID_00000027597726013740685820000001457757050907017869_);}
	.st55{fill:url(#SVGID_00000097473748849590619130000002532099929087965079_);}
	.st56{opacity:0.25;fill:url(#SVGID_00000062872812722069774770000010833856807802869916_);}
	.st57{fill:url(#SVGID_00000141421485820527327150000017715370202298102937_);}
	.st58{fill:url(#SVGID_00000020361684593950256540000013819278132881524122_);}
	.st59{fill:url(#SVGID_00000057141016579600922960000006117997719143866241_);}
	.st60{fill:url(#SVGID_00000178201096079914730030000013965938299525366431_);}
	.st61{fill:url(#SVGID_00000069399380800834130630000005324711791857135264_);}
	.st62{fill:url(#SVGID_00000052103433877357874550000000517587768314096565_);}
	.st63{fill:url(#SVGID_00000154409515584937641060000014148926198037532316_);}
	.st64{fill:url(#SVGID_00000002377599794271582040000003464804797781869440_);}
	.st65{fill:url(#SVGID_00000133525194856487512390000013675800418749890724_);}
	.st66{fill:url(#SVGID_00000139289587795559074690000005856502541524992398_);}
	.st67{fill:url(#SVGID_00000005960298076273897910000001635953611141405843_);}
	.st68{fill:url(#SVGID_00000115488064507425656430000007392842608365063059_);}
	.st69{fill:url(#SVGID_00000095336153801502735710000001348090639838285189_);}
	.st70{fill:url(#SVGID_00000121277787423275381000000013603388773889570480_);}
	.st71{fill:url(#SVGID_00000099648503814063788260000017220392147164653240_);}
	.st72{fill:url(#SVGID_00000059307704659344854940000017281805748508540848_);}
	.st73{fill:url(#SVGID_00000070802658356862360370000015254780827557858471_);}
	.st74{fill:url(#SVGID_00000040557996949195539820000005096082631240944556_);}
	.st75{fill:url(#SVGID_00000047062374738939501900000000256448183419538324_);}
	.st76{fill:url(#SVGID_00000060016697612826822220000010392106484672335490_);}
	.st77{opacity:0.25;fill:url(#SVGID_00000025442075673616057100000002376523361982662068_);}
	.st78{fill:url(#SVGID_00000169529006237598739160000002493137087539051427_);}
	.st79{fill:url(#SVGID_00000044139671893959596450000011362459984290820774_);}
	.st80{fill:url(#SVGID_00000145019048072197921580000008367226626212847249_);}
	.st81{fill:url(#SVGID_00000031904199458720181780000017207747545492757930_);}
	.st82{fill:url(#SVGID_00000062161511230049422840000007069070794662703520_);}
	.st83{fill:url(#SVGID_00000011717278662204887260000001080063544170884015_);}
	.st84{fill:url(#SVGID_00000149341419315912818610000003564747124762188944_);}
	.st85{fill:url(#SVGID_00000174599736656151276110000008422432948202000825_);}
	.st86{clip-path:url(#SVGID_00000138548638953258495080000002993202832619806107_);}
	.st87{clip-path:url(#SVGID_00000039817815924381150250000018203140894075570841_);}
	.st88{clip-path:url(#SVGID_00000169559028278465208500000005348226825095867279_);}
	.st89{fill:#FFFFFF;}
	.st90{fill:url(#SVGID_00000140727243849709260240000003033427674840475812_);}
	.st91{clip-path:url(#SVGID_00000011742284011111248020000001651001922512089511_);}
	.st92{clip-path:url(#SVGID_00000013187277685370784260000015548891867880580994_);}
	.st93{clip-path:url(#SVGID_00000013900507268533079010000010045723536229548464_);}
	.st94{fill:url(#SVGID_00000008858915207257733990000013980535967386392729_);}
	.st95{fill:url(#SVGID_00000178186145430790161480000006615600475663594427_);}
	.st96{fill:url(#SVGID_00000026848604718484621250000018123689088446460850_);}
	.st97{fill:url(#SVGID_00000016045009010789780530000000679927491810396826_);}
	.st98{fill:url(#SVGID_00000044136190161050441310000008656378823084708236_);}
	.st99{fill:url(#SVGID_00000021808853456167848980000002903451091116914087_);}
	.st100{fill:url(#SVGID_00000021823476094314115020000010711735876394501514_);}
	.st101{fill:url(#SVGID_00000146496190285486126380000013075603768578704053_);}
	.st102{fill:url(#SVGID_00000027589182894564080210000004629172791185999757_);}
	.st103{fill:url(#SVGID_00000054944744335885030710000008531546573303507134_);}
	.st104{fill:url(#SVGID_00000127033147893736977740000000525219289866655671_);}
	.st105{fill:url(#SVGID_00000160912737135902349460000001166545680151706777_);}
	.st106{fill:url(#SVGID_00000071543135535949130560000011123997336550091657_);}
	.st107{opacity:0.25;fill:url(#SVGID_00000058553529974193119650000012391078125558631070_);}
	.st108{fill:url(#SVGID_00000051377593715040346140000011716839381683844261_);}
	.st109{fill:url(#SVGID_00000121269653143386732920000005767720895337307799_);}
	.st110{fill:url(#SVGID_00000147938933412390466390000018209712418113372575_);}
	.st111{fill:url(#SVGID_00000158733418647865154220000010840309862669116823_);}
	.st112{fill:url(#SVGID_00000068652422599795559520000010810402317047991199_);}
	.st113{fill:url(#SVGID_00000113341177659894110370000017256982237184287146_);}
	.st114{fill:url(#SVGID_00000127750688722724847930000017038186857820600765_);}
	.st115{fill:url(#SVGID_00000021117538955607106750000013198608483177958283_);}
	.st116{fill:url(#SVGID_00000020360729991145289150000012080917246055297930_);}
	.st117{fill:url(#SVGID_00000173856015708674396160000011550297603962925462_);}
	.st118{fill:url(#SVGID_00000063612315495364840530000012898632655480960665_);}
	.st119{fill:url(#SVGID_00000132087650798106738980000009534627760052249761_);}
	.st120{fill:url(#SVGID_00000031188028409901441930000016152718828419892902_);}
	.st121{fill:url(#SVGID_00000077283425157006704460000014811447365901516684_);}
	.st122{fill:url(#SVGID_00000139253683954622080250000007892959672034657674_);}
	.st123{fill:url(#SVGID_00000000187606570924963530000012713120717078293380_);}
	.st124{fill:url(#SVGID_00000168078167545004339620000012755657236029096088_);}
	.st125{fill:url(#SVGID_00000146491039877643220190000011383719595277194893_);}
	.st126{fill:url(#SVGID_00000051350359877886996240000006655500444012186287_);}
	.st127{fill:url(#SVGID_00000154406005029504535980000011207710967495587202_);}
	.st128{opacity:0.25;fill:url(#SVGID_00000157986921357308781160000005936108422020026533_);}
	.st129{fill:url(#SVGID_00000058583105328890959610000016816156465906140551_);}
	.st130{fill:url(#SVGID_00000055706006500021086760000005990385916525652638_);}
	.st131{fill:url(#SVGID_00000163753859983488656020000012887015766295564190_);}
	.st132{fill:url(#SVGID_00000078008274635889109290000014139345915802558851_);}
	.st133{fill:url(#SVGID_00000160896570375401942990000016000673380075423419_);}
	.st134{fill:url(#SVGID_00000110468991153953576870000015830413882193665163_);}
	.st135{fill:url(#SVGID_00000063592851009572216720000017966403629650749615_);}
	.st136{fill:url(#SVGID_00000152947190859423555270000002945683794998779827_);}
	.st137{clip-path:url(#SVGID_00000106123583095874250100000003103400386784668088_);}
	.st138{clip-path:url(#SVGID_00000044882110149589073990000005854389170159270278_);}
	.st139{clip-path:url(#SVGID_00000034087349123175938520000013569223125089879938_);}
	.st140{fill:url(#SVGID_00000089573222157330408210000005419812337611747510_);}
	.st141{fill:url(#SVGID_00000023973200470492430740000000065127999192848010_);}
	.st142{fill:url(#SVGID_00000065783982433683665710000015132028213373608368_);}
	.st143{fill:url(#SVGID_00000155861641012355614170000004381077908662263448_);}
	.st144{fill:url(#SVGID_00000021806600407699410790000015513268614323701160_);}
	.st145{fill:url(#SVGID_00000111873640491898035750000014568786530116591251_);}
	.st146{fill:url(#SVGID_00000165946202798529520740000005598351378575547300_);}
	.st147{fill:url(#SVGID_00000106830859504263085010000006815699348776752521_);}
	.st148{fill:url(#SVGID_00000050629464491665638800000009004134954642855824_);}
	.st149{fill:url(#SVGID_00000023985730018011555130000012264048908381351593_);}
	.st150{opacity:0.25;fill:url(#SVGID_00000114757736694624002820000010759568148087389339_);}
	.st151{fill:url(#SVGID_00000131341891009482750670000010502917918040212356_);}
	.st152{fill:url(#SVGID_00000119804077138121028160000006433540032872850571_);}
	.st153{fill:url(#SVGID_00000110459980739056908980000004262867042414334108_);}
	.st154{fill:url(#SVGID_00000162315996120990276780000014744149402854795186_);}
	.st155{fill:url(#SVGID_00000051344375405946192990000008426634006478450051_);}
	.st156{fill:url(#SVGID_00000027566881758337733090000005602362059815916199_);}
	.st157{fill:url(#SVGID_00000160170696781113817990000005498210962993352604_);}
	.st158{fill:url(#SVGID_00000177470516869198177230000016352386007031688115_);}
	.st159{fill:url(#SVGID_00000100343530129126834540000006868507223280473998_);}
	.st160{fill:url(#SVGID_00000043456614528606457150000013979038762225576383_);}
	.st161{fill:url(#SVGID_00000022525263668629518620000007986042512636599196_);}
	.st162{fill:url(#SVGID_00000020372800708901958560000014660030225207136190_);}
	.st163{fill:url(#SVGID_00000090278037851691223630000003768188737295320213_);}
	.st164{fill:url(#SVGID_00000150822877751378255710000000050819811843009176_);}
	.st165{fill:url(#SVGID_00000093899178684723936470000014518722192500169883_);}
	.st166{opacity:0.25;fill:url(#SVGID_00000148631462524354652920000003827697353964860826_);}
	.st167{fill:url(#SVGID_00000058565869724154735750000016870203838236808586_);}
	.st168{fill:url(#SVGID_00000043424518430163077930000010891803330715447692_);}
	.st169{fill:url(#SVGID_00000153689847614386421150000005030031538471652244_);}
	.st170{fill:url(#SVGID_00000174560388122923484750000010962546084217884093_);}
	.st171{fill:url(#SVGID_00000008858500510598403430000009124655086663277744_);}
	.st172{fill:url(#SVGID_00000064335689515848031000000004940270082289344166_);}
	.st173{fill:url(#SVGID_00000114043643764000280020000001363185356953448096_);}
	.st174{fill:url(#SVGID_00000157290895594498996980000004858724556733671604_);}
	.st175{fill:url(#SVGID_00000087380701053547997020000011714043492136685198_);}
</style>
<g>
	<g>
		<linearGradient id="SVGID_1_" gradientUnits="userSpaceOnUse" x1="2487.4795" y1="649.4594" x2="2487.4795" y2="327.5368">
			<stop  offset="0" style="stop-color:#F2703E"/>
			<stop  offset="1" style="stop-color:#F89D48"/>
		</linearGradient>
		<path class="st0" d="M3792.2,374.4c-30.4-30.2-71.9-46.8-116.8-46.8c-0.2,0-0.4,0-0.6,0v0H1357.3c-1-0.1-2-0.1-3-0.1h-167.2
			c-28.3,0-51.2,22.9-51.2,51.2v219.5c0,28.3,22.9,51.2,51.2,51.2h48.3c0.1,0,0.1,0,0.2,0h2439.1c0,0,0,0,0,0
			c44.9,0,86.5-16.7,117.1-47.1c30.4-30.1,47.1-70.5,47.1-113.8v-0.6C3839,444.6,3822.4,404.3,3792.2,374.4z"/>
		
			<linearGradient id="SVGID_00000018928783410150656800000016400486785656257687_" gradientUnits="userSpaceOnUse" x1="2487.4792" y1="649.4593" x2="2487.4792" y2="327.5364">
			<stop  offset="0" style="stop-color:#F6944A;stop-opacity:0"/>
			<stop  offset="1" style="stop-color:#FBC090"/>
		</linearGradient>
		<path style="fill:url(#SVGID_00000018928783410150656800000016400486785656257687_);" d="M1354.3,345.3c0.6,0,1.2,0,2,0.1l0.5,0
			h0.5H3657v0h17.8c0.2,0,0.4,0,0.6,0l0.1,0c40.2,0,77.2,14.8,104.3,41.6c26.8,26.6,41.6,62.4,41.6,100.9v0.6
			c0,38.5-14.9,74.5-41.9,101.2c-27.3,27-64.5,41.9-104.7,41.9H1235.6c-0.1,0-0.3,0-0.4,0h-48.1c-18.4,0-33.4-15-33.4-33.4V378.7
			c0-18.4,15-33.4,33.4-33.4H1354.3 M1354.3,327.5h-167.2c-28.3,0-51.2,22.9-51.2,51.2v219.5c0,28.3,22.9,51.2,51.2,51.2h48.3
			c0.1,0,0.1,0,0.2,0h2439.1c0,0,0,0,0,0c44.9,0,86.5-16.7,117.1-47.1c30.4-30.1,47.1-70.5,47.1-113.8v-0.6
			c0-43.3-16.6-83.6-46.8-113.5c-30.4-30.2-71.9-46.8-116.8-46.8c-0.2,0-0.4,0-0.6,0v0H1357.3
			C1356.3,327.6,1355.3,327.5,1354.3,327.5L1354.3,327.5z"/>
	</g>
	<g>
		<g>
			<g>
				<g>
					
						<linearGradient id="SVGID_00000116920572057869987130000003698837814011430560_" gradientUnits="userSpaceOnUse" x1="88.445" y1="738.7578" x2="874.522" y2="-47.3191">
						<stop  offset="0" style="stop-color:#F2703E"/>
						<stop  offset="1" style="stop-color:#F89D48"/>
					</linearGradient>
					<path style="fill:url(#SVGID_00000116920572057869987130000003698837814011430560_);" d="M826.9,0H0v111.4L672.7,348h383.4
						V229.2C1056.1,102.6,953.5,0,826.9,0z M641.9,368L352.2,266.1v416l-128.9,46.2v145.3h512V629.1h-93.4V368z M672.7,598.3h383.4
						V378.8H672.7V598.3z"/>
				</g>
			</g>
			<g>
				
					<linearGradient id="SVGID_00000013180015582192647060000000829637235799358632_" gradientUnits="userSpaceOnUse" x1="1.004115e-04" y1="174.0013" x2="1056.1088" y2="174.0013">
					<stop  offset="0" style="stop-color:#F6944A;stop-opacity:0"/>
					<stop  offset="1" style="stop-color:#FBC090"/>
				</linearGradient>
				<path style="fill:url(#SVGID_00000013180015582192647060000000829637235799358632_);" d="M826.9,17.8
					c116.6,0,211.4,94.8,211.4,211.4v101H675.7L17.8,98.8V17.8H826.9 M826.9,0H0v111.4L672.7,348h383.4V229.2
					C1056.1,102.6,953.5,0,826.9,0L826.9,0z"/>
				<g>
					
						<linearGradient id="SVGID_00000086656475571574115440000007338180298235405213_" gradientUnits="userSpaceOnUse" x1="231.6237" y1="881.9356" x2="693.7598" y2="419.7995">
						<stop  offset="0" style="stop-color:#F6944A;stop-opacity:0"/>
						<stop  offset="1" style="stop-color:#FBC090"/>
					</linearGradient>
					<path style="fill:url(#SVGID_00000086656475571574115440000007338180298235405213_);" d="M370,291.2l254.1,89.4v248.5v17.8
						h17.8h75.5v208.9H241.1v-115l117.1-42l11.8-4.2V682V291.2 M352.2,266.1v416l-128.9,46.2v145.3h512V629.1h-93.4V368L352.2,266.1
						L352.2,266.1z"/>
				</g>
				<g>
					
						<linearGradient id="SVGID_00000109009726739881277130000007906630092805640101_" gradientUnits="userSpaceOnUse" x1="713.6668" y1="639.2708" x2="1015.1336" y2="337.8039">
						<stop  offset="0" style="stop-color:#F6944A;stop-opacity:0"/>
						<stop  offset="1" style="stop-color:#FBC090"/>
					</linearGradient>
					<path style="fill:url(#SVGID_00000109009726739881277130000007906630092805640101_);" d="M1038.3,396.6v183.9H690.5V396.6
						H1038.3 M1056.1,378.8H672.7v219.5h383.4V378.8L1056.1,378.8z"/>
				</g>
			</g>
		</g>
		
			<linearGradient id="SVGID_00000083808758221709118000000004824802008446624691_" gradientUnits="userSpaceOnUse" x1="672.6917" y1="339.0899" x2="1056.1088" y2="339.0899">
			<stop  offset="0" style="stop-color:#E65726"/>
			<stop  offset="1" style="stop-color:#F26F48"/>
		</linearGradient>
		<polygon style="fill:url(#SVGID_00000083808758221709118000000004824802008446624691_);" points="1056.1,348 1038.3,330.2 
			675.7,330.2 672.7,348 		"/>
		
			<linearGradient id="SVGID_00000086693010944753478950000003382985812131429280_" gradientUnits="userSpaceOnUse" x1="768.5458" y1="694.1501" x2="960.2547" y2="502.4413">
			<stop  offset="0" style="stop-color:#E65726"/>
			<stop  offset="1" style="stop-color:#F26F48"/>
		</linearGradient>
		<polygon style="fill:url(#SVGID_00000086693010944753478950000003382985812131429280_);" points="690.5,580.5 672.7,598.3 
			1056.1,598.3 1038.3,580.5 		"/>
		
			<linearGradient id="SVGID_00000136404549181464948390000011547819416121438367_" gradientUnits="userSpaceOnUse" x1="351.2748" y1="1001.5876" x2="607.2753" y2="745.5872">
			<stop  offset="0" style="stop-color:#E65726"/>
			<stop  offset="1" style="stop-color:#F27247"/>
		</linearGradient>
		<polygon style="fill:url(#SVGID_00000136404549181464948390000011547819416121438367_);" points="223.3,873.6 241.1,855.8 
			717.4,855.8 735.3,873.6 		"/>
		
			<linearGradient id="SVGID_00000123436145035699870440000002595249636576679333_" gradientUnits="userSpaceOnUse" x1="186.9406" y1="837.2534" x2="262.2482" y2="761.9458">
			<stop  offset="0" style="stop-color:#E65726"/>
			<stop  offset="1" style="stop-color:#F26F48"/>
		</linearGradient>
		<polygon style="fill:url(#SVGID_00000123436145035699870440000002595249636576679333_);" points="223.3,728.3 241.1,740.8 
			241.1,855.8 223.3,873.6 		"/>
		
			<linearGradient id="SVGID_00000148646955084350393190000013192347257144023439_" gradientUnits="userSpaceOnUse" x1="251.5494" y1="756.5253" x2="341.7519" y2="666.3228">
			<stop  offset="0" style="stop-color:#F2703E"/>
			<stop  offset="1" style="stop-color:#F89D48"/>
		</linearGradient>
		<polyline style="opacity:0.25;fill:url(#SVGID_00000148646955084350393190000013192347257144023439_);" points="352.2,682 
			370,694.6 241.1,740.8 223.3,728.3 		"/>
		
			<linearGradient id="SVGID_00000183957841496790617130000011674659896558523558_" gradientUnits="userSpaceOnUse" x1="255.7954" y1="585.6448" x2="463.7929" y2="377.6473">
			<stop  offset="0" style="stop-color:#E65726"/>
			<stop  offset="1" style="stop-color:#F26F48"/>
		</linearGradient>
		<polygon style="fill:url(#SVGID_00000183957841496790617130000011674659896558523558_);" points="352.2,266.1 352.2,682.1 
			370,694.6 370,291.2 		"/>
		
			<linearGradient id="SVGID_00000008870773745569045770000013877671027946602146_" gradientUnits="userSpaceOnUse" x1="227.3259" y1="338.7169" x2="455.8004" y2="110.2424">
			<stop  offset="0" style="stop-color:#E65726"/>
			<stop  offset="1" style="stop-color:#F27247"/>
		</linearGradient>
		<polygon style="fill:url(#SVGID_00000008870773745569045770000013877671027946602146_);" points="17.8,98.8 0,111.4 672.7,348 
			675.7,330.2 		"/>
		
			<linearGradient id="SVGID_00000075159460252133725070000016497029178455512218_" gradientUnits="userSpaceOnUse" x1="617.8124" y1="543.4167" x2="727.5709" y2="433.6583">
			<stop  offset="0" style="stop-color:#E65726"/>
			<stop  offset="1" style="stop-color:#F26F48"/>
		</linearGradient>
		<polygon style="fill:url(#SVGID_00000075159460252133725070000016497029178455512218_);" points="672.7,378.8 672.7,598.3 
			690.5,580.5 690.5,396.6 		"/>
		
			<linearGradient id="SVGID_00000021083853255097548570000005114042392222126267_" gradientUnits="userSpaceOnUse" x1="-26.5477" y1="84.8433" x2="29.1479" y2="29.1478">
			<stop  offset="0" style="stop-color:#E65726"/>
			<stop  offset="1" style="stop-color:#F27247"/>
		</linearGradient>
		<polygon style="fill:url(#SVGID_00000021083853255097548570000005114042392222126267_);" points="0,0 0,111.4 17.8,98.8 
			17.8,17.8 		"/>
		
			<linearGradient id="SVGID_00000147181193805797474160000000561221600823868083_" gradientUnits="userSpaceOnUse" x1="624.0901" y1="637.9847" x2="735.2752" y2="637.9847">
			<stop  offset="0" style="stop-color:#FBC090;stop-opacity:0.5"/>
			<stop  offset="1" style="stop-color:#FBC090"/>
		</linearGradient>
		<polygon style="fill:url(#SVGID_00000147181193805797474160000000561221600823868083_);" points="641.9,629.1 624.1,646.9 
			717.4,646.9 735.3,629.1 		"/>
		
			<linearGradient id="SVGID_00000109752029779968219420000014698134307215894168_" gradientUnits="userSpaceOnUse" x1="768.5458" y1="474.634" x2="960.2547" y2="282.9251">
			<stop  offset="0" style="stop-color:#FBC090;stop-opacity:0"/>
			<stop  offset="1" style="stop-color:#FBC090"/>
		</linearGradient>
		<polygon style="fill:url(#SVGID_00000109752029779968219420000014698134307215894168_);" points="1038.3,396.6 1056.1,378.8 
			672.7,378.8 690.5,396.6 		"/>
		
			<linearGradient id="SVGID_00000127752791294021462960000007156310761279224489_" gradientUnits="userSpaceOnUse" x1="446.4341" y1="367.629" x2="544.0116" y2="270.0515">
			<stop  offset="0" style="stop-color:#F2703E;stop-opacity:0.5"/>
			<stop  offset="1" style="stop-color:#F89D48;stop-opacity:0.2"/>
		</linearGradient>
		<polygon style="fill:url(#SVGID_00000127752791294021462960000007156310761279224489_);" points="624.1,380.6 641.9,368 
			352.2,266.1 370,291.2 		"/>
	</g>
	<g>
		<polygon points="1187.2,598.3 1235.5,598.3 1235.5,513.3 1340.2,513.3 1340.2,469.4 1235.5,469.4 1235.5,422.6 1354.3,422.6 
			1354.3,378.7 1187.2,378.7 		"/>
		<rect x="1379.4" y="378.7" width="48.3" height="219.5"/>
		<polygon points="1514.6,458.7 1620.9,598.3 1662,598.3 1662,378.7 1614.3,378.7 1614.3,513.9 1511.4,378.7 1466.9,378.7 
			1466.9,598.3 1514.6,598.3 		"/>
		<path d="M1729.4,598.3l20.1-49.2h92.8l20.1,49.2h50.5l-94.1-221.1h-44.5l-94.1,221.1H1729.4z M1795.9,435.2l29.2,71.2h-58.3
			L1795.9,435.2z"/>
		<polygon points="2088.8,554.4 1979.3,554.4 1979.3,378.7 1931,378.7 1931,598.3 2088.8,598.3 		"/>
		<path d="M2374.5,538.1v-0.6c0-29.5-15.7-44.2-41.1-53.9c15.7-8.8,28.9-22.6,28.9-47.4v-0.6c0-34.5-27.6-56.8-72.4-56.8h-101.9
			v219.5h104.4C2341.9,598.3,2374.5,578.2,2374.5,538.1z M2234.9,421.1h47.7c20.4,0,31.7,8.2,31.7,22.6v0.6
			c0,16.3-13.5,23.2-34.8,23.2h-44.5V421.1z M2234.9,507.6h55.8c24.8,0,35.8,9.1,35.8,23.8v0.6c0,16.3-12.9,23.8-34.2,23.8h-57.4
			V507.6z"/>
		<path d="M2586.5,378.7h-48.3v125.8c0,34.8-17.9,52.7-47.4,52.7c-29.5,0-47.4-18.5-47.4-54.3V378.7h-48.3v125.4
			c0,64.6,36.1,97.5,95,97.5c59,0,96.3-32.6,96.3-99.1V378.7z"/>
		<path d="M2668.3,528h37.9l47,70.3h56.5l-53.6-78.4c27.9-10.3,47-32.6,47-68.1v-0.6c0-45.2-31-72.4-82.8-72.4H2620v219.5h48.3V528z
			 M2668.3,422.3h48c23.5,0,37.9,10.7,37.9,31.4v0.6c0,18.5-13.5,31-37,31h-48.9V422.3z"/>
		<polygon points="2878.8,458.7 2985.1,598.3 3026.2,598.3 3026.2,378.7 2978.5,378.7 2978.5,513.9 2875.6,378.7 2831.1,378.7 
			2831.1,598.3 2878.8,598.3 		"/>
		<polygon points="3141.6,378.7 3141.6,598.3 3189.2,598.3 3189.2,458.7 3295.6,598.3 3336.6,598.3 3336.6,378.7 3289,378.7 
			3289,513.9 3186.1,378.7 		"/>
		<polygon points="3539.2,421.7 3539.2,378.7 3373.6,378.7 3373.6,598.3 3540.8,598.3 3540.8,555.3 3421.6,555.3 3421.6,509.2 
			3525.1,509.2 3525.1,466.2 3421.6,466.2 3421.6,421.7 		"/>
		<path d="M3675.3,377.6c-66.2,0-114.3,49.9-114.3,110.9v0.6c0,61,47.5,110.3,113.7,110.3c66.2,0,114.3-49.9,114.3-110.9v-0.6
			C3789,427,3741.5,377.6,3675.3,377.6z M3739.7,489.2c0,36.8-26.3,66.8-64.3,66.8c-38,0-64.9-30.6-64.9-67.4v-0.6
			c0-36.8,26.3-66.8,64.3-66.8c38,0,64.9,30.6,64.9,67.4V489.2z"/>
	</g>
</g>
</svg>
