<?xml version="1.0" encoding="utf-8"?>
<!-- Generator: Adobe Illustrator 25.4.1, SVG Export Plug-In . SVG Version: 6.00 Build 0)  -->
<svg version="1.1" id="Layer_1" xmlns="http://www.w3.org/2000/svg" xmlns:xlink="http://www.w3.org/1999/xlink" x="0px" y="0px"
	 viewBox="0 0 3839 950.2" style="enable-background:new 0 0 3839 950.2;" xml:space="preserve">
<style type="text/css">
	.st0{fill:#FFFFFF;}
	.st1{fill:#912620;}
	.st2{fill:#008471;}
	.st3{fill:#005090;}
	.st4{fill:#B22D2A;}
	.st5{fill:#B32D2A;}
	.st6{fill:#B42D2A;}
	.st7{fill:#B52D2A;}
	.st8{fill:#B62D2A;}
	.st9{fill:#B72D29;}
	.st10{fill:#B82D29;}
	.st11{fill:#B92D29;}
	.st12{fill:#BA2D29;}
	.st13{fill:#BB2D29;}
	.st14{fill:#BC2D29;}
	.st15{fill:#BD2D29;}
	.st16{fill:#BE2D29;}
	.st17{fill:#BF2D29;}
	.st18{fill:#C02D29;}
	.st19{fill:#C12D28;}
	.st20{fill:#C22D28;}
	.st21{fill:#C32D28;}
	.st22{fill:#C42D28;}
	.st23{fill:#C52D28;}
	.st24{fill:#C62D28;}
	.st25{fill:#C72D28;}
	.st26{fill:#C82D28;}
	.st27{fill:#C92D28;}
	.st28{fill:#CA2D28;}
	.st29{fill:#CA2E27;}
	.st30{fill:#CB2E27;}
	.st31{fill:#CC2E27;}
	.st32{fill:#CD2E27;}
	.st33{fill:#CE2E27;}
	.st34{fill:#CF2E27;}
	.st35{fill:#D02E27;}
	.st36{fill:#D12E27;}
	.st37{fill:#D22E27;}
	.st38{fill:#D32E27;}
	.st39{fill:#D42E26;}
	.st40{fill:#D52E26;}
	.st41{fill:#D62E26;}
	.st42{fill:#D72E26;}
	.st43{fill:#D82E26;}
	.st44{fill:#D92E26;}
	.st45{fill:#DA2E26;}
	.st46{fill:#DB2E26;}
	.st47{fill:#DC2E26;}
	.st48{fill:#DD2E26;}
	.st49{fill:#DE2E25;}
	.st50{fill:#DF2E25;}
	.st51{fill:#E02E25;}
	.st52{fill:#E12E25;}
	.st53{fill:#E22E25;}
	.st54{fill:#009588;}
	.st55{fill:#009587;}
	.st56{fill:#019486;}
	.st57{fill:#019485;}
	.st58{fill:#019384;}
	.st59{fill:#029383;}
	.st60{fill:#029382;}
	.st61{fill:#029281;}
	.st62{fill:#039280;}
	.st63{fill:#03917F;}
	.st64{fill:#03917E;}
	.st65{fill:#03917D;}
	.st66{fill:#04907C;}
	.st67{fill:#04907B;}
	.st68{fill:#048F7A;}
	.st69{fill:#058F79;}
	.st70{fill:#058F78;}
	.st71{fill:#058E77;}
	.st72{fill:#068E76;}
	.st73{fill:#068D75;}
	.st74{fill:#068D74;}
	.st75{fill:#078D73;}
	.st76{fill:#078C72;}
	.st77{fill:#078C71;}
	.st78{fill:#088B70;}
	.st79{fill:#088B6F;}
	.st80{fill:#088B6E;}
	.st81{fill:#088A6D;}
	.st82{fill:#098A6C;}
	.st83{fill:#09896B;}
	.st84{fill:#09896A;}
	.st85{fill:#0A8969;}
	.st86{fill:#0A8868;}
	.st87{fill:#0A8867;}
	.st88{fill:#0B8766;}
	.st89{fill:#0B8765;}
	.st90{fill:#0B8764;}
	.st91{fill:#0C8663;}
	.st92{fill:#0C8662;}
	.st93{fill:#0C8561;}
	.st94{fill:#0D8560;}
	.st95{fill:#0D845F;}
	.st96{fill:#0D845E;}
	.st97{fill:#0E835D;}
	.st98{fill:#0E835C;}
	.st99{fill:#0E835B;}
	.st100{fill:#0F825A;}
	.st101{fill:#0F8259;}
	.st102{fill:#0F8158;}
	.st103{fill:#108157;}
	.st104{fill:#108156;}
	.st105{fill:#108055;}
	.st106{fill:#118054;}
	.st107{fill:#117F53;}
	.st108{fill:#117F52;}
	.st109{fill:#117F51;}
	.st110{fill:#127E50;}
	.st111{fill:#127E4F;}
	.st112{fill:#127D4E;}
	.st113{fill:#137D4D;}
	.st114{fill:#137D4C;}
	.st115{fill:#137C4B;}
	.st116{fill:#147C4A;}
	.st117{fill:#147B49;}
	.st118{fill:#147B48;}
	.st119{fill:#157B47;}
	.st120{fill:#157A46;}
	.st121{fill:#157A45;}
	.st122{fill:#167944;}
	.st123{fill:#167943;}
	.st124{fill:#167942;}
	.st125{fill:#167841;}
	.st126{fill:#177840;}
	.st127{fill:#17773F;}
	.st128{fill:#17773E;}
	.st129{fill:#18773D;}
	.st130{fill:#18763C;}
	.st131{fill:#18763B;}
	.st132{fill:#19753A;}
	.st133{fill:#197539;}
	.st134{fill:#005EAA;}
	.st135{fill:#005EAB;}
	.st136{fill:#015FAC;}
	.st137{fill:#015FAD;}
	.st138{fill:#0160AE;}
	.st139{fill:#0260AF;}
	.st140{fill:#0261B0;}
	.st141{fill:#0261B1;}
	.st142{fill:#0362B2;}
	.st143{fill:#0362B3;}
	.st144{fill:#0362B4;}
	.st145{fill:#0463B5;}
	.st146{fill:#0463B6;}
	.st147{fill:#0464B7;}
	.st148{fill:#0564B8;}
	.st149{fill:#0565B9;}
	.st150{fill:#0565BA;}
	.st151{fill:#0666BB;}
	.st152{fill:#0666BC;}
	.st153{fill:#0666BD;}
	.st154{fill:#0767BE;}
	.st155{fill:#0767BF;}
	.st156{fill:#0768BF;}
	.st157{fill:#0768C0;}
	.st158{fill:#0869C1;}
	.st159{fill:#0869C2;}
	.st160{fill:#0869C3;}
	.st161{fill:#096AC4;}
	.st162{fill:#096AC5;}
	.st163{fill:#096BC6;}
	.st164{fill:#0A6BC7;}
	.st165{fill:#0A6CC8;}
	.st166{fill:#0A6CC9;}
	.st167{fill:#0B6DCA;}
	.st168{fill:#0B6DCB;}
	.st169{fill:#0B6DCC;}
	.st170{fill:#0C6ECD;}
	.st171{fill:#0C6ECE;}
	.st172{fill:#0C6FCF;}
	.st173{fill:#0D6FD0;}
	.st174{fill:#0D70D1;}
	.st175{fill:#0D70D2;}
	.st176{fill:#0E71D3;}
	.st177{fill:#0E71D4;}
	.st178{fill:#0058B7;}
	.st179{fill:#0058B6;}
	.st180{fill:#0057B5;}
	.st181{fill:#0057B4;}
	.st182{fill:#0057B3;}
	.st183{fill:#0057B2;}
	.st184{fill:#0056B1;}
	.st185{fill:#0056B0;}
	.st186{fill:#0056AF;}
	.st187{fill:#0056AE;}
	.st188{fill:#0055AD;}
	.st189{fill:#0055AC;}
	.st190{fill:#0055AB;}
	.st191{fill:#0055AA;}
	.st192{fill:#0054A9;}
	.st193{fill:#0054A8;}
	.st194{fill:#0054A7;}
	.st195{fill:#0054A6;}
	.st196{fill:#0053A5;}
	.st197{fill:#0053A4;}
	.st198{fill:#0053A3;}
	.st199{fill:#0053A2;}
	.st200{fill:#0052A1;}
	.st201{fill:#0052A0;}
	.st202{fill:#00529F;}
	.st203{fill:#00529E;}
	.st204{fill:#00519D;}
	.st205{fill:#00519C;}
	.st206{fill:#00519B;}
	.st207{fill:#00519A;}
	.st208{fill:#005099;}
	.st209{fill:#005098;}
	.st210{fill:#005097;}
	.st211{fill:#005096;}
	.st212{fill:#004F95;}
	.st213{fill:#004F94;}
	.st214{fill:#004F93;}
	.st215{fill:#004F92;}
	.st216{fill:#004E91;}
	.st217{fill:#004E90;}
	.st218{fill:#004E8F;}
	.st219{fill:#004E8E;}
	.st220{fill:#004D8D;}
	.st221{fill:#004D8C;}
	.st222{fill:#004D8B;}
	.st223{fill:#004D8A;}
	.st224{fill:#004C89;}
	.st225{fill:#004C88;}
	.st226{fill:#008472;}
	.st227{fill:#008572;}
	.st228{fill:#008671;}
	.st229{fill:#008771;}
	.st230{fill:#008871;}
	.st231{fill:#008970;}
	.st232{fill:#008A70;}
	.st233{fill:#008B6F;}
	.st234{fill:#008C6F;}
	.st235{fill:#008D6F;}
	.st236{fill:#008E6E;}
	.st237{fill:#008F6E;}
	.st238{fill:#00906D;}
	.st239{fill:#00916D;}
	.st240{fill:#00926D;}
	.st241{fill:#00936C;}
	.st242{fill:#00946C;}
	.st243{fill:#00956B;}
	.st244{fill:#00966B;}
	.st245{fill:#00976B;}
	.st246{fill:#00986A;}
	.st247{fill:#00996A;}
	.st248{fill:#D60700;}
	.st249{fill:#034693;}
	.st250{fill:url(#SVGID_1_);}
	.st251{fill:url(#SVGID_00000158020887012343810220000009321575274651498881_);}
	.st252{fill:url(#SVGID_00000091736581665965496830000014822813125172276630_);}
	.st253{fill:url(#SVGID_00000046329176638500519590000018321469757716025238_);}
	.st254{fill:url(#SVGID_00000004527042209056595590000011786575711801045915_);}
	.st255{fill:url(#SVGID_00000081640359202083664400000010913655975073833889_);}
	.st256{fill:url(#SVGID_00000167357484182165831550000002224730126930221213_);}
	.st257{fill:url(#SVGID_00000024699150645449435220000017509024545970573973_);}
	.st258{fill:url(#SVGID_00000093134530250908980170000005322038731010597053_);}
	.st259{fill:url(#SVGID_00000155829615659436810330000001025962786487748004_);}
	.st260{fill:url(#SVGID_00000090266021602280770420000002769907653521892998_);}
	.st261{fill:url(#SVGID_00000153701399761574873850000008589613473225431482_);}
	.st262{fill:url(#SVGID_00000100378589555051337490000013264741871964830120_);}
	.st263{fill:url(#SVGID_00000004510248322496242900000013938038893122233785_);}
	.st264{fill:url(#SVGID_00000133492550596299583150000001398694405173693585_);}
	.st265{fill:url(#SVGID_00000047747789841014810370000004736732262167277227_);}
	.st266{fill:url(#SVGID_00000151504604682498737560000015423017904207632550_);}
	.st267{fill:url(#SVGID_00000084518580048902394990000016637109329908843695_);}
	.st268{fill:url(#SVGID_00000094599114905330910430000012271044168135139764_);}
	.st269{fill:url(#SVGID_00000005967526760580301920000005376890999577866649_);}
	.st270{fill:url(#SVGID_00000065063674212389669760000006003638971083546301_);}
	.st271{fill:url(#SVGID_00000068670217327371718110000001132445224553631167_);}
	.st272{fill:url(#SVGID_00000029029640278118289510000008317963943648318620_);}
	.st273{fill:url(#SVGID_00000070828417998814155090000000545647297493645500_);}
	.st274{fill:url(#SVGID_00000170957310348808585700000013511141016374320771_);}
	.st275{fill:url(#SVGID_00000085935100459149585820000016465540807076119742_);}
	.st276{fill:url(#SVGID_00000133525110172654398370000005160139247198580610_);}
	.st277{fill:url(#SVGID_00000026142517307773823600000000989511876739897268_);}
	.st278{fill:url(#SVGID_00000073684408170337059720000011238115063828968580_);}
	.st279{fill:url(#SVGID_00000160150824852690045950000007756770103663982216_);}
	.st280{fill:url(#SVGID_00000010299238533748533780000017169148685287755157_);}
	.st281{fill:url(#SVGID_00000112612194407178833290000002111028605864575885_);}
	.st282{fill:url(#SVGID_00000033337516255549277980000003860760101026778008_);}
	.st283{fill:url(#SVGID_00000119112749094612363700000002060910634720673154_);}
	.st284{fill:url(#SVGID_00000066488165254265326520000005083472568435853972_);}
	.st285{fill:url(#SVGID_00000168107861025895585160000000160333558143281065_);}
	.st286{fill:url(#SVGID_00000132769377388337782310000007836211162234346422_);}
	.st287{fill:url(#SVGID_00000048467149059670964370000015645522717108792469_);}
	.st288{fill:url(#SVGID_00000052813296798473744080000010266617472105483407_);}
	.st289{fill:url(#SVGID_00000117648621743818411060000004982612015175117243_);}
	.st290{fill:url(#SVGID_00000013151264545067520870000009247486541647624599_);}
	.st291{fill:url(#SVGID_00000070116511131038700530000001972580272245790120_);}
	.st292{fill:url(#SVGID_00000083778367548697899610000006025310147655824541_);}
	.st293{fill:url(#SVGID_00000086690183103253964390000013528280362241012352_);}
	.st294{fill:url(#SVGID_00000044155221900271586890000008755197876310432656_);}
	.st295{fill:url(#SVGID_00000077282461130035538140000012210420580280468865_);}
	.st296{fill:url(#SVGID_00000150075823897501456550000010721161756820411786_);}
	.st297{fill:url(#SVGID_00000115499137191106644040000001471119411836685954_);}
	.st298{fill:url(#SVGID_00000093167399842650796390000003000247927993574583_);}
	.st299{fill:url(#SVGID_00000153672888567203124080000011873272202641612191_);}
	.st300{fill:url(#SVGID_00000008114236314545038410000011993534931261319608_);}
	.st301{fill:url(#SVGID_00000051341726133405030930000004018190286478890150_);}
	.st302{fill:url(#SVGID_00000024693346884940639040000004424033374418701984_);}
	.st303{fill:url(#SVGID_00000029732788224270133740000008475034498920830891_);}
	.st304{fill:url(#SVGID_00000018948153751997311970000001735644317095233410_);}
	.st305{fill:url(#SVGID_00000016043994651880239650000001389596225218165121_);}
	.st306{fill:url(#SVGID_00000074403118351650299380000005730097653973619384_);}
	.st307{fill:url(#SVGID_00000147939559499476599460000010602606736143891331_);}
	.st308{fill:url(#SVGID_00000064342120716067347370000005430592697603683742_);}
	.st309{fill:url(#SVGID_00000030486013458251934280000011104146036140958140_);}
	.st310{fill:url(#SVGID_00000083089786590047850640000015104034412064909749_);}
	.st311{fill:url(#SVGID_00000110435545624135756580000013004007356547161222_);}
	.st312{fill:url(#SVGID_00000036959919348819352520000011664501210436527256_);}
	.st313{fill:url(#SVGID_00000171718572520997047410000000752769017886925456_);}
	.st314{fill:url(#SVGID_00000073688420294056266470000009183570718713826480_);}
	.st315{fill:url(#SVGID_00000120561084199696373690000015667954617718035611_);}
	.st316{fill:url(#SVGID_00000001649886904481564050000009893993427277132164_);}
	.st317{fill:url(#SVGID_00000036946512676366736550000001096813594318223497_);}
	.st318{fill:url(#SVGID_00000122682588202848736860000002889705017961523890_);}
	.st319{fill:url(#SVGID_00000129927681017278077700000001073518148998507943_);}
	.st320{fill:url(#SVGID_00000060751324007442318720000017717898756280329092_);}
	.st321{fill:url(#SVGID_00000134939904179513544980000011621097383405171080_);}
	.st322{fill:url(#SVGID_00000126317798505687697900000013073076038309514911_);}
	.st323{fill:url(#SVGID_00000093158625808966917960000011076968559749320625_);}
	.st324{fill:url(#SVGID_00000006686726737321060200000013516894410501099687_);}
	.st325{fill:url(#SVGID_00000137833648739235680260000004710461228470936963_);}
	.st326{fill:url(#SVGID_00000137126715967512970220000009569356386622234279_);}
	.st327{fill:url(#SVGID_00000027606804715534601650000002961292935387119526_);}
	.st328{fill:url(#SVGID_00000149340411379469677960000009848894033619393440_);}
	.st329{fill:url(#SVGID_00000070835676186891241650000003865720328341961637_);}
	.st330{fill:url(#SVGID_00000145749276514198041240000007020350792085258913_);}
	.st331{fill:url(#SVGID_00000005979774710127359400000006174954398133635751_);}
	.st332{fill:url(#SVGID_00000155861802176329985160000015006822123489990038_);}
	.st333{fill:url(#SVGID_00000076604117708415550800000013145486354906776212_);}
	.st334{fill:url(#SVGID_00000031914361081318559180000017787738805806377857_);}
	.st335{fill:url(#SVGID_00000170957781136370227730000011252996559542087356_);}
	.st336{fill:url(#SVGID_00000021838985524940590830000013210310831853101720_);}
	.st337{fill:url(#SVGID_00000029736963609513811340000015159042836924293301_);}
	.st338{fill:url(#SVGID_00000165920601135648998860000010853238959001576841_);}
	.st339{fill:url(#SVGID_00000120559009979230630890000002042138424235420048_);}
	.st340{fill:url(#SVGID_00000146495176904464167310000014676825580015876788_);}
	.st341{fill:url(#SVGID_00000032644046981737766240000011713889694261694373_);}
	.st342{fill:url(#SVGID_00000014599710385680931480000016005680637435624603_);}
	.st343{fill:url(#SVGID_00000098929316249190562260000005191004816965948819_);}
	.st344{fill:url(#SVGID_00000153699451460997935780000015159767527123119495_);}
	.st345{fill:url(#SVGID_00000166658024451474815710000004106936803187789713_);}
	.st346{fill:#034693;stroke:#FFFFFF;stroke-width:25.205;stroke-miterlimit:10;}
	.st347{fill:url(#SVGID_00000101808874162406497600000007231326677468610489_);}
	.st348{fill:url(#SVGID_00000002368745503722952620000002991599823679091374_);}
	.st349{fill:url(#SVGID_00000007419066995894404710000015172176305815049362_);}
	.st350{fill:url(#SVGID_00000077286695186778768320000017114109669664699067_);}
	.st351{fill:url(#SVGID_00000140715523356572417850000008045140760931771533_);}
	.st352{fill:url(#SVGID_00000126316363418433076810000011898974009760057743_);}
	.st353{fill:url(#SVGID_00000084517395780126037030000011873726681913927081_);}
	.st354{fill:url(#SVGID_00000009561738021326478620000001025160426794616724_);}
</style>
<g>
	<g>
		<g>
			<g>
				<path class="st0" d="M2875,66c-12.1-38.5-48.4-66-90.2-66c-41.8,0-78.1,27.5-90.2,66l-31.9,94.6V5.5h-167.1
					c-29.7,0-57.2,12.1-78.1,31.9V5.5h-171.5c-31.9,0-60.5,13.2-81.4,35.2V5.5H2002c-69.3,0-126.5,57.2-126.5,126.5
					c0,33,13.2,63.8,34.1,85.8h-34.1v147.4h162.7c46.2,0,85.8-24.2,108.9-61.6c18.7,36.3,56.1,61.6,100.1,61.6h172.6v-31.9
					c19.8,19.8,47.3,31.9,78.1,31.9H2975L2875,66z"/>
				<g>
					<g>
						<path class="st249" d="M2038.2,244.1h-137.5V287h137.5c26.4,0,48.4-22,48.4-48.4s-22-48.4-48.4-48.4H2003
							c-31.9,0-58.3-26.4-58.3-58.3s26.4-58.3,58.3-58.3h136.4V30.8h-137.5c-56.1,0-101.2,45.1-101.2,101.2s45.1,101.2,101.2,101.2
							h35.2c3.3,0,5.5,2.2,5.5,5.5C2042.6,241.9,2040.4,244.1,2038.2,244.1z"/>
						<path class="st249" d="M2001.9,127.6h137.5v-44h-137.5c-26.4,0-48.4,22-48.4,48.4s22,48.4,48.4,48.4h35.2
							c31.9,0,58.3,26.4,58.3,58.3s-26.4,58.3-58.3,58.3h-136.4v42.9h137.5c56.1,0,101.2-45.1,101.2-101.2s-45.1-101.2-101.2-101.2
							H2003c-3.3,0-5.5-2.2-5.5-5.5C1997.5,129.8,1999.7,127.6,2001.9,127.6z"/>
					</g>
					<g>
						<path class="st249" d="M2495.6,83.6c-18.7,0-33,14.3-33,33v137.5c0,18.7,14.3,33,33,33h89v-96.9h-68.2v42.9h25.3v9.9h-25.3
							c-5.5,0-9.9-4.4-9.9-9.9v-96.7c0-5.5,4.4-9.9,9.9-9.9h122.1V83.6H2495.6z"/>
						<path class="st249" d="M2766.1,287h100.1L2798,84.7c-2.2-5.5-6.6-9.9-13.2-9.9c-5.5,0-11,4.4-13.2,8.8l-88,256.2h50.6
							l30.8-91.3V287H2766.1z M2783.7,194.6l14.3,44h-29.7L2783.7,194.6z"/>
						<path class="st249" d="M2850.8,75.9c-8.8-28.6-35.2-50.6-67.1-50.6c-31.9,0-58.3,20.9-66,49.5l-80.3,235.3V137.5h-121v42.9
							h79.2v116.6h-99c-24.2,0-42.9-19.8-42.9-42.9V116.6c0-24.2,19.8-42.9,42.9-42.9h141.9V30.8h-143c-47.3,0-85.8,38.5-85.8,85.8
							v137.5c0,47.3,38.5,85.8,85.8,85.8h177.1l89.1-258.4c3.3-9.9,12.1-16.5,23.1-16.5c11,0,19.8,6.6,23.1,16.5l72.6,215.5h-114.4
							v42.9h173.7l0,0L2850.8,75.9z"/>
					</g>
					<g>
						<path class="st249" d="M2246.1,296.9c-24.2,0-42.9-19.8-42.9-42.9V116.5c0-24.2,19.8-42.9,42.9-42.9h147.4V30.8h-147.4
							c-47.3,0-85.8,38.5-85.8,85.8v137.5c0,47.3,38.5,85.8,85.8,85.8h147.4v-42.9L2246.1,296.9L2246.1,296.9z"/>
						<path class="st249" d="M2256,234.2h106.7v-42.9h-149.6v63.8c0,18.7,14.3,33,33,33h147.4v-42.9h-127.6
							C2260.4,244.1,2256,239.7,2256,234.2z"/>
						<path class="st249" d="M2362.6,137.5h-106.7c0-5.5,4.4-9.9,9.9-9.9h126.5v-44H2246c-18.7,0-33,14.3-33,33v63.8h149.6V137.5z"
							/>
					</g>
				</g>
			</g>
		</g>
	</g>
	<g>
		<path class="st248" d="M64.7,940.1c-11.9,0-22.6-2.8-31.8-8.5C4.6,914.4-6,873.3,3.2,815.9c8.7-54.3,34-118,71.4-179.1
			c31.8-52.1,68.7-96.9,106.9-129.7c38.7-33.2,74.8-50.7,104.5-50.7c11.9,0,22.6,2.8,31.8,8.5c28.3,17.3,38.9,58.4,29.7,115.8
			c-8.7,54.3-34,118-71.4,179.1c-31.8,52.1-68.7,96.9-106.9,129.7C130.5,922.6,94.4,940.1,64.7,940.1z"/>
		<path class="st239" d="M392.2,940.1c-11.9,0-22.6-2.8-31.8-8.5c-28.3-17.3-38.9-58.4-29.7-115.8c8.7-54.3,34-118,71.4-179.1
			c31.8-52.1,68.7-96.9,106.9-129.7c38.7-33.2,74.8-50.7,104.5-50.7c11.9,0,22.6,2.8,31.8,8.5c28.3,17.3,38.9,58.4,29.7,115.8
			c-8.7,54.3-34,118-71.4,179.1c-31.8,52.1-68.7,96.9-106.9,129.7C458,922.6,421.9,940.1,392.2,940.1z"/>
		<path class="st249" d="M719.8,940.1c-11.9,0-22.6-2.8-31.8-8.5c-28.3-17.3-38.9-58.4-29.7-115.8c8.7-54.3,34-118,71.4-179.1
			c31.8-52.1,68.7-96.9,106.9-129.7c38.7-33.2,74.8-50.7,104.5-50.7c11.9,0,22.6,2.8,31.8,8.5c14.4,8.8,24.3,23.6,29.3,44.2
			c14.2,58.4-13.7,156.9-70.9,250.7c-31.8,52.1-68.7,96.9-106.9,129.7C785.6,922.6,749.4,940.1,719.8,940.1z"/>
	</g>
	<g>
		<g>
			<path class="st0" d="M3506.4,920l-1.9-21.9l-30.3-340.6c-2.4-27-14.8-51.1-34.8-67.8c-18.1-15.2-41.4-23.6-65.5-23.6
				c-20,0-39.2,5.8-55.5,16.7c-16.2,10.9-28.9,26.5-36.7,45.1c0,0,0,0.1,0,0.1l0,0l-148.2,358.3l-11.5,27.8
				c-2.6,6.2-1.9,13.3,1.9,18.8s10,8.9,16.7,8.9h30h86h13.4c8.1,0,15.4-4.9,18.6-12.4l5.1-12.4l20.4-49.3h27.2l3.4,37.5l1.6,18.3
				c0.9,10.4,9.6,18.3,20,18.3h18.4h79.8h21.9c5.6,0,11-2.4,14.8-6.5C3505,931.2,3506.9,925.6,3506.4,920z M3464.5,921.8h-79.8
				h-18.4l-1.6-18.3l-5-55.8h-59l-25.5,61.7l-5.1,12.4h-13.4h-86h-30L3152,894l148.2-358.3l0,0l0,0l0,0
				c12.7-30.5,40.9-49.4,73.6-49.4c19.4,0,38.1,6.7,52.6,18.9c15.9,13.3,25.8,32.6,27.7,54.2l30.3,340.6l1.9,21.9H3464.5z"/>
		</g>
		<path class="st0" d="M3204.8,487.7l-3.4,23l-11.7,79.3l-2.5,17.1h-17.3h-110.4l-6,40.2h83.5h23.2l-3.4,23l-11.7,79.5l-2.5,17.2
			h-17.3h-89.7l-5.3,35.1h104.1h23.3l-3.4,23l-11.9,79.5l-2.6,17.1h-17.3h-127.6h-26.6c-19.3,0-37.6-8.4-50.3-23
			c-12.6-14.7-18.2-34-15.4-53.1l45.3-301.5c2.3-15.7,10.3-30.1,22.3-40.5c12-10.3,27.4-16,43.3-16h168H3204.8 M3181.5,507.7h-168
			c-22.9,0-42.4,16.7-45.8,39.4l-45.3,301.5c-4.2,27.9,17.5,53.1,45.8,53.1h26.6h127.6l11.9-79.5h-127.4l11.3-75.3h107l11.7-79.5
			H3030l12.1-80.3h127.7L3181.5,507.7 M3157.5,802.1L3157.5,802.1 M3204.8,467.6h-23.3h-168c-20.7,0-40.7,7.4-56.4,20.9
			c-15.7,13.5-26.1,32.2-29.1,52.7l-45.3,301.4c-3.7,24.9,3.6,50.1,20,69.2c16.4,19.1,40.3,30,65.5,30h26.6h127.6h17.3
			c9.9,0,18.4-7.3,19.9-17.1l2.6-17.1l11.9-79.5l3.4-22.6c0.2-1.1,0.3-2.3,0.3-3.4c0-11.1-9-20.1-20.1-20.1h0h-1.7
			c3.4-3,5.8-7.3,6.6-12.1l2.5-17.2l11.7-79.5l3.4-23c0.8-5.8-0.9-11.6-4.7-16c-3.8-4.4-9.4-7-15.2-7h-23.2h-60.2l0,0h93.1h17.3
			c10,0,18.4-7.3,19.9-17.1l2.5-17.1l11.7-79.3l3.4-23c0.9-5.8-0.8-11.6-4.7-16.1C3216.1,470.1,3210.6,467.6,3204.8,467.6
			L3204.8,467.6z M3204.8,507.7L3204.8,507.7L3204.8,507.7L3204.8,507.7z M2968.2,881.6c-7.7,0-14.8-3.2-19.8-9.1
			c-5-5.8-7.2-13.4-6.1-21l45.3-301.5c1.9-12.9,12.8-22.3,25.9-22.3h144.8l-5.8,39.2H3042c-9.9,0-18.4,7.3-19.9,17.1l-12.1,80.3
			c-0.9,5.8,0.8,11.7,4.6,16.1c3.8,4.4,9.4,7,15.2,7h83.6l-5.8,39.4h-89.7c-9.9,0-18.4,7.3-19.9,17.1l-11.3,75.3
			c-0.9,5.8,0.8,11.7,4.6,16.1c3.8,4.4,9.4,7,15.2,7h104.1l-5.9,39.4h-110.3H2968.2L2968.2,881.6z"/>
		<path class="st0" d="M2735.3,466.4c25.9,0,51.2,6.1,75,18c18.7,9.4,36.6,22.4,53,38.6c27.7,27.3,42.1,54.7,42.7,55.9l9.3,17.8
			l-17.8,9.3l-70.8,37l-17.4,9.2l-9.5-17.2c-0.3-0.6-7.7-13.4-20-25.8c-10.3-10.4-26.4-22.7-44.6-22.7c-27.7,0-54.4,14.2-75.3,40
			c-19.3,23.9-31.6,55.3-33,84c-1.6,33,5.8,58.2,21.7,74.9c15.3,16.1,34.5,19.6,40.6,19.6c21.3,0,41.6-8.3,58.4-23.2h-51.5h-30.1
			l11.5-27.8l32.9-79.5l5.1-12.4h13.4h91.1h33.1c18.8,0,35.9,8.6,47.1,23.7c11.2,15,14.5,33.8,9.1,51.7
			c-8.5,28.3-28.7,82.3-68.7,126.2c-18.6,20.4-39.3,36.3-61.7,47.4c-25.4,12.6-53,18.9-82,18.9c-19.8,0-43-5-65.3-14.1
			c-27.1-11-51.7-27.7-71.2-48.1c-18.6-19.5-32.8-42.5-42.2-68.3c-10.6-29-15.1-61.8-13.4-97.3c2.5-52.5,26.8-110.5,65-155.1
			c20.9-24.5,45-43.8,71.4-57.6C2671,474.2,2702.6,466.4,2735.3,466.4 M2697.2,910c109.6,0,169.8-100.1,193.2-178.3
			c7.4-24.7-11.2-49.5-37-49.5h-33.1h-91.1l-32.9,79.5h92.7c-20.4,36.5-56.8,63.4-99.6,63.4c-21.7,0-86.9-19.6-82.4-115.5
			c3-64.3,53.9-143.2,128.3-143.2c49.3,0,82.2,58.8,82.2,58.8l70.8-37c0,0-53.1-101.8-153-101.8c-123.9,0-205.8,124.2-210.1,216.7
			C2517.7,861.7,2642.7,910,2697.2,910 M2735.3,446.3c-36,0-70.6,8.5-103,25.4c-28.7,14.9-54.7,35.9-77.4,62.3
			c-41.1,47.9-67.2,110.5-69.9,167.2c-1.8,38.2,3.1,73.6,14.6,105.2c10.4,28.5,26,53.8,46.5,75.3c21.4,22.5,48.5,40.8,78.1,52.9
			c24.7,10.1,50.6,15.6,72.9,15.6c32.2,0,62.8-7.1,90.9-21c24.7-12.2,47.4-29.7,67.7-51.9c42.7-46.9,64.1-104.1,73.1-134
			c7.2-24,2.7-49.3-12.2-69.5c-11.8-15.9-28.7-26.5-47.6-30.2l37.8-19.7l17.8-9.3c9.8-5.1,13.6-17.3,8.5-27.1l-9.3-17.8
			c-1.7-3.2-17-31.9-46.4-60.9c-18-17.7-37.5-32-58.1-42.3C2792.6,453.1,2764.4,446.3,2735.3,446.3L2735.3,446.3z M2697.2,889.9
			c-28.9,0-74.8-15.6-107.5-49.8c-32.2-33.8-47.2-79.5-44.5-136c3.9-82.5,78.1-197.5,190.1-197.5c63.1,0,105.6,47.6,124.4,74
			l-35.6,18.6c-4-5.3-9-11.3-14.8-17.3c-22.7-23.2-48.2-35.5-74-35.5c-40.1,0-77.9,19.5-106.5,54.9c-12.2,15.1-22.4,32.9-29.6,51.6
			c-7.1,18.4-11.3,37.7-12.2,55.8c-1.1,23.2,1.5,44.2,7.7,62.4c5.6,16.3,14,30.5,25.1,42.1c22.6,23.7,51.6,32,69.6,32
			c24.3,0,48.3-7.4,69.3-21.4c19.3-12.8,35.9-30.9,47.8-52.3c3.5-6.2,3.4-13.8-0.2-20c-3.6-6.1-10.2-9.9-17.3-9.9h-62.6l16.3-39.3
			h77.7h33.1c5.9,0,11.4,2.7,14.9,7.5c3.5,4.7,4.5,10.6,2.9,16.2C2859.7,764.4,2813.1,889.9,2697.2,889.9L2697.2,889.9z
			 M2654.3,758.2c-5.7-12-8.1-27.6-7.2-46.7c1.2-24.6,11.8-51.7,28.5-72.4c16.9-21,38.1-32.5,59.6-32.5c11.9,0,24.1,10.5,30.4,16.8
			c7.1,7.2,12.4,14.7,15,18.7h-51.4h-13.4c-8.1,0-15.4,4.9-18.6,12.4l-5.1,12.4l-32.9,79.5L2654.3,758.2L2654.3,758.2z"/>
		<path class="st0" d="M3683.8,487.7c15.6,0,32.3,3.9,48.4,11.3c15.4,7.1,30.2,17.4,42.8,29.9c13.3,13.1,23.9,28.1,31.5,44.4
			c8.3,17.9,12.5,36.7,12.5,55.7l0,0.4c0.3,17-2.7,34.7-8.5,51.1c-8.3,23.5-22.4,43.8-41.4,59.7c4.6,6.7,7.8,14.4,9.7,23l1.7,7.9
			l2.3,10.6l0.1,0.2l1,4.9l0,0l23.9,110.8l5.2,24.3H3788h-81.9H3690l-3.4-15.8l-24.9-115.3c-1.2-5.5-6.1-9.5-11.7-9.5h-19l-20,123.7
			l-2.7,16.9h-17.1h-80.5H3487l3.8-23.3l57.4-355.1c2.5-15.6,10.5-29.7,22.5-39.9c12-10.2,27.3-15.8,43-15.8h41.1H3683.8
			 M3510.6,901.7h80.5l22.7-140.5h36.1c15.1,0,28.2,10.6,31.3,25.3l24.9,115.3h81.9L3764.2,791c0,0,0,0-1.1-4.9l0-0.2
			c-0.7-3.4-2-9.1-4-18.5c-5.1-23.6-22.8-28.9-22.8-28.9c65.8-36.8,62.6-104.9,62.6-109.5c0-67.3-62.9-121.3-115-121.3h-29.1h-41.1
			c-22.7,0-42,16.4-45.7,38.9L3510.6,901.7 M3683.8,467.6h-29.1h-41.1c-20.5,0-40.4,7.3-56,20.6c-15.6,13.3-26,31.7-29.3,52
			l-57.4,355.2l-3.8,23.3c-0.9,5.8,0.7,11.7,4.5,16.2c3.8,4.5,9.4,7.1,15.3,7.1h23.6h80.5h17.1c9.9,0,18.2-7.1,19.8-16.9l2.7-16.9
			l15.3-94.6l20.9,96.7l3.4,15.8c2,9.2,10.2,15.8,19.6,15.8h16.2h81.9h24.9c6.1,0,11.8-2.7,15.6-7.5c3.8-4.7,5.3-10.9,4-16.8
			l-5.2-24.3l-23.9-110.8c0,0,0,0,0,0l-1-4.8l-0.1-0.3l-2.3-10.6l-1.7-7.9c-1.1-5-2.6-9.9-4.4-14.5c15.8-16.3,27.7-35.5,35.4-57.3
			c6.6-18.7,10-38.8,9.7-58.1l0-0.2c0-21.9-4.8-43.5-14.3-64c-8.6-18.6-20.5-35.5-35.6-50.3c-14.2-14-31-25.7-48.4-33.8
			C3721.9,472.1,3702.3,467.6,3683.8,467.6L3683.8,467.6z M3534.1,881.6l53.6-331.8c2.1-12.7,13-22,25.9-22h41.1h29.1
			c42.7,0,94.9,46.7,94.9,101.3c0,0.2,0,0.5,0,0.9c0.2,14.4-2.9,63.4-52.3,91c-7,3.9-11,11.7-10.2,19.7c0.9,7.8,6.2,14.4,13.6,16.8
			c1.4,0.6,7.3,3.6,9.6,14.1l1.4,6.4l2.6,12l0.1,0.2c0.8,3.5,1,4.6,1,4.9h0l18.6,86.5h-40.8l-21.5-99.5
			c-2.5-11.6-8.9-22.1-18.2-29.6c-9.3-7.5-20.9-11.6-32.8-11.6h-36.1c-9.9,0-18.2,7.1-19.8,16.9l-20,123.7H3534.1L3534.1,881.6z"/>
		<path class="st0" d="M2427.3,487.7L2427.3,487.7 M2427.3,487.7l-3.4,23l-11.7,79.3l-2.5,17.1h-17.3h-110.4l-6,40.2h83.5h23.2
			l-3.4,23l-11.7,79.5L2365,767h-17.3h-89.7l-5.3,35.1h104.1h23.3l-3.4,23l-11.9,79.5l-2.6,17.1h-17.3h-127.6h-26.6
			c-19.3,0-37.6-8.4-50.3-23c-12.6-14.7-18.2-34-15.4-53.1l45.3-301.5c2.3-15.7,10.3-30.1,22.3-40.5c12-10.3,27.4-16,43.3-16h168
			H2427.3 M2190.7,901.7h26.6h127.6l11.9-79.5h-127.4l11.3-75.3h107l11.7-79.5h-106.8l12.1-80.3h127.7l11.7-79.3h-168
			c-22.9,0-42.4,16.7-45.8,39.4l-45.3,301.5C2140.7,876.5,2162.4,901.7,2190.7,901.7 M2427.3,467.6L2427.3,467.6H2404h-168
			c-20.7,0-40.7,7.4-56.4,20.9c-15.7,13.5-26.1,32.2-29.1,52.7l-45.3,301.4c-3.7,24.9,3.6,50.1,20,69.2c16.4,19.1,40.3,30,65.5,30
			h26.6h127.6h17.3c9.9,0,18.4-7.3,19.9-17.1l2.6-17.1l11.9-79.5l3.4-23c0.9-5.8-0.8-11.6-4.6-16.1c-3.8-4.4-9.4-7-15.2-7h-1.7
			c3.4-3,5.8-7.3,6.6-12.1l2.5-17.2l11.7-79.5l3.4-23c0.8-5.8-0.9-11.6-4.7-16c-3.8-4.4-9.4-7-15.2-7h-23.2h-60.2l0,0h93.1h17.3
			c10,0,18.4-7.3,19.9-17.1l2.5-17.1l11.7-79.3l3.3-22.5c0.2-1.1,0.3-2.2,0.3-3.4C2447.3,476.6,2438.3,467.6,2427.3,467.6
			L2427.3,467.6z M2427.3,507.7L2427.3,507.7L2427.3,507.7L2427.3,507.7z M2190.7,881.6c-7.7,0-14.8-3.2-19.8-9.1
			c-5-5.8-7.2-13.4-6.1-21l45.3-301.5c1.9-12.9,12.8-22.3,25.9-22.3h144.8l-5.8,39.2h-110.4c-9.9,0-18.4,7.3-19.9,17.1l-12.1,80.3
			c-0.9,5.8,0.8,11.7,4.6,16.1c3.8,4.4,9.4,7,15.2,7h83.6l-5.8,39.4h-89.7c-9.9,0-18.4,7.3-19.9,17.1l-11.3,75.3
			c-0.9,5.8,0.8,11.7,4.6,16.1c3.8,4.4,9.4,7,15.2,7h104.1l-5.9,39.4h-110.3H2190.7L2190.7,881.6z"/>
		<path class="st0" d="M1605.7,486.3c19.4,0,38.1,6.7,52.6,18.9c15.9,13.3,25.8,32.6,27.7,54.2l30.3,340.6l0.2,1.7l0.4-2.9
			l52.1-346.6c3-19.9,12.4-36.6,27.3-48.3c13.2-10.4,30.1-16.2,47.6-16.2c17.2,0,33.8,5.6,46.9,15.7c14.7,11.4,24.3,27.6,27.6,47
			l20.5,117.8l65.8-137.9c12.7-26.7,37.4-42.6,66.1-42.6c22.3,0,44,9.9,58.3,26.4c13.8,16.1,19.6,37.1,16.3,59.2l-49.8,331.5
			l-2.6,17.1h-17.3h-80.4H1972l3.5-23.1l6.3-42.1l-14.9,31.3c-5.2,11-13.3,19.9-23.3,25.9c-9.2,5.5-19.9,8.4-30.9,8.4
			c-13.7,0-27-4.6-37.6-12.8c-11.7-9.1-19.3-21.9-21.9-37l-6.2-35.3l-10.2,67.5l-2.6,17.1h-17.3h-80.3h-18.5h-4.8h-17.1h-79.8h-18.4
			l-1.6-18.3l-5-55.8h-59l-25.5,61.7l-5.1,12.4h-13.4h-86h-30l11.5-27.8l148.2-358.3l0,0l0,0c6.6-15.7,17.3-28.6,31-37.3
			C1575.7,490.5,1590.4,486.3,1605.7,486.3 M1402.4,901.7h86l30.7-74.1h90.8l6.6,74.1h79.8L1666,561.1
			c-3.2-35.2-31.6-54.8-60.3-54.8c-22.3,0-44.5,11.8-55.1,37.1L1402.4,901.7 M1930.1,733.7l-31.3-179.9
			c-5.3-30.8-30.1-46.1-54.8-46.1c-25.2,0-50.3,15.8-55.1,47.4l-52.1,346.6h80.3l28.6-189.6L1873,869c3.8,21.5,21.7,33.2,39.8,33.2
			c14.2,0,28.6-7.2,36-22.8l73-153.3l-26.4,175.6h80.4l49.8-331.5c5.7-38-24.4-62.5-54.7-62.5c-18.8,0-37.7,9.5-48,31.2
			L1930.1,733.7 M1605.7,466.2c-19.1,0-37.6,5.3-53.4,15.3c-17.2,10.8-30.6,26.9-38.8,46.5c0,0.1-0.1,0.2-0.1,0.2l-148.2,358.2
			l-11.5,27.8c-2.6,6.2-1.9,13.3,1.9,18.8c3.7,5.6,10,8.9,16.7,8.9h30h86h13.4c8.1,0,15.4-4.9,18.6-12.4l5.1-12.4l20.4-49.3h27.2
			l3.4,37.5l1.6,18.3c0.9,10.4,9.6,18.3,20,18.3h18.4h79.8h17.1h4.8h18.5h80.3h17.3c9.9,0,18.4-7.3,19.9-17.1l1-6.3
			c2.4,2.4,4.9,4.7,7.7,6.8c14.1,11,31.8,17.1,50,17.1c14.6,0,28.8-3.9,41.1-11.2c0.1,0,0.2-0.1,0.2-0.1c0.7,1.4,1.6,2.7,2.6,3.9
			c3.8,4.4,9.4,7,15.2,7h23.3h80.4h17.3c9.9,0,18.4-7.3,19.9-17.1l2.6-17.1l49.8-331.5c4.2-27.9-3.2-54.7-20.9-75.2
			c-18-20.9-45.5-33.4-73.5-33.4c-18,0-35.2,5-49.9,14.5c-14.6,9.4-26.5,23.1-34.3,39.6l-38.6,81.1l-9.7-55.8
			c-4.2-24.4-16.4-45-35.1-59.5c-16.6-12.8-37.6-19.9-59.2-19.9c-22,0-43.3,7.3-60.1,20.5c-18.9,14.9-31,36.1-34.7,61.1l-27.6,183.3
			L1706,557.6c-2.4-27-14.8-51.1-34.8-67.8C1653.1,474.6,1629.8,466.2,1605.7,466.2L1605.7,466.2z M1569.2,551.1
			c9.3-22.3,28.7-24.7,36.5-24.7c17.8,0,38.1,11.4,40.3,36.5l28.3,318.7h-39.5l-5-55.8c-0.9-10.4-9.6-18.3-20-18.3h-90.8
			c-8.1,0-15.4,4.9-18.6,12.4l-25.5,61.7h-42.6L1569.2,551.1L1569.2,551.1z M1930.1,753.8c7.7,0,14.8-4.4,18.1-11.4l92.9-194.8
			c8.1-17.2,22.2-19.7,29.8-19.7c10.7,0,21.1,4.6,27.8,12.4c6.3,7.3,8.6,16.3,7,27l-47.3,314.4h-39.8l22.9-152.6
			c1.5-9.8-4.5-19.3-14-22.2c-1.9-0.6-3.9-0.9-5.9-0.9c-7.6,0-14.7,4.3-18.1,11.5l-73,153.3c-4.7,9.9-13.2,11.4-17.9,11.4
			c-7.9,0-17.8-4.4-20-16.6l-27.4-156.8c-1.7-9.6-10-16.6-19.8-16.6c-0.1,0-0.2,0-0.2,0c-9.8,0.1-18.2,7.3-19.6,17.1l-26,172.5
			h-39.7l48.6-323.5c3.4-22.3,21.1-30.3,35.2-30.3c14.4,0,31.2,7.7,35,29.4l31.3,179.9c1.5,8.6,8.4,15.3,17.1,16.4
			C1928.3,753.7,1929.2,753.8,1930.1,753.8L1930.1,753.8z"/>
		<path class="st0" d="M1262.1,466.4c25.9,0,51.2,6.1,75,18c18.7,9.4,36.6,22.4,53,38.6c27.7,27.3,42.1,54.7,42.7,55.9l9.3,17.8
			l-17.8,9.3l-70.8,37l-17.4,9.2l-9.5-17.2c-0.4-0.7-7.8-13.4-20-25.8c-10.3-10.4-26.4-22.7-44.6-22.7c-27.7,0-54.4,14.2-75.3,40
			c-19.3,23.9-31.6,55.3-33,84.1c-1.6,33,5.8,58.2,21.7,74.9c15.3,16.1,34.5,19.6,40.6,19.6c21.3,0,41.6-8.3,58.4-23.2h-51.5h-30.1
			l11.5-27.8l32.9-79.5l5.1-12.4h13.4h91.1h33.1c18.8,0,35.9,8.6,47.1,23.7c11.2,15,14.5,33.8,9.1,51.7
			c-8.5,28.3-28.7,82.3-68.7,126.2c-18.6,20.4-39.3,36.3-61.7,47.4c-25.4,12.6-53,18.9-82,18.9c-19.8,0-43-5-65.3-14.1
			c-27.1-11-51.7-27.7-71.2-48.1c-18.6-19.5-32.8-42.5-42.2-68.3c-10.6-29-15.1-61.8-13.4-97.3c2.5-52.5,26.8-110.5,65-155.1
			c20.9-24.5,45-43.8,71.4-57.6C1197.9,474.2,1229.4,466.4,1262.1,466.4 M1224.1,910c109.6,0,169.8-100.1,193.2-178.3
			c7.4-24.7-11.2-49.5-37-49.5h-33.1h-91.1l-32.9,79.5h92.7c-20.4,36.5-56.8,63.4-99.6,63.4c-21.7,0-86.9-19.6-82.4-115.5
			c3-64.3,53.9-143.2,128.3-143.2c49.3,0,82.2,58.8,82.2,58.8l70.8-37c0,0-53.1-101.8-153-101.8c-123.9,0-205.8,124.2-210.1,216.7
			C1044.5,861.7,1169.6,910,1224.1,910 M1262.1,446.3c-36,0-70.6,8.5-103,25.4c-28.7,14.9-54.7,35.9-77.4,62.3
			c-41.1,47.9-67.2,110.5-69.9,167.2c-1.8,38.2,3.1,73.6,14.6,105.2c10.4,28.5,26,53.8,46.5,75.3c21.4,22.5,48.5,40.8,78.1,52.9
			c24.7,10.1,50.6,15.6,72.9,15.6c32.2,0,62.8-7.1,90.9-21c24.7-12.2,47.4-29.7,67.7-51.9c42.7-46.9,64.1-104.1,73.1-134
			c7.2-24,2.7-49.3-12.2-69.5c-11.8-15.9-28.7-26.5-47.6-30.2l37.8-19.7l17.8-9.3c9.8-5.1,13.6-17.3,8.5-27.1l-9.3-17.8
			c-1.7-3.2-17-31.8-46.4-60.9c-18-17.7-37.5-32-58.1-42.3C1319.5,453.1,1291.2,446.3,1262.1,446.3L1262.1,446.3z M1224.1,889.9
			c-28.9,0-74.8-15.6-107.5-49.8c-32.2-33.8-47.2-79.5-44.5-136c3.9-82.5,78.1-197.5,190.1-197.5c35.6,0,68.9,14.9,99,44.3
			c10.8,10.6,19.3,21.2,25.3,29.7l-35.5,18.6c-4-5.3-9-11.3-14.8-17.3c-22.7-23.2-48.2-35.5-74-35.5c-40.1,0-77.9,19.5-106.5,54.9
			c-12.2,15.1-22.4,32.9-29.6,51.6c-7.1,18.4-11.3,37.7-12.2,55.8c-1.1,23.2,1.5,44.2,7.7,62.4c5.6,16.3,14,30.5,25.1,42.1
			c22.6,23.7,51.6,32,69.6,32c24.3,0,48.3-7.4,69.3-21.4c19.3-12.8,35.9-30.9,47.8-52.3c3.5-6.2,3.4-13.8-0.2-20
			c-3.6-6.1-10.2-9.9-17.3-9.9h-62.6l16.3-39.3h77.7h33.1c5.9,0,11.4,2.7,14.9,7.5c3.5,4.7,4.5,10.6,2.9,16.2
			C1386.5,764.4,1339.9,889.9,1224.1,889.9L1224.1,889.9z M1181.2,758.2c-5.7-12-8.1-27.6-7.2-46.7c1.2-24.6,11.8-51.7,28.5-72.4
			c16.9-21,38.1-32.5,59.6-32.5c11.9,0,24.1,10.5,30.4,16.8c7.1,7.2,12.4,14.7,15,18.7h-51.4h-13.4c-8.1,0-15.4,4.9-18.6,12.4
			l-5.1,12.4l-32.9,79.5L1181.2,758.2L1181.2,758.2z"/>
		<g>
			<linearGradient id="SVGID_1_" gradientUnits="userSpaceOnUse" x1="2274.1633" y1="507.7309" x2="2274.1633" y2="901.7089">
				<stop  offset="0.2309" style="stop-color:#FF2727"/>
				<stop  offset="0.8932" style="stop-color:#FFC600"/>
			</linearGradient>
			<path class="st250" d="M2404,507.7h-168c-22.9,0-42.4,16.7-45.8,39.4l-45.3,301.5c-4.2,27.9,17.5,53.1,45.8,53.1h26.6h127.6
				l11.9-79.5h-127.4l11.3-75.3h107l11.7-79.5h-106.8l12.1-80.3h127.7L2404,507.7z"/>
		</g>
		<g>
			
				<linearGradient id="SVGID_00000119089015202661850300000005307222903963343510_" gradientUnits="userSpaceOnUse" x1="3051.6667" y1="507.7309" x2="3051.6667" y2="901.7089">
				<stop  offset="0.2309" style="stop-color:#FF2727"/>
				<stop  offset="0.8932" style="stop-color:#FFC600"/>
			</linearGradient>
			<path style="fill:url(#SVGID_00000119089015202661850300000005307222903963343510_);" d="M3181.5,507.7h-168
				c-22.9,0-42.4,16.7-45.8,39.4l-45.3,301.5c-4.2,27.9,17.5,53.1,45.8,53.1h26.6h127.6l11.9-79.5h-127.4l11.3-75.3h107l11.7-79.5
				H3030l12.1-80.3h127.7L3181.5,507.7z"/>
		</g>
		<g>
			
				<linearGradient id="SVGID_00000160901449844240173520000005944375933913194654_" gradientUnits="userSpaceOnUse" x1="1549.3574" y1="506.3464" x2="1549.3574" y2="901.7089">
				<stop  offset="0.2309" style="stop-color:#FF2727"/>
				<stop  offset="0.8932" style="stop-color:#FFC600"/>
			</linearGradient>
			<path style="fill:url(#SVGID_00000160901449844240173520000005944375933913194654_);" d="M1605.7,506.3
				c-22.3,0-44.5,11.8-55.1,37.1l-148.2,358.3h86l30.7-74.1h90.8l6.6,74.1h79.8L1666,561.1C1662.9,525.9,1634.4,506.3,1605.7,506.3z
				 M1552,748.1l41.8-101l9,101H1552z"/>
		</g>
		<g>
			
				<linearGradient id="SVGID_00000044164380136982423800000008705052370891603361_" gradientUnits="userSpaceOnUse" x1="1931.5243" y1="507.7309" x2="1931.5243" y2="902.2034">
				<stop  offset="0.2309" style="stop-color:#FF2727"/>
				<stop  offset="0.8932" style="stop-color:#FFC600"/>
			</linearGradient>
			<path style="fill:url(#SVGID_00000044164380136982423800000008705052370891603361_);" d="M2022.9,538.9l-92.9,194.8l-31.3-179.9
				c-5.3-30.8-30.1-46.1-54.8-46.1c-25.2,0-50.3,15.8-55.1,47.4l-52.1,346.6h80.3l28.6-189.6L1873,869c3.8,21.5,21.7,33.2,39.8,33.2
				c14.2,0,28.6-7.2,36-22.8l73-153.3l-26.4,175.6h80.4l49.8-331.5c5.7-38-24.4-62.5-54.7-62.5
				C2052.1,507.7,2033.2,517.2,2022.9,538.9z"/>
		</g>
		<g>
			
				<linearGradient id="SVGID_00000103261674846397733910000017335472056580688816_" gradientUnits="userSpaceOnUse" x1="1235.3085" y1="486.4698" x2="1235.3085" y2="910.0158">
				<stop  offset="0.2309" style="stop-color:#FF2727"/>
				<stop  offset="0.8932" style="stop-color:#FFC600"/>
			</linearGradient>
			<path style="fill:url(#SVGID_00000103261674846397733910000017335472056580688816_);" d="M1415.1,588.2c0,0-53.1-101.8-153-101.8
				c-123.9,0-205.8,124.2-210.1,216.7c-7.5,158.6,117.6,206.9,172.1,206.9c109.6,0,169.8-100.1,193.2-178.3
				c7.4-24.7-11.2-49.5-37-49.5h-33.1h-91.1l-32.9,79.5h92.7c-20.4,36.5-56.8,63.4-99.6,63.4c-21.7,0-86.9-19.6-82.4-115.5
				c3-64.3,53.9-143.2,128.3-143.2c49.3,0,82.2,58.8,82.2,58.8L1415.1,588.2z"/>
		</g>
		<g>
			
				<linearGradient id="SVGID_00000035495049903568141650000018265508600159006608_" gradientUnits="userSpaceOnUse" x1="2708.4536" y1="486.4695" x2="2708.4536" y2="910.0156">
				<stop  offset="0.2309" style="stop-color:#FF2727"/>
				<stop  offset="0.8932" style="stop-color:#FFC600"/>
			</linearGradient>
			<path style="fill:url(#SVGID_00000035495049903568141650000018265508600159006608_);" d="M2888.3,588.2c0,0-53.1-101.8-153-101.8
				c-123.9,0-205.8,124.2-210.1,216.7c-7.5,158.6,117.6,206.9,172.1,206.9c109.6,0,169.8-100.1,193.2-178.3
				c7.4-24.7-11.2-49.5-37-49.5h-33.1h-91.1l-32.9,79.5h92.7c-20.4,36.5-56.8,63.4-99.6,63.4c-21.7,0-86.9-19.6-82.4-115.5
				c3-64.3,53.9-143.2,128.3-143.2c49.3,0,82.2,58.8,82.2,58.8L2888.3,588.2z"/>
		</g>
		<g>
			
				<linearGradient id="SVGID_00000025444108780240831480000010193383402727289781_" gradientUnits="userSpaceOnUse" x1="3654.7007" y1="507.7307" x2="3654.7007" y2="901.808">
				<stop  offset="0.2309" style="stop-color:#FF2727"/>
				<stop  offset="0.8932" style="stop-color:#FFC600"/>
			</linearGradient>
			<path style="fill:url(#SVGID_00000025444108780240831480000010193383402727289781_);" d="M3764.2,791c0,0,0,0-1.1-4.9l0-0.2
				c-0.7-3.4-2-9.1-4-18.5c-5.1-23.6-22.8-28.9-22.8-28.9c65.8-36.8,62.6-104.9,62.6-109.5c0-67.3-62.9-121.3-115-121.3h-29.1h-41.1
				c-22.7,0-42,16.4-45.7,38.9l-57.4,355.1h80.5l22.7-140.5h36.1c15.1,0,28.2,10.6,31.3,25.3l24.9,115.3h81.9L3764.2,791L3764.2,791
				z M3661.8,681.7h-35.1l15.1-94.5h33.1c15.7,0,31.2,15.7,34.7,34.5C3714.9,649.6,3693.3,681.7,3661.8,681.7z"/>
		</g>
		<path d="M2236,487.7c-15.9,0-31.3,5.7-43.3,16c-12.1,10.4-20,24.7-22.3,40.5L2125,845.6c-2.8,19.1,2.8,38.5,15.4,53.1
			c12.6,14.6,30.9,23,50.3,23h26.6h127.6h17.3l2.6-17.1l11.9-79.5l3.4-23h-23.3h-104.1l5.3-35.1h89.7h17.3l2.5-17.2l11.7-79.5
			l3.4-23h-23.2h-83.5l6-40.2h110.4h17.3l2.5-17.1l11.7-79.3l3.4-23H2404H2236z M2392.2,587.1h-127.7l-12.1,80.3h106.8l-11.7,79.5
			h-107l-11.3,75.3h127.4l-11.9,79.5h-127.6h-26.6c-28.3,0-50-25.2-45.8-53.1l45.3-301.5c3.4-22.7,22.8-39.4,45.8-39.4h168
			L2392.2,587.1z"/>
		<path d="M3204.8,487.7h-23.3h-168c-15.9,0-31.3,5.7-43.3,16c-12.1,10.4-20,24.7-22.3,40.5l-45.3,301.5
			c-2.8,19.1,2.8,38.5,15.4,53.1c12.6,14.6,30.9,23,50.3,23h26.6h127.6h17.3l2.6-17.1l11.9-79.5l3.4-23h-23.3h-104.1l5.3-35.1h89.7
			h17.3l2.5-17.2l11.7-79.5l3.4-23h-23.2h-83.5l6-40.2h110.4h17.3l2.5-17.1l11.7-79.3L3204.8,487.7z M3169.7,587.1H3042l-12.1,80.3
			h106.8l-11.7,79.5h-107l-11.3,75.3h127.4l-11.9,79.5h-127.6h-26.6c-28.3,0-50-25.2-45.8-53.1l45.3-301.5
			c3.4-22.7,22.8-39.4,45.8-39.4h168L3169.7,587.1z"/>
		<g>
			<polygon points="1552,748.1 1602.9,748.1 1593.9,647.2 			"/>
		</g>
		<g>
			<polygon points="3320.3,748.1 3371.1,748.1 3362.1,647.2 			"/>
		</g>
		<path d="M3140.5,921.8h30h86h13.4l5.1-12.4l25.5-61.7h59l5,55.8l1.6,18.3h18.4h79.8h21.9l-1.9-21.9l-30.3-340.6
			c-1.9-21.6-11.8-40.9-27.7-54.2c-14.5-12.2-33.2-18.9-52.6-18.9c-32.7,0-60.9,18.9-73.6,49.4l0,0l0,0L3152,894L3140.5,921.8z
			 M3318.8,543.4c10.6-25.3,32.9-37.1,55.1-37.1c28.7,0,57.2,19.6,60.3,54.8l30.3,340.6h-79.8l-6.6-74.1h-90.8l-30.7,74.1h-86
			L3318.8,543.4z"/>
		<path d="M2129.2,514.1c-14.2-16.5-36-26.4-58.3-26.4c-28.7,0-53.4,15.9-66.1,42.6l-65.8,137.9l-20.5-117.8
			c-3.4-19.4-12.9-35.7-27.6-47c-13.1-10.1-29.8-15.7-46.9-15.7c-17.5,0-34.4,5.7-47.6,16.2c-14.9,11.7-24.3,28.4-27.3,48.3
			l-52.1,346.6l-0.4,2.9l-0.2-1.7L1686,559.4c-1.9-21.6-11.8-40.9-27.7-54.2c-14.5-12.2-33.2-18.9-52.6-18.9
			c-15.3,0-30.1,4.2-42.6,12.2c-13.7,8.6-24.4,21.5-31,37.3l0,0l0,0L1383.9,894l-11.5,27.8h30h86h13.4l5.1-12.4l25.5-61.7h59l5,55.8
			l1.6,18.3h18.4h79.8h17.1h4.8h18.5h80.3h17.3l2.6-17.1l10.2-67.5l6.2,35.3c2.6,15.1,10.2,27.9,21.9,37
			c10.6,8.3,23.9,12.8,37.6,12.8c11,0,21.6-2.9,30.9-8.4c10-6,18.1-14.9,23.3-25.9l14.9-31.3l-6.3,42.1l-3.5,23.1h23.3h80.4h17.3
			l2.6-17.1l49.8-331.5C2148.8,551.1,2143,530.1,2129.2,514.1z M1616.5,901.7l-6.6-74.1h-90.8l-30.7,74.1h-86l148.2-358.3
			c10.6-25.3,32.8-37.1,55.1-37.1c28.7,0,57.2,19.6,60.3,54.8l30.3,340.6H1616.5z M2125.6,570.2l-49.8,331.5h-80.4l26.4-175.6
			l-73,153.3c-7.4,15.6-21.8,22.8-36,22.8c-18.1,0-36-11.8-39.8-33.2l-27.4-156.8l-28.6,189.6h-80.3l52.1-346.6
			c4.7-31.5,29.9-47.4,55.1-47.4c24.7,0,49.4,15.3,54.8,46.1l31.3,179.9l92.9-194.8c10.3-21.7,29.2-31.2,48-31.2
			C2101.2,507.7,2131.3,532.3,2125.6,570.2z"/>
		<path d="M1367.8,863.7c40-44,60.2-98,68.7-126.2c5.4-17.9,2-36.7-9.1-51.7c-11.2-15-28.4-23.7-47.1-23.7h-33.1h-91.1h-13.4
			l-5.1,12.4l-32.9,79.5l-11.5,27.8h30.1h51.5c-16.8,14.9-37.1,23.2-58.4,23.2c-6.1,0-25.2-3.5-40.6-19.6
			c-16-16.7-23.3-42-21.7-74.9c1.4-28.7,13.7-60.2,33-84.1c20.8-25.8,47.5-40,75.3-40c18.2,0,34.3,12.4,44.6,22.7
			c12.3,12.4,19.7,25.2,20,25.8l9.5,17.2l17.4-9.2l70.8-37l17.8-9.3l-9.3-17.8c-0.6-1.2-15-28.5-42.7-55.9
			c-16.5-16.3-34.3-29.3-53-38.6c-23.9-12-49.1-18-75-18c-32.7,0-64.3,7.8-93.8,23.1c-26.4,13.7-50.4,33.1-71.4,57.6
			c-38.3,44.7-62.6,102.6-65,155.1c-1.7,35.5,2.8,68.3,13.4,97.3c9.4,25.8,23.6,48.8,42.2,68.3c19.5,20.4,44.1,37.1,71.2,48.1
			c22.4,9.1,45.6,14.1,65.3,14.1c29,0,56.6-6.4,82-18.9C1328.5,900.1,1349.3,884.1,1367.8,863.7z M1224.1,910
			c-54.5,0-179.6-48.3-172.1-206.9c4.4-92.5,86.2-216.7,210.1-216.7c99.9,0,153,101.8,153,101.8l-70.8,37c0,0-32.8-58.8-82.2-58.8
			c-74.4,0-125.2,78.8-128.3,143.2c-4.5,95.9,60.7,115.5,82.4,115.5c42.8,0,79.3-26.9,99.6-63.4h-92.7l32.9-79.5h91.1h33.1
			c25.8,0,44.4,24.8,37,49.5C1393.9,809.9,1333.6,910,1224.1,910z"/>
		<path d="M2841,863.7c40-44,60.2-98,68.7-126.2c5.4-17.9,2-36.7-9.1-51.7c-11.2-15-28.4-23.7-47.1-23.7h-33.1h-91.1h-13.4
			l-5.1,12.4l-32.9,79.5l-11.5,27.8h30.1h51.5c-16.8,14.9-37.1,23.2-58.4,23.2c-6.1,0-25.2-3.5-40.6-19.6
			c-16-16.7-23.3-41.9-21.7-74.9c1.4-28.7,13.7-60.2,33-84c20.8-25.8,47.5-40,75.3-40c18.2,0,34.3,12.4,44.6,22.7
			c12.3,12.4,19.7,25.2,20,25.8l9.5,17.2l17.4-9.2l70.8-37l17.8-9.3l-9.3-17.8c-0.6-1.2-15-28.5-42.7-55.9
			c-16.5-16.3-34.3-29.3-53-38.6c-23.9-12-49.1-18-75-18c-32.7,0-64.3,7.8-93.8,23.1c-26.4,13.7-50.4,33.1-71.4,57.6
			c-38.3,44.7-62.6,102.6-65,155.1c-1.7,35.5,2.8,68.3,13.4,97.3c9.4,25.8,23.6,48.8,42.2,68.3c19.5,20.4,44.1,37.1,71.2,48.1
			c22.4,9.1,45.6,14.1,65.3,14.1c29,0,56.6-6.4,82-18.9C2801.6,900.1,2822.4,884.1,2841,863.7z M2697.2,910
			c-54.5,0-179.6-48.3-172.1-206.9c4.4-92.5,86.2-216.7,210.1-216.7c99.9,0,153,101.8,153,101.8l-70.8,37c0,0-32.8-58.8-82.2-58.8
			c-74.4,0-125.2,78.8-128.3,143.2c-4.5,95.9,60.7,115.5,82.4,115.5c42.8,0,79.3-26.9,99.6-63.4h-92.7l32.9-79.5h91.1h33.1
			c25.8,0,44.4,24.8,37,49.5C2867,809.9,2806.8,910,2697.2,910z"/>
		<path d="M3661.6,790.7l24.9,115.3l3.4,15.8h16.2h81.9h24.9l-5.2-24.3l-23.9-110.8l0,0l-1-4.9l-0.1-0.2l-2.3-10.6l-1.7-7.9
			c-1.8-8.5-5.1-16.3-9.7-23c18.9-15.9,33-36.2,41.4-59.7c5.8-16.4,8.8-34.1,8.5-51.1l0-0.4c0-19-4.2-37.8-12.5-55.7
			c-7.6-16.4-18.1-31.3-31.5-44.4c-12.6-12.4-27.4-22.7-42.8-29.9c-16.1-7.4-32.8-11.3-48.4-11.3h-29.1h-41.1
			c-15.8,0-31,5.6-43,15.8c-12,10.2-20,24.4-22.5,39.9l-57.4,355.1l-3.8,23.3h23.6h80.5h17.1l2.7-16.9l20-123.7h19
			C3655.5,781.3,3660.4,785.2,3661.6,790.7z M3613.8,761.2l-22.7,140.5h-80.5l57.4-355.1c3.7-22.4,22.9-38.9,45.7-38.9h41.1h29.1
			c52.1,0,115,54,115,121.3c0,4.5,3.2,72.7-62.6,109.5c0,0,17.8,5.3,22.8,28.9c2,9.4,3.3,15.1,4,18.5l0,0.2c1.1,4.9,1.1,4.9,1.1,4.9
			l23.9,110.8h-81.9l-24.9-115.3c-3.2-14.7-16.2-25.3-31.3-25.3H3613.8z"/>
		<g>
			<path d="M3674.9,587.1h-33.1l-15.1,94.5h35.1c31.5,0,53.1-32,47.9-60C3706.2,602.9,3690.6,587.1,3674.9,587.1z M3682.5,651.3
				c-3.2,3.8-10.1,10.3-20.7,10.3h-11.6l8.7-54.4h16c4.7,0,13,7.6,15,18.1l0,0l0,0C3691.5,633.9,3688.7,643.9,3682.5,651.3z"/>
		</g>
		<path class="st0" d="M3689.9,625.3L3689.9,625.3c-1.9-10.5-10.3-18.1-15-18.1h-16l-8.7,54.4h11.6c10.6,0,17.5-6.5,20.7-10.3
			C3688.7,643.9,3691.5,633.9,3689.9,625.3L3689.9,625.3z"/>
		<g>
			
				<linearGradient id="SVGID_00000064326309501987600300000013686704326279603134_" gradientUnits="userSpaceOnUse" x1="3317.5229" y1="506.3464" x2="3317.5229" y2="901.7089">
				<stop  offset="0.2309" style="stop-color:#FF2727"/>
				<stop  offset="0.8932" style="stop-color:#FFC600"/>
			</linearGradient>
			<path style="fill:url(#SVGID_00000064326309501987600300000013686704326279603134_);" d="M3373.9,506.3
				c-22.2,0-44.5,11.8-55.1,37.1l-148.2,358.3h86l30.7-74.1h90.8l6.6,74.1h79.8l-30.3-340.6C3431,525.9,3402.6,506.3,3373.9,506.3z
				 M3320.3,748.1l41.8-101l9,101H3320.3z"/>
		</g>
	</g>
</g>
</svg>
