<?xml version="1.0" encoding="utf-8"?>
<!-- Generator: Adobe Illustrator 25.4.1, SVG Export Plug-In . SVG Version: 6.00 Build 0)  -->
<svg version="1.1" id="Layer_1" xmlns="http://www.w3.org/2000/svg" xmlns:xlink="http://www.w3.org/1999/xlink" x="0px" y="0px"
	 viewBox="0 0 3839 1328.6" style="enable-background:new 0 0 3839 1328.6;" xml:space="preserve">
<style type="text/css">
	.st0{fill:#232F95;}
	.st1{fill:#FFFFFF;}
	.st2{fill:url(#SVGID_1_);}
	.st3{fill:url(#SVGID_00000010310598352267685980000006766627387315066045_);}
	.st4{fill:url(#SVGID_00000173852807941391637710000001440507081158914980_);}
	.st5{fill:url(#SVGID_00000040550680328798012470000010409537601243914929_);}
	.st6{fill:url(#SVGID_00000003784906141651353600000011583194393105449129_);}
	.st7{fill:url(#SVGID_00000103231383713640793620000003691428651743012534_);}
	.st8{fill:url(#SVGID_00000076585063167747387960000013356376895039739065_);}
	.st9{fill:url(#SVGID_00000082329240242010341740000012899598648444760205_);}
	.st10{fill:url(#SVGID_00000088101279054549384840000004448867358835244428_);}
	.st11{fill:url(#SVGID_00000053544676017236095610000001314478527604584110_);}
	.st12{fill:url(#SVGID_00000165918722836720055310000008439137733493564089_);}
	.st13{fill:url(#SVGID_00000043439079128628221790000001382055994530749843_);}
	.st14{fill:url(#SVGID_00000140724058217840681960000000082903013645612943_);}
	.st15{fill:url(#SVGID_00000025406270462392703520000015553901833732116902_);}
	.st16{fill:url(#SVGID_00000108307401499555717640000013711195349154699154_);}
	.st17{fill:url(#SVGID_00000132065779455115321130000005013815118364189886_);}
	.st18{fill:url(#SVGID_00000065073847233690234730000006486824742105476787_);}
	.st19{fill:url(#SVGID_00000099652942719570709140000015331802466039414697_);}
	.st20{fill:url(#SVGID_00000163049328564194364090000013914214849828299423_);}
	.st21{fill:url(#SVGID_00000015345029568229414540000011619683051240471463_);}
	.st22{fill:url(#SVGID_00000150821017677839526880000012059113961960092843_);}
	.st23{fill:url(#SVGID_00000071536266699338047680000001755919344291874230_);}
	.st24{fill:url(#SVGID_00000131359678105052326440000006431928288038859672_);}
	.st25{fill:url(#SVGID_00000016073503058993196130000009167958549220044182_);}
	.st26{fill:url(#SVGID_00000114786481801101144200000015158077425521578125_);}
	.st27{fill:url(#SVGID_00000144316451209975232670000015496447814920230277_);}
	.st28{fill:url(#SVGID_00000049936852053294792370000005981113252456314272_);}
	.st29{fill:url(#SVGID_00000163061528880040326650000015264872752144796858_);}
	.st30{fill:url(#SVGID_00000064317758950520824360000011806694302881765533_);}
	.st31{fill:url(#SVGID_00000109031010717362876460000018079607267333568652_);}
	.st32{fill:url(#SVGID_00000108297787084963052250000006141819861753574812_);}
	.st33{fill:url(#SVGID_00000111883363594739788540000012203123267949875861_);}
	.st34{fill:url(#SVGID_00000062875417679875079010000003842788847193238442_);}
	.st35{fill:url(#SVGID_00000155125526240330491370000012516523220029659791_);}
	.st36{fill:url(#SVGID_00000076569378036821729900000000619807614267336885_);}
	.st37{fill:url(#SVGID_00000088129672029586276550000017545587030609559973_);}
	.st38{fill:url(#SVGID_00000016074981913408809050000014303136519704984495_);}
	.st39{fill:url(#SVGID_00000076564925395267776860000007188613438648483989_);}
	.st40{fill:url(#SVGID_00000050643273112580941360000002121223124578666391_);}
	.st41{fill:url(#SVGID_00000067919379975585465750000005747262011256561037_);}
	.st42{fill:url(#SVGID_00000043429369428745425710000002628230606585843638_);}
	.st43{fill:url(#SVGID_00000145021499074024092720000018426309210299663799_);}
	.st44{fill:url(#SVGID_00000134215570432153727700000016770687214978004381_);}
	.st45{fill:url(#SVGID_00000109725524619866499860000000915529117370279296_);}
	.st46{fill:url(#SVGID_00000018923604561139963830000005111061707706414010_);}
	.st47{fill:url(#SVGID_00000031185478449349156920000005252504596605576637_);}
	.st48{fill:url(#SVGID_00000170988564998711748970000014825966195046307744_);}
	.st49{fill:url(#SVGID_00000023997567812703706000000016269707748230371491_);}
	.st50{fill:url(#SVGID_00000161618658983397894120000013244755933568028083_);}
	.st51{fill:url(#SVGID_00000138562433880757514390000010419338259635099025_);}
	.st52{fill:url(#SVGID_00000007428548696378170770000017161298360276962971_);}
	.st53{fill:url(#SVGID_00000125565389054247241050000005164140433964983217_);}
	.st54{fill:url(#SVGID_00000038398640920470379600000006975707606403962291_);}
	.st55{fill:url(#SVGID_00000004538407397795977960000003462053406917572530_);}
	.st56{fill:url(#SVGID_00000114034946172025406720000002005358274006038929_);}
	.st57{fill:url(#SVGID_00000105414393112852739370000012530514418687190667_);}
	.st58{fill:url(#SVGID_00000043458861553557095160000012844809351985179838_);}
	.st59{fill:url(#SVGID_00000178894655375843735030000016982534607746558121_);}
	.st60{fill:url(#SVGID_00000000908440343552908450000002835851525343275452_);}
	.st61{fill:url(#SVGID_00000009564476734248914650000009920126091444210622_);}
	.st62{fill:url(#SVGID_00000000900875383244926740000001177921395295894715_);}
	.st63{fill:url(#SVGID_00000020398026800534841770000008551450470325231538_);}
	.st64{fill:url(#SVGID_00000018213979019679095590000011279522152618998450_);}
	.st65{fill:url(#SVGID_00000166639492014459116140000017469272884968244149_);}
	.st66{fill:url(#SVGID_00000008114145413811848360000014152966288888895913_);}
	.st67{fill:url(#SVGID_00000085244837058636345250000003507915633143832230_);}
	.st68{fill:url(#SVGID_00000011742217794326713780000000333325254475662262_);}
	.st69{fill:url(#SVGID_00000064311443915852280350000005804855563266856619_);}
	.st70{fill:url(#SVGID_00000073702804064980502750000001719520299197866906_);}
	.st71{fill:url(#SVGID_00000099643254961964170260000018156593584431934142_);}
	.st72{fill:url(#SVGID_00000113350919697686960630000015717095856362002854_);}
	.st73{fill:url(#SVGID_00000170265407131122336890000011789330271066991507_);}
	.st74{fill:url(#SVGID_00000096024435997063475950000002680462101795036604_);}
	.st75{fill:url(#SVGID_00000143613489894676119130000007686475843478628992_);}
	.st76{fill:url(#SVGID_00000098900904539670599100000015043437777682911400_);}
	.st77{fill:url(#SVGID_00000051343536918826767250000016828791476930092443_);}
	.st78{fill:url(#SVGID_00000113351171165223645980000002729581716597234832_);}
	.st79{fill:url(#SVGID_00000117645942968194031570000005382712182637535380_);}
	.st80{fill:url(#SVGID_00000067925467359099711590000003778186064636616323_);}
	.st81{fill:url(#SVGID_00000182520188683713528190000003353132217708980657_);}
	.st82{fill:url(#SVGID_00000164490907457199133020000003199067630710695332_);}
	.st83{fill:url(#SVGID_00000133487051364120527350000002118868225649176199_);}
	.st84{fill:url(#SVGID_00000156564559996738146430000006934279340287248285_);}
	.st85{fill:url(#SVGID_00000183218333329660545070000009879089510582275497_);}
	.st86{fill:url(#SVGID_00000133496111377384604630000017318833059817850529_);}
	.st87{fill:url(#SVGID_00000181782829578925375060000007694324478782493581_);}
	.st88{fill:url(#SVGID_00000142160164145186361460000012053714917334392983_);}
	.st89{fill:url(#SVGID_00000153684498285014464300000015094242272615962285_);}
	.st90{fill:url(#SVGID_00000052824293434116659050000008401939974502973084_);}
	.st91{fill:url(#SVGID_00000115508661620108825540000013910390307531153842_);}
	.st92{fill:url(#SVGID_00000159438614877801513460000007521796280051836336_);}
	.st93{fill:url(#SVGID_00000165957148418331554430000016011887797821307784_);}
	.st94{fill:url(#SVGID_00000120518304072796819970000016204382926076032929_);}
	.st95{fill:url(#SVGID_00000164509976567827513020000002589578339011204254_);}
	.st96{fill:url(#SVGID_00000106144842125393063970000012631863615335911044_);}
	.st97{fill:url(#SVGID_00000129889504100750687730000005990987860470842031_);}
	.st98{fill:url(#SVGID_00000080178433127963907650000013264272397733187256_);}
	.st99{fill:url(#SVGID_00000085955016828860720850000000982578004721622711_);}
	.st100{fill:url(#SVGID_00000139285782982121935950000008176137916473607076_);}
	.st101{fill:url(#SVGID_00000140010269396874360210000013369120486266563997_);}
	.st102{fill:#502F8E;}
	.st103{fill:url(#SVGID_00000014630570589073927760000010147420646674887351_);}
	.st104{fill:url(#SVGID_00000121243194010502452290000009265116117370752654_);}
	.st105{fill:url(#SVGID_00000118383870684619340360000012928364973796461224_);}
	.st106{fill:url(#SVGID_00000008137500820652460320000017648474603346701999_);}
	.st107{fill:url(#SVGID_00000053528130161277501750000011269121329172365962_);}
	.st108{fill:url(#SVGID_00000127037440848266916580000012849590235129164939_);}
	.st109{fill:url(#SVGID_00000121251287207345271470000005510070995522050730_);}
	.st110{fill:url(#SVGID_00000026869902222279697960000016498825799452257458_);}
	.st111{fill:url(#SVGID_00000047039038404118165130000005833351803351821208_);}
	.st112{fill:url(#SVGID_00000083809783619905096530000013092312701401576345_);}
	.st113{fill:url(#SVGID_00000021816406052511298440000012302118583784303773_);}
	.st114{fill:url(#SVGID_00000121276660376683717620000015286346434649898638_);}
	.st115{fill:url(#SVGID_00000137103480776831613220000009023591736411872948_);}
	.st116{fill:url(#SVGID_00000049184531221922462600000010624469925326800010_);}
	.st117{fill:url(#SVGID_00000021806294768731956020000009120849611622307738_);}
	.st118{fill:url(#SVGID_00000017484449972552913150000013672758885870682781_);}
	.st119{fill:url(#SVGID_00000144295531700682747160000016294006842897981829_);}
	.st120{fill:url(#SVGID_00000058549653799367849230000003266821730022302137_);}
	.st121{fill:url(#SVGID_00000160149727890072927180000006370221138290452139_);}
	.st122{fill:url(#SVGID_00000132787590712878278810000012982470538981291926_);}
	.st123{fill:url(#SVGID_00000122720981404318324160000001273386620742654607_);}
	.st124{fill:url(#SVGID_00000022549262945772099220000009034968798839741330_);}
	.st125{fill:url(#SVGID_00000120524535081164737660000011682826674209403045_);}
	.st126{fill:url(#SVGID_00000066477033563776983020000014276050116883978648_);}
	.st127{fill:url(#SVGID_00000078004469776449242840000018331759524068569015_);}
	.st128{fill:url(#SVGID_00000036960385637873179880000002591338611139125149_);}
	.st129{fill:url(#SVGID_00000040574181431434487620000005885373624439594378_);}
	.st130{fill:url(#SVGID_00000081611378898791523640000004398399981704039307_);}
	.st131{fill:url(#SVGID_00000125569467538751795420000012123263235352254611_);}
	.st132{fill:url(#SVGID_00000115477184250834583410000008137775685529723040_);}
	.st133{fill:url(#SVGID_00000051359115587983236630000004894140552237739950_);}
	.st134{fill:url(#SVGID_00000134960440421176727700000002076402793512712872_);}
	.st135{fill:url(#SVGID_00000123438915839235853480000011256275602512133307_);}
	.st136{fill:url(#SVGID_00000070833629707414860970000001895021311802034086_);}
	.st137{fill:url(#SVGID_00000108995570836467266150000004966330772264001939_);}
	.st138{fill:url(#SVGID_00000156583310763494298670000015490258561997428399_);}
	.st139{fill:url(#SVGID_00000169515702147787698530000004840924494500042666_);}
	.st140{fill:url(#SVGID_00000021800584548920428110000010556837482903340169_);}
	.st141{fill:url(#SVGID_00000055668798416989291200000008664304885110267783_);}
	.st142{fill:url(#SVGID_00000005248223216580455320000014821579093433982337_);}
	.st143{fill:url(#SVGID_00000026856819562247792660000014197612990102819998_);}
	.st144{fill:url(#SVGID_00000094619386927014832360000008063066463352698260_);}
	.st145{fill:url(#SVGID_00000119110370508730778700000014034520250304662970_);}
	.st146{fill:url(#SVGID_00000106848116309771002710000009037450698512655766_);}
	.st147{fill:url(#SVGID_00000055667801578733743500000007961781553009085626_);}
	.st148{fill:url(#SVGID_00000005234595822674938450000002198678176711176838_);}
	.st149{fill:url(#SVGID_00000109713725523927323130000002038245756156116623_);}
	.st150{fill:url(#SVGID_00000093173893866263155240000010340572560070872754_);}
	.st151{fill:url(#SVGID_00000160876720224081932800000018381087905155471782_);}
	.st152{fill:url(#SVGID_00000040568291975217001410000017320901997394361002_);}
	.st153{fill:url(#SVGID_00000055702741906510065180000007036961076889834888_);}
	.st154{fill:url(#SVGID_00000123403404896963421230000006734938525487269782_);}
	.st155{fill:url(#SVGID_00000052092474308549216650000017907162703474290057_);}
	.st156{fill:url(#SVGID_00000182525212608665432530000011453128749649005479_);}
	.st157{fill:url(#SVGID_00000100362623411757225210000004279662825570461826_);}
	.st158{fill:url(#SVGID_00000013191644215094041740000000066754162063573164_);}
	.st159{fill:url(#SVGID_00000000194165449907156090000011487002508762532762_);}
	.st160{fill:url(#SVGID_00000114041409990940106780000017708090229880999303_);}
	.st161{fill:url(#SVGID_00000095328845876907288310000015166960665290494600_);}
	.st162{fill:url(#SVGID_00000088108652075082178200000006135694048039294349_);}
	.st163{fill:url(#SVGID_00000159430836388589423780000006067966784604182157_);}
	.st164{fill:url(#SVGID_00000067943172193269917450000008709723706769114521_);}
	.st165{fill:url(#SVGID_00000085955192916952617130000007569327828712897469_);}
	.st166{fill:url(#SVGID_00000036936970182893134800000004623079919940284848_);}
	.st167{fill:url(#SVGID_00000078747101947279094440000001199099566572394653_);}
	.st168{fill:url(#SVGID_00000023966261828947224590000005976951966221262487_);}
	.st169{fill:url(#SVGID_00000075136364388200875350000006952055810159121083_);}
	.st170{fill:url(#SVGID_00000016064620194917856980000012702137178459263873_);}
</style>
<g>
	<g>
		<g>
			<path class="st102" d="M1595.6,870.7l-3.8,6.9L1431,1169.5l-170.5-292.2l-3.9-6.7h-150.7l12.4,20.4l29,47.8
				c-46.5-44.2-117.7-68.2-210.4-68.2H633.6v379.5L409,877.6l-3.9-6.5h-116l-3.9,6.6L29.6,1308.2l-12,20.2h100.4v0.2h223.3v-101.1
				H210l131.5-237.1l185.7,331.3l3.8,6.8h149.7l-0.2-0.4h229.9c198.2,0,298.8-77.4,298.8-230.2c0-26.5-3.4-51-10-73.3l179.9,297
				l3.9,6.4h87.6l3.8-6.7l249.7-430.5l11.7-20.1H1595.6z M888,1221.4h-122V974.4h172c93,0,136.3,37.6,136.3,118.3
				C1074.3,1188.8,1027.2,1221.4,888,1221.4z"/>
			<polyline class="st102" points="2611.3,870.7 2597.8,870.7 2597.8,1142.7 2254,873.5 2250.4,870.7 2160.2,870.7 2160.2,1250.5 
				1935.2,877.4 1931.2,870.9 1815.2,870.9 1811.4,877.4 1555.8,1308 1543.8,1328.3 1680.1,1328.3 1680.4,1327.8 1867.9,1327.8 
				1867.9,1226.7 1736.5,1226.7 1867.8,990.1 2053.5,1321.4 2057.3,1328.3 2207,1328.3 2206.9,1328 2282.5,1328 2282.5,1052.2 
				2625.1,1325.1 2628.8,1328 2718.8,1328 2718.8,870.7 2611.3,870.7 			"/>
			<path class="st102" d="M3152.3,870.8h-268.1c-94.1,0-125.8,29.1-125.8,115.4v226.6c0,86,31.7,115.2,125.8,115.2h268.1
				c94.2,0,126-29.1,126-115.2v-64.2l-13.4-0.1l-105.5-0.2H3146v70.4h-255.5V977.2H3146v63.5l13.4,0.1l105.5,0.4l13.5,0v-55.1
				C3278.4,898.8,3247.7,870.8,3152.3,870.8"/>
			<polyline class="st102" points="3801.7,1221.4 3453.7,1221.4 3453.7,1141.2 3661.4,1141.2 3661.4,1040.3 3453.7,1040.3 
				3453.7,974.3 3810.1,974.3 3810.1,870.8 3321.3,870.8 3321.3,1328 3815.1,1328 3815.1,1221.4 3801.7,1221.4 			"/>
		</g>
	</g>
	<path class="st102" d="M1523.7,18l-151.9,357.5L1306.2,18h-132.6l-171.3,527.5L914.4,18H749L498.6,586.3L536,348.7H287.2l-19,122.3
		h104l-11.9,65.5c-59.6,23.8-160.9,14.8-204.1-62.6c-27.3-49.1-52.7-158.7,62.5-259.3c93.8-82,256.3-96.8,350.1-53.6
		c0,0,11.9-68.6,20.9-132.6C409.3-34.2,269.3,18,175.5,76.1C47.7,155.2-13.8,275.7,2.6,439.6c19,190.2,265.2,309.9,473.7,189.2
		c1.9-1.1,3.4-2,4.8-2.8l-19.6,44.5h140l87.9-195.2h154.9l34.3,195.2h228l116.2-365l74.6,365h89.4L1561,266.8l17.8,403.7h134.1
		L1684.7,18H1523.7 M743,348.7l56.6-126.6l24.6,126.6H743z"/>
	<polyline class="st102" points="1723.4,670.5 2097.3,670.5 2119.7,530.5 1885.7,530.5 1904.3,414.3 2107.8,414.3 2130.1,274.3 
		1924.5,274.3 1942.4,158 2176.3,158 2198.6,18 1827.7,18 1723.4,670.5 	"/>
	<polygon class="st102" points="3682.5,18 3550,231 3466.5,18 3313,18 3470.9,362.1 3422.4,670.5 3556.5,670.5 3597.7,397.9 
		3839,18 	"/>
	<path class="st102" d="M3184.3,23.6c-148.6-34.3-302.8,84.1-344.4,264.5c-41.7,180.4,45.1,354.4,193.6,388.7s302.8-84,344.4-264.5
		C3419.6,232.1,3332.9,57.9,3184.3,23.6 M3236.8,407.2c-36.2,108.6-123,170.9-194,139.1c-70.9-31.7-99.1-145.4-62.9-254
		c36.1-108.6,123-170.8,193.9-139.1C3244.8,184.9,3273,298.7,3236.8,407.2z"/>
	<path class="st102" d="M2652.6,21.7c-72.4-1.2-251.4,0-251.4,0h1.5l-103.5,647.5c0,0,214.4,0,301.6,0
		c124.2,0,305.8-183,140.5-332.5C2911.4,160.7,2742.8,23.2,2652.6,21.7 M2574.2,543.6c-73.9,0-118.3,0-118.3,0l20.8-130.2
		c0,0,28.1,0,112.4,0C2695.5,413.4,2692.5,543.6,2574.2,543.6z M2590.5,280.4c-73.9,0-93.2,0-93.2,0l20.7-121.3c0,0,3,0,87.2,0
		C2699.9,159.1,2680.7,280.4,2590.5,280.4z"/>
</g>
</svg>
