<?xml version="1.0" encoding="utf-8"?>
<!-- Generator: Adobe Illustrator 25.0.0, SVG Export Plug-In . SVG Version: 6.00 Build 0)  -->
<svg version="1.1" id="Layer_1" xmlns="http://www.w3.org/2000/svg" xmlns:xlink="http://www.w3.org/1999/xlink" x="0px" y="0px"
	 viewBox="0 0 3839 848.8" style="enable-background:new 0 0 3839 848.8;" xml:space="preserve">
<style type="text/css">
	.st0{fill:#C2C3C4;}
	.st1{fill:url(#SVGID_1_);}
	.st2{fill:url(#SVGID_2_);}
	.st3{fill:none;stroke:#000000;stroke-width:8.0596;stroke-miterlimit:10;}
	.st4{fill:url(#SVGID_3_);}
	.st5{fill:url(#SVGID_4_);}
	.st6{fill:url(#SVGID_5_);}
	.st7{fill:url(#SVGID_6_);}
	.st8{fill:url(#SVGID_7_);}
	.st9{fill:url(#SVGID_8_);}
	.st10{fill:url(#SVGID_9_);}
	.st11{opacity:0.7;fill:url(#SVGID_10_);enable-background:new    ;}
	.st12{opacity:0.7;fill:url(#SVGID_11_);enable-background:new    ;}
	.st13{opacity:0.7;}
	.st14{opacity:0.7;fill:url(#SVGID_12_);enable-background:new    ;}
	.st15{opacity:0.7;fill:url(#SVGID_13_);enable-background:new    ;}
	.st16{fill:url(#SVGID_14_);}
	.st17{fill:url(#SVGID_15_);}
	.st18{opacity:0.7;fill:url(#SVGID_16_);enable-background:new    ;}
	.st19{opacity:0.7;fill:url(#SVGID_17_);enable-background:new    ;}
	.st20{opacity:0.7;fill:url(#SVGID_18_);enable-background:new    ;}
	.st21{opacity:0.7;fill:url(#SVGID_19_);enable-background:new    ;}
	.st22{opacity:0.7;fill:url(#SVGID_20_);enable-background:new    ;}
	.st23{opacity:0.7;fill:url(#SVGID_21_);enable-background:new    ;}
	.st24{opacity:0.7;fill:url(#SVGID_22_);enable-background:new    ;}
	.st25{fill:url(#SVGID_23_);}
	.st26{fill:url(#SVGID_24_);}
	.st27{fill:none;stroke:#000000;stroke-width:8.0815;stroke-miterlimit:10;}
	.st28{fill:url(#SVGID_25_);}
	.st29{fill:url(#SVGID_26_);}
	.st30{fill:url(#SVGID_27_);}
	.st31{fill:url(#SVGID_28_);}
	.st32{fill:url(#SVGID_29_);}
	.st33{fill:url(#SVGID_30_);}
	.st34{fill:url(#SVGID_31_);}
	.st35{opacity:0.7;fill:url(#SVGID_32_);enable-background:new    ;}
	.st36{opacity:0.7;fill:url(#SVGID_33_);enable-background:new    ;}
	.st37{opacity:0.7;fill:url(#SVGID_34_);enable-background:new    ;}
	.st38{opacity:0.7;fill:url(#SVGID_35_);enable-background:new    ;}
	.st39{fill:url(#SVGID_36_);}
	.st40{fill:url(#SVGID_37_);}
	.st41{opacity:0.7;fill:url(#SVGID_38_);enable-background:new    ;}
	.st42{opacity:0.7;fill:url(#SVGID_39_);enable-background:new    ;}
	.st43{opacity:0.7;fill:url(#SVGID_40_);enable-background:new    ;}
	.st44{opacity:0.7;fill:url(#SVGID_41_);enable-background:new    ;}
	.st45{opacity:0.7;fill:url(#SVGID_42_);enable-background:new    ;}
	.st46{opacity:0.7;fill:url(#SVGID_43_);enable-background:new    ;}
	.st47{opacity:0.7;fill:url(#SVGID_44_);enable-background:new    ;}
	.st48{fill:url(#SVGID_45_);}
	.st49{fill:url(#SVGID_46_);}
	.st50{fill:none;stroke:#000000;stroke-width:4.2135;stroke-miterlimit:10;}
	.st51{fill:url(#SVGID_47_);}
	.st52{fill:url(#SVGID_48_);}
	.st53{fill:url(#SVGID_49_);}
	.st54{fill:url(#SVGID_50_);}
	.st55{fill:url(#SVGID_51_);}
	.st56{fill:url(#SVGID_52_);}
	.st57{fill:url(#SVGID_53_);}
	.st58{opacity:0.7;fill:url(#SVGID_54_);enable-background:new    ;}
	.st59{opacity:0.7;fill:url(#SVGID_55_);enable-background:new    ;}
	.st60{opacity:0.7;fill:url(#SVGID_56_);enable-background:new    ;}
	.st61{opacity:0.7;fill:url(#SVGID_57_);enable-background:new    ;}
	.st62{fill:url(#SVGID_58_);}
	.st63{fill:url(#SVGID_59_);}
	.st64{opacity:0.7;fill:url(#SVGID_60_);enable-background:new    ;}
	.st65{opacity:0.7;fill:url(#SVGID_61_);enable-background:new    ;}
	.st66{opacity:0.7;fill:url(#SVGID_62_);enable-background:new    ;}
	.st67{opacity:0.7;fill:url(#SVGID_63_);enable-background:new    ;}
	.st68{opacity:0.7;fill:url(#SVGID_64_);enable-background:new    ;}
	.st69{opacity:0.7;fill:url(#SVGID_65_);enable-background:new    ;}
	.st70{opacity:0.7;fill:url(#SVGID_66_);enable-background:new    ;}
	.st71{fill:url(#SVGID_67_);}
	.st72{fill:url(#SVGID_68_);}
	.st73{fill:none;stroke:#000000;stroke-width:4.3485;stroke-miterlimit:10;}
	.st74{fill:url(#SVGID_69_);}
	.st75{fill:url(#SVGID_70_);}
	.st76{fill:url(#SVGID_71_);}
	.st77{fill:url(#SVGID_72_);}
	.st78{fill:url(#SVGID_73_);}
	.st79{fill:url(#SVGID_74_);}
	.st80{fill:url(#SVGID_75_);}
	.st81{opacity:0.7;fill:url(#SVGID_76_);enable-background:new    ;}
	.st82{opacity:0.7;fill:url(#SVGID_77_);enable-background:new    ;}
	.st83{opacity:0.7;fill:url(#SVGID_78_);enable-background:new    ;}
	.st84{opacity:0.7;fill:url(#SVGID_79_);enable-background:new    ;}
	.st85{fill:url(#SVGID_80_);}
	.st86{fill:url(#SVGID_81_);}
	.st87{opacity:0.7;fill:url(#SVGID_82_);enable-background:new    ;}
	.st88{opacity:0.7;fill:url(#SVGID_83_);enable-background:new    ;}
	.st89{opacity:0.7;fill:url(#SVGID_84_);enable-background:new    ;}
	.st90{opacity:0.7;fill:url(#SVGID_85_);enable-background:new    ;}
	.st91{opacity:0.7;fill:url(#SVGID_86_);enable-background:new    ;}
	.st92{opacity:0.7;fill:url(#SVGID_87_);enable-background:new    ;}
	.st93{opacity:0.7;fill:url(#SVGID_88_);enable-background:new    ;}
	.st94{fill:#FFFFFF;}
	.st95{fill:url(#SVGID_89_);}
	.st96{fill:url(#SVGID_90_);}
	.st97{fill:url(#SVGID_91_);}
	.st98{fill:url(#SVGID_92_);}
	.st99{fill:url(#SVGID_93_);}
	.st100{fill:url(#SVGID_94_);}
	.st101{fill:url(#SVGID_95_);}
	.st102{fill:url(#SVGID_96_);}
	.st103{fill:url(#SVGID_97_);}
	.st104{opacity:0.7;fill:url(#SVGID_98_);enable-background:new    ;}
	.st105{opacity:0.7;fill:url(#SVGID_99_);enable-background:new    ;}
	.st106{opacity:0.7;fill:url(#SVGID_100_);enable-background:new    ;}
	.st107{opacity:0.7;fill:url(#SVGID_101_);enable-background:new    ;}
	.st108{fill:url(#SVGID_102_);}
	.st109{fill:url(#SVGID_103_);}
	.st110{opacity:0.7;fill:url(#SVGID_104_);enable-background:new    ;}
	.st111{opacity:0.7;fill:url(#SVGID_105_);enable-background:new    ;}
	.st112{opacity:0.7;fill:url(#SVGID_106_);enable-background:new    ;}
	.st113{opacity:0.7;fill:url(#SVGID_107_);enable-background:new    ;}
	.st114{opacity:0.7;fill:url(#SVGID_108_);enable-background:new    ;}
	.st115{opacity:0.7;fill:url(#SVGID_109_);enable-background:new    ;}
	.st116{opacity:0.7;fill:url(#SVGID_110_);enable-background:new    ;}
	.st117{fill:url(#SVGID_111_);}
	.st118{fill:url(#SVGID_112_);}
	.st119{fill:url(#SVGID_113_);}
	.st120{fill:url(#SVGID_114_);}
	.st121{fill:url(#SVGID_115_);}
	.st122{fill:url(#SVGID_116_);}
	.st123{fill:url(#SVGID_117_);}
	.st124{fill:url(#SVGID_118_);}
	.st125{fill:url(#SVGID_119_);}
	.st126{opacity:0.7;fill:url(#SVGID_120_);enable-background:new    ;}
	.st127{opacity:0.7;fill:url(#SVGID_121_);enable-background:new    ;}
	.st128{opacity:0.7;fill:url(#SVGID_122_);enable-background:new    ;}
	.st129{opacity:0.7;fill:url(#SVGID_123_);enable-background:new    ;}
	.st130{fill:url(#SVGID_124_);}
	.st131{fill:url(#SVGID_125_);}
	.st132{opacity:0.7;fill:url(#SVGID_126_);enable-background:new    ;}
	.st133{opacity:0.7;fill:url(#SVGID_127_);enable-background:new    ;}
	.st134{opacity:0.7;fill:url(#SVGID_128_);enable-background:new    ;}
	.st135{opacity:0.7;fill:url(#SVGID_129_);enable-background:new    ;}
	.st136{opacity:0.7;fill:url(#SVGID_130_);enable-background:new    ;}
	.st137{opacity:0.7;fill:url(#SVGID_131_);enable-background:new    ;}
	.st138{opacity:0.7;fill:url(#SVGID_132_);enable-background:new    ;}
	.st139{fill:url(#SVGID_133_);}
	.st140{fill:url(#SVGID_134_);}
	.st141{fill:url(#SVGID_135_);}
	.st142{fill:url(#SVGID_136_);}
	.st143{fill:url(#SVGID_137_);}
	.st144{fill:url(#SVGID_138_);}
	.st145{fill:url(#SVGID_139_);}
	.st146{fill:url(#SVGID_140_);}
	.st147{fill:url(#SVGID_141_);}
	.st148{opacity:0.7;fill:url(#SVGID_142_);enable-background:new    ;}
	.st149{opacity:0.7;fill:url(#SVGID_143_);enable-background:new    ;}
	.st150{opacity:0.7;fill:url(#SVGID_144_);enable-background:new    ;}
	.st151{opacity:0.7;fill:url(#SVGID_145_);enable-background:new    ;}
	.st152{fill:url(#SVGID_146_);}
	.st153{fill:url(#SVGID_147_);}
	.st154{opacity:0.7;fill:url(#SVGID_148_);enable-background:new    ;}
	.st155{opacity:0.7;fill:url(#SVGID_149_);enable-background:new    ;}
	.st156{opacity:0.7;fill:url(#SVGID_150_);enable-background:new    ;}
	.st157{opacity:0.7;fill:url(#SVGID_151_);enable-background:new    ;}
	.st158{opacity:0.7;fill:url(#SVGID_152_);enable-background:new    ;}
	.st159{opacity:0.7;fill:url(#SVGID_153_);enable-background:new    ;}
	.st160{opacity:0.7;fill:url(#SVGID_154_);enable-background:new    ;}
	.st161{fill:url(#SVGID_155_);}
	.st162{fill:url(#SVGID_156_);}
	.st163{fill:url(#SVGID_157_);}
	.st164{fill:url(#SVGID_158_);}
	.st165{fill:url(#SVGID_159_);}
	.st166{fill:url(#SVGID_160_);}
	.st167{fill:url(#SVGID_161_);}
	.st168{fill:url(#SVGID_162_);}
	.st169{fill:url(#SVGID_163_);}
	.st170{opacity:0.7;fill:url(#SVGID_164_);enable-background:new    ;}
	.st171{opacity:0.7;fill:url(#SVGID_165_);enable-background:new    ;}
	.st172{opacity:0.7;fill:url(#SVGID_166_);enable-background:new    ;}
	.st173{opacity:0.7;fill:url(#SVGID_167_);enable-background:new    ;}
	.st174{fill:url(#SVGID_168_);}
	.st175{fill:url(#SVGID_169_);}
	.st176{opacity:0.7;fill:url(#SVGID_170_);enable-background:new    ;}
	.st177{opacity:0.7;fill:url(#SVGID_171_);enable-background:new    ;}
	.st178{opacity:0.7;fill:url(#SVGID_172_);enable-background:new    ;}
	.st179{opacity:0.7;fill:url(#SVGID_173_);enable-background:new    ;}
	.st180{opacity:0.7;fill:url(#SVGID_174_);enable-background:new    ;}
	.st181{opacity:0.7;fill:url(#SVGID_175_);enable-background:new    ;}
	.st182{opacity:0.7;fill:url(#SVGID_176_);enable-background:new    ;}
</style>
<g>
	<g>
		<polyline class="st94" points="1415.3,411.2 1250.6,697.7 1456.7,697.7 1456.7,632.6 1364.8,632.6 1449.8,490.4 1564.9,697.7 
			1650.4,697.7 1484.1,411.2 1415.3,411.2 		"/>
		<polyline class="st94" points="1837.2,697.7 1925.4,544.6 1925.4,697.7 1996.3,697.7 1996.5,411.2 1925.7,411.2 1808.8,614 
			1691.8,411.2 1621.2,411.2 1621.3,697.7 1692.1,697.7 1692.1,544.6 1780.3,697.7 1837.2,697.7 		"/>
		<path class="st94" d="M1259.8,525.3h-179v60.4h103.8v47H999.4V473.3h257.2v-62.1H997c-56.2,0-74.4,17.2-74.4,71.2v144
			c0,54.2,18.1,71.4,74.4,71.4h188.5c56.2,0,74.3-17.2,74.3-71.4L1259.8,525.3"/>
		<path class="st94" d="M2623.9,411.2h-168.4c-56.5,0-74.4,17.2-74.4,71.2v143.9c0,54.2,17.9,71.3,74.4,71.3h168.4
			c56.2,0,74.5-17.1,74.5-71.3V574h-77v58.6h-163.4V473.4h163.5v51.9h77v-42.8C2698.4,428.5,2680.1,411.2,2623.9,411.2"/>
		<path class="st94" d="M2973.5,632.6h-167.5V411.2h-77v215c0,54.2,18.1,71.4,74.4,71.4h172.5c56.4,0,74.5-17.2,74.5-71.4v-215
			h-76.9V632.6"/>
		<path class="st94" d="M3323.3,617c0,13.8-3.1,17.6-23.9,17.6h-138.3v-55.4h138.2c20.8,0,23.9,3.8,23.9,17.4V617 M3161.3,468.8
			h137.9c21.3,0,22.3,4.6,22.3,12.9v26.1c0,8.3-1,13-22.3,13h-137.9V468.8z M3363.9,550.5c18.5-8.8,28.7-25.1,28.7-46.3v-33.6
			c0-40.6-21.7-59.4-68.2-59.4h-240.1v286.4h223.4c58.2,0,87.5-20.2,87.5-60.6v-34.7C3395.2,577.9,3384.1,560,3363.9,550.5z"/>
		<polyline class="st94" points="3501.2,579 3627.1,579 3627.1,519 3501.2,519 3501.2,471.5 3717.1,471.5 3717.1,411.2 
			3424.1,411.2 3424.1,697.7 3719.7,697.7 3719.7,632.6 3501.2,632.6 3501.2,579 		"/>
		<polyline class="st94" points="2107.4,579 2233.2,579 2233.2,519 2107.4,519 2107.4,471.5 2323.3,471.5 2323.3,411.2 
			2030.5,411.2 2030.5,697.7 2325.9,697.7 2325.9,632.6 2107.4,632.6 2107.4,579 		"/>
		<polyline class="st0" points="2922.4,332.1 2922.4,112 2880.4,112 2880.4,252.3 2809.4,112 2752.8,112 2752.8,332.1 2794.7,332.1 
			2794.7,160.5 2880.8,332.1 2922.4,332.1 		"/>
		<polyline class="st0" points="1709.2,160.5 1795.4,332.1 1837,332.1 1837,112 1795.1,112 1795.1,252.3 1723.9,112 1667.3,112 
			1667.3,332.1 1709.2,332.1 1709.2,160.5 		"/>
		<polyline class="st0" points="1023.1,160.5 1109.3,332.1 1150.8,332.1 1150.8,112 1108.8,112 1108.8,252.3 1037.7,112 981.2,112 
			981.2,332.1 1023.1,332.1 1023.1,160.5 		"/>
		<rect x="1385.4" y="112" class="st0" width="47.2" height="220.1"/>
		<polyline class="st0" points="2095.7,332.1 2140.4,332.1 2140.4,147.1 2211.1,147.1 2211.1,112.1 2024.9,112.1 2024.9,147.1 
			2095.7,147.1 2095.7,332.1 		"/>
		<path class="st0" d="M3169.4,145.8h59.1c14.5,0,29.3,11,29.3,24.4v104c0,14.2-15.3,24.1-29.3,24.1h-59.1V145.8 M3229.7,332.1
			c38.5,0,69.7-25.5,69.7-56.8V168.9c0-31.5-31.1-56.9-69.7-56.9h-101.8v220.1L3229.7,332.1L3229.7,332.1z"/>
		<path class="st0" d="M3625,275.7c0,13.3-15,24.2-29.4,24.2h-34.9c-14.5,0-29.4-10.9-29.4-24.2V168.5c0-13.6,14.9-24.3,29.4-24.3
			h34.9c14.4,0,29.4,10.7,29.4,24.3V275.7 M3666.5,167.3c0-31.4-31.4-56.8-69.6-56.8h-37.6c-38.3,0-69.6,25.4-69.6,56.8v109.7
			c0,31.5,31.2,56.9,69.6,56.9h37.6c38.2,0,69.6-25.4,69.6-56.9V167.3z"/>
		<path class="st0" d="M2384.2,275.5c0,30.6,29.6,55.3,66.5,56.6h97v-34.9h-92.8c-14.5,0-29.4-9.5-29.4-22.9v-39.8h122.2v-35.2
			h-122.2v-29.5c0-13.3,14.9-23,29.4-23h92.8V112h-95.5c-37.6,0.8-68,25.8-68,56.7V275.5"/>
		<path class="st94" d="M3797.3,699.8c19,0,34.5-15.5,34.5-34.5c0-19-15.5-34.5-34.5-34.5c-19,0-34.5,15.5-34.5,34.5
			C3762.9,684.3,3778.3,699.8,3797.3,699.8 M3797.3,623.7c22.9,0,41.7,18.7,41.7,41.6c0,23-18.8,41.7-41.7,41.7
			c-22.9,0-41.6-18.7-41.6-41.7C3755.7,642.3,3774.4,623.7,3797.3,623.7z"/>
		<path class="st94" d="M3789,662.9h14.1l0.4,0.1c3.5,0,6.3-3.2,6.3-6.7c0-3.6-2.8-6.9-6.3-6.9l-0.4,0.1l-14.1-0.1V662.9
			 M3797.8,669.3h-8.8v18.8h-7v-44.9h21.8v0.1c7,0,12.5,6.1,12.5,13c0,6.4-4.7,11.9-10.8,12.8l11.2,19h-8L3797.8,669.3z"/>
	</g>
	<g>
		<g>
			
				<linearGradient id="SVGID_1_" gradientUnits="userSpaceOnUse" x1="531.8347" y1="-7445.9097" x2="642.015" y2="-7445.9097" gradientTransform="matrix(1 0 0 1 0 7645.3281)">
				<stop  offset="0" style="stop-color:#3C4DA1"/>
				<stop  offset="0.9932" style="stop-color:#45495F"/>
			</linearGradient>
			<polygon class="st1" points="642,158.5 642,176.8 531.8,240.4 531.8,222.1 			"/>
			
				<linearGradient id="SVGID_2_" gradientUnits="userSpaceOnUse" x1="238.8542" y1="-7081.5073" x2="238.8542" y2="-6923.7646" gradientTransform="matrix(1 0 0 1 0 7645.3281)">
				<stop  offset="3.680000e-02" style="stop-color:#F7FBFF"/>
				<stop  offset="0.8957" style="stop-color:#E7ECFE"/>
			</linearGradient>
			<polygon class="st2" points="126,563.8 110.2,572.9 367.5,721.6 367.5,703.2 			"/>
			<g>
				<path class="st50" d="M110.2,275.8l257.3-148.6"/>
			</g>
			<path class="st50" d="M367.5,127.2l164.3,94.9"/>
			
				<linearGradient id="SVGID_3_" gradientUnits="userSpaceOnUse" x1="616.9575" y1="-7072.3906" x2="616.9575" y2="-7231.3315" gradientTransform="matrix(1 0 0 1 0 7645.3281)">
				<stop  offset="3.680000e-02" style="stop-color:#ADC1EA"/>
				<stop  offset="0.8957" style="stop-color:#7185B8"/>
			</linearGradient>
			<polygon class="st4" points="609,423.1 609,563.8 624.9,572.9 624.9,414 			"/>
			
				<linearGradient id="SVGID_4_" gradientUnits="userSpaceOnUse" x1="367.5281" y1="-7002.6357" x2="624.8759" y2="-7002.6357" gradientTransform="matrix(1 0 0 1 0 7645.3281)">
				<stop  offset="3.680000e-02" style="stop-color:#F7FBFF"/>
				<stop  offset="0.8957" style="stop-color:#6F83B9"/>
			</linearGradient>
			<polygon class="st5" points="609,563.8 367.5,703.2 367.5,721.6 624.9,572.9 			"/>
			<g>
				<g>
					
						<linearGradient id="SVGID_5_" gradientUnits="userSpaceOnUse" x1="883.6135" y1="-4275.9795" x2="1251.1416" y2="-4275.9795" gradientTransform="matrix(1 0 0 1 -883.6135 4806.4336)">
						<stop  offset="0" style="stop-color:#617CC6"/>
						<stop  offset="0.9932" style="stop-color:#91B0D7"/>
					</linearGradient>
					<path class="st6" d="M196.9,325.9v197l170.6,98.5v-197L196.9,325.9z M110.2,275.8L0,212.2v424.4l367.5,212.2V721.5L110.2,572.9
						V275.8z"/>
				</g>
			</g>
			
				<linearGradient id="SVGID_6_" gradientUnits="userSpaceOnUse" x1="238.8542" y1="-7518.1128" x2="238.8542" y2="-7072.3906" gradientTransform="matrix(1 0 0 1 0 7645.3281)">
				<stop  offset="1.491781e-07" style="stop-color:#4C5794"/>
				<stop  offset="1" style="stop-color:#424873"/>
			</linearGradient>
			<polygon class="st7" points="110.2,275.8 110.2,275.8 110.2,572.9 126,563.8 126,285 126,285 367.5,145.5 367.5,127.2 			"/>
			
				<linearGradient id="SVGID_7_" gradientUnits="userSpaceOnUse" x1="406.3517" y1="-7259.7886" x2="696.2064" y2="-6969.9336" gradientTransform="matrix(1 0 0 1 0 7645.3281)">
				<stop  offset="7.458905e-08" style="stop-color:#3F578E"/>
				<stop  offset="0.1523" style="stop-color:#435A92"/>
				<stop  offset="0.3057" style="stop-color:#4F639D"/>
				<stop  offset="0.4593" style="stop-color:#6373B0"/>
				<stop  offset="0.5006" style="stop-color:#6A78B6"/>
				<stop  offset="0.8998" style="stop-color:#6F83C1"/>
				<stop  offset="1" style="stop-color:#7187C4"/>
			</linearGradient>
			<polygon class="st8" points="367.5,848.8 367.5,721.6 624.9,572.9 624.9,414 538.1,464.1 538.1,522.9 367.5,621.4 367.5,424.4 
				735.1,212.2 735.1,636.5 733.6,637.4 			"/>
			<g>
				<g>
					
						<linearGradient id="SVGID_8_" gradientUnits="userSpaceOnUse" x1="1251.1416" y1="-4806.4336" x2="1251.1416" y2="-4382.0703" gradientTransform="matrix(1 0 0 1 -883.6135 4806.4336)">
						<stop  offset="0" style="stop-color:#9AA8D4"/>
						<stop  offset="6.100000e-02" style="stop-color:#A2AFD7"/>
						<stop  offset="0.2422" style="stop-color:#B6BFDF"/>
						<stop  offset="0.4249" style="stop-color:#C2C9E3"/>
						<stop  offset="0.6099" style="stop-color:#C6CCE5"/>
						<stop  offset="1" style="stop-color:#F2F1F7"/>
					</linearGradient>
					<path class="st9" d="M531.8,222.1L642,158.5L367.5,0L0,212.2l110.2,63.6l257.3-148.6L531.8,222.1z M719.2,203.1L522.3,316.7
						l-154.8-89.3l-170.6,98.5l170.6,98.5l367.5-212.2L719.2,203.1z"/>
				</g>
			</g>
			
				<linearGradient id="SVGID_9_" gradientUnits="userSpaceOnUse" x1="367.5281" y1="-7461.5381" x2="531.8347" y2="-7461.5381" gradientTransform="matrix(1 0 0 1 0 7645.3281)">
				<stop  offset="3.680000e-02" style="stop-color:#8792C3"/>
				<stop  offset="1" style="stop-color:#5C6D99"/>
			</linearGradient>
			<polygon class="st10" points="367.5,127.2 367.5,145.5 531.8,240.4 531.8,222.1 			"/>
			
				<linearGradient id="SVGID_10_" gradientUnits="userSpaceOnUse" x1="346.013" y1="-7128.6528" x2="367.5281" y2="-7128.6528" gradientTransform="matrix(1 0 0 1 0 7645.3281)">
				<stop  offset="0.5313" style="stop-color:#ACC3D6;stop-opacity:0"/>
				<stop  offset="1" style="stop-color:#ACC3D6"/>
			</linearGradient>
			<polygon class="st11" points="346,412 346,609 367.5,621.4 367.5,424.4 			"/>
			
				<linearGradient id="SVGID_11_" gradientUnits="userSpaceOnUse" x1="346.013" y1="-6866.3823" x2="367.5281" y2="-6866.3823" gradientTransform="matrix(1 0 0 1 0 7645.3281)">
				<stop  offset="0.5313" style="stop-color:#ACC3D6;stop-opacity:0"/>
				<stop  offset="1" style="stop-color:#ACC3D6"/>
			</linearGradient>
			<polygon class="st12" points="346,709.1 346,836.3 367.5,848.8 367.5,721.6 			"/>
			<g class="st13">
				
					<linearGradient id="SVGID_12_" gradientUnits="userSpaceOnUse" x1="11126.0742" y1="-4304.9453" x2="11147.6006" y2="-4304.9453" gradientTransform="matrix(0.5 -0.866 0.866 0.5 -1785.2968 12053.4727)">
					<stop  offset="0.6232" style="stop-color:#47588B;stop-opacity:0"/>
					<stop  offset="1" style="stop-color:#47588B"/>
				</linearGradient>
				<polygon class="st14" points="0,237 110.2,300.6 110.2,275.8 0,212.2 				"/>
				
					<linearGradient id="SVGID_13_" gradientUnits="userSpaceOnUse" x1="11126.0742" y1="-4042.6758" x2="11147.5996" y2="-4042.6758" gradientTransform="matrix(0.5 -0.866 0.866 0.5 -1785.2968 12053.4727)">
					<stop  offset="0.6232" style="stop-color:#47588B;stop-opacity:0"/>
					<stop  offset="1" style="stop-color:#47588B"/>
				</linearGradient>
				<polygon class="st15" points="196.9,350.7 367.5,449.2 367.5,424.4 196.9,325.9 				"/>
			</g>
			
				<linearGradient id="SVGID_14_" gradientUnits="userSpaceOnUse" x1="296.782" y1="-7352.2603" x2="286.0242" y2="-7370.8931" gradientTransform="matrix(1 0 0 1 0 7645.3281)">
				<stop  offset="2.290950e-07" style="stop-color:#DBDDE8;stop-opacity:0"/>
				<stop  offset="0.1847" style="stop-color:#D8DAE6;stop-opacity:3.690000e-02"/>
				<stop  offset="0.3247" style="stop-color:#CED1DF;stop-opacity:6.490000e-02"/>
				<stop  offset="0.4499" style="stop-color:#BEC1D4;stop-opacity:9.000000e-02"/>
				<stop  offset="0.5666" style="stop-color:#A7ABC4;stop-opacity:0.1133"/>
				<stop  offset="0.6774" style="stop-color:#898EB0;stop-opacity:0.1355"/>
				<stop  offset="0.7836" style="stop-color:#656A97;stop-opacity:0.1567"/>
				<stop  offset="0.8864" style="stop-color:#3A4079;stop-opacity:0.1773"/>
				<stop  offset="0.9839" style="stop-color:#091157;stop-opacity:0.1968"/>
				<stop  offset="1" style="stop-color:#000851;stop-opacity:0.2"/>
			</linearGradient>
			<polygon class="st16" points="382.7,236.2 218.4,338.3 196.9,325.9 367.5,227.4 			"/>
			
				<linearGradient id="SVGID_15_" gradientUnits="userSpaceOnUse" x1="5649.9673" y1="-7002.29" x2="5644.2598" y2="-7012.1758" gradientTransform="matrix(-1 0 0 1 5890.3696 7645.3281)">
				<stop  offset="2.290950e-07" style="stop-color:#DBDDE8;stop-opacity:0"/>
				<stop  offset="0.312" style="stop-color:#D9DBE7;stop-opacity:6.240000e-02"/>
				<stop  offset="0.4549" style="stop-color:#D1D4E1;stop-opacity:9.100000e-02"/>
				<stop  offset="0.5633" style="stop-color:#C5C7D9;stop-opacity:0.1127"/>
				<stop  offset="0.6543" style="stop-color:#B3B6CC;stop-opacity:0.1309"/>
				<stop  offset="0.7345" style="stop-color:#9B9FBC;stop-opacity:0.1469"/>
				<stop  offset="0.807" style="stop-color:#7E82A8;stop-opacity:0.1614"/>
				<stop  offset="0.8737" style="stop-color:#5B6190;stop-opacity:0.1747"/>
				<stop  offset="0.9359" style="stop-color:#333974;stop-opacity:0.1872"/>
				<stop  offset="0.9924" style="stop-color:#070E56;stop-opacity:0.1985"/>
				<stop  offset="1" style="stop-color:#000851;stop-opacity:0.2"/>
			</linearGradient>
			<polygon class="st17" points="114.6,570.4 367.5,713.4 367.5,703.2 126,563.8 			"/>
			<g class="st13">
				
					<linearGradient id="SVGID_16_" gradientUnits="userSpaceOnUse" x1="10868.7354" y1="-3944.1704" x2="10890.2471" y2="-3944.1704" gradientTransform="matrix(0.5 -0.866 0.866 0.5 -1785.2968 12053.4727)">
					<stop  offset="0.6232" style="stop-color:#47588B;stop-opacity:0"/>
					<stop  offset="1" style="stop-color:#47588B"/>
				</linearGradient>
				<polygon class="st18" points="110.2,572.9 195.4,632.1 367.5,746.4 367.5,721.6 				"/>
			</g>
			<g class="st13">
				
					<linearGradient id="SVGID_17_" gradientUnits="userSpaceOnUse" x1="13451.3848" y1="522.804" x2="13472.9043" y2="522.804" gradientTransform="matrix(-0.5 -0.866 -0.866 0.5 7685.4536 12053.4727)">
					<stop  offset="0.7598" style="stop-color:#3B4D86;stop-opacity:0"/>
					<stop  offset="1" style="stop-color:#3B4D86"/>
				</linearGradient>
				<polygon class="st19" points="624.9,597.8 475.1,663.1 367.5,721.6 477.9,657.9 624.9,572.9 				"/>
			</g>
			<g>
				
					<linearGradient id="SVGID_18_" gradientUnits="userSpaceOnUse" x1="14008.2637" y1="522.827" x2="13987.4912" y2="522.827" gradientTransform="matrix(-0.5 -0.866 -0.866 0.5 7685.4536 12053.4727)">
					<stop  offset="0.6232" style="stop-color:#E8F2F3;stop-opacity:0"/>
					<stop  offset="0.9975" style="stop-color:#E8F2F3"/>
				</linearGradient>
				<polygon class="st20" points="367.5,127.3 110.2,275.8 89.5,263.9 367.5,103.5 				"/>
			</g>
			<g class="st13">
				
					<linearGradient id="SVGID_19_" gradientUnits="userSpaceOnUse" x1="11395.1455" y1="-4056.8054" x2="11374.4082" y2="-4056.8054" gradientTransform="matrix(0.5 -0.866 0.866 0.5 -1724.4227 12053.4727)">
					<stop  offset="0.6232" style="stop-color:#E8F2F3;stop-opacity:0"/>
					<stop  offset="0.9975" style="stop-color:#E8F2F3"/>
				</linearGradient>
				<polygon class="st21" points="367.5,127.3 531.8,222.1 552.5,210.1 367.5,103.5 				"/>
			</g>
			<g class="st13">
				
					<linearGradient id="SVGID_20_" gradientUnits="userSpaceOnUse" x1="-7857.4849" y1="7111.6846" x2="-7836.7803" y2="7111.6846" gradientTransform="matrix(0.5 0.866 0.866 -0.5 -1658.5946 10535.7695)">
					<stop  offset="0.6232" style="stop-color:#E8F2F3;stop-opacity:0"/>
					<stop  offset="0.9975" style="stop-color:#E8F2F3"/>
				</linearGradient>
				<polygon class="st22" points="511.1,210.1 621.3,146.5 642,158.5 531.8,222.1 				"/>
			</g>
			<g>
				
					<linearGradient id="SVGID_21_" gradientUnits="userSpaceOnUse" x1="5302.7393" y1="14504.835" x2="5324.2544" y2="14504.835" gradientTransform="matrix(-1 0 0 -1 5949.1304 14992.0762)">
					<stop  offset="0.7598" style="stop-color:#3B4D86;stop-opacity:0"/>
					<stop  offset="1" style="stop-color:#3B4D86"/>
				</linearGradient>
				<polygon class="st23" points="646.4,560.5 646.4,401.5 624.9,414 624.9,572.9 				"/>
			</g>
			
				<linearGradient id="SVGID_22_" gradientUnits="userSpaceOnUse" x1="635.9344" y1="-7065.2881" x2="624.5652" y2="-7071.8525" gradientTransform="matrix(1 0 0 1 0 7645.3281)">
				<stop  offset="0.7598" style="stop-color:#3B4D86;stop-opacity:0"/>
				<stop  offset="1" style="stop-color:#3B4D86"/>
			</linearGradient>
			<polygon class="st24" points="624.9,599.2 624.9,572.9 646.4,560.5 			"/>
		</g>
	</g>
</g>
</svg>
