<?xml version="1.0" encoding="utf-8"?>
<!-- Generator: Adobe Illustrator 25.4.1, SVG Export Plug-In . SVG Version: 6.00 Build 0)  -->
<svg version="1.1" id="Layer_1" xmlns="http://www.w3.org/2000/svg" xmlns:xlink="http://www.w3.org/1999/xlink" x="0px" y="0px"
	 viewBox="0 0 3839 806.5" style="enable-background:new 0 0 3839 806.5;" xml:space="preserve">
<style type="text/css">
	.st0{fill:#FFFFFF;}
	.st1{fill:#034693;}
	.st2{fill:#FFFFFF;stroke:#3852A1;stroke-width:6.1873;stroke-linecap:round;stroke-linejoin:round;stroke-miterlimit:10;}
	.st3{fill:#008ED6;}
	.st4{fill:#FF0000;}
	.st5{fill:url(#SVGID_1_);}
	.st6{fill:url(#SVGID_00000118379625221508390870000010990550043207911351_);}
	.st7{fill:#F4F8F4;}
	.st8{fill:url(#SVGID_00000155869144093548251890000010135807136616795802_);}
	.st9{fill:url(#SVGID_00000163787990295466748470000009565022148302855866_);}
	.st10{fill:url(#SVGID_00000013165339595342900060000001945386728708668559_);}
	.st11{fill:url(#SVGID_00000064324202738571898590000005503640661866447003_);}
	.st12{fill:url(#SVGID_00000122001836241031164000000005803243578262464956_);}
	.st13{fill:url(#SVGID_00000064327798779650287920000016288163622372281250_);}
	.st14{fill:url(#SVGID_00000019652064064832655930000007266039169266005435_);}
	.st15{fill:url(#SVGID_00000065046704745156250900000010457087341568752020_);}
	.st16{fill:url(#SVGID_00000070805316704878057600000017964339591595262855_);}
	.st17{fill:url(#SVGID_00000075156648924241575530000014357713827886199479_);}
	.st18{fill:url(#SVGID_00000014601240952483322810000008169713093573563830_);}
	.st19{fill:url(#SVGID_00000178911230826712251210000000251909258025212573_);}
	.st20{fill:url(#SVGID_00000050645309711861199430000011600525738220111513_);}
	.st21{fill:url(#SVGID_00000031890840452486855400000012502488129969526182_);}
	.st22{fill:url(#SVGID_00000030458093827432201330000009551165973921902217_);}
	.st23{fill:url(#SVGID_00000121986235669393609400000008946931529794715803_);}
	.st24{fill:url(#SVGID_00000096759114967715831590000001492457258552776840_);}
	.st25{fill:url(#SVGID_00000003084791429729199020000007423984090711583894_);}
	.st26{fill:url(#SVGID_00000130613963737203766090000014795052988359025839_);}
	.st27{fill:url(#SVGID_00000161592381455875839630000008871278111934940569_);}
	.st28{fill:url(#SVGID_00000127018078284049883200000001533394844381638314_);}
	.st29{fill:url(#SVGID_00000031169406984460220180000012423324745834478007_);}
	.st30{fill:#DBDCD9;}
	.st31{fill:url(#SVGID_00000102517759161837917930000011979021994780473732_);}
	.st32{fill:url(#SVGID_00000104672154985065960300000016450514510779817901_);}
	.st33{fill:url(#SVGID_00000115487473133679978520000008558690089483237799_);}
	.st34{fill:url(#SVGID_00000048462067117001832670000012245083704474902182_);}
	.st35{fill:url(#SVGID_00000075844342792575866710000009323429215426577030_);}
	.st36{fill:url(#SVGID_00000041985204600123926540000007075781474079339939_);}
	.st37{fill:url(#SVGID_00000150804403125086355990000002014319735522049719_);}
	.st38{fill:url(#SVGID_00000014598886461131227450000010275947052072930690_);}
	.st39{fill:url(#SVGID_00000046332714222273818250000011589419048974487699_);}
	.st40{fill:url(#SVGID_00000108278179578466699810000009966328348665606277_);}
	.st41{fill:url(#SVGID_00000043441802684130025080000011490071879959168409_);}
	.st42{fill:url(#SVGID_00000075128665755256139400000008047339785577730448_);}
	.st43{fill:url(#SVGID_00000098213972637448221000000005018666406843100554_);}
	.st44{fill:url(#SVGID_00000037650597085267983850000008431106901765680789_);}
	.st45{fill:url(#SVGID_00000049923176934800634010000016147040406610652804_);}
	.st46{fill:url(#SVGID_00000137842048739848990870000005048603848056522649_);}
	.st47{fill:url(#SVGID_00000049942554762676599890000009714984106923205800_);}
	.st48{fill:url(#SVGID_00000083770930148032152850000001397734382780029354_);}
	.st49{fill:url(#SVGID_00000097488725665591032730000004216666024370593965_);}
	.st50{fill:url(#SVGID_00000083793973816966828350000016255218296913316257_);}
	.st51{fill:url(#SVGID_00000124163702728767329740000017972538908654144900_);}
	.st52{fill:url(#SVGID_00000096043035423118068400000008762675247588294274_);}
	.st53{fill:url(#SVGID_00000114759220872704634370000016363955941040447647_);}
	.st54{fill:url(#SVGID_00000072989841476914905320000002915932895442850462_);}
	.st55{fill:url(#SVGID_00000147932578641572914300000009705747455461277597_);}
	.st56{fill:url(#SVGID_00000117675783709180330930000008156367756687416459_);}
	.st57{fill:url(#SVGID_00000031906295749974605940000001000554469679833218_);}
	.st58{fill:url(#SVGID_00000085252088388107731400000002347172272936446112_);}
	.st59{fill:url(#SVGID_00000031927187702171252770000000478603221430432166_);}
	.st60{fill:url(#SVGID_00000062150363787290377910000016907868540779626889_);}
	.st61{fill:url(#SVGID_00000017480573087947159920000008387631008027307424_);}
	.st62{fill:url(#SVGID_00000118361042873652868130000005529600871383015565_);}
	.st63{fill:url(#SVGID_00000033329255367049670850000007189278961113712295_);}
	.st64{fill:url(#SVGID_00000165916371019963989110000005653302638046351790_);}
	.st65{fill:url(#SVGID_00000177457127417865715140000016889249819144485804_);}
	.st66{fill:url(#SVGID_00000089557207885392671920000003964889054871871157_);}
	.st67{fill:url(#SVGID_00000086690275901781468730000000925371515994407823_);}
	.st68{fill:url(#SVGID_00000124153707500920370840000001156873800514697865_);}
	.st69{fill:url(#SVGID_00000094592885372964531600000016428759368301915543_);}
	.st70{fill:url(#SVGID_00000104705685530825445360000010118630791031807417_);}
	.st71{fill:url(#SVGID_00000144301886380676397220000014450883159496301498_);}
	.st72{fill:url(#SVGID_00000077283703523693347330000006852606705357863346_);}
	.st73{fill:url(#SVGID_00000119090360833693416620000004327104273735336112_);}
	.st74{fill:url(#SVGID_00000022546371063486199980000011048245041692370052_);}
	.st75{fill:url(#SVGID_00000017502430265266983240000001654063716216508345_);}
	.st76{fill:url(#SVGID_00000016057817291320720400000016494004809141083796_);}
	.st77{fill:url(#SVGID_00000031184803735784837470000005610874241695503510_);}
	.st78{fill:url(#SVGID_00000176042236284060802390000005945347895949161355_);}
	.st79{fill:url(#SVGID_00000057150230252387067360000010971000740462022016_);}
	.st80{fill:url(#SVGID_00000045596363745821272420000010490270944169464759_);}
	.st81{fill:url(#SVGID_00000141415562447438498440000000434399473677819539_);}
	.st82{fill:url(#SVGID_00000059298756084022325100000005937254403940938658_);}
	.st83{fill:url(#SVGID_00000043418854329287851560000005268002652642594702_);}
	.st84{fill:url(#SVGID_00000127753293465545634750000002699659096304342961_);}
	.st85{fill:url(#SVGID_00000070102222570643882780000014459929573830495371_);}
	.st86{fill:url(#SVGID_00000019657115453696094510000014152986602240897191_);}
	.st87{fill:url(#SVGID_00000008829087119178050630000006561306963711785648_);}
	.st88{fill:url(#SVGID_00000089570584087003758590000004101119591829664660_);}
	.st89{fill:url(#SVGID_00000116200169787129512390000017453323188992500898_);}
	.st90{fill:url(#SVGID_00000061456721348941942360000017999535224412130699_);}
	.st91{fill:url(#SVGID_00000174570732778431619020000003377440365326340257_);}
	.st92{fill:url(#SVGID_00000117664057404611781240000014283047997133302717_);}
	.st93{fill:url(#SVGID_00000110472829347743483910000006674212999474022793_);}
	.st94{fill:url(#SVGID_00000117651102671056410320000001217675940901476235_);}
	.st95{fill:url(#SVGID_00000030456295766191954830000004532731930881804222_);}
	.st96{fill:url(#SVGID_00000145035413128495010840000017530605444333773217_);}
	.st97{fill:url(#SVGID_00000111158407723292735120000011619484600232675208_);}
	.st98{fill:url(#SVGID_00000059299228925086028700000013917153857181955468_);}
	.st99{fill:url(#SVGID_00000183950297590086648750000016624625838223274171_);}
	.st100{fill:url(#SVGID_00000123415029143081454020000013279048912800660920_);}
	.st101{fill:url(#SVGID_00000092424374165735335130000011169860693442741438_);}
	.st102{fill:url(#SVGID_00000078747177856057227750000017987508670215168916_);}
	.st103{fill:url(#SVGID_00000099642147349436371410000008041342134782220956_);}
	.st104{fill:url(#SVGID_00000143577247683813135190000014309617170338896260_);}
	.st105{fill:url(#SVGID_00000031921004431063936630000011259098404498335400_);}
	.st106{fill:url(#SVGID_00000024722579821908366530000009417722733344123837_);}
	.st107{fill:url(#SVGID_00000147215951615627100530000006058781409035591335_);}
	.st108{fill:url(#SVGID_00000037660988700117659170000005987098465539036805_);}
	.st109{fill:url(#SVGID_00000072971701212003405990000004449718346047883941_);}
	.st110{fill:url(#SVGID_00000030472135801333834720000003454884109297897882_);}
	.st111{fill:url(#SVGID_00000009580352870221558530000012539333956353812865_);}
	.st112{fill:url(#SVGID_00000090283028813414766510000003797070887164571808_);}
	.st113{fill:url(#SVGID_00000087412054605231048510000003638341186325893050_);}
	.st114{fill:url(#SVGID_00000055679558527404863110000010078889668505838521_);}
	.st115{fill:url(#SVGID_00000160870568286238604940000000775227579316016515_);}
	.st116{fill:url(#SVGID_00000153690154288949155100000004368527884519074205_);}
	.st117{fill:url(#SVGID_00000010296618447229613940000007451800196246514094_);}
	.st118{fill:url(#SVGID_00000146494752002182643310000017940035886691452336_);}
	.st119{fill:url(#SVGID_00000087370671125003119760000008594710528731927441_);}
	.st120{fill:url(#SVGID_00000075851696829617144850000010452751149796568972_);}
	.st121{fill:url(#SVGID_00000042731901634381694110000014079554575650677385_);}
	.st122{fill:url(#SVGID_00000048484445047678628350000014610383804180203676_);}
	.st123{fill:url(#SVGID_00000080200388238081411520000008562448778049376152_);}
	.st124{fill:url(#SVGID_00000121281164286602441300000010831188933332332218_);}
	.st125{fill:url(#SVGID_00000142162310790613693780000007607180743480748198_);}
	.st126{fill:url(#SVGID_00000105388390979218168470000000356091470833804205_);}
	.st127{fill:url(#SVGID_00000041979286225238058380000013778287325276135351_);}
	.st128{fill:url(#SVGID_00000038373423729990869540000011423839178767754422_);}
	.st129{fill:url(#SVGID_00000015312686669728131710000007695513378794541443_);}
	.st130{fill:url(#SVGID_00000057110459604295397050000015717324177862176422_);}
	.st131{fill:url(#SVGID_00000017518820590721359290000014475700443169432717_);}
	.st132{fill:url(#SVGID_00000052789535401609522540000017686651250546946466_);}
	.st133{fill:url(#SVGID_00000029725114232904794740000004059197394617056648_);}
	.st134{fill:url(#SVGID_00000103954132358590113710000012134424682910585742_);}
	.st135{fill:url(#SVGID_00000075160286189709889250000015061582987181680559_);}
	.st136{fill:url(#SVGID_00000102508372324597053270000015429928796749428141_);}
	.st137{fill:url(#SVGID_00000147901296616226660240000002329207653457313695_);}
	.st138{fill:url(#SVGID_00000023976559831717838730000006206932778748730031_);}
	.st139{fill:url(#SVGID_00000043426470832772842590000005904361548643198385_);}
	.st140{fill:url(#SVGID_00000139983293791445911250000017036589274571223682_);}
	.st141{fill:url(#SVGID_00000033335868194773010170000010234917468661928582_);}
	.st142{fill:url(#SVGID_00000060712588348809395660000007698948570372138164_);}
	.st143{fill:url(#SVGID_00000064313739442296424010000018386113874630437260_);}
	.st144{fill:url(#SVGID_00000121248596139979257480000012620425810129146007_);}
	.st145{fill:url(#SVGID_00000170244722837086025880000006717935588822436228_);}
	.st146{fill:url(#SVGID_00000035528846046124766790000012362143861855545737_);}
	.st147{fill:url(#SVGID_00000141442611093524440780000014270752014038596998_);}
	.st148{fill:url(#SVGID_00000062890343668252386860000016163770346139964547_);}
	.st149{fill:url(#SVGID_00000182524177685100660980000015177937461899387324_);}
	.st150{fill:url(#SVGID_00000029037768477264956560000017849077634092758172_);}
	.st151{fill:url(#SVGID_00000077309029058539352800000014560169439872314558_);}
	.st152{fill:url(#SVGID_00000026880970308652950700000008157202373033575330_);}
	.st153{fill:url(#SVGID_00000003808561373206893860000004639037928507291804_);}
	.st154{fill:url(#SVGID_00000062898448395809435030000014490375355021077128_);}
	.st155{fill:url(#SVGID_00000125587979531356276660000007039818491090647452_);}
	.st156{fill:url(#SVGID_00000010995975350032370180000014798686881618198693_);}
	.st157{fill:url(#SVGID_00000171719113163084354550000012887470623774428597_);}
	.st158{fill:url(#SVGID_00000166644728164948366560000016367759834108894116_);}
	.st159{fill:url(#SVGID_00000057120790454043354460000017755825239146898844_);}
	.st160{fill:url(#SVGID_00000115480536874877519360000008438992528907010977_);}
	.st161{fill:url(#SVGID_00000036972071625352955210000001678532561004608384_);}
	.st162{fill:url(#SVGID_00000137109302216115213910000010393444144877298862_);}
	.st163{fill:url(#SVGID_00000024685587579800434250000017654900236230877083_);}
	.st164{fill:url(#SVGID_00000007404531136264021140000000382361604161053086_);}
	.st165{fill:url(#SVGID_00000026874503069069697450000018320539352397267091_);}
	.st166{fill:url(#SVGID_00000115507612646009649440000005660907652055333516_);}
	.st167{fill:url(#SVGID_00000176015521554290379270000003002771828709295502_);}
	.st168{fill:url(#SVGID_00000008850059300027388610000007472972771478418351_);}
	.st169{fill:url(#SVGID_00000162344658453737554300000004723663880275059885_);}
	.st170{fill:url(#SVGID_00000176758231534395444940000007807984814661578126_);}
	.st171{fill:url(#SVGID_00000075123802632344972850000014339645186513243579_);}
	.st172{fill:url(#SVGID_00000111874001638294452660000009073998218492572044_);}
	.st173{fill:url(#SVGID_00000069377123108492819280000013156199401404907945_);}
	.st174{fill:url(#SVGID_00000025407654730034356380000004021005681732667321_);}
	.st175{fill:url(#SVGID_00000158729145501378018430000005701147770506834330_);}
	.st176{fill:url(#SVGID_00000047056206879795166110000018284070404125170565_);}
	.st177{fill:url(#SVGID_00000065758791997872688200000011234701988325632187_);}
	.st178{fill:url(#SVGID_00000139996712865349018560000001611580580498013373_);}
	.st179{fill:url(#SVGID_00000020400424430117771070000007856971194699277696_);}
	.st180{fill:url(#SVGID_00000114041299802076430330000014766407680567330190_);}
	.st181{fill:url(#SVGID_00000169518830580014231570000012951068766644777406_);}
	.st182{fill:url(#SVGID_00000152232197915197801490000009976904956196549563_);}
	.st183{fill:url(#SVGID_00000147933816126712411510000016568788515734256005_);}
	.st184{fill:url(#SVGID_00000132087745645121059080000001736210699890606511_);}
	.st185{fill:url(#SVGID_00000129908017399933043210000016858199444594036152_);}
	.st186{fill:url(#SVGID_00000048479661748602571590000005077017415678347152_);}
	.st187{fill:url(#SVGID_00000157287978208378091680000013424765609337298071_);}
	.st188{fill:url(#SVGID_00000031903781251283020970000003570271052122385312_);}
	.st189{fill:url(#SVGID_00000054251728931946437990000006015335256121908111_);}
	.st190{fill:url(#SVGID_00000181784773316141440260000015620758097245135530_);}
	.st191{fill:url(#SVGID_00000021802182886223817310000009396881882315584641_);}
	.st192{fill:url(#SVGID_00000010990678607969164520000008537629787769497238_);}
	.st193{fill:url(#SVGID_00000007427559697930884470000015578654339289674160_);}
	.st194{fill:url(#SVGID_00000033346965485199829870000010721377247698799039_);}
	.st195{fill:#F6F7F7;}
	.st196{fill:url(#SVGID_00000083067412727383501410000017463072771650899107_);}
	.st197{fill:url(#SVGID_00000112629753726306289210000013776952744863228089_);}
	.st198{fill:url(#SVGID_00000072278511028163498530000012782892603083592330_);}
	.st199{fill:url(#SVGID_00000129195422031373507180000017562503491402355102_);}
	.st200{fill:url(#SVGID_00000004528215846715982930000008531457739489405353_);}
	.st201{fill:url(#SVGID_00000171677758892614426900000003236802820318329522_);}
	.st202{fill:url(#SVGID_00000120525867947293534080000014058542790300281269_);}
	.st203{fill:url(#SVGID_00000142170458846746159050000009761773573851013294_);}
	.st204{fill:url(#SVGID_00000069379643718803300310000015306410165904224903_);}
	.st205{fill:url(#SVGID_00000075132694950653080680000006371181885305338512_);}
	.st206{fill:url(#SVGID_00000117648354825905840220000007293647953985434258_);}
	.st207{fill:url(#SVGID_00000144338172176971531220000009858829202094629293_);}
	.st208{fill:url(#SVGID_00000179605040983547805280000016276536122068172200_);}
	.st209{fill:url(#SVGID_00000025422967337988307210000009321644749703444132_);}
	.st210{fill:#A8988B;}
	.st211{fill:#0C0002;}
</style>
<g>
	<g>
		<g>
			<polygon class="st0" points="240.3,775.4 31,659.7 31,436.8 240.3,321 1350,321 1527.7,31 2311.3,31 2489,321 3598.7,321 
				3808,436.8 3808,659.7 3598.7,775.4 			"/>
			<polygon class="st0" points="241.4,771 35.5,657 35.5,439.4 241.4,325.4 1352.5,325.4 1530.2,35.5 2308.8,35.5 2486.5,325.4 
				3597.6,325.4 3803.5,439.4 3803.5,657 3597.6,771 			"/>
			<polygon class="st0" points="242.6,766.5 39.9,654.4 39.9,442 242.6,329.9 1355,329.9 1532.7,39.9 2306.3,39.9 2484,329.9 
				3596.4,329.9 3799.1,442 3799.1,654.4 3596.4,766.5 			"/>
			<g>
				<g>
					<path class="st0" d="M2887.6,699.3V397.1H3005v302.3L2887.6,699.3L2887.6,699.3z"/>
					<rect x="2887.6" y="397.1" class="st1" width="117.4" height="302.3"/>
				</g>
				<g>
					<path class="st0" d="M1772.4,699.3h-117.4V572.9l-231.5-119.1v245.6h-117.4V397.1h132.1l216.9,111.6V397.1h117.4L1772.4,699.3
						L1772.4,699.3z"/>
					<polygon class="st1" points="1655.1,397.1 1655.1,508.7 1438.1,397.1 1306.1,397.1 1306.1,699.4 1423.5,699.4 1423.5,453.7 
						1655.1,572.9 1655.1,699.3 1772.4,699.3 1772.4,397.1 					"/>
				</g>
				<g>
					<polygon class="st1" points="3564.2,522.2 3215.3,522.2 3215.3,444 3473.1,444 3564.2,397.1 3215.3,397.1 3097.8,457.5 
						3097.8,569.1 3446.8,569.1 3446.8,652.5 3189,652.5 3097.8,699.3 3446.8,699.3 3564.2,638.9 					"/>
				</g>
				<g>
					<polygon class="st1" points="2794.8,522.2 2445.9,522.2 2445.9,444 2703.7,444 2794.8,397.1 2445.9,397.1 2328.5,457.5 
						2328.5,569.1 2677.4,569.1 2677.4,600.5 2677.4,652.5 2419.6,652.5 2328.5,699.3 2677.4,699.3 2794.8,638.9 					"/>
				</g>
				<polygon class="st1" points="1977.2,569.1 2113.9,569.1 2205,522.2 1977.2,522.2 1977.2,444 2179.1,444 2270.3,397.1 
					1977.2,397.1 1859.8,457.5 1859.8,699.3 1960.1,699.3 1977.2,699.3 2179.1,699.3 2270.3,652.5 1977.2,652.5 				"/>
				<polygon class="st1" points="903.2,569.1 1039.9,569.1 1131,522.2 903.2,522.2 903.2,444 1105.1,444 1196.3,397.1 903.2,397.1 
					785.8,457.5 785.8,699.3 886.1,699.3 903.2,699.3 1105.1,699.3 1196.3,652.5 903.2,652.5 				"/>
				<polygon class="st1" points="551.8,510.1 460.7,557 581.1,557 581.1,652.5 349.6,652.5 349.6,444 607.4,444 698.6,397.1 
					349.6,397.1 232.2,457.5 232.2,699.4 349.6,699.4 349.6,699.3 581.1,699.3 698.6,638.9 698.6,510.1 				"/>
			</g>
			<path class="st1" d="M3606.7,290H2506.3L2328.7,0h-818.3l-177.8,290H232.3L0,418.5V678l232.3,128.5h3374.3L3839,678V418.5
				L3606.7,290z M2489,321h1109.7L3808,436.8v222.9l-209.3,115.8H240.3L31,659.7V436.8L240.3,321H1350l177.7-290h783.6"/>
			<g>
				<g>
					<path class="st1" d="M1637.3,241.3h-106.8v33.3h106.8c20.5,0,37.6-17.1,37.6-37.6s-17.1-37.6-37.6-37.6H1610
						c-24.8,0-45.3-20.5-45.3-45.3s20.5-45.3,45.3-45.3h106V75.6h-106.8c-43.6,0-78.6,35-78.6,78.6s35,78.6,78.6,78.6h27.3
						c2.6,0,4.3,1.7,4.3,4.3C1640.7,239.6,1639,241.3,1637.3,241.3z"/>
					<path class="st1" d="M1609.1,150.8h106.8v-34.2h-106.8c-20.5,0-37.6,17.1-37.6,37.6s17.1,37.6,37.6,37.6h27.3
						c24.8,0,45.3,20.5,45.3,45.3s-20.5,45.3-45.3,45.3h-106v33.3h106.8c43.6,0,78.6-35,78.6-78.6s-35-78.6-78.6-78.6h-27.3
						c-2.6,0-4.3-1.7-4.3-4.3C1605.7,152.5,1607.4,150.8,1609.1,150.8z"/>
				</g>
				<g>
					<path class="st1" d="M1992.7,116.6c-14.5,0-25.6,11.1-25.6,25.6v106.8c0,14.5,11.1,25.6,25.6,25.6h69.2v-75.2h-53v33.3h19.7
						v7.7h-19.7c-4.3,0-7.7-3.4-7.7-7.7v-75.2c0-4.3,3.4-7.7,7.7-7.7h94.8v-33.3L1992.7,116.6L1992.7,116.6z"/>
					<path class="st1" d="M2202.8,274.6h77.8l-53-157.2c-1.7-4.3-5.1-7.7-10.3-7.7c-4.3,0-8.5,3.4-10.3,6.8l-68.4,199h39.3
						l23.9-70.9v29.9H2202.8z M2216.5,202.8l11.1,34.2h-23.1L2216.5,202.8z"/>
					<path class="st1" d="M2268.6,110.7c-6.8-22.2-27.3-39.3-52.1-39.3c-24.8,0-45.3,16.2-51.3,38.5l-62.4,182.9V158.5h-94v33.3
						h61.5v90.6h-76.9c-18.8,0-33.3-15.4-33.3-33.3V142.3c0-18.8,15.4-33.3,33.3-33.3h110.2V75.6h-111.1
						c-36.7,0-66.7,29.9-66.7,66.7V249c0,36.7,29.9,66.7,66.7,66.7h137.6l69.2-200.7c2.6-7.7,9.4-12.8,17.9-12.8s15.4,5.1,17.9,12.8
						l56.4,167.5h-88.9v33.3h135l0,0L2268.6,110.7z"/>
				</g>
				<g>
					<path class="st1" d="M1798.7,282.3c-18.8,0-33.3-15.4-33.3-33.3V142.3c0-18.8,15.4-33.3,33.3-33.3h114.5V75.6h-114.5
						c-36.7,0-66.7,29.9-66.7,66.7V249c0,36.7,29.9,66.7,66.7,66.7h114.5v-33.3L1798.7,282.3L1798.7,282.3z"/>
					<path class="st1" d="M1806.4,233.6h82.9v-33.3h-116.2v49.6c0,14.5,11.1,25.6,25.6,25.6h114.5v-33.3h-99.1
						C1809.8,241.3,1806.4,237.9,1806.4,233.6z"/>
					<path class="st1" d="M1889.3,158.5h-82.9c0-4.3,3.4-7.7,7.7-7.7h98.3v-34.2h-113.6c-14.5,0-25.6,11.1-25.6,25.6v49.6h116.2
						L1889.3,158.5L1889.3,158.5z"/>
				</g>
			</g>
		</g>
	</g>
</g>
</svg>
