<?xml version="1.0" encoding="utf-8"?>
<!-- Generator: Adobe Illustrator 25.2.1, SVG Export Plug-In . SVG Version: 6.00 Build 0)  -->
<svg version="1.1" id="Layer_1" xmlns="http://www.w3.org/2000/svg" xmlns:xlink="http://www.w3.org/1999/xlink" x="0px" y="0px"
	 viewBox="0 0 3840 954.6" style="enable-background:new 0 0 3840 954.6;" xml:space="preserve">
<style type="text/css">
	.st0{fill:#F7DB17;}
	.st1{fill:#08080A;}
	.st2{fill:#686868;}
	.st3{fill:#C1214E;}
	.st4{fill:#FFFFFF;}
</style>
<g>
	<g>
		<rect x="1938.9" width="1901.1" height="954.6"/>
		<g>
			<path class="st0" d="M3030.7,114.7c-55.6,0-100.6,162.3-100.6,362.6s45,362.6,100.6,362.6c55.6,0,100.6-162.3,100.6-362.6
				S3086.3,114.7,3030.7,114.7z M3064.8,679.6c0,75.2-15.3,136.1-34.1,136.1s-34.1-61-34.1-136.1V275c0-75.2,15.3-136.1,34.1-136.1
				s34.1,61,34.1,136.1V679.6z"/>
			<path class="st0" d="M3307.8,114.7c-55.6,0-100.6,162.3-100.6,362.6s45,362.6,100.6,362.6c55.6,0,100.6-162.3,100.6-362.6
				S3363.3,114.7,3307.8,114.7z M3341.9,679.6c0,75.2-15.3,136.1-34.1,136.1c-18.8,0-34.1-61-34.1-136.1V275
				c0-75.2,15.3-136.1,34.1-136.1c18.8,0,34.1,61,34.1,136.1V679.6z"/>
			<path class="st0" d="M3584.8,114.7c-55.6,0-100.6,162.3-100.6,362.6s45,362.6,100.6,362.6c55.6,0,100.6-162.3,100.6-362.6
				S3640.3,114.7,3584.8,114.7z M3584.8,815.8c-18.8,0-34.1-61-34.1-136.1V275c0-75.2,15.3-136.1,34.1-136.1s34.1,61,34.1,136.1
				v404.6C3618.9,754.8,3603.6,815.8,3584.8,815.8z"/>
			<polygon class="st0" points="2815.4,427.5 2758.5,467.5 2758.5,595.6 2685.8,595.6 2825.3,124.7 2754.7,124.7 2649.1,623.3 
				2758.5,623.3 2758.5,806.9 2725.9,829.7 2725.9,836.8 2848,836.8 2848,829.7 2815.4,806.9 2815.4,623.3 2864.4,623.3 
				2864.4,595.6 2815.4,595.6 			"/>
			<polygon class="st0" points="2518.5,454.1 2590.7,154.6 2623.3,131.8 2623.3,124.7 2534.7,124.7 2534.7,131.8 2563,151.5 
				2504.9,392.5 2452,153.9 2483.6,131.8 2483.6,124.7 2361.4,124.7 2361.4,131.8 2393.9,154.5 2464.3,471.9 2383.7,806.1 
				2349.9,829.7 2349.9,836.8 2438.4,836.8 2438.4,829.7 2411.1,810.6 2477.9,533.5 2538.7,807.6 2507.1,829.7 2507.1,836.8 
				2629.3,836.8 2629.3,829.7 2596.7,807 			"/>
			<path class="st0" d="M2206.4,430.3v7.1l35,24.5V714c-4.5,58.5-11.9,101.8-30.5,101.8c-22,0-39.8-61-39.8-136.1V275
				c0-75.2,17.8-136.1,39.8-136.1s52.4,97.9,68.8,199.6c0,0,0.1,0,0.4,0c0.2,0,0.4,0,0.8,0c2,0,6,0,6,0V117.6h-7.1l-22.7,32.4
				c-12.2-23.2-27.7-35.2-46.2-35.2c-64.9,0-117.5,162.3-117.5,362.6s52.6,362.6,117.5,362.6c28.6,0,40.3-31.6,54.9-84.1h0.3
				l24.9,81h7.1V430.3H2206.4z"/>
		</g>
	</g>
	<g>
		<polygon class="st3" points="1224.6,0 751.9,954.6 1159.5,954.6 1618.2,0 		"/>
		<path d="M254.2,721.8h-99.4l-8.2-98.7h-40.4l-7.5,98.7H0l62.8-498.6h129.3L254.2,721.8z M126.3,347.2l-14.2,193.6h28.4
			L126.3,347.2z"/>
		<path d="M589.1,721.8h-94.9V439.2l-37.4,282.6h-61.3l-39.6-284.1v284.1h-94.9V223.1h139.1l24.7,220.5l26.2-220.5h138.3V721.8z"/>
		<path d="M744.5,394.3v-59.1c0-15.7-0.7-20.9-2.2-24.7c-3-5.2-7.5-9-12.7-9c-5.2,0-11.2,3.7-13.5,9c-1.5,4.5-2.2,8.2-2.2,24.7v36.6
			c0,16.5,4.5,22.4,23.9,32.9l44.9,24.7c59.1,32.9,67.3,46.3,67.3,113.6v80c0,43.4-3,57.6-15,73.3c-16.4,22.4-34.4,26.9-112.1,26.9
			c-62.1,0-79.2-3.7-95.7-22.4c-9.7-10.5-14.2-22.4-16.4-41.1c-1.5-9.7-1.5-20.9-1.5-54.6v-89.7h104.7v83.7v12.7
			c0,20.2,4.5,28.4,15.7,28.4c9.7,0,14.9-8.2,14.9-22.4v-12.7v-55.3l-0.7-10.5c-0.7-18.7-3-22.4-20.9-32.1c-6.7-3.7-12-6-12.7-6.7
			L666,475.8c-48.6-27.7-56.8-43.4-56.8-105.4v-58.3c0-41.1,4.5-59.1,20.2-73.3c16.4-14.9,35.9-18.7,108.4-18.7
			c63.5,0,80.7,4.5,96.4,25.4c12.7,16.5,15.7,32.1,15.7,78.5v70.3H744.5z"/>
		<path d="M1015,721.8H909.5V303.9h-53.1v-80.7h210.1v80.7H1015V721.8z"/>
		<path d="M1185.2,223.1l37.4,0.7c73.3,1.5,91.2,20.9,91.2,96.4v52.3c0,69.5-10.5,93.5-47.1,103.2c17.9,6,28.4,14.2,35.9,27.7
			c9.7,17.2,11.2,30.7,11.2,89v129.3h-104.7V572.3c0-49.3,0-48.6-26.2-49.3c-1.5,0-2.2,0-4.5,0v198.9h-105.4V223.1H1185.2z
			 M1185.9,431.7c20.2,0,23.2-4.5,23.2-36.6v-53.8l-0.7-13.5c0-17.9-4.5-23.2-18.7-23.2h-6.7h-4.5v127.1
			C1182.2,431.7,1184.5,431.7,1185.9,431.7z"/>
		<path d="M1570.9,721.8h-99.4l-8.2-98.7h-40.4l-7.5,98.7h-98.7l62.8-498.6h129.3L1570.9,721.8z M1443.1,347.2l-14.2,193.6h28.4
			L1443.1,347.2z"/>
		<path d="M1680,223.1c90.5,0,103.2,2.2,120.4,22.4c15.7,17.9,19.4,37.4,19.4,106.2v246c0,61.3-2.2,77.8-14.2,95.7
			c-14.2,20.9-35.1,27.7-86.7,27.7l-53.1,0.7h-88.2V223.1H1680z M1692.8,640.3c16.4,0,20.2-5.2,20.2-26.2c0-3,0-5.2,0-10.5
			c0-8.2,0-17.2,0-24.7V345v-12.7c0-22.4-3.7-27.7-20.2-27.7c-2.2,0-6,0.7-9.7,0.7v334.9C1686.8,640.3,1690.5,640.3,1692.8,640.3z"
			/>
	</g>
</g>
</svg>
