<?xml version="1.0" encoding="utf-8"?>
<!-- Generator: Adobe Illustrator 25.2.1, SVG Export Plug-In . SVG Version: 6.00 Build 0)  -->
<svg version="1.1" id="Layer_1" xmlns="http://www.w3.org/2000/svg" xmlns:xlink="http://www.w3.org/1999/xlink" x="0px" y="0px"
	 viewBox="0 0 3840 1003.7" style="enable-background:new 0 0 3840 1003.7;" xml:space="preserve">
<style type="text/css">
	.st0{fill:#F7DB17;}
	.st1{fill:#08080A;}
	.st2{fill:#686868;}
	.st3{fill:#C1214E;}
	.st4{fill:#FFFFFF;}
</style>
<g>
	<g>
		<rect x="7.9" y="7.9" width="3824.1" height="987.8"/>
		<path class="st4" d="M3824.1,15.9v971.9H15.9V15.9H3824.1 M3840,0h-15.9H15.9H0v15.9v971.9v15.9h15.9h3808.3h15.9v-15.9V15.9V0
			L3840,0z"/>
	</g>
	<rect x="62.9" y="62.9" class="st2" width="1778.5" height="877.8"/>
	<g>
		<g>
			<g>
				<polygon class="st3" points="1654.9,62.9 1233.2,940.7 865.1,940.7 1299.8,62.9 				"/>
			</g>
			<g>
				<path class="st4" d="M354.4,848.2h-90.2l-7.5-89.5h-36.6l-6.8,89.5h-89.5l57-452.3h117.3L354.4,848.2z M238.5,508.4l-12.9,175.6
					h25.8L238.5,508.4z"/>
				<path class="st4" d="M658.3,848.2h-86.1V591.8l-33.9,256.3h-55.6l-35.9-257.7v257.7h-86.1V395.9h126.1l22.4,200.1l23.7-200.1
					h125.5V848.2z"/>
				<path class="st4" d="M799.3,551.2v-53.6c0-14.2-0.7-19-2-22.4c-2.7-4.7-6.8-8.1-11.5-8.1s-10.2,3.4-12.2,8.1
					c-1.4,4.1-2,7.5-2,22.4v33.2c0,14.9,4.1,20.3,21.7,29.8l40.7,22.4c53.6,29.8,61,42,61,103.1v72.6c0,39.3-2.7,52.2-13.6,66.5
					c-14.9,20.3-31.2,24.4-101.7,24.4c-56.3,0-71.9-3.4-86.8-20.3c-8.8-9.5-12.9-20.3-14.9-37.3c-1.4-8.8-1.4-19-1.4-49.5V661h94.9
					v76v11.5c0,18.3,4.1,25.8,14.2,25.8c8.8,0,13.6-7.5,13.6-20.3v-11.5v-50.2l-0.7-9.5c-0.7-17-2.7-20.3-19-29.2
					c-6.1-3.4-10.9-5.4-11.5-6.1l-40-22.4c-44.1-25.1-51.5-39.3-51.5-95.6v-52.9c0-37.3,4.1-53.6,18.3-66.5
					c14.9-13.6,32.6-17,98.3-17c57.6,0,73.2,4.1,87.5,23.1c11.5,14.9,14.2,29.2,14.2,71.2v63.7H799.3z"/>
				<path class="st4" d="M1048.2,848.2h-95.6V469.1h-48.1v-73.2H1095v73.2h-46.8V848.2z"/>
				<path class="st4" d="M1199.4,395.9l33.9,0.7c66.5,1.4,82.7,19,82.7,87.5v47.5c0,63.1-9.5,84.8-42.7,93.6
					c16.3,5.4,25.8,12.9,32.6,25.1c8.8,15.6,10.2,27.8,10.2,80.7v117.3h-94.9V712.6c0-44.8,0-44.1-23.7-44.8c-1.4,0-2,0-4.1,0v180.4
					h-95.6V395.9H1199.4z M1200.1,585.1c18.3,0,21-4.1,21-33.2V503l-0.7-12.2c0-16.3-4.1-21-17-21h-6.1h-4.1v115.3
					C1196.7,585.1,1198.8,585.1,1200.1,585.1z"/>
				<path class="st4" d="M1549.4,848.2h-90.2l-7.5-89.5h-36.6l-6.8,89.5h-89.5l57-452.3h117.3L1549.4,848.2z M1433.4,508.4
					l-12.9,175.6h25.8L1433.4,508.4z"/>
				<path class="st4" d="M1648.4,395.9c82.1,0,93.6,2,109.2,20.3c14.2,16.3,17.6,33.9,17.6,96.3v223.1c0,55.6-2,70.5-12.9,86.8
					c-12.9,19-31.9,25.1-78.7,25.1l-48.2,0.7h-80V395.9H1648.4z M1659.9,774.3c14.9,0,18.3-4.7,18.3-23.7c0-2.7,0-4.7,0-9.5
					c0-7.5,0-15.6,0-22.4V506.4v-11.5c0-20.3-3.4-25.1-18.3-25.1c-2,0-5.4,0.7-8.8,0.7v303.8
					C1654.5,774.3,1657.9,774.3,1659.9,774.3z"/>
			</g>
		</g>
		<g>
			<g>
				<path class="st0" d="M3000.2,132.7c-56.6,0-102.4,165.3-102.4,369.2S2943.6,871,3000.2,871s102.4-165.3,102.4-369.2
					S3056.8,132.7,3000.2,132.7z M3034.9,707.8c0,76.6-15.5,138.6-34.7,138.6s-34.7-62.1-34.7-138.6v-412
					c0-76.6,15.5-138.6,34.7-138.6s34.7,62.1,34.7,138.6V707.8z"/>
				<path class="st0" d="M3282.2,132.7c-56.6,0-102.4,165.3-102.4,369.2S3225.7,871,3282.2,871c56.6,0,102.4-165.3,102.4-369.2
					S3338.8,132.7,3282.2,132.7z M3316.9,707.8c0,76.6-15.5,138.6-34.7,138.6c-19.2,0-34.7-62.1-34.7-138.6v-412
					c0-76.6,15.5-138.6,34.7-138.6c19.2,0,34.7,62.1,34.7,138.6V707.8z"/>
				<path class="st0" d="M3564.3,132.7c-56.6,0-102.4,165.3-102.4,369.2S3507.7,871,3564.3,871c56.6,0,102.4-165.3,102.4-369.2
					S3620.8,132.7,3564.3,132.7z M3564.3,846.4c-19.2,0-34.7-62.1-34.7-138.6v-412c0-76.6,15.5-138.6,34.7-138.6
					c19.2,0,34.7,62.1,34.7,138.6v412C3599,784.4,3583.4,846.4,3564.3,846.4z"/>
				<polygon class="st0" points="2780.9,451.1 2723,491.9 2723,622.3 2649,622.3 2791,142.8 2719.2,142.8 2611.6,650.5 2723,650.5 
					2723,837.4 2689.8,860.7 2689.8,867.9 2814.2,867.9 2814.2,860.7 2780.9,837.4 2780.9,650.5 2830.8,650.5 2830.8,622.3 
					2780.9,622.3 				"/>
				<polygon class="st0" points="2478.7,478.2 2552.2,173.2 2585.3,150 2585.3,142.8 2495.2,142.8 2495.2,150 2523.9,170.1 
					2464.8,415.5 2410.9,172.6 2443.1,150 2443.1,142.8 2318.7,142.8 2318.7,150 2351.8,173.1 2423.4,496.4 2341.4,836.6 
					2307,860.7 2307,867.9 2397.1,867.9 2397.1,860.7 2369.3,841.2 2437.3,559 2499.2,838.1 2467,860.7 2467,867.9 2591.4,867.9 
					2591.4,860.7 2558.3,837.5 				"/>
				<path class="st0" d="M2160.9,454v7.2l35.7,25v256.6c-4.5,59.6-12.2,103.6-31,103.6c-22.4,0-40.5-62.1-40.5-138.6v-412
					c0-76.6,18.2-138.6,40.5-138.6c22.4,0,53.3,99.7,70.1,203.2c0,0,0.1,0,0.4,0c0.2,0,0.4,0,0.8,0c2,0,6.1,0,6.1,0V135.6h-7.2
					l-23.1,33c-12.4-23.6-28.3-35.8-47-35.8c-66.1,0-119.6,165.3-119.6,369.2S2099.5,871,2165.5,871c29.1,0,41.1-32.2,55.9-85.6h0.3
					l25.4,82.4h7.2V454H2160.9z"/>
			</g>
		</g>
	</g>
</g>
</svg>
