<?xml version="1.0" encoding="utf-8"?>
<!-- Generator: Adobe Illustrator 25.0.0, SVG Export Plug-In . SVG Version: 6.00 Build 0)  -->
<svg version="1.1" id="Layer_1" xmlns="http://www.w3.org/2000/svg" xmlns:xlink="http://www.w3.org/1999/xlink" x="0px" y="0px"
	 viewBox="0 0 3839.5 1097.1" style="enable-background:new 0 0 3839.5 1097.1;" xml:space="preserve">
<style type="text/css">
	.st0{fill:url(#SVGID_1_);}
	.st1{fill:#FFFFFF;}
	.st2{fill:url(#SVGID_2_);}
	.st3{fill:url(#SVGID_3_);}
	.st4{fill:#686868;}
	.st5{fill:url(#SVGID_4_);}
	.st6{fill:url(#SVGID_5_);}
	.st7{fill:url(#SVGID_6_);}
	.st8{fill:url(#SVGID_7_);}
	.st9{fill:url(#SVGID_8_);}
	.st10{fill:url(#SVGID_9_);}
	.st11{fill:url(#SVGID_10_);}
	.st12{fill:url(#SVGID_11_);}
	.st13{fill:url(#SVGID_12_);}
	.st14{fill:url(#SVGID_13_);}
	.st15{fill:url(#SVGID_14_);}
	.st16{fill:url(#SVGID_15_);}
	.st17{fill:url(#SVGID_16_);}
	.st18{fill:url(#SVGID_17_);}
	.st19{fill:url(#SVGID_18_);}
	.st20{fill:url(#SVGID_19_);}
	.st21{fill:url(#SVGID_20_);}
	.st22{fill:url(#SVGID_21_);}
	.st23{fill:url(#SVGID_22_);}
	.st24{fill:url(#SVGID_23_);}
	.st25{fill:url(#SVGID_24_);}
	.st26{fill:url(#SVGID_25_);}
	.st27{fill:url(#SVGID_26_);}
	.st28{fill:url(#SVGID_27_);}
	.st29{fill:url(#SVGID_28_);}
	.st30{fill:url(#SVGID_29_);}
	.st31{fill:url(#SVGID_30_);}
	.st32{fill:url(#SVGID_31_);}
	.st33{fill:url(#SVGID_32_);}
	.st34{fill:url(#SVGID_33_);}
	.st35{fill:url(#SVGID_34_);}
	.st36{fill:url(#SVGID_35_);}
	.st37{fill:url(#SVGID_36_);}
	.st38{fill:url(#SVGID_37_);}
	.st39{fill:url(#SVGID_38_);}
	.st40{fill:url(#SVGID_39_);}
	.st41{fill:url(#SVGID_40_);}
	.st42{fill:url(#SVGID_41_);}
	.st43{fill:url(#SVGID_42_);}
	.st44{fill:url(#SVGID_43_);}
	.st45{fill:url(#SVGID_44_);}
	.st46{fill:url(#SVGID_45_);}
	.st47{fill:url(#SVGID_46_);}
	.st48{opacity:0.2;}
	.st49{clip-path:url(#SVGID_48_);fill:url(#SVGID_49_);}
	.st50{fill:url(#SVGID_50_);}
	.st51{fill:url(#SVGID_51_);}
	.st52{clip-path:url(#SVGID_53_);fill:url(#SVGID_54_);}
</style>
<g>
	<g>
		<linearGradient id="SVGID_1_" gradientUnits="userSpaceOnUse" x1="3839.5" y1="548.5574" x2="8.319628e-05" y2="548.5574">
			<stop  offset="0" style="stop-color:#00274F"/>
			<stop  offset="1" style="stop-color:#66C6F7"/>
		</linearGradient>
		<polygon class="st0" points="3608.8,268.3 3839.5,37.6 3211,37.6 3211,37.6 3204.2,37.6 2683.3,558.5 2683.3,0 2335.1,348.2 
			2335.1,0 1748.2,586.9 1748.3,0 1189.8,558.5 1189.8,0 841.6,348.2 841.6,0 0,841.6 348.2,841.6 662.6,527.3 662.6,875.5 
			943.6,594.5 943.6,804.7 651.2,1097.1 999.4,1097.1 1502,594.6 1502,841.6 1599.1,841.6 1599.1,841.6 1841.8,841.6 2156.1,527.3 
			2156.1,875.5 2437.1,594.5 2437.1,804.7 2400.3,841.6 3260.3,841.6 3490.9,610.9 2979.2,610.9 3035.2,554.9 3178.8,554.9 
			3409.5,324.3 3265.8,324.3 3321.8,268.3 		"/>
		<linearGradient id="SVGID_2_" gradientUnits="userSpaceOnUse" x1="0" y1="548.5575" x2="3839.5" y2="548.5575">
			<stop  offset="0" style="stop-color:#00274F"/>
			<stop  offset="1" style="stop-color:#68CAFB"/>
		</linearGradient>
		<path class="st2" d="M3763.9,68.9l-168,168h-274.1h-13l-9.2,9.2l-56,56l-53.5,53.5h75.6h68.1l-168,168h-130.7h-13l-9.2,9.2l-56,56
			l-53.5,53.5h75.6h436.2l-168,168l-778.9,0v-5.5l0-210.3l0-75.6l-53.5,53.5l-227.6,227.6V527.3v-75.6l-53.5,53.5l-305.1,305.1
			h-229.7h-65.8l0-215.7l0-75.6l-53.5,53.5l-493.4,493.4H726.8l239-238.9l9.2-9.2v-13l0-210.2l0-75.6l-53.5,53.5L693.9,799.9V527.3
			v-75.6l-53.5,53.5L335.3,810.3l-259.7,0L810.3,75.6v272.6v75.6l53.5-53.5l294.8-294.8l0,482.9v75.6l53.5-53.5l505-505l-0.1,511.3
			l0,75.6l53.5-53.5l533.4-533.4v272.6v75.6l53.5-53.5L2652,75.6v482.9v75.6l53.5-53.5l511.7-511.7H3763.9 M1748.3,0l-558.5,558.5
			l0-558.5L841.6,348.2V0L0,841.6l348.2,0l314.3-314.3v348.2l281-281l0,210.2l-292.4,292.4h348.3L1502,594.6l0,247h97.1h0h242.6
			l314.3-314.3v348.2l281-281l0,210.3l-36.8,36.8l860,0l230.7-230.7h-511.8l56-56h143.7l230.7-230.7h-143.7l56-56h287l230.7-230.7
			H3211v0h-6.8l-520.9,520.9V0l-348.2,348.2V0l-586.9,586.9L1748.3,0L1748.3,0z"/>
	</g>
</g>
</svg>
