<?xml version="1.0" encoding="utf-8"?>
<!-- Generator: Adobe Illustrator 25.4.1, SVG Export Plug-In . SVG Version: 6.00 Build 0)  -->
<svg version="1.1" id="Layer_1" xmlns="http://www.w3.org/2000/svg" xmlns:xlink="http://www.w3.org/1999/xlink" x="0px" y="0px"
	 viewBox="0 0 3839 685.5" style="enable-background:new 0 0 3839 685.5;" xml:space="preserve">
<style type="text/css">
	.st0{fill:#FFFFFF;}
	.st1{fill:#034693;}
	.st2{fill:#FFFFFF;stroke:#3852A1;stroke-width:6.1873;stroke-linecap:round;stroke-linejoin:round;stroke-miterlimit:10;}
	.st3{fill:#008ED6;}
	.st4{fill:#FF0000;}
	.st5{fill:url(#SVGID_1_);}
	.st6{fill:url(#SVGID_00000135663568845482331450000004999646496337932945_);}
	.st7{fill:#F4F8F4;}
	.st8{fill:url(#SVGID_00000135650740834626208100000011315228522397364155_);}
	.st9{fill:url(#SVGID_00000155858568310629091770000009022078765570968761_);}
	.st10{fill:url(#SVGID_00000066497817933855865630000006740388068645532090_);}
	.st11{fill:url(#SVGID_00000150061408895674309330000009964257967600886924_);}
	.st12{fill:url(#SVGID_00000126319280887756710000000017243902340154703242_);}
	.st13{fill:url(#SVGID_00000082357009954949493660000013515679885264284808_);}
	.st14{fill:url(#SVGID_00000158017454072905264100000014092987107008376474_);}
	.st15{fill:url(#SVGID_00000107589699172589995320000000752920452934086067_);}
	.st16{fill:url(#SVGID_00000090986365465970721140000003088332427941329070_);}
	.st17{fill:url(#SVGID_00000165953306293477905950000017846482894526034317_);}
	.st18{fill:url(#SVGID_00000161600786846374371840000008834705518684789409_);}
	.st19{fill:url(#SVGID_00000066473556954288894120000007038575420115378576_);}
	.st20{fill:url(#SVGID_00000143607931540486826990000001716636666111739285_);}
	.st21{fill:url(#SVGID_00000168081376107204482130000015350948236768837526_);}
	.st22{fill:url(#SVGID_00000139293007185806583390000001725481390867504782_);}
	.st23{fill:url(#SVGID_00000012462761767949166150000012961042863570979456_);}
	.st24{fill:url(#SVGID_00000083074422318160126920000005594182092829073317_);}
	.st25{fill:url(#SVGID_00000149363805770466631170000013759242848631334029_);}
	.st26{fill:url(#SVGID_00000164501388330860422870000011493270691831652247_);}
	.st27{fill:url(#SVGID_00000054979157105926590550000003836801771907951494_);}
	.st28{fill:url(#SVGID_00000178918436973192492120000010469594101325570207_);}
	.st29{fill:url(#SVGID_00000085250689645086705720000004890937485371700903_);}
	.st30{fill:#DBDCD9;}
	.st31{fill:url(#SVGID_00000005951028130718251540000011349849544728904361_);}
	.st32{fill:url(#SVGID_00000170971778659040849470000006387830413221701285_);}
	.st33{fill:url(#SVGID_00000086681880444873768520000006627602976858219667_);}
	.st34{fill:url(#SVGID_00000049216802933297222470000003004972023627957407_);}
	.st35{fill:url(#SVGID_00000029746099608578590330000015525879351323977103_);}
	.st36{fill:url(#SVGID_00000163065216856844531430000017582031542428788635_);}
	.st37{fill:url(#SVGID_00000134249886829895938660000010534307964902538645_);}
	.st38{fill:url(#SVGID_00000044882189717674422150000003782436330844818316_);}
	.st39{fill:url(#SVGID_00000103968170798442232380000005930807808985418895_);}
	.st40{fill:url(#SVGID_00000040543003989631428690000004580189416375513244_);}
	.st41{fill:url(#SVGID_00000065036988481425321400000004818545826697866659_);}
	.st42{fill:url(#SVGID_00000170278760562306868650000015206592039821208489_);}
	.st43{fill:url(#SVGID_00000029748816046275799650000017933609038294687666_);}
	.st44{fill:url(#SVGID_00000085959242928745778340000010362234231724679094_);}
	.st45{fill:url(#SVGID_00000168098996384459479630000014830293762836186012_);}
	.st46{fill:url(#SVGID_00000053546342491922185980000014786223157430416013_);}
	.st47{fill:url(#SVGID_00000032638649146675172000000003668243300682275514_);}
	.st48{fill:url(#SVGID_00000080919736171202690700000013328038766869691577_);}
	.st49{fill:url(#SVGID_00000128447395198740478560000011399511176950497451_);}
	.st50{fill:url(#SVGID_00000027575972552811733580000014451116224174347916_);}
	.st51{fill:url(#SVGID_00000107558120490954988510000015697690559750920366_);}
	.st52{fill:url(#SVGID_00000076582311600299606160000009385196049103720325_);}
	.st53{fill:url(#SVGID_00000044139084644450110640000013836489861972241588_);}
	.st54{fill:url(#SVGID_00000089559087067194196370000004468105599572369063_);}
	.st55{fill:url(#SVGID_00000024699331175090171330000013180943529636023207_);}
	.st56{fill:url(#SVGID_00000070098204813740641100000014813320173608709773_);}
	.st57{fill:url(#SVGID_00000062882824503068332190000015782580791419498151_);}
	.st58{fill:url(#SVGID_00000150823259260442782520000010218469588283128712_);}
	.st59{fill:url(#SVGID_00000143587734571453822950000012201006011363188105_);}
	.st60{fill:url(#SVGID_00000135667785261772811270000014473515775971944087_);}
	.st61{fill:url(#SVGID_00000057142328354936489640000002773502662400882844_);}
	.st62{fill:url(#SVGID_00000122698535360797431520000012320540464019645853_);}
	.st63{fill:url(#SVGID_00000169538070317328665460000014191682008480063384_);}
	.st64{fill:url(#SVGID_00000125600458216386649670000000322102191498874787_);}
	.st65{fill:url(#SVGID_00000176035969004863803020000014278879793799910324_);}
	.st66{fill:url(#SVGID_00000101806467660420262120000012213727475408996239_);}
	.st67{fill:url(#SVGID_00000134942752133343123490000006706603176961753000_);}
	.st68{fill:url(#SVGID_00000023273043456229405740000013912652166873481128_);}
	.st69{fill:url(#SVGID_00000006700116447577233810000008644032922492466571_);}
	.st70{fill:url(#SVGID_00000060711822676936170970000013855632738971797907_);}
	.st71{fill:url(#SVGID_00000070810110825691539900000010779397557443930263_);}
	.st72{fill:url(#SVGID_00000011014219047284241560000004815706040235809715_);}
	.st73{fill:url(#SVGID_00000114752660947113055790000017324963454107130801_);}
	.st74{fill:url(#SVGID_00000072973959409002983480000012224774022270499001_);}
	.st75{fill:url(#SVGID_00000037669615728545495310000007677254142272759464_);}
	.st76{fill:url(#SVGID_00000064346852841900099810000006826890608449751447_);}
	.st77{fill:url(#SVGID_00000083785413532013486510000008158418289610110867_);}
	.st78{fill:url(#SVGID_00000018928842448034224330000011797328146600236419_);}
	.st79{fill:url(#SVGID_00000095323126335911929510000003967005476285636759_);}
	.st80{fill:url(#SVGID_00000059280075823725808740000012919057298084467639_);}
	.st81{fill:url(#SVGID_00000170240966399276310620000002060020111221730729_);}
	.st82{fill:url(#SVGID_00000145757313656542690400000010099576023314114234_);}
	.st83{fill:url(#SVGID_00000083051982231285372780000004658599686819003312_);}
	.st84{fill:url(#SVGID_00000132803758138652253740000005211795577907031477_);}
	.st85{fill:url(#SVGID_00000139999075520450346430000003625436431982961593_);}
	.st86{fill:url(#SVGID_00000104680785478614397890000014983449323650279097_);}
	.st87{fill:url(#SVGID_00000110438772863043321640000003776199834318514873_);}
	.st88{fill:url(#SVGID_00000058550002760232695150000002376314802380030888_);}
	.st89{fill:url(#SVGID_00000150067163947407580880000013933957247902572980_);}
	.st90{fill:url(#SVGID_00000177448730346149401110000002690335458255466905_);}
	.st91{fill:url(#SVGID_00000159435620154778716770000013851449591543639176_);}
	.st92{fill:url(#SVGID_00000158002593709246469350000002784270850156619958_);}
	.st93{fill:url(#SVGID_00000071540059137652638000000016907103899187221640_);}
	.st94{fill:url(#SVGID_00000046320275159086237000000001654626274341765286_);}
	.st95{fill:url(#SVGID_00000011728508095544123590000012491430515184196012_);}
	.st96{fill:url(#SVGID_00000035510672284222584460000001242438575698988678_);}
	.st97{fill:url(#SVGID_00000075857792270190817030000003820019270737021834_);}
	.st98{fill:url(#SVGID_00000136390481110040515080000012991153314904484274_);}
	.st99{fill:url(#SVGID_00000147929519019130145060000001235017997248052380_);}
	.st100{fill:url(#SVGID_00000126312914106450714350000014144042996135662464_);}
	.st101{fill:url(#SVGID_00000033359235034823153620000010897310327135979951_);}
	.st102{fill:url(#SVGID_00000174603923769144775970000005839356808772953222_);}
	.st103{fill:url(#SVGID_00000167378762550602221540000013927662450193636531_);}
	.st104{fill:url(#SVGID_00000070823029934689522640000012626818707043570081_);}
	.st105{fill:url(#SVGID_00000078008574526241460530000012491527976676285101_);}
	.st106{fill:url(#SVGID_00000037670118565887127780000017860911625399898290_);}
	.st107{fill:url(#SVGID_00000116956574284138417720000004065238931570144942_);}
	.st108{fill:url(#SVGID_00000114778957148187798870000010928521824804001187_);}
	.st109{fill:url(#SVGID_00000079467560964125365850000002093980080655117215_);}
	.st110{fill:url(#SVGID_00000013190061888293366730000000564179096429123215_);}
	.st111{fill:url(#SVGID_00000163041078254237523730000015534711710459882415_);}
	.st112{fill:url(#SVGID_00000062177804327697072970000009820680989050505370_);}
	.st113{fill:url(#SVGID_00000120531717539466117380000010322746320238512037_);}
	.st114{fill:url(#SVGID_00000068653814143018455630000009467632831064139959_);}
	.st115{fill:url(#SVGID_00000075881007561666573890000006916488649345991048_);}
	.st116{fill:url(#SVGID_00000142165919636816788760000007652263286816784009_);}
	.st117{fill:url(#SVGID_00000081618945788284560850000007710724967094738314_);}
	.st118{fill:url(#SVGID_00000059996944940575804850000017512737111900634814_);}
	.st119{fill:url(#SVGID_00000132773250814395962640000005183872553681587093_);}
	.st120{fill:url(#SVGID_00000101794491637479954480000007947693336667936900_);}
	.st121{fill:url(#SVGID_00000029759455316081844930000009462726659904089232_);}
	.st122{fill:url(#SVGID_00000178916597632370522600000004147798004814533301_);}
	.st123{fill:url(#SVGID_00000142166960456824937940000017097980388895473295_);}
	.st124{fill:url(#SVGID_00000121993748737534422240000003189112310214647169_);}
	.st125{fill:url(#SVGID_00000072254262983492568380000011957824431568283583_);}
	.st126{fill:url(#SVGID_00000045598717877711346680000008047384939470121149_);}
	.st127{fill:url(#SVGID_00000031917092469230347460000005389571305471817600_);}
	.st128{fill:url(#SVGID_00000152973281989541498280000014986831890138439595_);}
	.st129{fill:url(#SVGID_00000041995770033681605400000009011768816532536231_);}
	.st130{fill:url(#SVGID_00000011004985937440298560000005436295940902147969_);}
	.st131{fill:url(#SVGID_00000168836982872571186860000001003011809147867529_);}
	.st132{fill:url(#SVGID_00000178886241459878193660000013196573868616740498_);}
	.st133{fill:url(#SVGID_00000168103833397800673230000008667005318875285938_);}
	.st134{fill:url(#SVGID_00000069394261775329084270000010878329604658782388_);}
	.st135{fill:url(#SVGID_00000059997785700306312290000014776436892913401749_);}
	.st136{fill:url(#SVGID_00000158001929946459256810000003177943662979492996_);}
	.st137{fill:url(#SVGID_00000016780536139005313610000012645527215097104303_);}
	.st138{fill:url(#SVGID_00000112614926487139703300000008219788831961932939_);}
	.st139{fill:url(#SVGID_00000060008379679493271040000007744810217332745406_);}
	.st140{fill:url(#SVGID_00000083051964339198069950000008714147186770953630_);}
	.st141{fill:url(#SVGID_00000031891159658687452850000013448817797510099641_);}
	.st142{fill:url(#SVGID_00000019641387743155188830000013971119940661245350_);}
	.st143{fill:url(#SVGID_00000101076560741759430950000000865840430499976884_);}
	.st144{fill:url(#SVGID_00000118372333774129719490000010239067045329987741_);}
	.st145{fill:url(#SVGID_00000091702679506369463890000014759715502653363089_);}
	.st146{fill:url(#SVGID_00000151512709331008780540000013265011072845971354_);}
	.st147{fill:url(#SVGID_00000079455238670756835730000004926307888056162451_);}
	.st148{fill:url(#SVGID_00000059996095430550642780000004865825831084247954_);}
	.st149{fill:url(#SVGID_00000178909416617829505400000015925330084495431299_);}
	.st150{fill:url(#SVGID_00000031183132151632400910000005357383251731806143_);}
	.st151{fill:url(#SVGID_00000173161216943914517640000004422842654138902152_);}
	.st152{fill:url(#SVGID_00000091719732275628395800000006466366844176205493_);}
	.st153{fill:url(#SVGID_00000180338982830464264950000004020727039392801436_);}
	.st154{fill:url(#SVGID_00000038408850125744512590000011539581732367775622_);}
	.st155{fill:url(#SVGID_00000103261123136344532600000007000201795678155955_);}
	.st156{fill:url(#SVGID_00000103964308173805425270000016987490790625709194_);}
	.st157{fill:url(#SVGID_00000099633611775928447610000016960342752998103213_);}
	.st158{fill:url(#SVGID_00000022562009688496910340000015394712679099425470_);}
	.st159{fill:url(#SVGID_00000143598451995250358360000016724393466794239378_);}
	.st160{fill:url(#SVGID_00000064348408235535514720000015742582160380340916_);}
	.st161{fill:url(#SVGID_00000132780674735381049170000010791632714633586356_);}
	.st162{fill:url(#SVGID_00000138539748151874096320000018221520719159339426_);}
	.st163{fill:url(#SVGID_00000170960025165308430460000008768426822972397759_);}
	.st164{fill:url(#SVGID_00000070103445696136193440000012608449645719899803_);}
	.st165{fill:url(#SVGID_00000047025914632955898070000001905844894259235774_);}
	.st166{fill:url(#SVGID_00000152971567516536072920000006460575792510915503_);}
	.st167{fill:url(#SVGID_00000122693088967253212540000014831638006949676963_);}
	.st168{fill:url(#SVGID_00000183936742300216804330000014839880064348120494_);}
	.st169{fill:url(#SVGID_00000093175045357272318620000012964475405838347141_);}
	.st170{fill:url(#SVGID_00000099650162328808579100000013933699563718729120_);}
	.st171{fill:url(#SVGID_00000014634617297778134450000005763019831323626152_);}
	.st172{fill:url(#SVGID_00000083054189358183169380000018015078159658854305_);}
	.st173{fill:url(#SVGID_00000013912471590418281100000010765060310729640099_);}
	.st174{fill:url(#SVGID_00000026141797676571519270000007641127198562534567_);}
	.st175{fill:url(#SVGID_00000168802770023133545400000009756999381554304952_);}
	.st176{fill:url(#SVGID_00000079488149523064324080000004179657263092657284_);}
	.st177{fill:url(#SVGID_00000163037317431248271970000004280884267373117851_);}
	.st178{fill:url(#SVGID_00000024699337253513246820000008538774076727396287_);}
	.st179{fill:url(#SVGID_00000012456636158471850410000008731441134571740546_);}
	.st180{fill:url(#SVGID_00000074401025166880542310000011906101245738768033_);}
	.st181{fill:url(#SVGID_00000075140907024181287710000009535780872932580792_);}
	.st182{fill:url(#SVGID_00000122689004505448583430000017568555953625195658_);}
	.st183{fill:url(#SVGID_00000054959163471183257620000010353156430128814490_);}
	.st184{fill:url(#SVGID_00000072275334970704369340000000694554848138111904_);}
	.st185{fill:url(#SVGID_00000059993948683934722790000000041812382294459010_);}
	.st186{fill:url(#SVGID_00000044874703490891849380000016343196677910584473_);}
	.st187{fill:url(#SVGID_00000080186641804527511490000012166534637443293599_);}
	.st188{fill:url(#SVGID_00000128473694745168241210000017423118629346371505_);}
	.st189{fill:url(#SVGID_00000155140645972551506950000002291768756964300711_);}
	.st190{fill:url(#SVGID_00000119113294387135905090000016523736513251850383_);}
	.st191{fill:url(#SVGID_00000130645634144041306540000015180958882136447113_);}
	.st192{fill:url(#SVGID_00000024702116330709244840000002421964654477562302_);}
	.st193{fill:url(#SVGID_00000106132958299805554770000004469931941024649652_);}
	.st194{fill:url(#SVGID_00000168832213850925337830000013358833560793888166_);}
	.st195{fill:#F6F7F7;}
	.st196{fill:url(#SVGID_00000161597933056184937270000009513223232669343890_);}
	.st197{fill:url(#SVGID_00000079473299382043466290000015684697558503803834_);}
	.st198{fill:url(#SVGID_00000155864446291999621710000016375516896062615182_);}
	.st199{fill:url(#SVGID_00000180331079685675901420000001565532456228374154_);}
	.st200{fill:url(#SVGID_00000138559566163509362790000010446313269638909093_);}
	.st201{fill:url(#SVGID_00000162316286663227623650000005222201599942938499_);}
	.st202{fill:url(#SVGID_00000037688316480180142250000007764671822173443243_);}
	.st203{fill:url(#SVGID_00000031902145597648035960000013540202324991721101_);}
	.st204{fill:url(#SVGID_00000011026337457162776370000013244657034560606644_);}
	.st205{fill:url(#SVGID_00000114072856234250645750000018347163139271113344_);}
	.st206{fill:url(#SVGID_00000043435510524525090680000008472020155376435843_);}
	.st207{fill:url(#SVGID_00000164481265128694781370000018054705895073336737_);}
	.st208{fill:url(#SVGID_00000181783142740246240050000006775293447818022299_);}
	.st209{fill:url(#SVGID_00000152960587031417882360000011122676591725839022_);}
	.st210{fill:#A8988B;}
	.st211{fill:#0C0002;}
</style>
<g>
	<g>
		<g>
			<g>
				<g>
					<rect y="526.8" class="st1" width="95.7" height="158.8"/>
					<rect x="210.5" y="526.8" class="st1" width="95.7" height="158.8"/>
					<rect x="421" y="526.8" class="st1" width="95.7" height="158.8"/>
					<rect x="1401.1" y="526.8" class="st1" width="95.7" height="158.8"/>
					<rect x="2906.5" y="526.8" class="st1" width="95.7" height="158.8"/>
					<rect x="2461.7" y="526.8" class="st1" width="95.7" height="158.8"/>
					<polygon class="st1" points="2881.1,685.5 2755.6,685.5 2708.1,638 2766,570.4 					"/>
					<rect x="2004.1" y="526.8" class="st1" width="95.7" height="158.8"/>
					<rect x="1687" y="526.8" class="st1" width="95.7" height="158.8"/>
					<path class="st1" d="M514.4,512.6H0v-54.7h459.8C490,457.9,514.4,482.4,514.4,512.6L514.4,512.6z"/>
					<rect x="570" y="457.9" class="st1" width="341.3" height="54.6"/>
					<path class="st1" d="M665.6,616.7v-14.2h226.2V548h-212c-7.8,0-14.2-6.4-14.2-14.2v-7H570V548v54.6v16.4
						c0,36.8,29.8,66.6,66.6,66.6h274.7v-54.6H679.8C672,630.9,665.6,624.5,665.6,616.7z"/>
					<rect x="3497.7" y="457.9" class="st1" width="341.3" height="54.6"/>
					<path class="st1" d="M3593.4,616.7v-14.2h226.2V548h-212c-7.8,0-14.2-6.4-14.2-14.2v-7h-95.7V548v54.6v16.4
						c0,36.8,29.8,66.6,66.6,66.6H3839v-54.6h-231.4C3599.8,630.9,3593.4,624.5,3593.4,616.7z"/>
					<path class="st1" d="M1336.4,512.6H957.2l0,0c0-30.2,24.5-54.6,54.6-54.6h324.6V512.6z"/>
					<path class="st1" d="M1125.6,548v54.6h119.8c7.8,0,14.2,6.4,14.2,14.2l0,0c0,7.8-6.4,14.2-14.2,14.2H1067
						c-7.8,0-14.2-6.4-14.2-14.2v-90h-95.7v92.2c0,36.8,29.8,66.6,66.6,66.6h29.2h233.6c38,0,68.8-30.8,68.8-68.8l0,0
						c0-38-30.8-68.8-68.8-68.8H1125.6z"/>
					<path class="st1" d="M2306.5,526.8v90c0,7.8-6.4,14.2-14.2,14.2H2114v54.6h221.6c36.8,0,66.6-29.8,66.6-66.6v-92.2H2306.5z"/>
					<path class="st1" d="M1782.6,512.6h-381.5l0,0c0-30.2,24.5-54.6,54.6-54.6H1728C1758.2,457.9,1782.6,482.4,1782.6,512.6
						L1782.6,512.6z"/>
					<path class="st1" d="M2402.2,512.6H2004v-54.7h343.6C2377.8,457.9,2402.2,482.4,2402.2,512.6L2402.2,512.6z"/>
					<rect x="2906.5" y="457.9" class="st1" width="95.7" height="54.6"/>
					<rect x="1511.1" y="575.3" class="st1" width="243.9" height="64.5"/>
					<path class="st1" d="M2461.6,512.6L2461.6,512.6h285.7v48.5c0,7.8-6.4,14.2-14.2,14.2h-161.6v64.5h199.1
						c43.8,0,79.6-35.8,79.6-79.6v-22.8c0-43.9-35.6-79.6-79.6-79.6h-254.5C2486.1,457.9,2461.6,482.4,2461.6,512.6z"/>
					<g>
						<polygon class="st1" points="3426.5,512.6 3461.6,457.9 3347.8,457.9 3312.7,512.6 						"/>
						<polygon class="st1" points="3182.5,512.6 3147.3,457.9 3033.5,457.9 3068.6,512.6 						"/>
						<polygon class="st1" points="3303.5,526.8 3247.6,613.7 3191.7,526.8 3077.8,526.8 3180,685.5 3315.2,685.5 3417.3,526.8 
													"/>
					</g>
				</g>
			</g>
		</g>
		<g>
			<g>
				<g>
					<path class="st1" d="M1498.1,236.5h-148.6v46.4h148.6c28.5,0,52.3-23.8,52.3-52.3s-23.8-52.3-52.3-52.3h-38
						c-34.5,0-63-28.5-63-63s28.5-63,63-63h147.4V5.9h-148.6c-60.6,0-109.4,48.7-109.4,109.4s48.7,109.4,109.4,109.4h38
						c3.6,0,5.9,2.4,5.9,5.9C1502.9,234.1,1500.5,236.5,1498.1,236.5z"/>
					<path class="st1" d="M1458.9,110.6h148.6V63h-148.6c-28.5,0-52.3,23.8-52.3,52.3s23.8,52.3,52.3,52.3h38c34.5,0,63,28.5,63,63
						s-28.5,63-63,63h-147.4v46.4h148.6c60.6,0,109.4-48.7,109.4-109.4s-48.7-109.4-109.4-109.4h-38c-3.6,0-5.9-2.4-5.9-5.9
						C1454.1,112.9,1456.5,110.6,1458.9,110.6z"/>
				</g>
				<g>
					<path class="st1" d="M1992.5,63c-20.2,0-35.7,15.5-35.7,35.7v148.6c0,20.2,15.5,35.7,35.7,35.7h96.3V178.3h-73.7v46.4h27.3
						v10.7h-27.3c-5.9,0-10.7-4.8-10.7-10.7V120.1c0-5.9,4.8-10.7,10.7-10.7h131.9V63H1992.5z"/>
					<path class="st1" d="M2284.8,282.8H2393l-73.7-218.6c-2.4-5.9-7.1-10.7-14.3-10.7c-5.9,0-11.9,4.8-14.3,9.5l-95.1,276.9h54.7
						l33.3-98.7v41.6H2284.8z M2303.9,183.1l15.5,47.5h-32.1L2303.9,183.1z"/>
					<path class="st1" d="M2376.4,54.7c-9.5-30.9-38-54.7-72.5-54.7s-63,22.6-71.3,53.5l-86.8,254.3V121.2h-130.8v46.4h85.6v126
						h-107c-26.2,0-46.4-21.4-46.4-46.4V98.7c0-26.2,21.4-46.4,46.4-46.4h153.3V5.9h-154.5c-51.1,0-92.7,41.6-92.7,92.7v148.6
						c0,51.1,41.6,92.7,92.7,92.7h191.4l96.3-279.3c3.6-10.7,13.1-17.8,25-17.8c11.9,0,21.4,7.1,25,17.8l78.5,232.9H2285v46.5h187.8
						l0,0L2376.4,54.7z"/>
				</g>
				<g>
					<path class="st1" d="M1722.8,293.5c-26.2,0-46.4-21.4-46.4-46.4V98.7c0-26.2,21.4-46.4,46.4-46.4H1882V5.9h-159.3
						c-51.1,0-92.7,41.6-92.7,92.7v148.6c0,51.1,41.6,92.7,92.7,92.7H1882v-46.4L1722.8,293.5L1722.8,293.5z"/>
					<path class="st1" d="M1733.4,225.8h115.3v-46.4h-161.7v68.9c0,20.2,15.5,35.7,35.7,35.7H1882v-46.4h-137.9
						C1738.1,236.5,1733.4,231.7,1733.4,225.8z"/>
					<path class="st1" d="M1848.7,121.2h-115.3c0-5.9,4.8-10.7,10.7-10.7h136.7V63h-158.1c-20.2,0-35.7,15.5-35.7,35.7v68.9h161.7
						C1848.7,167.6,1848.7,121.2,1848.7,121.2z"/>
				</g>
			</g>
		</g>
	</g>
</g>
</svg>
