<?xml version="1.0" encoding="utf-8"?>
<!-- Generator: Adobe Illustrator 25.0.0, SVG Export Plug-In . SVG Version: 6.00 Build 0)  -->
<svg version="1.1" id="Layer_1" xmlns="http://www.w3.org/2000/svg" xmlns:xlink="http://www.w3.org/1999/xlink" x="0px" y="0px"
	 viewBox="0 0 3199.076 2159" style="enable-background:new 0 0 3199.076 2159;" xml:space="preserve">
<style type="text/css">
	.st0{fill:#E62229;}
	.st1{fill:#019B43;}
	.st2{fill:#FFFFFF;}
</style>
<g>
	<g>
		<g>
			<rect x="2414.286" y="1862.159" width="85.088" height="296.841"/>
			<g>
				<polygon points="2616.833,1961.468 2531.745,1988.667 2531.745,1862.159 2616.833,1862.159 				"/>
				<polygon points="2870.315,1988.667 2785.227,1961.468 2785.227,1862.159 2870.315,1862.159 				"/>
				<polygon points="2632.61,2159 2735.138,2159 2559.365,1862.159 2531.745,1988.667 				"/>
				<polygon points="2769.449,2159 2666.922,2159 2842.694,1862.159 2870.315,1988.667 				"/>
			</g>
			<path d="M317.733,1883.278l-17.444,29.457v-50.577H198.192c-14.006,0-27.094,7.917-34.912,21.12L0,2159h102.533l131.168-221.493
				h51.918L154.453,2159h102.533l136.93-231.223c1.735-2.929,5.759-1.534,5.759,1.996V2159h85.088v-296.842H352.645
				C338.639,1862.158,325.551,1870.076,317.733,1883.278z"/>
			<path d="M663.054,1925.208h155.41v-63.049l-129.037-0.525h-91.268c-7.044,0-13.625,3.982-17.557,10.621l-40.809,68.912V2159
				h278.672v-63.049H624.88v-53.642h156.247l37.337-63.048H624.88v-8.632l20.602-34.791
				C649.417,1929.193,656.005,1925.208,663.054,1925.208z"/>
			<path d="M3043.666,1925.208h155.41v-63.049l-129.037-0.525h-91.268c-7.043,0-13.625,3.982-17.557,10.621l-40.809,68.912V2159
				h278.672v-63.049h-193.584v-53.642h156.246l37.337-63.048h-193.584v-8.632l20.602-34.791
				C3030.029,1929.193,3036.616,1925.208,3043.666,1925.208z"/>
			<path d="M1555.006,2159l-163.118-275.471c-7.91-13.359-21.153-21.37-35.325-21.37h-155.029V2159h85.089v-116.428v-117.365h14.166
				c8.278,0,16.014,4.68,20.635,12.483l62.108,104.881h-96.909l37.336,63.048h0.143h96.766l31.609,53.38H1555.006z"/>
			<path d="M1157.418,1979.523h-9.093h-75.67h-27.02l-37.181,62.785h36.328v0.264h27.873v53.379H930.538V1987.97l30.87-52.129
				c3.936-6.647,10.526-10.634,17.578-10.634h161.747v-63.049h-135.689l0.311-0.525h-87.928c-9.132,0-17.665,5.162-22.762,13.77
				l-49.215,83.108v166.821c0,18.594,13.268,33.668,29.635,33.668h33.675h21.777h142.116h55.451
				c16.368,0,29.637-15.074,29.637-33.67v-29.379v-116.428H1157.418z"/>
			<path d="M1967.323,1890.057c-10.327-17.441-27.617-27.9-46.119-27.9l-72.938,0.003h-159.788V2159l214.391-0.003h18.334
				c18.502,0,35.792-10.459,46.119-27.9l60.381-101.971c2.188-3.695,3.357-8.048,3.357-12.502v-12.094
				c0-4.454-1.169-8.806-3.357-12.502L1967.323,1890.057z M1885.602,2095.951h-112.036v-170.742h112.036l42.599,71.932
				c4.811,8.123,4.811,18.748,0,26.871L1885.602,2095.951z"/>
			<path d="M2295.936,2048.271l48.865-82.522c2.187-3.693,3.355-8.044,3.355-12.495v-10.32c0-4.452-1.168-8.802-3.355-12.496
				l-23.911-40.38c-10.328-17.442-27.619-27.902-46.123-27.902h-72.929l-161.184,0.003V2159h85.088v-233.791h108.002
				c3.395,0,6.568,1.919,8.463,5.12l6.689,11.295c2.316,3.911,2.316,9.027,0,12.938l-33.172,56.016h-44.638L2258.978,2159h102.527
				L2295.936,2048.271z"/>
		</g>
	</g>
	<rect x="0" width="3199.076" height="1599.872"/>
	<g>
		<polygon class="st0" points="928.398,1139.556 928.398,138.627 94.017,1378.856 1601.785,1378.774 1601.785,138.627 		"/>
		<polygon class="st1" points="1776.451,166.633 1776.451,198.911 1776.451,1378.857 2176.651,1378.857 2176.651,166.633 		"/>
		<path class="st1" d="M2455.47,792.544c-9.965,100.187-94.489,178.43-197.298,178.43h-31.163v407.882h81.364
			c328.118,0,595.302-260.734,605.757-586.312H2455.47z"/>
		<path class="st1" d="M2722.174,329.944l-332.269,294.585c10.461,9.316,19.92,19.728,28.218,31.049l378.399-242.073
			C2774.335,383.402,2749.433,355.432,2722.174,329.944z"/>
		<path class="st1" d="M2290.666,577.1c13.749,2.269,27.031,5.916,39.672,10.861l181.924-386.17
			c-34.477-12.315-70.407-21.558-107.448-27.482L2290.666,577.1z"/>
		<path class="st1" d="M2670.727,286.89c-30.367-22.689-62.93-42.592-97.318-59.343l-230.824,365.725
			c13.255,6.252,25.699,13.924,37.147,22.831L2670.727,286.89z"/>
		<path class="st1" d="M2446.966,712.127c3.581,11.175,6.21,22.777,7.766,34.718h459.166c-1.607-38.201-6.79-75.472-15.147-111.526
			L2446.966,712.127z"/>
		<path class="st1" d="M2879.508,569.558c-12.32-34.633-27.677-67.823-45.793-99.229l-408.189,196.128
			c6.611,10.401,12.273,21.454,16.88,33.05L2879.508,569.558z"/>
		<path class="st1" d="M2341.674,167.562c-11.027-0.598-22.125-0.929-33.301-0.929h-81.364v407.763h31.163
			c6.595,0,13.11,0.341,19.539,0.969L2341.674,167.562z"/>
	</g>
</g>
</svg>
