<?xml version="1.0" encoding="utf-8"?>
<!-- Generator: Adobe Illustrator 25.4.1, SVG Export Plug-In . SVG Version: 6.00 Build 0)  -->
<svg version="1.1" id="Layer_1" xmlns="http://www.w3.org/2000/svg" xmlns:xlink="http://www.w3.org/1999/xlink" x="0px" y="0px"
	 viewBox="0 0 3839 2020.9" style="enable-background:new 0 0 3839 2020.9;" xml:space="preserve">
<style type="text/css">
	.st0{fill:#FFFFFF;}
	.st1{clip-path:url(#SVGID_00000027565451840727706000000010813701381993624963_);fill:#FFFFFF;}
	.st2{clip-path:url(#SVGID_00000121961019240696566530000005791577611771950210_);fill:#FFFFFF;}
	.st3{clip-path:url(#SVGID_00000131359788284308265490000002106186017766589345_);fill:#FFFFFF;}
	.st4{clip-path:url(#SVGID_00000077291307206249786180000011683935520330241947_);fill:#FFFFFF;}
	.st5{clip-path:url(#SVGID_00000149365307596753132680000001722497019679328393_);fill:#FFFFFF;}
	.st6{clip-path:url(#SVGID_00000115488639870265737640000004013904274221225384_);fill:#FFFFFF;}
	.st7{clip-path:url(#SVGID_00000054235983228632849980000010598107002609318810_);fill:#FFFFFF;}
	.st8{clip-path:url(#SVGID_00000127756537079183259270000008395687316419725464_);fill:#FFFFFF;}
	.st9{clip-path:url(#SVGID_00000067948287075132653740000002152435797012163749_);fill:#FFFFFF;}
	.st10{clip-path:url(#SVGID_00000156567155297760777740000010085796039252152988_);fill:#FFFFFF;}
	.st11{clip-path:url(#SVGID_00000162310257710557654040000007769367079852327334_);fill:#FFFFFF;}
	.st12{clip-path:url(#SVGID_00000165208763340955114510000003543663187253558974_);fill:#FFFFFF;}
	.st13{clip-path:url(#SVGID_00000075867608436991798570000013536582261565652361_);fill:#FFFFFF;}
	.st14{clip-path:url(#SVGID_00000144300585186521220550000011809378687172161674_);fill:#FFFFFF;}
	.st15{clip-path:url(#SVGID_00000029728602381764540710000005969051734897431200_);fill:#FFFFFF;}
	.st16{clip-path:url(#SVGID_00000082331112084029013400000016437221785715659154_);fill:#FFFFFF;}
	.st17{fill:#AA9644;stroke:#000000;stroke-width:33.9831;stroke-linecap:round;stroke-miterlimit:10;}
	.st18{fill:#199A40;stroke:#000000;stroke-width:33.9831;stroke-linecap:round;stroke-miterlimit:10;}
	.st19{fill:#D4BF7C;stroke:#000000;stroke-width:33.9831;stroke-linecap:round;stroke-miterlimit:10;}
	.st20{fill:#F4134B;stroke:#000000;stroke-width:33.9831;stroke-linecap:round;stroke-miterlimit:10;}
	
		.st21{clip-path:url(#SVGID_00000070823446936126394870000003397414032194072227_);fill:url(#path2694_00000183247076278716806700000006705447442673816719_);stroke:#000000;stroke-width:33.9831;stroke-linecap:round;stroke-miterlimit:10;}
	
		.st22{clip-path:url(#SVGID_00000075129450375101994840000010529710550579417236_);fill:url(#path2796_00000084514589890024112670000010075842108350674600_);}
	
		.st23{clip-path:url(#SVGID_00000082335515354974024440000013468226948262711479_);fill:url(#path2824_00000100355985812676711920000008096772174396410291_);}
	
		.st24{clip-path:url(#SVGID_00000019663124884854727590000015144343607980854936_);fill:url(#path2852_00000144317806403042651550000003874097917869715590_);}
	.st25{fill:#034693;}
	
		.st26{clip-path:url(#SVGID_00000031167515739596446170000017488998554550850202_);fill:url(#path2694_00000040575653693128188560000013657256107432733861_);stroke:#000000;stroke-width:33.9831;stroke-linecap:round;stroke-miterlimit:10;}
	
		.st27{clip-path:url(#SVGID_00000155123653570423720960000006441797328236001690_);fill:url(#path2796_00000090272047017982848890000015550452836710367414_);}
	
		.st28{clip-path:url(#SVGID_00000000943916558678609360000009262482978640537509_);fill:url(#path2824_00000152231131957498689390000011770302208609836697_);}
	
		.st29{clip-path:url(#SVGID_00000183239665939273474160000011735826429323068810_);fill:url(#path2852_00000069365456269813997890000000195575886895013297_);}
	.st30{fill:#AA9644;stroke:#000000;stroke-width:34.2866;stroke-linecap:round;stroke-miterlimit:10;}
	.st31{fill:#199A40;stroke:#000000;stroke-width:34.2866;stroke-linecap:round;stroke-miterlimit:10;}
	.st32{fill:#D4BF7C;stroke:#000000;stroke-width:34.2866;stroke-linecap:round;stroke-miterlimit:10;}
	.st33{fill:#F4134B;stroke:#000000;stroke-width:34.2866;stroke-linecap:round;stroke-miterlimit:10;}
	
		.st34{clip-path:url(#SVGID_00000086693949067273261920000014516982198688376718_);fill:url(#path2694_00000172407066639548710800000013360825495824724626_);stroke:#000000;stroke-width:34.2866;stroke-linecap:round;stroke-miterlimit:10;}
	
		.st35{clip-path:url(#SVGID_00000167371955266023535810000009466263016445777044_);fill:url(#path2796_00000105424324630017249880000016972187309116080037_);}
	
		.st36{clip-path:url(#SVGID_00000071528158724176422320000013326599350846462379_);fill:url(#path2824_00000011716270674300633310000010641913411945927836_);}
	
		.st37{clip-path:url(#SVGID_00000149349657152172570320000000272490229777492880_);fill:url(#path2852_00000152232065430799326500000008037584474325992638_);}
	
		.st38{clip-path:url(#SVGID_00000149363794304577628910000017040898815247146368_);fill:url(#path2694_00000119836693471298060390000004475998196424404912_);stroke:#000000;stroke-width:34.2866;stroke-linecap:round;stroke-miterlimit:10;}
	
		.st39{clip-path:url(#SVGID_00000063609500511148871960000011365795109678735003_);fill:url(#path2796_00000009586622037217514340000005589160601278773693_);}
	
		.st40{clip-path:url(#SVGID_00000134216963241118276540000007955209662810871203_);fill:url(#path2824_00000000196123051344685510000005961292480680998295_);}
	
		.st41{clip-path:url(#SVGID_00000001635884341907358520000012153214183984614309_);fill:url(#path2852_00000070108703825785156850000015958235623841316776_);}
	.st42{fill:none;}
	.st43{fill:#AA9644;}
	.st44{fill:#199A40;}
	.st45{fill:#D4BF7C;}
	.st46{fill:#F4134B;}
	
		.st47{clip-path:url(#SVGID_00000010310328210058858950000001718499280918711437_);fill:url(#path2694_00000067935058561748513750000009947024744667630724_);}
	
		.st48{clip-path:url(#SVGID_00000115505924863418319580000015425078964871765147_);fill:url(#path2796_00000142862297380153779820000003642944724645329043_);}
	
		.st49{clip-path:url(#SVGID_00000000931162063593062900000001579906045018870930_);fill:url(#path2824_00000091715960811609655460000015982348436200390570_);}
	
		.st50{clip-path:url(#SVGID_00000152954798006625519170000009402617555823392690_);fill:url(#path2852_00000060011035994062724310000008764876019034572960_);}
	
		.st51{clip-path:url(#SVGID_00000161614313215462315120000002221385507441179581_);fill:url(#path2694_00000125594266302600290730000012751708930214234036_);}
	
		.st52{clip-path:url(#SVGID_00000158749764619786879910000001897738307167020463_);fill:url(#path2796_00000062902543589369263190000018031051268988921737_);}
	
		.st53{clip-path:url(#SVGID_00000181774666598680624540000002276386064546569103_);fill:url(#path2824_00000031915635425863067470000003807672661064121762_);}
	
		.st54{clip-path:url(#SVGID_00000046309559506475956410000011900414011852435102_);fill:url(#path2852_00000023270823162206267230000017605449124027912360_);}
	
		.st55{clip-path:url(#SVGID_00000111159504964317401800000002020160888405678008_);fill:url(#path2694_00000065067019374734850990000011361809626935316923_);}
	
		.st56{clip-path:url(#SVGID_00000049181430048817379410000014692339691896974999_);fill:url(#path2796_00000108282703994319611300000000684405141287445634_);}
	
		.st57{clip-path:url(#SVGID_00000158028159372076695950000000589157512325475775_);fill:url(#path2824_00000142875986033852904120000012295235670204188310_);}
	
		.st58{clip-path:url(#SVGID_00000173151429793139993180000009086061157882385580_);fill:url(#path2852_00000061461567309022409540000001695610762335292860_);}
	
		.st59{clip-path:url(#SVGID_00000140706110789481766340000005343231065851416721_);fill:url(#path2694_00000039850253807109570090000016436375283923045044_);}
	
		.st60{clip-path:url(#SVGID_00000029025785606192299510000017151230172900474752_);fill:url(#path2796_00000088108644807017964840000003393224519062170016_);}
	
		.st61{clip-path:url(#SVGID_00000148633270294990743580000009239498589219788958_);fill:url(#path2824_00000154418282666623414690000007007114716363190170_);}
	
		.st62{clip-path:url(#SVGID_00000010289111649955319100000000556157162966251701_);fill:url(#path2852_00000096767985361626420760000012444681115947633817_);}
	.st63{fill:#FFFFFF;stroke:#000000;stroke-width:33.9831;stroke-linecap:round;stroke-miterlimit:10;}
	
		.st64{clip-path:url(#SVGID_00000040561805723333035000000018408442240256261295_);fill:#FFFFFF;stroke:#000000;stroke-width:33.9831;stroke-linecap:round;stroke-miterlimit:10;}
	.st65{clip-path:url(#SVGID_00000055667944868038759870000014209770420720098458_);fill:#FFFFFF;}
	.st66{clip-path:url(#SVGID_00000127041343381969836930000013875083816500787885_);fill:#FFFFFF;}
	.st67{clip-path:url(#SVGID_00000034782545722711307520000004885507726419187387_);fill:#FFFFFF;}
	
		.st68{clip-path:url(#SVGID_00000000944929269691845700000013852793388710214836_);fill:#FFFFFF;stroke:#000000;stroke-width:33.9831;stroke-linecap:round;stroke-miterlimit:10;}
	.st69{clip-path:url(#SVGID_00000030475003203606822830000002397483150508458132_);fill:#FFFFFF;}
	.st70{clip-path:url(#SVGID_00000025416574380160555270000005101905888216074912_);fill:#FFFFFF;}
	.st71{clip-path:url(#SVGID_00000103969400561619797230000006074562196366454958_);fill:#FFFFFF;}
	.st72{fill:#FFFFFF;stroke:#000000;stroke-width:34.2866;stroke-linecap:round;stroke-miterlimit:10;}
	
		.st73{clip-path:url(#SVGID_00000043435290761175500210000004422080784178513554_);fill:#FFFFFF;stroke:#000000;stroke-width:34.2866;stroke-linecap:round;stroke-miterlimit:10;}
	.st74{clip-path:url(#SVGID_00000176725428704864430940000003013653950546525602_);fill:#FFFFFF;}
	.st75{clip-path:url(#SVGID_00000155130981623102729440000009162960052364271004_);fill:#FFFFFF;}
	.st76{clip-path:url(#SVGID_00000178190399931412003380000017161622337406967693_);fill:#FFFFFF;}
	
		.st77{clip-path:url(#SVGID_00000109717922921042806410000017156120113961365414_);fill:#FFFFFF;stroke:#000000;stroke-width:34.2866;stroke-linecap:round;stroke-miterlimit:10;}
	.st78{clip-path:url(#SVGID_00000078753482621104598860000012681055407103731350_);fill:#FFFFFF;}
	.st79{clip-path:url(#SVGID_00000181800657245666719770000016676651387898176415_);fill:#FFFFFF;}
	.st80{clip-path:url(#SVGID_00000139270574824491139610000002812092883135088565_);fill:#FFFFFF;}
</style>
<g>
	<g>
		<g>
			<g>
				<path class="st0" d="M1104.9,183.4c-13.4-42.6-53.5-72.9-99.7-72.9c-46.2,0-86.3,30.4-99.7,72.9l-35.3,104.5V116.6H685.6
					c-32.8,0-63.2,13.4-86.3,35.3v-35.3H409.6c-35.3,0-66.8,14.6-90,38.9v-38.9H139.8C63.2,116.6,0,179.8,0,256.4
					c0,36.5,14.6,70.5,37.7,94.8H0V514h179.9c51.1,0,94.8-26.7,120.3-68.1c20.7,40.1,62,68.1,110.6,68.1h190.8v-35.3
					c21.9,21.9,52.2,35.3,86.3,35.3h527.5L1104.9,183.4z"/>
				<g>
					<g>
						<path class="st25" d="M180,380.4H28.1v47.4H180c29.2,0,53.5-24.3,53.5-53.5c0-29.2-24.3-53.5-53.5-53.5H141
							c-35.3,0-64.4-29.2-64.4-64.4s29.2-64.4,64.4-64.4h150.7v-47.3H139.8c-62,0-111.9,49.9-111.9,111.9s49.9,111.9,111.9,111.9
							h38.9c3.6,0,6.1,2.5,6.1,6.1C184.8,377.9,182.4,380.4,180,380.4z"/>
						<path class="st25" d="M139.8,251.5h151.9v-48.6H139.8c-29.2,0-53.5,24.3-53.5,53.5s24.3,53.5,53.5,53.5h38.9
							c35.3,0,64.4,29.2,64.4,64.4s-29.2,64.4-64.4,64.4H28.1v47.4H180c62,0,111.9-49.9,111.9-111.9S242,262.5,180,262.5H141
							c-3.6,0-6.1-2.5-6.1-6.1C135,253.9,137.4,251.5,139.8,251.5z"/>
					</g>
					<g>
						<path class="st25" d="M685.6,202.9c-20.7,0-36.5,15.8-36.5,36.5v151.9c0,20.7,15.8,36.5,36.5,36.5h98.5V320.7h-75.4v47.4h28
							v10.9h-28c-6.1,0-10.9-4.8-10.9-10.9V261.2c0-6.1,4.8-10.9,10.9-10.9h134.9v-47.4H685.6L685.6,202.9z"/>
						<path class="st25" d="M984.6,427.8h110.6l-75.4-223.6c-2.5-6.1-7.3-10.9-14.6-10.9c-6.1,0-12.1,4.8-14.6,9.7l-97.3,283.2h55.9
							l34-100.9v42.6H984.6z M1004.1,325.7l15.8,48.6H987L1004.1,325.7z"/>
						<path class="st25" d="M1078.2,194.4c-9.7-31.6-38.9-55.9-74.1-55.9s-64.4,23.1-72.9,54.7l-88.7,260.1V262.4H708.7v47.4h87.5
							v128.9H686.9c-26.7,0-47.4-21.9-47.4-47.4v-152c0-26.7,21.9-47.4,47.4-47.4h156.8v-47.4h-158c-52.2,0-94.8,42.6-94.8,94.8
							v151.9c0,52.2,42.6,94.8,94.8,94.8h195.7l98.5-285.6c3.6-10.9,13.4-18.2,25.5-18.2s21.9,7.3,25.5,18.2l80.2,238.3H984.6v47.4
							h192.1l0,0L1078.2,194.4z"/>
					</g>
					<g>
						<path class="st25" d="M409.7,438.7c-26.7,0-47.4-21.9-47.4-47.4v-152c0-26.7,21.9-47.4,47.4-47.4h162.8v-47.4H409.7
							c-52.2,0-94.8,42.6-94.8,94.8v151.9c0,52.2,42.6,94.8,94.8,94.8h162.8v-47.3H409.7z"/>
						<path class="st25" d="M420.6,369.4h117.9V322H373.2v70.5c0,20.7,15.8,36.5,36.5,36.5h162.8v-47.4h-141
							C425.5,380.4,420.6,375.4,420.6,369.4z"/>
						<path class="st25" d="M538.5,262.4H420.6c0-6.1,4.8-10.9,10.9-10.9h139.8v-48.6H409.7c-20.7,0-36.5,15.8-36.5,36.5v70.5h165.3
							V262.4z"/>
					</g>
				</g>
			</g>
		</g>
	</g>
	<g>
		<g>
			<g>
				<path id="path2658_00000106147362722864042910000010904567407532358077_" class="st43" d="M2241.6,432.2
					c74.5,76.8,253.6,341.8,292.3,515.9c42.8,192.7,12.9,623.5,12.9,623.5l98.5,30.2l92.8-30.2c0,0-32.2-466.5-118.2-692.3
					c-43.6-114.5-120.4-285.9-311.6-447.1C2254.4,376.8,2245.9,400.9,2241.6,432.2z"/>
				<path id="path2660_00000166664195698185406230000017721332505249560215_" class="st44" d="M2379,90.3
					c58.1-4.3,144.1,10.7,165.6,103.2c62.3,30.1,113.4,55.5,153.2,109.1c49.4,66.7,31.7,146.7,20.8,183.5l-51.4-67.4
					c4.8-29-10.8-59.9-10.8-59.9s-19.8,24.5-29.3,35.8c-22.3-16.5-67.2-44.2-67.9-43.6c24.2,117.7,43.5,201.6-8.1,272.5l-11.3-37.1
					c1.6-25.8,8.1-69.3,8.1-69.3l-35.5,32.2l-17.7-21c14.5-29,9.1-72.6,9.1-72.6l-46.2,35.5l-22.6-23.7c5.4-31.2-8.6-66.7-8.6-66.7
					l-34.4,41.9c-34.4-14-87.1-17.2-153.7-4.3c-35.1,6.8-107.5,31.2-136.5,44.1l-37.6-36.5c0,0-4.3,33.3,3.2,69.9l-32.4,52.1
					l-39-22.9c0,0,0.5,53.6,23.1,78.3l-3.7,26.2l-31.8-17.6c0,0,0,46.2,25.8,75.2l-2.1,63.4c-48.4-9.7-100.3-69.6-106.4-159.1
					c-7.5-110.7,59.1-193.5,59.1-193.5s-38.7,4.3-78.5,38.7l-45.2-32.2c0,0-6.5,26.9,8.6,68.8l-36.5,69.9l-41.9-32.3
					c0,0-10.8,24.7,20.4,82.8l-16.6,65.2c-60.6-60.3-84.9-163.3-53.3-253.3c28-79.6,64.5-135.4,139.7-189.2
					c-4.3-43,21.5-77.4,58-92.5c81.2-33.4,141.9-6.5,184.9,28c2.2-38.7-12.9-122.6,113.9-137.6C2350.9,18.1,2376.9,64.5,2379,90.3z"
					/>
				<path id="path2662_00000048477093768714684840000000044502678779236256_" class="st45" d="M3092.2,1728.5H1798.2
					c244-106.5,504.9-162.9,757.5-171.3h185.8C2860.4,1567.7,3002.3,1657.4,3092.2,1728.5z"/>
				<path id="path2664_00000008139853906810429490000013632671239482037136_" class="st46" d="M2249.5,438.1
					c25.8,11.3,53.2,80.6,33.9,132.2c-11.4,30.4-35.6,62.2-85.5,51.6c-53.2-11.3-78.6-62.3-66.1-104.8
					C2147.9,462.2,2209.3,420.5,2249.5,438.1z"/>
				<path d="M2266.1,31c91.8,0,111.1,37.2,112.9,59.3c5.6-0.4,11.5-0.7,17.6-0.7c56.5,0,128.5,20.4,147.9,103.9
					c62.3,30.1,113.4,55.5,153.2,109.1c49.4,66.7,31.7,146.7,20.8,183.5l-51.4-67.4c4.8-29-10.8-59.9-10.8-59.9
					s-19.8,24.5-29.3,35.8c-22-16.3-66.2-43.6-67.9-43.6c0,0,0,0,0,0c24.2,117.7,43.5,201.6-8.1,272.5l-11.3-37.1
					c1.6-25.8,8.1-69.3,8.1-69.3l-35.5,32.2l-17.7-21c14.5-29,9.1-72.6,9.1-72.6l-46.2,35.5l-22.6-23.6c5.4-31.2-8.6-66.6-8.6-66.6
					l-34.4,41.9c-19.6-8-45-12.4-75.6-12.4c-3.2,0-6.4,0-9.7,0.1c0.6,0.6,1,1,1.6,1.6c191.2,161.2,268,332.6,311.6,447.1
					c77.1,202.4,111,598.2,117.2,677.9h4.4c119,10.4,260.9,100.2,350.8,171.3H1798.2c241.4-105.4,499.4-161.6,749.5-170.9
					c4.6-75.1,24.5-437.2-13.8-609.4c-33.4-150-170.9-367.5-255.9-473.9c11.7,27.4,17.1,64.9,5.5,96c-9.9,26.3-29.3,53.7-66.7,53.7
					c-5.8,0-12-0.7-18.7-2.1c-53.2-11.3-78.6-62.3-66.1-104.8c7-24,22.8-45.5,41.6-60.6c-28.1,9-56.1,19.2-71.7,26.2l-37.6-36.5
					c0,0-4.3,33.3,3.2,69.9l-32.4,52.1l-39-22.9c0,0,0.5,53.6,23.1,78.3l-3.7,26.2l-31.8-17.6c0,0,0,46.2,25.8,75.2l-2.2,63.4
					c-48.4-9.7-100.3-69.6-106.4-159.1c-7.5-110.7,59.1-193.5,59.1-193.5s-38.7,4.3-78.5,38.7l-45.1-32.2c0,0-6.4,26.9,8.6,68.8
					l-36.5,69.9l-41.9-32.3c0,0-10.7,24.7,20.4,82.8l-16.6,65.2c-60.6-60.3-84.9-163.3-53.3-253.3c27.9-79.6,64.5-135.4,139.7-189.2
					c-4.3-43,21.5-77.4,58-92.5c26.2-10.8,50.2-15.3,72.2-15.3c46.3,0,83.5,19.9,112.7,43.2c2.1-38.7-12.9-122.6,113.9-137.6
					C2233.3,32.1,2250.7,31,2266.1,31 M2266.1,0L2266.1,0c-17.2,0-36.1,1.2-56.3,3.6c-59.1,7-100.2,29.2-122.1,65.9
					c-9.4,15.8-14.1,32.5-16.5,48c-27.3-13.1-55.5-19.7-84.4-19.7c-27.4,0-55.6,5.9-84,17.6c-46.2,19-75.2,59.3-77.6,105.7
					c-33.3,25.4-60,52.4-81.5,82.2c-22.4,31.2-40.3,66.8-56.2,112.1c-17.2,49.1-20.4,102.5-9,154.7c11,50.7,35.8,97.2,69.7,130.9
					c5.9,5.9,13.8,9,21.9,9c2.8,0,5.5-0.4,8.2-1.1c10.7-3,19-11.4,21.8-22.2l16.6-65.2c1.9-7.5,0.9-15.5-2.7-22.3
					c-0.9-1.7-1.8-3.4-2.6-5c1.2-0.1,2.3-0.3,3.5-0.6c8.9-2,16.6-7.8,20.8-15.9l36.5-69.9c3.3-6.3,4.3-13.6,2.9-20.5
					c2,0.4,4.1,0.6,6.2,0.6c2.4,0,4.7-0.3,7-0.8c-12.6,34.9-21.9,78.3-18.6,126.7c3.2,47.6,18.2,91,43.2,125.6
					c24.1,33.3,55.4,55.3,88.1,61.8c2,0.4,4.1,0.6,6.1,0.6c6.9,0,13.7-2.3,19.2-6.7c7.1-5.7,11.4-14.2,11.7-23.3l2.2-63.4
					c0.3-8-2.5-15.7-7.8-21.7c-2.2-2.5-4.2-5.3-5.9-8.2c0.8-0.3,1.7-0.7,2.5-1.1c9.1-4.6,15.4-13.3,16.9-23.4l3.7-26.2
					c1.3-9.2-1.6-18.4-7.8-25.3c-1-1.1-1.9-2.3-2.8-3.8c8.9-1.2,17.1-6.2,22.2-14.3l32.4-52.1c3.5-5.7,5.1-12.3,4.6-18.9
					c0.8,0.1,1.6,0.2,2.4,0.2c-6.7,28.1-2,58.4,13.2,83.9c16.8,28.2,44.4,47.6,77.6,54.7c8.6,1.8,17.1,2.7,25.1,2.7
					c24.8,0,47.3-8.8,65-25.4c13-12.2,23.4-28.5,30.8-48.4c0.6-1.7,1.3-3.5,1.8-5.2c77.4,112.8,164.6,267.7,189.4,378.9
					c33.9,152.4,20.8,462.7,14.7,573c-118.8,6-238.2,22.5-355.5,48.9c-129.8,29.3-256.7,70.8-377.1,123.3
					c-13.5,5.9-20.9,20.4-17.9,34.8c3,14.4,15.7,24.7,30.4,24.7h1294.1c13.2,0,25-8.4,29.3-20.8c4.3-12.5,0.3-26.3-10.1-34.5
					c-59.2-46.8-207.1-153.7-345.6-175.2c-4.7-55.4-14.3-156.5-30.1-269c-24.2-172-53.4-303.8-86.9-391.7
					c-24.4-63.9-56.4-137.4-105.2-214.7c0.7,0.2,1.5,0.3,2.3,0.5c1.7,0.3,3.4,0.4,5.1,0.4c9.8,0,19.2-4.7,25.1-12.8
					c47.5-65.3,43.6-138.2,27.6-225.7c1.7,1.2,3.3,2.4,4.9,3.5c5.5,4.1,12,6.1,18.4,6.1c3.3,0,6.5-0.5,9.6-1.5
					c0.8,4.8,2.8,9.5,5.9,13.5l51.4,67.4c5.9,7.8,15.1,12.2,24.7,12.2c1.9,0,3.7-0.2,5.6-0.5c11.5-2.1,20.8-10.5,24.1-21.7
					c24.4-82.4,15.6-155.3-25.6-210.8c-42.1-56.7-95.3-84.9-152-112.4c-12.4-38.7-36.7-69.1-70.9-88.4
					c-33.9-19.1-71.2-24.1-98.1-24.6c-6.1-12-15.3-22.7-27.1-31.4C2349.8,9.2,2313.3,0,2266.1,0L2266.1,0L2266.1,0z M2398.8,473.1
					c1.8-0.4,3.7-1,5.4-1.7c0.4,3.6,1.5,7.2,3.2,10.4C2404.5,478.9,2401.7,476,2398.8,473.1L2398.8,473.1z M2514.5,610.1
					c-21.7-30.7-46.1-61.7-74-92.8c5.1,3.3,11,5.1,17,5.1c2.3,0,4.6-0.3,6.8-0.8c-2.1,9.4,0.2,19.3,6.6,26.9l17.7,21
					c5.2,6.1,12.5,10,20.4,10.8c-0.1,1.5-0.2,2.9-0.3,4.3c-0.2,3.7,0.2,7.4,1.3,11L2514.5,610.1L2514.5,610.1z"/>
				<g>
					<g>
						<defs>
							<path id="SVGID_00000171686331630139906500000010878591627537951899_" d="M1281.2,1202.5c401.5-62.9,585.3-82.2,1340-125.8
								c754.2-43.5,1088.4,53.2,1136.8,62.9c48.4,9.7,67.7,35.5,30.5,43.3c-133.6,27.9-799.6,72.8-1336.6,193.8
								c-196.3,44.2-735.3,154.8-1098.1,246.7c-419.7,106.3-890.1,295.1-962.7,324.1c-72.6,29-135.4,62.9-157.5,26.8
								c-49.4-80.7-185.9-239.7-170.3-442.3c2.7-34.5,234.7-96.2,332.7-126.3C647.5,1328.3,879.7,1265.4,1281.2,1202.5"/>
						</defs>
						<clipPath id="SVGID_00000176020610690375470000000004638514236119978903_">
							<use xlink:href="#SVGID_00000171686331630139906500000010878591627537951899_"  style="overflow:visible;"/>
						</clipPath>
						
							<linearGradient id="path2694_00000132080496751221921570000002672216380528271541_" gradientUnits="userSpaceOnUse" x1="6065.9058" y1="4761.4014" x2="6071.5669" y2="4761.4014" gradientTransform="matrix(661.2057 0 0 -176.4121 -4010748.5 841492.625)">
							<stop  offset="0" style="stop-color:#002F9E"/>
							<stop  offset="0.4013" style="stop-color:#2B89A2"/>
							<stop  offset="1" style="stop-color:#FFFFFF"/>
						</linearGradient>
						
							<path id="path2694_00000018194732928265035110000005088296489885244838_" style="clip-path:url(#SVGID_00000176020610690375470000000004638514236119978903_);fill:url(#path2694_00000132080496751221921570000002672216380528271541_);" d="
							M47.7,2012.4v-977.1h3778.1v977.1H47.7z"/>
					</g>
					<path d="M2992,1065.5c495.5,0,726.4,66.2,766,74.1c48.4,9.7,67.7,35.5,30.5,43.3c-133.6,27.9-799.6,72.8-1336.6,193.8
						c-196.3,44.2-735.3,154.8-1098.1,246.7c-419.7,106.3-890.1,295.1-962.7,324.1c-50.1,20.1-95.7,42.4-126.3,42.4
						c-13.7,0-24.4-4.5-31.2-15.6c-49.4-80.7-185.9-239.7-170.3-442.3c2.6-34.5,234.7-96.2,332.7-126.3
						c251.6-77.4,483.8-140.3,885.3-203.2c401.5-62.9,585.3-82.2,1340-125.8C2758.5,1068.8,2881.7,1065.5,2992,1065.5 M2992,1034.5
						c-117.9,0-243.3,3.8-372.6,11.2c-404.1,23.3-621.9,38.4-803.6,55.7c-193.2,18.4-338.7,38.9-539.4,70.4
						c-385,60.3-617.7,120.5-889.6,204.2c-15.9,4.9-36,10.8-57.3,17.1c-55.4,16.3-124.3,36.6-179.9,56.5
						c-31.4,11.3-55.1,21.2-72.5,30.3c-21.2,11.1-43.1,25.7-44.9,49.7c-3.3,42.8-0.4,86.8,8.7,130.6c7.8,37.4,20.3,76,37.2,114.5
						c30.7,69.9,71.2,129.6,100.8,173.2c11.1,16.4,20.7,30.5,28.1,42.6c8.5,13.9,25.4,30.4,57.7,30.4c30.5,0,66.2-14.9,107.7-32.2
						c9.8-4.1,19.9-8.3,30.1-12.4l2.1-0.8c163.2-65.3,583.1-227.4,956.6-322c262.4-66.5,612.3-141.7,867.8-196.6
						c94.1-20.2,175.4-37.7,229.6-49.9c365.6-82.3,788.2-128.9,1067.8-159.8c130.4-14.4,224.6-24.8,268.3-33.9
						c41.1-8.6,44.2-36.1,44.2-44.4c-0.1-28-28.1-50.3-74.9-59.6c-3.3-0.7-8.9-2-15.9-3.6c-36.3-8.5-111.8-26.1-236-41.8
						C3358.9,1044.4,3183.8,1034.5,2992,1034.5L2992,1034.5z"/>
				</g>
				<g>
					<defs>
						<path id="SVGID_00000064343655609298449570000011661166543924868506_" d="M2864.3,794.8c14.5,112.9-30.6,172.5-101.6,277.3
							c-38.7,57.2-140.3,158-140.3,158s211.2-90.5,370.9-141.9c140.3-45.1,335.4-82.3,358-83.8c69.3-4.8,62.9,17.7,6.4,41.9
							c-34.2,14.7-267.7,106.4-438.6,175.8c-188.2,76.3-380.5,183.8-416,170.9c-4.6-1.7-9.2-4-13.6-6.9
							c-39.4-25.9-43.7-82.4-12.2-117.6c37.1-41.4,103.9-94.4,201.6-210.9c89.7-107,94.9-231.9-19.3-214.5
							c-74.2,11.3-119.3,96.7-143.5,106.4c-27.3,10.9-55-11.5-51.6-35.5c3.2-22.6,51.6-56.4,69.3-98.4
							c16.5-39,74.2-117.7,190.3-119.3C2809.5,695.2,2856.9,736.8,2864.3,794.8"/>
					</defs>
					<clipPath id="SVGID_00000098932123430783578690000016644396857474666139_">
						<use xlink:href="#SVGID_00000064343655609298449570000011661166543924868506_"  style="overflow:visible;"/>
					</clipPath>
					
						<linearGradient id="path2796_00000031183935050114895290000007795266581507869375_" gradientUnits="userSpaceOnUse" x1="6059.3945" y1="4733.002" x2="6065.0552" y2="4733.002" gradientTransform="matrix(0 125.8848 175.5626 0 -828003.625 -762021.75)">
						<stop  offset="0" style="stop-color:#F7ED18"/>
						<stop  offset="1" style="stop-color:#F4134B"/>
					</linearGradient>
					
						<path id="path2796_00000108306472216812625670000001500607095968716952_" style="clip-path:url(#SVGID_00000098932123430783578690000016644396857474666139_);fill:url(#path2796_00000031183935050114895290000007795266581507869375_);" d="
						M2448.3,1405.9V695.2h972.3v710.7H2448.3z"/>
				</g>
				<g>
					<defs>
						<path id="SVGID_00000041974366486849756030000005878676879605575831_" d="M2177.6,858.9c7.6,15.1,5.6,33.9,14.5,50
							c8.1,14.5-31.1,114.2-43.5,161.2c-14.5,54.8-36,131.7-36,131.7s80.5-107.1,116.6-152.6c43.5-54.8,119.1-131.2,150-125.8
							c64.5,11.3,5.6,149-8.2,213.5c-15.8,40.3-54.3,131.8-30.7,134.6c29.2,3.4,35.5-41.3,54.4-24.4
							c32.9,29.4-74.2,112.9-92.9,100.4c-16.9-11.3-40.3,17.7-62.9-12.9c-19.9-27-14.8-64.8,21.8-150.8c36.5-86,62.6-169,62.6-169
							s-51.5,55.3-111.8,141.9c-68.8,98.9-109.6,157-154.8,167.7c-7.3,1.7-14.6-0.8-21.3-5c-17.3-11-25.4-32-22.2-52.3
							c4.9-31.1,14-85.1,24.1-125.5c15.1-60.2,32.2-124.7,51.6-176.3c-155.5,170.2-298.7,398-369.3,508.6c-3.1,4.9-7.9,8.3-13.5,9.8
							c-11.8,3.1-22.8,5.6-34.5,7.5c-14,2.3-27.1-8.1-27.2-22.3c-0.2-50,23.6-31,42.4-64.9c34.8-62.6,348.3-476.2,434.3-545
							C2151.5,834.7,2168,839.5,2177.6,858.9"/>
					</defs>
					<clipPath id="SVGID_00000113335863269066960690000017612437100825229184_">
						<use xlink:href="#SVGID_00000041974366486849756030000005878676879605575831_"  style="overflow:visible;"/>
					</clipPath>
					
						<linearGradient id="path2824_00000037682929114934483870000010213806087832305593_" gradientUnits="userSpaceOnUse" x1="6059.3916" y1="4723.7983" x2="6065.0522" y2="4723.7983" gradientTransform="matrix(0 125.8851 146.2225 0 -688685 -762024.0625)">
						<stop  offset="0" style="stop-color:#F7ED18"/>
						<stop  offset="1" style="stop-color:#F4134B"/>
					</linearGradient>
					
						<path id="path2824_00000028290565074787062250000007177630634682028175_" style="clip-path:url(#SVGID_00000113335863269066960690000017612437100825229184_);fill:url(#path2824_00000037682929114934483870000010213806087832305593_);" d="
						M1637.4,1494.2V834.7h806.2v659.5H1637.4z"/>
				</g>
				<path d="M2155.6,842.5c9.9,0,16.9,6.2,22,16.4c7.6,15.1,5.6,33.9,14.5,50c8.1,14.5-31.1,114.2-43.5,161.3
					c-14.5,54.8-36,131.7-36,131.7s80.5-107.1,116.6-152.7c42.1-53,114.1-126.1,146.7-126c1.1,0,2.2,0.1,3.3,0.3
					c47,8.2,28.5,83.6,9.6,148.9c-11.7,40.4-24.9,80.3-39.1,119.8c-13.8,38.3-24.7,77.6-9.4,79.4c1.1,0.1,2.1,0.2,3.2,0.2
					c22.1,0,30.4-28.4,43-28.4c2.5,0,5.2,1.1,8.2,3.8c30.6,27.4-60.1,101.6-87.9,101.6c-2.1,0-3.8-0.4-5.1-1.3
					c-3.1-2-6.3-2.8-9.7-2.8c-8.5,0-18,4.4-27.9,4.4c-8.3,0-16.8-3.1-25.3-14.6c-19.9-27-14.8-64.8,21.8-150.8
					c36.5-86,62.6-169,62.6-169s-51.5,55.3-111.8,141.9c-68.8,98.9-109.6,157-154.8,167.7c-1.6,0.4-3.2,0.6-4.8,0.6
					c-5.7,0-11.3-2.3-16.5-5.6c-17.3-11-25.4-32-22.2-52.3c4.9-31.1,14-85.1,24.1-125.5c15.1-60.2,32.2-124.7,51.6-176.3
					c-155.5,170.2-298.7,398-369.3,508.6c-3.1,4.9-7.9,8.3-13.5,9.8c-11.8,3.1-22.8,5.6-34.5,7.5c-1.3,0.2-2.6,0.3-3.9,0.3
					c-12.4,0-23.2-9.7-23.3-22.6c-0.2-50,23.6-31,42.4-64.9c34.8-62.6,348.3-476.2,434.3-545
					C2135.5,847.4,2146.7,842.5,2155.6,842.5 M2155.6,811.5L2155.6,811.5c-16.7,0-34.3,7.6-53.8,23.2
					c-53.3,42.6-174.2,193.7-241.4,280c-94,120.5-182.1,241-200.6,274.2c-3.6,6.5-6.3,8.1-12.3,11.7c-6.7,4.1-16.9,10.3-24.3,22.9
					c-6.8,11.5-9.9,25.9-9.8,45.5c0.1,29.5,24.5,53.4,54.3,53.4c3,0,5.9-0.2,8.9-0.7c11.7-1.9,23.2-4.4,37.3-8.1
					c13.2-3.4,24.5-11.6,31.8-23.1c3-4.7,6.2-9.7,9.5-14.9c57-89.3,152.1-238.4,260.8-376c-3,11.7-6,23.3-8.8,34.5
					c-10.5,42.1-20,98.4-24.7,128.1c-5.2,33.2,9,65.9,36.2,83.2c10.8,6.9,22,10.5,33.2,10.5c4,0,8-0.5,11.9-1.4
					c53.3-12.7,94.8-67.9,158.5-159.3c-28.5,71.4-36.8,119.2-8.5,157.7c16.6,22.5,36.5,27.2,50.2,27.2c8.8,0,16.2-1.8,22.2-3.2
					c1.1-0.3,2.3-0.6,3.5-0.8c5.2,2.4,11,3.6,17,3.6c24.1,0,53.2-20.4,68.5-32.5c15-12,41.8-36.2,52.2-63.4
					c8.7-22.8,4.2-45.2-12.1-59.8c-10.8-9.7-21.7-11.7-28.9-11.7c-4.2,0-8.1,0.6-11.6,1.7c6.4-18.9,34.1-100.1,39.3-117.9
					c8.1-27.6,17.3-58.9,22.1-87.7c6.6-39.3,3.9-66.9-8.5-87c-9.6-15.5-24.6-25.4-43.3-28.6c-2.8-0.5-5.7-0.7-8.6-0.7c0,0,0,0,0,0
					c-14.8,0-40.2,5.3-90.7,51.2c-26.2,23.8-56.2,56.2-80.3,86.5c-5.6,7.1-12.3,15.6-19.5,24.9c3.2-10.3,7-21.6,10.8-33.3
					c26.4-80.1,34-107.7,23-127.7c-2.2-4-3.3-10.1-4.6-17.3c-1.7-9.6-3.7-20.4-9.3-31.5C2190.8,815.8,2167.9,811.5,2155.6,811.5
					L2155.6,811.5z"/>
				<g>
					<g>
						<defs>
							<path id="SVGID_00000139277768459596487640000006532986628240428445_" d="M1611.6,431.1c-28.6,112.2-62.3,286-63.9,422.8
								c-1.2,101.9-6,285.6,0.5,382.3c35.5,5.9,58.6,26.9,59.7,49.5c1.8,38.7-30.6,46.8-53.2,55.6c4.8,108.8,14.5,189.5,57,280.8
								c17.2,30.1,17.5,60.6-17.2,79.5c-47.3,25.8-49.5-15-111.8-6.5c-18.1,2.5-64.5-4.3-96.7-55.9
								c-42.8-68.5-47.3-176.3-75.2-294.6c-146.2,0-206.4,68.8-457.9,43c-40.9,53.7-68.3,95.6-137.6,193.5
								c-98.9,139.7-142.5,207.4-204.3,242.9c-71,40.9-129,32.2-173.1,27.1c-18.4-2.1-41.9-37.9-24.7-61.5
								c118.2-162.5,219.3-273.1,316-402c0,0-217.1,30.1-238.1-43.5c-19-66.9,70.4-76.9,104.8-117.7
								c50.2-59.6,135.4-23.7,245.1-25.8c118.2-146.2,251.5-296.7,376.2-434.3c159.5-176,404.1-472.1,451.5-468.7
								C1628.8,302.1,1625.6,376.3,1611.6,431.1z M1360.1,751.4c-137.6,150.5-270.9,305.3-393.4,462.2
								c113.9-4.3,182.7,21.5,335.4,15C1306.2,1063.6,1325.7,910.5,1360.1,751.4"/>
						</defs>
						<clipPath id="SVGID_00000060752514359448079060000007945453876320801946_">
							<use xlink:href="#SVGID_00000139277768459596487640000006532986628240428445_"  style="overflow:visible;"/>
						</clipPath>
						
							<linearGradient id="path2852_00000023961174981780079890000013556509547256599217_" gradientUnits="userSpaceOnUse" x1="6059.2979" y1="4731.7749" x2="6064.959" y2="4731.7749" gradientTransform="matrix(0 125.8848 239.3265 0 -1131476.75 -762021.75)">
							<stop  offset="0" style="stop-color:#F7ED18"/>
							<stop  offset="1" style="stop-color:#F4134B"/>
						</linearGradient>
						
							<path id="path2852_00000164499531000588820390000002311018666358254209_" style="clip-path:url(#SVGID_00000060752514359448079060000007945453876320801946_);fill:url(#path2852_00000023961174981780079890000013556509547256599217_);" d="
							M295.8,1865.1V294.4h1333.3v1570.7H295.8z"/>
					</g>
					<path d="M1567.8,297.8c0.3,0,0.6,0,0.8,0c60.2,4.3,57,78.5,43,133.3c-28.6,112.2-62.3,286-63.9,422.8
						c-1.2,101.9-6,285.6,0.5,382.3c35.5,5.9,58.6,26.9,59.7,49.5c1.8,38.7-30.6,46.8-53.2,55.6c4.8,108.8,14.5,189.5,57,280.8
						c17.2,30.1,17.5,60.6-17.2,79.5c-11.7,6.4-20.6,8.7-28.3,8.7c-20.6,0-33-16.3-66.8-16.3c-5.1,0-10.6,0.4-16.7,1.2
						c-2,0.3-4.4,0.4-7,0.4c-21.2,0-61.1-10.5-89.8-56.3c-42.8-68.5-47.3-176.3-75.2-294.5c-123.1,0-185.2,48.8-352,48.8
						c-31.3,0-66.2-1.7-105.9-5.8c-40.8,53.7-68.3,95.6-137.6,193.5c-98.9,139.7-142.5,207.4-204.3,243
						c-43.7,25.2-82.6,31.6-116.3,31.6c-21,0-39.9-2.5-56.9-4.4c-18.4-2.1-41.9-37.9-24.7-61.5c118.2-162.5,219.3-273.1,316-402
						c0,0-43.9,6.1-94.2,6.1c-61.5,0-132.4-9.1-143.9-49.6c-19-66.9,70.4-76.9,104.8-117.7c23.1-27.4,53.5-34.6,90.4-34.6
						c40.9,0,89.7,8.9,145,8.9c3.2,0,6.5,0,9.7-0.1c118.3-146.2,251.6-296.7,376.3-434.3C1275.7,591.5,1518.5,297.8,1567.8,297.8
						 M966.6,1213.7c8.9-0.3,17.4-0.5,25.8-0.5c87.3,0,151.5,16.6,261.2,16.6c15.2,0,31.3-0.3,48.4-1
						c4.2-165.1,23.7-318.2,58.1-477.3C1222.5,901.9,1089.2,1056.7,966.6,1213.7 M1567.8,266.8c-24.2,0-56.2,18.8-147.8,114.8
						c-60.1,63-132.5,145.4-202.6,225.1c-44.1,50.2-85.8,97.6-123.3,139c-97.6,107.7-240.8,267.6-368.1,424.2
						c-26.4-0.3-51.2-2.6-75.3-4.8c-22.7-2.1-44.2-4.1-64.6-4.1c-35.2,0-80.1,5.2-114.1,45.6c-8.2,9.8-24.4,18.9-40,27.8
						c-19.2,10.9-39.1,22.1-53.8,38.8c-19.7,22.2-25.6,49.8-17.1,79.6c8.4,29.5,33.6,50.1,74.9,61.4c26,7.1,59.3,10.7,98.9,10.7
						c9.3,0,18.3-0.2,27-0.5c-28,35.7-56.6,70.8-86.3,107.2c-59.1,72.5-120.2,147.4-187.6,240c-13.8,19-15.8,43.6-5.4,67.3
						c10.5,23.9,30.7,40.8,51.5,43.3l4.7,0.5c16.4,1.9,34.9,4.1,55.8,4.1c46.9,0,90-11.7,131.7-35.7
						c61.5-35.4,103.2-94.6,186.2-212.4c8.8-12.5,18.1-25.6,27.9-39.5c24-34,42.8-60.8,59.3-84.5c26.7-38.3,45.6-65.4,67.3-94.4
						c32.1,2.8,62.9,4.3,91.6,4.3c93.3,0,156-14.9,211.2-28c39.5-9.4,74.4-17.7,116.1-20.1c6.1,28.7,11.1,56.8,16,84.1
						c13.7,77.1,25.5,143.7,57.7,195.2c15.7,25.2,35.8,44.2,59.8,56.5c24.3,12.5,45.7,14.4,56.3,14.4c4,0,7.7-0.2,11.3-0.7
						c4.4-0.6,8.6-0.9,12.5-0.9c12.7,0,20.3,3.2,29.8,7.2c9.6,4.1,21.6,9.1,36.9,9.1c13.7,0,27.8-4.1,43.2-12.4
						c27.4-14.9,37.9-35,41.9-49.2c6.2-21.9,2.1-46.6-12-71.7c-36.1-78.1-47.2-148.6-52.5-245.9c9-3.9,18.4-8.9,26.9-16.3
						c17.7-15.3,26.4-36.6,25.2-61.6c-0.9-19.8-10.8-38.7-27.8-53.1c-9.4-8-20.6-14.4-33.1-19c-3.5-79-1.6-200.3-0.2-291
						c0.4-24.2,0.7-47.1,1-66.8c1.5-130.1,33.5-299.9,62.9-415.5c4.3-17,9.5-42.7,9.4-68.9c-0.1-29.1-6.5-52.7-19.2-70.3
						c-14.1-19.5-35.2-30.8-61.1-32.6C1569.8,266.8,1568.8,266.8,1567.8,266.8L1567.8,266.8z M1030.2,1183.1
						c84.2-105.7,176-214,277.9-328.1c-20.3,115.6-32,227.4-36.2,343.5c-6.2,0.1-12.3,0.2-18.3,0.2c-56.4,0-100.4-4.5-142.8-8.8
						C1083.8,1187.2,1057.8,1184.5,1030.2,1183.1L1030.2,1183.1z"/>
				</g>
				<path d="M2727.5,696.4c83.2,0,129.4,41.2,136.8,98.4c14.5,112.9-30.6,172.5-101.6,277.3c-38.7,57.2-140.3,158-140.3,158
					s211.2-90.5,370.9-141.9c140.3-45.1,335.4-82.3,358-83.8c6.4-0.4,12.2-0.7,17.3-0.7c50.4,0,40.4,20.6-10.8,42.6
					c-34.2,14.7-267.7,106.4-438.6,175.8c-177.7,72.1-359.2,172-408.7,172c-2.9,0-5.4-0.3-7.3-1.1c-4.6-1.7-9.2-4-13.6-6.9
					c-39.4-25.9-43.7-82.4-12.2-117.6c37.1-41.4,103.9-94.4,201.6-210.9c84-100.2,93.9-216.1,1-216.1c-6.3,0-13.1,0.5-20.3,1.6
					c-74.2,11.3-119.3,96.7-143.5,106.4c-4.9,2-9.8,2.8-14.5,2.8c-21.7,0-39.9-18.6-37.1-38.3c3.2-22.6,51.6-56.4,69.3-98.4
					c16.5-39,74.2-117.7,190.3-119.3C2725.2,696.4,2726.4,696.4,2727.5,696.4 M2727.6,665.4L2727.6,665.4c-1.3,0-2.6,0-4,0
					c-57.1,0.8-109.5,18.9-151.4,52.4c-41.8,33.4-60.8,71.1-67,85.8c-7.2,17-22.7,34.4-36.4,49.7c-17.3,19.4-32.3,36.2-35.1,56.3
					c-2.5,17.6,3,35.7,15.2,49.7c13.2,15.3,32.4,24,52.6,24c8.9,0,17.7-1.7,26.1-5.1c14.7-5.9,26.4-18.9,42.6-37
					c23.3-26,55.3-61.7,94-67.6c5.6-0.9,10.8-1.3,15.6-1.3c24.3,0,29.2,10.6,31.1,14.6c6.1,13,5,34.7-3,59.4
					c-9.5,29.4-28.2,61.8-52.8,91.1c-63.9,76.2-114.8,125.2-152,161c-19.2,18.5-35.8,34.4-49,49.2c-21.9,24.5-32.1,57.2-27.8,89.8
					c4,30.7,20.8,57.8,46.1,74.4c6.4,4.2,13.2,7.6,20,10.1c5.4,2,11.3,2.9,17.9,2.9c34.8,0,97.2-28.3,213.8-82.5
					c63.5-29.5,135.6-63,206.5-91.8c89.9-36.5,197.2-79.2,283.5-113.5c77.7-30.9,139.1-55.4,155.7-62.5c16.9-7.3,30.5-14.7,40.2-22
					c22.3-16.9,24.2-34.2,21.8-45.7c-1.4-6.8-7.1-23.4-30.3-30.4c-8.7-2.6-19.5-3.9-33-3.9c-5.9,0-12.5,0.2-19.4,0.7
					c-24.8,1.7-222.8,39.4-365.3,85.3c-77.9,25.1-168.6,59.6-241,88.5c17.7-20.4,34.2-40.7,45.6-57.7c3.4-5,6.8-10,10.1-14.8
					c33.9-49.9,60.7-89.3,78.4-132.6c19.6-47.8,25.4-95.8,18.2-151.3c-4.8-37.5-22.8-69.1-51.9-91.3
					C2813.5,676.8,2774.6,665.4,2727.6,665.4L2727.6,665.4z"/>
			</g>
		</g>
		<rect x="2392" y="459.6" width="21.9" height="32.5"/>
	</g>
</g>
</svg>
