<?xml version="1.0" encoding="utf-8"?>
<!-- Generator: Adobe Illustrator 25.4.1, SVG Export Plug-In . SVG Version: 6.00 Build 0)  -->
<svg version="1.1" id="Layer_1" xmlns="http://www.w3.org/2000/svg" xmlns:xlink="http://www.w3.org/1999/xlink" x="0px" y="0px"
	 viewBox="0 0 3839 1431.5" style="enable-background:new 0 0 3839 1431.5;" xml:space="preserve">
<style type="text/css">
	.st0{fill:#FFFFFF;}
	.st1{fill:#034693;}
	.st2{fill:url(#SVGID_00000150785803667936349690000017837971319543165879_);}
	.st3{fill:url(#SVGID_00000030446913623435968910000014648854512616354688_);}
	.st4{fill:url(#SVGID_00000098941681400289026570000000248780385009432996_);}
	.st5{fill:url(#SVGID_00000135667177143846621040000016828290132053974444_);}
	.st6{fill:url(#SVGID_00000152265475755568216130000007407253888441796009_);}
	.st7{fill:url(#SVGID_00000144334469568894095760000004327912750207075759_);}
	.st8{fill:url(#SVGID_00000093866677863994972540000004902170537413554590_);}
	.st9{fill:url(#SVGID_00000130635445596613815340000006772068855741229471_);}
	.st10{fill:url(#SVGID_00000063614310161188419360000013956571870059454108_);}
	.st11{fill:url(#SVGID_00000015351251073537908360000015753795412165823109_);}
	.st12{fill:url(#SVGID_00000056416531247764662890000010649856795134298557_);}
	.st13{clip-path:url(#SVGID_00000152961438953982824410000007799583207894029202_);}
	.st14{fill:url(#SVGID_00000127003326076791715800000017612481795200481170_);}
	.st15{fill:url(#SVGID_00000170991991682501418750000006547715287443551872_);}
	.st16{fill:url(#SVGID_00000049208087864990059360000016933967703412791428_);}
	.st17{fill:url(#SVGID_00000058567302395355250600000012701839485553890963_);}
	.st18{fill:url(#SVGID_00000071529989046752014410000000818369490793015208_);}
	.st19{fill:url(#SVGID_00000124876250960031589930000004505742376076872577_);}
	.st20{fill:url(#SVGID_00000183231146930014511250000013923032796001408911_);}
	.st21{fill:none;}
	.st22{clip-path:url(#SVGID_00000165230418964264948260000008559885348045804447_);}
	.st23{fill:url(#SVGID_00000123415480566781557230000001634971556182772392_);}
	.st24{fill:url(#SVGID_00000093891681906729897570000004698106372629355154_);}
	.st25{fill:url(#SVGID_00000044150503146547204330000002490039214005937835_);}
	.st26{fill:url(#SVGID_00000080202476289937626160000004867027365811961774_);}
	.st27{fill:url(#SVGID_00000089540318896127069090000017183182449308547987_);}
	.st28{fill:url(#SVGID_00000173853566896292194880000008389726504512364171_);}
	.st29{fill:url(#SVGID_00000018926249714779824760000010212193271319824015_);}
	.st30{fill:url(#SVGID_00000098202241824955161880000001966021460537445778_);}
	.st31{fill:url(#SVGID_00000040562993609475886720000016512926682353977740_);}
	.st32{fill:url(#SVGID_00000142148206307803348620000000603720376588612510_);}
	.st33{fill:url(#SVGID_00000146467962137427755780000006714152707075683745_);}
	.st34{fill:url(#SVGID_00000022556701671021553060000005011590569647068072_);}
	.st35{clip-path:url(#SVGID_00000030477322166497156000000011360881544960741813_);}
	.st36{fill:url(#SVGID_00000122001382436986779750000005253350826251342496_);}
	.st37{fill:url(#SVGID_00000159470019557008408780000005737581643867459515_);}
	.st38{fill:url(#SVGID_00000014631227197230315090000013926557277393838257_);}
	.st39{fill:url(#SVGID_00000139293088923674951720000018409147035085632937_);}
	.st40{fill:url(#SVGID_00000096766485482769810330000003205347511839618951_);}
	.st41{fill:url(#SVGID_00000127008549272019214630000007966824240169349769_);}
	.st42{fill:url(#SVGID_00000051374302780549927850000011317798366269140667_);}
	.st43{clip-path:url(#SVGID_00000113350700661666940610000012385882696274311579_);}
	.st44{fill:url(#SVGID_00000072240183423374333330000000633444225225898425_);}
	.st45{fill:url(#SVGID_00000007390591700859994980000014656980302049020803_);}
	.st46{fill:url(#SVGID_00000113326966678329251170000009832855470679072423_);}
	.st47{fill:url(#SVGID_00000171706489167947891050000002229039662582629267_);}
	.st48{fill:url(#SVGID_00000064313402671182418820000005757748750021639574_);}
	.st49{fill:url(#SVGID_00000085930272021935431300000002959509782942810003_);}
	.st50{fill:url(#SVGID_00000022548184858489556160000009184896152692637372_);}
	.st51{fill:url(#SVGID_00000015341858144266252200000011710084879307911308_);}
	.st52{fill:url(#SVGID_00000039855847557733226540000012047427113823838389_);}
	.st53{fill:url(#SVGID_00000109017642420047210210000008393015433866524304_);}
	.st54{fill:url(#SVGID_00000013191617286489077290000003858570114512867515_);}
	.st55{fill:url(#SVGID_00000148632879690022567380000002857501987812520611_);}
	.st56{clip-path:url(#SVGID_00000091715014033270461620000007452992994856390558_);}
	.st57{fill:url(#SVGID_00000027605415642668623500000011192365733634203800_);}
	.st58{fill:url(#SVGID_00000149364116365602695850000006694026280139012740_);}
	.st59{fill:url(#SVGID_00000058566374460832638150000013744961060344797829_);}
	.st60{fill:url(#SVGID_00000150804676414646322450000005184119183817469845_);}
	.st61{fill:url(#SVGID_00000161609726688678355920000004107421423611361413_);}
	.st62{fill:url(#SVGID_00000045597039448609474810000000933356584993345439_);}
	.st63{fill:url(#SVGID_00000134221320778701280930000007672063299183950775_);}
	.st64{clip-path:url(#SVGID_00000102509389857343676150000004056193000568691593_);}
	.st65{fill:url(#SVGID_00000156552740003352220510000016311921970527192718_);}
	.st66{fill:url(#SVGID_00000107556899183507044700000008710086536638581385_);}
	.st67{fill:url(#SVGID_00000149376149813806803700000000469818543065364873_);}
	.st68{fill:url(#SVGID_00000008137826771859057600000013910118363494765208_);}
	.st69{fill:url(#SVGID_00000094583244156050207740000008675117294567760808_);}
	.st70{fill:url(#SVGID_00000128452681032895471020000002320479490748728729_);}
	.st71{fill:url(#SVGID_00000137097192165572380620000005165992265989549455_);}
	.st72{fill:url(#SVGID_00000029018091983490133640000010980329896979621269_);}
	.st73{fill:url(#SVGID_00000059296179802276773870000004153204251213358209_);}
	.st74{fill:url(#SVGID_00000004512789573514437130000014438937878383545738_);}
	.st75{fill:url(#SVGID_00000151528580856112642510000016779323747447320753_);}
	.st76{fill:url(#SVGID_00000114042028442499413910000016570833426410544513_);}
	.st77{fill:url(#SVGID_00000055679823334306898590000016869566629585190588_);}
	.st78{fill:url(#SVGID_00000104667024035042825140000017603589149344036242_);}
	.st79{fill:url(#SVGID_00000047053073137563603790000012147928381912061335_);}
	.st80{fill:url(#SVGID_00000145742002266930623370000015297319629105731205_);}
	.st81{fill:url(#SVGID_00000047053359553865106560000016184692830889782405_);}
	.st82{fill:url(#SVGID_00000001635652554294386740000003592917553130387851_);}
	.st83{fill:url(#SVGID_00000100384013061036331460000014137560201742799004_);}
	.st84{fill:url(#SVGID_00000032645947209170400430000015767560010416067504_);}
	.st85{fill:url(#SVGID_00000149377212074678170510000002414851647598291118_);}
	.st86{fill:url(#SVGID_00000130649109718249659070000006046053597233446061_);}
	.st87{fill:url(#SVGID_00000131335343307101163260000002118164510507233459_);}
	.st88{fill:url(#SVGID_00000083088862505860574650000009520952964214836156_);}
	.st89{fill:url(#SVGID_00000008829221046749465900000014757228776962996670_);}
	.st90{fill:url(#SVGID_00000002378042666671816090000012261300588171391106_);}
	.st91{fill:url(#SVGID_00000081633857483614878490000014316998987138433709_);}
	.st92{clip-path:url(#SVGID_00000092444416855523558460000001952665761006161039_);}
	.st93{fill:url(#SVGID_00000118385802497822879270000009300532292182963636_);}
	.st94{fill:url(#SVGID_00000005258544379685025780000001362511164421201556_);}
	.st95{fill:url(#SVGID_00000019665144300109835330000008776478930873147269_);}
	.st96{fill:url(#SVGID_00000134227376468933642400000013999076678352940222_);}
	.st97{fill:url(#SVGID_00000093863126193133812350000013761473246717396668_);}
	.st98{fill:url(#SVGID_00000163032369361604452790000001499791556926356643_);}
	.st99{fill:url(#SVGID_00000101077468521439406510000015358610875372198069_);}
	.st100{clip-path:url(#SVGID_00000109009858135271757290000012950520940926438549_);}
	.st101{fill:url(#SVGID_00000115496810065190479090000014410390640840347801_);}
	.st102{fill:url(#SVGID_00000066516626516567823910000015033412258899072172_);}
	.st103{fill:url(#SVGID_00000098909023269028563190000002152391365510295743_);}
	.st104{fill:url(#SVGID_00000116942582490824265470000011112083449014134929_);}
	.st105{fill:url(#SVGID_00000159440567377088604840000000938964753058843786_);}
	.st106{fill:url(#SVGID_00000177454054640016366760000005383789509575617469_);}
	.st107{fill:url(#SVGID_00000026126009280093448920000012400592203962501772_);}
	.st108{fill:url(#SVGID_00000183962633695685645110000008015135019708543363_);}
	.st109{fill:url(#SVGID_00000013169471366344731370000011052365430853473701_);}
	.st110{fill:url(#SVGID_00000001654352905296078860000017903530298089961347_);}
	.st111{fill:url(#SVGID_00000057135541619509382370000004846238061912013449_);}
	.st112{fill:url(#SVGID_00000085970878725249226630000013289505410891776924_);}
	.st113{fill:url(#SVGID_00000129886209354218990280000002584000075599138689_);}
	.st114{fill:url(#SVGID_00000018954306076800008290000005859769854545674150_);}
	.st115{fill:url(#SVGID_00000077318455566610494670000015613072488018487965_);}
	.st116{clip-path:url(#SVGID_00000089575183666078471790000010197390833850487207_);}
	.st117{fill:url(#SVGID_00000124874111235895382110000013528789741035304577_);}
	.st118{fill:url(#SVGID_00000085241345871493441770000013100967359797678750_);}
	.st119{fill:url(#SVGID_00000106832291874862373400000007576383676016830099_);}
	.st120{fill:url(#SVGID_00000069362550171133207800000005488828708295380100_);}
	.st121{fill:url(#SVGID_00000072973571145258721630000001599333937673466269_);}
	.st122{fill:url(#SVGID_00000039101482867692672580000011185037077498066092_);}
	.st123{fill:url(#SVGID_00000110450038344009342350000011590898994837688732_);}
	.st124{clip-path:url(#SVGID_00000142158140769702875060000016790952235016754336_);}
	.st125{fill:url(#SVGID_00000049223142800655685390000009836401942105376395_);}
	.st126{fill:url(#SVGID_00000180340003770889822140000013338823396828197537_);}
	.st127{fill:url(#SVGID_00000109741249836788908000000011971062431508825502_);}
	.st128{fill:url(#SVGID_00000066498958207264125960000010186882453223951533_);}
	.st129{fill:url(#SVGID_00000026158657082936696870000005862081883102315934_);}
	.st130{fill:url(#SVGID_00000004529792752782132280000004725872046252512685_);}
	.st131{fill:url(#SVGID_00000005946897759049042490000012418172741339296652_);}
	.st132{clip-path:url(#SVGID_00000001651431965056419850000011175434121219039910_);}
	.st133{fill:url(#SVGID_00000160189786072460139350000016038337787704397969_);}
	.st134{fill:url(#SVGID_00000093137306039950736290000008391520604945127849_);}
	.st135{fill:url(#SVGID_00000136378389510175659700000007879665753134176936_);}
	.st136{fill:url(#SVGID_00000172437637213120644600000012157262372953486761_);}
	.st137{fill:url(#SVGID_00000054950867739832729800000005954231450702123433_);}
	.st138{fill:url(#SVGID_00000032621055684643141900000016807609963290845829_);}
	.st139{fill:url(#SVGID_00000047756030231958711850000018362603061047672250_);}
	.st140{clip-path:url(#SVGID_00000050647494712119494190000004460946375535904417_);}
	.st141{fill:url(#SVGID_00000105403177791309219890000013614573546962940295_);}
	.st142{fill:url(#SVGID_00000124149222674396208390000000890488046590299065_);}
	.st143{fill:url(#SVGID_00000174565983762775676940000011934914092453191351_);}
	.st144{fill:url(#SVGID_00000061457391782773950100000003203939743385713310_);}
	.st145{fill:url(#SVGID_00000134231638427786710010000005562180561075811457_);}
	.st146{fill:url(#SVGID_00000090281031399876007820000010048253227047777981_);}
	.st147{fill:url(#SVGID_00000071532978766597999980000018198835850640412829_);}
	.st148{clip-path:url(#SVGID_00000179607573102916800520000008154875130418876836_);}
	.st149{fill:url(#SVGID_00000152252714321018468710000009147127171578115482_);}
	.st150{fill:url(#SVGID_00000029765745983137636420000012033033162569818512_);}
	.st151{fill:url(#SVGID_00000139972400494121903240000012003293291300468106_);}
	.st152{fill:url(#SVGID_00000165945191393211791990000009654521574286328715_);}
	.st153{fill:url(#SVGID_00000182527614918772987230000002629760863873649296_);}
	.st154{fill:url(#SVGID_00000083068679227430808280000015023980669656258749_);}
	.st155{fill:url(#SVGID_00000125569144265257958620000011266620467813177498_);}
	.st156{clip-path:url(#SVGID_00000016767330661461363380000018054088360469049013_);}
	.st157{fill:url(#SVGID_00000133506392189564816620000000659647953592274089_);}
	.st158{fill:url(#SVGID_00000013151398245157748690000017035935638339748518_);}
	.st159{fill:url(#SVGID_00000094598734210822752360000017786715885183218056_);}
	.st160{fill:url(#SVGID_00000150060958879728532390000001770817872495578780_);}
	.st161{fill:url(#SVGID_00000100369072129374930260000012684714971235527840_);}
	.st162{fill:url(#SVGID_00000023974284480117819530000001356221875660332453_);}
	.st163{fill:url(#SVGID_00000156566277224557491310000013389598778503622800_);}
	.st164{fill:url(#SVGID_00000033340768927760822990000007303405993642648724_);}
	.st165{fill:url(#SVGID_00000115488620490222313360000005208381166067457713_);}
	.st166{fill:url(#SVGID_00000002344084170282462700000017436450429790587325_);}
	.st167{fill:url(#SVGID_00000106852267942163435170000003114174552698989192_);}
	.st168{fill:url(#SVGID_00000011026204977022739630000007748851648208610944_);}
	.st169{fill:url(#SVGID_00000103265355753956496360000014314459171059668652_);}
	.st170{fill:url(#SVGID_00000111186569277350827920000014142247059638342588_);}
	.st171{clip-path:url(#SVGID_00000054974300102048343950000000177337591349067436_);}
	.st172{fill:url(#SVGID_00000093161901987339778820000007878444586824688313_);}
	.st173{fill:url(#SVGID_00000169545680829549452620000002401132669511080330_);}
	.st174{fill:url(#SVGID_00000008834107947607725280000018168027277033676733_);}
	.st175{fill:url(#SVGID_00000162327094699888339720000013206447109223431843_);}
	.st176{fill:url(#SVGID_00000110438166650160598310000013473754678210388415_);}
	.st177{fill:url(#SVGID_00000101822059782613008740000002662892139356701089_);}
	.st178{fill:url(#SVGID_00000082369984064700227260000005286434767522405762_);}
	.st179{clip-path:url(#SVGID_00000115504445992335189870000001635065785833386372_);}
	.st180{fill:url(#SVGID_00000010302863131419266740000015089079270747837591_);}
	.st181{fill:url(#SVGID_00000106106697493874152040000004233602478100674453_);}
	.st182{fill:url(#SVGID_00000168085457728734729260000000956175416346290827_);}
	.st183{fill:url(#SVGID_00000003802023470207792250000000694682555519416711_);}
	.st184{fill:url(#SVGID_00000089549586222089368250000014615184801435851906_);}
	.st185{fill:url(#SVGID_00000119099182487378107790000003052342573954504329_);}
	.st186{fill:url(#SVGID_00000023976212596757336780000002277582876229003167_);}
	.st187{fill:url(#SVGID_00000093878897522880740910000015222276097871259325_);}
	.st188{fill:url(#SVGID_00000027589528287372909890000001821532043349615790_);}
	.st189{fill:url(#SVGID_00000141455016760047231640000001501411960332971184_);}
	.st190{fill:url(#SVGID_00000031206627817134705880000009648283503370697880_);}
	.st191{fill:url(#SVGID_00000168833295145486040320000005246516907305059478_);}
	.st192{clip-path:url(#SVGID_00000041981026218743999370000004989732782862856888_);}
	.st193{fill:url(#SVGID_00000035524756223367827460000016702684003752249235_);}
	.st194{fill:url(#SVGID_00000005965381402780077730000008460786544302049155_);}
	.st195{fill:url(#SVGID_00000014635668649542071300000005923140565501045415_);}
	.st196{fill:url(#SVGID_00000109019929792791495800000008882208586426790547_);}
	.st197{fill:url(#SVGID_00000014609994585737521830000014185237767345333406_);}
	.st198{fill:url(#SVGID_00000049904713709418179460000011844411604919893668_);}
	.st199{fill:url(#SVGID_00000129202343617205110240000000923201282909282748_);}
	.st200{clip-path:url(#SVGID_00000043456578847245220770000011412424250956665761_);}
	.st201{fill:url(#SVGID_00000136389333997850017040000006239032072354932138_);}
	.st202{fill:url(#SVGID_00000111180473215291275840000010246116610610515851_);}
	.st203{fill:url(#SVGID_00000136377244843751197940000013074476014943228858_);}
	.st204{fill:url(#SVGID_00000026154063084092765280000006089513609157501618_);}
	.st205{fill:url(#SVGID_00000109748585818634679680000010979334305331976873_);}
	.st206{fill:url(#SVGID_00000075128738179865171650000003695390197750629279_);}
	.st207{fill:url(#SVGID_00000161608329911634351720000000416503978178434451_);}
	.st208{fill:url(#SVGID_00000114773348906512984490000016280489291306573712_);}
	.st209{fill:url(#SVGID_00000011718186265081022120000004164958144803328418_);}
	.st210{fill:url(#SVGID_00000069356839619636317470000014641364513314866598_);}
</style>
<g>
	<g>
		
			<linearGradient id="SVGID_00000138548059905003740500000012495388616716276880_" gradientUnits="userSpaceOnUse" x1="3411.5237" y1="635.2888" x2="3411.5237" y2="1393.0896">
			<stop  offset="0" style="stop-color:#23BFD4"/>
			<stop  offset="0.7031" style="stop-color:#3F4DA0"/>
		</linearGradient>
		<path style="fill:url(#SVGID_00000138548059905003740500000012495388616716276880_);" d="M3800.6,1159.8c0,32.4-5.9,63-17.8,91.5
			c-11.8,28.6-27.7,53.3-47.5,74.2c-19.8,20.9-42.7,37.3-68.7,49.4c-26,12.1-52.9,18.2-80.7,18.2H3206v-102.7h367.5
			c19.6,0,37.1-3.9,52.5-11.6c15.5-7.7,28.5-17.8,39-30.1c10.6-12.4,18.7-26.4,24.3-42.1c5.7-15.7,8.5-31.3,8.5-46.7V868.6
			c0-15.4-2.8-31-8.5-46.7c-5.7-15.7-13.8-29.7-24.3-42.1c-10.6-12.4-23.6-22.4-39-30.1c-15.5-7.7-33-11.6-52.5-11.6h-551.1V635.3
			h563.5c27.8,0,54.7,6.1,80.7,18.2c26,12.1,48.9,28.6,68.7,49.4c19.8,20.9,35.7,45.6,47.5,74.2c11.9,28.6,17.8,59.1,17.8,91.5
			V1159.8z M3351.8,1001.4v-102h224v-10.8c0-6.2-1.7-11.1-5-14.7c-3.3-3.6-6.6-5.4-9.7-5.4h-538.7V765.8h541.1
			c18,0,33.7,3.6,47.1,10.8c13.4,7.2,24.5,16.5,33.2,27.8c8.8,11.3,15.3,24.1,19.7,38.2c4.4,14.2,6.6,27.9,6.6,41.3v117.4H3351.8z
			 M3670.1,1144.4c0,13.4-2.2,27.2-6.6,41.3c-4.4,14.2-10.9,26.9-19.7,38.2c-8.7,11.3-19.8,20.6-33.2,27.8
			c-13.4,7.2-29.1,10.8-47.1,10.8H3206v-102.7h355.2c3.1,0,6.3-1.8,9.7-5.4c3.4-3.6,5-8.5,5-14.7v-10h-224v-102.7h318.3V1144.4z"/>
		<path class="st0" d="M3818.3,762.4c-13.6-32.8-32.2-61.7-55.1-85.9c-23-24.3-50.1-43.7-80.4-57.8c-31-14.4-63.6-21.7-96.9-21.7
			l-1197.7,0c-33.3,0-65.9,7.3-96.9,21.7c-30.3,14.1-57.3,33.5-80.4,57.8c-23,24.2-41.6,53.1-55.1,85.9c-0.7,1.8-1.4,3.6-2.1,5.3
			c-1.3-6.2-2.7-12.2-4.3-17.9c-9.9-35.5-25.9-65.2-47.7-88.3c-22.1-23.4-50.2-40.4-83.5-50.5c-30.6-9.3-66.9-14-108.1-14h-297.4
			c-21.2,0-38.4,17.2-38.4,38.4v84.5c-9.5-22.5-21.9-42.1-37.2-58.4c-22.1-23.4-50.2-40.4-83.5-50.5c-30.6-9.3-66.9-14-108.1-14
			h-98.9c-40.7,0-76.7,4.7-107.1,14.1c-33,10.1-61,27.1-83.2,50.3c-22,23-38.4,52.7-48.6,88.2c-9.4,32.9-14.2,73-14.2,119.1v240.3
			L851,707c-4.7-14.1-11.7-27.8-20.6-40.6c-9.1-13.1-20.2-24.9-33.2-35.2c-13.5-10.7-29.3-19.2-47.1-25.2c-17.6-6-37.2-9-58.3-9
			c-21.9,0-41.6,3.1-58.6,9.2c-17.1,6.1-32.3,14.8-45.3,25.6c-12.1,10.2-22.7,21.8-31.6,34.6c-3.6,5.1-7,10.4-10.3,15.7
			c-3.2-5.3-6.5-10.6-10.1-15.7c-8.9-12.9-19.8-24.7-32.4-34.9c-13.1-10.7-28.3-19.2-45.2-25.3c-17-6.1-36.7-9.2-58.6-9.2
			c-21.7,0-41.5,3-58.9,9.1c-17.4,6-33.1,14.5-46.5,25.2c-13.1,10.5-24.3,22.5-33.1,35.8c-8.3,12.4-15.1,25.5-20.2,38.9
			c-0.1,0.3-239,674.4-239,674.4c-4.2,11.7-2.4,24.8,4.8,35c7.2,10.2,18.9,16.2,31.3,16.2h233.3c16.6,0,31.3-10.6,36.4-26.4
			l94.1-285.8L510,1406.5c5.6,15,19.9,24.9,35.9,24.9c16,0,30.3-9.9,35.9-24.9l108.3-288.7l97.6,287.6c5.3,15.6,19.9,26,36.3,26
			h229.4c12.5,0,24.1-6,31.3-16.2c4.4-6.2,6.7-13.5,7-20.9c14.3,9.1,30,16.5,47.1,22.1c30.5,10,66.7,15,107.7,15h98.9
			c41.5,0,78.1-5,108.8-15c33.2-10.7,61.2-28.1,83.1-51.7c15.2-16.4,27.6-36,37.1-58.5v86.8c0,21.2,17.2,38.4,38.4,38.4h297.4
			c41.5,0,78.1-5,108.8-15c33.2-10.7,61.2-28.1,83.1-51.7c21.7-23.3,37.6-53,47.5-88.5c1.5-5.3,2.8-10.8,4-16.4
			c0.8,2,1.5,4.1,2.4,6.1c13.6,32.8,32.2,61.7,55.1,85.9c23.1,24.3,50.1,43.7,80.4,57.8c31,14.4,63.6,21.7,96.9,21.7H2681
			c21.2,0,38.4-17.2,38.4-38.4v-83.7v-19.1V1274c13.2,29.5,30.5,55.7,51.6,77.9c23.1,24.3,50.1,43.7,80.4,57.8
			c31,14.4,63.6,21.7,96.9,21.7h257.5c0.1,0,0.2,0,0.2,0h379.9c33.3,0,65.9-7.3,96.9-21.7c30.3-14.1,57.3-33.5,80.4-57.8
			c23-24.2,41.6-53.1,55.1-85.9c13.7-33.1,20.7-68.8,20.7-106.2V868.6C3839,831.2,3832,795.4,3818.3,762.4z M2660.7,1121.4
			c0-0.2,0-115.5,0-120v-94.5h7.2h13.2h14.2v214.5H2660.7z M3313.5,1001.4c0,4.5,0,120,0,120h-72.2c-0.1,0-0.2,0-0.2,0h-232.8V904.2
			c4.4,1.7,9.2,2.7,14.2,2.7h291V1001.4z"/>
		
			<linearGradient id="SVGID_00000098206907469020106810000007608687293578447747_" gradientUnits="userSpaceOnUse" x1="545.8885" y1="635.278" x2="545.8885" y2="1393.079">
			<stop  offset="0" style="stop-color:#23BFD4"/>
			<stop  offset="0.7031" style="stop-color:#3F4DA0"/>
		</linearGradient>
		<path style="fill:url(#SVGID_00000098206907469020106810000007608687293578447747_);" d="M545.9,1054L435.4,758.1
			c-2.1-5.1-6.4-9.8-13.1-13.9c-6.7-4.1-14.2-6.2-22.4-6.2c-7.2,0-14.7,2.1-22.4,6.2c-7.7,4.1-12.4,8.8-13.9,13.9l-222.5,635H38.4
			l238.7-673.6c4.1-10.8,9.5-21.2,16.2-31.3c6.7-10,15.1-19,25.1-27c10-8,21.8-14.3,35.1-18.9c13.4-4.6,28.8-7,46.3-7
			c17.5,0,32.7,2.3,45.6,7c12.9,4.6,24.2,10.9,34,18.9c9.8,8,18.2,17,25.1,27c7,10,13,20.5,18.2,31.3l23.2,46.3l23.2-46.3
			c5.7-10.8,12-21.2,18.9-31.3c7-10,15.2-19,24.7-27c9.5-8,20.7-14.3,33.6-18.9c12.9-4.6,28.1-7,45.6-7c17,0,32.3,2.3,46,7
			c13.6,4.6,25.5,10.9,35.5,18.9c10,8,18.5,17,25.5,27c7,10,12.2,20.5,15.8,31.3l238.7,673.6H950.7l-222.5-635
			c-1.5-5.1-6.2-9.8-13.9-13.9c-7.7-4.1-15.2-6.2-22.4-6.2c-8.2,0-15.7,2.1-22.4,6.2c-6.7,4.1-11.1,8.8-13.1,13.9L545.9,1054z
			 M545.9,1393.1l-146-389.3l-128.2,389.3H168.9l211.7-615.7c1-3.1,3.6-5.8,7.7-8.1c4.1-2.3,8-3.5,11.6-3.5c3.6,0,7.3,1.2,11.2,3.5
			c3.9,2.3,6.3,5,7.3,8.1l127.5,351.5l127.5-351.5c1-3.1,3.5-5.8,7.3-8.1c3.9-2.3,7.6-3.5,11.2-3.5c3.6,0,7.5,1.2,11.6,3.5
			c4.1,2.3,6.7,5,7.7,8.1l211.7,615.7H824l-132.1-389.3L545.9,1393.1z"/>
		
			<linearGradient id="SVGID_00000010274836221421988610000005428838404373327283_" gradientUnits="userSpaceOnUse" x1="1295.9564" y1="635.278" x2="1295.9564" y2="1393.079">
			<stop  offset="0" style="stop-color:#23BFD4"/>
			<stop  offset="0.7031" style="stop-color:#3F4DA0"/>
		</linearGradient>
		<path style="fill:url(#SVGID_00000010274836221421988610000005428838404373327283_);" d="M1150.7,1379.9
			c-26.8-8.8-49.1-22.5-66.8-41.3c-17.8-18.8-30.9-43-39.4-72.6c-8.5-29.6-12.7-65-12.7-106.2V868.6c0-42.7,4.2-78.9,12.7-108.5
			c8.5-29.6,21.6-53.7,39.4-72.2c17.8-18.5,40-31.9,66.8-40.2c26.8-8.2,58.7-12.4,95.8-12.4h98.9c37.6,0,69.9,4.1,96.9,12.4
			c27,8.2,49.3,21.6,66.8,40.2c17.5,18.5,30.4,42.6,38.6,72.2c8.2,29.6,12.4,65.8,12.4,108.5v291.2c0,41.2-4.1,76.6-12.4,106.2
			c-8.2,29.6-21.1,53.8-38.6,72.6c-17.5,18.8-39.8,32.6-66.8,41.3c-27,8.8-59.4,13.1-96.9,13.1h-98.9
			C1209.4,1393.1,1177.5,1388.7,1150.7,1379.9z M1356.2,1290.3c19.6,0,36-2.7,49.4-8.1c13.4-5.4,24.3-13,32.8-22.8
			c8.5-9.8,14.7-21.4,18.5-34.8c3.9-13.4,5.8-27.8,5.8-43.3V846.9c0-15.4-1.9-29.9-5.8-43.3c-3.9-13.4-10-25-18.5-34.8
			c-8.5-9.8-19.6-17.4-33.2-22.8c-13.7-5.4-30.3-8.1-49.8-8.1h-119c-19.6,0-36.2,2.7-49.8,8.1c-13.7,5.4-24.7,13-33.2,22.8
			c-8.5,9.8-14.7,21.4-18.5,34.8c-3.9,13.4-5.8,27.8-5.8,43.3v334.5c0,15.4,1.9,29.9,5.8,43.3c3.9,13.4,10,25,18.5,34.8
			c8.5,9.8,19.4,17.4,32.8,22.8c13.4,5.4,29.9,8.1,49.4,8.1h60.3H1356.2z M1245.7,1262.5c-18,0-32.8-1.7-44.4-5
			c-11.6-3.3-20.6-8.9-27-16.6c-6.4-7.7-10.9-17.6-13.5-29.7c-2.6-12.1-3.9-27.2-3.9-45.2V862.4c0-13.4,1.3-26,3.9-37.9
			c2.6-11.8,7.2-22.1,13.9-30.9c6.7-8.8,15.8-15.6,27.4-20.5c11.6-4.9,26.4-7.3,44.4-7.3h49.4h49.4c18,0,32.8,2.5,44.4,7.3
			c11.6,4.9,20.7,11.7,27.4,20.5c6.7,8.8,11.3,19.1,13.9,30.9c2.6,11.9,3.9,24.5,3.9,37.9V1166c0,18-1.3,33.1-3.9,45.2
			c-2.6,12.1-7.1,22-13.5,29.7c-6.4,7.7-15.4,13.3-27,16.6c-11.6,3.4-26.4,5-44.4,5H1245.7z M1320.7,1159.8c6.2,0,10.2-1.8,12-5.4
			c1.8-3.6,2.7-8.5,2.7-14.7V888.7c0-6.2-0.9-11.1-2.7-14.7c-1.8-3.6-5.8-5.4-12-5.4h-49.4c-6.2,0-10.2,1.8-12,5.4
			c-1.8,3.6-2.7,8.5-2.7,14.7v251.1c0,6.2,0.9,11.1,2.7,14.7c1.8,3.6,5.8,5.4,12,5.4H1320.7z"/>
		
			<linearGradient id="SVGID_00000168823489312029920420000014860277576236696743_" gradientUnits="userSpaceOnUse" x1="1868.7395" y1="635.278" x2="1868.7395" y2="1393.079">
			<stop  offset="0" style="stop-color:#23BFD4"/>
			<stop  offset="0.7031" style="stop-color:#3F4DA0"/>
		</linearGradient>
		<path style="fill:url(#SVGID_00000168823489312029920420000014860277576236696743_);" d="M1970.3,1282.2
			c13.4-5.4,24.3-13,32.8-22.8c8.5-9.8,14.7-21.4,18.5-34.8c3.9-13.4,5.8-27.8,5.8-43.3V846.9c0-15.4-1.9-29.9-5.8-43.3
			c-3.9-13.4-10-25-18.5-34.8c-8.5-9.8-19.6-17.4-33.2-22.8c-13.7-5.4-30.3-8.1-49.8-8.1h-307.4V635.3h297.4
			c37.6,0,69.9,4.1,96.9,12.4c27,8.2,49.3,21.6,66.8,40.2c17.5,18.5,30.4,42.6,38.6,72.2c8.2,29.6,12.4,65.8,12.4,108.5v291.2
			c0,41.2-4.1,76.6-12.4,106.2c-8.2,29.6-21.1,53.8-38.6,72.6c-17.5,18.8-39.8,32.6-66.8,41.3c-27,8.8-59.4,13.1-96.9,13.1h-297.4
			V893.3h97.3v397.1h210.9C1940.4,1290.3,1956.9,1287.6,1970.3,1282.2z M1612.7,868.6V765.8h297.4c18,0,32.8,2.5,44.4,7.3
			c11.6,4.9,20.7,11.7,27.4,20.5c6.7,8.8,11.3,19.1,13.9,30.9c2.6,11.9,3.9,24.5,3.9,37.9V1166c0,18-1.3,33.1-3.9,45.2
			c-2.6,12.1-7.1,22-13.5,29.7c-6.4,7.7-15.5,13.3-27,16.6c-11.6,3.4-26.4,5-44.4,5h-173V893.3H1846v246.4
			c0,13.4,6.4,20.1,19.3,20.1h17c6.2,0,11.2-1.8,15.1-5.4c3.9-3.6,5.8-8.5,5.8-14.7V888.7c0-6.2-1.9-11.1-5.8-14.7
			c-3.9-3.6-8.9-5.4-15.1-5.4H1612.7z"/>
		
			<linearGradient id="SVGID_00000031920318653627248060000017938255227579763357_" gradientUnits="userSpaceOnUse" x1="2427.2327" y1="635.278" x2="2427.2327" y2="1393.079">
			<stop  offset="0" style="stop-color:#23BFD4"/>
			<stop  offset="0.7031" style="stop-color:#3F4DA0"/>
		</linearGradient>
		<path style="fill:url(#SVGID_00000031920318653627248060000017938255227579763357_);" d="M2173.5,868.6c0-32.4,5.9-63,17.8-91.5
			c11.8-28.6,27.7-53.3,47.5-74.2c19.8-20.9,42.7-37.3,68.7-49.4c26-12.1,52.9-18.2,80.7-18.2H2681V738h-280.4
			c-19.6,0-37.1,3.9-52.5,11.6c-15.5,7.7-28.5,17.8-39,30.1c-10.6,12.4-18.7,26.4-24.3,42.1c-5.7,15.7-8.5,31.3-8.5,46.7v291.2
			c0,15.5,2.8,31,8.5,46.7c5.7,15.7,13.8,29.7,24.3,42.1c10.6,12.4,23.6,22.4,39,30.1c15.5,7.7,33,11.6,52.5,11.6H2681v102.7h-292.8
			c-27.8,0-54.7-6-80.7-18.2c-26-12.1-48.9-28.6-68.7-49.4c-19.8-20.9-35.7-45.6-47.5-74.2c-11.9-28.6-17.8-59.1-17.8-91.5V868.6z
			 M2304,1001.4V884c0-13.4,2.2-27.2,6.6-41.3c4.4-14.2,10.9-26.9,19.7-38.2c8.7-11.3,19.8-20.6,33.2-27.8
			c13.4-7.2,29.1-10.8,47.1-10.8H2681v102.7h-268c-3.1,0-6.3,1.8-9.7,5.4c-3.4,3.6-5,8.5-5,14.7v10.8h224v102H2304z M2304,1026.9
			h318.3v102.7h-224v10c0,6.2,1.7,11.1,5,14.7c3.3,3.6,6.6,5.4,9.7,5.4h268v102.7h-270.4c-18,0-33.7-3.6-47.1-10.8
			c-13.4-7.2-24.5-16.5-33.2-27.8c-8.8-11.3-15.3-24.1-19.7-38.2c-4.4-14.2-6.6-27.9-6.6-41.3V1026.9z"/>
		
			<linearGradient id="SVGID_00000132064669470624759590000014555887142442160271_" gradientUnits="userSpaceOnUse" x1="2987.2761" y1="635.278" x2="2987.2761" y2="1393.079">
			<stop  offset="0" style="stop-color:#23BFD4"/>
			<stop  offset="0.7031" style="stop-color:#3F4DA0"/>
		</linearGradient>
		<path style="fill:url(#SVGID_00000132064669470624759590000014555887142442160271_);" d="M3241,1393.1h-292.8
			c-27.8,0-54.7-6-80.7-18.2c-26-12.1-48.9-28.6-68.7-49.4c-19.8-20.9-35.7-45.6-47.5-74.2c-11.9-28.6-17.8-59.1-17.8-91.5V635.3
			h102.7v524.5c0,15.5,2.8,31,8.5,46.7c5.7,15.7,13.8,29.7,24.3,42.1c10.6,12.4,23.6,22.4,39,30.1c15.5,7.7,33,11.6,52.5,11.6H3241
			V1393.1z M2984.6,1159.8H3241v102.7h-270.4c-18,0-33.7-3.6-47.1-10.8c-13.4-7.2-24.5-16.5-33.2-27.8
			c-8.8-11.3-15.3-24.1-19.7-38.2c-4.4-14.2-6.6-27.9-6.6-41.3V635.3h105.8v504.4c0,6.2,1.7,10.9,5,14.3c3.3,3.4,6.6,5,9.7,5V1159.8
			z"/>
		<g>
			<defs>
				<path id="SVGID_18_" d="M108.2,1129.9c196.5,26.7,842.6,93.8,1394.5-85.3C2272.6,794.7,2962.4,609.9,3815.1,896l-16.1,512.1
					l-3775.5,1.4C23.5,1409.5,69.8,1124.7,108.2,1129.9z"/>
			</defs>
			<clipPath id="SVGID_00000022548594628360451530000015234969078881728935_">
				<use xlink:href="#SVGID_18_"  style="overflow:visible;"/>
			</clipPath>
			<g style="clip-path:url(#SVGID_00000022548594628360451530000015234969078881728935_);">
				
					<linearGradient id="SVGID_00000127034869364235528250000007548223938505446300_" gradientUnits="userSpaceOnUse" x1="3411.5237" y1="635.2888" x2="3411.5237" y2="1393.0896">
					<stop  offset="0" style="stop-color:#0094BF"/>
					<stop  offset="2.865892e-02" style="stop-color:#0090BD;stop-opacity:0.5"/>
					<stop  offset="1" style="stop-color:#282A71"/>
				</linearGradient>
				<path style="fill:url(#SVGID_00000127034869364235528250000007548223938505446300_);" d="M3800.6,1159.8
					c0,32.4-5.9,63-17.8,91.5c-11.8,28.6-27.7,53.3-47.5,74.2c-19.8,20.9-42.7,37.3-68.7,49.4c-26,12.1-52.9,18.2-80.7,18.2H3206
					v-102.7h367.5c19.6,0,37.1-3.9,52.5-11.6c15.5-7.7,28.5-17.8,39-30.1c10.6-12.4,18.7-26.4,24.3-42.1c5.7-15.7,8.5-31.3,8.5-46.7
					V868.6c0-15.4-2.8-31-8.5-46.7c-5.7-15.7-13.8-29.7-24.3-42.1c-10.6-12.4-23.6-22.4-39-30.1c-15.5-7.7-33-11.6-52.5-11.6h-551.1
					V635.3h563.5c27.8,0,54.7,6.1,80.7,18.2c26,12.1,48.9,28.6,68.7,49.4c19.8,20.9,35.7,45.6,47.5,74.2
					c11.9,28.6,17.8,59.1,17.8,91.5V1159.8z M3351.8,1001.4v-102h224v-10.8c0-6.2-1.7-11.1-5-14.7c-3.3-3.6-6.6-5.4-9.7-5.4h-538.7
					V765.8h541.1c18,0,33.7,3.6,47.1,10.8c13.4,7.2,24.5,16.5,33.2,27.8c8.8,11.3,15.3,24.1,19.7,38.2c4.4,14.2,6.6,27.9,6.6,41.3
					v117.4H3351.8z M3670.1,1144.4c0,13.4-2.2,27.2-6.6,41.3c-4.4,14.2-10.9,26.9-19.7,38.2c-8.7,11.3-19.8,20.6-33.2,27.8
					c-13.4,7.2-29.1,10.8-47.1,10.8H3206v-102.7h355.2c3.1,0,6.3-1.8,9.7-5.4c3.4-3.6,5-8.5,5-14.7v-10h-224v-102.7h318.3V1144.4z"
					/>
				<g>
					
						<linearGradient id="SVGID_00000037683488860166248020000015131555829232262809_" gradientUnits="userSpaceOnUse" x1="545.8885" y1="635.278" x2="545.8885" y2="1393.079">
						<stop  offset="0" style="stop-color:#0094BF"/>
						<stop  offset="2.865892e-02" style="stop-color:#0090BD;stop-opacity:0.5"/>
						<stop  offset="1" style="stop-color:#282A71"/>
					</linearGradient>
					<path style="fill:url(#SVGID_00000037683488860166248020000015131555829232262809_);" d="M545.9,1054L435.4,758.1
						c-2.1-5.1-6.4-9.8-13.1-13.9c-6.7-4.1-14.2-6.2-22.4-6.2c-7.2,0-14.7,2.1-22.4,6.2c-7.7,4.1-12.4,8.8-13.9,13.9l-222.5,635
						H38.4l238.7-673.6c4.1-10.8,9.5-21.2,16.2-31.3c6.7-10,15.1-19,25.1-27c10-8,21.8-14.3,35.1-18.9c13.4-4.6,28.8-7,46.3-7
						c17.5,0,32.7,2.3,45.6,7c12.9,4.6,24.2,10.9,34,18.9c9.8,8,18.2,17,25.1,27c7,10,13,20.5,18.2,31.3l23.2,46.3l23.2-46.3
						c5.7-10.8,12-21.2,18.9-31.3c7-10,15.2-19,24.7-27c9.5-8,20.7-14.3,33.6-18.9c12.9-4.6,28.1-7,45.6-7c17,0,32.3,2.3,46,7
						c13.6,4.6,25.5,10.9,35.5,18.9c10,8,18.5,17,25.5,27c7,10,12.2,20.5,15.8,31.3l238.7,673.6H950.7l-222.5-635
						c-1.5-5.1-6.2-9.8-13.9-13.9c-7.7-4.1-15.2-6.2-22.4-6.2c-8.2,0-15.7,2.1-22.4,6.2c-6.7,4.1-11.1,8.8-13.1,13.9L545.9,1054z
						 M545.9,1393.1l-146-389.3l-128.2,389.3H168.9l211.7-615.7c1-3.1,3.6-5.8,7.7-8.1c4.1-2.3,8-3.5,11.6-3.5
						c3.6,0,7.3,1.2,11.2,3.5c3.9,2.3,6.3,5,7.3,8.1l127.5,351.5l127.5-351.5c1-3.1,3.5-5.8,7.3-8.1c3.9-2.3,7.6-3.5,11.2-3.5
						c3.6,0,7.5,1.2,11.6,3.5c4.1,2.3,6.7,5,7.7,8.1l211.7,615.7H824l-132.1-389.3L545.9,1393.1z"/>
					
						<linearGradient id="SVGID_00000051366269554211455630000004937651143823090860_" gradientUnits="userSpaceOnUse" x1="1295.9564" y1="635.278" x2="1295.9564" y2="1393.079">
						<stop  offset="0" style="stop-color:#0094BF"/>
						<stop  offset="2.865892e-02" style="stop-color:#0090BD;stop-opacity:0.5"/>
						<stop  offset="1" style="stop-color:#282A71"/>
					</linearGradient>
					<path style="fill:url(#SVGID_00000051366269554211455630000004937651143823090860_);" d="M1150.7,1379.9
						c-26.8-8.8-49.1-22.5-66.8-41.3c-17.8-18.8-30.9-43-39.4-72.6c-8.5-29.6-12.7-65-12.7-106.2V868.6c0-42.7,4.2-78.9,12.7-108.5
						c8.5-29.6,21.6-53.7,39.4-72.2c17.8-18.5,40-31.9,66.8-40.2c26.8-8.2,58.7-12.4,95.8-12.4h98.9c37.6,0,69.9,4.1,96.9,12.4
						c27,8.2,49.3,21.6,66.8,40.2c17.5,18.5,30.4,42.6,38.6,72.2c8.2,29.6,12.4,65.8,12.4,108.5v291.2c0,41.2-4.1,76.6-12.4,106.2
						c-8.2,29.6-21.1,53.8-38.6,72.6c-17.5,18.8-39.8,32.6-66.8,41.3c-27,8.8-59.4,13.1-96.9,13.1h-98.9
						C1209.4,1393.1,1177.5,1388.7,1150.7,1379.9z M1356.2,1290.3c19.6,0,36-2.7,49.4-8.1c13.4-5.4,24.3-13,32.8-22.8
						c8.5-9.8,14.7-21.4,18.5-34.8c3.9-13.4,5.8-27.8,5.8-43.3V846.9c0-15.4-1.9-29.9-5.8-43.3c-3.9-13.4-10-25-18.5-34.8
						c-8.5-9.8-19.6-17.4-33.2-22.8c-13.7-5.4-30.3-8.1-49.8-8.1h-119c-19.6,0-36.2,2.7-49.8,8.1c-13.7,5.4-24.7,13-33.2,22.8
						c-8.5,9.8-14.7,21.4-18.5,34.8c-3.9,13.4-5.8,27.8-5.8,43.3v334.5c0,15.4,1.9,29.9,5.8,43.3c3.9,13.4,10,25,18.5,34.8
						c8.5,9.8,19.4,17.4,32.8,22.8c13.4,5.4,29.9,8.1,49.4,8.1h60.3H1356.2z M1245.7,1262.5c-18,0-32.8-1.7-44.4-5
						c-11.6-3.3-20.6-8.9-27-16.6c-6.4-7.7-10.9-17.6-13.5-29.7c-2.6-12.1-3.9-27.2-3.9-45.2V862.4c0-13.4,1.3-26,3.9-37.9
						c2.6-11.8,7.2-22.1,13.9-30.9c6.7-8.8,15.8-15.6,27.4-20.5c11.6-4.9,26.4-7.3,44.4-7.3h49.4h49.4c18,0,32.8,2.5,44.4,7.3
						c11.6,4.9,20.7,11.7,27.4,20.5c6.7,8.8,11.3,19.1,13.9,30.9c2.6,11.9,3.9,24.5,3.9,37.9V1166c0,18-1.3,33.1-3.9,45.2
						c-2.6,12.1-7.1,22-13.5,29.7c-6.4,7.7-15.4,13.3-27,16.6c-11.6,3.4-26.4,5-44.4,5H1245.7z M1320.7,1159.8
						c6.2,0,10.2-1.8,12-5.4c1.8-3.6,2.7-8.5,2.7-14.7V888.7c0-6.2-0.9-11.1-2.7-14.7c-1.8-3.6-5.8-5.4-12-5.4h-49.4
						c-6.2,0-10.2,1.8-12,5.4c-1.8,3.6-2.7,8.5-2.7,14.7v251.1c0,6.2,0.9,11.1,2.7,14.7c1.8,3.6,5.8,5.4,12,5.4H1320.7z"/>
					
						<linearGradient id="SVGID_00000056418239412845515200000017588496220249076628_" gradientUnits="userSpaceOnUse" x1="1868.7395" y1="635.278" x2="1868.7395" y2="1393.079">
						<stop  offset="0" style="stop-color:#0094BF"/>
						<stop  offset="2.865892e-02" style="stop-color:#0090BD;stop-opacity:0.5"/>
						<stop  offset="1" style="stop-color:#282A71"/>
					</linearGradient>
					<path style="fill:url(#SVGID_00000056418239412845515200000017588496220249076628_);" d="M1970.3,1282.2
						c13.4-5.4,24.3-13,32.8-22.8c8.5-9.8,14.7-21.4,18.5-34.8c3.9-13.4,5.8-27.8,5.8-43.3V846.9c0-15.4-1.9-29.9-5.8-43.3
						c-3.9-13.4-10-25-18.5-34.8c-8.5-9.8-19.6-17.4-33.2-22.8c-13.7-5.4-30.3-8.1-49.8-8.1h-307.4V635.3h297.4
						c37.6,0,69.9,4.1,96.9,12.4c27,8.2,49.3,21.6,66.8,40.2c17.5,18.5,30.4,42.6,38.6,72.2c8.2,29.6,12.4,65.8,12.4,108.5v291.2
						c0,41.2-4.1,76.6-12.4,106.2c-8.2,29.6-21.1,53.8-38.6,72.6c-17.5,18.8-39.8,32.6-66.8,41.3c-27,8.8-59.4,13.1-96.9,13.1
						h-297.4V893.3h97.3v397.1h210.9C1940.4,1290.3,1956.9,1287.6,1970.3,1282.2z M1612.7,868.6V765.8h297.4c18,0,32.8,2.5,44.4,7.3
						c11.6,4.9,20.7,11.7,27.4,20.5c6.7,8.8,11.3,19.1,13.9,30.9c2.6,11.9,3.9,24.5,3.9,37.9V1166c0,18-1.3,33.1-3.9,45.2
						c-2.6,12.1-7.1,22-13.5,29.7c-6.4,7.7-15.5,13.3-27,16.6c-11.6,3.4-26.4,5-44.4,5h-173V893.3H1846v246.4
						c0,13.4,6.4,20.1,19.3,20.1h17c6.2,0,11.2-1.8,15.1-5.4c3.9-3.6,5.8-8.5,5.8-14.7V888.7c0-6.2-1.9-11.1-5.8-14.7
						c-3.9-3.6-8.9-5.4-15.1-5.4H1612.7z"/>
					
						<linearGradient id="SVGID_00000090995663659381821620000008906782683749683848_" gradientUnits="userSpaceOnUse" x1="2427.2327" y1="635.278" x2="2427.2327" y2="1393.079">
						<stop  offset="0" style="stop-color:#0094BF"/>
						<stop  offset="2.865892e-02" style="stop-color:#0090BD;stop-opacity:0.5"/>
						<stop  offset="1" style="stop-color:#282A71"/>
					</linearGradient>
					<path style="fill:url(#SVGID_00000090995663659381821620000008906782683749683848_);" d="M2173.5,868.6
						c0-32.4,5.9-63,17.8-91.5c11.8-28.6,27.7-53.3,47.5-74.2c19.8-20.9,42.7-37.3,68.7-49.4c26-12.1,52.9-18.2,80.7-18.2H2681V738
						h-280.4c-19.6,0-37.1,3.9-52.5,11.6c-15.5,7.7-28.5,17.8-39,30.1c-10.6,12.4-18.7,26.4-24.3,42.1c-5.7,15.7-8.5,31.3-8.5,46.7
						v291.2c0,15.5,2.8,31,8.5,46.7c5.7,15.7,13.8,29.7,24.3,42.1c10.6,12.4,23.6,22.4,39,30.1c15.5,7.7,33,11.6,52.5,11.6H2681
						v102.7h-292.8c-27.8,0-54.7-6-80.7-18.2c-26-12.1-48.9-28.6-68.7-49.4c-19.8-20.9-35.7-45.6-47.5-74.2
						c-11.9-28.6-17.8-59.1-17.8-91.5V868.6z M2304,1001.4V884c0-13.4,2.2-27.2,6.6-41.3c4.4-14.2,10.9-26.9,19.7-38.2
						c8.7-11.3,19.8-20.6,33.2-27.8c13.4-7.2,29.1-10.8,47.1-10.8H2681v102.7h-268c-3.1,0-6.3,1.8-9.7,5.4c-3.4,3.6-5,8.5-5,14.7
						v10.8h224v102H2304z M2304,1026.9h318.3v102.7h-224v10c0,6.2,1.7,11.1,5,14.7c3.3,3.6,6.6,5.4,9.7,5.4h268v102.7h-270.4
						c-18,0-33.7-3.6-47.1-10.8c-13.4-7.2-24.5-16.5-33.2-27.8c-8.8-11.3-15.3-24.1-19.7-38.2c-4.4-14.2-6.6-27.9-6.6-41.3V1026.9z"
						/>
					
						<linearGradient id="SVGID_00000015345527456880091270000002371131898023944121_" gradientUnits="userSpaceOnUse" x1="2987.2761" y1="635.278" x2="2987.2761" y2="1393.079">
						<stop  offset="0" style="stop-color:#0094BF"/>
						<stop  offset="2.865892e-02" style="stop-color:#0090BD;stop-opacity:0.5"/>
						<stop  offset="1" style="stop-color:#282A71"/>
					</linearGradient>
					<path style="fill:url(#SVGID_00000015345527456880091270000002371131898023944121_);" d="M3241,1393.1h-292.8
						c-27.8,0-54.7-6-80.7-18.2c-26-12.1-48.9-28.6-68.7-49.4c-19.8-20.9-35.7-45.6-47.5-74.2c-11.9-28.6-17.8-59.1-17.8-91.5V635.3
						h102.7v524.5c0,15.5,2.8,31,8.5,46.7c5.7,15.7,13.8,29.7,24.3,42.1c10.6,12.4,23.6,22.4,39,30.1c15.5,7.7,33,11.6,52.5,11.6
						H3241V1393.1z M2984.6,1159.8H3241v102.7h-270.4c-18,0-33.7-3.6-47.1-10.8c-13.4-7.2-24.5-16.5-33.2-27.8
						c-8.8-11.3-15.3-24.1-19.7-38.2c-4.4-14.2-6.6-27.9-6.6-41.3V635.3h105.8v504.4c0,6.2,1.7,10.9,5,14.3c3.3,3.4,6.6,5,9.7,5
						V1159.8z"/>
				</g>
			</g>
		</g>
		
			<linearGradient id="SVGID_00000114773526127000618230000009602669857241205635_" gradientUnits="userSpaceOnUse" x1="3411.5237" y1="1393.0912" x2="3411.5237" y2="635.2903">
			<stop  offset="0" style="stop-color:#131313"/>
			<stop  offset="1" style="stop-color:#F7F8F9"/>
		</linearGradient>
		<path style="fill:url(#SVGID_00000114773526127000618230000009602669857241205635_);" d="M3800.6,1159.8c0,32.4-5.9,63-17.8,91.5
			c-11.8,28.6-27.7,53.3-47.5,74.2c-19.8,20.9-42.7,37.3-68.7,49.4c-26,12.1-52.9,18.2-80.7,18.2H3206v-102.7h367.5
			c19.6,0,37.1-3.9,52.5-11.6c15.5-7.7,28.5-17.8,39-30.1c10.6-12.4,18.7-26.4,24.3-42.1c5.7-15.7,8.5-31.3,8.5-46.7V868.6
			c0-15.4-2.8-31-8.5-46.7c-5.7-15.7-13.8-29.7-24.3-42.1c-10.6-12.4-23.6-22.4-39-30.1c-15.5-7.7-33-11.6-52.5-11.6h-551.1V635.3
			h563.5c27.8,0,54.7,6.1,80.7,18.2c26,12.1,48.9,28.6,68.7,49.4c19.8,20.9,35.7,45.6,47.5,74.2c11.9,28.6,17.8,59.1,17.8,91.5
			V1159.8z M3351.8,1001.4v-102h224v-10.8c0-6.2-1.7-11.1-5-14.7c-3.3-3.6-6.6-5.4-9.7-5.4h-538.7V765.8h541.1
			c18,0,33.7,3.6,47.1,10.8c13.4,7.2,24.5,16.5,33.2,27.8c8.8,11.3,15.3,24.1,19.7,38.2c4.4,14.2,6.6,27.9,6.6,41.3v117.4H3351.8z
			 M3670.1,1144.4c0,13.4-2.2,27.2-6.6,41.3c-4.4,14.2-10.9,26.9-19.7,38.2c-8.7,11.3-19.8,20.6-33.2,27.8
			c-13.4,7.2-29.1,10.8-47.1,10.8H3206v-102.7h355.2c3.1,0,6.3-1.8,9.7-5.4c3.4-3.6,5-8.5,5-14.7v-10h-224v-102.7h318.3V1144.4z"/>
		<path class="st21" d="M3762.9,1346c-694.9-353.4-1337.1-256.5-2579.2,59.6c-66.3,16.9,2440.3,9.6,2440.3,9.6L3762.9,1346z"/>
		<g>
			<defs>
				<path id="SVGID_17_" d="M3753.3,1349c-693-352.4-1333.8-257-2569.5,57.1c-69.4,17.6,2440.1,9.1,2440.1,9.1L3753.3,1349z"/>
			</defs>
			<clipPath id="SVGID_00000040552718917882156420000017417187985884350385_">
				<use xlink:href="#SVGID_17_"  style="overflow:visible;"/>
			</clipPath>
			<g style="clip-path:url(#SVGID_00000040552718917882156420000017417187985884350385_);">
				
					<linearGradient id="SVGID_00000172424139793409015910000005878409398446427531_" gradientUnits="userSpaceOnUse" x1="3800.6289" y1="1014.184" x2="1031.7698" y2="1014.184">
					<stop  offset="0" style="stop-color:#474748;stop-opacity:0.5"/>
					<stop  offset="0.2168" style="stop-color:#545554"/>
					<stop  offset="0.5053" style="stop-color:#2E3084"/>
					<stop  offset="0.6386" style="stop-color:#2E3286"/>
					<stop  offset="0.8566" style="stop-color:#282A71;stop-opacity:0.5"/>
					<stop  offset="1" style="stop-color:#282A71;stop-opacity:0"/>
				</linearGradient>
				<path style="fill:url(#SVGID_00000172424139793409015910000005878409398446427531_);" d="M3782.9,777
					c-11.8-28.6-27.7-53.3-47.5-74.2c-19.8-20.9-42.7-37.3-68.7-49.4c-26-12.1-52.9-18.2-80.7-18.2h-563.5V738h551.1
					c19.6,0,37.1,3.9,52.5,11.6c15.5,7.7,28.5,17.8,39,30.1c10.6,12.4,18.7,26.4,24.3,42.1c5.7,15.7,8.5,31.3,8.5,46.7v291.2
					c0,15.5-2.8,31-8.5,46.7c-5.7,15.7-13.8,29.7-24.3,42.1c-10.6,12.4-23.6,22.4-39,30.1c-15.5,7.7-33,11.6-52.5,11.6H3241v0
					h-280.4c-19.6,0-37.1-3.9-52.5-11.6c-15.5-7.7-28.5-17.8-39-30.1c-10.6-12.4-18.7-26.4-24.3-42.1c-5.7-15.7-8.5-31.3-8.5-46.7
					V635.3h-102.7v524.5c0,32.4,5.9,63,17.8,91.5c11.8,28.6,27.7,53.3,47.5,74.2c19.8,20.9,42.7,37.3,68.8,49.4
					c26,12.1,52.9,18.2,80.7,18.2H3206v0h379.9c27.8,0,54.7-6,80.7-18.2c26-12.1,48.9-28.6,68.7-49.4c19.8-20.9,35.7-45.6,47.5-74.2
					c11.9-28.6,17.8-59.1,17.8-91.5V868.6C3800.6,836.1,3794.7,805.6,3782.9,777z M3570.8,874c3.4,3.6,5,8.5,5,14.7v10.8h-224v102
					h318.3V884c0-13.4-2.2-27.2-6.6-41.3c-4.4-14.2-10.9-26.9-19.7-38.2c-8.7-11.3-19.8-20.6-33.2-27.8
					c-13.4-7.2-29.1-10.8-47.1-10.8h-541.1v102.7h538.7C3564.3,868.6,3567.5,870.4,3570.8,874z M1509.2,687.8
					c-17.5-18.5-39.8-31.9-66.8-40.2c-27-8.2-59.4-12.4-96.9-12.4h-98.9c-37.1,0-69,4.1-95.8,12.4c-26.8,8.2-49.1,21.6-66.8,40.2
					c-17.8,18.5-30.9,42.6-39.4,72.2c-8.5,29.6-12.7,65.8-12.7,108.5v291.2c0,41.2,4.2,76.6,12.7,106.2
					c8.5,29.6,21.6,53.8,39.4,72.6c17.8,18.8,40,32.6,66.8,41.3c26.8,8.8,58.7,13.1,95.8,13.1h98.9c37.6,0,69.9-4.4,96.9-13.1
					c27-8.7,49.3-22.5,66.8-41.3c17.5-18.8,30.4-43,38.6-72.6c8.2-29.6,12.4-65,12.4-106.2V868.6c0-42.7-4.1-78.9-12.4-108.5
					C1539.5,730.4,1526.7,706.3,1509.2,687.8z M1462.8,1181.4c0,15.4-1.9,29.9-5.8,43.3c-3.9,13.4-10,25-18.5,34.8
					c-8.5,9.8-19.4,17.4-32.8,22.8c-13.4,5.4-29.9,8.1-49.4,8.1h-120.5c-19.6,0-36.1-2.7-49.4-8.1c-13.4-5.4-24.3-13-32.8-22.8
					c-8.5-9.8-14.7-21.4-18.5-34.8c-3.9-13.4-5.8-27.8-5.8-43.3V846.9c0-15.4,1.9-29.9,5.8-43.3c3.9-13.4,10-25,18.5-34.8
					c8.5-9.8,19.6-17.4,33.2-22.8c13.6-5.4,30.2-8.1,49.8-8.1h119c19.6,0,36.2,2.7,49.8,8.1c13.6,5.4,24.7,13,33.2,22.8
					c8.5,9.8,14.7,21.4,18.5,34.8c3.9,13.4,5.8,27.8,5.8,43.3V1181.4z M1417.2,793.6c-6.7-8.8-15.8-15.6-27.4-20.5
					c-11.6-4.9-26.4-7.3-44.4-7.3h-98.9c-18,0-32.8,2.5-44.4,7.3c-11.6,4.9-20.7,11.7-27.4,20.5c-6.7,8.8-11.3,19.1-13.9,30.9
					c-2.6,11.9-3.9,24.5-3.9,37.9V1166c0,18,1.3,33.1,3.9,45.2c2.6,12.1,7.1,22,13.5,29.7c6.4,7.7,15.4,13.3,27,16.6
					c11.6,3.4,26.4,5,44.4,5h100.4c18,0,32.8-1.7,44.4-5c11.6-3.3,20.6-8.9,27-16.6c6.4-7.7,10.9-17.6,13.5-29.7
					c2.6-12.1,3.9-27.2,3.9-45.2V862.4c0-13.4-1.3-26-3.9-37.9C1428.6,812.7,1423.9,802.4,1417.2,793.6z M1335.4,1139.7
					c0,6.2-0.9,11.1-2.7,14.7c-1.8,3.6-5.8,5.4-12,5.4h-49.4c-6.2,0-10.2-1.8-12-5.4c-1.8-3.6-2.7-8.5-2.7-14.7V888.7
					c0-6.2,0.9-11.1,2.7-14.7c1.8-3.6,5.8-5.4,12-5.4h49.4c6.2,0,10.2,1.8,12,5.4c1.8,3.6,2.7,8.5,2.7,14.7V1139.7z M2073.8,687.8
					c-17.5-18.5-39.8-31.9-66.8-40.2c-27-8.2-59.4-12.4-96.9-12.4h-297.4V738h307.4c19.6,0,36.2,2.7,49.8,8.1
					c13.6,5.4,24.7,13,33.2,22.8c8.5,9.8,14.7,21.4,18.5,34.8c3.9,13.4,5.8,27.8,5.8,43.3v334.5c0,15.4-1.9,29.9-5.8,43.3
					c-3.9,13.4-10,25-18.5,34.8c-8.5,9.8-19.4,17.4-32.8,22.8c-13.4,5.4-29.9,8.1-49.4,8.1H1710V893.3h-97.3v499.8h297.4
					c37.6,0,69.9-4.4,96.9-13.1c27-8.7,49.3-22.5,66.8-41.3c17.5-18.8,30.4-43,38.6-72.6c8.2-29.6,12.4-65,12.4-106.2V868.6
					c0-42.7-4.1-78.9-12.4-108.5C2104.2,730.4,2091.3,706.3,2073.8,687.8z M1897.3,874c3.9,3.6,5.8,8.5,5.8,14.7v251.1
					c0,6.2-1.9,11.1-5.8,14.7c-3.9,3.6-8.9,5.4-15.1,5.4h-17c-12.9,0-19.3-6.7-19.3-20.1V893.3h-108.1v369.2h173
					c18,0,32.8-1.7,44.4-5c11.6-3.3,20.6-8.9,27-16.6c6.4-7.7,10.9-17.6,13.5-29.7c2.6-12.1,3.9-27.2,3.9-45.2V862.4
					c0-13.4-1.3-26-3.9-37.9c-2.6-11.8-7.2-22.1-13.9-30.9c-6.7-8.7-15.8-15.6-27.4-20.5c-11.6-4.9-26.4-7.3-44.4-7.3h-297.4v102.7
					h269.6C1888.4,868.6,1893.5,870.4,1897.3,874z M2307.5,653.4c-26,12.1-48.9,28.6-68.8,49.4c-19.8,20.9-35.7,45.6-47.5,74.2
					c-11.9,28.6-17.8,59.1-17.8,91.5v291.2c0,32.4,5.9,63,17.8,91.5c11.8,28.6,27.7,53.3,47.5,74.2c19.8,20.9,42.7,37.3,68.8,49.4
					c26,12.1,52.9,18.2,80.7,18.2H2681v-102.7h-280.4c-19.6,0-37.1-3.9-52.5-11.6c-15.5-7.7-28.5-17.8-39-30.1
					c-10.6-12.4-18.7-26.4-24.3-42.1c-5.7-15.7-8.5-31.3-8.5-46.7V868.6c0-15.4,2.8-31,8.5-46.7c5.7-15.7,13.8-29.7,24.3-42.1
					c10.6-12.4,23.6-22.4,39-30.1c15.5-7.7,33-11.6,52.5-11.6H2681V635.3h-292.8C2360.4,635.3,2333.5,641.3,2307.5,653.4z
					 M2363.5,776.6c-13.4,7.2-24.5,16.5-33.2,27.8c-8.8,11.3-15.3,24.1-19.7,38.2c-4.4,14.2-6.6,27.9-6.6,41.3v117.4h318.3v-102
					h-224v-10.8c0-6.2,1.7-11.1,5-14.7c3.3-3.6,6.6-5.4,9.7-5.4h268V765.8h-270.4C2392.6,765.8,2376.9,769.4,2363.5,776.6z
					 M2403.3,1154.4c-3.4-3.6-5-8.5-5-14.7v-10h224v-102.7H2304v117.4c0,13.4,2.2,27.2,6.6,41.3c4.4,14.2,10.9,26.9,19.7,38.2
					c8.7,11.3,19.8,20.6,33.2,27.8c13.4,7.2,29.1,10.8,47.1,10.8H2681v-102.7h-268C2409.8,1159.8,2406.6,1158,2403.3,1154.4z
					 M2890.3,1223.9c8.7,11.3,19.8,20.6,33.2,27.8c13.4,7.2,29.1,10.8,47.1,10.8H3206v0h357.5c18,0,33.7-3.6,47.1-10.8
					c13.4-7.2,24.5-16.5,33.2-27.8c8.8-11.3,15.3-24.1,19.7-38.2c4.4-14.2,6.6-27.9,6.6-41.3v-117.4h-318.3v102.7h224v10
					c0,6.2-1.7,11.1-5,14.7c-3.3,3.6-6.6,5.4-9.7,5.4H3241v0h-256.5v-0.8c-3.1,0-6.3-1.7-9.7-5c-3.4-3.3-5-8.1-5-14.3V635.3h-105.8
					v509.1c0,13.4,2.2,27.2,6.6,41.3C2875,1199.8,2881.6,1212.6,2890.3,1223.9z"/>
			</g>
		</g>
	</g>
	<g>
		<path class="st0" d="M2486.6,83.2c-15.3-48.5-61-83.2-113.7-83.2s-98.4,34.7-113.7,83.2L2219,202.4V6.9h-210.7
			c-37.4,0-72.1,15.3-98.4,40.2V6.9h-216.3c-40.2,0-76.3,16.6-102.6,44.4V6.9h-205.2c-87.3,0-159.4,72.1-159.4,159.4
			c0,41.6,16.6,80.4,43,108.1h-43v185.8h205.2c58.2,0,108.1-30.5,137.3-77.6c23.6,45.8,70.7,77.6,126.2,77.6h217.7v-40.2
			c25,25,59.6,40.2,98.4,40.2h601.7L2486.6,83.2z"/>
		<g>
			<g>
				<path class="st1" d="M1258.1,166.4c0,70.7,56.8,127.6,127.6,127.6h44.4c4.2,0,6.9,2.8,6.9,6.9s-2.8,6.9-5.5,6.9h-173.3v54.1
					h173.3c33.3,0,61-27.7,61-61s-27.7-61-61-61h-44.4c-40.2,0-73.5-33.3-73.5-73.5s33.3-73.5,73.5-73.5H1559V38.8h-173.3
					C1315,38.8,1258.1,95.7,1258.1,166.4z M1324.7,166.4c0,33.3,27.7,61,61,61h44.4c40.2,0,73.5,33.3,73.5,73.5
					s-33.3,73.5-73.5,73.5h-171.9v54.1h173.3c70.7,0,127.6-56.8,127.6-127.6s-56.8-127.6-127.6-127.6h-44.4c-4.2,0-6.9-2.8-6.9-6.9
					c0-2.8,2.8-5.5,5.5-5.5H1559v-55.5h-173.3C1352.4,105.4,1324.7,133.1,1324.7,166.4z M2034.6,159.4h153.9v-54.1h-180.2
					c-23.6,0-41.6,18-41.6,41.6v173.3c0,23.6,18,41.6,41.6,41.6h112.3v-122h-86v54.1h31.9v12.5h-31.9c-6.9,0-12.5-5.5-12.5-12.5
					v-122C2022.1,165,2027.6,159.4,2034.6,159.4z M2349.3,361.9h126.2l-86-255.1c-2.8-6.9-8.3-12.5-16.6-12.5
					c-6.9,0-13.9,5.5-16.6,11.1l-110.9,323h63.8l38.8-115.1v48.5H2349.3z M2371.5,245.4l18,55.5h-37.4L2371.5,245.4z M2456.1,95.7
					c-11.1-36-44.4-63.8-84.6-63.8c-40.2,0-73.5,26.3-83.2,62.4L2187.1,391V173.3h-152.5v54.1h99.8v147h-124.8
					c-30.5,0-54.1-25-54.1-54.1V147c0-30.5,25-54.1,54.1-54.1h178.9V38.8h-180.2c-59.6,0-108.1,48.5-108.1,108.1v173.3
					c0,59.6,48.5,108.1,108.1,108.1h223.2l112.3-325.8c4.2-12.5,15.3-20.8,29.1-20.8s25,8.3,29.1,20.8l91.5,271.8h-144.2v54.1h219.1
					L2456.1,95.7z M1585.4,147v173.3c0,59.6,48.5,108.1,108.1,108.1h185.8v-54.1h-185.8c-30.5,0-54.1-25-54.1-54.1V147
					c0-30.5,25-54.1,54.1-54.1h185.8V38.8h-185.8C1633.9,38.8,1585.4,87.3,1585.4,147z M1706,295.3h134.5v-54.1h-188.6v80.4
					c0,23.6,18,41.6,41.6,41.6h185.8v-54.1h-160.8C1711.5,307.8,1706,302.3,1706,295.3z M1718.5,160.8h159.4v-55.5h-184.4
					c-23.6,0-41.6,18-41.6,41.6v80.4h188.6v-54.1H1706C1706,166.4,1711.5,160.8,1718.5,160.8z"/>
			</g>
		</g>
	</g>
</g>
</svg>
