<?xml version="1.0" encoding="utf-8"?>
<!-- Generator: Adobe Illustrator 25.4.1, SVG Export Plug-In . SVG Version: 6.00 Build 0)  -->
<svg version="1.1" id="Layer_1" xmlns="http://www.w3.org/2000/svg" xmlns:xlink="http://www.w3.org/1999/xlink" x="0px" y="0px"
	 viewBox="0 0 3839 454.1" style="enable-background:new 0 0 3839 454.1;" xml:space="preserve">
<style type="text/css">
	.st0{fill:#929497;}
	.st1{fill:#CE181E;}
	.st2{fill:#A0C90C;}
	.st3{fill:#E20123;}
	.st4{fill:#02A7E0;}
	.st5{fill:#F5AB00;}
	.st6{fill:#F02590;}
	.st7{fill:#049B81;}
	.st8{fill:#FFFFFF;}
</style>
<g>
	<path class="st0" d="M2001.1,241.1H1830c-24.8,0-44.9,20.3-44.9,45v122.1c0,24.6,20.1,44.9,44.9,44.9h171.1
		c24.8,0,44.9-20.3,44.9-44.9V286.1C2046.1,261.4,2025.9,241.1,2001.1,241.1 M2008.4,407.9c0,4.9-4,8.8-8.8,8.8h-168
		c-4.9,0-8.8-4-8.8-8.8V286.4c0-4.8,3.9-8.7,8.8-8.7h168c4.8,0,8.8,3.9,8.8,8.7V407.9z"/>
	<polygon class="st8" points="39.2,58.6 39.2,215.7 0,215.7 0,3.6 33.5,3.6 192.4,158 192.4,3.6 223.8,3.6 231.2,3.6 231.2,215.7 
		200.5,215.7 	"/>
	<polygon class="st8" points="432.7,58.6 432.7,215.7 393.4,215.7 393.4,3.6 426.9,3.6 585.8,158 585.8,3.6 617.3,3.6 624.6,3.6 
		624.6,215.7 594,215.7 	"/>
	<polygon class="st8" points="1248,58.6 1248,215.7 1208.8,215.7 1208.8,3.6 1242.3,3.6 1401.2,158 1401.2,3.6 1432.7,3.6 1440,3.6 
		1440,215.7 1409.4,215.7 	"/>
	<polygon class="st8" points="324.6,3.6 331.9,3.6 331.9,215.7 292.6,215.7 292.6,3.6 	"/>
	<polygon class="st8" points="891.8,3.6 899,3.6 899,40.2 804.4,40.2 804.4,215.7 763.7,215.7 763.7,40.2 669.1,40.2 669.1,3.6 	"/>
	<polygon class="st8" points="1143.3,3.6 1150.5,3.6 1150.5,40.2 982.4,40.2 982.4,87.7 1112.5,87.7 1112.5,124.1 982.4,124.1 
		982.4,179.1 1150.5,179.1 1150.5,215.7 943.5,215.7 943.5,3.6 	"/>
	<path class="st8" d="M1722.5,34.7c-15.3-20.3-38.1-31-65.5-31h-157.2v212H1657c27.4,0,50.2-10.7,65.5-31c14.4-18.8,22-44.8,22-75.1
		C1744.5,79.4,1736.9,53.4,1722.5,34.7 M1658.1,179.1h-120.5v-139h1.1h119.4c37.7,0,51.1,37.4,51.1,69.4
		C1709.2,141.7,1695.8,179.1,1658.1,179.1"/>
	<path class="st8" d="M2001.1,3.6H1830c-24.8,0-44.9,20.3-44.9,45v122.1c0,24.6,20.1,44.9,44.9,44.9h171.1
		c24.8,0,44.9-20.3,44.9-44.9V48.6C2046.1,23.9,2025.9,3.6,2001.1,3.6 M2008.4,170.4c0,4.8-4,8.8-8.8,8.8h-168c-4.9,0-8.8-4-8.8-8.8
		V48.9c0-4.8,3.9-8.7,8.8-8.7h168c4.8,0,8.8,3.9,8.8,8.7V170.4z"/>
	<path class="st8" d="M3276.2,364.1c40.8,16.1,126.6,29,193.7,29c73.4,0,103.8-25.1,103.8-56.7c0-28.4-28.3-45-109.4-74.7
		c-108.3-40.1-187.8-71.7-187.8-142.8c0-73.7,95.6-117,241.5-117c78.2,0,105.1,5,154.9,14.1l0.3,69.9
		c-48.9-9.3-92.1-25.2-159.3-25.2c-72,0-102.8,22.8-102.8,46.4c0,34.2,47.4,50.5,130.3,80.1c115.4,41.3,179.7,73.2,179.7,142.9
		c0,71.7-80.4,123.4-261.9,123.4c-74.5,0-125.9-4.9-183.1-14.1V364.1z"/>
	<path class="st8" d="M3121.9,421c-42.7,19.3-123.5,31.6-194.1,31.6h-269.9V2.9h269.9c70.6,0,151.4,12.5,194.2,31.8
		c103.9,46.9,137.9,122,137.9,193.2C3259.8,299,3226.2,374,3121.9,421 M2890.1,63.7h-86.4v326.8h86.4
		c132.6,0,216.1-56.6,216.1-162.8C3106.2,121.7,3022.7,63.7,2890.1,63.7"/>
	<path class="st1" d="M2468.7,206.5c0,0,125.9-20.1,125.9-98.5c0-76.7-134.1-108-276.7-108c-128.7,0-213.4,15.7-213.4,15.7v69.6
		c58.4-14.1,114.3-26.2,190.5-26.2c81.7,0,144.1,24.4,144.1,58.9c0,41.5-61.7,65.2-194.5,65.2h-61V246h56.8
		c139.8,0,219.4,21,219.4,72.4c0,45.8-71.1,73.6-159.7,73.6c-77.3,0-148-16.4-205.3-32.3v75c27.5,4.7,100.6,19.4,236.7,19.4
		c150.8,0,281.9-48.4,281.9-133.9C2613.3,248.6,2522.5,206.5,2468.7,206.5"/>
	<polygon class="st8" points="3757.8,402.2 3743.6,402.2 3743.6,394.6 3781.2,394.6 3781.2,402.2 3766.9,402.2 3766.9,444.4 
		3757.8,444.4 	"/>
	<path class="st8" d="M3829.2,424.1c-0.4-6.5-0.7-14.2-0.6-21h-0.3c-1.6,6.1-3.7,12.8-5.9,19.1l-7.3,21.6h-6.9l-6.7-21.3
		c-2-6.4-3.7-13.2-5-19.4h-0.2c-0.2,6.5-0.5,14.4-0.9,21.3l-1.1,20.1h-8.5l3.3-49.9h12l6.5,20c1.8,5.8,3.4,11.8,4.6,17.3h0.2
		c1.3-5.4,3-11.5,4.9-17.4l6.9-19.9h11.8l2.8,49.9h-8.8L3829.2,424.1z"/>
</g>
</svg>
