<?xml version="1.0" encoding="utf-8"?>
<!-- Generator: Adobe Illustrator 26.0.1, SVG Export Plug-In . SVG Version: 6.00 Build 0)  -->
<svg version="1.1" id="Layer_1" xmlns="http://www.w3.org/2000/svg" xmlns:xlink="http://www.w3.org/1999/xlink" x="0px" y="0px"
	 viewBox="0 0 3839 672.6" style="enable-background:new 0 0 3839 672.6;" xml:space="preserve">
<style type="text/css">
	.st0{fill:#F05100;}
	.st1{fill:#FFFFFF;}
	.st2{fill:#1281C4;}
	.st3{fill:#034693;}
	.st4{fill:#CF3312;}
</style>
<g>
	<g>
		<g>
			<polygon class="st1" points="3160.6,39.2 3160.6,51.9 3187,51.9 3187,140 3204.4,140 3204.4,52.2 3235.5,51.9 3235.5,39.2 			"/>
			<path class="st1" d="M3350.2,140h-16.2V84.1l-37.2,47.1l-37.3-47.1c0,0-0.1,55.8,0.1,55.9c0.2,0.1-14.9,0-14.9,0l0-100.8
				l52.4,65.1l53-65.1V140z"/>
			<rect x="2994.5" y="39.2" class="st1" width="96.7" height="582"/>
			<polygon class="st1" points="2789.5,39.2 2446.5,436.4 2103.6,39.2 2103.6,621.2 2200.3,621.2 2200.3,299.1 2446.5,584.3 
				2692.8,299.1 2692.8,621.2 2789.5,621.2 			"/>
			
				<rect x="475.8" y="39.2" transform="matrix(-1 -7.521336e-08 7.521336e-08 -1 1048.3292 561.9158)" class="st1" width="96.7" height="483.5"/>
			
				<rect x="0" y="132.2" transform="matrix(-1 -7.607888e-08 7.607888e-08 -1 96.6832 753.3883)" class="st1" width="96.7" height="489.1"/>
			
				<rect x="873.3" y="214" transform="matrix(7.656944e-08 -1 1 7.656944e-08 461.5637 1381.743)" class="st1" width="96.7" height="492.2"/>
			<polygon class="st1" points="572.5,496.2 572.5,621.2 0,152.1 0,27.2 			"/>
			<path class="st0" d="M1674.5,0c-185.7,0-336.3,150.6-336.3,336.3s150.6,336.3,336.3,336.3c185.7,0,336.3-150.6,336.3-336.3
				S1860.2,0,1674.5,0z M1674.5,96.7c-132.3,0-239.6,107.3-239.6,239.6c0,132.3,107.3,239.6,239.6,239.6
				c132.3,0,239.6-107.3,239.6-239.6C1914.1,204,1806.8,96.7,1674.5,96.7z M1674.5,558.6c-122.6,0-222.3-99.7-222.3-222.3
				c0-122.6,99.7-222.3,222.3-222.3c122.6,0,222.3,99.7,222.3,222.3C1896.8,458.9,1797,558.6,1674.5,558.6z M1674.5,576
				c-132.3,0-239.6-107.3-239.6-239.6c0-132.3,107.3-239.6,239.6-239.6s239.6,107.3,239.6,239.6C1914.1,468.7,1806.8,576,1674.5,576
				z"/>
			<polygon class="st1" points="785.2,621.2 1000.7,227.6 1216.1,621.2 1326.3,621.2 1000.7,26.2 675,621.2 			"/>
		</g>
		<g>
			
				<rect x="3623.4" y="405.6" transform="matrix(5.203487e-08 -1 1 5.203487e-08 3098.8684 4244.6309)" class="st0" width="96.7" height="334.5"/>
			<path class="st0" d="M3796,102.2c-42.2-47.9-96.4-73.2-156.7-73.2c-71.9,0-134.8,36.8-174.7,67.4l68.4,68.7
				c47.1-33.3,128-71.1,191.2,0.5c94.4,106.9-189.8,335.9-268.9,392.7v62.9h76.3c78.4-58.9,289-230,306.3-382.5
				C3843.6,186.9,3829.1,139.7,3796,102.2z"/>
		</g>
	</g>
</g>
</svg>
