<?xml version="1.0" encoding="utf-8"?>
<!-- Generator: Adobe Illustrator 26.0.1, SVG Export Plug-In . SVG Version: 6.00 Build 0)  -->
<svg version="1.1" id="Layer_1" xmlns="http://www.w3.org/2000/svg" xmlns:xlink="http://www.w3.org/1999/xlink" x="0px" y="0px"
	 viewBox="0 0 3839 1765" style="enable-background:new 0 0 3839 1765;" xml:space="preserve">
<style type="text/css">
	.st0{fill:#FFFFFF;}
	.st1{fill:#C2AC6D;}
	.st2{fill:#FCEA3C;}
	.st3{fill:#299DD8;}
</style>
<g>
	<g>
		<g>
			<g>
				<g>
					<g>
						<g>
							<path class="st1" d="M3687.4,990.8c-18.8-32-57.1-52.7-97.4-52.7h-64.3v381.8c0,20.4,16.6,36.9,37,36.9h33.4
								c41.3,0,81.1-26,98.8-64.6c25.8-56.2,27.8-125.4,27.8-145.2C3722.6,1137.1,3721.7,1049.1,3687.4,990.8z M3682.2,1286.3
								c-15.5,33.8-50.2,56.5-86.2,56.5h-33.4c-12.7,0-23-10.3-23-23V952h50.4c35.5,0,69.1,18,85.4,45.9
								c32.3,55.1,33.3,139.6,33.3,149C3708.7,1166.1,3706.8,1232.7,3682.2,1286.3z"/>
							<path class="st1" d="M3606.1,909.2h-255v34.3h9.1c44.5,0,53.6,16.7,53.6,37.4v340.5c0,20.6-9.2,37.4-53.6,37.4h-9.8v34.3
								h74.9h101.6h79.4c118.8,0,232.9-83,232.9-241.9C3839,983.3,3711.7,909.2,3606.1,909.2z M3606.1,1379.2h-241.8v-6.5
								c42.1-1,63.5-18.3,63.5-51.2V980.9c0-32.8-21.1-50-62.7-51.2v-6.5h241.1c53.8,0,107.3,19.9,146.8,54.6
								c47.2,41.4,72.1,101.4,72.1,173.5C3825.1,1307.8,3711.6,1379.2,3606.1,1379.2z"/>
						</g>
						<path class="st1" d="M3175.2,956.2c74,0,118.9,67.6,129.2,117h29.4V898.3h-25c0,0-8.8,33.5-28.1,33.5
							c-25.1,0-56.7-26.6-136.8-26.6c-114.8,0-217.1,112.1-217.1,247.9c0,172.4,115.2,247.4,231.5,247.4c64.5,0,134.3-37,175.4-97.6
							v-76.1c-30.1,58.5-90,120.7-155.2,120.7c-44,0-88.8-20.8-109.4-77.4c-10.6-29.1-14.2-67.9-14.2-119.2
							C3055,1078.6,3074.1,956.2,3175.2,956.2z M3041.1,1150.9c0,57.2,4.6,95.4,15,123.9c20,55,64.7,86.6,122.5,86.6
							c54.5,0,105.7-39,141.3-86.4v23.5c-38.1,53.6-101,88-161.5,88c-100.4,0-217.6-61.1-217.6-233.5c0-61.7,22-120.6,62-165.6
							c38.5-43.4,90-68.4,141.2-68.4c49,0,78.9,10.4,100.8,18c13.8,4.8,24.7,8.6,36,8.6c20.9,0,32.6-20.4,38-33.5h1.2v147h-4.6
							c-16.8-58.6-69.2-117-140.1-117C3050.8,942.2,3041.1,1101.9,3041.1,1150.9z"/>
					</g>
				</g>
				<path class="st1" d="M472.3,910.2H329.1V929h18.7c25,0,45.3,23.3,45.3,48.3v232.3L149,910.2H0V929c33.3,0,59.5,30,59.5,63.4
					v325.5c0,33.3-35.1,44.3-59.5,44.3v18.8h161.8v-18.8c-30.3-0.2-46.3-4.3-56.7-14.1c-10.3-9.8-13.1-22.8-13.1-40.7v-305.1
					l316,385.3h17.3v-410c0-24.3,19-44.9,47-45.9V910.2z"/>
				<circle class="st1" cx="1455.8" cy="1144.1" r="54.6"/>
				<g>
					<path class="st1" d="M1771.6,1160.8v22.7h17.8c28.9,0,37,13.9,37,38.8v111.3c-6.6,8-29.1,18.2-61,18.2
						c-6.5,0-43.3-0.7-70.8-23.3c-28.8-23.6-48.2-71.5-48.2-185.3c0-148.2,52.1-210.9,127.7-210.9c24.6,0,107.9,16.6,143.4,123.7
						h22.2V901.5h-21c-2.7,20.8-19.1,32.3-50.1,19.4c-46.8-19.5-88.7-22.4-119.4-22.4c-120.9,0-223.8,111.9-223.8,245.6
						c0,154,116.3,244.2,241.1,244.2c59.2,0,121.9-13.7,171.6-38.8v-127.2c0-29.8,20.8-38.8,48.8-38.8v-22.7H1771.6L1771.6,1160.8z"
						/>
				</g>
				<g>
					<path class="st1" d="M870,1235.7c-11.7,64.5-67.3,114.9-129.7,113.3h-53.8c-16.9,0-30.6-13.7-30.6-30.6v-165h14.8
						c44,0,72.1,36.9,72.1,100.3H762v-112.4v-5.7v-110.3h-19.3c0,55.8-23.6,96.1-72.2,96.1h-14.8V938.4h77.4
						c104.2,0,107.8,92.9,107.8,104.9h20.8V942.4v-32.3H486.1v18.7h26.5c20.3,0,36.7,19.2,36.7,39.4v346.6
						c0,36.5-23.9,44.8-44.2,44.8h-19v21.4h63.2h317.8l21.4-145.4H870z"/>
					<g>
						<g>
							<path class="st1" d="M1146.4,905.3c-135.5,0-239.8,99.8-239.8,243.2s104.4,243.2,239.8,243.2c135.5,0,239.9-99.8,239.9-243.2
								S1281.9,905.3,1146.4,905.3z M1146.4,1360.2c-65.1,0-117.8-59.6-117.8-211.8s52.8-211.8,117.8-211.8
								c65.1,0,117.8,59.6,117.8,211.8C1264.3,1300.6,1211.5,1360.2,1146.4,1360.2z"/>
						</g>
					</g>
				</g>
				<g>
					<path class="st1" d="M2373.3,1235.7c-11.7,64.5-67.3,114.9-129.7,113.3h-53.8c-16.9,0-30.6-13.7-30.6-30.6v-165h14.8
						c44,0,72.1,36.9,72.1,100.3h19.3v-112.4v-5.7v-110.3H2246c0,55.8-23.6,96.1-72.2,96.1H2159V938.4h77.4
						c104.2,0,107.8,92.9,107.8,104.9h20.8V942.4v-32.3h-375.6v18.7h26.5c20.3,0,36.7,19.2,36.7,39.4v346.6
						c0,36.5-23.9,44.8-44.2,44.8h-19v21.4h63.2h317.8l21.4-145.4H2373.3z"/>
					<g>
						<g>
							<path class="st1" d="M2649.6,905.3c-135.5,0-239.8,99.8-239.8,243.2s104.4,243.2,239.8,243.2c135.5,0,239.9-99.8,239.9-243.2
								S2785.1,905.3,2649.6,905.3z M2649.6,1360.2c-65.1,0-117.8-59.6-117.8-211.8s52.8-211.8,117.8-211.8
								c65.1,0,117.8,59.6,117.8,211.8C2767.6,1300.6,2714.7,1360.2,2649.6,1360.2z"/>
						</g>
					</g>
				</g>
			</g>
			<g>
				<path class="st0" d="M536.3,1649.2h16.6l44.2,113.2h-16.6l-12.4-34.1h-47.9l-12.7,34.1H492L536.3,1649.2z M525,1715.6h38.4
					l-18.9-52.8h-0.3L525,1715.6z"/>
				<path class="st0" d="M606,1649.2h38.8c34.9,0,54.4,17.4,54.4,53.9c0,37.9-16.6,59.3-54.4,59.3H606V1649.2z M621,1749.7h25
					c10.3,0,38-2.9,38-44.5c0-26.9-10-43.3-37.7-43.3H621V1749.7z"/>
				<path class="st0" d="M755.6,1762.3h-17.1l-39.9-113.2h16.3l32.3,98.1h0.3l32.7-98.1h15.7L755.6,1762.3z"/>
				<path class="st0" d="M827,1649.2h16.6l44.2,113.2h-16.6l-12.4-34.1H811l-12.7,34.1h-15.5L827,1649.2z M815.7,1715.6h38.4
					l-18.9-52.8h-0.3L815.7,1715.6z"/>
				<path class="st0" d="M896.6,1649.2h16l59.6,91.8h0.3v-91.8h14.3v113.2h-16.5l-59.1-90.8h-0.3v90.8h-14.3V1649.2z"/>
				<path class="st0" d="M1087.8,1683.2c-3.2-16-16-24.1-31.7-24.1c-26.9,0-38.4,22.2-38.4,45.8c0,25.8,11.4,47.4,38.5,47.4
					c19.8,0,31.2-13.9,32.7-32.7h15.1c-2.9,28.2-20.4,45.3-49,45.3c-35.2,0-52.3-26-52.3-59c0-32.8,18.7-59.6,53.6-59.6
					c23.6,0,43.1,12.7,46.6,36.8H1087.8z"/>
				<path class="st0" d="M1119.1,1649.2h78.1v12.7h-63.1v36h58.8v12.7h-58.8v39.2h63.6v12.7h-78.6V1649.2z"/>
				<path class="st0" d="M1211,1649.2h38.8c34.9,0,54.4,17.4,54.4,53.9c0,37.9-16.6,59.3-54.4,59.3H1211V1649.2z M1226.1,1749.7h25
					c10.3,0,38-2.9,38-44.5c0-26.9-10-43.3-37.7-43.3h-25.4V1749.7z"/>
				<path class="st0" d="M1410.7,1649.2h78.1v12.7h-63.1v36h58.8v12.7h-58.8v39.2h63.6v12.7h-78.6V1649.2z"/>
				<path class="st0" d="M1502.7,1649.2h16l59.6,91.8h0.3v-91.8h14.3v113.2h-16.5l-59.1-90.8h-0.3v90.8h-14.3V1649.2z"/>
				<path class="st0" d="M1640,1661.8h-37.7v-12.7h90.5v12.7H1655v100.5H1640V1661.8z"/>
				<path class="st0" d="M1702.2,1649.2h78.1v12.7h-63.1v36h58.8v12.7h-58.8v39.2h63.6v12.7h-78.6V1649.2z"/>
				<path class="st0" d="M1794.2,1649.2h53.3c21.2,0,34.4,11.6,34.4,29.6c0,13.6-6,24.9-19.7,28.7v0.3c13.2,2.5,15.8,12.2,17,23.3
					c1,11.1,0.3,23.5,6.7,31.2H1869c-4.3-4.6-1.9-16.8-4.1-27.9c-1.6-11.1-4.3-20.4-18.9-20.4h-36.8v48.3h-15.1V1649.2z
					 M1840.6,1701.3c14.1,0,26.2-3.6,26.2-20.1c0-11.1-6-19.3-20.1-19.3h-37.4v39.5H1840.6z"/>
				<path class="st0" d="M1925.6,1661.8h-37.7v-12.7h90.5v12.7h-37.7v100.5h-15.1V1661.8z"/>
				<path class="st0" d="M2005.1,1649.2h16.6l44.2,113.2h-16.6l-12.4-34.1h-47.9l-12.7,34.1h-15.5L2005.1,1649.2z M1993.9,1715.6
					h38.4l-18.9-52.8h-0.3L1993.9,1715.6z"/>
				<path class="st0" d="M2075.1,1649.2h15.1v113.2h-15.1V1649.2z"/>
				<path class="st0" d="M2111.4,1649.2h16l59.6,91.8h0.3v-91.8h14.3v113.2h-16.5l-59.1-90.8h-0.3v90.8h-14.3V1649.2z"/>
				<path class="st0" d="M2222.9,1649.2h20.6l35.7,95.1l35.8-95.1h20.6v113.2h-14.3v-94.2h-0.3l-35.3,94.2h-12.8l-35.3-94.2h-0.3
					v94.2h-14.3V1649.2z"/>
				<path class="st0" d="M2357.2,1649.2h78.1v12.7h-63.1v36h58.8v12.7h-58.8v39.2h63.6v12.7h-78.6V1649.2z"/>
				<path class="st0" d="M2449.1,1649.2h16l59.6,91.8h0.3v-91.8h14.3v113.2h-16.5l-59.1-90.8h-0.3v90.8h-14.3V1649.2z"/>
				<path class="st0" d="M2586.4,1661.8h-37.7v-12.7h90.5v12.7h-37.7v100.5h-15.1V1661.8z"/>
				<path class="st0" d="M2805.3,1682.3c-1.7-16.2-12.5-23.1-28.1-23.1c-12.7,0-25.4,4.6-25.4,19.3c0,13.9,18.1,16,36.3,20.1
					c18.1,4.1,36.1,10.5,36.1,32.7c0,24.1-23.6,33.8-44.2,33.8c-25.4,0-46.8-12.4-46.8-39.9h14.3c0,19,15.8,27.3,33,27.3
					c13.6,0,28.7-4.3,28.7-20.6c0-15.5-18.1-18.2-36.1-22.2c-18.1-4-36.3-9.2-36.3-30c0-23,20.4-33.1,41.1-33.1
					c23.1,0,40.7,10.9,41.7,35.8H2805.3z"/>
				<path class="st0" d="M2880.2,1716.1v46.3h-15.1v-46.3l-43.7-66.9h17.9l33.9,53.9l33.1-53.9h17.1L2880.2,1716.1z"/>
				<path class="st0" d="M2993.8,1682.3c-1.7-16.2-12.5-23.1-28.1-23.1c-12.7,0-25.4,4.6-25.4,19.3c0,13.9,18.1,16,36.3,20.1
					c18.1,4.1,36.1,10.5,36.1,32.7c0,24.1-23.6,33.8-44.2,33.8c-25.4,0-46.8-12.4-46.8-39.9h14.3c0,19,15.8,27.3,33,27.3
					c13.6,0,28.7-4.3,28.7-20.6c0-15.5-18.1-18.2-36.1-22.2c-18.1-4-36.3-9.2-36.3-30c0-23,20.4-33.1,41.1-33.1
					c23.1,0,40.7,10.9,41.7,35.8H2993.8z"/>
				<path class="st0" d="M3052.1,1661.8h-37.7v-12.7h90.5v12.7h-37.7v100.5h-15.1V1661.8z"/>
				<path class="st0" d="M3114.3,1649.2h78.1v12.7h-63.1v36h58.8v12.7h-58.8v39.2h63.6v12.7h-78.6V1649.2z"/>
				<path class="st0" d="M3206.4,1649.2h20.6l35.7,95.1l35.8-95.1h20.6v113.2h-14.3v-94.2h-0.3l-35.3,94.2h-12.8l-35.3-94.2h-0.3
					v94.2h-14.3V1649.2z"/>
			</g>
			<g>
				<g>
					<g>
						<path class="st0" d="M1279.2,1464.4h49.6c22.5,0,34.7,12.5,34.7,33.4c0,20.9-12.2,33.6-34.7,33.4h-34.6v46.3h-15.1V1464.4z
							 M1294.3,1518.6h29.5c17,0.2,24.7-7.3,24.7-20.8c0-13.5-7.8-20.8-24.7-20.8h-29.5V1518.6z"/>
						<path class="st0" d="M1375.6,1464.4h53.3c21.2,0,34.4,11.6,34.4,29.6c0,13.6-6,24.9-19.7,28.7v0.3c13.2,2.5,15.8,12.2,17,23.3
							c1,11.1,0.3,23.5,6.7,31.2h-16.8c-4.3-4.6-1.9-16.8-4.1-27.9c-1.6-11.1-4.3-20.4-18.9-20.4h-36.8v48.3h-15.1V1464.4z
							 M1422.1,1516.6c14.1,0,26.2-3.6,26.2-20.1c0-11.1-6-19.3-20.1-19.3h-37.4v39.5H1422.1z"/>
						<path class="st0" d="M1528.6,1461.7c36,0,54.2,28.5,54.2,59.3c0,30.7-18.2,59.3-54.2,59.3c-36,0-54.2-28.5-54.2-59.3
							C1474.3,1490.2,1492.6,1461.7,1528.6,1461.7z M1528.6,1567.6c27.6,0,39.2-23.8,39.2-46.6c0-22.8-11.6-46.6-39.2-46.6
							c-27.6,0-39.1,23.8-39.1,46.6C1489.4,1543.8,1501,1567.6,1528.6,1567.6z"/>
						<path class="st0" d="M1597.8,1527.2h54.4v12.7h-54.4V1527.2z"/>
					</g>
				</g>
				<g>
					<g>
						<path class="st0" d="M2226.1,1497.5c-1.7-16.2-12.5-23.1-28.1-23.1c-12.7,0-25.4,4.6-25.4,19.3c0,13.9,18.1,16,36.3,20.1
							c18.1,4.1,36.1,10.5,36.1,32.7c0,24.1-23.6,33.8-44.2,33.8c-25.4,0-46.8-12.4-46.8-39.9h14.3c0,19,15.8,27.3,33,27.3
							c13.6,0,28.7-4.3,28.7-20.6c0-15.5-18.1-18.2-36.1-22.2c-18.1-4-36.3-9.2-36.3-30c0-23,20.4-33.1,41.1-33.1
							c23.1,0,40.7,10.9,41.7,35.8H2226.1z"/>
						<path class="st0" d="M2260.4,1464.4h49.6c22.5,0,34.7,12.5,34.7,33.4c0,20.9-12.2,33.6-34.7,33.4h-34.6v46.3h-15.1V1464.4z
							 M2275.4,1518.6h29.5c17,0.2,24.7-7.3,24.7-20.8c0-13.5-7.8-20.8-24.7-20.8h-29.5V1518.6z"/>
						<path class="st0" d="M2356.8,1464.4h78.1v12.7h-63.1v36h58.8v12.7h-58.8v39.2h63.6v12.7h-78.6V1464.4z"/>
						<path class="st0" d="M2527.4,1498.5c-3.2-16-16-24.1-31.7-24.1c-26.9,0-38.4,22.2-38.4,45.8c0,25.8,11.4,47.4,38.5,47.4
							c19.8,0,31.2-13.9,32.7-32.7h15.1c-2.9,28.2-20.4,45.3-49,45.3c-35.2,0-52.3-26-52.3-59c0-32.8,18.7-59.6,53.6-59.6
							c23.6,0,43.1,12.7,46.6,36.8H2527.4z"/>
					</g>
				</g>
				<g>
					<g>
						<path class="st0" d="M1757.3,1563.5c-8.7,11.9-23,16.8-36.3,16.8c-33.8,0-53.9-27.6-53.9-57.1c0-33,18.1-61.5,53.9-61.5
							c24.7,0,44.4,11.1,48.7,37.6h-15.1c-3-17.1-16.8-24.9-33.6-24.9c-27.4,0-38.8,23.8-38.8,48c0,23.6,13.6,45.2,38.8,45.2
							c23.3,0,37.2-16.3,36.3-36.9h-36.1V1518h49.6v59.6h-9.5L1757.3,1563.5z"/>
						<path class="st0" d="M1790.4,1464.4h78.1v12.7h-63.1v36h58.8v12.7h-58.8v39.2h63.6v12.7h-78.6V1464.4z"/>
						<path class="st0" d="M1919.3,1464.4h16.6l44.2,113.2h-16.6l-12.4-34.1h-47.9l-12.7,34.1h-15.5L1919.3,1464.4z M1908.1,1530.8
							h38.4l-18.9-52.8h-0.3L1908.1,1530.8z"/>
						<path class="st0" d="M1989,1464.4h53.3c21.2,0,34.4,11.6,34.4,29.6c0,13.6-6,24.9-19.7,28.7v0.3c13.2,2.5,15.9,12.2,17,23.3
							c1,11.1,0.3,23.5,6.7,31.2h-16.8c-4.3-4.6-1.9-16.8-4.1-27.9c-1.6-11.1-4.3-20.4-18.9-20.4h-36.8v48.3H1989V1464.4z
							 M2035.4,1516.6c14.1,0,26.2-3.6,26.2-20.1c0-11.1-6-19.3-20.1-19.3h-37.4v39.5H2035.4z"/>
					</g>
				</g>
			</g>
		</g>
	</g>
	<g>
		<g>
			<g>
				<polygon points="2110.5,617.5 1920.7,807.3 1573,807.3 1327.2,561.5 1327.2,213.9 1529.1,12.1 1728.4,211.4 1918.2,21.6 
					2265.9,21.6 2511.7,267.4 2511.7,614.9 2309.8,816.8 				"/>
				<path class="st0" d="M1529.1,24.1l199.3,199.3l193.3-193.3h340.5l240.8,240.8v340.5l-193.3,193.3l-199.3-199.3l-193.3,193.3
					h-340.5L1335.8,558V217.4L1529.1,24.1 M1529.1,0L1517,12.1l-193.3,193.3l-5,5v7.1V558v7.1l5,5l240.8,240.8l5,5h7.1h340.5h7.1
					l5-5l181.3-181.3l187.2,187.2l12.1,12.1l12.1-12.1l193.3-193.3l5-5v-7.1V270.9v-7.1l-5-5L2274.4,18l-5-5h-7.1h-340.5h-7.1l-5,5
					l-181.3,181.3L1541.2,12.1L1529.1,0L1529.1,0z"/>
			</g>
			<g>
				<polyline class="st2" points="1590.7,764.7 1369.8,543.9 1369.8,231.6 1529.1,72.3 2062.3,605.4 1903,764.7 				"/>
				<polygon points="1584.4,314.7 1603.7,274.9 1635,273.4 1668.2,315.4 1652.3,352.3 1612,358.9 				"/>
				<polygon points="1506.4,388.1 1518.6,414.4 1485.1,438.6 1463.4,425.2 1461.7,402 1481.9,385.6 				"/>
				<polygon points="1597,639.9 1660.8,656.8 1724.5,650.2 1769.6,617.6 1794.1,566.7 1810.3,484.6 1827.1,567.4 1816.1,612.8 
					1772.5,668.2 1732.6,688.3 1673.6,688.7 				"/>
				<polygon class="st3" points="1980,249.4 1974.5,315.8 2023.5,357.5 2079.6,335.9 2075.9,276.6 2036.4,237 				"/>
				<polygon class="st3" points="2109.1,178.9 2128.9,146.7 2170.6,151.8 2184.6,183.3 2160.8,216.6 2120.8,210.4 				"/>
				<polygon class="st3" points="2186.4,480.1 2247.6,453.7 2256.9,424.9 2250.5,352.6 2353.1,334.3 2375.4,452.2 2370,490 
					2326,505.3 2313.5,567.6 2235.9,577.2 2197.4,546.4 				"/>
			</g>
		</g>
	</g>
</g>
</svg>
