<svg id="Layer_1" data-name="Layer 1" xmlns="http://www.w3.org/2000/svg" viewBox="0 0 3839 1148.14"><defs><style>.cls-1{fill:#fff;}.cls-2{fill:#0874cc;}.cls-3{fill:#ff131d;}</style></defs><path class="cls-1" d="M2735.17,1070.06c-1.74-8.16,9.32-14,8.16-19.8s-2.92-17.47-4.66-21-7.57,2.33-7.57-3.49,6.4-2.91,8.15-9.9,7-12.23,6.4-23.3-8.73-1.16-7.57-9.31,9.9-7,8.16-13.4-5.24-7.57-11.65-9.9-6.41-11.06-16.31-10.48-14,8.15-19.8,7.57-20.38-9.37-27.37-7.6-7-4.05-14.55-5.79-8.74,7-14.56,7.57-8.84-5.86-17.47-5.24c-8.16.58-12.23,3.49-18.64,2.91s-20.38,4.66-27.37,4.66-12.81,1.74-20.38,1.16-7.57-1.74-13.39-1.74-2.33,0-10.49,2.32-22.13,5.25-28.53,5.25-8.15-7-16.31-6.41-3.72,2.33-15.55,3.49-21.72-1.74-29.29-.58-9.32-2.91-16.89-4.66-11.64,7.57-25.62,7-29.7.58-34.94-.58-4.66-9.9-10.48-9.32-4.66,7-12.81,7.57-17.48,4.66-22.72,2.91-5.24-8.73-13.39-9.31-8.15,4.07-18.05,7-26.79,2.92-32,1.17-8.16.58-14.56,0-16.31-2.91-22.13-4.08-16.31-4.66-23.29-4.07-21.55,2.91-29.7,2.91-9.32-8-18.64-10.13-16.3,9-26.2,10.13-19.8,6.4-28.54,5.24-9.9-6.41-19.22-9.32-23.29,3.5-32.61,5.82-24.46,2.92-33.19,2.92-19.8-9.9-26.21-9.9-10.48,7-23.87,7.57-34.36-5.83-41.93-5.24-7.57,8.73-15.73,7.57-32.61-6.41-40.76-5.83-1.17,6.41-8.74,5.83-29.7-13.8-39-15.06-16.89,14.47-25,13.31-32,3.49-38.44.58-11.06-13.36-20.38-14-22.13,6.39-29.12,6.39-10.48-3.53-18.63-6.42-9.32,8.75-20.39,11.08-19.21,5.82-26.78,5.24-22.13,1.17-25,2.33,8.73,5.82,0,6.41-10.49-8.16-16.89-8.74-8.16,4.08-15.73,2.91-21.54,5.83-29.7,5.24-3.49-6.4-12.81-7.57-38.35,5.83-42.18,6.41-11.39-7.57-21.29-7.57-34.36,8.15-41.93,7-22.71-20.76-34.94-23.19-11.65,9.21-23.88,11.54-18.05,6.41-26.21,6.41-7.57,9.31-15.14,7.57-7-12.82-16.3-12.82-32,13.4-44.26,12.23-23.88-2.33-36.11-4.66-25.62-9.31-33.77-8.73-10.48,12.23-19.8,10.48-21-16.3-30.89-15.14-16.86,10.48-26.18,9.9-19.8-8.15-29.12-10.48-23.88,12.81-29.7,16.3-12.81,9-14,15-1.16,6,0,8.9,4.08-1,6.41,7.38,2.33,23.48-4.66,28.73-18,3.49-14.56,11.06-1.16,15.14,11.07,16.89,16.3,4.08,10.48,14-8.74,11.06-9.9,18-6.41,6.4-2.91,12.81,6.4,5.5,9.9,14.69,4.66,12.68,10.48,18.5,4.66,7.57,10.48,8.16,12.81-16.31,23.3-13.4,15.72,7,28.53,7,33.78,1.17,44.26,1.17,12.81,6.4,30.86,6.4,18.64-1.16,29.12-1.16,4.08,8.15,15.14,8.73,40.18-19.8,54.74-19.22,15.73,9.9,33.2,9.9,47.17-4.65,55.9-4.65,7.57-7.58,14.56-7.58,32.61,11.65,44.26,14.56,34.94-3.49,46-2.33,9.31,7,17.47,7,28-3.49,34.35-3.49,13.4-7,22.13-7,30.29,5.24,47.17,7,25.63-15.14,39.6-15.14,15.73,4.07,23.88,5.24,14.56,12.23,25.62,12.81,23.3-9.9,30.87-9.32,6.4,1.75,12.81,4.08,14-5.24,24.46-5.24,11.64-1.75,21-.58,9.9,0,13.4,1.16.58,3.49,7.57,4.66,27.37-5.24,34.35-7.57,10.49-5.83,15.73-5.83,29.7,14,39,13.4,15.14-9.9,25-10.48,41.34,2.33,50.08,2.91,11.65,9.32,25,9.32,26.2-9.32,37.27-9.9,27.37,2.91,36.69,4.07,9.9-5.82,20.38-5.24,16.89,8.74,31.45,10.48,15.72-8.15,26.78-7,50.75-2.33,52.75,1.16-1.5,7,4.32,8.15,16.89-10.48,31.45-9.31,52.41,1.16,62.89,1.16,32.62,5.24,42.52,7.57,8.73-6.41,14.55-5.24,9.9-.58,19.22,1.16,14.56-6.4,25-5.82,17.47,9.9,31.45,12.23,24.46-12.23,34.94-10.48,13.39,4.66,20.38,5.82,7.57-6.4,16.89-6.4,22.71,4.65,30.28,5.82,3.5,8.76,12.81,8.16,5.25-8.74,16.89-8.74,22.13,5.24,30.28,5.82,7-5.24,17.48-5.82,7-5.83,15.14-6.41,4.65,4.66,12.23,5.24,7.57-5.24,13.39-4.07,5.24,14,27.95,14c12.23,0,8.74-13.39,22.13-15.14s21.55,11.65,22.71,2.91-3.49-6.4,1.17-8.73,13.39.13,12.23-6.92-6.41-6.48-7.57-14.63,15.72-5.24,12.81-15.14S2736.92,1078.21,2735.17,1070.06Z"/><path class="cls-1" d="M3467.28,303.22c-13.94,6-19.91,17.93-10,25.89,17.1,13.68,45.8-17.92,37.83-25.89S3481.22,297.25,3467.28,303.22Z"/><path class="cls-1" d="M2301.68,315.84c9.29,5.31,4,38.49,10.62,55.75s13.28,19.92,14.6,37.17-10.62,15.94-8,30.54,9.29,10.62,10.62,31.83,9.29,35.87,14.6,33.22,5.31-13.28,8-26.55-6.64-17.26,0-33.19,10.62-22.57,2.65-31.86-5.31-23.9-5.31-34.52,10.62-18.59,25.23-23.9,31.86-5.31,51.77-6.63,18.59-9.3,34.52-11.95,34.52,11.95,42.48,14.6S2542,353,2548.61,361s-1.33,35.85-1.33,54.43-23.9,57.09-23.9,71.69,11.95,2.66,13.28,13.28-13.28,53.1-10.62,74.34S2546,599.93,2546,617.19s-21.24,42.48-18.58,63.73-22.57,30.53-22.57,45.13,6.64,29.21,10.62,54.43-14.61,33.19-33.19,37.17-23.9-26.55-30.53-33.18-8-30.54-14.61-42.49-14.6-14.6-19.91-22.57,0-19.91,1.33-29.2-10.62-13.28-19.92-6.64,0,6.64,2.66,19.91,13.27,25.23,17.26,34.52,8,19.91,8,38.5,9.29,37.17,15.93,50.45,50.45,62.39,59.74,70.36,21.24-1.33,29.21-1.33,30.53,23.9,38.5,23.9,5.31-13.28,13.27-12,15.94,6.64,30.54,0,0,0,2.65-14.6,6.64-30.54,6.64-38.5,8-29.21,14.6-42.49,11.95-18.58,14.61-27.87-6.64-12-10.62-18.59,1.32-14.6,9.29-22.57,17.26-22.57,23.9-35.84-9.3-1.33-17.26-2.66-5.31-10.62-5.31-27.88-1.33-22.57-1.33-22.57,10.62-17.25,14.6-21.24,8-23.89,10.62-31.86,0-71.69,0-87.62,4-11.95,10.62-18.58-2.65-27.88-6.63-38.5,6.63-10.62,14.6-14.61-1.33-15.93-5.31-26.55,2.65-15.93,14.6-29.2,0,0-6.63-9.3,0-14.6,11.94-21.24,22.57-9.29,15.93-18.58,17.26-11.95,27.88-9.3,39.83,12,53.11,8,21.24-2.66,37.17-4,14.6,6.63,38.5,1.32,10.62-6.63,26.55-13.27,8-14.61,17.26-21.24,6.63-8,11.8-21.24-6.49-4-2.51-14.61,2.65-10.62,0-21.24-35.85-9.29-49.12-9.29-49.12-13.28-59.74-13.28-41.16,8-51.78,12-26.55,21.24-39.82,17.26-14.61-9.29-23.9-11.95-41.15-26.55-53.1-26.55-31.86,22.57-41.16,22.57-17.25-8-27.88-8-33.18,5.31-47.79,2.66-25.22-11.95-38.5-10.62-26.55,6.64-43.81,6.64-22.57-13.28-46.46-14.61-78.33,27.88-87.62,35.85-1.33,8,9.29,25.22S2311,291.94,2303,290.61a5.28,5.28,0,0,1-.85-.28c-1.67,6.73-3.63,13.42-5.16,20.12a102.42,102.42,0,0,0-1.83,10.66C2296.29,315.85,2296.73,313,2301.68,315.84Z"/><path class="cls-1" d="M3833.69,179.46c-12-21.6-25.89-11.65-37.84-31.56s10-27.88-17.92-29.87-39.82,8-59.74,0-12-19.92-37.83-33.85-17.93,6-33.86,0-8-27.88-35.84-29.88-23.9,19.92-39.83,13.94S3554.9,46.34,3539,40.37s0,33.85-31.86,23.89-35.85-13.17-69.7-24.51-21.9,8.58-51.77,8.58-49.79,8-75.67,10-19.92-2-37.84-2-21.9,6-35.84,13.94,19.91-2-13.94,8-23.9,0-49.79,6,12,23.89-11.95,23.89-23.89-11.95-47.79-10S3075,126,3067,141.92s0,31.87-19.91,35.85-17.92,4-31.86,6-4,7.93-13.94,25.87-15.93,27.9-21.91,43.83-4,13.94,0,29.87-3.56,33.85-3.77,43.81S2971.44,347,2989.36,345s6-10,15.93,10-6,35.84,11.95,39.83,29.87-4,41.82,0,27.87,4,37.83,11.94-2,27.88,10,33.86,21.9-8,37.83,0,23.9,27.88,23.9,27.88a28.21,28.21,0,0,0,6.56,6.4c-4.78-2.19-10.42-2.51-16.52,1.56-17.92,11.95-9.95,25.89-21.9,29.87s-15.93,11.56-25.89,14.74-4,11.15-17.92,21.11-15.93-4-33.85,9.95-21.91,8-31.87,17.92,2,17.93-11.94,29.87-45.8,21.91-61.74,39.83-31.86,31.86-37.83,39.83-4,21.9-11.95,29.87-27.88,29.87-43.81,35.84-10,19.92-15.93,27.88-4,25.89-17,27.88-20.87-6-34.81,8,15.93,8,0,29.87-25.89,47.69-27.88,51.72,4,20,15.93,25.94,2,13.94,15.93,23.89-11.95,15.94,6,21.91,10-4,27.88,0,8,25.89,29.87,21.9,45.8,1,61.73.49,45.8-11.4,59.74,0,6,28.69,21.91,35,8-9.63,25.89-11.62,41.81,11.28,55.75,11.62,6-15.6,33.86-13.61,35.84,10.23,55.75,15.07,43.81-9.1,65.72-13.08,23.89,2,41.82-2,21.9-11.95,33.85-10,59.74-2,75.67,2,25.89-13.94,41.82-17.92-2-8,15.93-4,15.93-17.92,35.84-17.92-6,2,19.92,0,2-12,29.87-17.93-4,11.95,27.88-6,35.84-17.92,43.81-35.84,6-17.93,17.92-31.87,13.94-9.95,29.87-27.87,39.83-2,39.83-19.92-12-12,0-37.83,37.83-11.95,29.87-33.86-25.89,6-23.9-17.92,31.86-12,29.87-37.83-21.91-15.93-19.91-39.83,33.85-4,21.9-21.91-27.88-19.91-51.77-21.9-33.86-6-17.93-31.86-15.93-11.95-29.87-27.88-27.88-17.92-53.76-35.85-39.83-11.94-33.86-27.87,23.9-4,6-15.93-23.9,11.94-43.81,8-19.91,0-37.84-10-35.84-37.83-47.79-43.81-15.93-8-29.87-13.94-12-6-17.92-15.93l-6-9.95S3405.55,349,3421.48,349s-4-15.93-26.88-8-58.75,43.81-78.66,41.82-27.88-10.12-51.78-22-21.9-7.88-41.81-9.87-29.87-10.44-37.84-12.19,31.86-27.64,0-27.64-49.78-2-63.72,0-39.83,0-21.91-19.91,19.92-25.89,19.92-37.84,4-10,21.9-21.91,29.87-13.93,47.79-13.93,27.88-6,33.86-17.93,23.53-17.92,37.65-19.91,30.05,15.93,46,13.94,23.9-11.95,39.83-6,0,2,15.93,6,19.91-14.25,33.85-14.09,13.48,24,31.63,22,.24-24.2,24.13-22.06,17.92,14.1,49.78,18.08,41.82-10,57.75,6,21.91,13.94,35.85,27.87,25.89,25.89,39.83,37.84,33.85-10,35.84,21.91,10,21.9,29.87,33.85,2,21.9,23.9,23.89,63.72-8,71.68-29.87-2-2.21,12-37.94,25.89-43.7,25.89-57.64S3845.64,201.06,3833.69,179.46Zm-629.27,299c23.9-8,31.87,23.9,49.79,19.92s63.72-19.23,55.76.34-15.94,43.47,2,39.48,53.76-17,61.73.44,2,19.48,17.92,29.43,47.79,8,51.78,21.91-10,25.88,6,31.86,23.9-23.9,39.83,0,29.87,35.84,21.9,51.77-10,10-12,27.88,10,27.88,6,35.85-21.91-21.91-15.93,0,15.93,37.83,13.94,47.79,17.92,12-10,19.91-27.88-17.92-45.8,0,6,39.83-15.93,35.85-39.83,8.91-55.76.47-19.91,47.32-37.84,43.34-19.91-17.93-39.82-23.9-25.89,12-43.81,8-39.83,13.94-55.76,8-8-17.92-25.89-17.92-19.91,4-29.87,4-21.9,18.33-33.85,22.11S3083,860.8,3069,866.77s-35.84,17.05-45.8,18.48-32.48-7.4-48.1,0-35.53,6.86-47.48.16-13.94-22.62-27.88-18.64-11.95,15.94-33.85,10-47.8-2-35.85-19.91,15.93-2,27.88-27.88,6-4,12-25.89,6-13.94,15.93-35.84,21.9-17.92,27.88-31.86,4-13.94,15.93-29.87,10-21.91,29.87-29.87,33.85-2,43.81-25.89,23.89-19.92,31.86-37.84S3053.08,584,3065,576s29.87-10,41.82-21.91,37.83-12.33,47.79-33,35.84-30.67,35.84-30.67-4.25-7.89-11.08-13C3185.32,480.38,3193.65,482.05,3204.42,478.46Z"/><path class="cls-1" d="M1056.73,836.46l.31-.38c7.13-2.13,14.35-4,21.65-5.43,4-.81,3.56-6.63,0-7.68a66.38,66.38,0,0,1-11.32-4.58,15.62,15.62,0,0,0,.25-6.37,50.53,50.53,0,0,0,5.4-13.64c.16-.72.25-1.45.39-2.17l-.4-.32c.33-1,.67-2.06,1-3.08.27-1.7.48-3.39.65-5.09a24.9,24.9,0,0,1,9.73-6.51,2.05,2.05,0,0,0,1.46-1.92,2,2,0,0,0-1.46-1.92,26.09,26.09,0,0,1-9-4.07c.1-8-.14-16.11.21-24.13l5.2-5.68c1.5-1.64,3.52-3.36,3.58-5.76s-1.35-4.46-2.25-6.46l-2.55-5.61a26.39,26.39,0,0,0,4-3.07c7-6.69,6.79-16.71,2.37-24.73a47.25,47.25,0,0,0-8.89-11.06,59.66,59.66,0,0,0-11.16-20c.73-9.17,8.28-16,15.3-21.34,3.57-2.71,1.57-8.12-3.06-7.28a231.82,231.82,0,0,1-41.65,3.66c-.06-.7-.12-1.41-.12-2.14,0-9.17-1.46-17.22-7-25.37-6.57-9.58-16.86-16.92-28.22-23.37,3.5-3.06,6.24-6.49,6.73-10.76,1.27-11-14.08-13.3-25.22-14-12-.77-24.22,0-36.26.67-22.43-10.19-48.93-11.12-75.55-18.76-19.92-5.71-37.65-12.54-56.28-15,6.83-3.1,15.68-4.79,22.06-3.78,15.81,2.49,32.52-3.45,55.39-2s30-18.64,65.92-24.52-3.13-10.55,25.38-27.16c28.71-16.47,14.63-16.07,57.77-5.25,43,11.05,11.71-23,7.58-40.39-4-17.33,4.08-35.49,43.28-46,25.31-6.81,26.88-21.43,26.88-21.43a82.58,82.58,0,0,1,.47-13.27c3.61-2.42,5.94-6.88,4.24-11.78,1.9-3.14,4.5-6.61,8-11.18,6.89-3.46,14.34-5.35,19.23-11.79a24.77,24.77,0,0,0,4.56-10.24A160.92,160.92,0,0,1,1190,288.92c4.52,7.46,9.51,13.12,13.69,13.64,10.62,1.33,37.17,21.24,37.17,30.53s13.27,21.24,16.14,34.52-24.11,17.26-21.45,30.53,19.91,18.59,21.24,35.85-4,45.14-6.64,67.7-17.26,22.57-14.6,43.81,5.31,38.5,7,66.38-14.92,22.57-13.59,39.83-2.65,9.29,4,23.9,9.3,22.56,9.59,41.15-3,55.76-.29,74.34-13.28,13.28-29.21,13.28-29.21-1.33-25.22,21.24c1.58,9,1.66,14.55-.19,18.65,2.71,12.42,4.25,25.32,9.64,36.72a46.67,46.67,0,0,1,10.46.39c29.21,4,17.26,31.86,30.53,31.86s17.26-5.31,33.19-5.31,57.09-2.66,73,1.33,29.21-14.61,42.48-15.93,38.5,11.94,63.72,11.94,34.52-17.25,49.12-15.93S1513,900,1528.89,900,1564.73,884,1578,884s25.22,14.61,43.81,13.28S1639.08,884,1657.66,884s23.9,15.93,34.52,17.26,19.91-4,38.5-4,17.26-10.62,30.53-9.29,8,4,23.9,4c15.65,0-.71-9,13.82-9.28,6.4,6.94,11.67,12.37,14.26,14.59,9.29,8,21.24-1.33,29.21-1.33s30.53,23.9,38.5,23.9,5.31-13.28,13.27-12,15.93,6.64,30.54,0,0,0,2.65-14.6c2.2-12.07,5.26-25,6.27-33.61a24.54,24.54,0,0,1,3.65-3.7,31.94,31.94,0,0,0,6-6.25,2,2,0,0,0-.31-2.41,3.79,3.79,0,0,0-3-1.09,4.62,4.62,0,0,1-2.24-.28,12.2,12.2,0,0,1-1.9-1.13,206,206,0,0,1,12.75-32.52c6.64-13.27,12-18.58,14.61-27.87s-6.64-12-10.62-18.59,1.32-14.6,9.29-22.57,17.26-22.57,23.9-35.84-9.3-1.33-17.26-2.66-5.31-10.62-5.31-27.88-1.33-22.57-1.33-22.57,4.16-6.76,8.25-12.79c11.09.53,22.11-4,34.08-3.06,9.42.76,15.52,4.58,25.41,2.54a61.19,61.19,0,0,0,12.48-4.56,54.73,54.73,0,0,0,6.19-3.06,14,14,0,0,0,1.47-.49c6.45,10.59,12,13,27.67,13,6.52,0,13.66,2.5,20.12,1.54,8.7-1.29,13.59-7.88,22.72-8.48,5.33,4.39,11.63,7.15,19.27,6.38s11.49-5.74,17.8-9.14a38.5,38.5,0,0,1,13.85-4.48c4.17,7.49,8.61,14.76,9.15,23.64.26,4.15.22,8.39.07,12.66a42.52,42.52,0,0,0-5.77,13.8.87.87,0,0,0,.09.11,1.28,1.28,0,0,1,.15.24l.23.25c.56.65,1.11,1.3,1.69,1.93,1.31,1.45,2.67,2.86,4,4.28,3,3.11,5.93,6.24,8.61,9.61,5.78,7.27,11.38,16.72,6.76,26.07a20.43,20.43,0,0,1-9.84,9.23c-1.35.63-2.74,1.37-4.12,1.94l-.09.37s0,.1,0,.47a4.81,4.81,0,0,1,.22.82,17.82,17.82,0,0,1,1.09,3.41,13.82,13.82,0,0,1-1.65,10.32c-2,3.19-5.12,4.46-8.21,5.93,1.11,3.46,2.53,7.12,4.29,11.33a30,30,0,0,1,2.24,10.22,18.29,18.29,0,0,1-6.79,2.44c-2.26.33-3.11,3-2.78,4.9a89.89,89.89,0,0,0,4.56,17.79c-1.68,4.92-3.43,9.77-4.66,14.48-3.45,13.21-4.81,26.46.39,39.38,3.47,8.6,2.85,11.12.65,19.3-1.76,6.56-3,11.53.55,17.88,5.59,10,17.87,13.58,28.7,12.55a55.73,55.73,0,0,0,5.84-.87,8.14,8.14,0,0,0,1.3,0,145.61,145.61,0,0,0,20.8-5.05,37.5,37.5,0,0,0,10-5l3.45-2.26,10.46-6.8c1.37-.89,1.28-3.24-.47-3.64a72.85,72.85,0,0,1-18.23-6.92c.57-1.13,1.17-2.29,1.81-3.47.44-.83,1-1.61,1.44-2.42,12.39,4.61,28.18,4.25,39,.43a22.41,22.41,0,0,0,9-5.82,45.08,45.08,0,0,0,7.15,2.38,6,6,0,0,0,6.28-2.14,5.66,5.66,0,0,0,1.18-2.83,6.52,6.52,0,0,0-.71-3.81q-3.51-7.68-7-15.38a14.44,14.44,0,0,1,2.53-8.41c2.13-3.09,5.69-5,7.28-8.8,1.13-2.66.15-11.82,1.51-13.46a10.17,10.17,0,0,1,5.17-2.79c.87.58,1.77,1.12,2.63,1.73,1.2.85,2.39,1.74,3.57,2.63l.09.07.83.65c.62.49,1.23,1,1.84,1.5q3.57,2.94,6.91,6.14a6,6,0,0,0,7.84.46c2.22-1.71,3.22-5.22,1.54-7.7a39.75,39.75,0,0,1-2.62-4.46c-.19-.38-.38-.77-.56-1.16l-.26-.63c-.26-.67-.52-1.35-.75-2s-.33-1.3-.51-2c6.42-3.25,12-8.48,13.46-15.83,2.56-12.5-6-20.22-11.72-30s-7.14-20.6-9.9-31c2.59-8.88,6.53-19.09,6.4-27.81-.11-6.75-3.71-12.21-5.41-18.82a124.7,124.7,0,0,1-2.79-16.41c.83-.46,1.66-.9,2.5-1.31l1.62-.76.64-.28.14-.06,0,0,0,0,0,0c2.36-1,4.46-2.93,4.33-5.74a6.14,6.14,0,0,0-4.38-5.76c-.54-.14-1.07-.29-1.6-.47l-.07,0a14.53,14.53,0,0,0-2.11-1.16l0,0c-.19-.18-.42-.34-.6-.51a20,20,0,0,1-1.63-1.69l-.65-.78,0,0h0c-.26-.34-.51-.69-.76-1a74.31,74.31,0,0,0-3-11.46,55.24,55.24,0,0,0-8.88-16.5c-2-2.43-5.07-4.64-6.8-7.08-4.9-6.92-4.63-10-4-15.05,1.08-1.27,2.17-2.55,3.19-3.91,5.25-7,3.88-15.53-.64-22.52s-10.89-12.85-17.21-18.08c-2.86-3.35-5.92-6.6-8.62-10.07a13.46,13.46,0,0,1,.08-2.61l.36-1.48c.63-.92,1.26-1.79,1.73-2.55a27.06,27.06,0,0,0,4.32-11.9c.31-3.19-3-6-6-6a36.89,36.89,0,0,0-8.5,1.14c-.13-4.55.11-9.23.12-14.12,0-3.79.11-7.59.21-11.38q2.79-5.94,5.6-11.87c2.87-6.06,6-12.1,6.5-18.92.36-5.42-1.7-11.48-5.91-15a14.66,14.66,0,0,0-4.8-2.72c0-3,.11-6,.06-9-.23-16.72-3.46-31.08-8-46.17q3.36-2,6.84-3.83c4.46-2.3,3.54-9.86-1.43-10.92-1.11-.24-2.21-.5-3.3-.83-.54-.17-1.07-.37-1.61-.56,1.06.37-.53-.25-.63-.31-.51-.25-1-.55-1.47-.84l-.34-.19-.17-.15a29.2,29.2,0,0,1-2.17-2.14c-.83-.92-1.63-1.85-2.43-2.77-2.82-11.06-5.88-23.05-13.89-30.38-4.13-3.78-8.06-4.91-11.95-4.9a25.55,25.55,0,0,0,1-6.33c.24-7.5-4.24-13.43-6-20.5-2.05-8.22-1.53-17.33-7-24.42-.29-.37-.66-.66-1-1a101.45,101.45,0,0,0,1.26-18.17c.81-1.41,1.6-2.82,2.49-4.19.59-.91,1.2-1.81,1.83-2.69.32-.45.66-.9,1-1.34l.42-.53c.95-1.16,1.91-2.29,2.81-3.49a16.78,16.78,0,0,0,2.14-4.09c.92-2.34-.6-5.61-2.75-6.75a6.19,6.19,0,0,0-7.24.93c-.31.3-.62.58-1,.86l-.11.09c-.59.42-1.17.84-1.8,1.21l-.5.26c-3.36-13-8.57-17.53-23.72-19.06a75.73,75.73,0,0,0-22.08,1,27.75,27.75,0,0,0-4.47,1.35,12.13,12.13,0,0,0-.21-1.91c-.78-3.63-4.47-6.38-8.22-5.33-2.27.64-4,2.46-5.83,3.91l-4.11,3.31-4.1,3.31-.94.75-.53.34a5.41,5.41,0,0,0-2.87.73A6.09,6.09,0,0,0,2131,230c-3.82-2-7.41-5-11.35-6.23a40.58,40.58,0,0,0-17.47-.9c-8,1.16-16.2,5.46-24.4,9.34-4.64-2.4-9.24-4.83-13.66-7.5l6.71-5.59c1.82-1.51,2.09-4.51,1.24-6.52a5.94,5.94,0,0,0-5.46-3.67,94.63,94.63,0,0,1-13.57-.48c-.5-.06-1.05-.08-1.55-.19,1.34.28-.18,0-.48-.07-1.21-.18-2.41-.38-3.61-.61s-2.65-.59-4-.9c-8.08-9.39-16.36-18.32-30.45-11.67-4.46,2.11-9.35,9.92-14,17a147.59,147.59,0,0,0-18.29,1.49c-4.86-2.31-9.15-3.84-12.16-3.84-5.08,0-11.59,4.08-18.11,8.76a11.56,11.56,0,0,0-2.6,1.89c-8,5.85-15.63,11.92-20.45,11.92a20.12,20.12,0,0,1-5.89-1,238.89,238.89,0,0,0-19.79,35.33,185.27,185.27,0,0,0-8.4,20.8c-2,6.3-3.75,12.72-6,19a86.38,86.38,0,0,1-8.59,18c-3.67,5.72-8,10.93-11.3,16.91a62.44,62.44,0,0,0-6.88,21.19c4.9,9.45-2.23,35.37-2.23,53,0,18.59-23.9,57.09-23.9,71.69s12,2.66,13.28,13.28-13.28,53.1-10.62,74.34S1857,599.93,1857,617.19s-21.24,42.48-18.58,63.73-22.57,30.53-22.57,45.13,6.63,29.21,10.62,54.43c3,18.69-6.49,27.9-19.13,33a27.77,27.77,0,0,0-16.4,19.94,98.11,98.11,0,0,0-2.3,22.76c-4.12-.38-8.63-.82-12.82-.06-14.61,2.66-14.61-19.91-19.92-27.88s1.33-13.27,0-21.24-11.94-15.93-21.24-19.91-13.27-19.91-34.51-18.59-41.16,18.59-63.73,18.59-49.12-19.91-70.36-17.26-61.07,25.23-71.69,23.9-23.89-15.93-37.17-18.59-17.26,8-34.52,6.64-8-11.95-9.29-25.22-12-14.61-12-29.21,15.93-15.93,15.93-33.19-13.27-14.6-14.6-27.88,14.6-19.91,18.59-34.51,13.27-14.61,26.55-13.28,19.91,12,31.86,10.62,9.29-13.28,21.24-11.95,38.5,10.62,50.45,15.93,27.88-14.6,35.84-15.93,13.28,10.62,22.57,17.26,2.66-6.64,18.59-10.62,10.62,1.33,17.26,10.62-25.23,10.62-34.52,25.22-18.59,13.28-10.62,18.59,19.91-2.65,30.53-8,17.26-13.27,34.52-10.62,10.62-4,18.59-10.62,14.6-14.6,23.89-29.2,13.28-12,27.88-25.23,8-9.29,9.29-21.24-1.32-14.6-6.64-27.88-10.62-11.94-30.53-13.27S1673.59,509.66,1647,511s-42.48,21.24-59.74,18.58-10.62-19.91-26.55-18.58-35.84,15.93-53.1,18.58-21.24-21.24-37.17-22.57-23.9,13.28-38.5,10.63,0,0-2.66-6.64-2.65-22.57-1.32-33.19-2.66-21.24-5.32-30.54,0-18.58,2.66-29.2c2.22-8.88,11.83-13.09,15.71-11.15a33.61,33.61,0,0,0-9.07-10.09c-9.3-6.64,12-14.61,21.24-14.61s13.27,5.31,23.9,4,38.49-13.28,53.1-13.28,13.27,17.26,25.22,18.59,13.28-19.92,19.91-17.26,23.9,4,35.85,4,12-9.29,21.24-9.29,10.62,10.62,26.55,8,18.59-10.62,31.86-9.29-4,17.26-13.27,23.9-11.95,21.24-42.49,34.51-49.11,33.19-38.49,29.21,58.41-14.6,67.7-18.59,15.93-17.26,26.55-25.22,15.93,0,34.52-4,4-17.26,19.91-25.23,9.3-21.24,10.62-29.2-2.65-13.28,2.66-19.92,6.64-11.94,10.48-21.24-6.5-14.6-2.52-27.88,2.66-23.89,0-37.17-27.88-19.91-43.81-18.58-35.84,11.94-50.44,11.94-61.07,2.66-77,5.31-41.16-25.22-59.74-25.22-5.31,22.57-18.59,25.22-79.65,2.66-94.26,8-15.93-21.24-33.18-19.91-13.28,17.25-34.52,19.91-17.26-25.22-38.5-22.57-59.74,13.28-59.32,14.6c.31,1-41.57-2.23-64.87.92-6-2.2-12.64-.38-18.69,2.18-7.51,3.18-15.71,5.21-23.86,4.38a20.64,20.64,0,0,1-7.33-7.46c-.66-1.17-1.29-2.39-2-3.57l13.41-.71c5.19-.28,5-7.45,0-8-8-.8-15.27-4.38-22.91-6.63-.11-.31-.21-.63-.32-.94-.23-4.85-.34-9.7-.77-14.52-.75-8.29-1.68-17.61-7.31-24.19-5.24-6.13-13.77-10-20.84-13.54-1.43-.73-2.87-1.4-4.31-2.07-8.91-8.92-19-16.37-29.51-23.24a45.07,45.07,0,0,0-8.31-14.5c-8.77-10.13-21.85-15.79-34.18-20.2-7-2.49-14.57-4.73-21.42-8.12-6.57-6.41-12.64-13.3-18.74-20.13-.67-1.68-1.33-3.39-2-5.08-3.56-8.34-9.23-14.79-18.09-17.61-8.63-2.74-18.8-3-27.79-2.92a143.88,143.88,0,0,0-26.41,2.74c-7-9.13-20.19-1.54-28.4,2.14-5.19,2.33-10.25,4.94-15.2,7.74a76.41,76.41,0,0,0-40.82,7.1c-3.58,0-7.11-.08-10.49-.35-39.48-3.15-26.24-19.39-45.55-21.45s-27.9,11.19-56,11c-9.24,0-24.27-.6-41.35-1.45,2.27-4.06,3.89-8.75,2.24-13.33a6.09,6.09,0,0,0-8.78-3.57l-30.2,14.78-.07.05c-24.62-1.55-48.37-3.34-62-4.85-30.7-3.29-.34-15.19-37-14.69s-32.5,27.8-57.49,28.39-10-19.5-43.22-14.75c-9.76,1.44-22.25,3.86-36.3,6.53-20.73,18.5-48.55,22.87-77.8,22.6C304,88,286,86.33,267.89,90.91c-23.5,6-45.62,16.35-68.08,25.26C153.65,134.49,102,135.89,56.57,156.11a170.88,170.88,0,0,0-32.92,19.74c.32.68.6,1.37.94,2A55.74,55.74,0,0,0,53,204.69c5,2.18,11.42,3,17.52,4.07,3.57-.93,7.56-.63,12.25,1.6,20.88,9.95,13.28,24.53,5.08,46.16S74.58,301.21,67.35,335s-4.71,83.87,7.13,82.42,7.21-20.79,19.89-41.27,5.85-18.89,11.16-40.23-11.5-32.76-1.74-61.29,44.51-29.36,71.89-37c27.53-7.55,42-.05,37.1,17.49s1.67,39.3,34.45,36.76,28.33,18.51,38.74,38.3c10.22,19.81-11.41-1.25-4.45,27.41,6.74,28.61,10.44,49.21,22,62.11s20.39,44.81,21.14,68.71-6.49,21.21-23.38,44.88,34.88-6.59,31.62,33.44c-.74,9.17,11.91,12.87,19.72,26a52.24,52.24,0,0,0-6.93,27.07c.29,10,4.22,18.51,7.86,27.55-1.24,4.32-2.75,8.92-4.55,13.85-9,24.58-38.09-1.44-22.25,21,6.6,9.37,18.28,29.38,26.69,49.76a38.59,38.59,0,0,0-4.49,11.47c-1.89,8.91-.14,17.37,2.75,25.85,1.8,5.25,3.43,10.73,5.36,16.05-8.73,7.41-22.37,5.33-13.22,10.59,13.14,7.58,21.81,18,21.19,45.45s-31.28,33.23-50.36,36.75-16.78-1.55-39.73-7.91-26.27-66.39-38.18-75.46c-11.58-9.1-56-77.79-52.81-57.89,5.43,34.34,15.65,65.58,35.6,85.71S242,846,246.18,880.05s28.74,52,42.13,76.4,10.36-6.26,29.45,7.34c18.9,13.66,20.1,22.14,37.2,39.49s52.36,9.44,70,1.6c11.37-5.12,26-9.7,41.29-13.49.27,1.31.55,2.62.88,3.93,2,7.89,5.23,18.18,15.32,19.55,8.83,1.21,16.53-4.07,22.55-9.46a45.22,45.22,0,0,0,10.65-14.29,44.69,44.69,0,0,0,4.41-21,141,141,0,0,0,26.84,21.83,110.56,110.56,0,0,0,24.4,11.15q5,6.69,9.87,13.4c3.55,4.86,9.4,6,15,3.49q11.16-5,22.42-10a8.13,8.13,0,0,0,1.72-1,164.92,164.92,0,0,0,17.82-2,157.23,157.23,0,0,0,19-4.5c.34.71.68,1.42,1,2.13a15.59,15.59,0,0,0,6.17,7.24c5.3,3,11.48,1.89,16.09-1.74,3.62-2.85,6.88-6.27,10.28-9.37l2.07-1.86c3.85-1.13,7.75-2.09,11.61-3.09,4.34-1.13,8.61-2.37,12.81-3.79a29.41,29.41,0,0,0,4.56,1.71c15.16,4,31,1.6,45-5.14,4.24-2,8.28-5.39,12.59-7.73a237.87,237.87,0,0,1,23.85,9.52q6.56,3.06,12.93,6.49c3.05,1.64,6.06,3.52,9.17,5.14,4.9,3.06,10.38,5.05,16.31,3.47a13.23,13.23,0,0,0,2.62-.73c5.45-.91,10.93-2.52,16.11-3.07,10.31-1.08,20.49.17,30.75-.45,9.75-.59,18.88-4.68,27.72-8.57a65.29,65.29,0,0,0,22-15.77l.15-.18a12.4,12.4,0,0,0,1.4.21c6.08.31,11.39-3.08,14.91-7.52,1.38-1.74,2.69-3.54,4-5.31,18.91-5.85,34.89-17.25,44.27-35.09a10.18,10.18,0,0,0,1.2-4.6,81.15,81.15,0,0,0,9.43-19.43c.3-.93.53-1.85.81-2.78a10.44,10.44,0,0,0,6.67-7.65c.86-4,.4-8.33-.12-12.33-.14-1.12-.39-2.23-.58-3.34a89.55,89.55,0,0,1,8.44-21.79A93.79,93.79,0,0,0,1056.73,836.46Zm21.84-56.83c-.29.16-.57.33-.86.51a1.76,1.76,0,0,0-.17-1C1077.89,779.28,1078.22,779.48,1078.57,779.63ZM1075.3,778l0,0,0,0Zm-11,47.76h0Zm933.39-330.72c6.64-6.64-2.65-27.88-6.63-38.5s23.89-70.36,17.25-79.66,0-14.6,12-21.24,22.57-9.29,15.93-18.58c-6.14-8.6,13.83-11.51,25.27-9.79,0-.06,0-.12,0-.18,1.41-11.29,3.45-22.75,3-34.15l22.79-1.78a53.36,53.36,0,0,0,9.53,12c4.49,4.43,9.25,8.58,14.12,12.6,5.71,15.89,9.29,32.55,13,49.2-4.12,9.12-3.94,20-.78,29.42,4.07,12.15,12.38,22.11,20.75,31.58a71.21,71.21,0,0,0,9,12.13,10.45,10.45,0,0,0,4.48,12.41c1.92,1.14,4.54.8,6.22,2.16a17.07,17.07,0,0,1,3.31,3.84,78,78,0,0,0,2.33,8.73c-4.47,5.13-9.77,9.67-14.75,14.26-9.66,8.89-26.58,21.18-32.26,35.4a136,136,0,0,1-37.9,2.54c-9.31-.74-18.36-2.38-27.41.84-3.8,1.36-14.22,11-17.08,10.66-4.22-.48-13-14.66-18.91-17.15a26.5,26.5,0,0,0-19.07-1c-5.34,1.72-9.8,6.75-14.68,9,0-2.46-.08-4.57-.08-6.17C1987.1,497.71,1991.09,501.69,1997.72,495.06ZM1160.84,273.11c6.08-3.26,12.2-6.36,17.77-10.38a104.75,104.75,0,0,0,6.6,17.36,293,293,0,0,1-33.12-1.67A83.88,83.88,0,0,1,1160.84,273.11ZM502.9,456.45c-16.06-14.54-18.61-33.77-19.63-53.57-.65-12.87-3.73-25.34-7.37-37.73a31.05,31.05,0,0,1,1-8,30.72,30.72,0,0,1,2.28-6.08,20.74,20.74,0,0,0,2.28-5.45,1.27,1.27,0,0,0,.07-.12h0c0-.18.09-.34.11-.53a2,2,0,0,0-1.72-1.95,2,2,0,0,0-2.19,1.42c-.46,1.18-2.1,1.58-3.23,1.5a5.43,5.43,0,0,1-1-.19,7.33,7.33,0,0,0-1.35-1,129.31,129.31,0,0,1-1-23.61c.51-10.67,2.87-20.62,5.49-30.92,1.41-5.58,2-11.23.41-16.85-1.38-5-3.72-9.88-5.63-14.72-.83-2.12-1.64-4.59-2.52-7.13l4.77-5.92a1.61,1.61,0,0,0,.92-1.14l1.29-1.6a2.06,2.06,0,0,0,0-2.82c-3.36-3.64-6.15-7.19-7.74-11.94-.76-2.25-1.45-4.52-2.13-6.8,1.71-6.91,5.41-12.95,13.95-17.19,9.69-4.8,21.81-7.37,34.27-8.8,25-8.92,56.51-6.73,83.29-3.77,4.71-2,8.13-3.12,8.14-3.11,41.91-.1,59.44,25.55,95.67,26S773,182.66,807.05,183.81c5.42.11,13,1.29,21.82,3.31a260.89,260.89,0,0,1,55.91,6,6.93,6.93,0,0,0,0,3c1,4.7,3.19,9.71,7.74,11.88s9.41.43,13.92-1c2.23-.69,4.54-1.44,6.81-.53,2.56,1,4.47,3.32,6.55,5.05,5,4.16,11,6.3,17.21,7.92,4,1,8,2,12,3a100.53,100.53,0,0,1,16.41,17,80.48,80.48,0,0,1,4.88,7.34v3.41a25.06,25.06,0,0,0,1.16,8.87,24.35,24.35,0,0,0,5.35,8.31c.73.76,1.47,1.5,2.22,2.24a73,73,0,0,1,0,26.4c-7.48,4.1-12.44,11.33-16.54,18.61-1,1.81-2.38,3.77-2.79,5.83a8.86,8.86,0,0,0,1,5.87c-3.11,4.79-5.44,10.14-7.84,15.34-.43.91-.86,1.83-1.3,2.74-1.85,1.4-3.68,2.82-5.57,4.21-4,3-7.93,6.45-10.55,10.7a3.63,3.63,0,0,0-1.3,1.31c-2.5,4.47-5.21,8.88-7.41,13.5a31.68,31.68,0,0,0-2.56,7.38c-7.58-.44-15.06,3.5-19.66,9.53-3,4-5,9-4.47,14.05,0,.4.16.78.22,1.17-10.06,21.54,2.14,39.36-28,45.13-30.92,6-27.63-9.11-46.14-2.3s-10.8,21.21-44.5,23.79c-33.68,2.73-26.44.38-58.09-1.67S699,465.9,677.63,472.5s-45.87,22.6-70.38,10.2c-6.54-3.29-12.33-5.86-17.18-8.29-.52-.07-1-.17-1.53-.24C558.38,477.14,525.57,477,502.9,456.45ZM938.06,722.52c-.46,4.52-3,8.39-5,12.34a40.65,40.65,0,0,0-1.91,4.42,7,7,0,0,1-1.18-.69,5.36,5.36,0,0,1-1.82-2.44c0-.58-.07-1.16-.07-1.74a2,2,0,0,0-3.91-.53c0,.18,0,.36,0,.54h0c0,.2,0,.39,0,.59a5.88,5.88,0,0,0,0,.94,81.08,81.08,0,0,0,.87,11.33,11.5,11.5,0,0,0-2.3,1.63c-2.81,2.69-3,6.64-2.3,10.23a34.69,34.69,0,0,0,3.72,9c.82,1.58,1.72,3.11,2.66,4.61.06.35.11.69.17,1a76.1,76.1,0,0,0,2,8.44c.42,1.41.89,2.81,1.4,4.19.22.6.46,1.19.69,1.79l.06.14.38.86c1.41,3.13,1.53,6.37-.65,9.19a8.31,8.31,0,0,1-8.7,3,26,26,0,0,1-6.76-3c-.85-.53-1.69-1.09-2.55-1.6-.31-.19-.64-.35-.95-.53-.47-.15-.93-.31-1.41-.44l-.34-.09c-.12,0-.76-.12-1.05-.16a7.79,7.79,0,0,0-5-1.85,13.76,13.76,0,0,0-7.32,2.81,25.45,25.45,0,0,0-4.08,3.81,66.4,66.4,0,0,0-14.37,7.44A70.53,70.53,0,0,0,863,823.34c-1.2,1.62-2.8,3.57-4.09,5.54-.56-.28-1.11-.55-1.61-.77-8.55-3.81-16.6.51-23.31,5.77-6.23,4.87-11.95,10.32-17.73,15.71l-1,.94c-15.68,6.9-32.4,10.64-49.29,13.87a19.68,19.68,0,0,0,2.19-5.12,4.08,4.08,0,0,0-1.83-4.5,4.23,4.23,0,0,0-4.83.62L745,868.34c-6.32,1.23-12.61,2.54-18.84,4.07-17.21,4.25-32.35,5.8-49.78,1.83-18.22-4.15-31.58-5.21-50.22-3.08-30.87,3.53-55.46-2.57-80.56-21.08-.41-.3-.77-.62-1.14-.94q-3.59.3-7,.39c-13.16.34-23.35-16.34-16.08-28.2a91,91,0,0,0,10-24.34,54.67,54.67,0,0,0,8.62-15.2,45.49,45.49,0,0,0,2.68-18.2,42.64,42.64,0,0,0-1.92-10.66,114.07,114.07,0,0,1,5-15.27c4.24-10.21,20.59-29.66,14.56-40.81-2.12-3.9-12.14-7.71-15.46-10.54-21.38-18.21-30.16-53.09-.34-66.88,1-.47,2-.9,3.1-1.31a30.67,30.67,0,0,0,6.18,4.09c2.83,1.35,6.09,2.56,9.2,1.34,2.74-1.08,4.93-3.29,7.17-5.13l6.78-5.54c.09-.07.12-.19.19-.27a226.74,226.74,0,0,1,33.88,1.91c2.7-1.15,5.39-2.3,8.12-3.43,14.73.34,29.44,1.1,44.11,2.14a102.14,102.14,0,0,0,21.47,17.91,4,4,0,0,0,4.83-.63c1.1-1.2,1.7-3.39.62-4.82-.66-.88-1.29-1.78-1.93-2.68a42.8,42.8,0,0,0,12.78,1.17c4.78-.18,9.63-.62,14-2.8a16,16,0,0,0,4-2.94q10.76,1.2,21.43,2.48c17.93,2.16,37.09,4,53.69,9.82,10.18,3.57,16.51,9.16,22.66,15.12q8.59,9.43,16.78,19.24c1.13,1.37,3.41.22,3.4-1.41a36.67,36.67,0,0,1,.87-8c3.67.92,7.34,1.82,11,2.6,16.15,3.37,33.12,3.93,49,8.14a60.26,60.26,0,0,1,16.77,7.24,26.19,26.19,0,0,0,.25,6.08c.8,5.16,3.67,9.81,6.72,13.94,5.77,7.82,11.61,15.59,17.43,23.38.08,1.27.16,2.54.18,3.84A2,2,0,0,0,938.06,722.52Z"/><path class="cls-2" d="M2666.68,1111.83c12.23,0,8.74-13.4,22.13-15.14s21.55,11.64,22.71,2.91-3.49-6.41,1.17-8.74,13.39.14,12.23-6.92-6.41-6.47-7.57-14.62,15.72-5.24,12.81-15.14-16.89-12.23-18.64-20.39,9.32-14,8.16-19.8-2.92-17.47-4.66-21-7.57,2.33-7.57-3.49,6.4-2.92,8.15-9.9,7-12.23,6.4-23.3-8.73-1.16-7.57-9.32,9.9-7,8.16-13.39-5.24-7.57-11.65-9.9-6.41-11.06-16.31-10.48-14,8.15-19.8,7.57-20.38-9.38-27.37-7.6-7-4.05-14.55-5.8-8.74,7-14.56,7.57-8.84-5.85-17.47-5.24c-8.16.59-12.23,3.5-18.64,2.92s-20.38,4.65-27.37,4.65-12.81,1.75-20.38,1.17-7.57-1.75-13.39-1.75-2.33,0-10.49,2.33-22.13,5.24-28.53,5.24-8.16-7-16.31-6.4-3.72,2.33-15.55,3.49-21.72-1.75-29.29-.58-9.32-2.91-16.89-4.66-11.64,7.57-25.62,7-29.7.58-34.94-.58-4.66-9.9-10.48-9.32-4.66,7-12.81,7.57-17.48,4.66-22.72,2.91-5.24-8.74-13.39-9.32-8.15,4.08-18,7-26.79,2.91-32,1.17-8.16.58-14.56,0-16.31-2.92-22.13-4.08-16.31-4.66-23.29-4.08-21.55,2.91-29.7,2.91-9.32-8-18.64-10.13-16.3,9-26.2,10.13-19.8,6.41-28.54,5.25-9.9-6.41-19.22-9.32-23.29,3.49-32.61,5.82-24.46,2.91-33.19,2.91-19.8-9.9-26.21-9.9-10.48,7-23.87,7.57-34.36-5.82-41.93-5.24-7.57,8.74-15.73,7.57-32.61-6.4-40.76-5.82-1.17,6.41-8.74,5.82-29.7-13.8-39-15.05-16.89,14.47-25,13.31-32,3.49-38.44.58-11.06-13.36-20.38-14-22.13,6.39-29.12,6.39-10.48-3.54-18.63-6.43-9.32,8.76-20.39,11.09-19.21,5.82-26.78,5.24-22.13,1.16-25,2.33,8.73,5.82,0,6.4-10.49-8.15-16.89-8.73-8.16,4.07-15.73,2.91-21.54,5.82-29.7,5.24-3.49-6.41-12.81-7.57-38.35,5.82-42.18,6.41-11.39-7.57-21.29-7.57-34.36,8.15-41.93,7-22.71-20.75-34.94-23.19-11.65,9.22-23.88,11.55-18,6.4-26.21,6.4-7.57,9.32-15.14,7.57-7-12.81-16.3-12.81-32,13.39-44.26,12.23-23.88-2.33-36.11-4.66-25.62-9.32-33.77-8.73-10.48,12.23-19.8,10.48-21-16.31-30.89-15.14-16.86,10.48-26.18,9.9-19.8-8.16-29.12-10.48-23.88,12.81-29.7,16.3-12.81,9-14,15-1.16,6,0,8.9,4.08-1,6.41,7.37,2.33,23.49-4.66,28.73-18,3.5-14.56,11.07-1.16,15.14,11.07,16.89,16.3,4.07,10.48,14-8.74,11.07-9.9,18-6.41,6.41-2.91,12.82,6.4,5.49,9.9,14.68,4.66,12.69,10.48,18.51,4.66,7.57,10.48,8.15,12.81-16.3,23.3-13.39,15.72,7,28.53,7,33.78,1.16,44.26,1.16,12.81,6.41,30.86,6.41,18.64-1.17,29.12-1.17,4.08,8.16,15.14,8.74,40.18-19.8,54.74-19.22,15.73,9.9,33.2,9.9,47.17-4.66,55.9-4.66,7.57-7.57,14.56-7.57,32.61,11.65,44.26,14.56,34.94-3.49,46-2.33,9.32,7,17.48,7,28-3.5,34.35-3.5,13.4-7,22.13-7,30.29,5.24,47.17,7,25.63-15.14,39.6-15.14,15.73,4.08,23.88,5.24,14.56,12.23,25.62,12.82,23.3-9.9,30.87-9.32,6.4,1.75,12.81,4.08,14-5.25,24.46-5.25,11.64-1.74,21-.58,9.9,0,13.4,1.17.58,3.49,7.57,4.66,27.37-5.25,34.35-7.58,10.49-5.82,15.73-5.82,29.7,14,39,13.4,15.14-9.9,25-10.49,41.34,2.33,50.08,2.91,11.64,9.32,25,9.32,26.2-9.32,37.27-9.9,27.37,2.91,36.69,4.08,9.9-5.82,20.38-5.24,16.89,8.73,31.45,10.48,15.72-8.15,26.78-7,50.75-2.33,52.75,1.17-1.5,7,4.32,8.15,16.89-10.48,31.45-9.32,52.41,1.17,62.89,1.17,32.62,5.24,42.52,7.57,8.73-6.41,14.55-5.24,9.9-.59,19.22,1.16,14.56-6.41,25-5.82,17.47,9.9,31.45,12.23,24.46-12.23,34.94-10.49,13.39,4.66,20.38,5.83,7.57-6.41,16.89-6.41,22.71,4.66,30.28,5.83,3.5,8.75,12.81,8.16,5.25-8.75,16.89-8.75,22.13,5.24,30.28,5.83,7-5.24,17.47-5.83,7-5.82,15.15-6.4,4.65,4.66,12.23,5.24,7.57-5.24,13.39-4.08S2644,1111.83,2666.68,1111.83Z"/><path class="cls-1" d="M1354.51,1013.61c5.67-5.44.53-11.65,0-20.19s-3.35,1.55-1.8-6.21,3.11-3.89,0-9.32-19.41-12.43-23.29-17.67-1.55-3.3-7-7.18-17.86-4.66-24.85-3.88-21-1.55-25.62-1.55-8.54,10.87-15.53,8.54,2.33-8.54,0-11-15.53.94-21.74.06-18.64,7.87-24.85,7.09-1.55-6.21-5.43-7-20.19,3.1-24.07,3.1-10.1,8.54-17.09,8.54-9.31-2.33-17.85,0-5.44,3.89-4.66,9.32-8.54,10.1-7,17.08,3.88.78,5.43,7-1.55,7-10.09,14-3.88,14-3.11,21.74,9.32,2.33,12.43,7.76-4.66,3.89-6.21,14.76,6.21,10.87,13.2,14-3.11,12.43,3.88,11.42,12.42,1,18.63,1.78,8.54-5.43,14.76-3.1,21,3.1,33.38,3.1a138,138,0,0,0,17.86.16c7.77-.62,8.54,0,16.31-1.56s18.63.63,28,1.47,23.3-4.73,32.61-4.73,9.32-6.21,20.19-9.31,7.77-2.33,14-6.22,2.33-7.76,3.1-13.2,4.66-8.54,4.66-12.42-7.76-3.88-3.88-10.87S1348.83,1019,1354.51,1013.61Zm-60,24.07c-12.43,3.88-14-3.89-21.74-3.89s0,9.32-7.77,9.32-33.39-.78-41.93,0-26.4,6.21-30.28,0-5.57-13.2-7.83-17.86,6.26-7.28,4.72-15.1c-2.18-11.11-5.43-6.64-4.65-16s.77-12.42,8.54-14,10.87-2.33,16.3,0,2.33-6.21,10.87-6.21,24.85-.78,33.39,0,14,4.65,21,4.65,7.76,0,13.2,5.44,10.09,5.44,8.54,12.42-4.66,9.4-5.44,13.63,8.37,11.22,5.74,17.43S1306.9,1033.79,1294.48,1037.68Z"/><path class="cls-1" d="M1387.26,1076.12c7.3,1.11,4.28-10.1,11.65-10.1s9.32,10.1,20.58,10.1,29.89,2.71,25.62-7.77-7.38-10.87-7.38-19.42-1.16-21.74,10.49-21.74,15.53-5.43,21.35-5.43.39,1.94,5.82,3.49,1.94-4.66,6.6-3.49,4.66,5,10.87,5,12.43,7.37,23.69,7.37,8.93-12.57,15.14-12.57-3.11,4.42,3.88,4.42,10.87-6.12,14.36-4.42,10.1,4,7-2.57-8.93-4.27-8.54-11.26,10.09-10.48,1.17-11.65-11.65,5.44-21,4.28-17.47-4.94-22.52-4.41-5,4.79-11.64,3.63-10.49-1.54-15.14-3.68-5,5.62-12,5.23-27.56,1.17-26-9.32-.78-13.2,6.21-12.81a85.64,85.64,0,0,0,14,0c4.27-.36-.78-4.63,5-4.63s1.17,1.56,10.1,2.72,24.46-7,29.12-5.43,1.94,7.76,10.48,9.7,12-8.93,20.19-8.15a55.59,55.59,0,0,1,11.64,1.94c3.5.78,9,7,9.74-1.55s-3.14-8.16-2.36-13.4,5.82-1,5.43-5.24,0-9.94-8.54-10.79-16.3.7-24.46,2.64-17.08-2.18-23.29-2.64-9.71,7.69-17.47,6.52-19-6.84-25.23-6.52-14,7.3-21.36,8.46-6.6-5.43-13.2-5.82S1411,953,1403.57,953s-4.66-2.72-8.93-2.72-7.76,6.6-10.09,7-9.32,2.72-8.16,5.83S1388,969,1388,974s-6.21,3.88-5.82,10.48,3.88,5.82,4.66,12-7.38,13.59-5.83,19.41,9.71,10.88,9.32,16.31-7.38,4.66-7,11.26S1377.17,1074.57,1387.26,1076.12Z"/><path class="cls-1" d="M1921.08,1067.57c-1.16-8.15-6.21-.78-6.21-9.32s5.44-4.27,3.88-12-1.94-16.7-5.82-21.36-8.15-3.1-7.38-6.6,13.2-10.09,13.2-17.08-5.43-3.88-5-10.09,7-2.72,5.82-9.71-1.94-19.8-7.38-21.16-5.82-4.85-14.75-8.34-14.75,2.71-19,0-8.93-9.65-14.76-7.93-8.54-1.72-12,0-.78,4-5.82,4.43-9.71-5.2-14.37-4.93-22.52-4.39-29.89-4.39-10.1,2.39-17.08,4.89-11.65,4.82-21,4-15.14-3.82-19.8-4-4.27,6-10.87,4.43-14-.39-19.41-2.33-10.48-2.33-10.87,4.27,7.38,6.22,7.38,12.43-8.57,13.59-7.4,19,6.62,1.55,6.62,7-5.82,2.72-5,10.09,5,1.94,5.44,9.71-16.7,8.93-15.14,16.69,14,11.26,14.36,20.19-8.15,15.92-7.38,22.52-2.71,8.47,7.77,8.47,3.49-5,13.59-5,8.54,2.49,16.69,2.49,14,2.49,21.74,2.49,9.71,1.23,8.15-7.7-5.43-9.7-5.82-17.47,3.5-17.47,8.93-17.47,2.33-2.33,8.93-2.71,9.32,5,16.69,5,22.13-5.47,34.56-5.06,5,5.84,12.81,5.84,10.87,0,12,7.38,7,7.76,5.83,12.42-6.22,3.88-5.44,7.76-2,12,5.59,12,13.82-7.37,22.75-7.37c8.54,0,10.87,7.31,22.13,7.31S1922.25,1075.72,1921.08,1067.57Zm-75.7-61c-5.05,0-3.88-6.59-3.88-6.59H1805c-10.48,0-13.2,6.59-22.13,6.59-13.2,0-14-3.88-15.14-9.31s8.54-5,9.32-10.87-3.5-3.5-4.27-8.54,17.08-3.11,29.89-2.33,12.43-2.72,19.24-3.11,6,5,11.82,5.44,5.82-2.33,12-3.5,14.36,5.83,15.14,15.15S1850.42,1006.61,1845.38,1006.61Z"/><path class="cls-1" d="M2189.74,1065.63c-5-7-12-7.77-16.69-14s-2.33-10.48-7.38-14-3.88,8.93-5.05,0,3.11-8.55-2.72-14.37-6.6,1.55-12.42-5-7.38-5.83-8.54-10.48,8.93.78,3.88-5.82-5.82-3.11-8.54-6.6,1.55-10.87-4.27-13.2-7-.39-8.93-5.44-.39-5-5-8.93-4.27-2.33-7.76-5.43-1.94,2.33-3.49-3.11,7.37-13.2-2.33-14.75-18.64,8.15-27.18,8.15-12-5.43-22.52-6.6-17.47-3.83-23.68-1.72-8.93-1.77-9.32,5.61-.39,13.58-4.66,17.08-8.54-.39-13.58,6.21-4.66,8.54-6.22,14.36.39,5.83-3.88,7.38-1.94,2.33-4.27,8.15,1.94,7.19-4.27,6.9-10.48.48-11.26,8.24,1.94,14.76-2.72,15.15-10.48-1.56-12,3.1,3.88,12,0,11.26-3.49-3.88-8.54,1.16-1.94,8.55-6.6,10.87-5,6.22-7.38,8.93-4.66,5,2.33,4.66,8.15-3.49,11.65-3.88-2.77,4.3,10.87,2.33c10.37-1.5,10.09-2.33,18.63-2.33s4.27,7,13.2,7,11.26-.38,10.49-7-4.66-3.49-3.5-7.76,13.2-14.76,30.28-14.76,22.13,3.89,28,3.89,6.6,3.49,10.09,0,5.82,1.16,14,1.16,5-5,14-5,14.37,10.87,22.13,12,11.26,3.1,8.93,7.37-3.88,3.89-3.49,7,1.16,3.1,5.82,3.1,13.59-5.81,24.46-5.81,22.91,3.49,34.55,3.49S2194.79,1072.62,2189.74,1065.63ZM2083,1021.93c-4.66-.6-8.55-.56-19.42-.95s-7,1.69-15.91,1.94c-2.3.07-1.94.39-5.44,0s-2.72-.77-8.15-1.16,0,0-.78-3.5,1.17-4.27,5-6.6,2.33-1.16,8.26-3.88.28-2.33,1.06-7.76-2.72-4.66,0-5.83,4.66-5,8.93-6.6,1.55-5.82,5.2-5.82,1.78,2.72,4.89,5.82,3.49,2.72,6.21,7.38,1.17,4.27,3.5,9.71,5,4.65,8.93,5.34,3.1,5.14,4.27,9S2087.63,1022.53,2083,1021.93Z"/><path class="cls-1" d="M2395.89,1010c6.21,0,5.05-10.39,10.48-9.61s4.66-.86,7.38,0,4.66-.12,6.6-.23,5.05,7.08,5.43,9.89,2.33,6.3,0,12.51-3.49,6.6-2.71,10.49,7.3.39,3.84,5.43-2.68,7.38-6.56,12.43.78,1.94-3.88,5-10.87,4.66-6.6,6.21,8.54,1.17,7.76,3.5,2.72,5.43-2.72,5.43-8.15-2.33-10.48-3.1-4.27,5-8.54,4.66-9.32-4.66-14-5-.38,3.88-5,3.49-4.66-7-10.49-6.6-5,9.36-9.7,8.18-5.82-2.35-10.1-2-5,7.36-8.15,5.81-3.49-8.92-8.54-8.53-6.6,11.24-14.36,8.53-17.47-5-22.13-4.65,2.33,6.21-3.11,7-7.38,3.88-11.65,5.05-9.31-13.2-15.14-13.59-21.74,1.55-26,.77-5.43-2.33-7.76-5.82-2.33-6.6-6.21-4.66-12.43,5.05-14,.39,2.33-9.71-1.94-15.14-11.65-.39-12.43-12,4.12-11.64-1.62-19-8.47-4.66-6.14-12.42,6.21-1.56,8.54-8.93,5.44-9.71,3.88-13.59-1.55-5.82,3.5-8.93,5.43-3.88,5.43-8.54.39-5.44,11.26-6.21,16.31,1.55,17.47-4.27.39-3.89,5.83-4.66,14,4.66,19.41,4.66,10.48-.16,10.87-4.74-1.17-8.85,4.66-8.85,1.94,5.46,10.09,5.25,38.44.18,42.32,2.51,2.33,4.66,9.32,4.66,6.59-6.18,16.3-7.17,21.35,3.68,29.89,4.45,12.43-1.55,14,5-8.15,9.32,2.33,8.93,15.92-3.49,17.08,1.55,6.59-.77,8.34,5.44-4.84.78-5.62,7.76,3.11,10.87,1.55,12.43-9.7,1.16-22.51,2.71-14-.38-23.69-.77-14.75,2.72-15.91-3.5,1.16-10.87-4.66-11.64-10.1-2.33-15.53-3.5-10.1.78-17.47,1.56-5.05-7-10.87-5.83-4.66,7-10.1,7.77-11.64-5.44-19.8-2.33-5.82,3.1-5.82,7.37,3.49,6.6-2.72,6.22-5-8.93-7.76-8.55-1.56,3.5-5.83,6.22-5.43,3.1-4.27,8.54,3.89-1.56,3.5,4.27-6.21,3.88-6.6,10.09,0,7.38,1.16,11.65-1.55,7,3.88,6.6,4.28-1.55,8.16-1.94,3.88,0,6.6,5-1.17,10.88,5.43,12,3.88,3.88,14,4.66,14.75-3.11,28.34-3.5,17.86-1.55,26-3.49,17.47-.78,14.37-5.82-1.56-4.66-8.93-4.66-9.71-.78-15.14-1.55-3.89,1.16-10.87,1.16-10.88-4.66-16.7-4.66-7.38,2.33-9.32-3.49-5.43-5.76-5-8.7,5.43-8,5.82-10.71-1.9-2.72,5.84-4.66,2.31,2.33,10.08,2.33,10.48-.78,14.36-1.17,1.56,1.55,6.21,2.72,9.32.39,15.14,1.16,17.09.78,22.91,1.56,11.26-4.27,14,.38S2390.84,1010,2395.89,1010Z"/><path class="cls-1" d="M2456.45,1073c10.37-1.58,9.32-3.49,15.92-2.71s10.1,1.94,14.37,2.71,10.09-5.43,14.75-5,6.6,3.63,12,5.11,25.24-.32,28.73,0,8.54-.49,7-5.13.39-4.25,4.27-3.86,26.4-.39,30.67,2.71,0,7.54,7.38,6.88,4.66-4.81,9.32-4.87,5.82,5.27,9.31,4.93,12.43,0,18.64,0,15.53,5.47,12.42-2.3-9.31-4.27-10.09-10.87,11.65-3.49,5.82-9.32-4.66-8.54-11.26-7.37-3.88-1.56-9.31-1.94-9.32,2.71-16.7,3.1-10.09,4.66-15.14,5.44-3.88-8.22-9.7-8.58-9.32,3.92-14.37,3.14-5.05-4.38-9.71-3.16-10.87,5.1-16.3,4.72-17.47-3.5-18.64-10.88-1.94-12.81,5.83-13.58,11.64-1.56,16.3,0,12.43.53,18.25-.9,5.82.9,11.65,1.67,14-5.82,19-5.43,10.09,3.49,15.53,4.66,15.92,1.16,20.58.38,7,1.14,5.82-5.06,8.93,2.41,7.76-6.35.39-17.31-9.31-16.93-7.77-.41-14,0-12.42-2.32-19.8-1.93-6.6,5.44-11.26,5.44-6.6-7.07-14-5.48-7.77,3.92-13.2,3.54-10.1-5.2-16.7-3.77a85,85,0,0,1-17.08,1.83c-3.88,0-4.27-1.95-6.21-7s-3.5-4.27-.78-7.77-.39-3.88,6.6-5.43,10.87,0,16.69,1.55,9.32,1.55,13.59.78,7.77-.39,13.2,0,3.5-4.78,7.77-3,3.88,3.37,8.54,3.75,7.76-1.55,12.42-1.94.39-4.27,4.27-3.88,6.6,3.49,11.65,5.05a34,34,0,0,0,12,1.94c4.66,0,11.26,1.94,13.2-4.27s4.66,6.54,5-2.75-4.27-7.35-5-10.65,5.83,4.08,4.66-2.13,5.83-3.11-1.16-6.21-4.27-6.6-12.42-7-5.83,7.76-11.65,7.76-7.38-.77-14.37-2.33-3.49-5.46-12-5.45-3.5-3.09-10.87-1.92-11.65-.39-16.7,1.94-1.55,6.21-6.21,6.21-6.21-8.68-14-8.41-12,3.36-18.25,4.14-7.38,1.55-12.42,0-2.33-9.71-9.71-8.54-8.15,8.93-14.75,9.32-14.37-1.17-19.8-1.17,3.88-6.21-3.88-4.27-11.26-.78-9.71,5.44,4.66,14.75,6.6,15.91,5.43,0,3.49,4.66-2.33,5.44-3.88,9.32-1.16,4.27-.78,7.76a41.6,41.6,0,0,0,1.17,7.38c.78,3.11,2.33,7,1.16,8.93s-4.27-1.16-3.49,1.94,3.11,3.56,5.82,7.61,3.89,5.2,2.33,7.14-.77,3.89-2.71,5.44-3.11.78-3.11,3.49-3.11,5-1.94,7.77,2.72-.39,1.16,2.72-1.55-1.56-1.55,3.1-1.55,6.21.78,8.15.77-1.94,2.33,2,1.94,4.27,1.16,6.21,2.72,2.71-.39,4.27.78-2.33-3.1,1.55a26.78,26.78,0,0,0-5.41,7.38S2447.87,1074.32,2456.45,1073Z"/><path class="cls-3" d="M2112.36,191.82l.81.11c-.3-.05-.6-.08-.89-.1Z"/><path class="cls-3" d="M2155.56,752.81c-.09-.47-.19-.93-.27-1.39l.56-.2C2155.76,751.75,2155.66,752.28,2155.56,752.81Z"/><path class="cls-3" d="M2187,205.17h0a.88.88,0,0,1,.12-.2A1,1,0,0,0,2187,205.17Z"/><path class="cls-3" d="M3433.68,292.85c17.1,13.68,45.8-17.92,37.83-25.89s-13.94-6-27.88,0S3423.72,284.88,3433.68,292.85Z"/><path class="cls-3" d="M1767.68,820.19c-4.78-.37-10.38-1.23-15.51-.3-14.61,2.66-14.61-19.91-19.92-27.88s1.33-13.27,0-21.24-11.94-15.93-21.24-19.91-13.27-19.92-34.51-18.59-41.16,18.59-63.73,18.59-49.12-19.92-70.36-17.26-61.07,25.22-71.69,23.89-23.89-15.93-37.17-18.58-17.26,8-34.52,6.64-8-11.95-9.29-25.23-12-14.6-12-29.2,15.93-15.93,15.93-33.19-13.27-14.61-14.6-27.88,14.6-19.91,18.59-34.52,13.27-14.6,26.55-13.27,19.91,11.94,31.86,10.62,9.29-13.28,21.24-12,38.5,10.62,50.45,15.93,27.88-14.6,35.84-15.93,13.28,10.62,22.57,17.26,2.66-6.64,18.59-10.62,10.62,1.32,17.26,10.62-25.23,10.62-34.52,25.22S1569,636.69,1576.93,642s19.91-2.66,30.53-8,17.26-13.27,34.52-10.62,10.62-4,18.59-10.62,14.6-14.6,23.89-29.21,13.28-11.94,27.88-25.22,8-9.29,9.29-21.24-1.32-14.6-6.64-27.88-10.62-11.95-30.53-13.28-34.52-22.56-61.07-21.24-42.48,21.24-59.74,18.59S1553,473.4,1537.1,474.72s-35.84,15.93-53.1,18.59-21.24-21.24-37.17-22.57-23.9,13.28-38.5,10.62,0,0-2.66-6.64-2.65-22.56-1.33-33.19-2.65-21.24-5.31-30.53,0-18.59,2.66-29.21c2.22-8.87,11.83-13.09,15.71-11.14a33.75,33.75,0,0,0-9.07-10.1c-9.3-6.63,12-14.6,21.24-14.6s13.27,5.31,23.89,4,38.5-13.27,53.11-13.27,13.27,17.26,25.22,18.58,13.28-19.91,19.91-17.26,23.9,4,35.85,4,12-9.3,21.24-9.3,10.62,10.62,26.55,8,18.59-10.62,31.86-9.29-4,17.26-13.27,23.89-12,21.24-42.49,34.52S1562.33,423,1573,419s58.41-14.61,67.7-18.59,15.93-17.26,26.55-25.22,15.93,0,34.52-4,4-17.25,19.91-25.22,9.3-21.24,10.62-29.21-2.65-13.27,2.66-19.91,6.64-11.95,10.48-21.24-6.5-14.6-2.52-27.88,2.66-23.9,0-37.17S1715,190.63,1699.06,192s-35.84,12-50.44,12-61.07,2.66-77,5.31S1530.46,184,1511.88,184s-5.31,22.57-18.59,25.22-79.65,2.66-94.26,8-15.93-21.24-33.18-19.92-13.28,17.26-34.52,19.92-17.26-25.23-38.5-22.57-59.74,13.27-59.32,14.6-80.07-5.31-80.07,8S1169.37,265,1180,266.3s37.17,21.24,37.17,30.53,13.27,21.24,16.14,34.52-24.11,17.26-21.45,30.53,19.91,18.59,21.24,35.85-4,45.13-6.64,67.7-17.26,22.57-14.6,43.81,5.31,38.5,7,66.38-14.92,22.57-13.59,39.83-2.65,9.29,4,23.89,9.3,22.57,9.59,41.16-3,55.75-.29,74.34-13.28,13.28-29.21,13.28-29.21-1.33-25.22,21.24c1.58,9,1.66,14.55-.19,18.64,2.71,12.42,4.25,25.33,9.64,36.73a46,46,0,0,1,10.46.38c29.21,4,17.26,31.87,30.53,31.87s17.26-5.31,33.19-5.31,57.09-2.66,73,1.32,29.2-14.6,42.48-15.93,38.5,12,63.72,12,34.52-17.26,49.12-15.93,13.28,10.62,29.21,10.62,35.84-15.93,49.12-15.93,25.22,14.6,43.81,13.27,17.26-13.27,35.84-13.27,23.9,15.93,34.52,17.26,19.91-4,38.5-4,17.26-10.62,30.53-9.29,8,4,23.9,4-1.33-9.29,14.6-9.29c.27,0,.48.08.74.1C1772.41,838.32,1769.93,829.26,1767.68,820.19Z"/><path class="cls-3" d="M2911.28,226.47c4-10.62,2.65-10.62,0-21.24s-35.85-9.29-49.12-9.29-49.12-13.28-59.74-13.28-41.16,8-51.78,12-26.55,21.24-39.82,17.26-14.61-9.3-23.9-12-41.15-26.55-53.1-26.55-31.86,22.57-41.16,22.57-17.25-8-27.88-8-33.18,5.31-47.79,2.66-25.22-11.95-38.5-10.63-26.55,6.64-43.81,6.64-22.57-13.27-46.46-14.6-78.33,27.88-87.62,35.84-1.33,8,9.29,25.23-22.57,22.57-30.53,21.24a5.33,5.33,0,0,1-.85-.29c-1.67,6.74-3.63,13.42-5.16,20.13a102.42,102.42,0,0,0-1.83,10.66c1.12-5.26,1.56-8.11,6.51-5.28,9.29,5.31,4,38.5,10.62,55.76s13.28,19.91,14.6,37.17-10.62,15.93-8,30.54,9.29,10.62,10.62,31.83,9.29,35.87,14.6,33.22,5.31-13.28,8-26.56-6.64-17.25,0-33.18,10.62-22.57,2.65-31.87-5.31-23.89-5.31-34.51,10.62-18.59,25.23-23.9,31.86-5.31,51.77-6.64,18.59-9.29,34.52-11.94,34.51,11.94,42.48,14.6,38.5,2.65,45.14,10.62-1.33,35.84-1.33,54.43-23.9,57.08-23.9,71.69,11.95,2.65,13.28,13.27-13.28,53.11-10.62,74.35,19.91,25.22,19.91,42.48-21.24,42.48-18.58,63.72-22.57,30.54-22.57,45.14,6.64,29.21,10.62,54.43-14.61,33.19-33.19,37.17-23.9-26.55-30.53-33.19-8-30.53-14.61-42.48-14.6-14.6-19.91-22.57,0-19.91,1.33-29.21-10.62-13.27-19.92-6.63,0,6.63,2.66,19.91,13.27,25.22,17.26,34.52,8,19.91,8,38.5,9.29,37.17,15.93,50.44,50.45,62.4,59.74,70.36,21.24-1.32,29.21-1.32,30.53,23.89,38.5,23.89,5.31-13.27,13.27-11.94,15.94,6.63,30.54,0,0,0,2.65-14.61,6.64-30.53,6.64-38.5,8-29.2,14.6-42.48,11.95-18.59,14.61-27.88-6.64-12-10.62-18.58,1.32-14.61,9.29-22.57,17.26-22.57,23.9-35.85-9.3-1.32-17.26-2.65-5.31-10.62-5.31-27.88-1.33-22.57-1.33-22.57,10.62-17.26,14.6-21.24,8-23.9,10.62-31.86,0-71.69,0-87.62,4-11.95,10.62-18.59-2.65-27.88-6.63-38.5,6.63-10.62,14.6-14.6-1.33-15.93-5.31-26.55,2.65-15.93,14.6-29.21,0,0-6.63-9.29,0-14.6,11.94-21.24,22.57-9.29,15.93-18.59,17.26-11.95,27.88-9.29,39.83,12,53.11,8,21.24-2.66,37.17-4,14.6,6.64,38.5,1.33,10.62-6.64,26.55-13.28,8-14.6,17.26-21.24,6.63-8,11.8-21.24S2907.3,237.09,2911.28,226.47Z"/><path class="cls-3" d="M3344.06,346.61s37.84-33.85,53.77-33.85-4-15.93-26.88-8-58.75,43.81-78.66,41.81-27.88-10.11-51.78-22-21.9-7.89-41.81-9.88-29.87-10.43-37.84-12.18,31.86-27.64,0-27.64-49.78-2-63.72,0-39.83,0-21.91-19.92,19.92-25.89,19.92-37.83,4-10,21.9-21.91,29.87-13.94,47.79-13.94,27.88-6,33.86-17.92,23.53-17.92,37.65-19.91,30.05,15.93,46,13.94,23.9-11.95,39.83-6,0,2,15.93,6,19.91-14.25,33.85-14.1,13.48,24,31.63,22.06.23-24.21,24.13-22.06,17.92,14.1,49.78,18.08,41.82-10,57.75,6,21.91,13.94,35.85,27.88,25.89,25.89,39.82,37.84,33.86-10,35.85,21.9,10,21.91,29.87,33.85,2,21.91,23.9,23.9,63.72-8,71.68-29.87-2-2.21,12-37.95S3810,201.25,3810,187.31s11.95-22.51,0-44.12-25.89-11.64-37.84-31.56,10-27.87-17.92-29.87-39.83,8-59.74,0-11.95-19.91-37.83-33.85-17.93,6-33.86,0S3614.89,20,3587,18,3563.11,38,3547.18,32s-15.93-21.9-31.86-27.88,0,33.86-31.86,23.9-35.85-13.18-69.7-24.51-21.9,8.58-51.77,8.58-49.79,8-75.67,10-19.92-2-37.84-2-21.9,6-35.84,13.94,19.91-2-13.94,8-23.9,0-49.79,6,12,23.9-11.95,23.9-23.89-12-47.79-10-37.83,27.88-45.8,43.81,0,31.86-19.91,35.85-17.92,4-31.86,6-4,7.92-13.94,25.87-15.93,27.9-21.91,43.83-4,13.94,0,29.87-3.56,33.85-3.77,43.81-4.19,19.91,13.73,17.92,6-10,15.93,10-6,35.85,12,39.83,29.87-4,41.82,0,27.87,4,37.83,11.95-2,27.88,10,33.85,21.9-8,37.83,0,23.9,27.88,23.9,27.88,12,17.92,35.84,10,31.87,23.89,49.79,19.91,63.72-19.22,55.76.35-15.94,43.46,2,39.48,53.76-17,61.73.44,2,19.47,17.92,29.43,47.79,8,51.78,21.9-10,25.89,6,31.87,23.9-23.9,39.83,0,29.87,35.84,21.9,51.77-10,10-12,27.88,10,27.88,6,35.84-21.91-21.9-15.93,0,15.93,37.84,13.94,47.8,17.92,11.94-10,19.91-27.88-17.92-45.8,0,6,39.83-15.93,35.84-39.83,8.92-55.76.48-19.91,47.32-37.84,43.33-19.91-17.92-39.82-23.89-25.89,12-43.81,8-39.83,13.94-55.76,8-8-17.92-25.89-17.92-19.91,4-29.87,4-21.9,18.33-33.85,22.11-25.89-24.1-39.83-18.13-35.84,17-45.8,18.48-32.48-7.41-48.1,0-35.53,6.85-47.48.16-13.94-22.62-27.88-18.64-11.95,15.93-33.85,10-47.8-2-35.85-19.92,15.93-2,27.88-27.87,6-4,11.95-25.89,6-13.94,15.93-35.85,21.9-17.92,27.88-31.86,4-13.94,15.93-29.87,10-21.9,29.87-29.87,33.85-2,43.81-25.89,23.89-19.91,31.86-37.83,17.92-27.88,29.87-35.85,29.87-9.95,41.82-21.9S3121,505.53,3131,484.82s35.84-30.67,35.84-30.67-13.93-25.89-31.86-13.94-9.95,25.88-21.9,29.87-15.93,11.56-25.89,14.74-4,11.14-17.92,21.1-15.93-4-33.85,10-21.91,8-31.87,17.92,2,17.92-11.94,29.87-45.8,21.91-61.74,39.83S2898,635.36,2892,643.32s-4,21.91-12,29.87-27.88,29.87-43.81,35.85-10,19.91-15.93,27.88-4.05,25.89-17,27.88-20.88-6-34.81,8,15.93,8,0,29.87-25.89,47.7-27.88,51.73,4,20,15.93,25.93,2,13.94,15.93,23.9-12,15.93,6,21.91,10-4,27.88,0,8,25.88,29.87,21.9,45.8,1,61.73.48,45.8-11.4,59.74,0,6,28.69,21.91,35,8-9.62,25.89-11.61,41.81,11.28,55.75,11.61,6-15.6,33.86-13.6S3131,980.14,3150.9,985s43.81-9.1,65.72-13.08,23.89,2,41.82-2,21.9-11.95,33.85-10,59.74-2,75.67,2S3393.85,948,3409.78,944s-2-8,15.93-4,15.93-17.93,35.84-17.93-6,2,19.92,0,2-12,29.87-17.92-4,11.95,27.88-6,35.84-17.93,43.81-35.85,6-17.92,17.92-31.86,13.94-10,29.87-27.88,39.83-2,39.83-19.91-12-12,0-37.84,37.83-11.94,29.87-33.85-25.89,6-23.9-17.92,31.86-12,29.87-37.84-21.91-15.93-19.91-39.82,33.85-4,21.9-21.91-27.88-19.91-51.77-21.9-33.86-6-17.93-31.87-15.93-11.94-29.87-27.87S3581,494,3555.15,476.05s-39.83-11.95-33.86-27.88,23.9-4,6-15.93-23.9,11.95-43.81,8-19.91,0-37.84-10-35.84-37.84-47.79-43.81-15.93-8-29.87-13.94-11.95-6-17.92-15.93"/><path class="cls-3" d="M2307.15,723.1c-5.69-9.75-7.14-20.61-9.9-31,2.59-8.88,6.53-19.08,6.4-27.81-.11-6.74-3.71-12.2-5.41-18.81a124.57,124.57,0,0,1-2.79-16.42c.83-.45,1.66-.89,2.5-1.3.54-.27,1.08-.52,1.62-.76l.64-.28.14-.06,0,0,0,0h0c2.36-1,4.46-2.92,4.33-5.73a6.13,6.13,0,0,0-4.38-5.76c-.54-.14-1.07-.3-1.6-.48l-.07,0a15.63,15.63,0,0,0-2.11-1.17l0,0c-.19-.18-.42-.34-.6-.51a20,20,0,0,1-1.63-1.69l-.65-.79,0,0h0l-.76-1a74.19,74.19,0,0,0-3-11.45,55.24,55.24,0,0,0-8.88-16.5c-2-2.44-5.07-4.65-6.8-7.09-4.9-6.91-4.63-10-4-15,1.08-1.28,2.17-2.56,3.19-3.91,5.25-7,3.88-15.54-.64-22.52s-10.89-12.86-17.21-18.08c-2.86-3.35-5.92-6.6-8.62-10.08a13.38,13.38,0,0,1,.08-2.6l.36-1.49c.63-.92,1.26-1.79,1.73-2.54a27.11,27.11,0,0,0,4.32-11.9c.31-3.19-3-6-6-6a36.88,36.88,0,0,0-8.5,1.13c-.13-4.55.11-9.22.12-14.11,0-3.8.11-7.59.21-11.39q2.79-5.93,5.6-11.86c2.87-6.07,6-12.1,6.5-18.92.36-5.42-1.7-11.48-5.91-15.05a15,15,0,0,0-4.8-2.72c0-3,.11-6,.06-9-.23-16.71-3.46-31.08-8-46.17,2.24-1.34,4.52-2.62,6.84-3.82,4.46-2.31,3.54-9.86-1.43-10.92-1.11-.24-2.21-.5-3.3-.84-.54-.17-1.07-.36-1.61-.55,1.06.37-.53-.25-.63-.31-.51-.26-1-.55-1.47-.84l-.34-.19-.17-.16a27.36,27.36,0,0,1-2.17-2.14c-.83-.92-1.63-1.85-2.43-2.77-2.82-11.06-5.88-23-13.89-30.37-4.13-3.79-8.06-4.92-11.95-4.91a25.55,25.55,0,0,0,1-6.32c.24-7.5-4.24-13.43-6-20.5-2.05-8.23-1.53-17.34-7-24.42-.29-.37-.66-.67-1-1a101.27,101.27,0,0,0,1.26-18.16c.81-1.41,1.6-2.83,2.49-4.19.59-.91,1.2-1.81,1.83-2.69.32-.46.66-.9,1-1.35l.42-.52c.95-1.16,1.91-2.3,2.81-3.49a17,17,0,0,0,2.14-4.1c.92-2.34-.6-5.61-2.75-6.74a6.17,6.17,0,0,0-7.24.93c-.31.29-.62.58-1,.86l-.11.09c-.59.42-1.17.83-1.8,1.2-.16.1-.33.18-.5.27-3.36-13-8.57-17.54-23.72-19.06a76.07,76.07,0,0,0-22.08,1,28.88,28.88,0,0,0-4.47,1.36,12,12,0,0,0-.21-1.91c-.78-3.63-4.47-6.38-8.22-5.33-2.27.63-4,2.45-5.83,3.91l-4.11,3.3-4.1,3.31-.94.76-.53.34a5.47,5.47,0,0,0-2.88.73,6,6,0,0,0-1.38,1.17c-3.82-2-7.41-5-11.35-6.24a40.74,40.74,0,0,0-17.47-.89c-8,1.15-16.2,5.46-24.4,9.33-4.64-2.39-9.24-4.83-13.66-7.49l6.71-5.59c1.82-1.51,2.09-4.51,1.24-6.53a6,6,0,0,0-5.46-3.67,94.63,94.63,0,0,1-13.57-.48c-.5,0-1.05-.08-1.55-.18,1.34.28-.18,0-.48-.07-1.21-.18-2.41-.38-3.61-.61s-2.65-.59-4-.9c-8.08-9.39-16.36-18.32-30.45-11.67-4.46,2.1-9.35,9.92-14,17a145.69,145.69,0,0,0-18.29,1.49c-4.86-2.32-9.15-3.84-12.16-3.84-5.08,0-11.59,4.07-18.11,8.76a11.26,11.26,0,0,0-2.6,1.89c-8,5.85-15.63,11.92-20.45,11.92a20.12,20.12,0,0,1-5.89-1A237.88,237.88,0,0,0,1878,230.26a185.88,185.88,0,0,0-8.4,20.79c-2.05,6.31-3.75,12.72-6,19a86.14,86.14,0,0,1-8.59,18c-3.67,5.73-8,10.94-11.3,16.91a62.5,62.5,0,0,0-6.88,21.2c4.9,9.45-2.23,35.37-2.23,53,0,18.58-23.9,57.08-23.9,71.69s12,2.65,13.28,13.27-13.28,53.11-10.62,74.35,19.91,25.22,19.91,42.48-21.24,42.48-18.58,63.72-22.57,30.54-22.57,45.14,6.63,29.21,10.62,54.43c3,18.69-6.49,27.89-19.13,33a27.75,27.75,0,0,0-16.4,19.94c-2.91,13.32-3.23,27.27-.1,40.34,9.86,11.05,18.73,20.41,22.35,23.52,9.29,8,21.24-1.33,29.21-1.33s30.53,23.89,38.5,23.89,5.31-13.27,13.27-11.94,15.93,6.63,30.54,0,0,0,2.65-14.61c2.2-12.06,5.26-25,6.27-33.6a24.54,24.54,0,0,1,3.65-3.7,32.22,32.22,0,0,0,6-6.25,2,2,0,0,0-.31-2.41,3.83,3.83,0,0,0-3-1.1,4.62,4.62,0,0,1-2.24-.27,13,13,0,0,1-1.9-1.13A206,206,0,0,1,1925,776.08c6.64-13.27,12-18.58,14.61-27.88s-6.64-12-10.62-18.58,1.32-14.61,9.29-22.57,17.26-22.57,23.9-35.85-9.3-1.32-17.26-2.65-5.31-10.62-5.31-27.88-1.33-22.57-1.33-22.57,4.16-6.76,8.25-12.79c11.09.53,22.11-4,34.08-3.06,9.42.75,15.52,4.57,25.41,2.54a61.19,61.19,0,0,0,12.48-4.56,56.54,56.54,0,0,0,6.19-3.07,12.12,12.12,0,0,0,1.47-.48c6.45,10.59,12,13,27.67,13,6.52,0,13.66,2.5,20.12,1.55,8.7-1.29,13.59-7.88,22.72-8.49,5.33,4.4,11.63,7.16,19.27,6.38s11.49-5.73,17.8-9.14a38.48,38.48,0,0,1,13.85-4.47c4.17,7.49,8.61,14.76,9.15,23.64.26,4.15.22,8.39.07,12.66a42.56,42.56,0,0,0-5.77,13.79.87.87,0,0,0,.09.11,1.77,1.77,0,0,1,.15.24l.23.26c.56.64,1.11,1.29,1.69,1.93,1.31,1.45,2.67,2.86,4,4.28,3,3.11,5.93,6.24,8.61,9.61,5.78,7.27,11.38,16.72,6.76,26.07a20.41,20.41,0,0,1-9.84,9.22c-1.35.63-2.74,1.38-4.12,2l-.09.36s0,.11,0,.48a4.52,4.52,0,0,1,.22.82,17.82,17.82,0,0,1,1.09,3.41,13.8,13.8,0,0,1-1.65,10.31c-2,3.2-5.12,4.46-8.21,5.94,1.11,3.46,2.53,7.11,4.29,11.33a29.93,29.93,0,0,1,2.24,10.22,18.47,18.47,0,0,1-6.79,2.44c-2.26.33-3.11,3-2.78,4.9a89.89,89.89,0,0,0,4.56,17.79c-1.68,4.92-3.43,9.77-4.66,14.47-3.45,13.21-4.81,26.47.39,39.39,3.47,8.6,2.85,11.11.65,19.3-1.76,6.55-3,11.53.55,17.88,5.59,10,17.87,13.58,28.7,12.55a58.5,58.5,0,0,0,5.84-.87,8.14,8.14,0,0,0,1.3,0,147,147,0,0,0,20.8-5.05,37.83,37.83,0,0,0,10-5c1.16-.74,2.31-1.51,3.45-2.25l10.46-6.81a2,2,0,0,0-.47-3.64,72.47,72.47,0,0,1-18.23-6.92c.57-1.13,1.17-2.28,1.81-3.46.44-.84,1-1.61,1.44-2.42,12.39,4.6,28.18,4.25,39,.42a22.29,22.29,0,0,0,9-5.81,45.08,45.08,0,0,0,7.15,2.38,6.05,6.05,0,0,0,6.28-2.14,5.69,5.69,0,0,0,1.18-2.83,6.5,6.5,0,0,0-.71-3.81q-3.51-7.69-7-15.38a14.44,14.44,0,0,1,2.53-8.41c2.13-3.1,5.69-5,7.28-8.81,1.13-2.66.15-11.81,1.51-13.46a10.16,10.16,0,0,1,5.17-2.78c.87.58,1.77,1.12,2.63,1.72,1.2.86,2.39,1.75,3.57,2.64l.09.06.83.66,1.84,1.49q3.57,3,6.91,6.14a6,6,0,0,0,7.84.47c2.22-1.71,3.22-5.23,1.54-7.71a40.53,40.53,0,0,1-2.62-4.45c-.19-.39-.38-.78-.56-1.17l-.26-.62c-.26-.68-.52-1.35-.75-2s-.33-1.31-.51-2c6.42-3.25,12-8.48,13.46-15.83C2321.43,740.61,2312.87,732.9,2307.15,723.1ZM2130.84,443.25c-9.66,8.89-26.58,21.19-32.26,35.4a136,136,0,0,1-37.9,2.55c-9.31-.74-18.36-2.39-27.41.84-3.8,1.36-14.22,11-17.08,10.65-4.22-.47-13-14.66-18.91-17.14a26.44,26.44,0,0,0-19.07-1c-5.34,1.71-9.8,6.75-14.68,9,0-2.46-.08-4.56-.08-6.16,0-15.93,4-11.95,10.62-18.59s-2.65-27.88-6.64-38.5,23.9-70.36,17.26-79.65,0-14.6,12-21.24,22.57-9.29,15.93-18.59c-6.14-8.59,13.83-11.5,25.27-9.79,0-.06,0-.11,0-.17,1.41-11.29,3.45-22.75,3-34.16l22.8-1.77a53.53,53.53,0,0,0,9.53,12c4.49,4.44,9.25,8.59,14.12,12.61,5.71,15.89,9.29,32.55,13,49.2-4.12,9.12-3.94,20-.78,29.42,4.07,12.14,12.38,22.1,20.75,31.57a71.29,71.29,0,0,0,8.95,12.14,10.43,10.43,0,0,0,4.48,12.4c1.92,1.15,4.54.81,6.22,2.17a16.8,16.8,0,0,1,3.31,3.83,77.44,77.44,0,0,0,2.33,8.73C2141.12,434.12,2135.82,438.67,2130.84,443.25Z"/><path class="cls-3" d="M1168,218.79c3.8,3.42,9.45-2.2,5.63-5.63-7-6.27-15.86-4.16-23.68-.85-7.51,3.18-15.71,5.2-23.86,4.37a20.49,20.49,0,0,1-7.33-7.46c-.66-1.17-1.29-2.38-2-3.57l13.41-.7c5.19-.28,5-7.46,0-8-8-.81-15.27-4.38-22.91-6.63-.11-.31-.21-.63-.32-.95-.23-4.84-.34-9.69-.77-14.51-.75-8.3-1.68-17.61-7.31-24.19-5.24-6.13-13.77-10-20.84-13.55-1.43-.72-2.87-1.4-4.31-2.07-8.91-8.91-19-16.36-29.51-23.23a45,45,0,0,0-8.31-14.5c-8.77-10.13-21.85-15.79-34.18-20.2-7-2.5-14.57-4.73-21.42-8.12-6.57-6.41-12.64-13.3-18.74-20.13-.67-1.69-1.33-3.39-2.05-5.08C956,35.47,950.31,29,941.45,26.21c-8.63-2.74-18.8-3-27.79-2.93A144.77,144.77,0,0,0,887.25,26c-7-9.14-20.19-1.54-28.4,2.14-5.19,2.33-10.25,4.94-15.2,7.73A76.5,76.5,0,0,0,802.83,43c-3.58,0-7.11-.08-10.49-.34-39.48-3.16-26.24-19.4-45.55-21.46s-27.9,11.19-56,11c-9.24,0-24.27-.61-41.35-1.45,2.27-4.06,3.89-8.76,2.24-13.34a6.1,6.1,0,0,0-8.78-3.57l-30.2,14.78a.18.18,0,0,1-.07.05c-24.62-1.54-48.37-3.33-62-4.84-30.7-3.29-.34-15.19-37-14.69s-32.5,27.79-57.49,28.39-10-19.5-43.22-14.75c-9.76,1.43-22.25,3.85-36.3,6.52-20.73,18.51-48.55,22.87-77.8,22.61-18.46-.16-36.5-1.83-54.6,2.75-23.5,6-45.62,16.35-68.08,25.26C130,98.23,78.37,99.63,32.92,119.84A171.44,171.44,0,0,0,0,139.59c.32.68.6,1.36.94,2a55.77,55.77,0,0,0,28.42,26.79c5,2.19,11.42,3,17.52,4.08,3.57-.94,7.56-.63,12.25,1.6,20.88,10,13.28,24.53,5.08,46.15S50.93,265,43.7,298.73,39,382.6,50.83,381.15,58,360.36,70.72,339.88,76.57,321,81.88,299.64s-11.5-32.75-1.74-61.28,44.51-29.37,71.89-37c27.53-7.56,42-.06,37.1,17.49s1.67,39.3,34.45,36.76,28.33,18.51,38.74,38.3c10.22,19.81-11.41-1.25-4.45,27.4,6.74,28.62,10.43,49.22,22,62.12s20.39,44.81,21.14,68.71-6.49,21.21-23.38,44.88,34.88-6.59,31.62,33.43c-.74,9.18,11.91,12.87,19.72,26.06A52.22,52.22,0,0,0,322,583.6c.29,10,4.22,18.52,7.86,27.55Q328,617.63,325.31,625c-9,24.59-38.09-1.43-22.25,21,6.6,9.38,18.28,29.39,26.69,49.76a38.7,38.7,0,0,0-4.49,11.47c-1.89,8.91-.14,17.38,2.75,25.85,1.8,5.26,3.43,10.74,5.36,16.06-8.73,7.41-22.37,5.33-13.22,10.59,13.14,7.58,21.81,18,21.19,45.44S310.06,838.45,291,842s-16.78-1.55-39.73-7.9S225,767.67,213.07,758.6c-11.58-9.1-56-77.8-52.81-57.89,5.43,34.33,15.65,65.57,35.6,85.7s22.44,23.36,26.67,57.38,28.74,52,42.13,76.39,10.36-6.25,29.45,7.35c18.9,13.66,20.1,22.14,37.2,39.48s52.36,9.44,70,1.61c11.37-5.12,26-9.71,41.29-13.49.27,1.31.55,2.62.88,3.93,2,7.89,5.23,18.17,15.32,19.55,8.83,1.2,16.53-4.08,22.55-9.46A45.22,45.22,0,0,0,492,954.86a44.69,44.69,0,0,0,4.41-21,141.31,141.31,0,0,0,26.84,21.82,110.59,110.59,0,0,0,24.4,11.16q5,6.69,9.87,13.4c3.55,4.86,9.4,6,15,3.49q11.16-5.06,22.42-10a8.56,8.56,0,0,0,1.72-1,167.47,167.47,0,0,0,17.82-2,157.23,157.23,0,0,0,19-4.5c.34.71.68,1.42,1,2.13a15.56,15.56,0,0,0,6.17,7.23c5.3,3,11.48,1.89,16.09-1.74,3.62-2.85,6.88-6.26,10.28-9.36l2.07-1.87c3.85-1.12,7.75-2.08,11.61-3.08,4.34-1.13,8.6-2.38,12.81-3.79a30.41,30.41,0,0,0,4.56,1.7c15.16,4,31,1.6,45-5.13,4.24-2,8.28-5.39,12.59-7.74A237.94,237.94,0,0,1,779.57,954q6.55,3.06,12.93,6.48c3,1.64,6.06,3.53,9.17,5.14,4.9,3.07,10.38,5,16.31,3.48a12.61,12.61,0,0,0,2.62-.74c5.45-.9,10.93-2.51,16.11-3.06,10.31-1.09,20.49.17,30.75-.45,9.75-.59,18.88-4.69,27.72-8.58a65,65,0,0,0,22-15.77l.15-.17c.47.06.9.19,1.4.21,6.07.31,11.39-3.08,14.91-7.52,1.38-1.74,2.69-3.54,4-5.31,18.91-5.85,34.89-17.26,44.27-35.1a10.14,10.14,0,0,0,1.2-4.59,81.15,81.15,0,0,0,9.43-19.43c.3-.94.53-1.85.81-2.78a10.47,10.47,0,0,0,6.67-7.66c.86-4,.4-8.33-.12-12.32-.14-1.13-.39-2.23-.58-3.34a89.78,89.78,0,0,1,8.44-21.8,93.75,93.75,0,0,0,25.24-20.5l.31-.39c7.13-2.12,14.35-4,21.65-5.42,4-.81,3.56-6.63,0-7.69a65.54,65.54,0,0,1-11.32-4.57,15.67,15.67,0,0,0,.25-6.38,50.33,50.33,0,0,0,5.4-13.63c.16-.72.25-1.45.39-2.18l-.4-.32c.33-1,.67-2,1-3.08.27-1.69.48-3.39.65-5.08a24.92,24.92,0,0,1,9.73-6.52,2.05,2.05,0,0,0,1.46-1.92,2,2,0,0,0-1.46-1.92,25.88,25.88,0,0,1-9-4.06c.1-8-.14-16.12.21-24.13,1.73-1.9,3.47-3.79,5.2-5.68,1.5-1.65,3.52-3.36,3.58-5.77s-1.35-4.46-2.25-6.45l-2.55-5.61a27.75,27.75,0,0,0,4-3.07c7-6.7,6.79-16.71,2.37-24.74a47.66,47.66,0,0,0-8.89-11.06,59.71,59.71,0,0,0-11.16-19.95c.73-9.17,8.28-16,15.3-21.34,3.57-2.72,1.57-8.13-3.06-7.28a231.82,231.82,0,0,1-41.65,3.66c-.06-.7-.12-1.41-.12-2.15,0-9.16-1.46-17.22-7-25.36-6.57-9.58-16.86-16.93-28.22-23.37,3.5-3.07,6.24-6.49,6.73-10.76,1.27-11-14.08-13.3-25.22-14-12.05-.76-24.22,0-36.26.68-22.43-10.19-48.93-11.12-75.55-18.77-19.92-5.7-37.65-12.53-56.28-15,6.83-3.11,15.68-4.79,22.06-3.79,15.81,2.5,32.52-3.44,55.39-2s30-18.64,65.92-24.52-3.13-10.56,25.38-27.16c28.71-16.47,14.63-16.08,57.77-5.26,43,11.05,11.71-23,7.58-40.38-4-17.33,4.08-35.49,43.28-46,25.31-6.81,26.88-21.43,26.88-21.43a82.77,82.77,0,0,1,.47-13.28c3.61-2.41,5.94-6.87,4.24-11.77,1.9-3.15,4.5-6.61,8-11.18,6.89-3.46,14.34-5.35,19.23-11.8a24.71,24.71,0,0,0,4.56-10.24,161,161,0,0,1,38.44-16.5c4.25-1.2,3.52-8-1.06-7.83a292.12,292.12,0,0,1-40.55-1.55,83.79,83.79,0,0,1,8.75-5.3c6.36-3.42,12.79-6.65,18.56-10.94l1.84-.15c3.52-.26,4.56-4.1,3.22-6.35a4.19,4.19,0,0,0-1.3-2.08C1162.53,216.63,1165.62,216.65,1168,218.79ZM1054.92,743.36l-.86.51a1.74,1.74,0,0,0-.17-1C1054.24,743,1054.57,743.21,1054.92,743.36Zm-3.27-1.6,0,0,0,0Zm-11,47.75,0,0h0ZM793.18,609.59q8.6,9.45,16.78,19.25c1.13,1.36,3.41.21,3.4-1.41a36.83,36.83,0,0,1,.87-8c3.67.93,7.34,1.83,11,2.61,16.15,3.37,33.12,3.93,49,8.14A60,60,0,0,1,891,637.37a26.21,26.21,0,0,0,.25,6.08c.8,5.15,3.67,9.81,6.72,13.94,5.77,7.82,11.61,15.59,17.43,23.38.08,1.27.16,2.54.18,3.83a2,2,0,0,0-1.2,1.66c-.46,4.52-3,8.39-5,12.34a39,39,0,0,0-1.91,4.42,7,7,0,0,1-1.18-.69,5.47,5.47,0,0,1-1.82-2.44c0-.58-.07-1.16-.07-1.74a2,2,0,0,0-3.91-.53c0,.18,0,.35,0,.53h0c0,.19,0,.39,0,.58a6,6,0,0,0,0,.95A80.82,80.82,0,0,0,901.3,711a12,12,0,0,0-2.3,1.64c-2.81,2.69-3,6.63-2.3,10.23a34.83,34.83,0,0,0,3.72,9c.82,1.57,1.72,3.1,2.66,4.61.06.34.11.68.17,1a76.27,76.27,0,0,0,2,8.45c.42,1.41.89,2.81,1.4,4.19.22.59.46,1.19.69,1.78a1.56,1.56,0,0,1,.06.15c.13.29.25.57.38.85,1.41,3.14,1.53,6.38-.65,9.2a8.31,8.31,0,0,1-8.7,3,26.35,26.35,0,0,1-6.76-3c-.85-.53-1.69-1.1-2.55-1.61-.31-.18-.64-.34-1-.52-.47-.15-.93-.32-1.41-.44l-.34-.09-1-.16a7.73,7.73,0,0,0-5-1.85,13.76,13.76,0,0,0-7.32,2.81A25.85,25.85,0,0,0,869,764a67.3,67.3,0,0,0-14.37,7.44,70.58,70.58,0,0,0-15.25,15.61c-1.2,1.62-2.8,3.57-4.09,5.54-.56-.29-1.11-.55-1.61-.77-8.55-3.82-16.6.51-23.31,5.76-6.23,4.88-12,10.33-17.73,15.71l-1,.95c-15.68,6.89-32.4,10.64-49.29,13.87a19.6,19.6,0,0,0,2.19-5.13,4.09,4.09,0,0,0-1.83-4.5,4.22,4.22,0,0,0-4.83.63l-16.5,12.94c-6.32,1.22-12.61,2.53-18.84,4.07-17.21,4.25-32.35,5.8-49.78,1.83-18.22-4.16-31.58-5.22-50.22-3.08-30.87,3.53-55.46-2.58-80.56-21.08-.41-.3-.77-.62-1.14-.94q-3.58.3-7,.39c-13.16.34-23.35-16.35-16.08-28.21a91,91,0,0,0,10-24.33,54.58,54.58,0,0,0,8.62-15.21,45.46,45.46,0,0,0,2.68-18.2,42.72,42.72,0,0,0-1.92-10.66,114.54,114.54,0,0,1,5-15.27c4.24-10.21,20.59-29.66,14.56-40.8-2.12-3.9-12.14-7.72-15.46-10.54-21.38-18.21-30.16-53.1-.34-66.88,1-.47,2-.9,3.1-1.31a30.21,30.21,0,0,0,6.18,4.08c2.83,1.36,6.09,2.56,9.2,1.34,2.74-1.07,4.93-3.28,7.17-5.12l6.78-5.54c.09-.07.12-.19.19-.27a225.41,225.41,0,0,1,33.88,1.9c2.7-1.14,5.39-2.29,8.12-3.42,14.73.33,29.44,1.09,44.11,2.14a102.09,102.09,0,0,0,21.47,17.9,4,4,0,0,0,4.83-.62c1.1-1.2,1.7-3.39.62-4.83-.66-.88-1.29-1.78-1.93-2.67a43.12,43.12,0,0,0,12.78,1.16c4.78-.18,9.63-.61,14-2.79a16,16,0,0,0,4-2.94q10.76,1.2,21.43,2.48c17.93,2.16,37.09,4,53.69,9.82C780.7,598.05,787,603.63,793.18,609.59ZM955.32,259.81c-7.48,4.09-12.44,11.33-16.54,18.61-1,1.81-2.38,3.77-2.79,5.83a8.83,8.83,0,0,0,1,5.86c-3.11,4.8-5.44,10.15-7.84,15.34-.43.92-.86,1.84-1.3,2.75-1.85,1.4-3.68,2.81-5.57,4.2-4,3-7.93,6.46-10.55,10.71a3.55,3.55,0,0,0-1.3,1.31c-2.5,4.46-5.21,8.87-7.41,13.5a31.68,31.68,0,0,0-2.56,7.38c-7.58-.44-15.06,3.49-19.66,9.52-3,4-5,9-4.47,14.05,0,.41.16.78.22,1.18-10.06,21.54,2.14,39.36-28,45.13-30.92,6-27.63-9.11-46.14-2.3s-10.8,21.21-44.5,23.78c-33.68,2.73-26.44.38-58.09-1.66s-24.52-5.37-45.86,1.24-45.87,22.6-70.38,10.2c-6.54-3.3-12.33-5.87-17.18-8.3-.52-.06-1-.16-1.53-.23-30.16,3-63,2.83-85.64-17.72-16.06-14.55-18.61-33.78-19.63-53.57-.65-12.88-3.73-25.35-7.37-37.73a31.13,31.13,0,0,1,1-8,30.63,30.63,0,0,1,2.28-6.07,20.74,20.74,0,0,0,2.28-5.45,1.27,1.27,0,0,1,.07-.12h0c0-.17.09-.34.11-.52a2,2,0,0,0-1.72-2,2,2,0,0,0-2.19,1.43c-.46,1.18-2.1,1.57-3.23,1.5a5.43,5.43,0,0,1-1-.19,6.94,6.94,0,0,0-1.35-1,129.27,129.27,0,0,1-1-23.61c.51-10.66,2.87-20.62,5.49-30.91,1.41-5.59,2-11.23.41-16.86-1.38-5-3.72-9.87-5.63-14.71-.83-2.13-1.64-4.59-2.52-7.14l4.77-5.92a1.57,1.57,0,0,0,.92-1.13l1.29-1.61a2,2,0,0,0,0-2.81c-3.36-3.64-6.15-7.2-7.74-11.95-.76-2.25-1.45-4.52-2.13-6.79,1.71-6.91,5.41-13,13.95-17.19,9.69-4.8,21.81-7.38,34.27-8.8,25-8.92,56.51-6.73,83.29-3.78,4.71-2,8.13-3.11,8.14-3.1,41.91-.1,59.44,25.55,95.67,26s71.66-31.76,105.73-30.61c5.42.1,13,1.29,21.82,3.3a260.9,260.9,0,0,1,55.91,6,6.92,6.92,0,0,0,0,3c1,4.7,3.19,9.71,7.74,11.88s9.4.42,13.92-1c2.23-.69,4.54-1.45,6.81-.53,2.56,1,4.47,3.32,6.55,5,5,4.15,11,6.3,17.21,7.92,4,1,8,2,12,3a100.6,100.6,0,0,1,16.41,17,80.36,80.36,0,0,1,4.88,7.33V214a25.11,25.11,0,0,0,1.16,8.88,24.21,24.21,0,0,0,5.35,8.3c.73.76,1.47,1.51,2.22,2.24A73,73,0,0,1,955.32,259.81Z"/></svg>