<?xml version="1.0" encoding="UTF-8"?>
<!-- Generator: Adobe Illustrator 14.0.0, SVG Export Plug-In . SVG Version: 6.00 Build 43363)  -->
<!DOCTYPE svg PUBLIC "-//W3C//DTD SVG 1.1//EN" "http://www.w3.org/Graphics/SVG/1.1/DTD/svg11.dtd">
<svg version="1.1" id="Layer_1" xmlns="http://www.w3.org/2000/svg" xmlns:xlink="http://www.w3.org/1999/xlink" x="0px" y="0px" width="300px" height="116.812px" viewBox="-178 171.528 300 116.812" enable-background="new -178 171.528 300 116.812" xml:space="preserve">
<path d="M-129.103,235.747c0,4.429-3.69,8.039-8.229,8.039h-24.71v-32.11h24.71c4.539,0,8.229,3.584,8.229,8.03V235.747z   M-137.332,195.612H-178.5v92.728h16.458v-28.502h24.71c13.647,0,24.698-10.798,24.698-24.091v-16.039  C-112.634,206.406-123.684,195.612-137.332,195.612"/>
<rect x="-17.959" y="171.528" width="16.468" height="88.31"/>
<path d="M97.302,195.612h-12.38c-6.323,0-12.07,2.337-16.439,6.18c-4.377-3.843-10.15-6.18-16.452-6.18H39.677  c-13.678,0-24.715,10.794-24.715,24.094v40.132H31.42v-40.132c0-4.448,3.711-8.03,8.257-8.03H52.03c4.516,0,8.225,3.584,8.225,8.03  v40.132h16.424v-40.132c0-4.448,3.705-8.03,8.241-8.03h12.382c4.522,0,8.227,3.584,8.227,8.03v40.132H122v-40.132  C122.004,206.406,110.916,195.612,97.302,195.612z"/>
<path d="M-50.907,243.786h-24.678c-4.544,0-8.224-3.61-8.224-8.039v-16.039c0-4.448,3.68-8.03,8.224-8.03h24.678V243.786z   M-75.584,195.612c-13.661,0-24.709,10.794-24.709,24.094v16.039c0,13.295,11.048,24.093,24.709,24.093h24.678h16.491v-64.226  h-16.491H-75.584"/>
</svg>