<?xml version="1.0" encoding="utf-8"?>
<!-- Generator: Adobe Illustrator 26.3.1, SVG Export Plug-In . SVG Version: 6.00 Build 0)  -->
<svg version="1.1" id="Layer_1" xmlns="http://www.w3.org/2000/svg" xmlns:xlink="http://www.w3.org/1999/xlink" x="0px" y="0px"
	 viewBox="0 0 3839 961.3" style="enable-background:new 0 0 3839 961.3;" xml:space="preserve">
<style type="text/css">
	.st0{display:none;}
	.st1{display:inline;}
	.st2{fill:#FFFFFF;}
	.st3{fill:#C30207;}
</style>
<g>
	<g>
		<rect x="556.9" y="693.8" class="st2" width="222.1" height="75"/>
		<path class="st2" d="M143.3,512.9v-0.1h-5.1H93.9H5.9H0v427.9h93.9v-344h44.2c63.2,0,63.2,101.3,0,101.3h-23.6V782h23.6h5.1v-0.1
			C332,781.8,332,512.9,143.3,512.9z"/>
		<path class="st2" d="M968.3,506.2c-80.7,0-146.2,65.5-146.2,146.2c0,79.4,63.2,143.9,142.1,146.1l-70.7,158.3h98.9l110-246.5
			c7.7-17.8,11.9-37.3,11.9-57.9C1114.4,571.6,1049,506.2,968.3,506.2z M968.3,708.2c-30.8,0-55.8-25-55.8-55.8
			c0-30.8,25-55.8,55.8-55.8c30.8,0,55.8,25,55.8,55.8C1024.1,683.2,999.1,708.2,968.3,708.2z"/>
		<path class="st2" d="M526.3,509.9c-85.7,0-154.3,37-193.1,104.3c-41.1,71.2-41.1,163.1,0,234.3c38.8,67.2,107.4,104.3,193.1,104.3
			h27.1h3.5v-3.5v-83.8v-3.5h-3.5h-27.1c-50.6,0-91.1-21.8-113.9-61.3c-23.9-41.4-23.9-97.1,0-138.5c22.8-39.5,63.3-61.3,113.9-61.3
			h27.1h3.5v-3.5v-83.8v-3.5h-3.5H526.3z"/>
		<path class="st2" d="M1418.9,637.1c0-73.7-61.7-133.4-137.8-133.4c-76.1,0-137.8,59.7-137.8,133.4c0,33.3,12.7,63.7,33.5,87
			c-25,25.2-40.4,59.3-40.4,97c0,77.4,64.8,140.2,144.8,140.2s144.8-62.8,144.8-140.2c0-37.7-15.4-71.8-40.4-97
			C1406.3,700.7,1418.9,670.3,1418.9,637.1z M1281.1,591.6c25.1,0,45.4,20.3,45.4,45.4c0,25.1-20.3,45.4-45.4,45.4
			c-25.1,0-45.4-20.3-45.4-45.4C1235.7,612,1256,591.6,1281.1,591.6z M1281.1,869.3c-29.1,0-52.6-23.6-52.6-52.6
			s23.6-52.6,52.6-52.6c29.1,0,52.6,23.6,52.6,52.6S1310.2,869.3,1281.1,869.3z"/>
		<path class="st2" d="M1607.9,507.9c-98,0-157.9,72-157.9,226.7c0,154.7,59.9,226.7,157.9,226.7c98,0,157.9-72,157.9-226.7
			S1705.9,507.9,1607.9,507.9z M1671.4,734.8L1671.4,734.8c-0.1,97.3-20.5,140.7-63.5,140.7c-43,0-63.4-43.4-63.5-140.7l0,0
			c0-0.1,0-0.2,0-0.3c0-0.1,0-0.2,0-0.3l0,0c0.1-97.3,20.5-140.7,63.5-140.7c43,0,63.4,43.4,63.5,140.7l0,0c0,0.1,0,0.2,0,0.3
			C1671.4,734.7,1671.4,734.7,1671.4,734.8z"/>
		<path class="st2" d="M1948.4,507.9c-98,0-157.9,72-157.9,226.7c0,154.7,59.9,226.7,157.9,226.7c98,0,157.9-72,157.9-226.7
			S2046.4,507.9,1948.4,507.9z M2011.9,734.8L2011.9,734.8c-0.1,97.3-20.5,140.7-63.5,140.7c-43,0-63.4-43.4-63.5-140.7l0,0
			c0-0.1,0-0.2,0-0.3c0-0.1,0-0.2,0-0.3l0,0c0.1-97.3,20.5-140.7,63.5-140.7c43,0,63.4,43.4,63.5,140.7l0,0c0,0.1,0,0.2,0,0.3
			C2011.9,734.7,2011.9,734.7,2011.9,734.8z"/>
		<g>
			<rect x="2138.6" y="512.7" class="st2" width="206.7" height="92.8"/>
			<rect x="2138.6" y="647.8" class="st2" width="206.7" height="92.8"/>
			<path class="st2" d="M2433.3,782.2c0,36.3-29.4,65.6-65.6,65.6v0h-229.1v92.8h229.1c87.5,0,158.5-71,158.5-158.5V534.1h-92.8
				V782.2z"/>
			<path class="st2" d="M3707.3,512.7c-19.7,0-35.6,16-35.6,35.6c0,19.7,16,35.6,35.6,35.6c19.7,0,35.6-16,35.6-35.6
				C3743,528.7,3727,512.7,3707.3,512.7z"/>
			<path class="st2" d="M3803.4,512.7c-19.7,0-35.6,16-35.6,35.6c0,19.7,16,35.6,35.6,35.6c19.7,0,35.6-16,35.6-35.6
				C3839,528.7,3823,512.7,3803.4,512.7z"/>
			<path class="st2" d="M3618.2,688.3c64.9-64.7,19.1-175.6-72.6-175.6h-269.5v82.1h259.7c22,0,33.1,26.7,17.5,42.2l-208,207.3
				c-6.8,6.8-16,10.6-25.6,10.6h-57.9v72.6v13h67.3c23,0,45.1-9.1,61.5-25.4L3451,855l49.1-49c34.7,31.9,82,114.9,82,134.6h83.8
				c0-54.9-73.1-157.7-108-192.3L3618.2,688.3z"/>
		</g>
		<g>
			<rect x="2574.5" y="512.7" class="st2" width="92.7" height="206.5"/>
			<rect x="2938.8" y="678.5" class="st2" width="356.5" height="92.7"/>
			<path class="st2" d="M2805,782.2c0,36.2-29.4,65.6-65.6,65.6l-164.9,0v92.8h164.9c87.4,0,158.3-70.9,158.3-158.3V512.7H2805
				V782.2z"/>
		</g>
	</g>
	<g>
		<polygon class="st3" points="1716.8,97.2 1790.1,55.6 1700.5,3.1 1654.1,224.3 1458.8,6.2 1367.4,109.3 1395.5,112 1415.2,134.1 
			1356.3,414.5 1464.4,359.9 1413.7,313.5 1444.5,166.7 1653.3,399.9 		"/>
		<path class="st3" d="M2115.4,15.4h-267.6h-2.6h-49.8c-2.8,0-3.5,3.9-0.9,4.8c25.3,9,44.8,22.7,42.3,34.8l-24.3,115.7
			c-3,14.2-27,20.3-49.2,22.9c-3.5,0.4-3.6,5.5-0.1,6.1c28.4,4.5,38.7,10.4,40.1,14.1L1776.9,341c-4.3,20.3-33.5,25.2-58.8,34.3
			c-2.6,0.9-1.9,4.8,0.9,4.8h49.8h29.9h90.5h122.1h55h1.2l24.5-116.5c0.8-3.9-4.4-6-6.5-2.6c-20.1,32.3-65.3,95.5-110.6,95.5h-80.9
			l31.6-150.9h20.4h0.1c31.6,0,53.8,48.8,61.1,67.6c0.8,2.1,3.8,1.8,4.3-0.4l32.2-153.6c0.5-2.3-2.5-3.8-4-1.8
			c-14.8,18.9-54,64.6-90.1,64.6h-19.2l30-143h84.5c43.8,0,58.1,46.8,63.6,104.6c0.4,4.8,7.2,5.1,8.2,0.5l27-128.7L2115.4,15.4z"/>
		<path class="st3" d="M2391.5,380l76.5-147.7c2.3-4.2-1.3-5.7-4.9-2.7c-145.5,120.5-242.8,11.1-228.5-60.4
			c15.7-78.2,77.5-117,134.6-129.9l59.7,76.9l53.7-26.2l-41-89.6c-128.4-6.1-292.1,74.5-299.9,222.1
			C2137.9,296,2209.1,443.4,2391.5,380z"/>
	</g>
</g>
</svg>
