<?xml version="1.0" encoding="utf-8"?>
<!-- Generator: Adobe Illustrator 25.2.3, SVG Export Plug-In . SVG Version: 6.00 Build 0)  -->
<svg version="1.1" id="Layer_1" xmlns="http://www.w3.org/2000/svg" xmlns:xlink="http://www.w3.org/1999/xlink" x="0px" y="0px"
	 viewBox="0 0 3839 1531" style="enable-background:new 0 0 3839 1531;" xml:space="preserve">
<style type="text/css">
	.st0{fill:#FF002B;}
	.st1{fill:#FFFFFF;}
	.st2{fill:#C8C6B9;}
	.st3{fill:#F7F4E6;}
	.st4{fill:#080B19;}
</style>
<g>
	<g>
		<path class="st0" d="M2757.4,508.5c-0.8-59-42.4-116.1-120.4-165c-72.7-45.6-177.3-84.6-302.5-112.7
			c-24.9-5.6-50.9-10.8-77.4-15.5l2.4-1.9l0,0l55.3-44.7c7.2-5.8,0.2-17.1-8.2-13.3l-56.2,25.4l-54.4,24.6l-17.3-2.4
			c-108.9-15.1-224.5-22.8-343.7-22.8l-5,0l4.1-26.8c0.1-0.9,0.8-1.7,1.8-1.8l54.4-10.8l-5.8,37.7l146.9-29.2l7.1-46.3
			c7.1-46.2-23-90.4-68.6-100.7c-12.1-2.7-24.6-2.9-37-0.4l-103.5,20.6c-58.5,11.6-106.4,52.2-128.6,105.8
			c-9.5-29-33.7-52.4-65.2-59.5c-12.1-2.7-24.6-2.9-37-0.4L1373.9,113l-17.1,111.3l-12.7,2.6c-146.4,30-269.4,72.9-355.9,124.2
			c-92.3,54.7-140.6,118-139.7,183c1,77,69.3,148.2,197.6,205.7l10.4,4.7l-22.1,143.6c-2.2,14.4,6.3,28.6,20.3,32.4
			c4.2,1.1,8.5,1.3,12.8,0.4l539.9-107.4c-3.6,4-6,9-6.9,14.5L1583.2,941c-2.2,14.4,6.3,28.6,20.4,32.4c4.2,1.1,8.5,1.3,12.8,0.4
			l95.2-18.9c60.3-12,112.4-46.3,147.6-93.8l19.3-0.8c131.6-5.2,256.9-19.4,372.5-42.4c149.3-29.7,274.9-72.7,363.4-124.5
			C2708.8,638.3,2758.3,574.4,2757.4,508.5z"/>
		<g>
			<polygon class="st1" points="2266.1,189.4 1987.4,315.2 1898.5,234.2 1930.8,350.1 1693,542.3 1971.7,416.5 2060.6,497.4 
				2028.3,381.6 			"/>
			<g>
				<polygon class="st1" points="2266.1,189.4 1987.4,315.2 1898.5,234.2 1930.8,350.1 1693,542.3 1971.7,416.5 2060.6,497.4 
					2028.3,381.6 				"/>
			</g>
			<g>
				<path class="st1" d="M1990.3,301.2l2.5-1.1c1.2-4.7,2.1-9.4,2.9-14.2l4.6-29.8l-48.8,9.7L1990.3,301.2z"/>
				<path class="st1" d="M1763.7,440.7l48.6-9.7l104.8-84.7l-19.4-69.8l-14.2,2.8l-4,26.2c-1.1,6.9-6.3,12.4-13.2,13.8l-62,12.3
					c-6.1,1.2-11.6-4-10.6-10.2l26.2-170.4c1.1-6.9,6.3-12.4,13.2-13.8l62-12.3c6.1-1.2,11.6,4,10.6,10.2l-3.8,25l116.8-23.2
					l5.6-36.3c7.9-51.3-37.6-94.9-88.5-84.7l-103.5,20.6c-66.8,13.3-118.1,66.9-128.5,134.2L1675.1,356
					C1667.2,407.3,1712.7,450.9,1763.7,440.7z"/>
			</g>
			<path class="st1" d="M950,645.6c-45-36-68.1-73.7-68.7-112C879.9,426,1060.9,319.5,1344,260.4l3-19.4
				c-290,59.4-485.7,169.5-484,292.9c1,73.2,71.2,139.9,189.1,192.8l2.9-18.9C1012.9,688.6,977.8,667.8,950,645.6z"/>
			<path class="st1" d="M1835,194.5l-2.8,18.4c108.7-0.1,214.2,6.2,312.9,18.5l31.7-14.3C2071.3,202.5,1956,194.4,1835,194.5z"/>
			<path class="st1" d="M2238.4,226.6l-19.1,15.4c87.3,14.1,168.1,33.2,239.4,56.9c84.7,28.1,151,61.1,197.2,98
				c45,36,68.1,73.7,68.7,112c1.5,109.8-186.9,218.5-480,276.8c-109.7,21.8-231.5,35.9-356.3,41.4c-3.2,6.4-6.6,12.7-10.3,18.9
				c133.2-5.2,258.5-19.9,370.2-42.2c295.9-58.9,496.4-170.1,494.8-295.1C2741.3,383.5,2537,277.4,2238.4,226.6z"/>
			<g>
				<path class="st1" d="M2438.8,423.6l-96,19.1c-5.7,1.1-10,5.7-10.9,11.4l-3,19.4l115.3-22.9c5.7-1.1,10-5.7,10.9-11.4l0,0
					C2456.5,429.8,2448.2,421.8,2438.8,423.6z"/>
				<path class="st1" d="M1705.2,577l-14.7,95.8c-1.2,7.6,5.5,14,13,12.5l109.3-21.8l18.3-118.9L1714,567.8
					C1709.4,568.8,1705.9,572.4,1705.2,577z M1744.6,605.9l34.4-6.8l-4.3,27.9l-34.4,6.8L1744.6,605.9z"/>
				<path class="st1" d="M2538.7,357.1c-17.2-26-48.1-38.2-77.5-32.4l-120.7,24c-31.9,6.3-59.3,24.8-77.4,50.3
					c-0.6-0.6-1.2-1.2-1.8-1.8c-17.7-17-42.7-24.2-66.8-19.5l-146.4,29.1l11.6,41.8l143.2-28.5c21.8-4.3,41.3,14.3,37.9,36.3
					l-27.3,177.5l-48.4,9.6l23.9-155.3c1.2-7.6-5.5-14-13-12.5l-109.3,21.8l-26.3,170.8l-48.4,9.6l30.6-198.8l-53.7-48.9
					l-144.2,65.1l14.5-2.9l48.4-9.6l0,0l-40.3,261.8c-11.8,77-70.6,138.3-146.9,153.5l-53.9,10.7l8-51.9l37.7-7.5
					c57-11.3,100.8-57.1,109.7-114.6l3-19.7l-128.3,25.5c-21.8,4.3-41.3-14.3-37.9-36.3l18.6-121.1c3.3-21.6,15-40.3,31.7-52.8
					l0.1-0.1l85.7-69.3l-61.3,12.2c-31.9,6.3-59.3,24.8-77.4,50.3c-0.6-0.6-1.2-1.2-1.8-1.8c-17.7-17-42.7-24.2-66.8-19.5
					l-129.8,25.8l3.6-23.5l15-97.4l91.5-18.2c66.8-13.3,118.1-66.9,128.5-134.2l13.5-87.9c7.9-51.3-37.6-94.9-88.5-84.7l-214.7,42.7
					l-40,260l-217.8,43.3c-5.7,1.1-10,5.7-10.9,11.4l-69.4,451.3c-1.5,9.4,6.9,17.4,16.3,15.6l292.4-58.2l0,0l94.5-18.8l26.3-170.8
					l34.4-6.9L1486,822.9l138.7-27.6l3.6-23.4c16.5,11.1,36.9,15.3,56.7,11.4l55-11c-13.7,17.6-33.5,30.3-56.3,34.8l-58,11.5
					c-5.7,1.1-10,5.7-10.9,11.4l-17.5,114c-1.5,9.4,6.9,17.4,16.3,15.6l95.2-18.9c94.2-18.7,166.6-94.4,181.3-189.4l1.4-9.1
					l93.6-18.6l0,0l93.6-18.6l26.3-170.8l34.4-6.9L2113,698.2l138.7-27.6l3.6-23.4c16.5,11.1,36.9,15.3,56.7,11.4l197-39.2
					c5.7-1.1,10-5.7,10.9-11.4l20.5-133.4l-5.5,1.1c5.1-10.7,8.7-22.3,10.6-34.4l4.6-29.8C2553,392.5,2549.3,373,2538.7,357.1z
					 M1487.4,206.1l73.4-14.6c6.1-1.2,11.6,4,10.6,10.2l-11.2,73c-1.1,6.9-6.3,12.4-13.2,13.8l-74.5,14.8L1487.4,206.1z M1319.1,812
					l-21,4.2l-24.7,4.9l-137.7,27.4l-38,7.6l59.9-389.2l16-3.2l118.3-23.5l53.6-10.7l-8,51.9l-15.4,3.1L1198,509.2l-17.6,114.6
					l58.1-11.6l10.4-2.1l38-7.6l-8,51.9l-20.4,4.1l-28,5.6l-58.1,11.6L1154,794.5l127.3-25.3l7-1.4l38.8-7.7L1319.1,812z
					 M1206.2,740.1l4.3-27.9L1317,691l22-142.9l-106.5,21.2l3.6-23.5l88.5-17.6l40.2-8l-5.7,37.3l-24.2,157.1L1206.2,740.1z
					 M1586.6,758.8l-48.4,9.6l23.9-155.3c1.2-7.6-5.5-14-13-12.5l-109.3,21.8l-26.3,170.8l-48.4,9.6l34.3-222.7L1576,545
					c21.8-4.3,41.3,14.3,37.9,36.3L1586.6,758.8z M1946.8,687.1l-48.4,9.6l34.3-222.7l48.4-9.6L1946.8,687.1z M2507.5,403.5
					l-4.8,31.2c-5.2,33.9-31,60.8-64.6,67.5l-117.2,23.3l-3.5,22.5c-1.2,7.6,5.5,14,13,12.5l109.3-21.8l21.7-4.3l26.7-5.3l-8,51.9
					l-9.1,1.8l-167.6,33.3c-21.8,4.3-41.3-14.3-37.9-36.3l18.6-121.1c5.2-33.9,31-60.8,64.6-67.5l120.7-24
					C2491.4,362.8,2510.9,381.5,2507.5,403.5z"/>
			</g>
		</g>
	</g>
	<g>
		<g>
			<path d="M201.4,1531h385.9v-94.3H201.4c-142.8,0-142.8-214.2,0-214.2h385.9v-94.3H201.4C-67.1,1128.3-67.1,1531,201.4,1531z"/>
		</g>
		<g>
			<path d="M1047.4,1128.3L1047.4,1128.3l-385.9,0v400.6v2.2h385.9v0C1315.9,1531,1315.9,1128.3,1047.4,1128.3z M1047.4,1436.8
				H755.8v-214.2h291.6C1190.2,1222.6,1190.2,1436.8,1047.4,1436.8z"/>
		</g>
		<g>
			<path d="M2611.2,1128.3L2611.2,1128.3h-249.4c-268.5,0-268.5,402.7,0,402.7l249.4,0v0C2879.7,1531,2879.7,1128.3,2611.2,1128.3z
				 M2611.2,1436.8L2611.2,1436.8h-249.4c-142.8,0-142.8-214.2,0-214.2c0-11.4,0,0,0,0h249.4v0
				C2754,1222.6,2754,1436.8,2611.2,1436.8z"/>
		</g>
		<g>
			<path d="M1383.4,1279.1h-20.6c-26,0-47.1,21.1-47.1,47.1c0,26,21.1,47.1,47.1,47.1h20.6c26,0,47.1-21.1,47.1-47.1
				C1430.5,1300.2,1409.4,1279.1,1383.4,1279.1z"/>
		</g>
		<g>
			<path d="M2048.5,1352.4c19.9-24.8,30-56.6,30-88.4c0-67.9-45.2-135.7-135.7-135.7c0,0,0,0,0,0h-346.1l-94.3,0v0V1531h94.3v-131.3
				h346.1v0c20.7,0,41.5,13.8,41.5,41.5v89.9h94.3v-89.9h0C2078.5,1403.8,2066.9,1374.3,2048.5,1352.4z M1942.8,1305.5
				C1942.8,1305.5,1942.8,1305.5,1942.8,1305.5l-346.1,0v-82.9h346.1v0c27.6,0,41.5,20.7,41.5,41.5
				C1984.3,1284.7,1970.5,1305.5,1942.8,1305.5z"/>
		</g>
		<g>
			<path d="M3372.3,1128.3h-346.4c-90.5,0-135.7,67.9-135.7,135.7v0v267h94.3v-267c0-20.7,13.8-41.5,41.5-41.5v0h129.9V1531h94.3
				v-308.5h122.2v0c27.6,0,41.5,20.7,41.5,41.5v267h94.3v-267v0C3508,1196.2,3462.7,1128.3,3372.3,1128.3z"/>
		</g>
		<g>
			<path d="M3656.6,1216.8c0-12.7,8.5-25.4,25.4-25.4h20.2h9.7h50.3v0c102.4,0,102.4-153.7,0-153.7h-146.7v51.4h146.7
				c33.9,0,33.9,50.8,0,50.8v0h-50.3v0H3682v0c-51.2,0-76.8,38.4-76.8,76.8v5.7v24.2v27.2h226.5v-51.4h-175.1V1216.8z"/>
		</g>
	</g>
</g>
</svg>
