<?xml version="1.0" encoding="UTF-8" standalone="no"?>
<!-- Generator: Adobe Illustrator 25.2.3, SVG Export Plug-In . SVG Version: 6.00 Build 0)  -->

<svg
   version="1.1"
   id="Layer_1"
   x="0px"
   y="0px"
   viewBox="0 0 3839 1534.1"
   style="enable-background:new 0 0 3839 1534.1;"
   xml:space="preserve"
   sodipodi:docname="NEC PC Engine CD -7-07.svg"
   inkscape:version="1.2.2 (732a01da63, 2022-12-09)"
   xmlns:inkscape="http://www.inkscape.org/namespaces/inkscape"
   xmlns:sodipodi="http://sodipodi.sourceforge.net/DTD/sodipodi-0.dtd"
   xmlns="http://www.w3.org/2000/svg"
   xmlns:svg="http://www.w3.org/2000/svg"><defs
   id="defs85" /><sodipodi:namedview
   id="namedview83"
   pagecolor="#ffffff"
   bordercolor="#111111"
   borderopacity="1"
   inkscape:showpageshadow="0"
   inkscape:pageopacity="0"
   inkscape:pagecheckerboard="1"
   inkscape:deskcolor="#d1d1d1"
   showgrid="false"
   inkscape:zoom="0.31987497"
   inkscape:cx="1683.4703"
   inkscape:cy="765.92427"
   inkscape:window-width="1920"
   inkscape:window-height="1009"
   inkscape:window-x="-8"
   inkscape:window-y="-8"
   inkscape:window-maximized="1"
   inkscape:current-layer="g78" />
<style
   type="text/css"
   id="style2">
	.st0{fill:#FF002B;}
	.st1{fill:#FFFFFF;}
	.st2{fill:#C8C6B9;}
	.st3{fill:#F7F4E6;}
	.st4{fill:#080B19;}
</style>
<g
   id="g80">
	<g
   id="g34">
		<path
   class="st0"
   d="M2750.7,504.5c-0.8-58.6-42.1-115.2-119.5-163.7c-72.1-45.2-175.9-83.9-300.1-111.8    c-24.7-5.6-50.5-10.7-76.8-15.4l2.4-1.9l0,0l54.9-44.4c7.1-5.8,0.2-17-8.1-13.2l-55.7,25.2l-54,24.4l-17.2-2.4    c-108-15-222.7-22.6-340.9-22.6l-4.9,0l4.1-26.6c0.1-0.9,0.8-1.6,1.7-1.8l53.9-10.7l-5.7,37.4l145.7-29l7.1-45.9    c7.1-45.8-22.8-89.7-68-99.9c-12-2.7-24.4-2.8-36.7-0.4L1830,22.2c-58,11.5-105.5,51.8-127.6,104.9c-9.5-28.8-33.4-52-64.7-59    c-12-2.7-24.4-2.8-36.7-0.4l-222.8,44.3l-17,110.4l-12.6,2.6c-145.2,29.7-267.3,72.3-353,123.2    c-91.5,54.3-139.4,117.1-138.6,181.6c1,76.4,68.8,147,196,204.1l10.3,4.6L1041.5,881c-2.2,14.2,6.3,28.4,20.2,32.1    c4.2,1.1,8.5,1.3,12.7,0.4L1609.9,807c-3.5,3.9-6,8.9-6.8,14.4l-17.3,112.2c-2.2,14.2,6.3,28.4,20.2,32.1    c4.2,1.1,8.5,1.3,12.7,0.4l94.4-18.8c59.8-11.9,111.5-45.9,146.5-93l19.2-0.8c130.5-5.1,254.8-19.3,369.5-42.1    c148.1-29.5,272.7-72.2,360.5-123.5C2702.5,633.2,2751.6,569.8,2750.7,504.5z"
   id="path4" />
		<g
   id="g32">
			<polygon
   class="st1"
   points="2263.4,187.9 1986.9,312.7 1898.7,232.4 1930.7,347.3 1694.8,537.9 1971.3,413.1 2059.5,493.5      2027.5,378.5    "
   id="polygon6" />
			<g
   id="g10">
				<polygon
   class="st1"
   points="2263.4,187.9 1986.9,312.7 1898.7,232.4 1930.7,347.3 1694.8,537.9 1971.3,413.1 2059.5,493.5       2027.5,378.5     "
   id="polygon8" />
			</g>
			<g
   id="g16">
				<path
   class="st1"
   d="M1989.7,298.8l2.5-1.1c1.1-4.6,2.1-9.3,2.8-14.1l4.5-29.5l-48.4,9.6L1989.7,298.8z"
   id="path12" />
				<path
   class="st1"
   d="M1764.9,437.2l48.2-9.6l104-84.1l-19.3-69.2l-14.1,2.8l-4,26c-1.1,6.9-6.3,12.3-13.1,13.7l-61.5,12.2      c-6.1,1.2-11.5-4-10.5-10.1l26-169c1.1-6.9,6.3-12.3,13.1-13.7l61.5-12.2c6.1-1.2,11.5,4,10.5,10.1l-3.8,24.8l115.8-23l5.5-36      c7.8-50.9-37.3-94.1-87.8-84.1l-102.7,20.4c-66.3,13.2-117.2,66.4-127.5,133.2l-28.3,183.8      C1669.3,404,1714.4,447.3,1764.9,437.2z"
   id="path14" />
			</g>
			<path
   class="st1"
   d="M957.8,640.5c-44.7-35.7-67.6-73.1-68.1-111.1c-1.4-106.8,178.1-212.4,459-271.1l3-19.3     C1063.9,298,869.8,407.2,871.4,529.6c1,72.6,70.7,138.7,187.5,191.2l2.9-18.7C1020.2,683.1,985.3,662.5,957.8,640.5z"
   id="path18" />
			<path
   class="st1"
   d="M1835.6,192.9l-2.8,18.3c107.8-0.1,212.5,6.1,310.4,18.4l31.4-14.2C2070.1,200.8,1955.7,192.9,1835.6,192.9z     "
   id="path20" />
			<path
   class="st1"
   d="M2235.9,224.8l-18.9,15.3c86.6,14,166.7,32.9,237.5,56.4c84,27.9,149.8,60.6,195.6,97.2     c44.7,35.7,67.6,73.1,68.1,111.1c1.5,109-185.4,216.7-476.1,274.6c-108.9,21.7-229.7,35.6-353.4,41c-3.2,6.4-6.6,12.6-10.3,18.7     c132.1-5.2,256.4-19.8,367.2-41.8c293.6-58.4,492.5-168.8,490.8-292.7C2734.7,380.4,2532,275.2,2235.9,224.8z"
   id="path22" />
			<g
   id="g30">
				<path
   class="st1"
   d="M2434.6,420.2l-95.2,18.9c-5.6,1.1-10,5.6-10.8,11.3l-3,19.3l114.4-22.8c5.6-1.1,10-5.6,10.8-11.3l0,0      C2452.3,426.3,2443.9,418.4,2434.6,420.2z"
   id="path24" />
				<path
   class="st1"
   d="M1707,572.4l-14.6,95c-1.2,7.5,5.5,13.8,12.9,12.4l108.4-21.6l18.2-118l-116.2,23.1      C1711.1,564.2,1707.7,567.8,1707,572.4z M1746,601l34.1-6.8l-4.3,27.7l-34.1,6.8L1746,601z"
   id="path26" />
				<path
   class="st1"
   d="M2533.8,354.3c-17.1-25.8-47.7-37.9-76.9-32.1L2337.1,346c-31.6,6.3-58.8,24.6-76.8,49.9      c-0.6-0.6-1.2-1.2-1.8-1.8c-17.6-16.8-42.3-24-66.2-19.3l-145.2,28.9l11.6,41.5l142-28.3c21.6-4.3,40.9,14.2,37.6,36L2211.2,629      l-48,9.6l23.7-154.1c1.2-7.5-5.5-13.8-12.9-12.4l-108.5,21.6l-26.1,169.5l-48,9.6l30.3-197.2l-53.3-48.5l-143,64.6l14.4-2.9      l48-9.6l0,0l-40,259.7c-11.7,76.4-70,137.2-145.8,152.3l-53.4,10.6l7.9-51.5l37.4-7.4c56.5-11.3,100-56.7,108.8-113.6l3-19.5      L1678.5,735c-21.6,4.3-40.9-14.2-37.6-36l18.5-120.2c3.3-21.4,14.9-40,31.5-52.4l0.1-0.1l85-68.7l-60.8,12.1      c-31.6,6.3-58.8,24.6-76.8,49.9c-0.6-0.6-1.2-1.2-1.8-1.8c-17.6-16.8-42.3-24-66.2-19.3l-128.7,25.6l3.6-23.3l14.9-96.6      l90.8-18.1c66.3-13.2,117.2-66.4,127.5-133.2l13.4-87.2c7.8-50.9-37.3-94.1-87.8-84.1l-213,42.4l-39.7,258l-216,43      c-5.6,1.1-9.9,5.6-10.8,11.3L1055.5,884c-1.4,9.4,6.9,17.3,16.1,15.5l290-57.7l0,0l93.7-18.6l26.1-169.5l34.2-6.8l-26.1,169.5      l137.6-27.4l3.6-23.2c16.4,11,36.6,15.2,56.2,11.3l54.6-10.9c-13.6,17.5-33.3,30-55.9,34.5l-57.5,11.4      c-5.6,1.1-9.9,5.6-10.8,11.3l-17.4,113.1c-1.4,9.4,6.9,17.3,16.1,15.5l94.4-18.8c93.5-18.6,165.3-93.7,179.8-187.8l1.4-9.1      l92.8-18.5l0,0l92.8-18.5l26.1-169.5l34.2-6.8l-26.1,169.5l137.6-27.4l3.6-23.2c16.4,11,36.6,15.2,56.2,11.3l195.4-38.9      c5.6-1.1,9.9-5.6,10.8-11.3l20.4-132.3l-5.4,1.1c5.1-10.7,8.7-22.1,10.5-34.2l4.6-29.6C2547.9,389.4,2544.2,370.1,2533.8,354.3z       M1490.8,204.5l72.8-14.5c6.1-1.2,11.5,4,10.5,10.1l-11.1,72.4c-1.1,6.9-6.3,12.3-13.1,13.7l-73.9,14.7L1490.8,204.5z       M1323.9,805.5l-20.8,4.1l-24.5,4.9l-136.6,27.2l-37.7,7.5l59.4-386.1l15.9-3.2l117.4-23.4l53.2-10.6l-7.9,51.5l-15.3,3      l-123.1,24.5l-17.5,113.6l57.6-11.5l10.3-2.1l37.7-7.5l-7.9,51.5l-20.2,4l-27.8,5.5l-57.6,11.5l-18.2,118l126.3-25.1l7-1.4      l38.5-7.7L1323.9,805.5z M1211.9,734.1l4.3-27.7l105.6-21l21.8-141.8l-105.6,21l3.6-23.3l87.8-17.5l39.8-7.9l-5.7,37l-24,155.8      L1211.9,734.1z M1589.2,752.7l-48,9.6l23.7-154.1c1.2-7.5-5.5-13.8-12.9-12.4l-108.5,21.6l-26.1,169.5l-48,9.6l34-220.9      l175.3-34.9c21.6-4.3,40.9,14.2,37.6,36L1589.2,752.7z M1946.6,681.6l-48,9.6l34-220.9l48-9.6L1946.6,681.6z M2502.8,400.2      l-4.8,31c-5.2,33.6-30.8,60.3-64.1,67l-116.3,23.1l-3.4,22.3c-1.2,7.5,5.5,13.8,12.9,12.4l108.5-21.6l21.5-4.3l26.5-5.3      l-7.9,51.5l-9.1,1.8l-166.2,33.1c-21.6,4.3-40.9-14.2-37.6-36l18.5-120.2c5.2-33.6,30.8-60.3,64.1-67l119.8-23.8      C2486.8,359.9,2506.2,378.4,2502.8,400.2z"
   id="path28" />
			</g>
		</g>
	</g>
	<g
   id="g78">
		<g
   id="g40">
			<path
   class="st2"
   d="M215.1,1526.5C72.6,1526.5,7.7,1418.9,7.7,1319c0-54.2,18.4-104.8,51.9-142.4c37.8-42.5,91.6-65,155.6-65     h390.5v108.8H215.1c-67.7,0-98.6,51.1-98.6,98.6c0,47.5,30.8,98.6,98.6,98.6h390.5v108.8H215.1z"
   id="path36" />
			<path
   d="M597.9,1119.3v93.5H215.1c-141.7,0-141.7,212.5,0,212.5h382.8v93.5H215.1c-266.4,0-266.4-399.5,0-399.5H597.9      M613.2,1103.9h-15.3H215.1C73.9,1103.9,0,1212.2,0,1319c0,56.1,19.1,108.5,53.8,147.5c39.3,44.2,95.1,67.6,161.3,67.6h382.8     h15.3v-15.3v-93.5V1410h-15.3H215.1c-34.8,0-62.6-14.9-78.2-41.9c-16.9-29.3-16.9-68.7,0-98c15.6-27,43.4-41.9,78.2-41.9h382.8     h15.3v-15.3v-93.5V1103.9L613.2,1103.9z"
   id="path38" />
		</g>
		<g
   id="g46">
			<path
   class="st2"
   d="M663.9,1526.5v-414.9h390.5c142.5,0,207.4,107.5,207.4,207.4c0,99.9-64.9,207.4-207.4,207.4v0H663.9z      M1054.4,1417.6c67.7,0,98.6-51.1,98.6-98.6c0-47.5-30.8-98.6-98.6-98.6H772.8v197.2H1054.4z"
   id="path42" />
			<path
   d="M1054.4,1119.3L1054.4,1119.3c266.3,0,266.3,399.5,0,399.5H671.6v-2.1v-397.4H1054.4 M765.1,1425.3h289.3     c141.7,0,141.7-212.5,0-212.5H765.1V1425.3 M1054.4,1103.9H671.6h-15.3v15.3v397.4v2.1v15.3h15.3h382.8     c66.2,0,122-23.4,161.3-67.6c34.7-39,53.8-91.4,53.8-147.5c0-56.1-19.1-108.5-53.8-147.5     C1176.4,1127.3,1120.6,1103.9,1054.4,1103.9L1054.4,1103.9L1054.4,1103.9z M780.4,1228.1h273.9c28.3,0,51.9,9.7,68.2,28.1     c14.6,16.5,22.7,38.8,22.7,62.9c0,43.8-28.4,90.9-90.9,90.9H780.4V1228.1L780.4,1228.1z"
   id="path44" />
		</g>
		<g
   id="g52">
			<path
   class="st2"
   d="M2358.3,1526.5c-142.5,0-207.4-107.5-207.4-207.4c0-54.2,18.4-104.8,51.9-142.4c37.8-42.5,91.6-65,155.6-65     l247.4,0c142.5,0,207.4,107.5,207.4,207.4c0,99.9-64.9,207.4-207.4,207.4H2358.3z M2358.3,1220.5c-67.7,0-98.6,51.1-98.6,98.6     c0,47.5,30.8,98.6,98.6,98.6l247.4,0c37.7,0,67.8-16.2,84.8-45.8c18.2-31.6,18.2-74.1,0-105.7c-17-29.5-47.2-45.8-84.8-45.8     H2358.3z"
   id="path48" />
			<path
   d="M2605.7,1119.3L2605.7,1119.3c266.3,0,266.3,399.5,0,399.5h-247.4c-266.3,0-266.3-399.5,0-399.5L2605.7,1119.3      M2358.3,1425.3l247.4,0v0c141.7,0,141.7-212.5,0-212.5c0,0,0,0,0,0h-247.4c0,0,0-5,0-5c0,0,0,1.3,0,5     C2216.7,1212.8,2216.7,1425.3,2358.3,1425.3 M2605.7,1103.9l-247.4,0c-141.2,0-215.1,108.2-215.1,215.1     c0,56.1,19.1,108.5,53.8,147.5c39.3,44.2,95.1,67.6,161.3,67.6h247.4c141.2,0,215.1-108.2,215.1-215.1     c0-56.1-19.1-108.5-53.8-147.5C2727.7,1127.3,2671.9,1103.9,2605.7,1103.9L2605.7,1103.9L2605.7,1103.9z M2373.7,1228.1h232     c62.5,0,90.9,47.1,90.9,90.9c0,43.8-28.5,90.9-90.9,90.9h-247.4c-62.5,0-90.9-47.1-90.9-90.9c0-43.8,28.4-90.9,90.9-90.9     L2373.7,1228.1L2373.7,1228.1L2373.7,1228.1z"
   id="path50" />
		</g>
		<g
   id="g58">
			<path
   class="st2"
   d="M1367.3,1370c-30,0-54.4-24.4-54.4-54.4s24.4-54.4,54.4-54.4h20.4c30,0,54.4,24.4,54.4,54.4     s-24.4,54.4-54.4,54.4H1367.3z"
   id="path54" />
			<path
   d="M1387.7,1268.8c25.8,0,46.8,20.9,46.8,46.8s-20.9,46.8-46.8,46.8h-20.4c-25.8,0-46.8-20.9-46.8-46.8s20.9-46.8,46.8-46.8     H1387.7 M1387.7,1253.5h-20.4c-34.2,0-62.1,27.9-62.1,62.1s27.9,62.1,62.1,62.1h20.4c34.2,0,62.1-27.9,62.1-62.1     S1421.9,1253.5,1387.7,1253.5L1387.7,1253.5z"
   id="path56" />
		</g>
		<g
   id="g64">
			<path
   class="st2"
   d="M1976.1,1526.5v-96.8c0-10.5-3.6-19.1-10.3-25.1c-6.1-5.4-14.3-8.3-23.2-8.3l-335.6,0v130.3h-108.8v-414.9     h444.5c43.8,0,80.7,15.4,106.7,44.6c23,25.8,35.6,60.5,35.6,97.7c0,32.2-9.8,63-27.7,87.6c18.1,24,27.7,54.3,27.7,88.1l0,96.8     H1976.1z M1942.6,1287.4c23.1,0,33.5-16.8,33.5-33.5c0-16.7-10.3-33.5-33.5-33.5l-335.6,0v66.9H1942.6z"
   id="path60" />
			<path
   d="M1942.6,1119.3c89.8,0,134.6,67.3,134.6,134.6c0,31.6-10,63.1-29.8,87.7c18.2,21.8,29.8,51,29.8,88.1h0v89.1h-93.5v-89.1     c0-27.4-20.6-41.1-41.1-41.1v0h-343.3v130.3h-93.5v-399.5h93.5L1942.6,1119.3L1942.6,1119.3 M1599.4,1295h343.3v0     c27.4,0,41.1-20.6,41.1-41.1c0-20.6-13.7-41.1-41.1-41.1v0h-343.3V1295 M1942.6,1103.9L1942.6,1103.9l-343.3,0h-93.5h-15.3v15.3     v399.5v15.3h15.3h93.5h15.3v-15.3v-114.9h327.9c0,0,0,0,0,0c6.9,0,13.5,2.3,18.1,6.4c5.1,4.5,7.7,11.1,7.7,19.4v89.1v15.3h15.3     h93.5h15.3v-15.3v-89.1c0-33.4-8.9-63.7-26-88.2c16.8-25.1,26-55.7,26-87.5c0-39-13.3-75.5-37.5-102.7     C2027.6,1120.3,1988.7,1103.9,1942.6,1103.9L1942.6,1103.9z M1614.7,1228.1h327.9c0,0,0,0,0,0c8.3,0,14.8,2.6,19.4,7.7     c4.1,4.6,6.4,11.2,6.4,18.1c0,11.9-6.8,25.8-25.8,25.8l-327.9,0V1228.1L1614.7,1228.1z"
   id="path62" />
		</g>
		<g
   id="g70">
			<path
   class="st2"
   d="M3394.1,1526.5v-272.6c0-8.9-3-17.1-8.3-23.2c-6-6.7-14.7-10.3-25.1-10.3l-113.6,0v306h-108.8v-306H3017     c-23.1,0-33.5,16.8-33.5,33.5v272.6h-108.8v-272.6c0-37.1,12.6-71.8,35.6-97.7c26-29.2,62.9-44.6,106.7-44.6c0,0,343.6,0,343.6,0     c43.8,0,80.7,15.4,106.7,44.6c23,25.8,35.6,60.5,35.6,97.7v272.6H3394.1z"
   id="path66" />
			<path
   d="M3360.7,1119.3c89.8,0,134.6,67.3,134.6,134.6v264.9h-93.5v-264.9c0-20.6-13.7-41.1-41.1-41.1h-121.2v306h-93.5v-306     H3017c-27.4,0-41.1,20.6-41.1,41.1v264.9h-93.5v-264.9c0-67.3,44.9-134.6,134.6-134.6H3360.7 M3360.7,1103.9H3017     c-98.5,0-150,75.4-150,150v264.9v15.3h15.3h93.5h15.3v-15.3v-264.9c0-11.9,6.8-25.8,25.8-25.8h113.6v290.7v15.3h15.3h93.5h15.3     v-15.3v-290.7h105.9c8.3,0,14.8,2.6,19.4,7.7c4.1,4.6,6.4,11.2,6.4,18.1v264.9v15.3h15.3h93.5h15.3v-15.3v-264.9     C3510.6,1179.4,3459.1,1103.9,3360.7,1103.9L3360.7,1103.9z"
   id="path68" />
		</g>
		
	</g>
</g>
</svg>
