<?xml version="1.0" encoding="utf-8"?>
<!-- Generator: Adobe Illustrator 26.3.1, SVG Export Plug-In . SVG Version: 6.00 Build 0)  -->
<svg version="1.1" id="Layer_1" xmlns="http://www.w3.org/2000/svg" xmlns:xlink="http://www.w3.org/1999/xlink" x="0px" y="0px"
	 viewBox="0 0 3839 987.2" style="enable-background:new 0 0 3839 987.2;" xml:space="preserve">
<style type="text/css">
	.st0{display:none;}
	.st1{display:inline;opacity:0.5;}
	.st2{fill:#FFFFFF;stroke:#231F20;stroke-miterlimit:10;}
	.st3{fill:#FFF1E8;}
	.st4{display:inline;}
	.st5{fill:#1D2B53;}
	.st6{fill:#00E437;}
	.st7{fill:#83769C;}
	.st8{fill:#28ADFF;}
	.st9{fill:#FF004D;}
	.st10{fill:#FFA301;}
	.st11{fill:#FFCCAA;}
	.st12{fill:#FFEC25;}
	.st13{fill:#FF77A8;}
	.st14{display:inline;fill:#1D2B53;}
	.st15{fill:#FFFFFF;}
</style>
<g>
	<rect x="109.7" y="438.7" class="st5" width="109.7" height="109.7"/>
	<rect x="219.4" y="438.7" class="st5" width="109.7" height="109.7"/>
	<rect x="329.1" y="438.7" class="st5" width="109.7" height="109.7"/>
	<rect x="438.7" y="438.7" class="st5" width="109.7" height="109.7"/>
	<rect x="658.1" y="438.7" class="st5" width="109.7" height="109.7"/>
	<rect x="767.8" y="438.7" class="st5" width="109.7" height="109.7"/>
	<rect x="877.5" y="438.7" class="st5" width="109.7" height="109.7"/>
	<rect x="987.2" y="438.7" class="st5" width="109.7" height="109.7"/>
	<rect x="1316.2" y="438.7" class="st5" width="109.7" height="109.7"/>
	<rect x="1425.9" y="438.7" class="st5" width="109.7" height="109.7"/>
	<rect x="1535.6" y="438.7" class="st5" width="109.7" height="109.7"/>
	<rect x="1864.7" y="438.7" class="st5" width="109.7" height="109.7"/>
	<rect x="1974.3" y="438.7" class="st5" width="109.7" height="109.7"/>
	<rect x="2084" y="438.7" class="st5" width="109.7" height="109.7"/>
	<rect x="2193.7" y="438.7" class="st5" width="109.7" height="109.7"/>
	<rect x="2851.8" y="438.7" class="st5" width="109.7" height="109.7"/>
	<rect x="2961.5" y="438.7" class="st5" width="109.7" height="109.7"/>
	<rect y="548.4" class="st5" width="109.7" height="109.7"/>
	<rect x="109.7" y="548.4" class="st5" width="109.7" height="109.7"/>
	<rect x="329.1" y="548.4" class="st5" width="109.7" height="109.7"/>
	<rect x="438.7" y="548.4" class="st5" width="109.7" height="109.7"/>
	<rect x="767.8" y="548.4" class="st5" width="109.7" height="109.7"/>
	<rect x="877.5" y="548.4" class="st5" width="109.7" height="109.7"/>
	<rect x="1206.5" y="548.4" class="st5" width="109.7" height="109.7"/>
	<rect x="1316.2" y="548.4" class="st5" width="109.7" height="109.7"/>
	<rect x="1755" y="548.4" class="st5" width="109.7" height="109.7"/>
	<rect x="1864.7" y="548.4" class="st5" width="109.7" height="109.7"/>
	<rect x="2084" y="548.4" class="st5" width="109.7" height="109.7"/>
	<rect x="2193.7" y="548.4" class="st5" width="109.7" height="109.7"/>
	<rect x="2742.1" y="548.4" class="st5" width="109.7" height="109.7"/>
	<rect x="2851.8" y="548.4" class="st5" width="109.7" height="109.7"/>
	<rect y="658.1" class="st5" width="109.7" height="109.7"/>
	<rect x="109.7" y="658.1" class="st5" width="109.7" height="109.7"/>
	<rect x="219.4" y="658.1" class="st5" width="109.7" height="109.7"/>
	<rect x="329.1" y="658.1" class="st5" width="109.7" height="109.7"/>
	<rect x="438.7" y="658.1" class="st5" width="109.7" height="109.7"/>
	<rect x="767.8" y="658.1" class="st5" width="109.7" height="109.7"/>
	<rect x="877.5" y="658.1" class="st5" width="109.7" height="109.7"/>
	<rect x="1206.5" y="658.1" class="st5" width="109.7" height="109.7"/>
	<rect x="1316.2" y="658.1" class="st5" width="109.7" height="109.7"/>
	<rect x="1755" y="658.1" class="st5" width="109.7" height="109.7"/>
	<rect x="1864.7" y="658.1" class="st5" width="109.7" height="109.7"/>
	<rect x="2084" y="658.1" class="st5" width="109.7" height="109.7"/>
	<rect x="2193.7" y="658.1" class="st5" width="109.7" height="109.7"/>
	<rect x="2413.1" y="658.1" class="st5" width="109.7" height="109.7"/>
	<rect x="2522.8" y="658.1" class="st5" width="109.7" height="109.7"/>
	<rect x="2742.1" y="658.1" class="st5" width="109.7" height="109.7"/>
	<rect x="2851.8" y="658.1" class="st5" width="109.7" height="109.7"/>
	<rect x="2961.5" y="658.1" class="st5" width="109.7" height="109.7"/>
	<rect y="767.8" class="st5" width="109.7" height="109.7"/>
	<rect x="109.7" y="767.8" class="st5" width="109.7" height="109.7"/>
	<rect x="767.8" y="767.8" class="st5" width="109.7" height="109.7"/>
	<rect x="877.5" y="767.8" class="st5" width="109.7" height="109.7"/>
	<rect x="1206.5" y="767.8" class="st5" width="109.7" height="109.7"/>
	<rect x="1316.2" y="767.8" class="st5" width="109.7" height="109.7"/>
	<rect x="1755" y="767.8" class="st5" width="109.7" height="109.7"/>
	<rect x="1864.7" y="767.8" class="st5" width="109.7" height="109.7"/>
	<rect x="2084" y="767.8" class="st5" width="109.7" height="109.7"/>
	<rect x="2193.7" y="767.8" class="st5" width="109.7" height="109.7"/>
	<rect x="2742.1" y="767.8" class="st5" width="109.7" height="109.7"/>
	<rect x="2851.8" y="767.8" class="st5" width="109.7" height="109.7"/>
	<rect y="877.5" class="st5" width="109.7" height="109.7"/>
	<rect x="109.7" y="877.5" class="st5" width="109.7" height="109.7"/>
	<rect x="658.1" y="877.5" class="st5" width="109.7" height="109.7"/>
	<rect x="767.8" y="877.5" class="st5" width="109.7" height="109.7"/>
	<rect x="877.5" y="877.5" class="st5" width="109.7" height="109.7"/>
	<rect x="987.2" y="877.5" class="st5" width="109.7" height="109.7"/>
	<rect x="1206.5" y="877.5" class="st5" width="109.7" height="109.7"/>
	<rect x="1316.2" y="877.5" class="st5" width="109.7" height="109.7"/>
	<rect x="1425.9" y="877.5" class="st5" width="109.7" height="109.7"/>
	<rect x="1535.6" y="877.5" class="st5" width="109.7" height="109.7"/>
	<rect x="1755" y="877.5" class="st5" width="109.7" height="109.7"/>
	<rect x="1864.7" y="877.5" class="st5" width="109.7" height="109.7"/>
	<rect x="1974.3" y="877.5" class="st5" width="109.7" height="109.7"/>
	<rect x="2084" y="877.5" class="st5" width="109.7" height="109.7"/>
	<rect x="2742.1" y="877.5" class="st5" width="109.7" height="109.7"/>
	<rect x="2851.8" y="877.5" class="st5" width="109.7" height="109.7"/>
	<rect x="2961.5" y="877.5" class="st5" width="109.7" height="109.7"/>
	<rect x="3400.3" y="329.1" class="st6" width="109.7" height="109.7"/>
	<rect x="3509.9" y="329.1" class="st3" width="109.7" height="109.7"/>
	<rect x="3619.6" y="329.1" class="st7" width="109.7" height="109.7"/>
	<rect x="3071.2" y="438.7" class="st5" width="109.7" height="109.7"/>
	<rect x="3180.9" y="438.7" class="st5" width="109.7" height="109.7"/>
	<rect x="3509.9" y="438.7" class="st8" width="109.7" height="109.7"/>
	<rect x="3180.9" y="548.4" class="st5" width="109.7" height="109.7"/>
	<rect x="3071.2" y="658.1" class="st5" width="109.7" height="109.7"/>
	<rect x="3180.9" y="658.1" class="st5" width="109.7" height="109.7"/>
	<rect x="3180.9" y="767.8" class="st5" width="109.7" height="109.7"/>
	<rect x="3071.2" y="877.5" class="st5" width="109.7" height="109.7"/>
	<rect x="3180.9" y="877.5" class="st5" width="109.7" height="109.7"/>
	<rect x="3509.9" class="st9" width="109.7" height="109.7"/>
	<rect x="3400.3" y="109.7" class="st10" width="109.7" height="109.7"/>
	<rect x="3509.9" y="109.7" class="st3" width="109.7" height="109.7"/>
	<rect x="3619.6" y="109.7" class="st11" width="109.7" height="109.7"/>
	<rect x="3290.6" y="219.4" class="st12" width="109.7" height="109.7"/>
	<rect x="3400.3" y="219.4" class="st3" width="109.7" height="109.7"/>
	<rect x="3509.9" y="219.4" class="st3" width="109.7" height="109.7"/>
	<rect x="3619.6" y="219.4" class="st3" width="109.7" height="109.7"/>
	<rect x="3729.3" y="219.4" class="st13" width="109.7" height="109.7"/>
</g>
</svg>
