<?xml version="1.0" encoding="utf-8"?>
<!-- Generator: Adobe Illustrator 25.4.1, SVG Export Plug-In . SVG Version: 6.00 Build 0)  -->
<svg version="1.1" id="Layer_1" xmlns="http://www.w3.org/2000/svg" xmlns:xlink="http://www.w3.org/1999/xlink" x="0px" y="0px"
	 viewBox="0 0 3839 1056.7" style="enable-background:new 0 0 3839 1056.7;" xml:space="preserve">
<style type="text/css">
	.st0{fill-rule:evenodd;clip-rule:evenodd;fill:#14A3FD;}
	.st1{fill-rule:evenodd;clip-rule:evenodd;fill:#21ADCA;}
	.st2{fill-rule:evenodd;clip-rule:evenodd;fill:#2EB897;}
	.st3{fill-rule:evenodd;clip-rule:evenodd;fill:#3BC264;}
	.st4{fill-rule:evenodd;clip-rule:evenodd;fill:#48CC31;}
	.st5{fill-rule:evenodd;clip-rule:evenodd;fill:#6AD434;}
	.st6{fill-rule:evenodd;clip-rule:evenodd;fill:#8BDC37;}
	.st7{fill-rule:evenodd;clip-rule:evenodd;fill:#AEE53A;}
	.st8{fill-rule:evenodd;clip-rule:evenodd;fill:#D0ED3D;}
	.st9{fill-rule:evenodd;clip-rule:evenodd;fill:#F2F540;}
	.st10{fill-rule:evenodd;clip-rule:evenodd;fill:#F5D630;}
	.st11{fill-rule:evenodd;clip-rule:evenodd;fill:#F8B621;}
	.st12{fill-rule:evenodd;clip-rule:evenodd;fill:#FA9711;}
	.st13{fill-rule:evenodd;clip-rule:evenodd;fill:#FD7801;}
	.st14{fill-rule:evenodd;clip-rule:evenodd;fill:#F9500E;}
	.st15{fill-rule:evenodd;clip-rule:evenodd;fill:#F6281C;}
	.st16{fill-rule:evenodd;clip-rule:evenodd;fill:#F20029;}
	.st17{fill:#002684;}
	.st18{fill:#F20029;}
	.st19{fill-rule:evenodd;clip-rule:evenodd;fill:#002684;}
	.st20{fill-rule:evenodd;clip-rule:evenodd;fill:#12506F;}
	.st21{fill-rule:evenodd;clip-rule:evenodd;fill:#24795B;}
	.st22{fill-rule:evenodd;clip-rule:evenodd;fill:#36A346;}
	.st23{fill:#FFFFFF;}
	.st24{fill-rule:evenodd;clip-rule:evenodd;fill:#3E3632;}
	.st25{fill:#282422;}
	.st26{fill:url(#SVGID_1_);}
	.st27{fill:url(#SVGID_00000151529609731164892720000014023394329558692536_);}
	.st28{fill:url(#SVGID_00000147931808338305316200000008151310868900668596_);}
	.st29{fill:url(#SVGID_00000078727216918654563890000012134251519606366645_);}
	.st30{fill:url(#SVGID_00000020370745812782191250000014868515886703785108_);}
	.st31{fill:url(#SVGID_00000005232590596123167680000001670880307386184877_);}
	.st32{fill:url(#SVGID_00000178192135680645730910000008521966721006859411_);}
	.st33{fill:url(#SVGID_00000167393446657462517380000014455985530164215447_);}
	.st34{fill:url(#SVGID_00000101084646875133305890000017785837636025211293_);}
	.st35{fill:url(#SVGID_00000123414678185322913250000003648016752775935131_);}
	.st36{fill:url(#SVGID_00000050635902838029324810000016576874392597467040_);}
	.st37{fill:url(#SVGID_00000096025259208660315200000001182247101663508889_);}
	.st38{fill:url(#SVGID_00000129184072884069641460000013428006802030075041_);}
	.st39{fill:url(#SVGID_00000054261762878587734540000011112627444457839254_);}
	.st40{fill:url(#SVGID_00000019654969539410911200000003256333973611767978_);}
	.st41{fill:url(#SVGID_00000065778475785520447280000008463699719822860195_);}
	.st42{fill:url(#SVGID_00000149362083060639456580000002702432929147628470_);}
	.st43{fill:url(#SVGID_00000081638357707037978890000016182078169314233732_);}
	.st44{fill-rule:evenodd;clip-rule:evenodd;fill:#FFFFFF;}
	.st45{fill:url(#SVGID_00000008145421422700031030000005212146697265753737_);}
	.st46{fill:url(#SVGID_00000137093025146749828100000017691593156916486065_);}
	.st47{fill:url(#SVGID_00000114773209280231291050000013264373280261574303_);}
	.st48{fill:url(#SVGID_00000174566612496576803520000001216894044827322299_);}
	.st49{fill:url(#SVGID_00000141428944161801107090000000083048465668973471_);}
	.st50{fill:url(#SVGID_00000056417224370480610300000010664009074028478908_);}
	.st51{fill:url(#SVGID_00000125580126895110134980000000928096386630707643_);}
	.st52{fill:url(#SVGID_00000037689695482216845720000018157223603913308833_);}
	.st53{fill:url(#SVGID_00000037665110595334128420000015593163450233835164_);}
	.st54{fill:url(#SVGID_00000094594330129409755970000008489216185273191048_);}
	.st55{fill:url(#SVGID_00000005976404263412576160000010908530545676796602_);}
	.st56{fill:url(#SVGID_00000056418705799166815240000001060528739435207811_);}
	.st57{fill:url(#SVGID_00000155835328624846039660000008097297887440064393_);}
	.st58{fill:url(#SVGID_00000135676645607343716590000005746888532405864369_);}
	.st59{fill:url(#SVGID_00000142865717777344692080000010163232521176851078_);}
	.st60{fill:url(#SVGID_00000029045570317285558340000014045270282934872250_);}
	.st61{fill:url(#SVGID_00000089552167227631739650000008934367406223412639_);}
	.st62{fill:url(#SVGID_00000108278852255211343250000014150353662266325662_);}
</style>
<g>
	<g>
		<g>
			<g>
				<g>
					<g>
						<g>
							<polygon class="st19" points="52.4,658.5 52.4,658.5 52.4,1056.7 0,1056.7 0,658.5 							"/>
							<polygon class="st20" points="168.4,658.5 168.4,658.5 168.4,1056.7 116,1056.7 116,658.5 							"/>
							<polygon class="st21" points="284.4,658.5 284.4,658.5 284.4,1056.7 232.1,1056.7 232.1,658.5 							"/>
							<polygon class="st22" points="400.4,658.5 400.4,658.5 400.4,1056.7 348.1,1056.7 348.1,658.5 							"/>
							<polygon class="st4" points="516.5,658.5 516.5,658.5 516.5,1056.7 464.2,1056.7 464.2,658.5 							"/>
						</g>
					</g>
				</g>
				<g>
					<polygon class="st5" points="632.5,658.5 632.5,658.5 632.5,1056.7 580.1,1056.7 580.1,658.5 					"/>
				</g>
				<g>
					<polygon class="st6" points="748.5,658.5 748.5,658.5 748.5,1056.7 696.2,1056.7 696.2,658.5 					"/>
				</g>
				<g>
					<polygon class="st7" points="864.6,658.5 864.6,658.5 864.6,1056.7 812.3,1056.7 812.3,658.5 					"/>
				</g>
				<g>
					<polygon class="st8" points="980.6,658.5 980.6,658.5 980.6,1056.7 928.3,1056.7 928.3,658.5 					"/>
				</g>
			</g>
			<g>
				<g>
					<polygon class="st9" points="1096.6,658.5 1096.6,658.5 1096.6,1056.7 1044.3,1056.7 1044.3,658.5 					"/>
				</g>
				<g>
					<polygon class="st10" points="1212.7,658.5 1212.7,658.5 1212.7,1056.7 1160.3,1056.7 1160.3,658.5 					"/>
				</g>
				<g>
					<polygon class="st11" points="1328.8,658.5 1328.8,658.5 1328.8,1056.7 1276.4,1056.7 1276.4,658.5 					"/>
				</g>
				<g>
					<polygon class="st12" points="1444.7,658.5 1444.7,658.5 1444.7,1056.7 1392.4,1056.7 1392.4,658.5 					"/>
				</g>
			</g>
			<g>
				<g>
					<polygon class="st13" points="1560.8,658.5 1560.8,658.5 1560.8,1056.7 1508.4,1056.7 1508.4,658.5 					"/>
					<polygon class="st14" points="1676.8,658.5 1676.8,658.5 1676.8,1056.7 1624.4,1056.7 1624.4,658.5 					"/>
					<polygon class="st15" points="1792.9,658.5 1792.9,658.5 1792.9,1056.7 1740.5,1056.7 1740.5,658.5 					"/>
					<polygon class="st16" points="1908.9,658.5 1908.9,658.5 1908.9,1056.7 1856.5,1056.7 1856.5,658.5 					"/>
				</g>
			</g>
		</g>
		<g>
			<g>
				<path class="st17" d="M881.5,265.1c-3.6-33.6-39.8-32.7-65.3-32.7c-13.9,0-42.9,0.5-54.1,10.1c-10.7,9.2-10.7,33.2-10.7,46.1
					c0,12.4,0.4,29,9.8,38.3c11.2,11.1,42,12,56.3,12c9.8,0,19.2,0,29.1-1.4c19.7-2.8,31.3-8.8,34.4-30.4h80.5
					c-0.9,24.4-2.2,47.9-19.7,66.4c-18.3,19.8-46.5,24-72,25.4c-19.2,0.9-38,1.4-57.2,1.4c-34.4,0-83.6,0.9-113.1-20.3
					c-28.6-20.7-27.3-64.1-27.3-95.9c0-31.3-0.4-68.7,25-90.8c27.7-24,85.4-22.1,119.4-22.1s93-1.4,121.2,22.1
					c7.6,6.5,12.5,12.9,16.5,22.6c6.7,16.1,7.2,31.8,7.6,49.3L881.5,265.1L881.5,265.1z"/>
				<path class="st17" d="M1284.6,324.1c-1.8,21.2-7.2,40.1-23.2,54.4c-27.3,24.4-91.6,21.7-125.2,21.7c-34.9,0-96.6,3.2-125.2-21.7
					c-8-6.9-13-14.3-17-24c-8.9-22.6-7.6-51.2-7.6-75.1c0-12,0-24.4,1.3-36.4c1.8-20.7,9.4-39.2,25.9-52.1
					c26.8-21.2,90.8-19.8,122.5-19.8c32.2,0,95.2-1.4,122.5,19.8c7.6,6,12.5,12,17,20.7c11.6,21.2,10.3,48.4,10.3,71.9
					C1285.9,296.9,1285.5,310.7,1284.6,324.1z M1197,244.3c-11.6-11.5-45.6-12-60.4-12c-14.3,0-29.1,0.5-42.9,3.2
					c-27.7,5.5-28.2,27.7-28.2,52.5c0,12-0.4,28.1,8,37.3c12.1,13.4,46.9,13.4,63,13.4c15.2,0,31.3,0,46-4.1
					c24.6-6.9,24.1-30,24.1-52.5C1206.8,269.7,1206.4,253.6,1197,244.3z"/>
				<path class="st17" d="M1699.8,394.6V292.7c0-47-4.9-60.4-53.6-60.4c-54.5,0-58.6,22.1-58.6,72.4v89.9h-79.1V292.7v-15.2
					c0-39.6-16.5-45.2-52.3-45.2c-56.3,0-59.9,20.7-59.9,72.4v89.9h-79.1V176.7h74.7v32.7h3.6c14.8-33.6,54.1-38.3,85.8-38.3
					c40.2,0,75.6,6.9,96.1,45.6c16.1-40.6,53.6-45.6,91.6-45.6c30.8,0,65.3,3.7,87.6,28.1c7.6,8.3,13.4,17.1,16.5,28.1
					c6.3,21.2,5.8,43.8,5.8,65.5v101.9L1699.8,394.6L1699.8,394.6z"/>
				<path class="st17" d="M2195.3,394.6V292.7c0-47-4.9-60.4-53.6-60.4c-54.5,0-58.6,22.1-58.6,72.4v89.9h-79.1V292.7v-15.2
					c0-39.6-16.5-45.2-52.3-45.2c-56.3,0-59.9,20.7-59.9,72.4v89.9h-79.1V176.7h74.7v32.7h3.6c14.8-33.6,54.1-38.3,85.8-38.3
					c40.2,0,75.6,6.9,96.1,45.6c16.1-40.6,53.6-45.6,91.6-45.6c30.8,0,65.3,3.7,87.6,28.1c7.6,8.3,13.4,17.1,16.5,28.1
					c6.3,21.2,5.8,43.8,5.8,65.5v101.9L2195.3,394.6L2195.3,394.6z"/>
				<path class="st17" d="M2602,324.1c-1.8,21.2-7.2,40.1-23.2,54.4c-27.3,24.4-91.6,21.7-125.2,21.7c-34.9,0-96.6,3.2-125.2-21.7
					c-8-6.9-13-14.3-17-24c-8.9-22.6-7.6-51.2-7.6-75.1c0-12,0-24.4,1.3-36.4c1.8-20.7,9.4-39.2,25.9-52.1
					c26.8-21.2,90.8-19.8,122.5-19.8c32.2,0,95.2-1.4,122.5,19.8c7.6,6,12.5,12,17,20.7c11.6,21.2,10.3,48.4,10.3,71.9
					C2603.3,296.9,2602.9,310.7,2602,324.1z M2514.4,244.3c-11.6-11.5-45.6-12-60.4-12c-14.3,0-29.1,0.5-42.9,3.2
					c-27.7,5.5-28.2,27.7-28.2,52.5c0,12-0.4,28.1,8,37.3c12.1,13.4,46.9,13.4,63,13.4c15.2,0,31.3,0,46-4.1
					c24.6-6.9,24.1-30,24.1-52.5C2524.2,269.7,2523.7,253.6,2514.4,244.3z"/>
				<path class="st17" d="M2853.2,394.6V366h-4c-5.4,9.2-9.4,15.2-18.3,20.7c-19.7,12.4-52.8,13.4-75.1,13.4
					c-32.6,0-76.9,0.5-102.8-23c-23.2-21.2-22.8-63.1-22.8-92.6c0-34.1,0.9-75.6,31.3-96.8c26.8-18.4,64.4-16.6,95.2-16.6
					c23.2,0,48.7-0.5,69.3,12c10.3,6,13.9,12,19.7,22.6h3.1V87.3h79.1v307.3H2853.2z M2845.1,252.6c-9.4-22.1-43.4-20.3-62.6-20.3
					c-19.7,0-59.5-2.3-69.3,20.7c-3.6,9.2-4,21.2-4,30.9c0,12.9-0.4,32.7,8.9,42.9c10.7,12,45.2,12,59.5,12c16.1,0,35.8-0.9,51-6
					c21.5-6.9,21-28.1,21-47.9C2849.6,274.8,2849.2,262.3,2845.1,252.6z"/>
				<path class="st17" d="M3257.2,324.1c-1.8,21.2-7.2,40.1-23.2,54.4c-27.3,24.4-91.6,21.7-125.2,21.7c-34.9,0-96.6,3.2-125.2-21.7
					c-8-6.9-13-14.3-17-24c-8.9-22.6-7.6-51.2-7.6-75.1c0-12,0-24.4,1.3-36.4c1.8-20.7,9.4-39.2,25.9-52.1
					c26.8-21.2,90.8-19.8,122.5-19.8c32.2,0,95.2-1.4,122.5,19.8c7.6,6,12.5,12,17,20.7c11.6,21.2,10.3,48.4,10.3,71.9
					C3258.5,296.9,3258.1,310.7,3257.2,324.1z M3169.6,244.3c-11.6-11.5-45.6-12-60.4-12c-14.3,0-29.1,0.5-42.9,3.2
					c-27.7,5.5-28.2,27.7-28.2,52.5c0,12-0.4,28.1,8,37.3c12.1,13.4,46.9,13.4,63,13.4c15.2,0,31.3,0,46-4.1
					c24.6-6.9,24.1-30,24.1-52.5C3179.4,269.7,3179,253.6,3169.6,244.3z"/>
				<path class="st17" d="M3534.7,273.4h-74.2c0-32.3-10.3-41-41.6-41c-48.7,0-50.1,31.8-50.1,71.9v90.3h-79.1V176.7h74.7v32.7h3.6
					c18.3-33.6,47.8-38.3,82.3-38.3c24.6,0,54.1,3.2,70.6,24.4c14.8,18.9,14.3,46.1,14.3,69.1
					C3535.1,267.4,3534.7,270.6,3534.7,273.4z"/>
				<path class="st17" d="M3838.6,303.3h-206.5c0,12.4-0.4,26.7,9.8,35.5c10.7,8.8,40.7,9.2,53.6,9.2s49.2,0.5,57.7-9.2
					c3.6-3.7,4.5-8.8,5.4-13.8h78.7c-1.8,20.7-5.8,36.9-21,51.2c-27.3,25.4-92.5,24-127,24c-31.3,0-83.6,0.5-109.5-20.3
					c-8-6.5-13.4-13.8-17.9-23c-9.8-21.2-8.9-47.5-8.9-70.1c0-13.8,0-27.7,1.3-41c2.2-22.1,9.4-41.9,27.3-55.3
					c27.7-20.7,83.2-19.4,115.8-19.4c30,0,62.6-0.9,91.6,7.8c46.9,14.3,50.1,58.5,50.1,102.3C3839,288.6,3839,296,3838.6,303.3z
					 M3759.4,253.6c0-8.3-0.4-14.7-6.3-21.2c-9.4-10.6-41.6-10.6-54.5-10.6c-12.1,0-24.1,0-35.8,1.8c-22.4,3.2-30.4,12-30.8,35
					h127.4L3759.4,253.6L3759.4,253.6z"/>
			</g>
		</g>
		<g>
			<path class="st17" d="M2303.6,898.2c-2.2,20.3-8,40.1-23.7,53.5c-22.8,19.8-72,19.8-100.1,19.8c-34.4,0-70.2,0.5-89.9-33.6h-3.6
				v118.9h-79.1V748h74.7v29.5h4c18.3-36.4,62.1-35,97-35c41.6,0,99.2,0,115.8,48.4c6.7,19.8,6.7,46.6,6.7,67.3
				C2305.4,871.5,2305,884.9,2303.6,898.2z M2219.2,818c-11.2-14.7-44.3-14.3-60.4-14.3c-19.7,0-58.6-2.8-68,20.3
				c-4.5,10.1-4.5,24.4-4.5,35.5c0,12,0.4,25.4,7.2,35.5c10.3,15.2,47.4,15.2,63,15.2c15.2,0,32.6-0.5,47.4-4.6
				c24.1-6.9,22.4-31.3,22.4-53C2226.3,840.6,2226.8,828.2,2219.2,818z"/>
			<path class="st17" d="M2348.3,965.9V658.6h79.1v307.3L2348.3,965.9L2348.3,965.9z"/>
			<path class="st17" d="M2685.3,965.9v-32.7h-4c-16.5,36.4-56.8,38.3-90.8,38.3c-42.5,0-93-6-110-53c-8-22.6-7.2-47-7.2-71V748
				h78.7v99.6c0,53.5,9.8,62.7,62.1,62.7c60.8,0,66.6-16.1,66.6-74.7V748h78.7v217.9H2685.3z"/>
			<path class="st17" d="M3076.8,947.6c-24.6,25.4-101.9,24-133.7,24c-34.4,0-95.2,2.8-122.9-22.6c-15.2-13.8-18.3-32.3-18.8-52.5
				h80.5c1.8,19.8,21.5,22.1,36.7,23.5c9.8,0.9,19.7,0.9,29.5,0.9c13.9,0,51.4,0.9,62.1-9.2c3.1-2.8,4.5-6.9,4.5-11.1
				c0-18-24.6-17.1-36.7-17.1c-14.8,0-29.5-0.5-44.3-0.5c-15.2,0-30.4,0-45.6,0c-47.4,0-84.9-11.5-84.9-67.8
				c0-34.6,13.4-57.6,46.9-65.9c30.8-7.4,67.5-6.9,98.8-6.9c33.1,0,90.8-2.3,116.7,19.8c13.9,12,15.6,30,17,47.5h-80.5
				c-0.9-4.6-1.8-7.8-5.8-10.6c-8.5-6-40.2-6-50.1-6c-13,0-47.8-0.5-59,7.4c-3.1,2.8-4.9,6-4.9,10.1c0,12,9.4,13.8,18.8,14.7
				c20.1,1.8,43.4,1.4,63.5,1.4l44.3,0.5c49.6,0.5,84.5,10.1,84.5,68.2C3093.3,913.9,3090.2,933.7,3076.8,947.6z"/>
			<path class="st17" d="M3144.7,1032.3h-56.8l246.2-440.1h57.2L3144.7,1032.3z"/>
		</g>
		<g>
			<path class="st17" d="M129.6,284.3c0-83.1,65.6-150.8,146.2-150.8c25.9,0,50.2,7,71.3,19.2V9.7C324.3,3.4,300.4,0,275.7,0
				C123.5,0,0,127.3,0,284.3s123.5,284.3,275.7,284.3c24.7,0,48.6-3.4,71.3-9.7V415.9c-21.1,12.2-45.4,19.2-71.3,19.2
				C195.1,435.1,129.6,367.4,129.6,284.3z"/>
			<polygon class="st17" points="347,273.9 477.1,273.9 587.3,160.3 347,160.3 			"/>
			<polygon class="st18" points="347,294.7 347,408.4 587.3,408.4 477.1,294.7 			"/>
		</g>
		<g>
			<path class="st17" d="M3764.3,982.7v74h-111.7v-74h-307.8V830.6L3574,658.8h190.4v234.4h74.7v89.5H3764.3z M3652.6,751.3H3629
				l-179.4,126.5v15.5h203.1L3652.6,751.3L3652.6,751.3z"/>
		</g>
	</g>
</g>
</svg>
