<?xml version="1.0" encoding="utf-8"?>
<!-- Generator: Adobe Illustrator 26.0.3, SVG Export Plug-In . SVG Version: 6.00 Build 0)  -->
<svg version="1.1" id="Layer_1" xmlns="http://www.w3.org/2000/svg" xmlns:xlink="http://www.w3.org/1999/xlink" x="0px" y="0px"
	 viewBox="0 0 3839 661.8" style="enable-background:new 0 0 3839 661.8;" xml:space="preserve">
<style type="text/css">
	.st0{fill:#FFFFFF;}
	.st1{fill:url(#SVGID_1_);}
	.st2{fill:url(#SVGID_00000138564230363873665340000014611929611406653600_);}
	.st3{fill:url(#SVGID_00000145760319863870117490000008720128733403476908_);}
	.st4{fill:url(#SVGID_00000013174204570650064080000012087870408861092015_);}
	.st5{fill:url(#SVGID_00000147913018005793905370000018076644735437660330_);}
	.st6{fill:url(#SVGID_00000070832763686931204510000012069901757256871329_);}
	.st7{fill:url(#SVGID_00000048483896137521099130000016628850546949743262_);}
	.st8{fill:url(#SVGID_00000155824604272416339970000012930432182025764500_);}
	.st9{fill:url(#SVGID_00000111184873817039214720000010145556149501227198_);}
	.st10{fill:url(#SVGID_00000176044559974672816070000014155968819435952769_);}
	.st11{fill:url(#SVGID_00000101101493980522689210000001618013379079919542_);}
	.st12{fill:url(#SVGID_00000037684404297365111190000010248636150574852027_);}
	.st13{fill:url(#SVGID_00000144300741988796553980000012479888429547571844_);}
	.st14{fill:url(#SVGID_00000058591307422646536380000013441529516925857179_);}
	.st15{fill:url(#SVGID_00000034076072970597397910000003866406226652369837_);}
	.st16{fill:url(#SVGID_00000018222490439926792160000004363533007720095382_);}
	.st17{fill:url(#SVGID_00000127764232665913875550000013856501711879993505_);}
	.st18{fill:url(#SVGID_00000161597847717631671420000001856165166213996947_);}
	.st19{fill:url(#SVGID_00000150813315794152446230000004774601720806876810_);}
	.st20{fill:url(#SVGID_00000116208148953341305090000015442295140496635784_);}
	.st21{fill:url(#SVGID_00000132796013703972892080000004835775272687138236_);}
	.st22{fill-rule:evenodd;clip-rule:evenodd;}
	.st23{fill:#00AD9C;}
	.st24{fill:#FBB817;}
	.st25{fill:#0174BA;}
	.st26{fill:#EB2027;}
	.st27{fill-rule:evenodd;clip-rule:evenodd;fill:#FFFFFF;}
</style>
<g>
	<g>
		<path class="st0" d="M1099.6,194.8v337.6h52.7V227.2h48.8c0,0,35.4,0,47.6,15.8c10.3,13.5,12.2,37.9,12.2,54.4
			c0,17.6-1.1,44.9-7,54.9c-9,15.3-23.7,18.3-37.2,18.3h-32.2v30h46.3c0,0,41.8,1.7,59.7-16.5c22-22.4,27.6-52.5,27.6-92.8
			c0-36.6-13.3-73.6-40.4-86.1c-22.5-10.3-63-10.3-63-10.3H1099.6"/>
		<rect x="1359.5" y="194.8" class="st0" width="52.7" height="337.6"/>
		<polyline class="st0" points="1692.5,273.6 1788.9,526.3 1733.6,661.8 1777.3,661.8 1936.7,273.6 1887.9,273.6 1818.5,462.8 
			1753.9,273.6 1692.5,273.6 		"/>
		<path class="st0" d="M1976.4,530.4v-31.9c0,0,55.7,2.2,67.3,2.2c25.7,0,38.6-5.5,48.2-15.8c5.7-6.2,10.9-33.8,10.9-43.6
			c0-9.8-1.9-30.9-5.7-39.6c-3.9-8.5-12.9-16.4-26.4-17.6c-9.6-0.8-24.4-2.8-41.8-3.6c-24.3-1.1-40.4-13.8-48.2-23
			c-7.7-9.1-18-22.9-18-65c0-42.2,10.9-65.8,21.8-76.7c10.9-11,26.9-15.8,39.2-18c14.1-2.4,37.2-2.6,37.2-2.6l73.8,2.2v31.9
			c0,0-53.8-2.2-65.4-2.2c-25.7,0-33.4,5.5-43.1,15.8c-5.7,6.2-10.1,23.2-10.1,32.9c0,9.8,1.1,29.6,5,38.2
			c3.8,8.5,12.8,16.4,26.3,17.6c9.6,0.7,24.4,2.7,41.8,3.5c24.4,1.1,40.5,13.8,48.2,23c7.7,9.2,18.1,28.5,18.1,70.5
			c0,42.2-11,72.3-21.9,83.2c-11,11-26.9,15.8-39.2,18c-14.2,2.4-37.3,2.6-37.3,2.6L1976.4,530.4"/>
		<path class="st0" d="M2263.9,227.2h-52.7V475c0,0,1.3,22.6,2.6,30.6c1.3,8,12.9,26.8,43.1,26.8l54.6-1.1v-31.8
			c0,0-14.8,1.1-23.7,1.1c-9,0-20-0.6-21.9-15.9c-2-15.3-2-33.5-2-33.5V305.3h59.5v-31.8h-59.5V227.2"/>
		<rect x="2772.5" y="273.6" class="st0" width="52.7" height="258.8"/>
		<rect x="2772.5" y="194.8" class="st0" width="52.7" height="47"/>
		<path class="st0" d="M2955.5,321c-7.2,8.9-16.1,27.7-16.1,82c0,54.3,8.8,73.1,16.1,82c7.2,8.8,20.5,14.8,37.8,14.8
			c17.3,0,30.5-6,37.8-14.8c7.2-8.9,16.1-27.7,16.1-82c0-54.3-8.8-73.1-16.1-82c-7.3-8.9-20.6-14.8-37.8-14.8
			C2976,306.2,2962.7,312.1,2955.5,321 M2991.6,271.4c35.8,0,63.7,8,78.6,20.1c15.1,12.1,33.6,37.6,33.6,111.6
			c0,73.9-18.5,99.4-33.6,111.6c-14.9,12.1-42.7,20.1-78.6,20.1c-35.9,0-63.6-8.1-78.7-20.1c-15.1-12.1-33.5-37.6-33.5-111.6
			c0-73.9,18.4-99.4,33.5-111.6C2928,279.4,2955.7,271.4,2991.6,271.4z"/>
		<path class="st0" d="M3213,309.9l51.7-2.2c13.5,0,29.4,3.7,37.1,13.4c7.2,9.2,11.7,20.2,11.7,37.9v173h52.8V354.7
			c0-33.6-10.3-53.1-25.8-65.3c-22.1-17.5-61.7-15.8-61.7-15.8l-118,2.1v256.4h52.3V309.9"/>
		<path class="st0" d="M2667.5,227.2h-52.7V475c0,0,1.2,22.6,2.5,30.6c1.3,8,12.8,26.8,43.1,26.8l54.6-1.1v-31.8
			c0,0-14.8,1.1-23.8,1.1s-19.9-0.6-21.9-15.9c-1.9-15.3-1.9-33.5-1.9-33.5V305.3h59.4v-31.8h-59.4V227.2"/>
		<path class="st0" d="M1612.1,359.1c0-17.7-4.5-28.7-11.8-37.9c-7.7-9.8-23.6-13.4-37.1-13.4l-69.5,2.2v-34.2l83.6-2.1
			c0,0,39.6-1.7,61.7,15.8c15.4,12.3,25.7,31.8,25.7,65.3v174.9l-101,2.2c0,0-45.7,0.2-68.8-9.2c-22.4-9.1-34.7-34.2-34.7-69
			c0-33.6,10.3-53.1,25.7-65.3c22.1-17.6,61.7-15.8,61.7-15.8h32.3v29.8h-18.1c-13.6,0-27.5,2.5-35.2,12.3
			c-7.2,9.1-11.1,17.1-11.1,34.8c0,23.2,4.5,33.6,15.4,41.5c9.7,7,27,8.6,46.2,8.6l34.8-2.1V359.1"/>
		<path class="st0" d="M2500.6,359.1c0-17.7-4.4-28.7-11.7-37.9c-7.8-9.8-23.7-13.4-37.1-13.4l-69.5,2.2v-34.2l83.6-2.1
			c0,0,39.6-1.7,61.7,15.8c15.4,12.3,25.7,31.8,25.7,65.3v174.9l-101,2.2c0,0-45.8,0.2-68.8-9.2c-22.5-9.1-34.8-34.2-34.8-69
			c0-33.6,10.4-53.1,25.7-65.3c22.1-17.6,61.7-15.8,61.7-15.8h32.2v29.8h-18.1c-13.5,0-27.5,2.5-35.1,12.3
			c-7.2,9.1-11.1,17.1-11.1,34.8c0,23.2,4.5,33.6,15.4,41.5c9.6,7,27,8.6,46.3,8.6l34.7-2.1V359.1"/>
		<path class="st0" d="M3418.9,483.1c0-11.4,4.5-22.2,12.5-30.3c8.1-8.1,18.8-12.6,30.3-12.6c11.4,0,22.2,4.5,30.3,12.6
			c8,8.1,12.5,18.8,12.5,30.3c0,23.6-19.2,42.8-42.8,42.8c-11.4,0-22.1-4.5-30.3-12.5C3423.4,505.3,3418.9,494.6,3418.9,483.1
			 M3461.7,534.5c13.8,0,26.7-5.4,36.4-15c9.7-9.8,15.1-22.7,15.1-36.4c0-13.8-5.4-26.7-15.1-36.4c-9.7-9.7-22.7-15-36.4-15
			c-28.2,0-51.4,23.1-51.4,51.4c0,13.7,5.3,26.7,15.1,36.4C3435.2,529.2,3448,534.5,3461.7,534.5z"/>
		<path class="st0" d="M3475.7,470.1c0,3.2-0.8,5.3-2.4,6.5c-1.8,1.2-4.4,1.9-7.5,1.9h-15.9v-16.2h16.9c2.3,0,4.2,0.3,5.5,1
			C3474.6,464.5,3475.7,466.8,3475.7,470.1 M3487.1,507c-0.8-0.3-1.4-1.2-1.7-2.5c-0.2-0.9-0.4-2.4-0.5-4.3l-0.2-7.4
			c-0.1-3.5-0.9-6-2.1-7.6c-0.8-1.1-2-2-3.4-2.8c1.7-1.1,3.2-2.5,4.3-4.2c1.4-2.3,2.2-5.2,2.2-8.7c0-6.8-2.9-11.5-8.4-14.1
			c-2.9-1.3-6.5-1.9-10.9-1.9h-26.6v57.3h9.9v-23.5h15.6c2.8,0,4.9,0.3,6.2,0.8c2,1,3.1,3,3.2,6.1l0.4,9.2c0.1,2.2,0.2,3.7,0.4,4.5
			c0.3,0.9,0.4,1.6,0.7,2.2l0.4,0.7h11v-3.4L3487.1,507z"/>
		<path class="st0" d="M3838.9,238.4c0.7,38.9-1.2,59.4-14.3,78.9c-11.5,17.1-34.3,32.8-84.8,32.8l-62.6-1.9
			c-9.8,0.1-35.5,3.1-47.6,16.1c-10.4,11.1-11.1,19.5-12.3,49.3v87.3h212.7v42.9h-232.5l-11.1-0.1c-15.8,0-31.4-10.7-31.4-32.2
			v-65.1c1.1-76.2,6.6-87.2,23.1-107.1c11.5-13.8,38.3-29.2,71-30.9c6.4-0.4,18.6-1.2,35.4-0.6c12.5,0.4,24.8,0.7,30.3,0.8
			c29,0.4,39.5-5,47.5-15.4c9-11.7,13.8-25.5,13.8-48.1c0-21.1-4.2-41.2-12.3-50.4c-9.8-10.7-19.1-17.8-46.4-17.9
			c-68.7-0.2-149,1.6-149,1.6v-40.4c0,0,78.5-3.4,158.5-4.6c49.9-0.8,77.2,12.4,91.2,30.6C3833,183.3,3838.3,201.2,3838.9,238.4"/>
	</g>
	<g>
		<g>
			<path class="st27" d="M834.9,604.6c-5.4-5.4-12.5-8.4-20.1-8.4c-15.7,0-28.5,13-28.5,28.9c0,7.7,3,15,8.3,20.4s12.5,8.5,20.1,8.5
				s14.8-3,20.1-8.5c5.4-5.4,8.3-12.7,8.3-20.4C843.3,617.3,840.3,610.1,834.9,604.6z M814.8,649.2c-6.3,0-12.2-2.5-16.8-7.1
				c-4.4-4.5-7-10.6-7-17.1c0-6.4,2.4-12.5,7-17.1c4.4-4.5,10.4-7.1,16.8-7.1c6.3,0,12.2,2.5,16.8,7.1c4.4,4.5,7,10.6,7,17.1
				C838.5,638.4,827.9,649.2,814.8,649.2z"/>
			<path class="st27" d="M827.9,637.1c-0.2-0.5-0.3-1.4-0.3-2.4l-0.2-4.2c-0.1-2-0.5-3.4-1.2-4.3c-0.5-0.6-1.1-1.1-1.9-1.5
				c1-0.6,1.8-1.5,2.4-2.4c0.8-1.3,1.3-2.9,1.3-4.9c0-3.8-1.5-6.4-4.7-7.9c-1.6-0.7-3.6-1.1-6-1.1h-14.1h-0.5v0.7v30.7v0.7h0.7h4.1
				h0.7v-0.7v-12.5h8.6c1.5,0,2.7,0.2,3.4,0.5c1.2,0.5,1.7,1.7,1.8,3.4l0.3,5.2c0.1,1.3,0.1,2.1,0.3,2.5c0.1,0.5,0.2,0.9,0.4,1.2
				l0.2,0.4h0.5h5h0.7v-0.6v-0.7v-0.5l-0.5-0.2C828.4,638.4,828.1,637.8,827.9,637.1z M821.1,621.4c-1,0.7-2.4,1.1-4.2,1.1h-8.8
				v-9.1h9.3c1.3,0,2.4,0.2,3.1,0.5c1.4,0.6,2,1.9,2,3.8C822.5,619.5,822.1,620.8,821.1,621.4z"/>
		</g>
		<g>
			<path class="st23" d="M382.6,420.9l-124.5-36.6c0,0-152.8,54.6-164.9,58.7c-12.1,4.1-28.9,10.7-28.9,10.7l119.5,38.4L382.6,420.9
				"/>
			<path class="st23" d="M380.3,555.2l-121.2-38.9L461.1,444l128.4,37.7c0,0-168.8,59.8-179.1,63.4
				C400.2,548.9,380.3,555.2,380.3,555.2"/>
			<path class="st23" d="M790.9,540.9l-123-36.2L457.5,580l118.6,38.1c0,0,182.9-65.7,191.9-68.8
				C777.1,546.2,790.9,540.9,790.9,540.9"/>
			<polyline class="st24" points="576.2,618.1 458.9,660.4 339.4,622.2 457.5,580 576.2,618.1 			"/>
			<path class="st24" d="M259.1,516.3l121.2,38.9c-135.3,44.6-236.7,28.5-299,11.3C18.9,549.3,1.7,531,0.1,508.9
				c-1.6-22.1,32.2-41.8,64.2-55.1l119.5,38.4l-30.3,10.8c-13.3,4.5-40.2,17.8-17.8,28.3c23.9,11.2,68.9,5.3,93.3-3.9L259.1,516.3"
				/>
			<polyline class="st25" points="382.6,420.9 258.1,384.3 321.4,362 444.6,398.8 382.6,420.9 			"/>
			<path class="st25" d="M589.5,481.8L461.1,444c58.6-22.5,104.8-34.4,171.2-36.4c73.4-2.3,129.7,15.3,149.1,21.3
				c40.8,12.7,71.6,29.5,74.2,52.1c3.5,29.6-39.8,50.9-64.8,59.9l-123-36.2c0,0,30.2-10.6,42-14.7c11.9-4.1,24.2-12.3,21.7-19.7
				c-2.5-7.4-17.2-10.8-20.9-11.3c-7.4-1-20.3-2.8-42.6-0.8c-18.3,1.6-31.6,6.8-31.6,6.8L589.5,481.8"/>
			<path class="st26" d="M319.4,0v616.5l139.5,43.9V143.7c0-24.2,10.8-40.4,28.3-34.9c22.8,6.4,27.2,28.7,27.2,52.9v206.5
				c87,42,155.4-0.1,155.4-110.9c0-113.7-40.1-164.2-158.2-204.7C465.1,37,378.7,11,319.4,0"/>
		</g>
	</g>
</g>
</svg>
