<?xml version="1.0" encoding="utf-8"?>
<!-- Generator: Adobe Illustrator 26.0.2, SVG Export Plug-In . SVG Version: 6.00 Build 0)  -->
<svg version="1.1" xmlns="http://www.w3.org/2000/svg" xmlns:xlink="http://www.w3.org/1999/xlink" x="0px" y="0px"
	 viewBox="0 0 3845.3 142" style="enable-background:new 0 0 3845.3 142;" xml:space="preserve">
<style type="text/css">
	.st0{display:none;}
	.st1{display:inline;}
	.st2{fill:#2511ED;}
	.st3{fill:url(#SVGID_1_);}
	.st4{fill:url(#SVGID_00000130616921679021874210000016851622693602958513_);}
	.st5{fill:url(#SVGID_00000160177200746959400550000011401395413473556634_);}
	.st6{fill:url(#SVGID_00000139984945754756943680000016381712560097046148_);}
	.st7{fill:url(#SVGID_00000122710061784786680000000007311912799670335144_);}
	.st8{fill:url(#SVGID_00000076568232129719036460000004723522818821347970_);}
	.st9{fill:url(#SVGID_00000142150090608653185860000006818819128902419343_);}
	.st10{fill:url(#SVGID_00000012468334459570560840000000345830262027506870_);}
	.st11{fill:url(#SVGID_00000047052101773834130910000001501168813927367306_);}
	.st12{fill:url(#SVGID_00000039856617412712730780000017995871859675019183_);}
	.st13{fill:url(#SVGID_00000015331764598661268770000002343652195261756296_);}
	.st14{fill:url(#SVGID_00000176758059266193019130000012888397394457170856_);}
	.st15{fill:url(#SVGID_00000010305697914481805670000011008707476525271216_);}
	.st16{fill:url(#SVGID_00000080202495674812647700000011846051514111753653_);}
	.st17{fill:url(#SVGID_00000132787075609799607890000016195599990308815034_);}
	.st18{fill:url(#SVGID_00000040569161353138679510000006977235402220236221_);}
	.st19{fill:url(#SVGID_00000021810606227128432990000018020846324801130911_);}
	.st20{fill:url(#SVGID_00000079449317371881013390000017502569337825515413_);}
	.st21{fill:url(#SVGID_00000120556513679141413090000014762208731991446954_);}
	.st22{fill:url(#SVGID_00000036965535159455478710000004916519826627821495_);}
	.st23{fill:url(#SVGID_00000142891244357103725670000012356774813192040602_);}
	.st24{fill:url(#SVGID_00000070807150798265908270000016097783346328075914_);}
	.st25{fill:url(#SVGID_00000067915594491694420920000009500185254065655425_);}
	.st26{fill:url(#SVGID_00000170975998109023990570000016981752779544584870_);}
	.st27{fill:url(#SVGID_00000008850286305589977540000012221109007176751237_);}
	.st28{fill:url(#SVGID_00000070085987566571283430000013566454162498328473_);}
	.st29{fill:url(#SVGID_00000018918368792007037450000013383806470997914504_);}
	.st30{fill:url(#SVGID_00000047753005911984096930000014950384763899959681_);}
	.st31{fill:url(#SVGID_00000163783266284918610440000001373406034903857801_);}
	.st32{fill:url(#SVGID_00000055691081535182866150000003326026996086413233_);}
	.st33{fill:url(#SVGID_00000121982151280011602100000002595434661459540873_);}
	.st34{fill:url(#SVGID_00000125583805523331616450000006950969043202152361_);}
	.st35{fill:url(#SVGID_00000114058173741702144130000018382666992845541816_);}
	.st36{fill:url(#SVGID_00000067916267550107827150000007450990963692744127_);}
	.st37{fill:url(#SVGID_00000142144849794380455170000004783059943163670948_);}
	.st38{fill:url(#SVGID_00000147195742301920104270000013822080507961663385_);}
	.st39{fill:url(#SVGID_00000135654170259601963780000002298521183767378065_);}
	.st40{fill:url(#SVGID_00000164501084605732493170000001289301897542236843_);}
	.st41{fill:url(#SVGID_00000149363785032148812290000009336410152309072801_);}
	.st42{fill:url(#SVGID_00000161601038854220284460000015457769247676248754_);}
	.st43{fill:url(#SVGID_00000094595311900364473590000002684006421105828499_);}
	.st44{fill:url(#SVGID_00000014602974015118468390000017139777082822215866_);}
	.st45{fill:url(#SVGID_00000145737721732528582040000008095805418234023088_);}
	.st46{fill:url(#SVGID_00000128466179082597618200000009852184167498403496_);}
	.st47{fill:url(#SVGID_00000133506058699937013600000008338251753941039533_);}
	.st48{fill:url(#SVGID_00000106842617456562429160000011067328438912166565_);}
	.st49{fill:url(#SVGID_00000061445124139926562680000005934757324060075953_);}
	.st50{fill:url(#SVGID_00000067201798394660209530000017957732392420556674_);}
	.st51{fill:url(#SVGID_00000036219187197852359720000007076466310843207603_);}
	.st52{fill:url(#SVGID_00000122712296268279852060000016977394978270527126_);}
	.st53{fill:url(#SVGID_00000029727261600620036520000002696152116057739160_);}
	.st54{fill:url(#SVGID_00000097490567445724902760000003806549761933436598_);}
	.st55{fill:url(#SVGID_00000101086899314408132580000007167251763487315879_);}
	.st56{fill:url(#SVGID_00000089562552648039796030000015686998904002883253_);}
	.st57{fill:url(#SVGID_00000131345613512299583080000006935552440325092755_);}
	.st58{fill:url(#SVGID_00000037653894099241521910000004446247445564267919_);}
	.st59{fill:url(#SVGID_00000140719878548263335150000002568755507287199651_);}
	.st60{fill:url(#SVGID_00000008864080683985148950000005265723309435799966_);}
	.st61{fill:url(#SVGID_00000106137944736516752800000011210773163918315193_);}
	.st62{fill:url(#SVGID_00000109019776210733205140000009389599852793330868_);}
	.st63{fill:url(#SVGID_00000035514994009199207220000009095632544955778986_);}
	.st64{fill:url(#SVGID_00000149346049833812565720000013331741839830291891_);}
	.st65{fill:url(#SVGID_00000157296852250844822170000000997012128305948824_);}
	.st66{fill:url(#SVGID_00000027593386801540199330000014106018565290182814_);}
	.st67{fill:url(#SVGID_00000003068089628604182580000011764386095745912752_);}
	.st68{fill:url(#SVGID_00000107550005605975393470000001234754085566137241_);}
	.st69{fill:url(#SVGID_00000123420412277663424100000008293216994585915014_);}
	.st70{fill:url(#SVGID_00000062187874077039892000000001522487693685552828_);}
	.st71{fill:url(#SVGID_00000098198618483869256500000004742471326644285873_);}
	.st72{fill:url(#SVGID_00000086668808971009733060000005911481089639225484_);}
	.st73{fill:url(#SVGID_00000039129335589223119860000016149867283757955753_);}
	.st74{fill:url(#SVGID_00000004525918473740810070000011249077166690881694_);}
	.st75{fill:#FFFFFF;}
	.st76{fill:url(#SVGID_00000162331459606713198370000011537915416981482638_);}
	.st77{fill:url(#SVGID_00000149350034322977813500000017767085157141072262_);}
	.st78{fill:url(#SVGID_00000029010562893096865420000005121748954575972533_);}
	.st79{fill:url(#SVGID_00000139991640319180732950000003241604725720840872_);}
	.st80{fill:url(#SVGID_00000029039210626244452380000004444907859563290507_);}
	.st81{fill:url(#SVGID_00000000927593289284961230000014996076861814964668_);}
	.st82{fill:url(#SVGID_00000017480135875680697540000016230512300849589163_);}
	.st83{fill:url(#SVGID_00000094583807663036109290000003558550333934803848_);}
	.st84{fill:url(#SVGID_00000125562280363406242940000002473991112154496445_);}
	.st85{fill:url(#SVGID_00000182523005584234236030000007621213094971392151_);}
	.st86{fill:url(#SVGID_00000059304428302007646980000006571222831279594381_);}
	.st87{fill:url(#SVGID_00000016049645871222978090000002173347100892858288_);}
	.st88{fill:url(#SVGID_00000087398597599541627490000007680768515040764305_);}
	.st89{fill:url(#SVGID_00000157307399871863220710000003484628365496979363_);}
	.st90{fill:url(#SVGID_00000108996123286243006200000010527714694964426157_);}
	.st91{fill:url(#SVGID_00000021098545253244095890000003620398507761141923_);}
	.st92{fill:url(#SVGID_00000033366686733372005330000014789685502026648203_);}
	.st93{fill:url(#SVGID_00000130624951350887041000000010167720681809856700_);}
	.st94{fill:url(#SVGID_00000141452729058054835100000003706792934830051517_);}
	.st95{fill:url(#SVGID_00000109027033623467505390000002597995663407322558_);}
	.st96{fill:url(#SVGID_00000106854506404695798330000001019593201503363218_);}
	.st97{fill:url(#SVGID_00000023273380907243044240000001360264808590600895_);}
	.st98{fill:url(#SVGID_00000170982010280191698020000011240091510506582675_);}
	.st99{fill:url(#SVGID_00000155857558253059170610000007878585308916155059_);}
	.st100{fill-rule:evenodd;clip-rule:evenodd;}
	.st101{fill-rule:evenodd;clip-rule:evenodd;fill:#FFFFFF;}
	.st102{fill:url(#SVGID_00000052783719831475462120000004202138845247560849_);}
	.st103{fill:url(#SVGID_00000177477982034329376890000003389242153204832176_);}
	.st104{fill:url(#SVGID_00000132769903487193920390000016111673058058217617_);}
	.st105{fill:url(#SVGID_00000136402641563429682060000015408440493985156491_);}
	.st106{fill:url(#SVGID_00000134248029177069051080000003439989916580053163_);}
	.st107{fill:url(#SVGID_00000031209505358015636900000014031235401408748194_);}
	.st108{fill:url(#SVGID_00000054952371712110547400000000970236413372812453_);}
	.st109{fill:url(#SVGID_00000036218044166882412960000005552500372492733622_);}
	.st110{fill:url(#SVGID_00000181052134336545261310000000800528747810539964_);}
	.st111{fill:url(#SVGID_00000134935879097766127460000016357408149354927796_);}
	.st112{fill:url(#SVGID_00000089572804109298562770000014184098157490083494_);}
	.st113{fill:url(#SVGID_00000052820449849876610540000008447615168570499225_);}
	.st114{fill:url(#SVGID_00000099629792098554435530000013706790960405203104_);}
	.st115{fill:url(#SVGID_00000181056897050736749300000008544553226679617428_);}
	.st116{fill:url(#SVGID_00000127738897595679492920000002522458115642225296_);}
	.st117{fill:url(#SVGID_00000116950296965295649580000009118617592785734559_);}
	.st118{fill:url(#SVGID_00000015333054953908781990000007292549473281645471_);}
	.st119{fill:url(#SVGID_00000111173898751194454770000015625730453430776228_);}
	.st120{fill:url(#SVGID_00000031892939084755641930000011632445251147690387_);}
	.st121{fill:url(#SVGID_00000064339845115194229850000002465808559848579757_);}
	.st122{fill:url(#SVGID_00000067233108699363038050000008469268862018956958_);}
	.st123{fill:url(#SVGID_00000008147444097283969060000015445837511815896753_);}
	.st124{fill:url(#SVGID_00000027597272479149851900000009296574022481719974_);}
	.st125{fill:url(#SVGID_00000088818946219202007890000012747567190000899007_);}
	.st126{fill:url(#SVGID_00000088114806121133112260000009606007257022191011_);}
	.st127{fill:url(#SVGID_00000011018618488086583320000015659125509198920073_);}
	.st128{fill:url(#SVGID_00000091002039221408284980000013168100913312680109_);}
	.st129{fill:url(#SVGID_00000059997555145600490490000006202266604859586456_);}
	.st130{fill:url(#SVGID_00000049923202318653353410000016135616101431365261_);}
	.st131{fill:url(#SVGID_00000160886544950757802430000014144563714999849858_);}
	.st132{fill:url(#SVGID_00000167394577603203245860000015387580594386778301_);}
	.st133{fill:url(#SVGID_00000000903165424828735070000014412735528338033598_);}
	.st134{fill:url(#SVGID_00000146489125847892811660000004588363708429903035_);}
	.st135{fill:url(#SVGID_00000100374472910300845120000010028436101065717914_);}
	.st136{fill:url(#SVGID_00000181805404478412870130000014222315663181425587_);}
	.st137{fill:url(#SVGID_00000031895414787222898240000008836495374989669529_);}
	.st138{fill:url(#SVGID_00000023997845261465004210000010649811142067744923_);}
	.st139{fill:url(#SVGID_00000065775132065715738660000000089409027548788394_);}
	.st140{fill:url(#SVGID_00000123409410473712247260000001051430565645588871_);}
	.st141{fill:url(#SVGID_00000055688769041186719390000000758471986471196338_);}
	.st142{fill:url(#SVGID_00000030484276964208521900000003684069104717597110_);}
	.st143{fill:url(#SVGID_00000003789852539292003070000000556549922545298094_);}
	.st144{fill:url(#SVGID_00000086651065504715234290000000129481947873678486_);}
	.st145{fill:url(#SVGID_00000132806476113889118040000001667201105886825655_);}
	.st146{fill:url(#SVGID_00000180367505657646300260000002316493694111187354_);}
	.st147{fill:url(#SVGID_00000100342090289488164860000008056231348469426354_);}
	.st148{fill:url(#SVGID_00000035512013282350106710000017120011222231141796_);}
	.st149{fill:url(#SVGID_00000038382663848138571830000000317104496789676716_);}
	.st150{fill:url(#SVGID_00000054247627739670268920000013081050980465884833_);}
	.st151{fill:url(#SVGID_00000035493880993033468360000009575869357719971767_);}
	.st152{fill:url(#SVGID_00000103267030420983314480000001336541899648414121_);}
	.st153{fill:url(#SVGID_00000049941914823882510410000017106364753448055170_);}
	.st154{fill:url(#SVGID_00000158019036068795782780000003679249009593965440_);}
	.st155{fill:url(#SVGID_00000081613040880142051110000008412709708017988020_);}
	.st156{fill:url(#SVGID_00000132776424525797991580000002276672531144429490_);}
	.st157{fill:url(#SVGID_00000070107688580318189720000005302765851535902641_);}
	.st158{fill:url(#SVGID_00000109715334888381356990000014018091345606143146_);}
	.st159{fill:url(#SVGID_00000178906400986061634720000015322752099821626801_);}
	.st160{fill:url(#SVGID_00000030464735897465825840000005921304123315305365_);}
	.st161{fill:url(#SVGID_00000112613134189825825450000013832606422078341292_);}
	.st162{fill:url(#SVGID_00000063633610648209243560000010366299511707231385_);}
	.st163{fill:url(#SVGID_00000179645135948700930550000007678883019708977050_);}
	.st164{fill:url(#SVGID_00000127010175281531852440000009965969686217179820_);}
	.st165{fill:url(#SVGID_00000050664004633902055810000014632663082593682844_);}
	.st166{fill:url(#SVGID_00000157274356382482416050000003792503905191857040_);}
	.st167{fill:url(#SVGID_00000068678087372095680860000008723622597940388265_);}
	.st168{fill:url(#SVGID_00000181088073336425053750000006266439134318501554_);}
	.st169{fill:url(#SVGID_00000034066729076036060360000010209080338173846456_);}
	.st170{fill:url(#SVGID_00000163771279019967443110000012171624055856889503_);}
	.st171{fill:url(#SVGID_00000021823220353940239850000008723002107415169941_);}
	.st172{fill:url(#SVGID_00000090269714257842296530000009218227849885185946_);}
	.st173{fill:url(#SVGID_00000154396542072238143120000007674025888434653849_);}
	.st174{fill:url(#SVGID_00000174565682057667776380000002807777642177712259_);}
	.st175{fill:url(#SVGID_00000055691374832511289870000005942308487602906302_);}
	.st176{fill:url(#SVGID_00000121281147230545852330000005137689297502007704_);}
	.st177{fill:url(#SVGID_00000049904330654557469450000003812799375638535328_);}
	.st178{fill:url(#SVGID_00000034085833782162766540000011227586120618834829_);}
	.st179{fill:url(#SVGID_00000158724669793776891960000013391992281271413170_);}
	.st180{fill:url(#SVGID_00000127030397094891924210000015687990111294115239_);}
	.st181{fill:url(#SVGID_00000047748791965814035320000016287274108837311930_);}
	.st182{fill:url(#SVGID_00000183938756836364739930000006937730523114754219_);}
	.st183{fill:url(#SVGID_00000140007764860153969520000011907496097010940552_);}
	.st184{fill:url(#SVGID_00000046304015713922734680000014454931985542101686_);}
	.st185{fill:url(#SVGID_00000157300032007148984230000017638783968428252838_);}
	.st186{fill:url(#SVGID_00000173156939650705268880000005183788506176444842_);}
	.st187{fill:url(#SVGID_00000166655098056146859800000006377575337638756019_);}
	.st188{fill:url(#SVGID_00000154402847573046000100000013303096630650262200_);}
	.st189{fill:url(#SVGID_00000092438481689855011910000013139972317866996653_);}
	.st190{fill:url(#SVGID_00000107577091150540303300000009194639523547395481_);}
	.st191{fill:url(#SVGID_00000089561662311267846190000004941052324094818210_);}
	.st192{fill:url(#SVGID_00000067224507780531833000000009925533094172513157_);}
	.st193{fill:url(#SVGID_00000165193043608342855950000017883555551947494818_);}
	.st194{fill:url(#SVGID_00000148635795879111658130000005237118878971157899_);}
	.st195{fill:url(#SVGID_00000008849442663725806670000000900496181221199011_);}
	.st196{fill:url(#SVGID_00000127028470330326953000000013421195032349185164_);}
	.st197{fill:url(#SVGID_00000026149418841749817560000000774754673224827820_);}
</style>
<g id="Not_Conjoined" class="st0">
	<g class="st1">
		<g>
			<g>
				<linearGradient id="SVGID_1_" gradientUnits="userSpaceOnUse" x1="141.295" y1="138.9586" x2="141.295" y2="8.2263">
					<stop  offset="0" style="stop-color:#D6D5D5"/>
					<stop  offset="1" style="stop-color:#696666"/>
				</linearGradient>
				<path class="st3" d="M29.6,13.5c-2.4,8.4-4.8,16.8-7.2,25.2c5.6-0.4,11.1-0.8,16.7-1.2L2.1,139h48.2l20-55.1
					c60.3,2.8,122.1,1.8,185.1-2.9l1.4-3.9h0l7-19.1l0.8-2.3l0,0L275.4,26l0,0l5-13.8C199.1,6.5,115.3,6.9,29.6,13.5z M79.5,58.6
					l8.7-23.8C134.1,33,179.4,33,224,34.9l-8.6,23.7C169.4,60.7,124,60.7,79.5,58.6z"/>
				
					<radialGradient id="SVGID_00000047035556124939471660000010907799390904297885_" cx="141.2435" cy="73.5924" r="112.3239" gradientUnits="userSpaceOnUse">
					<stop  offset="0" style="stop-color:#D6D5D5"/>
					<stop  offset="1" style="stop-color:#696666"/>
				</radialGradient>
				<path style="fill:url(#SVGID_00000047035556124939471660000010907799390904297885_);" d="M165,8.2c39,0,77.5,1.3,115.5,4
					l-5,13.8l-10.8,29.6l-0.8,2.3l-7,19.1h0l-1.4,3.9c-39.7,3-78.9,4.5-117.5,4.5c-22.7,0-45.2-0.5-67.5-1.5l-20,55.1H2.1l37-101.5
					c-5.5,0.4-11.1,0.8-16.7,1.2c2.4-8.4,4.8-16.8,7.2-25.2C75.3,10,120.5,8.2,165,8.2 M146.9,60.2c22.6,0,45.5-0.5,68.5-1.6
					l8.6-23.7c-22.6-0.9-45.3-1.4-68.2-1.4c-22.4,0-44.9,0.4-67.6,1.3l-8.7,23.8C101.8,59.7,124.3,60.2,146.9,60.2 M165,5.2
					c-44.5,0-90.1,1.8-135.6,5.2l-2.1,0.2l-0.6,2c-1.2,4.3-2.4,8.5-3.7,12.8c-1.2,4.1-2.4,8.2-3.5,12.4l-1.2,4.1l4.3-0.3
					c3.9-0.3,7.9-0.6,12-0.9l-35.4,97.2l-1.5,4h4.3h48.2h2.1l0.7-2l19.3-53c21.6,1,43.6,1.4,65.5,1.4c38.6,0,78.2-1.5,117.8-4.5
					l1.9-0.1l0.7-1.8l1.4-3.9l7-19.1l0.8-2.3L278.2,27l5-13.8l1.4-3.7l-4-0.3C242.7,6.6,203.8,5.2,165,5.2L165,5.2z M90.3,37.7
					c21.9-0.8,43.9-1.3,65.5-1.3c21.4,0,42.9,0.4,64,1.2l-6.6,18c-22.2,1-44.5,1.5-66.4,1.5c-21.1,0-42.3-0.5-63.1-1.4L90.3,37.7
					L90.3,37.7z"/>
			</g>
			<g>
				
					<linearGradient id="SVGID_00000130624475440850589920000001198697984008219829_" gradientUnits="userSpaceOnUse" x1="798.736" y1="138.9586" x2="798.736" y2="8.2684">
					<stop  offset="0" style="stop-color:#D6D5D5"/>
					<stop  offset="1" style="stop-color:#696666"/>
				</linearGradient>
				<path style="fill:url(#SVGID_00000130624475440850589920000001198697984008219829_);" d="M709.7,12.6l-2.3,6.4l0,0l-15,41.2l0,0
					l-8.2,22.5L663.7,139h48.2l19.5-53.5h127.8L839.6,139h48.2L931.4,19h0l2.3-6.4C861.3,6.8,786.4,6.8,709.7,12.6z M740.5,60.2
					l9.2-25.3c43.3-1.9,85.9-1.9,127.8,0l-9.2,25.3H740.5z"/>
				
					<radialGradient id="SVGID_00000127727328600451793460000006651171533869967291_" cx="798.6771" cy="73.6135" r="109.6929" gradientUnits="userSpaceOnUse">
					<stop  offset="0" style="stop-color:#D6D5D5"/>
					<stop  offset="1" style="stop-color:#696666"/>
				</radialGradient>
				<path style="fill:url(#SVGID_00000127727328600451793460000006651171533869967291_);" d="M823.3,8.3c37.4,0,74.2,1.4,110.5,4.3
					l-2.3,6.4h0L887.8,139h-48.2l19.5-53.5H731.3L711.9,139h-48.2l20.5-56.2l8.2-22.5l15-41.2l2.3-6.4C748,9.7,785.9,8.3,823.3,8.3
					 M740.5,60.2h127.8l9.2-25.3c-20.9-1-42.1-1.4-63.4-1.4c-21.3,0-42.8,0.5-64.4,1.4L740.5,60.2 M823.3,5.3
					c-37.3,0-75.6,1.5-113.8,4.3l-1.9,0.1l-0.7,1.8l-2.3,6.4l-15,41.2l-8.2,22.5l-20.5,56.2l-1.5,4h4.3h48.2h2.1l0.7-2l18.8-51.5
					h121.4l-18,49.5l-1.5,4h4.3h48.2h2.1l0.7-2l43.6-119.9l2.3-6.4l1.3-3.7L934,9.6C897.9,6.7,860.6,5.3,823.3,5.3L823.3,5.3z
					 M751.8,37.9c20.8-0.9,41.8-1.3,62.3-1.3c19.8,0,39.7,0.4,59.1,1.2l-7.1,19.4H744.8L751.8,37.9L751.8,37.9z"/>
			</g>
			<g>
				
					<linearGradient id="SVGID_00000183231301605305166430000004799112722157834399_" gradientUnits="userSpaceOnUse" x1="2120.2302" y1="138.9586" x2="2120.2302" y2="8.2684">
					<stop  offset="0" style="stop-color:#D6D5D5"/>
					<stop  offset="1" style="stop-color:#696666"/>
				</linearGradient>
				<path style="fill:url(#SVGID_00000183231301605305166430000004799112722157834399_);" d="M2031.2,12.6l-2.3,6.4l0,0l-15,41.2
					l0,0l-8.2,22.5l-20.5,56.2h48.2l19.5-53.5h127.8l-19.5,53.5h48.2L2252.9,19h0l2.3-6.4C2182.8,6.8,2107.9,6.8,2031.2,12.6z
					 M2062,60.2l9.2-25.3c43.3-1.9,85.9-1.9,127.8,0l-9.2,25.3H2062z"/>
				
					<radialGradient id="SVGID_00000136412390888750618510000001357907348003651200_" cx="2120.1716" cy="73.6135" r="109.6929" gradientUnits="userSpaceOnUse">
					<stop  offset="0" style="stop-color:#D6D5D5"/>
					<stop  offset="1" style="stop-color:#696666"/>
				</radialGradient>
				<path style="fill:url(#SVGID_00000136412390888750618510000001357907348003651200_);" d="M2144.8,8.3c37.4,0,74.2,1.4,110.5,4.3
					l-2.3,6.4h0L2209.3,139h-48.2l19.5-53.5h-127.8l-19.5,53.5h-48.2l20.5-56.2l8.2-22.5l15-41.2l2.3-6.4
					C2069.5,9.7,2107.4,8.3,2144.8,8.3 M2062,60.2h127.8l9.2-25.3c-20.9-1-42.1-1.4-63.4-1.4c-21.3,0-42.8,0.5-64.4,1.4L2062,60.2
					 M2144.8,5.3c-37.3,0-75.6,1.5-113.8,4.3l-1.9,0.1l-0.7,1.8L2026,18l-15,41.2l-8.2,22.5l-20.5,56.2l-1.5,4h4.3h48.2h2.1l0.7-2
					l18.8-51.5h121.4l-18,49.5l-1.5,4h4.3h48.2h2.1l0.7-2l43.7-119.9l2.3-6.4l1.3-3.7l-3.9-0.3C2219.4,6.7,2182.1,5.3,2144.8,5.3
					L2144.8,5.3z M2073.3,37.9c20.8-0.9,41.8-1.3,62.3-1.3c19.8,0,39.7,0.4,59.1,1.2l-7.1,19.4h-121.4L2073.3,37.9L2073.3,37.9z"/>
			</g>
			<g>
				
					<linearGradient id="SVGID_00000135669371883522616080000001400120090078761610_" gradientUnits="userSpaceOnUse" x1="2670.8909" y1="138.9586" x2="2670.8909" y2="8.2503">
					<stop  offset="0" style="stop-color:#D6D5D5"/>
					<stop  offset="1" style="stop-color:#696666"/>
				</linearGradient>
				<polygon style="fill:url(#SVGID_00000135669371883522616080000001400120090078761610_);" points="2623,139 2671.2,139 
					2718.8,8.3 2670.9,8.3 				"/>
				
					<radialGradient id="SVGID_00000111879341277505858860000012286302189966560652_" cx="2670.8862" cy="73.6045" r="60.7965" gradientUnits="userSpaceOnUse">
					<stop  offset="0" style="stop-color:#D6D5D5"/>
					<stop  offset="1" style="stop-color:#696666"/>
				</radialGradient>
				<path style="fill:url(#SVGID_00000111879341277505858860000012286302189966560652_);" d="M2718.8,8.3L2671.2,139H2623
					l47.9-130.7H2718.8 M2723,5.3h-4.3h-47.9h-2.1l-0.7,2l-47.9,130.7l-1.5,4h4.3h48.2h2.1l0.7-2l47.6-130.7L2723,5.3L2723,5.3z"/>
			</g>
			<g>
				
					<linearGradient id="SVGID_00000041258357471351801780000012585479020166483610_" gradientUnits="userSpaceOnUse" x1="2458.5847" y1="138.9586" x2="2458.5847" y2="8.2307">
					<stop  offset="0" style="stop-color:#D6D5D5"/>
					<stop  offset="1" style="stop-color:#696666"/>
				</linearGradient>
				<path style="fill:url(#SVGID_00000041258357471351801780000012585479020166483610_);" d="M2346,12.8l-9.2,25.3
					c31.9-2.4,63.5-3.9,94.7-4.4L2393.2,139h48.2l38.3-105.3c30.9,0.5,61.4,2,91.5,4.4l9.2-25.3C2504.6,6.7,2426.2,6.7,2346,12.8z"
					/>
				
					<radialGradient id="SVGID_00000085970541894407002500000000486217461179417003_" cx="2458.4631" cy="73.5946" r="101.4129" gradientUnits="userSpaceOnUse">
					<stop  offset="0" style="stop-color:#D6D5D5"/>
					<stop  offset="1" style="stop-color:#696666"/>
				</radialGradient>
				<path style="fill:url(#SVGID_00000085970541894407002500000000486217461179417003_);" d="M2464.8,8.2c39.1,0,77.6,1.5,115.5,4.5
					l-9.2,25.3c-30.1-2.4-60.6-3.9-91.5-4.4L2441.3,139h-48.2l38.3-105.3c-31.2,0.5-62.8,2-94.7,4.4l9.2-25.3
					C2386.1,9.7,2425.7,8.2,2464.8,8.2 M2464.8,5.2c-39,0-79.1,1.5-119.1,4.5l-1.9,0.1l-0.7,1.8L2334,37l-1.6,4.4l4.6-0.4
					c30-2.3,60.3-3.7,90.2-4.3l-36.8,101.2l-1.5,4h4.3h48.2h2.1l0.7-2l37.6-103.3c30.1,0.5,60.1,2,89.2,4.3l2.3,0.2l0.8-2.1
					l9.2-25.3l1.3-3.7l-3.9-0.3C2542.8,6.8,2503.9,5.2,2464.8,5.2L2464.8,5.2z"/>
			</g>
			<g>
				
					<linearGradient id="SVGID_00000054946077151686336930000001380883392180471223_" gradientUnits="userSpaceOnUse" x1="1820.8866" y1="138.9586" x2="1820.8866" y2="8.2307">
					<stop  offset="0" style="stop-color:#D6D5D5"/>
					<stop  offset="1" style="stop-color:#696666"/>
				</linearGradient>
				<path style="fill:url(#SVGID_00000054946077151686336930000001380883392180471223_);" d="M1708.3,12.8l-9.2,25.3
					c31.9-2.4,63.5-3.9,94.7-4.4L1755.5,139h48.2L1842,33.7c30.9,0.5,61.4,2,91.5,4.4l9.2-25.3C1866.9,6.7,1788.5,6.7,1708.3,12.8z"
					/>
				
					<radialGradient id="SVGID_00000153669839666894263210000001569917135504982425_" cx="1820.765" cy="73.5946" r="101.4129" gradientUnits="userSpaceOnUse">
					<stop  offset="0" style="stop-color:#D6D5D5"/>
					<stop  offset="1" style="stop-color:#696666"/>
				</radialGradient>
				<path style="fill:url(#SVGID_00000153669839666894263210000001569917135504982425_);" d="M1827.1,8.2c39.1,0,77.6,1.5,115.5,4.5
					l-9.2,25.3c-30.1-2.4-60.6-3.9-91.5-4.4L1803.6,139h-48.2l38.3-105.3c-31.2,0.5-62.8,2-94.7,4.4l9.2-25.3
					C1748.4,9.7,1788,8.2,1827.1,8.2 M1827.1,5.2c-39,0-79.1,1.5-119.1,4.5l-1.9,0.1l-0.7,1.8l-9.2,25.3l-1.6,4.4l4.6-0.4
					c30-2.3,60.3-3.7,90.2-4.3l-36.8,101.2l-1.5,4h4.3h48.2h2.1l0.7-2L1844,36.7c30.1,0.5,60.1,2,89.2,4.3l2.3,0.2l0.8-2.1l9.2-25.3
					l1.3-3.7l-3.9-0.3C1905.1,6.8,1866.2,5.2,1827.1,5.2L1827.1,5.2z"/>
			</g>
			<g>
				
					<linearGradient id="SVGID_00000156554929210037117480000000114583437851328405_" gradientUnits="userSpaceOnUse" x1="3701.8164" y1="138.9586" x2="3701.8164" y2="8.2307">
					<stop  offset="0" style="stop-color:#D6D5D5"/>
					<stop  offset="1" style="stop-color:#696666"/>
				</linearGradient>
				<path style="fill:url(#SVGID_00000156554929210037117480000000114583437851328405_);" d="M3831.9,38.1l9.2-25.3
					c-75.8-6-154.2-6-234.4,0l-9.2,25.3c63.7-4.9,126.3-5.9,187.3-3l-9.1,25.1h-138.3l-9.2,25.2h138.3l-9.7,26.7
					c-63.1,2.9-124.9,1.9-185.1-3l-9.2,25.3c75.8,6,154.2,6,234.4,0l9.2-25.3c0,0,0,0,0,0L3831.9,38.1
					C3831.9,38.1,3831.9,38.1,3831.9,38.1z"/>
				
					<radialGradient id="SVGID_00000086686282684368548210000009699335298798931365_" cx="3701.8164" cy="73.5946" r="112.3924" gradientUnits="userSpaceOnUse">
					<stop  offset="0" style="stop-color:#D6D5D5"/>
					<stop  offset="1" style="stop-color:#696666"/>
				</radialGradient>
				<path style="fill:url(#SVGID_00000086686282684368548210000009699335298798931365_);" d="M3725.6,8.2c39.1,0,77.6,1.5,115.5,4.5
					l-9.2,25.3c0,0,0,0,0,0l-25.9,71.1c0,0,0,0,0,0l-9.2,25.3c-40.1,3-79.7,4.5-118.8,4.5s-77.6-1.5-115.5-4.5l9.2-25.3
					c37.8,3.1,76.3,4.6,115.3,4.6c23.1,0,46.3-0.5,69.8-1.6l9.7-26.7h-138.3l9.2-25.2h138.3l9.1-25.1c-22.7-1.1-45.5-1.6-68.6-1.6
					c-39,0-78.6,1.5-118.7,4.6l9.2-25.3C3646.9,9.7,3686.5,8.2,3725.6,8.2 M3725.6,5.2c-39,0-79.1,1.5-119.1,4.5l-1.9,0.1l-0.7,1.8
					l-9.2,25.3l-1.6,4.4l4.6-0.4c39.8-3,79.6-4.6,118.5-4.6c21.5,0,43.2,0.5,64.4,1.4l-7,19.3h-136.2h-2.1l-0.7,2l-9.2,25.2l-1.5,4
					h4.3h134l-7.6,20.8c-22.6,1-45.4,1.5-67.6,1.5c-38.8,0-77.6-1.5-115.1-4.6l-2.3-0.2l-0.8,2.1l-9.2,25.3l-1.3,3.7l3.9,0.3
					c37.8,3,76.8,4.5,115.8,4.5c39,0,79.1-1.5,119.1-4.5l1.9-0.1l0.7-1.8l9.2-25.3l25.9-71.1l9.2-25.3l1.3-3.7l-3.9-0.3
					C3803.6,6.8,3764.6,5.2,3725.6,5.2L3725.6,5.2z"/>
			</g>
			<g>
				
					<linearGradient id="SVGID_00000050643587078654888390000001113603066576144293_" gradientUnits="userSpaceOnUse" x1="462.7941" y1="138.9586" x2="462.7941" y2="8.2263">
					<stop  offset="0" style="stop-color:#D6D5D5"/>
					<stop  offset="1" style="stop-color:#696666"/>
				</linearGradient>
				<path style="fill:url(#SVGID_00000050643587078654888390000001113603066576144293_);" d="M397.3,112.1L435.1,8.2h-48.2
					l-42.7,117.3l0,0l-3.2,8.9c75.8,6,154.2,6,234.4,0l9.2-25.3C520.8,114,458.3,115,397.3,112.1z"/>
				
					<radialGradient id="SVGID_00000008840508638944513390000005555864023989999511_" cx="462.9159" cy="73.5924" r="101.4136" gradientUnits="userSpaceOnUse">
					<stop  offset="0" style="stop-color:#D6D5D5"/>
					<stop  offset="1" style="stop-color:#696666"/>
				</radialGradient>
				<path style="fill:url(#SVGID_00000008840508638944513390000005555864023989999511_);" d="M435.1,8.2l-37.8,103.9
					c22.7,1.1,45.5,1.6,68.6,1.6c39,0,78.6-1.5,118.7-4.6l-9.2,25.3c-40.1,3-79.7,4.5-118.8,4.5c-39.1,0-77.6-1.5-115.5-4.5l3.2-8.9
					L386.9,8.2H435.1 M439.4,5.2h-4.3h-48.2h-2.1l-0.7,2l-42.7,117.3l-3.2,8.9l-1.3,3.7l3.9,0.3c37.8,3,76.8,4.5,115.8,4.5
					c39,0,79.1-1.5,119.1-4.5l1.9-0.1l0.7-1.8l9.2-25.3l1.6-4.4l-4.6,0.4c-39.8,3-79.6,4.6-118.5,4.6c-21.5,0-43.2-0.5-64.4-1.4
					L437.9,9.3L439.4,5.2L439.4,5.2z"/>
			</g>
			<g>
				
					<linearGradient id="SVGID_00000082329072047359378480000015586231853057448117_" gradientUnits="userSpaceOnUse" x1="1474.8698" y1="138.9586" x2="1474.8698" y2="8.2307">
					<stop  offset="0" style="stop-color:#D6D5D5"/>
					<stop  offset="1" style="stop-color:#696666"/>
				</linearGradient>
				<path style="fill:url(#SVGID_00000082329072047359378480000015586231853057448117_);" d="M1379.8,12.8l-2.3,6.3l0,0l-24.2,66.4
					h18.8h29.3h138.1l-9.7,26.7c-63.1,2.9-124.9,1.9-185.1-3l-9.2,25.3c75.8,6,154.2,6,234.4,0l9.2-25.3h0l17.8-48.9h-12.4h-35.8
					h-138.1l9.1-25.1c63.1-2.9,124.9-1.9,185.1,3l9.2-25.3C1538.4,6.7,1460,6.7,1379.8,12.8z"/>
				
					<radialGradient id="SVGID_00000127755229520821294550000002063130466257757119_" cx="1474.8699" cy="73.5946" r="112.3924" gradientUnits="userSpaceOnUse">
					<stop  offset="0" style="stop-color:#D6D5D5"/>
					<stop  offset="1" style="stop-color:#696666"/>
				</radialGradient>
				<path style="fill:url(#SVGID_00000127755229520821294550000002063130466257757119_);" d="M1498.7,8.2c39.1,0,77.6,1.5,115.5,4.5
					l-9.2,25.3c-37.8-3.1-76.3-4.6-115.3-4.6c-23.1,0-46.3,0.5-69.8,1.6l-9.1,25.1h138.1h35.8h12.4l-17.8,48.9h0l-9.2,25.3
					c-40.1,3-79.7,4.5-118.8,4.5c-39.1,0-77.6-1.5-115.5-4.5l9.2-25.3c37.8,3.1,76.3,4.6,115.3,4.6c23.1,0,46.3-0.5,69.8-1.6
					l9.7-26.7h-138.1h-29.3h-18.8l24.2-66.4l2.3-6.3C1419.9,9.7,1459.6,8.2,1498.7,8.2 M1498.7,5.2c-39,0-79.1,1.5-119.1,4.5
					l-1.9,0.1l-0.7,1.8l-2.3,6.3l-24.2,66.4l-1.5,4h4.3h18.8h29.3h133.8l-7.6,20.8c-22.6,1-45.4,1.5-67.6,1.5
					c-38.8,0-77.6-1.5-115.1-4.6l-2.3-0.2l-0.8,2.1l-9.2,25.3l-1.3,3.7l3.9,0.3c37.8,3,76.8,4.5,115.8,4.5c39,0,79.1-1.5,119.1-4.5
					l1.9-0.1l0.7-1.8l9.2-25.3l17.8-48.9l1.5-4h-4.3h-12.4h-35.8H1415l7-19.2c22.6-1,45.4-1.5,67.6-1.5c38.8,0,77.6,1.5,115.1,4.6
					l2.3,0.2l0.8-2.1l9.2-25.3l1.3-3.7l-3.9-0.3C1576.6,6.8,1537.7,5.2,1498.7,5.2L1498.7,5.2z"/>
			</g>
			<g>
				
					<linearGradient id="SVGID_00000065056171471398429700000003089833477661250693_" gradientUnits="userSpaceOnUse" x1="1147.2523" y1="138.9586" x2="1147.2523" y2="8.2503">
					<stop  offset="0" style="stop-color:#D6D5D5"/>
					<stop  offset="1" style="stop-color:#696666"/>
				</linearGradient>
				<path style="fill:url(#SVGID_00000065056171471398429700000003089833477661250693_);" d="M1211.2,58.6
					c-15.2,0.7-30.4,1.2-45.5,1.4l5.6-15.3h-48.2l-5.6,15.3c-14.9-0.2-29.7-0.7-44.4-1.4l18.3-50.4h-48.2L1025,58.6l-8.1,22.3
					c30.1,2.4,60.7,3.8,91.5,4.3l-19.6,53.7h48.2l19.6-53.7c31.2-0.5,62.8-1.9,94.7-4.3l2.5-6.7h0l24-65.9h-48.2L1211.2,58.6z"/>
				
					<radialGradient id="SVGID_00000139284408961286917880000015223450085286358456_" cx="1147.3109" cy="73.6045" r="106.7666" gradientUnits="userSpaceOnUse">
					<stop  offset="0" style="stop-color:#D6D5D5"/>
					<stop  offset="1" style="stop-color:#696666"/>
				</radialGradient>
				<path style="fill:url(#SVGID_00000139284408961286917880000015223450085286358456_);" d="M1277.7,8.3l-24,65.9h0l-2.5,6.7
					c-31.9,2.4-63.4,3.8-94.7,4.3L1137,139h-48.2l19.6-53.7c-30.9-0.5-61.4-1.9-91.5-4.3l8.1-22.3l18.3-50.4h48.2l-18.3,50.4
					c14.7,0.7,29.5,1.2,44.4,1.4l5.6-15.3h48.2l-5.6,15.3c15.1-0.2,30.2-0.7,45.5-1.4l18.3-50.4H1277.7 M1281.9,5.3h-4.3h-48.2h-2.1
					l-0.7,2L1209,55.7c-13,0.6-26.1,1-39,1.2l4.1-11.2l1.5-4h-4.3h-48.2h-2.1l-0.7,2l-4.9,13.3c-12.8-0.2-25.6-0.6-38.1-1.2
					l16.9-46.5l1.5-4h-4.3h-48.2h-2.1l-0.7,2l-18.3,50.4l-8.1,22.3l-1.3,3.7l3.9,0.3c28.5,2.3,57.9,3.7,87.5,4.3l-18.1,49.8l-1.5,4
					h4.3h48.2h2.1l0.7-2l18.9-51.8c30.7-0.5,61.9-2,92.8-4.3l1.9-0.1l0.7-1.8l1.7-4.8l0.7-2l24-65.9L1281.9,5.3L1281.9,5.3z"/>
			</g>
			<g>
				
					<linearGradient id="SVGID_00000015345185132324827240000003815384408412897699_" gradientUnits="userSpaceOnUse" x1="2923.1394" y1="138.9586" x2="2923.1394" y2="8.2307">
					<stop  offset="0" style="stop-color:#D6D5D5"/>
					<stop  offset="1" style="stop-color:#696666"/>
				</linearGradient>
				<path style="fill:url(#SVGID_00000015345185132324827240000003815384408412897699_);" d="M2828.1,12.8l-2.3,6.3l0,0l-40,109.8h0
					l-2,5.6c75.8,6,154.2,6,234.4,0l9.2-25.3c0,0,0,0,0,0l25.9-71.1c0,0,0,0,0,0l9.2-25.3C2986.7,6.7,2908.3,6.7,2828.1,12.8z
					 M2978.1,112.1c-46.8,2.1-92.8,2.1-138.1,0l28-77.1c46.8-2.1,92.8-2.1,138.1,0L2978.1,112.1z"/>
				
					<radialGradient id="SVGID_00000028292400308512860890000014654474943046102940_" cx="2923.1394" cy="73.5946" r="112.3925" gradientUnits="userSpaceOnUse">
					<stop  offset="0" style="stop-color:#D6D5D5"/>
					<stop  offset="1" style="stop-color:#696666"/>
				</radialGradient>
				<path style="fill:url(#SVGID_00000028292400308512860890000014654474943046102940_);" d="M2946.9,8.2c39.1,0,77.6,1.5,115.5,4.5
					l-9.2,25.3c0,0,0,0,0,0l-25.9,71.1c0,0,0,0,0,0l-9.2,25.3c-40.1,3-79.7,4.5-118.8,4.5s-77.6-1.5-115.5-4.5l2-5.6h0l40-109.8
					l2.3-6.3C2868.2,9.7,2907.8,8.2,2946.9,8.2 M2908.5,113.7c23,0,46.2-0.5,69.6-1.6l28-77.1c-22.6-1.1-45.4-1.6-68.4-1.6
					c-23,0-46.2,0.5-69.6,1.6l-28,77.1C2862.7,113.2,2885.5,113.7,2908.5,113.7 M2946.9,5.2c-39,0-79.1,1.5-119.1,4.5l-1.9,0.1
					l-0.7,1.8L2823,18l-40,109.8l-2,5.6l-1.3,3.7l3.9,0.3c37.8,3,76.8,4.5,115.8,4.5c39,0,79.1-1.5,119.1-4.5l1.9-0.1l0.7-1.8
					l9.2-25.3l25.9-71.1l9.2-25.3l1.3-3.7l-3.9-0.3C3024.9,6.8,2985.9,5.2,2946.9,5.2L2946.9,5.2z M2870.3,38
					c22.6-1,45.3-1.5,67.5-1.5c21.5,0,43.1,0.5,64.2,1.4l-26,71.3c-22.6,1-45.3,1.5-67.5,1.5c-21.5,0-43.1-0.5-64.2-1.4L2870.3,38
					L2870.3,38z"/>
			</g>
			<g>
				
					<linearGradient id="SVGID_00000161615493797871203490000000468966742370934175_" gradientUnits="userSpaceOnUse" x1="3267.1836" y1="138.9586" x2="3267.1836" y2="3.0001">
					<stop  offset="0" style="stop-color:#D6D5D5"/>
					<stop  offset="1" style="stop-color:#696666"/>
				</linearGradient>
				<path style="fill:url(#SVGID_00000161615493797871203490000000468966742370934175_);" d="M3398.1,38.1l9.2-25.3
					C3347.1,8,3285.3,7,3222.2,9.8l2.5-6.8h-48.2L3127,139h48.2L3213,35.1c46.8-2.1,92.8-2.1,138.1,0L3313.2,139h48.2L3398.1,38.1
					C3398.1,38.1,3398.1,38.1,3398.1,38.1z"/>
				
					<radialGradient id="SVGID_00000024709407441306829700000014573997799025895588_" cx="3267.1248" cy="70.9793" r="113.7607" gradientUnits="userSpaceOnUse">
					<stop  offset="0" style="stop-color:#D6D5D5"/>
					<stop  offset="1" style="stop-color:#696666"/>
				</radialGradient>
				<path style="fill:url(#SVGID_00000024709407441306829700000014573997799025895588_);" d="M3224.7,3l-2.5,6.8
					c23.4-1,46.7-1.6,69.8-1.6c39,0,77.5,1.5,115.4,4.5l-9.2,25.3c0,0,0,0,0,0L3361.4,139h-48.2l37.8-103.9
					c-22.6-1.1-45.4-1.6-68.4-1.6c-23,0-46.2,0.5-69.6,1.6L3175.2,139H3127l49.5-136H3224.7 M3229,0h-4.3h-48.2h-2.1l-0.7,2
					l-49.5,136l-1.5,4h4.3h48.2h2.1l0.7-2l37.1-102c22.6-1,45.3-1.5,67.5-1.5c21.5,0,43.1,0.5,64.2,1.4l-36.4,100.1l-1.5,4h4.3h48.2
					h2.1l0.7-2l36-98.9l0,0l0.7-2l9.2-25.3l1.3-3.7l-3.9-0.3c-37.7-3-76.6-4.5-115.6-4.5c-21.5,0-43.5,0.5-65.4,1.4l0.9-2.6L3229,0
					L3229,0z"/>
			</g>
			<path class="st75" d="M3425.5,127c-0.1-0.4-0.1-1-0.1-1.7l-0.1-2.9c-0.1-1.4-0.3-2.5-0.9-3.1c-0.3-0.5-0.8-0.9-1.2-1.2
				c0.6-0.6,1.2-1.1,1.7-1.8c0.6-0.9,0.9-2.1,0.9-3.4c0-2.7-1.2-4.6-3.4-5.7c-1.2-0.5-2.6-0.8-4.3-0.8h-10.7v23h4.1V120h6.2
				c1.1,0,2,0.2,2.5,0.3c0.8,0.5,1.2,1.2,1.3,2.5l0.2,3.6c0.1,0.9,0.1,1.5,0.2,1.8l0.3,0.8l0.1,0.3h4.5V128l-0.3-0.1
				C3426,127.8,3425.7,127.5,3425.5,127z M3420.7,115.7c-0.7,0.5-1.7,0.7-3,0.7h-6.3V110h6.7c1,0,1.7,0.1,2.2,0.4
				c0.9,0.4,1.4,1.3,1.4,2.7C3421.7,114.4,3421.4,115.2,3420.7,115.7z"/>
			<path class="st75" d="M3416.1,97.7c-11.4,0-20.6,9.2-20.6,20.7c0,5.5,2.1,10.7,6,14.6c3.9,3.8,9.2,6,14.7,6
				c5.5,0,10.7-2.2,14.6-6c3.8-3.9,6-9.1,6-14.6c0-5.6-2.2-10.8-6-14.6C3426.8,99.9,3421.6,97.7,3416.1,97.7z M3416.1,135.5
				c-4.5,0-8.9-1.7-12.2-5c-3.2-3.2-5-7.5-5-12.1c0-4.7,1.8-9,5-12.2c3.3-3.2,7.7-5,12.2-5c4.6,0,8.9,1.8,12.1,5
				c3.3,3.2,5,7.5,5,12.2C3433.2,127.8,3425.5,135.5,3416.1,135.5z"/>
		</g>
	</g>
</g>
<g id="Conjoined">
	<g>
		<g>
			
				<linearGradient id="SVGID_00000003068914165515182920000002149836026277651899_" gradientUnits="userSpaceOnUse" x1="141.295" y1="138.9586" x2="141.295" y2="8.2263">
				<stop  offset="0" style="stop-color:#D6D5D5"/>
				<stop  offset="1" style="stop-color:#696666"/>
			</linearGradient>
			<path style="fill:url(#SVGID_00000003068914165515182920000002149836026277651899_);" d="M29.6,13.5c-2.4,8.4-4.8,16.8-7.2,25.2
				c5.6-0.4,11.1-0.8,16.7-1.2L2.1,139h48.2l20-55.1c60.3,2.8,122.1,1.8,185.1-2.9l1.4-3.9h0l7-19.1l0.8-2.3l0,0L275.4,26l0,0
				l5-13.8C199.1,6.5,115.3,6.9,29.6,13.5z M79.5,58.6l8.7-23.8C134.1,33,179.4,33,224,34.9l-8.6,23.7
				C169.4,60.7,124,60.7,79.5,58.6z"/>
			
				<radialGradient id="SVGID_00000165941243956166528070000003518191607054050235_" cx="141.2435" cy="73.5924" r="112.3239" gradientUnits="userSpaceOnUse">
				<stop  offset="0" style="stop-color:#D6D5D5"/>
				<stop  offset="1" style="stop-color:#696666"/>
			</radialGradient>
			<path style="fill:url(#SVGID_00000165941243956166528070000003518191607054050235_);" d="M165,8.2c39,0,77.5,1.3,115.5,4l-5,13.8
				l-10.8,29.6l-0.8,2.3l-7,19.1h0l-1.4,3.9c-39.7,3-78.9,4.5-117.5,4.5c-22.7,0-45.2-0.5-67.5-1.5l-20,55.1H2.1l37-101.5
				c-5.5,0.4-11.1,0.8-16.7,1.2c2.4-8.4,4.8-16.8,7.2-25.2C75.3,10,120.5,8.2,165,8.2 M146.9,60.2c22.6,0,45.5-0.5,68.5-1.6
				l8.6-23.7c-22.6-0.9-45.3-1.4-68.2-1.4c-22.4,0-44.9,0.4-67.6,1.3l-8.7,23.8C101.8,59.7,124.3,60.2,146.9,60.2 M165,5.2
				c-44.5,0-90.1,1.8-135.6,5.2l-2.1,0.2l-0.6,2c-1.2,4.3-2.4,8.5-3.7,12.8c-1.2,4.1-2.4,8.2-3.5,12.4l-1.2,4.1l4.3-0.3
				c3.9-0.3,7.9-0.6,12-0.9l-35.4,97.2l-1.5,4h4.3h48.2h2.1l0.7-2l19.3-53c21.6,1,43.6,1.4,65.5,1.4c38.6,0,78.2-1.5,117.8-4.5
				l1.9-0.1l0.7-1.8l1.4-3.9l7-19.1l0.8-2.3L278.2,27l5-13.8l1.4-3.7l-4-0.3C242.7,6.6,203.8,5.2,165,5.2L165,5.2z M90.3,37.7
				c21.9-0.8,43.9-1.3,65.5-1.3c21.4,0,42.9,0.4,64,1.2l-6.6,18c-22.2,1-44.5,1.5-66.4,1.5c-21.1,0-42.3-0.5-63.1-1.4L90.3,37.7
				L90.3,37.7z"/>
		</g>
		<g>
			
				<linearGradient id="SVGID_00000150822444619441264780000015497227479301711514_" gradientUnits="userSpaceOnUse" x1="798.736" y1="138.9586" x2="798.736" y2="8.2684">
				<stop  offset="0" style="stop-color:#D6D5D5"/>
				<stop  offset="1" style="stop-color:#696666"/>
			</linearGradient>
			<path style="fill:url(#SVGID_00000150822444619441264780000015497227479301711514_);" d="M709.7,12.6l-2.3,6.4l0,0l-15,41.2l0,0
				l-8.2,22.5L663.7,139h48.2l19.5-53.5h127.8L839.6,139h48.2L931.4,19h0l2.3-6.4C861.3,6.8,786.4,6.8,709.7,12.6z M740.5,60.2
				l9.2-25.3c43.3-1.9,85.9-1.9,127.8,0l-9.2,25.3H740.5z"/>
			
				<radialGradient id="SVGID_00000069386399061591034900000000477726552107480246_" cx="798.6771" cy="73.6135" r="109.6929" gradientUnits="userSpaceOnUse">
				<stop  offset="0" style="stop-color:#D6D5D5"/>
				<stop  offset="1" style="stop-color:#696666"/>
			</radialGradient>
			<path style="fill:url(#SVGID_00000069386399061591034900000000477726552107480246_);" d="M823.3,8.3c37.4,0,74.2,1.4,110.5,4.3
				l-2.3,6.4h0L887.8,139h-48.2l19.5-53.5H731.3L711.9,139h-48.2l20.5-56.2l8.2-22.5l15-41.2l2.3-6.4C748,9.7,785.9,8.3,823.3,8.3
				 M740.5,60.2h127.8l9.2-25.3c-20.9-1-42.1-1.4-63.4-1.4c-21.3,0-42.8,0.5-64.4,1.4L740.5,60.2 M823.3,5.3
				c-37.3,0-75.6,1.5-113.8,4.3l-1.9,0.1l-0.7,1.8l-2.3,6.4l-15,41.2l-8.2,22.5l-20.5,56.2l-1.5,4h4.3h48.2h2.1l0.7-2l18.8-51.5
				h121.4l-18,49.5l-1.5,4h4.3h48.2h2.1l0.7-2l43.6-119.9l2.3-6.4l1.3-3.7L934,9.6C897.9,6.7,860.6,5.3,823.3,5.3L823.3,5.3z
				 M751.8,37.9c20.8-0.9,41.8-1.3,62.3-1.3c19.8,0,39.7,0.4,59.1,1.2l-7.1,19.4H744.8L751.8,37.9L751.8,37.9z"/>
		</g>
		<g>
			
				<linearGradient id="SVGID_00000160157525882126816690000006111228510936901794_" gradientUnits="userSpaceOnUse" x1="2120.2302" y1="138.9586" x2="2120.2302" y2="8.2684">
				<stop  offset="0" style="stop-color:#D6D5D5"/>
				<stop  offset="1" style="stop-color:#696666"/>
			</linearGradient>
			<path style="fill:url(#SVGID_00000160157525882126816690000006111228510936901794_);" d="M2031.2,12.6l-2.3,6.4l0,0l-15,41.2l0,0
				l-8.2,22.5l-20.5,56.2h48.2l19.5-53.5h127.8l-19.5,53.5h48.2L2252.9,19h0l2.3-6.4C2182.8,6.8,2107.9,6.8,2031.2,12.6z M2062,60.2
				l9.2-25.3c43.3-1.9,85.9-1.9,127.8,0l-9.2,25.3H2062z"/>
			
				<radialGradient id="SVGID_00000030482626755382263450000011252518869038113929_" cx="2120.1716" cy="73.6135" r="109.6929" gradientUnits="userSpaceOnUse">
				<stop  offset="0" style="stop-color:#D6D5D5"/>
				<stop  offset="1" style="stop-color:#696666"/>
			</radialGradient>
			<path style="fill:url(#SVGID_00000030482626755382263450000011252518869038113929_);" d="M2144.8,8.3c37.4,0,74.2,1.4,110.5,4.3
				l-2.3,6.4h0L2209.3,139h-48.2l19.5-53.5h-127.8l-19.5,53.5h-48.2l20.5-56.2l8.2-22.5l15-41.2l2.3-6.4
				C2069.5,9.7,2107.4,8.3,2144.8,8.3 M2062,60.2h127.8l9.2-25.3c-20.9-1-42.1-1.4-63.4-1.4c-21.3,0-42.8,0.5-64.4,1.4L2062,60.2
				 M2144.8,5.3c-37.3,0-75.6,1.5-113.8,4.3l-1.9,0.1l-0.7,1.8L2026,18l-15,41.2l-8.2,22.5l-20.5,56.2l-1.5,4h4.3h48.2h2.1l0.7-2
				l18.8-51.5h121.4l-18,49.5l-1.5,4h4.3h48.2h2.1l0.7-2l43.7-119.9l2.3-6.4l1.3-3.7l-3.9-0.3C2219.4,6.7,2182.1,5.3,2144.8,5.3
				L2144.8,5.3z M2073.3,37.9c20.8-0.9,41.8-1.3,62.3-1.3c19.8,0,39.7,0.4,59.1,1.2l-7.1,19.4h-121.4L2073.3,37.9L2073.3,37.9z"/>
		</g>
		<g>
			
				<linearGradient id="SVGID_00000011032392037876060500000001668098976708928155_" gradientUnits="userSpaceOnUse" x1="2670.8909" y1="138.9586" x2="2670.8909" y2="8.2503">
				<stop  offset="0" style="stop-color:#D6D5D5"/>
				<stop  offset="1" style="stop-color:#696666"/>
			</linearGradient>
			<polygon style="fill:url(#SVGID_00000011032392037876060500000001668098976708928155_);" points="2623,139 2671.2,139 
				2718.8,8.3 2670.9,8.3 			"/>
			
				<radialGradient id="SVGID_00000032619937751140469740000008442445493221519288_" cx="2670.8862" cy="73.6045" r="60.7965" gradientUnits="userSpaceOnUse">
				<stop  offset="0" style="stop-color:#D6D5D5"/>
				<stop  offset="1" style="stop-color:#696666"/>
			</radialGradient>
			<path style="fill:url(#SVGID_00000032619937751140469740000008442445493221519288_);" d="M2718.8,8.3L2671.2,139H2623l47.9-130.7
				H2718.8 M2723,5.3h-4.3h-47.9h-2.1l-0.7,2l-47.9,130.7l-1.5,4h4.3h48.2h2.1l0.7-2l47.6-130.7L2723,5.3L2723,5.3z"/>
		</g>
		<g>
			
				<linearGradient id="SVGID_00000176732165940098533120000012756138662307346823_" gradientUnits="userSpaceOnUse" x1="2458.5847" y1="138.9586" x2="2458.5847" y2="8.2307">
				<stop  offset="0" style="stop-color:#D6D5D5"/>
				<stop  offset="1" style="stop-color:#696666"/>
			</linearGradient>
			<path style="fill:url(#SVGID_00000176732165940098533120000012756138662307346823_);" d="M2346,12.8l-9.2,25.3
				c31.9-2.4,63.5-3.9,94.7-4.4L2393.2,139h48.2l38.3-105.3c30.9,0.5,61.4,2,91.5,4.4l9.2-25.3C2504.6,6.7,2426.2,6.7,2346,12.8z"/>
			
				<radialGradient id="SVGID_00000165204812020494037070000007245815151211620255_" cx="2458.4631" cy="73.5946" r="101.4129" gradientUnits="userSpaceOnUse">
				<stop  offset="0" style="stop-color:#D6D5D5"/>
				<stop  offset="1" style="stop-color:#696666"/>
			</radialGradient>
			<path style="fill:url(#SVGID_00000165204812020494037070000007245815151211620255_);" d="M2464.8,8.2c39.1,0,77.6,1.5,115.5,4.5
				l-9.2,25.3c-30.1-2.4-60.6-3.9-91.5-4.4L2441.3,139h-48.2l38.3-105.3c-31.2,0.5-62.8,2-94.7,4.4l9.2-25.3
				C2386.1,9.7,2425.7,8.2,2464.8,8.2 M2464.8,5.2c-39,0-79.1,1.5-119.1,4.5l-1.9,0.1l-0.7,1.8L2334,37l-1.6,4.4l4.6-0.4
				c30-2.3,60.3-3.7,90.2-4.3l-36.8,101.2l-1.5,4h4.3h48.2h2.1l0.7-2l37.6-103.3c30.1,0.5,60.1,2,89.2,4.3l2.3,0.2l0.8-2.1l9.2-25.3
				l1.3-3.7l-3.9-0.3C2542.8,6.8,2503.9,5.2,2464.8,5.2L2464.8,5.2z"/>
		</g>
		<g>
			
				<linearGradient id="SVGID_00000085948321426346302800000003168404704946450054_" gradientUnits="userSpaceOnUse" x1="1820.8866" y1="138.9586" x2="1820.8866" y2="8.2307">
				<stop  offset="0" style="stop-color:#D6D5D5"/>
				<stop  offset="1" style="stop-color:#696666"/>
			</linearGradient>
			<path style="fill:url(#SVGID_00000085948321426346302800000003168404704946450054_);" d="M1708.3,12.8l-9.2,25.3
				c31.9-2.4,63.5-3.9,94.7-4.4L1755.5,139h48.2L1842,33.7c30.9,0.5,61.4,2,91.5,4.4l9.2-25.3C1866.9,6.7,1788.5,6.7,1708.3,12.8z"
				/>
			
				<radialGradient id="SVGID_00000005982146376379854670000006327404659669870727_" cx="1820.765" cy="73.5946" r="101.4129" gradientUnits="userSpaceOnUse">
				<stop  offset="0" style="stop-color:#D6D5D5"/>
				<stop  offset="1" style="stop-color:#696666"/>
			</radialGradient>
			<path style="fill:url(#SVGID_00000005982146376379854670000006327404659669870727_);" d="M1827.1,8.2c39.1,0,77.6,1.5,115.5,4.5
				l-9.2,25.3c-30.1-2.4-60.6-3.9-91.5-4.4L1803.6,139h-48.2l38.3-105.3c-31.2,0.5-62.8,2-94.7,4.4l9.2-25.3
				C1748.4,9.7,1788,8.2,1827.1,8.2 M1827.1,5.2c-39,0-79.1,1.5-119.1,4.5l-1.9,0.1l-0.7,1.8l-9.2,25.3l-1.6,4.4l4.6-0.4
				c30-2.3,60.3-3.7,90.2-4.3l-36.8,101.2l-1.5,4h4.3h48.2h2.1l0.7-2L1844,36.7c30.1,0.5,60.1,2,89.2,4.3l2.3,0.2l0.8-2.1l9.2-25.3
				l1.3-3.7l-3.9-0.3C1905.1,6.8,1866.2,5.2,1827.1,5.2L1827.1,5.2z"/>
		</g>
		<g>
			
				<linearGradient id="SVGID_00000140699490091001411550000005603457666733015484_" gradientUnits="userSpaceOnUse" x1="3701.8164" y1="138.9586" x2="3701.8164" y2="8.2307">
				<stop  offset="0" style="stop-color:#D6D5D5"/>
				<stop  offset="1" style="stop-color:#696666"/>
			</linearGradient>
			<path style="fill:url(#SVGID_00000140699490091001411550000005603457666733015484_);" d="M3831.9,38.1l9.2-25.3
				c-75.8-6-154.2-6-234.4,0l-9.2,25.3c63.7-4.9,126.3-5.9,187.3-3l-9.1,25.1h-138.3l-9.2,25.2h138.3l-9.7,26.7
				c-63.1,2.9-124.9,1.9-185.1-3l-9.2,25.3c75.8,6,154.2,6,234.4,0l9.2-25.3c0,0,0,0,0,0L3831.9,38.1
				C3831.9,38.1,3831.9,38.1,3831.9,38.1z"/>
			
				<radialGradient id="SVGID_00000003813454717418888040000006493608533198267784_" cx="3701.8164" cy="73.5946" r="112.3924" gradientUnits="userSpaceOnUse">
				<stop  offset="0" style="stop-color:#D6D5D5"/>
				<stop  offset="1" style="stop-color:#696666"/>
			</radialGradient>
			<path style="fill:url(#SVGID_00000003813454717418888040000006493608533198267784_);" d="M3725.6,8.2c39.1,0,77.6,1.5,115.5,4.5
				l-9.2,25.3c0,0,0,0,0,0l-25.9,71.1c0,0,0,0,0,0l-9.2,25.3c-40.1,3-79.7,4.5-118.8,4.5s-77.6-1.5-115.5-4.5l9.2-25.3
				c37.8,3.1,76.3,4.6,115.3,4.6c23.1,0,46.3-0.5,69.8-1.6l9.7-26.7h-138.3l9.2-25.2h138.3l9.1-25.1c-22.7-1.1-45.5-1.6-68.6-1.6
				c-39,0-78.6,1.5-118.7,4.6l9.2-25.3C3646.9,9.7,3686.5,8.2,3725.6,8.2 M3725.6,5.2c-39,0-79.1,1.5-119.1,4.5l-1.9,0.1l-0.7,1.8
				l-9.2,25.3l-1.6,4.4l4.6-0.4c39.8-3,79.6-4.6,118.5-4.6c21.5,0,43.2,0.5,64.4,1.4l-7,19.3h-136.2h-2.1l-0.7,2l-9.2,25.2l-1.5,4
				h4.3h134l-7.6,20.8c-22.6,1-45.4,1.5-67.6,1.5c-38.8,0-77.6-1.5-115.1-4.6l-2.3-0.2l-0.8,2.1l-9.2,25.3l-1.3,3.7l3.9,0.3
				c37.8,3,76.8,4.5,115.8,4.5c39,0,79.1-1.5,119.1-4.5l1.9-0.1l0.7-1.8l9.2-25.3l25.9-71.1l9.2-25.3l1.3-3.7l-3.9-0.3
				C3803.6,6.8,3764.6,5.2,3725.6,5.2L3725.6,5.2z"/>
		</g>
		<g>
			
				<linearGradient id="SVGID_00000124852761935646795530000010108405692540938372_" gradientUnits="userSpaceOnUse" x1="462.7941" y1="138.9586" x2="462.7941" y2="8.2263">
				<stop  offset="0" style="stop-color:#D6D5D5"/>
				<stop  offset="1" style="stop-color:#696666"/>
			</linearGradient>
			<path style="fill:url(#SVGID_00000124852761935646795530000010108405692540938372_);" d="M397.3,112.1L435.1,8.2h-48.2
				l-42.7,117.3l0,0l-3.2,8.9c75.8,6,154.2,6,234.4,0l9.2-25.3C520.8,114,458.3,115,397.3,112.1z"/>
			
				<radialGradient id="SVGID_00000110438193093703368770000016727555155406940080_" cx="462.9159" cy="73.5924" r="101.4136" gradientUnits="userSpaceOnUse">
				<stop  offset="0" style="stop-color:#D6D5D5"/>
				<stop  offset="1" style="stop-color:#696666"/>
			</radialGradient>
			<path style="fill:url(#SVGID_00000110438193093703368770000016727555155406940080_);" d="M435.1,8.2l-37.8,103.9
				c22.7,1.1,45.5,1.6,68.6,1.6c39,0,78.6-1.5,118.7-4.6l-9.2,25.3c-40.1,3-79.7,4.5-118.8,4.5c-39.1,0-77.6-1.5-115.5-4.5l3.2-8.9
				L386.9,8.2H435.1 M439.4,5.2h-4.3h-48.2h-2.1l-0.7,2l-42.7,117.3l-3.2,8.9l-1.3,3.7l3.9,0.3c37.8,3,76.8,4.5,115.8,4.5
				c39,0,79.1-1.5,119.1-4.5l1.9-0.1l0.7-1.8l9.2-25.3l1.6-4.4l-4.6,0.4c-39.8,3-79.6,4.6-118.5,4.6c-21.5,0-43.2-0.5-64.4-1.4
				L437.9,9.3L439.4,5.2L439.4,5.2z"/>
		</g>
		<g>
			
				<linearGradient id="SVGID_00000007428450052298476550000004594851939260625805_" gradientUnits="userSpaceOnUse" x1="1474.8698" y1="138.9586" x2="1474.8698" y2="8.2307">
				<stop  offset="0" style="stop-color:#D6D5D5"/>
				<stop  offset="1" style="stop-color:#696666"/>
			</linearGradient>
			<path style="fill:url(#SVGID_00000007428450052298476550000004594851939260625805_);" d="M1379.8,12.8l-2.3,6.3l0,0l-24.2,66.4
				h18.8h29.3h138.1l-9.7,26.7c-63.1,2.9-124.9,1.9-185.1-3l-9.2,25.3c75.8,6,154.2,6,234.4,0l9.2-25.3h0l17.8-48.9h-12.4h-35.8
				h-138.1l9.1-25.1c63.1-2.9,124.9-1.9,185.1,3l9.2-25.3C1538.4,6.7,1460,6.7,1379.8,12.8z"/>
			
				<radialGradient id="SVGID_00000051352864013649330960000000135563181467743166_" cx="1474.8699" cy="73.5946" r="112.3924" gradientUnits="userSpaceOnUse">
				<stop  offset="0" style="stop-color:#D6D5D5"/>
				<stop  offset="1" style="stop-color:#696666"/>
			</radialGradient>
			<path style="fill:url(#SVGID_00000051352864013649330960000000135563181467743166_);" d="M1498.7,8.2c39.1,0,77.6,1.5,115.5,4.5
				l-9.2,25.3c-37.8-3.1-76.3-4.6-115.3-4.6c-23.1,0-46.3,0.5-69.8,1.6l-9.1,25.1h138.1h35.8h12.4l-17.8,48.9h0l-9.2,25.3
				c-40.1,3-79.7,4.5-118.8,4.5c-39.1,0-77.6-1.5-115.5-4.5l9.2-25.3c37.8,3.1,76.3,4.6,115.3,4.6c23.1,0,46.3-0.5,69.8-1.6
				l9.7-26.7h-138.1h-29.3h-18.8l24.2-66.4l2.3-6.3C1419.9,9.7,1459.6,8.2,1498.7,8.2 M1498.7,5.2c-39,0-79.1,1.5-119.1,4.5
				l-1.9,0.1l-0.7,1.8l-2.3,6.3l-24.2,66.4l-1.5,4h4.3h18.8h29.3h133.8l-7.6,20.8c-22.6,1-45.4,1.5-67.6,1.5
				c-38.8,0-77.6-1.5-115.1-4.6l-2.3-0.2l-0.8,2.1l-9.2,25.3l-1.3,3.7l3.9,0.3c37.8,3,76.8,4.5,115.8,4.5c39,0,79.1-1.5,119.1-4.5
				l1.9-0.1l0.7-1.8l9.2-25.3l17.8-48.9l1.5-4h-4.3h-12.4h-35.8H1415l7-19.2c22.6-1,45.4-1.5,67.6-1.5c38.8,0,77.6,1.5,115.1,4.6
				l2.3,0.2l0.8-2.1l9.2-25.3l1.3-3.7l-3.9-0.3C1576.6,6.8,1537.7,5.2,1498.7,5.2L1498.7,5.2z"/>
		</g>
		<g>
			
				<linearGradient id="SVGID_00000028324255243328506240000015068930337123666612_" gradientUnits="userSpaceOnUse" x1="1147.2523" y1="138.9586" x2="1147.2523" y2="8.2503">
				<stop  offset="0" style="stop-color:#D6D5D5"/>
				<stop  offset="1" style="stop-color:#696666"/>
			</linearGradient>
			<path style="fill:url(#SVGID_00000028324255243328506240000015068930337123666612_);" d="M1211.2,58.6
				c-15.2,0.7-30.4,1.2-45.5,1.4l5.6-15.3h-48.2l-5.6,15.3c-14.9-0.2-29.7-0.7-44.4-1.4l18.3-50.4h-48.2L1025,58.6l-8.1,22.3
				c30.1,2.4,60.7,3.8,91.5,4.3l-19.6,53.7h48.2l19.6-53.7c31.2-0.5,62.8-1.9,94.7-4.3l2.5-6.7h0l24-65.9h-48.2L1211.2,58.6z"/>
			
				<radialGradient id="SVGID_00000154412443488904744330000006372583691834789544_" cx="1147.3109" cy="73.6045" r="106.7666" gradientUnits="userSpaceOnUse">
				<stop  offset="0" style="stop-color:#D6D5D5"/>
				<stop  offset="1" style="stop-color:#696666"/>
			</radialGradient>
			<path style="fill:url(#SVGID_00000154412443488904744330000006372583691834789544_);" d="M1277.7,8.3l-24,65.9h0l-2.5,6.7
				c-31.9,2.4-63.4,3.8-94.7,4.3L1137,139h-48.2l19.6-53.7c-30.9-0.5-61.4-1.9-91.5-4.3l8.1-22.3l18.3-50.4h48.2l-18.3,50.4
				c14.7,0.7,29.5,1.2,44.4,1.4l5.6-15.3h48.2l-5.6,15.3c15.1-0.2,30.2-0.7,45.5-1.4l18.3-50.4H1277.7 M1281.9,5.3h-4.3h-48.2h-2.1
				l-0.7,2L1209,55.7c-13,0.6-26.1,1-39,1.2l4.1-11.2l1.5-4h-4.3h-48.2h-2.1l-0.7,2l-4.9,13.3c-12.8-0.2-25.6-0.6-38.1-1.2
				l16.9-46.5l1.5-4h-4.3h-48.2h-2.1l-0.7,2l-18.3,50.4l-8.1,22.3l-1.3,3.7l3.9,0.3c28.5,2.3,57.9,3.7,87.5,4.3l-18.1,49.8l-1.5,4
				h4.3h48.2h2.1l0.7-2l18.9-51.8c30.7-0.5,61.9-2,92.8-4.3l1.9-0.1l0.7-1.8l1.7-4.8l0.7-2l24-65.9L1281.9,5.3L1281.9,5.3z"/>
		</g>
		<g>
			
				<linearGradient id="SVGID_00000057826425199270452340000016535741744255549071_" gradientUnits="userSpaceOnUse" x1="2923.1394" y1="138.9586" x2="2923.1394" y2="8.2307">
				<stop  offset="0" style="stop-color:#D6D5D5"/>
				<stop  offset="1" style="stop-color:#696666"/>
			</linearGradient>
			<path style="fill:url(#SVGID_00000057826425199270452340000016535741744255549071_);" d="M2828.1,12.8l-2.3,6.3l0,0l-40,109.8h0
				l-2,5.6c75.8,6,154.2,6,234.4,0l9.2-25.3c0,0,0,0,0,0l25.9-71.1c0,0,0,0,0,0l9.2-25.3C2986.7,6.7,2908.3,6.7,2828.1,12.8z
				 M2978.1,112.1c-46.8,2.1-92.8,2.1-138.1,0l28-77.1c46.8-2.1,92.8-2.1,138.1,0L2978.1,112.1z"/>
			
				<radialGradient id="SVGID_00000044150502527994120690000012204460179443378838_" cx="2923.1394" cy="73.5946" r="112.3925" gradientUnits="userSpaceOnUse">
				<stop  offset="0" style="stop-color:#D6D5D5"/>
				<stop  offset="1" style="stop-color:#696666"/>
			</radialGradient>
			<path style="fill:url(#SVGID_00000044150502527994120690000012204460179443378838_);" d="M2946.9,8.2c39.1,0,77.6,1.5,115.5,4.5
				l-9.2,25.3c0,0,0,0,0,0l-25.9,71.1c0,0,0,0,0,0l-9.2,25.3c-40.1,3-79.7,4.5-118.8,4.5s-77.6-1.5-115.5-4.5l2-5.6h0l40-109.8
				l2.3-6.3C2868.2,9.7,2907.8,8.2,2946.9,8.2 M2908.5,113.7c23,0,46.2-0.5,69.6-1.6l28-77.1c-22.6-1.1-45.4-1.6-68.4-1.6
				c-23,0-46.2,0.5-69.6,1.6l-28,77.1C2862.7,113.2,2885.5,113.7,2908.5,113.7 M2946.9,5.2c-39,0-79.1,1.5-119.1,4.5l-1.9,0.1
				l-0.7,1.8L2823,18l-40,109.8l-2,5.6l-1.3,3.7l3.9,0.3c37.8,3,76.8,4.5,115.8,4.5c39,0,79.1-1.5,119.1-4.5l1.9-0.1l0.7-1.8
				l9.2-25.3l25.9-71.1l9.2-25.3l1.3-3.7l-3.9-0.3C3024.9,6.8,2985.9,5.2,2946.9,5.2L2946.9,5.2z M2870.3,38
				c22.6-1,45.3-1.5,67.5-1.5c21.5,0,43.1,0.5,64.2,1.4l-26,71.3c-22.6,1-45.3,1.5-67.5,1.5c-21.5,0-43.1-0.5-64.2-1.4L2870.3,38
				L2870.3,38z"/>
		</g>
		<g>
			
				<linearGradient id="SVGID_00000002369710649129333000000013043234548711062667_" gradientUnits="userSpaceOnUse" x1="3267.1836" y1="138.9586" x2="3267.1836" y2="3.0001">
				<stop  offset="0" style="stop-color:#D6D5D5"/>
				<stop  offset="1" style="stop-color:#696666"/>
			</linearGradient>
			<path style="fill:url(#SVGID_00000002369710649129333000000013043234548711062667_);" d="M3398.1,38.1l9.2-25.3
				C3347.1,8,3285.3,7,3222.2,9.8l2.5-6.8h-48.2L3127,139h48.2L3213,35.1c46.8-2.1,92.8-2.1,138.1,0L3313.2,139h48.2L3398.1,38.1
				C3398.1,38.1,3398.1,38.1,3398.1,38.1z"/>
			
				<radialGradient id="SVGID_00000107583916043605043910000014879250602165257126_" cx="3267.1248" cy="70.9793" r="113.7607" gradientUnits="userSpaceOnUse">
				<stop  offset="0" style="stop-color:#D6D5D5"/>
				<stop  offset="1" style="stop-color:#696666"/>
			</radialGradient>
			<path style="fill:url(#SVGID_00000107583916043605043910000014879250602165257126_);" d="M3224.7,3l-2.5,6.8
				c23.4-1,46.7-1.6,69.8-1.6c39,0,77.5,1.5,115.4,4.5l-9.2,25.3c0,0,0,0,0,0L3361.4,139h-48.2l37.8-103.9
				c-22.6-1.1-45.4-1.6-68.4-1.6c-23,0-46.2,0.5-69.6,1.6L3175.2,139H3127l49.5-136H3224.7 M3229,0h-4.3h-48.2h-2.1l-0.7,2
				l-49.5,136l-1.5,4h4.3h48.2h2.1l0.7-2l37.1-102c22.6-1,45.3-1.5,67.5-1.5c21.5,0,43.1,0.5,64.2,1.4l-36.4,100.1l-1.5,4h4.3h48.2
				h2.1l0.7-2l36-98.9l0,0l0.7-2l9.2-25.3l1.3-3.7l-3.9-0.3c-37.7-3-76.6-4.5-115.6-4.5c-21.5,0-43.5,0.5-65.4,1.4l0.9-2.6L3229,0
				L3229,0z"/>
		</g>
		<path class="st75" d="M3425.5,127c-0.1-0.4-0.1-1-0.1-1.7l-0.1-2.9c-0.1-1.4-0.3-2.5-0.9-3.1c-0.3-0.5-0.8-0.9-1.2-1.2
			c0.6-0.6,1.2-1.1,1.7-1.8c0.6-0.9,0.9-2.1,0.9-3.4c0-2.7-1.2-4.6-3.4-5.7c-1.2-0.5-2.6-0.8-4.3-0.8h-10.7v23h4.1V120h6.2
			c1.1,0,2,0.2,2.5,0.3c0.8,0.5,1.2,1.2,1.3,2.5l0.2,3.6c0.1,0.9,0.1,1.5,0.2,1.8l0.3,0.8l0.1,0.3h4.5V128l-0.3-0.1
			C3426,127.8,3425.7,127.5,3425.5,127z M3420.7,115.7c-0.7,0.5-1.7,0.7-3,0.7h-6.3V110h6.7c1,0,1.7,0.1,2.2,0.4
			c0.9,0.4,1.4,1.3,1.4,2.7C3421.7,114.4,3421.4,115.2,3420.7,115.7z"/>
		<path class="st75" d="M3416.1,97.7c-11.4,0-20.6,9.2-20.6,20.7c0,5.5,2.1,10.7,6,14.6c3.9,3.8,9.2,6,14.7,6c5.5,0,10.7-2.2,14.6-6
			c3.8-3.9,6-9.1,6-14.6c0-5.6-2.2-10.8-6-14.6C3426.8,99.9,3421.6,97.7,3416.1,97.7z M3416.1,135.5c-4.5,0-8.9-1.7-12.2-5
			c-3.2-3.2-5-7.5-5-12.1c0-4.7,1.8-9,5-12.2c3.3-3.2,7.7-5,12.2-5c4.6,0,8.9,1.8,12.1,5c3.3,3.2,5,7.5,5,12.2
			C3433.2,127.8,3425.5,135.5,3416.1,135.5z"/>
	</g>
</g>
</svg>
