<?xml version="1.0" encoding="UTF-8" standalone="no"?>
<!-- Generator: Adobe Illustrator 26.0.3, SVG Export Plug-In . SVG Version: 6.00 Build 0)  -->

<svg
   version="1.1"
   id="Layer_1"
   x="0px"
   y="0px"
   viewBox="0 0 3839 1178.1"
   style="enable-background:new 0 0 3839 1178.1;"
   xml:space="preserve"
   sodipodi:docname="Sony PSP-09.svg"
   inkscape:version="1.2.2 (732a01da63, 2022-12-09)"
   xmlns:inkscape="http://www.inkscape.org/namespaces/inkscape"
   xmlns:sodipodi="http://sodipodi.sourceforge.net/DTD/sodipodi-0.dtd"
   xmlns:xlink="http://www.w3.org/1999/xlink"
   xmlns="http://www.w3.org/2000/svg"
   xmlns:svg="http://www.w3.org/2000/svg"><defs
   id="defs61"><linearGradient
     inkscape:collect="always"
     id="linearGradient925"><stop
       style="stop-color:#c2bcbc;stop-opacity:1;"
       offset="0"
       id="stop921" /><stop
       style="stop-color:#7e7e7d;stop-opacity:1;"
       offset="1"
       id="stop923" /></linearGradient><linearGradient
     inkscape:collect="always"
     xlink:href="#linearGradient925"
     id="linearGradient927"
     x1="1985.1506"
     y1="4.4465675"
     x2="1969.5195"
     y2="1170.5272"
     gradientUnits="userSpaceOnUse" /></defs><sodipodi:namedview
   id="namedview59"
   pagecolor="#ffffff"
   bordercolor="#111111"
   borderopacity="1"
   inkscape:showpageshadow="0"
   inkscape:pageopacity="0"
   inkscape:pagecheckerboard="1"
   inkscape:deskcolor="#d1d1d1"
   showgrid="false"
   inkscape:zoom="0.31987497"
   inkscape:cx="2160.2191"
   inkscape:cy="587.72964"
   inkscape:window-width="1920"
   inkscape:window-height="1009"
   inkscape:window-x="-8"
   inkscape:window-y="-8"
   inkscape:window-maximized="1"
   inkscape:current-layer="Layer_1" />
<style
   type="text/css"
   id="style2">
	.st0{fill:#FFFFFF;}
</style>
<g
   id="g56"
   style="fill:url(#linearGradient927);fill-opacity:1">
	<path
   class="st0"
   d="M632.5,1124.5V935.4h69.1c49.1,0,61.7,24.4,61.7,52.8c0,42.3-37.6,52.8-72.5,52.8h-40.4v83.5H632.5    M691.3,1025.8c33.3,0,54.1-6.8,54.1-38.9c0-23.6-15.2-36.3-48.9-36.3h-46.2v75.1H691.3z"
   id="path4"
   style="fill:url(#linearGradient927);fill-opacity:1" />
	<rect
   x="787.2"
   y="935.4"
   class="st0"
   width="15.8"
   height="189"
   id="rect6"
   style="fill:url(#linearGradient927);fill-opacity:1" />
	<path
   class="st0"
   d="M904.3,1045.2c5.8-0.5,15.5-2.1,20.8-4.5c5.2-2.4,5.7-9.5,5.7-14.2c0-16.1-9.4-27.6-33.9-27.6   c-21.8,0-36.8,7.1-39.6,30.7h-16c2.3-32,26.2-44.9,55.9-44.9c27.5,0,49.4,10.8,49.4,42.3v74.1c0,12.3,3.1,15.2,16.5,10.5v12.3   c-2.4,0.8-7.9,2.6-12.3,2.6c-2.6,0-4.7-0.3-7.1-0.8c-10.5-1.6-12.4-10.7-12.6-20.3c-13.1,14.7-31,22.6-50.7,22.6   c-23.9,0-45.4-12.9-45.4-39.1c0-22.8,15.7-36.7,47.5-40.9L904.3,1045.2 M930.8,1053.1c-13.4,5.5-27,6.6-40.7,7.6   c-23.9,1.8-38.4,10.5-38.4,28.9c0,16.6,14.4,24.4,29.4,24.4c24.9,0,49.6-12.1,49.6-39.7V1053.1z"
   id="path8"
   style="fill:url(#linearGradient927);fill-opacity:1" />
	<path
   class="st0"
   d="M985.4,1161.5c4.2,0.8,8.7,1.6,13.1,1.6c17.9,0,20.5-25.7,26.5-37.5l-52.8-137.1h17.6l43.6,116.8l43.6-116.8   h17.1l-50.7,134.2c-12.9,34.2-21.3,55.4-43,55.4c-5.5,0-10.8-0.8-15-1.9V1161.5"
   id="path10"
   style="fill:url(#linearGradient927);fill-opacity:1" />
	<path
   class="st0"
   d="M1131.4,1068.1c2.9,33.8,25.5,46.1,54.4,46.1c33.9,0,48-18.3,48-39.1c0-58.6-115.3-19.7-115.3-94.1   c0-26.3,21.8-50.7,64.1-50.7c42.5,0,63.8,25.7,63.6,56.5h-17.1c0-28.9-22.3-41.2-46.5-41.2c-36.2,0-49.4,22.3-46.2,41.8   c8.2,48.9,115.3,13.7,115.3,86.9c0,34.7-25.5,55.2-69.1,55.2c-39.4,0-68.5-20.5-68.5-61.4H1131.4"
   id="path12"
   style="fill:url(#linearGradient927);fill-opacity:1" />
	<path
   class="st0"
   d="M1333.8,1125c-3.6,0.8-10.5,3.1-18.1,3.1c-15.5,0-24.2-6.8-24.2-27v-99.6h-19.2v-13.1h19.2v-37.9h15.7v37.9   h25.5v13.1h-25.5v93.3c0,13.3,0.6,19.1,13.7,19.1c4.2,0,8.7-0.8,12.9-1.8V1125"
   id="path14"
   style="fill:url(#linearGradient927);fill-opacity:1" />
	<path
   class="st0"
   d="M1425.5,1045.2c5.8-0.5,15.5-2.1,20.7-4.5c5.2-2.4,5.8-9.5,5.8-14.2c0-16.1-9.5-27.6-33.9-27.6   c-21.8,0-36.8,7.1-39.7,30.7h-16c2.4-32,26.3-44.9,55.9-44.9c27.6,0,49.4,10.8,49.4,42.3v74.1c0,12.3,3.2,15.2,16.5,10.5v12.3   c-2.3,0.8-7.8,2.6-12.3,2.6c-2.6,0-4.7-0.2-7.1-0.8c-10.5-1.5-12.3-10.7-12.6-20.2c-13.1,14.7-31,22.6-50.7,22.6   c-23.9,0-45.5-12.9-45.5-39.1c0-22.8,15.7-36.7,47.6-40.9L1425.5,1045.2 M1452.1,1053.1c-13.4,5.5-27,6.6-40.7,7.6   c-23.9,1.9-38.3,10.5-38.3,28.9c0,16.6,14.4,24.4,29.4,24.4c24.9,0,49.6-12.1,49.6-39.7V1053.1z"
   id="path16"
   style="fill:url(#linearGradient927);fill-opacity:1" />
	<path
   class="st0"
   d="M1560.7,1125c-3.7,0.8-10.5,3.1-18.1,3.1c-15.5,0-24.2-6.8-24.2-27v-99.6h-19.1v-13.1h19.1v-37.9h15.8v37.9   h25.5v13.1h-25.5v93.3c0,13.3,0.5,19.1,13.6,19.1c4.2,0,8.7-0.8,12.9-1.8V1125"
   id="path18"
   style="fill:url(#linearGradient927);fill-opacity:1" />
	<path
   class="st0"
   d="M1591.5,935.4h17.3v23.4h-17.3V935.4z M1592.2,988.5h15.7v136h-15.7V988.5z"
   id="path20"
   style="fill:url(#linearGradient927);fill-opacity:1" />
	<path
   class="st0"
   d="M1637.9,1056.5c0-39.6,21-71.7,63-71.7c42.6,0,63,31.8,63,71.7c0,43.1-25,71.7-63,71.7   C1666.3,1127.7,1637.9,1104,1637.9,1056.5 M1700.9,999c-33.1,0-46.2,28.1-46.2,57.5c0,33.9,16,57.5,46.2,57.5   c33.1,0,46.2-28.4,46.2-57.5C1746.9,1024.5,1734.3,999,1700.9,999z"
   id="path22"
   style="fill:url(#linearGradient927);fill-opacity:1" />
	<path
   class="st0"
   d="M1802,1124.5h-15.7v-136h15.7v18.8c12.6-13.3,25-22.6,43.9-22.6c16.6,0,31.8,5.3,41.5,19.4   c6.6,9.7,6.9,20,6.9,31.3v89h-15.8v-88.8c0-24.4-10-36.7-35.2-36.7c-19.4,0-32.8,12.6-37.8,26.5c-3.2,8.7-3.4,16.3-3.4,25.7V1124.5   "
   id="path24"
   style="fill:url(#linearGradient927);fill-opacity:1" />
	<path
   class="st0"
   d="M2019.1,1124.5V935.4h69c49.1,0,61.7,24.4,61.7,52.8c0,42.3-37.5,52.8-72.5,52.8h-40.5v83.5H2019.1    M2077.9,1025.8c33.3,0,54.1-6.8,54.1-38.9c0-23.6-15.3-36.3-48.9-36.3h-46.2v75.1H2077.9z"
   id="path26"
   style="fill:url(#linearGradient927);fill-opacity:1" />
	<path
   class="st0"
   d="M2157.2,1056.5c0-39.6,21-71.7,63-71.7c42.6,0,63,31.8,63,71.7c0,43.1-25,71.7-63,71.7   C2185.6,1127.7,2157.2,1104,2157.2,1056.5 M2220.2,999c-33.1,0-46.2,28.1-46.2,57.5c0,33.9,16,57.5,46.2,57.5   c33.1,0,46.2-28.4,46.2-57.5C2266.2,1024.5,2253.6,999,2220.2,999z"
   id="path28"
   style="fill:url(#linearGradient927);fill-opacity:1" />
	<path
   class="st0"
   d="M2322.1,1124.5h-15.7v-136h15.7v25.4h0.5c8.7-21.8,21.5-29.2,44.4-29.2v17.1c-35.5-0.8-44.9,25.5-44.9,56   V1124.5"
   id="path30"
   style="fill:url(#linearGradient927);fill-opacity:1" />
	<path
   class="st0"
   d="M2455.2,1125c-3.7,0.8-10.5,3.1-18.1,3.1c-15.5,0-24.2-6.8-24.2-27v-99.6h-19.2v-13.1h19.2v-37.9h15.8v37.9   h25.4v13.1h-25.4v93.3c0,13.3,0.5,19.1,13.6,19.1c4.2,0,8.7-0.8,12.8-1.8V1125"
   id="path32"
   style="fill:url(#linearGradient927);fill-opacity:1" />
	<path
   class="st0"
   d="M2541.6,1045.2c5.8-0.5,15.5-2.1,20.7-4.5c5.3-2.4,5.8-9.5,5.8-14.2c0-16.1-9.4-27.6-33.9-27.6   c-21.8,0-36.8,7.1-39.6,30.7h-16c2.3-32,26.2-44.9,55.9-44.9c27.6,0,49.4,10.8,49.4,42.3v74.1c0,12.3,3.1,15.2,16.5,10.5v12.3   c-2.4,0.8-7.9,2.6-12.3,2.6c-2.7,0-4.8-0.2-7.1-0.8c-10.5-1.5-12.3-10.7-12.6-20.2c-13.1,14.7-31,22.6-50.7,22.6   c-23.9,0-45.4-12.9-45.4-39.1c0-22.8,15.7-36.7,47.5-40.9L2541.6,1045.2 M2568.1,1053.1c-13.4,5.5-27,6.6-40.7,7.6   c-23.9,1.9-38.3,10.5-38.3,28.9c0,16.6,14.4,24.4,29.4,24.4c25,0,49.6-12.1,49.6-39.7V1053.1z"
   id="path34"
   style="fill:url(#linearGradient927);fill-opacity:1" />
	<path
   class="st0"
   d="M2646.7,1124.5h-15.7V935.4h15.7v74.8c10-16.6,29.4-25.5,48.6-25.5c41.5,0,60.6,33.9,60.6,72   c0,40.2-17.6,71.4-61.4,71.4c-17.3,0-38.1-9.7-47.3-27.5h-0.5V1124.5 M2692.6,1114c26.5,0,46.2-19.1,46.5-53.3   c1.3-34.1-13.9-61.7-46.5-61.7c-28.6,0-45.9,26.3-45.9,57C2646.7,1088.8,2662.9,1114,2692.6,1114z"
   id="path36"
   style="fill:url(#linearGradient927);fill-opacity:1" />
	<rect
   x="2790.6"
   y="935.4"
   class="st0"
   width="15.7"
   height="189"
   id="rect38"
   style="fill:url(#linearGradient927);fill-opacity:1" />
	<path
   class="st0"
   d="M2854.9,1060.2c-0.3,29.4,15.5,53.8,45.7,53.8c20.4,0,36.5-11.3,41.2-31.2h17.6c-7.9,25.7-24.1,45.4-58.8,45.4   c-43.6,0-62.5-31-62.5-71.1c0-39.6,23.7-72.2,62.5-72.2c37.3,0,60.1,26.5,59.9,75.4H2854.9 M2943.6,1047.1   c0-26.6-14.7-48.1-43.1-48.1c-27.9,0-42.6,22.3-45.7,48.1H2943.6z"
   id="path40"
   style="fill:url(#linearGradient927);fill-opacity:1" />
	<polyline
   class="st0"
   points="2528.3,333.3 2528.3,622.2 2483.8,622.2 2483.8,288.9 3563.3,288.9 3563.3,44.5 2483.8,44.5    2483.8,0.1 3607.8,0.1 3607.8,333.3 2528.3,333.3  "
   id="polyline42"
   style="fill:url(#linearGradient927);fill-opacity:1" />
	<path
   class="st0"
   d="M1924.6,1086c0-8.5,3.3-16.5,9.4-22.5c6-6,14-9.4,22.5-9.4c8.5,0,16.5,3.3,22.6,9.4c5.9,6,9.4,14,9.4,22.5   c0,17.6-14.3,31.9-31.9,31.9c-8.5,0-16.5-3.3-22.5-9.3C1927.9,1102.6,1924.6,1094.6,1924.6,1086 M1956.5,1124.3   c10.2,0,19.8-3.9,27.1-11.2c7.2-7.2,11.2-16.9,11.2-27.1c0-10.2-4.1-19.8-11.2-27c-7.3-7.2-16.9-11.3-27.1-11.3   c-21.1,0-38.3,17.3-38.3,38.3c0,10.3,3.9,19.9,11.3,27.1C1936.6,1120.4,1946.2,1124.3,1956.5,1124.3"
   id="path44"
   style="fill:url(#linearGradient927);fill-opacity:1" />
	<path
   class="st0"
   d="M1966.9,1076.4c0,2.3-0.7,4-1.9,4.9c-1.4,0.9-3.3,1.3-5.6,1.3h-11.9v-12h12.7c1.6,0,3,0.3,4.1,0.8   C1966,1072.2,1966.9,1073.9,1966.9,1076.4 M1975.3,1103.9c-0.5-0.3-1-0.9-1.2-1.9c-0.1-0.8-0.3-1.8-0.4-3.2l-0.1-5.4   c0-2.7-0.6-4.6-1.5-5.7c-0.6-0.8-1.6-1.4-2.6-2.1c1.3-0.8,2.5-1.9,3.3-3.1c1-1.6,1.6-3.8,1.6-6.5c0-5.1-2.2-8.6-6.2-10.4   c-2.2-1-4.9-1.5-8.1-1.5h-19.9v42.6h7.4v-17.4h11.6c2.2,0,3.7,0.3,4.7,0.7c1.5,0.7,2.3,2.2,2.4,4.5l0.3,6.8   c0.1,1.6,0.2,2.7,0.4,3.3c0.1,0.7,0.2,1.2,0.5,1.6l0.3,0.5h8.3v-2.5L1975.3,1103.9"
   id="path46"
   style="fill:url(#linearGradient927);fill-opacity:1" />
	<polyline
   class="st0"
   points="0,0 1124.2,0 1124.2,333.3 44.5,333.3 44.5,622.2 0,622.2 0,288.9 1079.7,288.9 1079.7,44.4 0,44.4    0,0  "
   id="polyline48"
   style="fill:url(#linearGradient927);fill-opacity:1" />
	<polyline
   class="st0"
   points="1697.6,0 1697.6,577.8 1124.2,577.8 1124.2,622.2 1744.3,622.2 1744.3,44.4 2317.7,44.4 2317.7,0    1697.6,0  "
   id="polyline50"
   style="fill:url(#linearGradient927);fill-opacity:1" />
	<polyline
   class="st0"
   points="3726.1,556.6 3701.6,556.6 3701.6,548.2 3759.9,548.2 3759.9,556.6 3735.6,556.6 3735.6,622.4    3726.1,622.4 3726.1,556.6  "
   id="polyline52"
   style="fill:url(#linearGradient927);fill-opacity:1" />
	<polyline
   class="st0"
   points="3799.2,622.4 3779.1,562.1 3779.1,622.4 3769.3,622.4 3769.3,548.2 3782.8,548.2 3804.2,611.3    3825.5,548.2 3839,548.2 3839,622.4 3829.3,622.4 3829.3,562.1 3809,622.4 3799.2,622.4  "
   id="polyline54"
   style="fill:url(#linearGradient927);fill-opacity:1" />
</g>
</svg>
