<?xml version="1.0" encoding="utf-8"?>
<!-- Generator: Adobe Illustrator 26.0.3, SVG Export Plug-In . SVG Version: 6.00 Build 0)  -->
<svg version="1.1" id="Layer_1" xmlns="http://www.w3.org/2000/svg" xmlns:xlink="http://www.w3.org/1999/xlink" x="0px" y="0px"
	 viewBox="0 0 3839 752.5" style="enable-background:new 0 0 3839 752.5;" xml:space="preserve">
<style type="text/css">
	.st0{fill:#FFFFFF;}
	.st1{fill-rule:evenodd;clip-rule:evenodd;fill:#FFFFFF;}
	.st2{fill-rule:evenodd;clip-rule:evenodd;}
	.st3{fill:#00AD9C;}
	.st4{fill:#FBB817;}
	.st5{fill:#0174BA;}
	.st6{fill:#EB2027;}
</style>
<g>
	<g>
		<path d="M1252,219.4v385.3h60.1V256.4h55.7c0,0,40.4,0,54.3,18.1c11.7,15.3,14,43.2,14,62c0,20.2-1.3,51.2-8.1,62.7
			c-10.3,17.3-27.2,20.8-42.6,20.8h-36.6v34.1h52.8c0,0,47.7,2.1,68.3-18.8c25-25.6,31.5-59.9,31.5-105.9
			c0-41.9-15.2-83.9-46.2-98.2c-25.7-11.9-71.9-11.9-71.9-11.9H1252z"/>
		<rect x="1548.6" y="219.4" width="60.2" height="385.3"/>
		<polygon points="1928.7,309.3 2038.8,597.8 1975.7,752.5 2025.6,752.5 2207.5,309.3 2151.7,309.3 2072.5,525.3 1998.8,309.3 		"/>
		<path d="M2252.8,602.5v-36.4c0,0,63.6,2.5,76.8,2.5c29.4,0,44-6.3,55-18.1c6.6-7,12.4-38.6,12.4-49.8c0-11.1-2.1-35.3-6.6-45.1
			c-4.4-9.8-14.6-18.8-30-20.1c-11-0.9-27.9-3.1-47.7-4.1c-27.8-1.3-46.1-15.8-54.9-26.2c-8.8-10.5-20.6-26.2-20.6-74.2
			c0-48.2,12.5-75.1,25-87.7c12.5-12.5,30.8-18.1,44.8-20.6c16.1-2.7,42.5-2.9,42.5-2.9l84.1,2.5v36.4c0,0-61.3-2.4-74.5-2.4
			c-29.4,0-38.2,6.3-49.3,18.1c-6.5,7-11.5,26.4-11.5,37.6c0,11.2,1.3,33.7,5.7,43.5c4.4,9.8,14.7,18.8,30.1,20.1
			c11,0.9,27.8,3.1,47.6,4.1c27.8,1.3,46.2,15.8,55,26.2c8.8,10.5,20.6,32.4,20.6,80.5c0,48.1-12.5,82.5-25,95.1
			c-12.5,12.5-30.7,18.1-44.7,20.5c-16.1,2.8-42.6,3-42.6,3L2252.8,602.5z"/>
		<path d="M2581,256.4h-60.1v282.9c0,0,1.4,25.8,2.9,34.8c1.5,9.1,14.6,30.7,49.2,30.7l62.3-1.2v-36.4c0,0-16.9,1.3-27.1,1.3
			c-10.3,0-22.8-0.7-25-18.1c-2.2-17.4-2.2-38.2-2.2-38.2V345.5h67.8v-36.2H2581V256.4z"/>
		<rect x="3161.4" y="309.3" width="60.2" height="295.4"/>
		<rect x="3161.4" y="219.4" width="60.2" height="53.6"/>
		<path d="M3411.6,306.8c40.9,0,72.5,9.2,89.7,23c17.2,13.8,38.3,42.9,38.3,127.3c0,84.3-21.2,113.5-38.3,127.2
			c-17.1,13.9-48.8,23-89.7,23c-41,0-72.6-9.2-89.9-23c-17.1-13.8-38.3-42.9-38.3-127.2c0-84.3,21.2-113.5,38.3-127.3
			C3339,316,3370.6,306.8,3411.6,306.8 M3370.2,363.5c-8.2,10.1-18.3,31.5-18.3,93.5c0,61.9,10.1,83.4,18.3,93.5
			c8.3,10.2,23.5,17,43.2,17c19.6,0,34.8-6.7,43.1-17c8.3-10.1,18.4-31.6,18.4-93.5c0-62-10.1-83.4-18.4-93.5
			c-8.3-10.2-23.4-16.9-43.1-16.9C3393.7,346.6,3378.5,353.3,3370.2,363.5"/>
		<path d="M3664.2,350.8l59-2.5c15.3,0,33.5,4.2,42.3,15.3c8.3,10.5,13.4,23,13.4,43.2v197.6h60.1V402c0-38.3-11.7-60.6-29.3-74.5
			c-25.3-20-70.4-18.1-70.4-18.1l-134.8,2.4v292.7h59.6V350.8z"/>
		<path d="M3041.6,256.4h-60.2v282.9c0,0,1.6,25.8,3,34.8c1.4,9.1,14.7,30.7,49.1,30.7l62.3-1.2v-36.4c0,0-16.8,1.3-27.1,1.3
			c-10.3,0-22.7-0.7-24.9-18.1c-2.3-17.4-2.3-38.2-2.3-38.2V345.5h67.8v-36.2h-67.8V256.4z"/>
		<path d="M1837,406.9c0-20.2-5.1-32.8-13.3-43.2c-8.8-11.1-27-15.3-42.4-15.3l-79.3,2.5v-39.1l95.5-2.4c0,0,45.2-1.9,70.4,18.1
			c17.6,14,29.3,36.2,29.3,74.5v199.6l-115.2,2.5c0,0-52.3,0.2-78.5-10.5c-25.8-10.5-39.6-39.1-39.6-78.7
			c0-38.3,11.7-60.6,29.2-74.6c25.3-20,70.4-18.1,70.4-18.1h36.8v34.2h-20.5c-15.4,0-31.5,2.8-40.3,13.9
			c-8.2,10.5-12.7,19.5-12.7,39.7c0,26.5,5.2,38.3,17.6,47.4c11,8,30.8,9.8,52.8,9.8l39.7-2.5V406.9z"/>
		<path d="M2851.2,406.9c0-20.2-5.2-32.8-13.5-43.2c-8.8-11.1-26.9-15.3-42.3-15.3l-79.3,2.5v-39.1l95.5-2.4c0,0,45.1-1.9,70.4,18.1
			c17.6,14,29.4,36.2,29.4,74.5v199.6l-115.2,2.5c0,0-52.3,0.2-78.5-10.5c-25.7-10.5-39.7-39.1-39.7-78.7
			c0-38.3,11.8-60.6,29.4-74.6c25.2-20,70.4-18.1,70.4-18.1h36.7v34.2h-20.6c-15.4,0-31.3,2.8-40.1,13.9
			c-8.2,10.5-12.6,19.5-12.6,39.7c0,26.5,5.1,38.3,17.6,47.4c11,8,30.8,9.8,52.8,9.8l39.8-2.5V406.9z"/>
	</g>
	<g>
		<path class="st3" d="M435.6,479.2l-141.7-41.6c0,0-174,62.2-187.8,66.9c-13.8,4.7-32.9,12.2-32.9,12.2l136.1,43.7L435.6,479.2"/>
		<path class="st3" d="M433,632.2l-138-44.3L525,505.6l146.2,43c0,0-192.2,68-203.9,72.2C455.6,625,433,632.2,433,632.2"/>
		<path class="st3" d="M900.5,615.9l-140.1-41.2L521,660.4L656,703.8c0,0,208.3-74.8,218.5-78.3
			C884.8,621.9,900.5,615.9,900.5,615.9"/>
		<polyline class="st4" points="656,703.8 522.5,751.9 386.5,708.5 521,660.4 656,703.8 		"/>
		<path class="st4" d="M295,587.9l138,44.3C278.9,683,163.5,664.6,92.5,645c-71-19.6-90.6-40.4-92.5-65.6
			c-1.9-25.2,36.7-47.6,73.1-62.7l136.1,43.7l-34.5,12.3c-15.2,5.1-45.8,20.3-20.3,32.2c27.2,12.7,78.5,6.1,106.2-4.4L295,587.9"/>
		<polyline class="st5" points="435.6,479.2 293.8,437.6 366,412.1 506.2,454.1 435.6,479.2 		"/>
		<path class="st5" d="M671.2,548.5l-146.2-43c66.8-25.6,119.3-39.1,195-41.5c83.6-2.6,147.7,17.4,169.8,24.3
			c46.5,14.5,81.5,33.6,84.5,59.3c4,33.7-45.3,58-73.8,68.2l-140.1-41.2c0,0,34.3-12.1,47.9-16.8c13.5-4.7,27.6-14,24.7-22.4
			c-2.8-8.4-19.6-12.3-23.8-12.8c-8.4-1.2-23.2-3.2-48.6-0.9c-20.8,1.9-36,7.7-36,7.7L671.2,548.5"/>
		<path class="st6" d="M363.7,0v701.9l158.9,50V163.6c0-27.6,12.3-46,32.2-39.7c25.9,7.2,31,32.6,31,60.2v235.2
			c99,47.8,176.9-0.1,176.9-126.2c0-129.5-45.6-187-180.1-233.1C529.6,42.1,431.2,12.5,363.7,0"/>
	</g>
</g>
</svg>
