<?xml version="1.0" encoding="utf-8"?>
<!-- Generator: Adobe Illustrator 26.0.3, SVG Export Plug-In . SVG Version: 6.00 Build 0)  -->
<svg version="1.1" id="Layer_1" xmlns="http://www.w3.org/2000/svg" xmlns:xlink="http://www.w3.org/1999/xlink" x="0px" y="0px"
	 viewBox="0 0 3839 708.3" style="enable-background:new 0 0 3839 708.3;" xml:space="preserve">
<style type="text/css">
	.st0{fill:#FFFFFF;}
	.st1{fill:#FCDA00;}
	.st2{fill:#73B744;}
	.st3{fill:#2AA4DD;}
	.st4{fill:#ED2224;}
	.st5{fill:#E31E26;}
	.st6{display:none;}
	.st7{display:inline;}
</style>
<g>
	<g>
		<g>
			<g>
				<path class="st0" d="M586.4,468.9c-2.7-15-6.4-30.1-11.1-45.3c6.4-7.1,10.1-16.5,10.1-26.2v-21.9c0-3.5-0.5-6.9-1.4-10.3
					c-3-11-7-22.8-11.8-35.1c0.1-0.1,0.2-0.2,0.3-0.3c8.2-7.4,12.9-17.9,12.9-29v-32.9c0-3.8-0.6-7.6-1.7-11.2
					c-3.1-10.4-7-21.6-11.6-33.2c0.1-0.1,0.2-0.2,0.4-0.3c8.2-7.4,12.9-17.9,12.9-29V39c0-21.5-17.5-39-39-39h-75.2
					c-12.5,0-24.1,5.9-31.3,15.8c-2-1.9-3.9-3.8-5.9-5.6C426.8,3.6,417.4,0,407.7,0h-47.1c-13.2,0-25.2,6.6-32.3,17.1
					c-5.3-3.7-10.7-7.4-16.3-10.9C305.7,2.1,298.4,0,290.9,0L180.7,0c-19.5,0-35.7,14-38.5,33.3c-2.4,16.2,5.4,31.6,19,39.4
					c-40.1,1.8-75.6,15-103,38.6c-25.6,22-43.1,51.4-51.9,87.4c-7.9,32.5-8.3,68.9-1.3,108.4c8.4,47.2,27.2,96.1,54.5,143.3
					c-7,3.5-13,8.8-17.3,15.4c-7.9,12.4-9,27.8-2.8,41.3C59.7,551.7,68,572,68,594.2c0,5.6,0,20.4-33.7,32.6
					c-18.4,6.6-29.4,25.5-26,44.8c3.4,19.3,20,33.3,39.6,33.3h260.4c12.5,0,24-5.5,31.7-14.5c27.6,8.6,54.8,13.2,80.6,13.2
					c44.1,0,83-13.4,112.6-38.8c25.6-22,43.1-51.4,51.9-87.4C593,544.9,593.5,508.4,586.4,468.9z"/>
				<g>
					<ellipse transform="matrix(0.7588 -0.6514 0.6514 0.7588 -181.4201 286.2291)" cx="295.7" cy="388" rx="193.8" ry="329"/>
					<g>
						<path d="M290.9,35.8l-110.2,0c-3.7,0-4.5,5.2-0.9,6.3c194.4,58.7,316,232.9,363.6,356.5c1.3,3.3,6.2,2.4,6.2-1.1l0-21.9
							c0-0.3,0-0.6-0.1-0.9c-24-88.2-124.7-253.5-256.9-338.4C292.1,35.9,291.5,35.8,290.9,35.8z"/>
						<path d="M407.7,35.8h-47.1c-3.1,0-4.4,3.9-2,5.7c87.8,67.9,157.9,185,184.9,260.5c1.2,3.4,6.2,2.5,6.2-1.1l0-32.9
							c0-0.3,0-0.6-0.1-0.9c-18.6-62-73.6-170.1-139.7-230.5C409.3,36.1,408.5,35.8,407.7,35.8z"/>
						<path d="M546.5,35.8h-75.2c-2.6,0-4.1,2.9-2.6,5.1c29.7,42.4,58,107.3,74.8,154.7c1.2,3.4,6.2,2.5,6.2-1.1l0-155.4
							C549.7,37.2,548.2,35.8,546.5,35.8z"/>
					</g>
					<path d="M48,669.1h260.4c6.9,0,8.6-9.5,2.2-11.9c-65.3-24.8-156.4-85.9-226-172.8c-5.5-6.9-16.4-0.2-12.7,7.9
						c21.1,46,31.9,71.7,31.9,102c0,36.7-29.2,56.1-57.3,66.2C41.7,662.1,42.9,669.1,48,669.1z"/>
				</g>
			</g>
			
				<ellipse transform="matrix(0.9821 -0.1885 0.1885 0.9821 -85.384 85.1996)" class="st1" cx="405.2" cy="491.5" rx="76.5" ry="56.5"/>
			
				<ellipse transform="matrix(0.9821 -0.1885 0.1885 0.9821 -82.4586 50.9873)" class="st2" cx="226.8" cy="459" rx="76.5" ry="56.5"/>
			<path class="st3" d="M165.3,343.5c-12.7-8.8-56.7-110.8,23.2-108.8c108.5,2.7,148.3,165,95.4,168.5c0,0-16.8-38.5-64.2-56.2
				C182.6,333.2,165.3,343.5,165.3,343.5z"/>
			<path class="st4" d="M343.4,376.9c-12.7-8.8-56.7-110.8,23.2-108.8c108.5,2.7,148.3,165,95.4,168.5c0,0-16.8-38.5-64.2-56.2
				C360.7,366.6,343.4,376.9,343.4,376.9z"/>
		</g>
	</g>
	<g>
		<g>
			<g>
				<g>
					<g>
						<g>
							<g>
								<path class="st0" d="M1311.1,537v-11c0-5.7-4.6-10.3-10.3-10.3h-21.2H1120v-63.7h196.9c47,0,85.1,38.1,85.1,85.1v82.6
									c0,47-38.1,85.1-85.1,85.1h-128c-27.4,0-48.6-5.4-63.8-16.2c-15.1-10.8-22.7-25.9-22.7-45.1v-20.8
									c0-17.7,11.8-33.1,28.9-37.6L1311.1,537L1311.1,537z M1179.9,632.4v11.1l0,0h115.6c8.6,0,15.7-7,15.7-15.7V599l0,0
									L1179.9,632.4L1179.9,632.4z"/>
							</g>
						</g>
						<g>
							<g>
								<path class="st0" d="M2362.9,537v-11c0-5.7-4.6-10.3-10.3-10.3h-21.1h-159.6v-63.7h196.9c47,0,85.1,38.1,85.1,85.1v82.6
									c0,47-38.1,85.1-85.1,85.1h-128c-27.4,0-48.6-5.4-63.8-16.2c-15.1-10.8-22.7-25.9-22.7-45.1v-20.8
									c0-17.7,11.8-33.1,28.9-37.6L2362.9,537L2362.9,537z M2231.7,632.4v11.1l0,0h115.6c8.6,0,15.7-7,15.7-15.7V599l0,0
									L2231.7,632.4L2231.7,632.4z"/>
							</g>
						</g>
						<g>
							<g>
								<path class="st0" d="M1690.1,619.8v11c0,5.7,4.6,10.3,10.3,10.3h21.1h159.6v63.7h-196.9c-47,0-85.1-38.1-85.1-85.1v-82.6
									c0-47,38.1-85.1,85.1-85.1h128c27.4,0,48.6,5.4,63.8,16.2c15.1,10.8,22.7,25.9,22.7,45.1v20.8c0,17.7-11.8,33.1-28.9,37.6
									L1690.1,619.8L1690.1,619.8z M1821.3,524.4v-11.1l0,0h-115.6c-8.6,0-15.7,7-15.7,15.7v28.8l0,0L1821.3,524.4L1821.3,524.4z"
									/>
							</g>
						</g>
						<g>
							<g>
								<path class="st0" d="M3044.6,619.8v11c0,5.7,4.6,10.3,10.3,10.3h21.1h159.6v63.7h-196.9c-47,0-85.1-38.1-85.1-85.1v-82.6
									c0-47,38.1-85.1,85.1-85.1h128c27.4,0,48.6,5.4,63.8,16.2c15.1,10.8,22.7,25.9,22.7,45.1v20.8c0,17.7-11.8,33.1-28.9,37.6
									L3044.6,619.8L3044.6,619.8z M3175.8,524.4v-11.1l0,0h-115.6c-8.6,0-15.7,7-15.7,15.7v28.8l0,0L3175.8,524.4L3175.8,524.4z"
									/>
							</g>
						</g>
						<g>
							<g>
								<path class="st0" d="M1924.4,347.5h90.8v357.2h-90.8V347.5z"/>
							</g>
						</g>
						<g>
							<g>
								<path class="st0" d="M2038.7,347.5h90.8v357.2h-90.8V347.5z"/>
							</g>
						</g>
						<g>
							<g>
								<path class="st0" d="M2544.5,452l87.9,171.4l90.1-171.4h93l-121,229.1c-4.4,8.5-12,15.1-23.1,20
									c-11.1,4.8-23.6,7.3-37.5,7.3c-14,0-26.5-2.5-37.9-7.3c-11.3-4.8-19.1-11.5-23.4-20l-121.1-229L2544.5,452L2544.5,452z"/>
							</g>
						</g>
						<path class="st0" d="M3746,452l-87.9,171.4L3592.6,452h-93l-65.5,171.4L3346.2,452h-93l121.1,229c4.4,8.5,12.2,15.1,23.4,20
							c11.3,4.8,23.9,7.3,37.9,7.3c13.9,0,26.4-2.5,37.5-7.3c11.1-4.8,18.7-11.5,23.1-20l50-118.6l50,118.6c4.4,8.5,12,15.1,23.1,20
							c11,4.8,23.5,7.3,37.5,7.3c14,0,26.6-2.5,37.9-7.3c11.3-4.8,19.1-11.5,23.4-20L3839,452H3746z"/>
						<g>
							<rect x="2839.2" y="452" class="st0" width="90.8" height="252.7"/>
						</g>
						<g>
							<path class="st0" d="M1588.7,515.7v-63.7h-47.6v-94.6h-90.7v94.6h-34.5v63.7h34.5v155.6c0,18.5,15,33.4,33.4,33.4l0,0h91.4
								v-63.7h-34.1V515.7H1588.7z"/>
						</g>
						<path class="st0" d="M982.4,487.8h-178c-15.9,0-28.8-12.9-28.8-28.8v-15c0-15.9,12.9-28.8,28.8-28.8h247.2v-71.9H793.2
							c-59.9,0.1-108.5,48.6-108.5,108.5c0,59.9,48.6,108.5,108.5,108.5h177.9c15.9,0,28.8,12.9,28.8,28.8v15
							c0,15.9-12.9,28.8-28.8,28.8H690.5v71.9h291.8c59.9,0,108.5-48.6,108.5-108.5C1090.9,536.4,1042.3,487.8,982.4,487.8z"/>
					</g>
					<circle class="st0" cx="2884.8" cy="385.4" r="45.2"/>
				</g>
			</g>
			<g>
				<g>
					<g>
						<g>
							<path class="st5" d="M876.7,151L825,67.2h-37.5v119.9h37.1v-83.8l52,83.8h37.1V67.2h-37.1V151z M1170.5,107.4V95.6h-19.6
								V79.4h-36.1v16.2h-19.6v11.8h19.6v79.7h36.1v-79.7H1170.5z M934.4,187.1h36.1v-79.7h-36.1V187.1z M934.4,91.6h36.1V66.9
								h-36.1V91.6z M1566.1,102c-29,0-52.7,19.9-52.7,44.9c0,24.6,23.6,44.9,52.7,44.9s52.7-19.9,52.7-44.9S1595.8,102,1566.1,102z
								 M1580.6,163.5c0,12.8-7.4,17.9-14.9,17.9c-7.1,0-14.9-5.4-14.9-17.9c0-4.7,0-17.2,0-17.2s0-11.8,0-16.5
								c0-12.5,7.4-17.9,14.9-17.9c7.1,0,14.9,5.1,14.9,17.9c0,4.7,0,13.8,0,16.9C1580.6,147,1580.6,158.8,1580.6,163.5z
								 M1466.4,111.5c-5.7-3.4-11.8-6.4-20.3-7.1c-26-2.4-45.9,20.6-45.9,41.9c0,27.7,21.3,38.2,24.6,39.5
								c12.2,5.7,27.7,5.7,41.5-3c0,0.7,0,4.7,0,4.7h35.5V67.6h-35.5C1466.4,67.2,1466.4,92.9,1466.4,111.5z M1466.4,147
								c0,0,0,9.1,0,14.2c0,12.2-8.4,15.5-14.2,15.5c-5.7,0-14.2-3.4-14.2-15.5c0-4.4,0-14.2,0-14.2s0-10.1,0-14.2
								c0-12.5,8.4-15.5,14.2-15.5c5.7,0,14.2,3,14.2,15.5C1466.4,136.8,1466.4,147,1466.4,147z M1055,103.7
								c-11.8,0.3-21.9,5.4-28.7,12.2c0-2,0-8.4,0-8.4h-35.8v79.7h35.8c0,0,0-49,0-52.4c0-7.1,7.4-14.5,17.2-14.5
								c9.8,0,16.5,7.8,16.5,14.5c0,5.1,0,52.4,0,52.4h35.8c0,0,0-37.8,0-43.2C1095.9,112.2,1068.5,103.4,1055,103.7z M1348.2,103.7
								c-11.8,0.3-21.9,5.4-28.7,12.2c0-2,0-8.4,0-8.4h-35.8v79.7h35.8c0,0,0-49,0-52.4c0-7.1,7.4-14.5,17.2-14.5
								c9.8,0,16.5,7.8,16.5,14.5c0,5.1,0,52.4,0,52.4h35.8c0,0,0-37.8,0-43.2C1388.8,112.2,1361.4,103.4,1348.2,103.7z
								 M1272.2,147.6c0-24.6-24-45.3-53.4-45.3c-29.4,0-53,19.9-53,44.9c0,24.6,23.6,44.9,53,44.9c24.3,0,44.9-13.8,51.3-32.8
								h-35.8c0,0,0,0.3,0,4.7c0,14.5-9.5,17.9-14.9,17.9s-15.2-3.4-15.2-17.9c0-4.4,0-16.5,0-16.5H1272.2z M1207,119.6
								c2.7-5.1,8.1-7.1,12.8-7.4c4.7,0,9.8,2.4,12.8,7.4c2.4,4.1,2.4,8.8,2.4,15.5H1205C1204.3,128,1204.3,123.7,1207,119.6z
								 M1633.7,82.1c0-4.1-3-5.7-8.8-5.7h-8.1V97h5.1v-8.4h2.4l4.1,8.4h5.4l-4.4-9.1C1632,86.8,1633.7,84.8,1633.7,82.1z
								 M1624.2,85.1h-2.4V79h2c3,0,4.4,1,4.4,3C1628.6,84.5,1626.9,85.1,1624.2,85.1z M1624.2,68.2c-10.1,0-18.6,8.1-18.6,18.6
								c0,10.1,8.4,18.6,18.6,18.6c10.1,0,18.6-8.4,18.6-18.6C1642.8,76.3,1634.3,68.2,1624.2,68.2z M1624.2,101.7
								c-8.1,0-14.9-6.8-14.9-14.9s6.8-14.9,14.9-14.9s14.9,6.8,14.9,14.9C1639,94.9,1632.6,101.7,1624.2,101.7z M1584,0H819.9
								c-80.7-0.3-135.1,58.1-135.1,127.7s54,127,135.5,127H1584c81.1,0,135.5-57.4,135.5-127C1719.1,57.8,1664.7-0.3,1584,0z
								 M1583.7,223.6H820.2c-64.5,0.3-103.7-42.9-103.7-96.3S756,31.4,820.2,31.1h763.4c64.2,0,103.7,42.9,103.7,96.3
								S1647.9,223.6,1583.7,223.6z M1584,0H819.9c-80.7-0.3-135.1,58.1-135.1,127.7s54,127,135.5,127H1584
								c81.1,0,135.5-57.4,135.5-127C1719.1,57.8,1664.7-0.3,1584,0z M1583.7,223.6H820.2c-64.5,0.3-103.7-42.9-103.7-96.3
								S756,31.4,820.2,31.1h763.4c64.2,0,103.7,42.9,103.7,96.3S1647.9,223.6,1583.7,223.6z M1584,0H819.9
								c-80.7-0.3-135.1,58.1-135.1,127.7s54,127,135.5,127H1584c81.1,0,135.5-57.4,135.5-127C1719.1,57.8,1664.7-0.3,1584,0z
								 M1583.7,223.6H820.2c-64.5,0.3-103.7-42.9-103.7-96.3S756,31.4,820.2,31.1h763.4c64.2,0,103.7,42.9,103.7,96.3
								S1647.9,223.6,1583.7,223.6z"/>
						</g>
					</g>
				</g>
			</g>
		</g>
	</g>
</g>
</svg>
