<?xml version="1.0" encoding="utf-8"?>
<!-- Generator: Adobe Illustrator 26.0.3, SVG Export Plug-In . SVG Version: 6.00 Build 0)  -->
<svg version="1.1" id="Layer_1" xmlns="http://www.w3.org/2000/svg" xmlns:xlink="http://www.w3.org/1999/xlink" x="0px" y="0px"
	 viewBox="0 0 3839 793.5" style="enable-background:new 0 0 3839 793.5;" xml:space="preserve">
<style type="text/css">
	.st0{display:none;}
	.st1{display:inline;}
	.st2{fill:url(#SVGID_1_);}
	.st3{fill:url(#SVGID_00000164487235454738359820000007948414114846641537_);}
	.st4{clip-path:url(#SVGID_00000052101308075841875650000005409501855538784668_);}
	.st5{clip-path:url(#SVGID_00000063591772267503414770000000518742201617999023_);fill:none;}
	.st6{fill:none;}
	.st7{fill:url(#SVGID_00000083071611076184576170000011777127079994413207_);}
	.st8{clip-path:url(#SVGID_00000163033609491671467160000016581723235437109912_);}
	.st9{clip-path:url(#SVGID_00000096060007636677233640000017196025408238026912_);}
	.st10{clip-path:url(#SVGID_00000089534740393612737130000001921536159259731330_);}
	.st11{fill:url(#SVGID_00000080188216576534941240000000302432043599251127_);}
	.st12{fill:url(#SVGID_00000124155849310953354250000000404770707702284686_);}
	.st13{clip-path:url(#SVGID_00000027606559290665889210000012992922721572300223_);}
	.st14{clip-path:url(#SVGID_00000136401495498543417360000014204199760928281231_);fill:none;}
	.st15{fill:url(#SVGID_00000036246026485152481350000002820074091632731020_);}
	.st16{clip-path:url(#SVGID_00000025431188777606703750000007872785958140350087_);}
	.st17{clip-path:url(#SVGID_00000057138075639536009270000003017712245083165312_);}
	.st18{clip-path:url(#SVGID_00000013166171787492210490000000037453990163154103_);}
	.st19{fill:#FFFFFF;}
	.st20{fill:url(#SVGID_00000037690730912223638620000004380162095199074492_);}
	.st21{fill:url(#SVGID_00000147218375259152531150000016615279519345788812_);}
	.st22{clip-path:url(#SVGID_00000095322425830091279990000001235885050966095244_);fill:#FFFFFF;}
	.st23{clip-path:url(#SVGID_00000153697943213383238770000012104626148697515189_);fill:none;}
	.st24{fill:url(#SVGID_00000151543114028864540580000007276202042698027416_);}
	.st25{clip-path:url(#SVGID_00000149370940577371731530000000995645636939715472_);fill:#FFFFFF;}
	.st26{clip-path:url(#SVGID_00000011726504570734590180000012221550060358304656_);fill:#FFFFFF;}
	.st27{clip-path:url(#SVGID_00000049214650044099029230000014641513177436817537_);}
	.st28{clip-path:url(#SVGID_00000049214650044099029230000014641513177436817537_);fill:#FFFFFF;}
	.st29{fill:url(#SVGID_00000137130759626146287230000014662060380850035605_);}
	.st30{fill:url(#SVGID_00000150082888566615910850000014341358849203131552_);}
	.st31{clip-path:url(#SVGID_00000135663127501041219920000005813280039288329115_);fill:#FFFFFF;}
	.st32{clip-path:url(#SVGID_00000016783572097392414260000007768133797752409508_);fill:none;}
	.st33{fill:url(#SVGID_00000070076374697957016310000001103440906718966164_);}
	.st34{clip-path:url(#SVGID_00000098942251692658938680000000163282336017027999_);fill:#FFFFFF;}
	.st35{clip-path:url(#SVGID_00000133527932225323637920000012004466002265318541_);fill:#FFFFFF;}
	.st36{clip-path:url(#SVGID_00000149378588907785972970000015742639131193033398_);}
	.st37{clip-path:url(#SVGID_00000149378588907785972970000015742639131193033398_);fill:#FFFFFF;}
	.st38{clip-path:url(#SVGID_00000125572626891930687450000004694823080160978106_);}
	.st39{clip-path:url(#SVGID_00000122713878421510488960000012967868628352779199_);}
	.st40{clip-path:url(#SVGID_00000122700523082870989900000017035446909568739221_);}
	.st41{clip-path:url(#SVGID_00000151510398371616054920000003926471299686635679_);}
	.st42{clip-path:url(#SVGID_00000129204650357936940170000004480427591506801059_);}
	.st43{clip-path:url(#SVGID_00000026152504669901381430000014068324420506910342_);}
	.st44{clip-path:url(#SVGID_00000088094165907766897940000013113406171712670391_);fill:#FFFFFF;}
	.st45{clip-path:url(#SVGID_00000028285359299025147720000012416015599817671041_);fill:#FFFFFF;}
	.st46{clip-path:url(#SVGID_00000106134740351608450650000010665216622401178785_);}
	.st47{clip-path:url(#SVGID_00000106134740351608450650000010665216622401178785_);fill:#FFFFFF;}
	.st48{clip-path:url(#SVGID_00000003823586090123207590000000605902564187416240_);fill:#FFFFFF;}
	.st49{clip-path:url(#SVGID_00000180327433783288033890000006484229031496967864_);fill:#FFFFFF;}
	.st50{clip-path:url(#SVGID_00000111188761584722436010000016881982877381183898_);}
	.st51{clip-path:url(#SVGID_00000111188761584722436010000016881982877381183898_);fill:#FFFFFF;}
	.st52{fill:url(#SVGID_00000052784094650171109900000015235296313344657318_);}
	.st53{fill:url(#SVGID_00000110441455995845349740000005096582913471572657_);}
	.st54{clip-path:url(#SVGID_00000126282328184896129600000007842437596003896499_);}
	.st55{clip-path:url(#SVGID_00000127038864330341480820000011904182923144104107_);fill:none;}
	.st56{fill:url(#SVGID_00000077294996670525766830000000502480960838828178_);}
	.st57{fill:url(#SVGID_00000161595999318228690330000016946179520274161055_);}
	.st58{clip-path:url(#SVGID_00000178910196555208661910000008883228464821638790_);}
	.st59{clip-path:url(#SVGID_00000009553029061252132350000013393952046216025790_);fill:none;}
	.st60{fill:url(#SVGID_00000064334947155458214960000013792325251339224510_);}
	.st61{clip-path:url(#SVGID_00000073723045588341201960000004612055613320779695_);}
	.st62{clip-path:url(#SVGID_00000107556868376214586490000005336707378531467392_);}
	.st63{clip-path:url(#SVGID_00000127021317569130653840000002820083031826778270_);}
	.st64{fill:url(#SVGID_00000073682360494080104310000002812063434563120783_);}
	.st65{clip-path:url(#SVGID_00000031887684158187330160000003357222158794780297_);}
	.st66{clip-path:url(#SVGID_00000139295823549106429180000018242204009902965139_);}
	.st67{clip-path:url(#SVGID_00000066504529527429643960000006552054955179527585_);}
	.st68{clip-path:url(#SVGID_00000000205455575670201130000017349229834462705045_);}
	.st69{clip-path:url(#SVGID_00000111897957610217324650000009215666121214597814_);}
	.st70{clip-path:url(#SVGID_00000155127691701949920940000007437975028322250157_);}
	.st71{fill:url(#SVGID_00000035518815187000219130000010788403176153166477_);}
	.st72{clip-path:url(#SVGID_00000163039720337367156100000006564148621708178335_);}
	.st73{clip-path:url(#SVGID_00000047052284293716445360000008505427437037380011_);}
	.st74{clip-path:url(#SVGID_00000059301279952643630660000011342839109654441905_);}
	.st75{fill:url(#SVGID_00000067954540121311233030000015065975691689470634_);}
	.st76{fill:url(#SVGID_00000147209713555669771860000006998023785193707167_);}
	.st77{clip-path:url(#SVGID_00000178193003507710607460000002327243126612252325_);}
	.st78{clip-path:url(#SVGID_00000173851884580237558630000009060197639291686792_);fill:none;}
	.st79{clip-path:url(#SVGID_00000109011748810548484060000012473929761239966633_);}
	.st80{clip-path:url(#SVGID_00000183249076190102502160000001323602486354262206_);}
	.st81{clip-path:url(#SVGID_00000004536835367694675040000008775036888091605910_);}
	.st82{fill:url(#SVGID_00000021826085252380280880000004793403881330174344_);}
	.st83{clip-path:url(#SVGID_00000083795910240069297910000011713550488765402275_);}
	.st84{clip-path:url(#SVGID_00000132776957562592791750000005724641928517096585_);}
	.st85{clip-path:url(#SVGID_00000148619147827987602470000017390827594448119209_);}
	.st86{clip-path:url(#SVGID_00000142859572901342497070000000420969268916160135_);}
	.st87{clip-path:url(#SVGID_00000134223798220710122510000013235697706210300544_);}
	.st88{clip-path:url(#SVGID_00000067209354745571477060000008983702336960347568_);}
	.st89{clip-path:url(#SVGID_00000044144879952151660440000004016282496178578837_);}
	.st90{clip-path:url(#SVGID_00000145762684021477906310000002570397903349931428_);}
	.st91{clip-path:url(#SVGID_00000073697699226855202510000002607668298705407659_);}
	.st92{fill:url(#SVGID_00000163064156149620117120000004368335978946739073_);}
	.st93{clip-path:url(#SVGID_00000031193580731329986190000001546299054243796912_);}
	.st94{clip-path:url(#SVGID_00000062895173953096255370000017234012817621852299_);}
	.st95{clip-path:url(#SVGID_00000171687006960730652390000013910488506604706433_);}
	.st96{clip-path:url(#SVGID_00000020378683863052979640000000730532644308847760_);}
	.st97{clip-path:url(#SVGID_00000118355113670747980110000002961479606058059416_);fill:#FFFFFF;}
	.st98{clip-path:url(#SVGID_00000038404655546313461670000011619223253948451979_);}
	.st99{clip-path:url(#SVGID_00000046297725525915699020000005090136147134349231_);}
	.st100{clip-path:url(#SVGID_00000124161535801973213570000003465565247338379404_);fill:#FFFFFF;}
	.st101{clip-path:url(#SVGID_00000178165759039150257490000002942137871756868279_);}
	.st102{fill:url(#SVGID_00000052096461676743137260000000278240888411867520_);}
	.st103{fill:url(#SVGID_00000064319717750877604350000005135312024621550250_);}
	.st104{clip-path:url(#SVGID_00000152947306950281040860000001524372420966596015_);}
	.st105{clip-path:url(#SVGID_00000105425322070151988220000009799813341631100297_);fill:none;}
	.st106{clip-path:url(#SVGID_00000175321346349826752340000018179903577699607943_);}
	.st107{clip-path:url(#SVGID_00000031196353059562908800000012071364517222356611_);}
	.st108{clip-path:url(#SVGID_00000129915209017569232350000003389549447950093952_);}
	.st109{fill:url(#SVGID_00000098185099434864248930000004348803981740987827_);}
	.st110{fill:url(#SVGID_00000183928427125896913640000007550424994101310625_);}
	.st111{fill:url(#SVGID_00000069368293134936838020000007708129897447392694_);}
	.st112{clip-path:url(#SVGID_00000132805752419359620210000005296701196471191708_);}
	.st113{clip-path:url(#SVGID_00000150817886255775046040000013826893688294439083_);fill:none;}
	.st114{fill:url(#SVGID_00000098192178066311180830000011091994482492117128_);}
	.st115{fill:url(#SVGID_00000003820124870641293400000018173812726923061413_);}
	.st116{clip-path:url(#SVGID_00000008122074478314380190000010076692523724268214_);}
	.st117{clip-path:url(#SVGID_00000150087459602958946970000014672811088545467555_);fill:none;}
	.st118{clip-path:url(#SVGID_00000030478653636290871560000013739707940706953607_);}
	.st119{clip-path:url(#SVGID_00000109735047837052403980000002162389689831398546_);}
	.st120{clip-path:url(#SVGID_00000080195391111465707440000004852317508629034382_);}
	.st121{fill:url(#SVGID_00000052086122328803516930000008879304178152183685_);}
	.st122{fill:url(#SVGID_00000035529508065485295400000000932002543184482724_);}
	.st123{fill:url(#SVGID_00000011745153425915775260000001199905807962511529_);}
	.st124{clip-path:url(#SVGID_00000000191126055807100520000002531861332800281014_);}
	.st125{clip-path:url(#SVGID_00000121276259067503185900000013177883391569886361_);fill:none;}
	.st126{clip-path:url(#SVGID_00000162321425089533085950000000459604193538613921_);}
	.st127{clip-path:url(#SVGID_00000050623253662366311890000010440592889687432873_);}
	.st128{clip-path:url(#SVGID_00000150075309351563854110000006365255096241395117_);}
	.st129{fill:url(#SVGID_00000077307593732960096870000010656404232379047309_);}
	.st130{fill:url(#SVGID_00000169516381163965430830000009913420518747973306_);}
	.st131{fill:url(#SVGID_00000168117079811698484530000012407634634366120622_);}
	.st132{clip-path:url(#SVGID_00000036956576451100908420000005687923230520060051_);}
	.st133{clip-path:url(#SVGID_00000156580011961199883350000014574508299683625368_);fill:none;}
	.st134{clip-path:url(#SVGID_00000162312133211500332590000016642348150240391099_);}
	.st135{clip-path:url(#SVGID_00000173162734704616747330000003579725725060701828_);}
	.st136{clip-path:url(#SVGID_00000093145675714037125590000008225887120479453336_);}
	.st137{fill:url(#SVGID_00000049210709629628314920000013123321877287760287_);}
	.st138{fill:url(#SVGID_00000114786638844322282100000000507182385230947999_);}
	.st139{fill:url(#SVGID_00000152246214105465918600000015820926166000344195_);}
	.st140{clip-path:url(#SVGID_00000014620057484757231730000009902729178040143788_);}
	.st141{clip-path:url(#SVGID_00000138537290792246690870000001662157115575799203_);fill:none;}
	.st142{clip-path:url(#SVGID_00000000943142440930724200000003172107870663974584_);}
	.st143{clip-path:url(#SVGID_00000096053848189161575030000000132251145130082947_);}
	.st144{clip-path:url(#SVGID_00000094602515350466354040000004995884865861726357_);}
	.st145{fill:url(#SVGID_00000011730579691299864070000009828696432068306824_);}
	.st146{fill:url(#SVGID_00000111902795301768592700000008533640181405049262_);}
	.st147{fill:url(#SVGID_00000158741445907316724070000003993624337024349349_);}
	.st148{clip-path:url(#SVGID_00000151539579018467698320000010021900432971448980_);}
	.st149{clip-path:url(#SVGID_00000041267048623882233850000017750803013943339657_);fill:none;}
	.st150{clip-path:url(#SVGID_00000173841626895894582700000009544891214692721050_);}
	.st151{clip-path:url(#SVGID_00000167389295372999535890000002829015428773555640_);fill:#FFFFFF;}
	.st152{clip-path:url(#SVGID_00000031915668266550003550000006919054147601222567_);}
	.st153{fill:url(#SVGID_00000026864235308291110420000000892488870488234426_);}
	.st154{fill:url(#SVGID_00000005259543204763609390000011817951105637248139_);}
	.st155{fill:url(#SVGID_00000041974029307810005830000007809656846967409836_);}
	.st156{clip-path:url(#SVGID_00000132053872367553445780000016533323334226435713_);fill:#FFFFFF;}
	.st157{clip-path:url(#SVGID_00000090981242955055195110000004483395245852761278_);fill:none;}
	.st158{clip-path:url(#SVGID_00000005247871774328861890000003185328000990298278_);}
	.st159{clip-path:url(#SVGID_00000183957718627035533720000010227925309560196260_);fill:#FFFFFF;}
	.st160{clip-path:url(#SVGID_00000024690669465692854410000009356794436241114517_);}
	.st161{fill:url(#SVGID_00000091010613094644993430000001590446202962029747_);}
	.st162{fill:url(#SVGID_00000130641397390004581620000000952594427335484297_);}
	.st163{fill:url(#SVGID_00000093880349046782917890000000753249232604940434_);}
	.st164{clip-path:url(#SVGID_00000085949679526903584900000000598866309978935482_);fill:#FFFFFF;}
	.st165{clip-path:url(#SVGID_00000169528708495896750330000016843701794434890369_);fill:none;}
</style>
<g class="st0">
	<g class="st1">
		<g>
			<g>
				
					<linearGradient id="SVGID_1_" gradientUnits="userSpaceOnUse" x1="6070.9736" y1="2256.5625" x2="6070.9736" y2="3050.0908" gradientTransform="matrix(1 0 0 -1 -4213.2275 2409.9414)">
					<stop  offset="0" style="stop-color:#FFFFFF"/>
					<stop  offset="0.3809" style="stop-color:#FFFFFF"/>
					<stop  offset="0.4042" style="stop-color:#F4E7E9"/>
					<stop  offset="0.4844" style="stop-color:#D099A4"/>
					<stop  offset="0.5416" style="stop-color:#B96978"/>
					<stop  offset="0.5698" style="stop-color:#B05667"/>
					<stop  offset="0.7789" style="stop-color:#CE0033"/>
					<stop  offset="1" style="stop-color:#FD003E"/>
				</linearGradient>
				<path class="st2" d="M1921.8-633.9c3-1.5,6.5-3.2,10.5-5c13.2-6.2,23.7,12.3,11.6,20.5c-4.2,2.9-8,5.5-11.1,7.6
					c-38.8,27.2-72.7,59.2-72.7,167.4c0,135.9,112.5,268.4,112.5,366.9c0,76.4-21.6,146.5-191.1,228.7c-5.6,2.7-12.2,0.6-15.3-4.7
					l0,0c-3.3-5.7-1.1-13,4.6-16.1c67.7-36.2,87.6-111.2,84.7-175.6c-6-134-114.5-249.2-112.5-359.1
					C1744.2-468.8,1770.3-557.5,1921.8-633.9z"/>
			</g>
		</g>
	</g>
	<g class="st1">
		<g>
			<g>
				<g>
					<path class="st19" d="M1318.6,949.7c-62.8,0-113.1-16.6-149.4-49.4c-0.4-0.4-1-0.6-1.5-0.6c-0.8,0-1.7,0.4-2.2,1.4l-10,24.4
						c-3.1,7.3-10.1,12.1-18,12.1H825.2c-4.4,0-8.4-2.6-10.1-6.7c-1.8-4.4-0.6-9.3,3.2-13.1l0.1-0.1c2.9-2.7,6.8-4.3,10.8-4.3h0.3
						c11.7,0,21.8-17.1,21.8-25.4V693.5c0-15.9-22.6-33.1-61.9-47.2c-33.3-11.9-77.3-20.7-109.5-21.9c-1.4-0.1-2.8-0.1-4.1-0.1
						c-8.4,0-34.1,0-37.3,23.9c-1.3,9.6,12,37.2,60.6,56.8c20.5,8.2,59.5,26,90.5,52.8c33.7,29.1,49.6,61,47.2,94.7
						c-4.4,61.8-52.6,88.1-161.3,88.1c-8.2,0-21.9-1.4-35.2-2.7c-10.1-1-19.6-1.9-26.1-2.2c-1.3-0.1-2.7-0.1-4.3-0.1
						c-12.1,0-28.5,2.1-40.7,5.1c-1.7,0.4-3.6,0.7-5.4,0.7c-7.2,0-14-3.6-18.1-9.7c-17.6-26.4-44.5-78.4-52.3-93.7
						c-2.2-4.3-2.1-9.1,0.4-13.2c2.5-4.1,7-6.7,11.7-6.7c3.4,0,6.6,1.3,9.2,3.8c56.4,52.6,102.9,78.2,142,78.2
						c37.6,0,57.3-11.4,64-36.9c6.6-25.1-57.5-62.1-92.2-78.2c-19.7-9-59.2-33.9-68.2-42.1c-1.2-1.1-2.5-2.3-3.9-3.5
						c-15.7-14-39.4-35.2-35.4-72.9c2.8-26,17.3-45.9,43.1-59.2c22.5-11.6,53.8-17.7,90.4-17.7c60.2,0,180.1,6.5,193.6,7.3
						c6.4,0.3,11.7,0.5,16.7,0.5h94.4v0.1h180.3l21.3,51.9c0.3,0.9,1.1,0.9,1.3,0.9c0.4,0,0.7-0.1,1-0.4
						c38.5-37.1,90.3-57.6,145.9-57.6c24.8,0,47,3.8,61.7,6.3c7.5,1.3,13.4,2.3,16.5,2.3c0.1,0,0.2,0,0.4,0l0.5,0l0.5,0.1
						c0,0,0,0,0,0c0,0,0.5,0.1,1.2,0.1c3.4,0,12.8-0.9,26.8-9.6c2.9-1.8,6.2-2.7,9.5-2.7c8,0,15,5.1,17.4,12.7l27,84.7
						c1.2,3.9,0.6,7.9-1.7,11.1c-2.4,3.3-6.3,5.3-10.4,5.3c-3.9,0-7.4-1.8-9.8-5c-26-34.7-62-70.1-132.1-70.1
						c-29.9,0-52.2,11.7-66.3,34.6c-14.2,23.2-15.7,51.2-15.7,62.1v75.2c0,14,1.6,41.2,12.1,66c13.8,32.4,38.1,48.8,72.1,48.8h8.4
						c29.5,0,53.7-23.8,53.9-53.1c0.3-31.6-16.7-51.3-46.5-53.9c-3.7-0.3-7.2-2.2-9.5-5.1c-2.3-2.9-3.2-6.5-2.6-10.3
						c1-6.1,6.9-11.1,13.3-11.1h119.5c8.9,0,17-4.9,21.1-12.8l96.4-182.9c3.7-7.1,10.7-11.3,18.7-11.3c8.4,0,15.8,4.8,19.3,12.5
						l130.2,288.6c10.9,24.2,28.1,33.7,37.3,37.2c4.4,1.6,7.7,5.3,8.5,9.6c0.7,3.9-0.3,7.9-2.8,10.9c-2.5,3.1-6.2,4.8-10.2,4.8
						h-109.8c-5.1,0-9.7-3.2-11.5-7.9c-2-5.3-0.3-11.1,4.6-15.4c3.3-2.9,7.6-4.5,12.1-4.5h2.1c9.8,0,15.4-13.3,16.5-19.3
						c0-0.2,0-0.3,0-0.5c0-0.4,0.1-0.7,0.1-1.1c0.4-4.9-0.6-10.1-2.8-15l-70-155.4l-82.1,155.9c-2.4,4.5-3.5,9.7-3.2,14.8
						c0,0.4,0,0.8,0.1,1.3c0.2,5.5,0.4,10.7,9.8,19.1c0.9,0.8,3.1,2.9,6,5.4c4.1,3.6,5.5,9.3,3.5,14.3c-1.9,5.1-6.7,8.4-12.1,8.4
						h-142.3c-4.4,0-8.8,0.8-13,2.3C1366.9,945.3,1335,949.7,1318.6,949.7z M967.3,783.3c-4.8,0-8,3.6-8,4.8v94.3
						c0,11.9,9.7,21.5,21.5,21.5h16.1c59.2,0,105.6-25.6,129.2-49.6c2.8-2.9,3.6-7.3,1.9-11c-11.4-25.7-17.2-54.5-17.2-85.4
						c0-23,8.5-48.9,23.8-73.1c0.7-1.2,0.5-2.9-0.5-3.8c-9.6-8.3-60.4-49.5-121.9-49.5h-32.5c-11.2,0-20.3,9.1-20.3,20.3v91.8
						c1,1.5,2.2,2.3,4.9,2.3c1.2,0,2.7-0.2,4.2-0.6c11.1-2.6,33.3-12.6,52.8-23.8c13.8-8,24.7-15.6,36.6-25.5
						c2.5-2.1,5.5-3.2,8.8-3.2c7.7,0,14,6.2,14,13.9v111.8c0,7.7-6.3,13.9-14,13.9c-3.2,0-6.2-1.1-8.8-3.2
						c-11.9-9.8-22.8-17.4-36.6-25.5c-17.6-10.2-39.5-18-52-20.5C968.6,783.4,968,783.3,967.3,783.3z"/>
					<path class="st19" d="M1591.6,578.8c6,0,11.9,3.2,14.7,9.5L1736.5,877c11.9,26.3,30.8,36.3,40.1,39.8c2.8,1,4.9,3.3,5.4,5.9
						c1,5.2-3,9.8-8.1,9.8h-109.8c-6.4,0-10.9-8.2-3.6-14.7c2.4-2.1,5.6-3.2,8.8-3.2h2.1c13.1,0,20-15.7,21.4-23.4
						c0.1-0.5,0.1-1.2,0.2-2c0.5-6-0.7-12.1-3.2-17.6l-74.2-164.7l-86.9,165c-2.8,5.4-4.1,11.4-3.8,17.4c0.3,6.1-0.2,13.3,11.5,23.8
						c1.5,1.4,3.7,3.4,6.1,5.5c5.5,4.9,2,14-5.3,14h-19.7h-122.6c-5,0-10,0.9-14.7,2.6c-14.8,5.4-46.4,9.6-61.6,9.6
						c-65.4,0-113.3-18.6-146-48.1c-1.4-1.3-3.2-1.9-4.9-1.9c-2.8,0-5.6,1.6-6.8,4.6l-10,24.3c-2.3,5.5-7.5,9-13.4,9H954.2H890
						h-64.8c-5,0-8.6-6.2-3.4-11.4c2-1.9,4.7-2.9,7.4-2.9h0.3c15,0,26.8-19.5,26.8-30.4c0-8.2,0-194.4,0-194.4
						c0-41.9-115.2-71.7-176.2-74c-1.4-0.1-2.9-0.1-4.3-0.1c-18.7,0-39.2,5.3-42.3,28.2c-2,14.3,16.4,43,63.6,62
						c53,21.2,139.8,69.7,134.7,142.5c-3.8,53-40.2,83.5-156.3,83.5c-14,0-45.8-4.2-61-4.9c-1.4-0.1-2.9-0.1-4.5-0.1
						c-11.9,0-28.6,1.9-41.9,5.3c-1.4,0.4-2.8,0.5-4.2,0.5c-5.6,0-10.8-2.8-14-7.5c-14-20.9-35.3-60.5-52-93.2
						c-3.3-6.4,1.9-12.6,7.7-12.6c2,0,4,0.7,5.8,2.4c40.3,37.6,94.8,79.6,145.4,79.6c32.3,0,60.2-8,68.8-40.6
						c8.6-32.9-74.2-74.4-95-84c-19.9-9.2-58.6-33.7-66.9-41.3c-15.3-14-41.8-33.9-37.7-72.2c5.5-50.9,59.5-72.5,128.6-72.5
						c55.1,0,162.7,5.6,193.3,7.3c5.7,0.3,11.3,0.5,17,0.5h89.4v0.1h181.9l20,48.8c1,2.6,3.5,4,6,4c1.6,0,3.2-0.6,4.5-1.8
						c33.4-32.2,82.1-56.2,142.4-56.2c37.2,0,67.9,8.6,78.2,8.6c0.2,0,0.3,0,0.5,0c0,0,0.7,0.1,2.1,0.1c4.2,0,14.5-1.1,29.4-10.3
						c2.2-1.3,4.6-2,6.9-2c5.5,0,10.8,3.5,12.6,9.2l27,84.7c1.8,5.5-2.7,9.9-7.3,9.9c-2.1,0-4.3-0.9-5.8-3
						c-30.8-41.1-68.7-72.1-136-72.1c-72.1,0-87,64.8-87,101.7c0,0,0,50.2,0,75.2c0,21.4,3.7,119.8,89.3,119.8h8.4
						c32,0,58.6-26.1,58.8-58c0.3-34.6-19-56.1-51.1-58.9c-4.8-0.4-8.4-4.6-7.6-9.6c0.6-3.8,4.5-6.9,8.4-6.9h3.9h115.6
						c10.7,0,20.5-6,25.5-15.5l96.3-182.9C1580.4,581.6,1586,578.8,1591.6,578.8 M964.2,751c1.5,0,3.3-0.2,5.4-0.7
						c12.8-3,36.1-14,54.2-24.3c12.7-7.4,24.1-15.1,37.3-25.9c1.7-1.4,3.7-2,5.6-2c4.6,0,9,3.6,9,8.9V735v55.6v28.1
						c0,5.3-4.4,8.9-9,8.9c-1.9,0-3.9-0.6-5.6-2c-13.2-10.9-24.6-18.6-37.3-25.9c-18.1-10.5-40.7-18.6-53.6-21
						c-1-0.2-1.9-0.3-2.9-0.3c-7.2,0-13,5.3-13,9.8v4.8v89.5c0,14.7,11.9,26.5,26.5,26.5h16.1c65.7,0,111.7-29.7,132.8-51.1
						c4.3-4.4,5.4-11,2.9-16.6c-11.4-25.6-16.8-54.2-16.8-83.4c0-21.9,8.1-46.9,23-70.4c2.1-3.3,1.4-7.8-1.5-10.3
						c-23.3-20.1-71.9-50.7-125.2-50.7h-32.5c-14,0-25.3,11.4-25.3,25.3v87.8v5.4C955.8,747.9,958.3,751,964.2,751 M1591.6,568.8
						c-9.7,0-18.6,5.3-23.1,13.9l-96.4,182.9c-3.3,6.3-9.7,10.1-16.7,10.1h-115.6h-3.9c-8.9,0-16.9,6.7-18.2,15.3
						c-0.8,5.1,0.5,10.1,3.6,14.1c3.1,4,7.9,6.5,13,7c27.3,2.5,42.2,19.8,41.9,48.9c-0.1,12.8-5.2,24.8-14.5,34
						c-9.3,9.1-21.5,14.2-34.4,14.2h-8.4c-17.5,0-32.2-4.6-44-13.6c-9.8-7.5-17.7-18.4-23.6-32.2c-10.6-24.9-11.7-53.1-11.7-64
						v-75.2c0-10.5,1.5-37.4,15-59.5c13.1-21.4,34-32.3,62-32.3c29.7,0,54.8,6.3,76.6,19.3c18.2,10.8,34.5,26.3,51.4,48.9
						c3.3,4.5,8.4,7,13.8,7c5.7,0,11-2.7,14.4-7.3c3.3-4.5,4.2-10.2,2.4-15.6l-27-84.7c-3.1-9.7-12-16.2-22.1-16.2
						c-4.2,0-8.4,1.2-12.1,3.4c-13.4,8.2-21.9,8.8-24.3,8.8c-0.2,0-0.4,0-0.5,0l-1.1-0.3l-0.7,0.2c-0.1,0-0.1,0-0.2,0
						c-2.7,0-8.7-1-15.7-2.2c-14.9-2.5-37.3-6.4-62.5-6.4c-30,0-58.6,5.6-85.2,16.8c-22.4,9.4-42.7,22.4-60.4,38.7l-18.1-44.1
						l-2.5-6.2h-6.7h-172v-0.1h-10h-89.4c-4.9,0-10.1-0.2-16.4-0.5c-13.5-0.7-133.5-7.3-193.8-7.3c-82.4,0-132.9,29.7-138.5,81.4
						c-1.9,17.6,1.9,34,11.2,48.7c7.7,12.2,17.8,21.2,25.9,28.4c1.3,1.2,2.6,2.4,3.9,3.5c9.3,8.6,48.9,33.5,69.5,43
						c5.3,2.5,33.3,15.6,56.9,32.3c22.8,16.1,34.9,31,32.6,40.1c-6.1,23.2-23.8,33.1-59.2,33.1c-20.9,0-45-8.2-71.4-24.2
						c-20.8-12.6-42.8-29.9-67.2-52.7c-3.5-3.3-8-5.1-12.6-5.1c-6.5,0-12.6,3.5-16,9c-3.3,5.5-3.6,12.2-0.6,18
						c7.8,15.4,34.8,67.6,52.5,94.1l0,0l0,0c5,7.4,13.4,11.9,22.3,11.9c2.2,0,4.5-0.3,6.6-0.8c11.9-3,27.7-5,39.4-5
						c1.4,0,2.8,0,4,0.1c6.4,0.3,15.9,1.2,25.9,2.2c13.4,1.3,27.2,2.7,35.6,2.7c57.9,0,98.9-7.6,125.3-23.3
						c25.2-14.9,38.6-37.7,40.9-69.5c1.4-19-2.9-37.7-12.6-55.5c-8.2-15.1-20.4-29.7-36.4-43.4c-31.6-27.3-71.2-45.3-91.9-53.6
						c-25.1-10.1-39.2-22-46.6-30.2c-9.5-10.5-11.2-18.4-10.9-21.2l0,0l0,0c0.7-5.3,2.6-19.6,32.4-19.6c1.3,0,2.6,0,3.9,0.1
						c31.8,1.2,75.2,9.9,108.1,21.6c36.7,13.1,58.6,28.9,58.6,42.5v194.4c0,6.4-8.5,20.4-16.9,20.4h-0.3c-5.3,0-10.5,2.1-14.3,5.6
						l-0.1,0.1l-0.1,0.1c-5.2,5.2-6.8,12.3-4.3,18.6c2.5,6,8.2,9.8,14.7,9.8H890h64.2h183.3c9.9,0,18.7-5.9,22.6-15.1l0,0l0,0
						l8.6-20.9c17.3,14.9,37.9,26.6,61.3,34.6c26.1,9,55.9,13.5,88.5,13.5c16.8,0,49.6-4.5,65.1-10.2c3.6-1.3,7.4-2,11.2-2h122.6
						h19.7c7.5,0,14.1-4.5,16.8-11.6c2.7-7,0.8-14.8-4.8-19.8l0,0l0,0c-2.9-2.5-5-4.5-5.8-5.3l-0.1-0.1l-0.1,0
						c-7.8-7.1-8-10.9-8.1-15.6c0-0.4,0-0.9-0.1-1.3c-0.2-4.2,0.7-8.5,2.7-12.3l77.3-146.9l65.8,146c1.9,4.1,2.7,8.4,2.4,12.5
						c-0.1,0.5-0.1,0.9-0.1,1.3c0,0,0,0.1,0,0.1c-1,5.4-5.8,15.1-11.6,15.1h-2.1c-5.7,0-11.2,2-15.3,5.7l0,0l0,0
						c-6.4,5.7-8.7,13.7-6,20.9c2.5,6.7,9,11.2,16.2,11.2h109.8c5.5,0,10.6-2.4,14.1-6.6c3.5-4.2,4.8-9.7,3.8-15
						c-1.2-6-5.7-11.2-11.7-13.4c-8.5-3.2-24.3-12-34.5-34.5l-130.2-288.7C1611.2,574.7,1602.1,568.8,1591.6,568.8L1591.6,568.8z
						 M964.3,741v-1.4v-87.8c0-8.5,6.9-15.4,15.4-15.4h32.5c22.3,0,45.7,5.7,69.6,16.8c17,8,34.3,18.9,47.7,30.3
						c-15.3,24.5-23.7,50.9-23.7,74.3c0,31.7,5.9,61.1,17.6,87.4c0.8,1.9,0.5,4.1-0.9,5.5c-6.9,7-22.1,20.3-46.6,31.4
						c-24.4,11-51,16.6-79,16.6h-16.1c-9.1,0-16.6-7.4-16.6-16.6v-89.5v-3.5c0.6-0.5,1.7-1.1,3-1.1c0.3,0,0.6,0,0.9,0.1l0,0l0,0
						c11.8,2.3,33.5,10,50.5,19.9c13.5,7.9,24.3,15.4,36,25c3.4,2.8,7.5,4.3,11.9,4.3c10.5,0,19-8.5,19-18.9v-28.1V735v-28.1
						c0-10.4-8.5-18.9-19-18.9c-4.4,0-8.5,1.5-11.9,4.3c-11.6,9.6-22.4,17.1-35.9,25c-19.1,11-40.7,20.8-51.5,23.3
						C965.9,740.9,964.9,741,964.3,741L964.3,741z"/>
				</g>
				<g>
					<path class="st19" d="M1738.2,1155.6c-5.9,0-11.3-3.1-14.2-8.2c-2.2-3.8-2.8-8.2-1.5-12.5c1.2-4.2,4.1-7.9,8-10
						c76.6-41,81.1-129.5,79.5-165.6c-2.9-64.9-31-125.1-58.1-183.4c-26.7-57.3-51.9-111.3-50.9-165c0.8-41.1,11.5-77.2,32.8-110.4
						c28.5-44.4,76.7-83.9,143.3-117.4c2.9-1.5,6.2-3.1,10.3-5c2.3-1.1,4.8-1.7,7.2-1.7c7,0,13.4,4.9,15.5,12c2.2,7-0.4,14-6.6,18.2
						l-3.2,2.2c-2.8,1.9-5.4,3.7-7.5,5.2c-37.4,26.2-68.4,56.2-68.4,158.2c0,70.1,32.2,141.2,60.6,203.9
						c15.6,34.5,30.5,67.4,39.5,98.1l17-32.2l135.4-257c3.7-7.1,10.7-11.3,18.7-11.3c8.4,0,15.8,4.8,19.3,12.4l130.2,288.7
						c4.4,9.7,11.7,17.9,21.8,24.5c3.2,2.1,7,3.2,10.9,3.2h14.8c5.5,0,10.6-2.3,14-6.4c5.8-6.8,8.7-14.7,8.7-23.6V632.9
						c0-3.7-3-6.7-6.7-6.7l-0.2,0c-59.9,2.3-99.9,21.4-123,37c-2.1,1.4-4.4,2.1-6.7,2.1c-4.1,0-8-2.2-10.2-5.7
						c-2.2-3.5-2.4-7.7-0.6-11.6l18.3-37.8c3.8-7.9,12-13,20.7-13h463.9c5.9,0,10.7,4.8,10.7,10.7v0.1c0,4.6-3,8.6-7.4,10.1
						c-8.4,2.7-27.8,11.2-27.8,31.1v173.1c0,22.9,6.3,41.8,18.2,54.7c13.6,14.8,34.5,22.3,62.1,22.3c10.5,0,30.7-2.1,47.4-16.4
						c15.6-13.3,23.6-33.2,23.6-59.1V649.2c0-19.9-19.4-28.3-27.8-31.1c-2.6-0.8-4.9-2.8-6.2-5.3c-1.3-2.6-1.5-5.6-0.6-8.4
						c1.5-4.3,5.6-7.2,10.3-7.2h331.3c53.4,0,90.8,13.9,111.3,41.4c10.8,14.5,16.3,32.1,16.3,52.3c0,4.5-0.7,27.9-14.4,50.1
						c-18.5,30-49.6,40.1-76.6,42.6c5,4.1,11.2,9.8,17.7,17.5c9.8,11.5,16.7,23.3,23.4,34.8c6.8,11.6,13.2,22.5,21.8,31.5
						c19,20,54,44.3,67.6,44.3c4.2,0,7.7-3.4,7.7-7.7V708.8c0-0.5-2.2-53.6-51.8-90.9l-0.9-0.7c-1.2-0.9-2.3-1.7-3.5-2.6
						c-4.7-3.6-6.6-9.6-4.7-15.2c1.9-5.7,7.1-9.5,12.9-9.5c1.5,0,2.9,0.2,4.4,0.7c45.4,14.7,109,40,154.2,77.6l145.8,121
						c0.3,0.2,0.5,0.3,0.8,0.3c0.3,0,1.3-0.2,1.3-1.3V649.5c0-19.9-19.4-28.3-27.8-31.1c-5.7-2-8.7-8.1-6.8-13.7
						c1.5-4.3,5.6-7.2,10.3-7.2h99c4.7,0,8.8,2.9,10.3,7.1c1,2.9,0.8,5.9-0.6,8.5c-1.3,2.5-3.6,4.4-6.3,5.2
						c-8.4,2.7-27.7,11.2-27.7,31.1V930c0,4.2-1.7,8.2-4.7,11c-2.8,2.7-6.6,4.2-10.5,4.2c-3.5,0-6.8-1.2-9.6-3.5l-231.4-192.1
						c-0.3-0.2-0.5-0.3-0.8-0.3c-0.3,0-1.3,0.2-1.3,1.3v156.6c0,17.8,16.5,25.5,26.4,28.4c3,0.9,5.6,3.1,7.1,5.9
						c1.5,2.9,1.7,6.2,0.7,9.3c-1.5,4.8-6.1,8-11.4,8H3305c-126,0-187.5-47.2-216.9-86.8c-22.4-30.1-38.9-76.3-48.9-110
						c-0.1-0.3-0.3-0.6-0.3-1l0,0c-1.1-3.7-0.5-7.5,1.7-10.6c2.2-3,5.8-4.9,9.6-4.9c1.8,0,3.5,0.4,5.2,1.2l0.3,0.2
						c6.6,2.3,12.8,2.5,21.5,2.5l3.4,0c7.2,0,19.2-3.4,29.4-13.1c12.8-12.1,19.6-31.1,19.6-55c0-12.2-2.8-29.7-16.3-43.6
						c-9.5-9.9-22.5-15.5-35.5-15.5h-30.6c-7.3,0-21.2,4.1-21.2,19.7v227.2c0,27.8,21.2,38.9,33.9,43c3.4,1.1,6.1,3.6,7.7,6.8
						c1.6,3.3,1.7,6.9,0.4,10.4c-1.9,5.1-6.9,8.4-12.5,8.4h-167.2c-3.9,0-7.6-1.7-10.1-4.8c-2.5-3-3.5-7-2.8-10.9
						c0.9-4.7,4.4-8.5,9.1-10c12.5-4.1,33.5-15.2,33.5-42.9V654.8c0-7.9-2.1-14.6-6.4-19.8c-5-6.1-12.7-9.6-21.3-9.6h-14.6
						c-8.5,0-16.3,3.5-21.3,9.6c-4.2,5.1-6.4,11.8-6.4,19.8v176.7c0,34-15.4,62.7-44.5,83.1c-26,18.2-61.1,28.2-98.8,28.2
						c-59.2,0-101.2-12.2-128.5-37.4c-21.9-20.2-34-49-37-87.9h-0.7V658.4c0-2.6-1.5-5-3.8-6.3c-30-15.7-65-24.5-104.2-26
						c-0.1,0-0.3,0-0.4,0c-3.8,0-6.7,2.9-6.7,6.7v239.4c0,24.5,22.4,35.7,32,39.3c5.3,1.9,8.8,7.3,8.5,13.1
						c-0.3,7-6.3,12.6-13.6,12.6h-280.1c-5.2,0-9.9-3.4-11.6-8.4c-1.5-4.4-0.7-10.9,6-16c2.9-2.2,6.6-3.4,10.3-3.4h0.2
						c9.8,0,15.4-13.3,16.5-19.3c0-0.2,0-0.3,0-0.5c0-0.4,0.1-0.7,0.1-1.1c0.4-4.9-0.6-10.1-2.8-15l-70-155.4l-82.2,155.9
						c-2.4,4.6-3.5,9.7-3.2,15l0.1,1.1c0.2,5.5,0.4,10.7,9.8,19l0.1,0.1c1.3,1.2,2.9,2.6,4.6,4.1l3,2.6v0.3
						c2.8,3.5,3.6,8.3,1.9,12.7c-1.9,5.1-6.7,8.4-12.1,8.4h-107.8c-0.8,30.9-6.1,67.1-33.5,104.3c-28.7,39-79.2,75.7-154.4,112.2
						C1743.1,1155,1740.7,1155.6,1738.2,1155.6z"/>
					<path class="st19" d="M1894.5,381.3c10.1,0,16.2,14.3,6.2,21c-4.1,2.8-7.8,5.3-10.8,7.4c-37.6,26.3-70.5,57.4-70.5,162.3
						c0,114.1,81.7,225.7,103.6,315.5l22.9-43.5l135.4-257c3.1-5.8,8.7-8.6,14.3-8.6c5.9,0,11.9,3.2,14.8,9.5l130.2,288.7
						c5.4,12,14.3,20.5,23.6,26.6c4.1,2.7,8.9,4,13.7,4h14.8c6.9,0,13.5-3,17.9-8.2c5.7-6.7,9.9-15.5,9.9-26.8V632.9
						c0-6.5-5.3-11.7-11.7-11.7c-0.1,0-0.2,0-0.4,0c-60.1,2.3-101.2,21.3-125.7,37.9c-1.3,0.9-2.6,1.2-3.9,1.2
						c-4.7,0-8.8-5-6.3-10.1l18.3-37.8c3-6.2,9.4-10.2,16.3-10.2h113.5h222.8h17h110.6c3.2,0,5.7,2.6,5.7,5.7v0.1
						c0,2.5-1.6,4.6-4,5.4c-9.2,3-31.2,12.7-31.2,35.8v146.6v26.4c0,45.7,23.6,82,85.3,82c33.8,0,76-20.1,76-80.5V649.2
						c0-23.1-22-32.8-31.2-35.8c-2.9-0.9-4.7-4.2-3.6-7.4c0.8-2.3,3.1-3.8,5.6-3.8h48.2h283.2c122.7,0,122.7,75.5,122.7,88.8
						c0,8.9-2.9,88.4-100.9,88.4c0,0,13.3,6.8,28.8,25c19.5,23,27.9,48.2,45.4,66.4c18.6,19.4,55,45.9,71.2,45.9
						c7,0,12.7-5.7,12.7-12.7v-9V708.8c0-6-5.2-58.3-53.8-94.9c-1.5-1.1-2.9-2.1-4.3-3.2c-7.1-5.4-2.6-15.8,5.1-15.8
						c0.9,0,1.9,0.1,2.9,0.5c42.6,13.8,107,38.9,152.5,76.7l145.8,121c1.2,1,2.6,1.5,4,1.5c3.2,0,6.3-2.5,6.3-6.2V649.5
						c0-23.1-22-32.8-31.2-35.8c-2.9-1-4.7-4.2-3.6-7.4c0.8-2.3,3.1-3.8,5.6-3.8h25.5h48h25.5c2.5,0,4.8,1.5,5.6,3.8
						c1.1,3.3-0.7,6.5-3.7,7.4c-9.2,3-31.2,12.7-31.2,35.8V930c0,6.1-4.9,10.2-10.2,10.2c-2.2,0-4.5-0.7-6.5-2.4l-231.4-192.1
						c-1.2-1-2.6-1.5-4-1.5c-3.2,0-6.3,2.5-6.3,6.2v156.6c0,21.6,20.3,30.3,29.9,33.2c3.6,1.1,5.8,5,4.5,8.9
						c-0.9,2.8-3.7,4.6-6.7,4.6H3305c-111.4,0-177.8-37.6-212.8-84.8c-22.5-30.3-39.1-77.9-48.3-109c-0.1,0-0.1-0.2-0.2-0.5
						c-1.5-4.7,2.2-9,6.6-9c1,0,2,0.2,3,0.7c0,0.1,0.1,0.1,0.1,0.1c7.7,2.8,15,3,23.9,3c1.1,0,2.2,0,3.4,0c15.7,0,54-14.3,54-73.1
						c0-40.1-28.3-64.1-56.9-64.1h-30.6c-10.7,0-26.2,6.6-26.2,24.7V666v203.1c0,32,25.7,44,37.3,47.8c4.2,1.4,6.7,6.1,5,10.7
						c-1.2,3.2-4.4,5.2-7.8,5.2h-55.1H2941h-52.7c-5.1,0-9-4.6-8-9.8c0.6-3,2.9-5.3,5.7-6.2c11.8-3.9,37-15.9,37-47.7V654.8
						c0-10.4-3.3-17.8-7.5-22.9c-6.1-7.5-15.5-11.5-25.1-11.5h-14.6c-9.7,0-19.1,4-25.1,11.5c-4.2,5.1-7.5,12.5-7.5,22.9
						c0,0,0,168.3,0,176.7c0,68.9-66.9,106.3-138.3,106.3c-123.2,0-156.8-54.5-160.8-125.3h-0.4V658.4c0-4.5-2.5-8.6-6.5-10.7
						c-24.7-13-59.8-24.7-106.3-26.5c-0.2,0-0.4,0-0.6,0c-6.5,0-11.7,5.1-11.7,11.7v239.4c0,27.3,24.2,39.8,35.2,44
						c3.3,1.2,5.5,4.6,5.3,8.2c-0.2,4.5-4.1,7.9-8.6,7.9h-52.3h-25.5h-86.5h-6.4h-109.4c-6.6,0-11.2-8.9-2.6-15.5
						c2.1-1.6,4.7-2.4,7.3-2.4h0.2c13.1,0,20-15.7,21.4-23.4c0.1-0.5,0.1-1.2,0.2-2c0.5-6-0.7-12.1-3.2-17.6l-74.2-164.7l-87,165
						c-2.8,5.4-4.1,11.5-3.8,17.6c0.3,6.1-0.1,13.3,11.5,23.6c1.5,1.4,3.6,3.3,6,5.4c0,0.1,0.1,0.1,0.1,0.1c5.5,4.9,2,14-5.3,14
						h-85.3h-7h-20.5c-0.9,72.3-24.4,139-185.2,217c-1.6,0.8-3.3,1.1-5,1.1c-4,0-7.8-2.1-9.9-5.7c-3.2-5.5-1.1-12.6,4.5-15.6
						c65.6-35.1,84.9-107.8,82.1-170.3c-5.8-129.9-111-241.6-109-348.1c1.2-63.5,26.4-149.5,173.3-223.5c2.9-1.5,6.3-3.1,10.2-4.9
						C1891.2,381.7,1892.9,381.3,1894.5,381.3 M1894.5,371.4L1894.5,371.4C1894.5,371.4,1894.5,371.4,1894.5,371.4
						c-3.2,0-6.3,0.7-9.3,2.1c-4.1,1.9-7.5,3.5-10.5,5c-35.4,17.9-66,37.5-90.8,58.5c-22.3,18.9-40.6,39.3-54.4,60.7
						c-21.8,34-32.8,71-33.6,113c-1,54.8,24.4,109.4,51.4,167.2c27,57.8,54.8,117.6,57.7,181.5c1,23.1-0.7,57.6-14.6,91.1
						c-13.1,31.3-34,54.8-62.2,69.9c-5.1,2.7-8.9,7.5-10.4,13c-1.6,5.6-0.9,11.4,2,16.4c3.8,6.6,10.9,10.7,18.5,10.7
						c3.2,0,6.4-0.7,9.3-2.1c39.8-19.3,71.9-38.1,98.2-57.6c24.7-18.3,43.7-36.6,58-56.1c26.8-36.4,33-71.7,34.3-102.3h10.8h7h85.3
						c7.5,0,14.1-4.5,16.8-11.6c2.1-5.4,1.4-11.3-1.6-16v-1l-3.4-3c-0.3-0.2-0.5-0.5-0.8-0.7l-1.9-1.7h0c-1.1-1-2.2-2-3.1-2.8
						l-0.1-0.1l-0.1-0.1c-7.8-7-7.9-10.6-8.1-15.5c0-0.4,0-0.8-0.1-1.2c-0.2-4.3,0.7-8.6,2.7-12.4l77.4-146.9l65.8,146.1
						c1.9,4.1,2.7,8.4,2.4,12.5c-0.1,0.5-0.1,0.9-0.1,1.3c0,0,0,0.1,0,0.1c-1,5.4-5.8,15.1-11.6,15.1h-0.2c-4.8,0-9.6,1.6-13.3,4.4
						c-8.8,6.8-9.7,15.6-7.7,21.6c2.4,7,9,11.7,16.3,11.7h109.4h6.4h86.5h25.5h52.3c9.9,0,18.1-7.6,18.5-17.4
						c0.4-7.9-4.4-15.3-11.7-18c-4.1-1.6-11.9-5.1-18.4-11.2c-7-6.6-10.4-14.3-10.4-23.4V632.9c0-1,0.7-1.7,1.7-1.7c0,0,0.1,0,0.1,0
						c38.5,1.5,72.8,10,102.1,25.4c0.7,0.4,1.1,1.1,1.1,1.8v154.2v10h1.1c3.7,37.8,16.2,66.2,38.2,86.5
						c28.2,26.1,71.3,38.7,131.9,38.7c38.7,0,74.9-10.3,101.7-29.1c14.5-10.2,25.9-22.5,33.8-36.6c8.5-15.2,12.8-32.2,12.8-50.6
						V654.8c0-6.8,1.8-12.4,5.2-16.6l0,0l0,0c4-5,10.4-7.8,17.4-7.8h14.6c7,0,13.4,2.8,17.4,7.8c3.5,4.3,5.2,9.9,5.2,16.6v214.2
						c0,11.1-3.6,20-11,27.1c-6.3,6-13.9,9.4-19.1,11.1c-6.3,2.1-11.1,7.3-12.3,13.7l0,0l0,0c-1,5.4,0.4,10.9,3.8,15.1
						c3.4,4.2,8.5,6.6,14,6.6h52.7h59.4h55.1c7.6,0,14.5-4.7,17.1-11.7c1.8-4.8,1.5-9.8-0.6-14.3c-2.1-4.4-6-7.8-10.6-9.3l0,0l0,0
						c-11.4-3.7-30.4-13.7-30.4-38.3V666v-24.1c0-14.6,15.6-14.8,16.3-14.8h30.6c11.7,0,23.4,5.1,32,14c6.8,7,14.9,19.7,14.9,40.2
						c0,22.8-6.1,40.1-18,51.4c-9.8,9.3-20.9,11.8-26,11.8l-1.8,0l-1.7,0c-8.1,0-13.9-0.2-19.7-2.1l-0.1,0c-2.3-1.1-4.8-1.7-7.3-1.7
						c-5.3,0-10.4,2.6-13.6,6.9c-3.2,4.3-4.1,9.7-2.5,14.9c0.1,0.5,0.3,0.9,0.5,1.4c10.1,34,26.8,80.6,49.6,111.3
						c20,27,47.5,48.3,81.8,63.3c38.7,16.9,85.5,25.5,139.1,25.5h47.9c7.4,0,13.9-4.6,16.2-11.5c1.5-4.4,1.1-9.1-1-13.1
						c-2.1-4-5.7-7.1-10-8.4c-3.4-1-9.9-3.4-15.1-7.7c-5.2-4.4-7.8-9.6-7.8-16V758.5l225.3,187.1l0,0l0,0c3.7,3,8.1,4.6,12.8,4.6
						c11.1,0,20.2-9.1,20.2-20.2V649.5c0-7,2.8-12.9,8.7-17.9c5.5-4.7,12.1-7.3,15.6-8.4c4-1.2,7.3-4,9.2-7.7
						c2-3.8,2.3-8.2,0.9-12.3l0-0.1l0-0.1c-2.2-6.3-8.2-10.5-15-10.5h-25.5h-48h-25.5c-6.8,0-12.8,4.2-15,10.5
						c-2.8,8.3,1.5,17.3,9.8,20.1l0.1,0l0.1,0c3.5,1.1,10.2,3.7,15.7,8.4c5.8,5,8.7,10.8,8.7,17.9v130.8l-139.8-116
						c-45.8-38.1-110-63.7-155.8-78.5c-2-0.6-4-0.9-5.9-0.9c-7.9,0-15,5.2-17.6,12.9c-2.6,7.7-0.1,15.8,6.4,20.8
						c1.2,1,2.4,1.8,3.6,2.7l0.9,0.6c18.9,14.2,33,32.6,41.8,54.6c7.5,18.7,7.9,32.2,7.9,32.3v186.3v9c0,1.5-1.2,2.7-2.7,2.7
						c-3.9,0-13.9-3.7-29.2-14c-12.5-8.4-25.9-19.5-34.8-28.8c-8.2-8.6-14.4-19.2-21.1-30.5c-6.8-11.6-13.8-23.6-23.9-35.4
						c-3.5-4.1-6.8-7.6-10-10.7c13.2-2.2,25.1-6.1,35.4-11.7c14.1-7.6,25.5-18.3,33.8-31.8c14.5-23.4,15.2-48.1,15.2-52.8
						c0-21.3-5.8-39.9-17.3-55.3c-9.8-13.1-23.4-23.4-40.5-30.6c-20.1-8.5-45.3-12.8-74.8-12.8h-283.2h-48.2
						c-6.8,0-12.8,4.2-15,10.5c-1.4,4.1-1.1,8.5,0.8,12.3c1.9,3.7,5.2,6.5,9.1,7.8c3.5,1.1,10.1,3.7,15.6,8.4
						c5.8,5,8.7,10.8,8.7,17.9v174.5c0,24.4-7.3,43-21.8,55.3c-11.4,9.7-27.5,15.2-44.2,15.2c-34.4,0-75.3-12.5-75.3-72v-26.4V649.2
						c0-7,2.8-12.9,8.7-17.9c5.5-4.7,12.2-7.3,15.7-8.5l0,0l0,0c6.5-2.2,10.8-8.1,10.8-14.8V608c0-8.6-7-15.7-15.7-15.7h-110.6h-17
						h-222.8h-113.5c-10.7,0-20.6,6.2-25.2,15.8l-18.3,37.8c-2.6,5.4-2.2,11.5,0.9,16.4c3.1,4.9,8.7,8,14.4,8c3.3,0,6.6-1,9.5-2.9
						l0,0l0,0c22.5-15.3,61.7-33.9,120.4-36.2l0,0c0.9,0,1.7,0.8,1.7,1.7v239.4c0,7.8-2.5,14.4-7.5,20.4c-2.5,2.9-6.3,4.7-10.3,4.7
						h-14.8c-3,0-5.8-0.8-8.2-2.3l0,0l0,0c-9.3-6-16-13.6-20-22.4l-130.2-288.7c-4.3-9.5-13.5-15.4-23.8-15.4
						c-9.7,0-18.5,5.3-23.1,13.9l-135.5,257l-11.4,21.6c-9.2-27.7-22.4-56.8-36.2-87.2c-14.6-32.2-29.7-65.5-41.1-99.6
						c-12.8-38.1-19-71.6-19-102.3c0-46.1,6.5-80.8,20-105.9c11.3-21,26.1-34,46.3-48.2c2.1-1.5,4.7-3.3,7.5-5.1l3.1-2.1
						c8-5.4,11.3-14.7,8.6-23.8C1912,377.6,1903.8,371.4,1894.5,371.4L1894.5,371.4L1894.5,371.4z"/>
				</g>
			</g>
			<g>
				<path class="st19" d="M191.8,961.1c-33.7,0-66.8-9-95.7-26c-36.4,5.1-70.9,7.7-102.5,7.7c-8.9,0-17.8-0.2-26.3-0.6
					c-15.6-0.7-27.8-13.9-27.2-29.3c0.6-15.2,13-27.2,28.2-27.2c0.5,0,1,0,1.5,0c7.3,0.4,15.1,0.6,23,0.6c14.7,0,30.5-0.6,46.9-1.9
					c-8.5-11.4-15.6-23.7-21.3-36.7c-1.5,0.4-3,0.7-4.5,1.1c-25.8,5.9-44.4,8.6-60.3,8.6c-29.4,0-48.4-10-56.5-29.7
					c-6.2-15-9.7-38.6,9.4-66.2c19.3-27.7,59.6-55,119.7-81c0.4-0.7,0.8-1.4,1.2-2.1l0.6-1.1c0.6-1,1.2-2,1.8-3l0.3-0.5
					c0.7-1.1,1.4-2.2,2-3.3l0.7-1.1c0.6-0.9,1.2-1.8,1.8-2.7l0.5-0.7c0.7-1.1,1.5-2.1,2.2-3.2l0.7-1c0.6-0.8,1.2-1.7,1.8-2.5
					l0.6-0.9c0.8-1,1.6-2.1,2.4-3.1l0.7-0.9c0.6-0.8,1.3-1.6,1.9-2.4l0.7-0.9c0.8-1,1.7-2,2.5-3l0.6-0.7c0.7-0.8,1.4-1.6,2.1-2.4
					l0.8-0.9c0.9-1,1.8-1.9,2.7-2.8l0.4-0.4c0.8-0.8,1.6-1.6,2.4-2.5l0.9-0.9c0.8-0.8,1.6-1.6,2.5-2.4l0.4-0.4
					c0.9-0.9,1.9-1.8,2.9-2.7l0.9-0.8c0.8-0.7,1.6-1.4,2.4-2.1l0.7-0.6c1-0.8,2-1.7,3-2.5l0.9-0.7c0.8-0.7,1.6-1.3,2.4-2l0.8-0.6
					c1-0.8,2.1-1.6,3.1-2.4l0.8-0.6c0.8-0.6,1.7-1.2,2.5-1.9l0.9-0.7c1.1-0.8,2.1-1.5,3.2-2.2l0.7-0.4c0.9-0.6,1.8-1.2,2.8-1.8
					l1-0.6c1.1-0.7,2.2-1.4,3.4-2.1L94,610c1.1-0.6,2.1-1.3,3.2-1.9l1-0.6c1-0.6,2.1-1.2,3.1-1.7l0.5-0.2c1.2-0.6,2.3-1.3,3.5-1.9
					l1-0.5c1-0.5,2-1,3-1.5l0.7-0.4c1.2-0.6,2.4-1.1,3.6-1.7l1-0.4c1-0.4,2-0.9,3-1.3l0.9-0.4c1.2-0.5,2.5-1,3.7-1.5l0.8-0.3
					c1-0.4,2.1-0.8,3.1-1.2l1-0.4c1.3-0.5,2.5-0.9,3.8-1.3l0.6-0.2c1.1-0.4,2.2-0.7,3.4-1.1l1.1-0.3c1.3-0.4,2.6-0.8,3.9-1.2l0.1,0
					c1.3-0.4,2.6-0.7,3.9-1.1l1.1-0.3c1.2-0.3,2.4-0.6,3.6-0.9l0.5-0.1c1.4-0.3,2.7-0.6,4.1-0.9l1.1-0.2c1.1-0.2,2.3-0.4,3.4-0.7
					l0.8-0.1c1.4-0.2,2.7-0.5,4.1-0.7l1-0.1c1.1-0.2,2.3-0.3,3.4-0.5l1-0.1c1.4-0.2,2.8-0.3,4.2-0.5l0.8-0.1
					c1.2-0.1,2.4-0.2,3.5-0.3l1.1-0.1c1.4-0.1,2.8-0.2,4.2-0.3l0.6,0c1.3-0.1,2.5-0.1,3.8-0.1l1.1,0c1.4,0,2.9-0.1,4.3-0.1
					c1.8,0,3.6,0,5.8,0.1c0.4,0,0.8,0,1.3,0l0.5,0c1.4,0.1,2.8,0.1,4.2,0.2l0.3,0c0.5,0,1,0.1,1.5,0.1c1.6,0.1,3.3,0.3,4.9,0.4
					l0.8,0.1c1.8,0.2,3.6,0.4,5.6,0.7c0.3,0,1.6,0.2,1.6,0.2c1.4,0.2,2.7,0.4,4.1,0.6c0.6,0.1,1.2,0.2,1.8,0.3
					c1.5,0.3,2.9,0.5,4.4,0.8c0,0,0.9,0.2,1.1,0.2c1.8,0.4,3.6,0.8,5.4,1.2c0.3,0.1,1.4,0.3,1.4,0.3c1.4,0.3,2.7,0.7,4.1,1
					c0.6,0.2,1.1,0.3,1.7,0.5c1.4,0.4,2.7,0.8,4.1,1.2c0,0,1,0.3,1.3,0.4c1.8,0.6,3.5,1.1,5.2,1.7c0.2,0.1,1.1,0.4,1.1,0.4
					c1.4,0.5,2.8,1,4.1,1.5c0.5,0.2,1.1,0.4,1.6,0.6c1.3,0.5,2.5,1,3.8,1.5c0,0,1.1,0.4,1.4,0.6c1.8,0.7,3.4,1.5,5,2.2l0.7,0.3
					c1.4,0.7,2.9,1.3,4.3,2c0.4,0.2,1.5,0.8,1.5,0.8c1.2,0.6,2.4,1.2,3.5,1.8c0,0,1.1,0.6,1.4,0.8c1.1,0.6,2.2,1.2,3.2,1.7
					c40.9-6.7,78.2-10.3,107.8-10.3c4.4,0,8.7,0.1,12.8,0.2c7.6,0.3,14.5,3.5,19.7,9c5.1,5.5,7.8,12.7,7.5,20.3
					c-0.6,15.2-13,27.2-28.2,27.2c-0.4,0-0.7,0-1.1,0c-3.5-0.1-7.3-0.2-11.1-0.2c-14.8,0-31.7,1-50.3,2.9
					c7.2,9.3,13.6,19.3,18.9,29.7c21.8-4.4,39.9-6.5,55.1-6.5c19.2,0,34.1,3.4,45.5,10.3c13.3,8,21.6,20.2,24,35.5
					c3.6,22.4-4.4,44.8-24.1,66.7c-20.5,22.9-55.5,46.3-101.4,67.8c-15.6,29.8-39,55-67.6,72.9C261.9,951.2,227.3,961.1,191.8,961.1
					z M3.5,754.1C-21.5,768-39,781.6-47.3,793.5c-0.9,1.4-1.7,2.7-2.3,3.9l0,0.1c-0.3,0.5-0.3,1.5,0.1,2.2c0.1,0.3,0.6,1,2.4,1.2
					c1.2,0.1,2.5,0.2,3.9,0.2c10.3,0,26.1-2.7,47.2-7.9C3.1,786,2.7,779,2.7,772C2.7,766,3,760.1,3.5,754.1z M378.3,740
					c1.8,10.5,2.7,21.2,2.7,31.9c0,4.2-0.1,8.5-0.4,12.8c16.8-10.4,29.7-20.6,38.5-30.5c4.8-5.4,8.1-10.4,9.6-14.6
					c0.3-0.9,0-1.6-0.2-2c-0.2-0.4-0.7-1-1.7-1.1c-2.9-0.5-6.4-0.7-10.5-0.7C406.3,735.9,393.5,737.3,378.3,740z"/>
				<path class="st19" d="M191.8,587.8c1.9,0,3.8,0,5.6,0.1c0.6,0,1.1,0,1.7,0.1c1.4,0.1,2.7,0.1,4.1,0.2c0.6,0,1.2,0.1,1.7,0.1
					c1.6,0.1,3.2,0.2,4.8,0.4c0.2,0,0.5,0,0.7,0.1c1.8,0.2,3.7,0.4,5.5,0.6c0.5,0.1,1,0.1,1.5,0.2c1.3,0.2,2.7,0.4,4,0.6
					c0.6,0.1,1.1,0.2,1.7,0.3c1.4,0.2,2.9,0.5,4.3,0.8c0.4,0.1,0.7,0.1,1.1,0.2c1.8,0.4,3.5,0.7,5.3,1.2c0.4,0.1,0.9,0.2,1.3,0.3
					c1.3,0.3,2.7,0.7,4,1c0.6,0.1,1.1,0.3,1.7,0.5c1.3,0.4,2.6,0.7,3.9,1.1c0.4,0.1,0.9,0.3,1.3,0.4c1.7,0.5,3.4,1.1,5.1,1.6
					c0.4,0.1,0.7,0.2,1.1,0.4c1.3,0.5,2.7,0.9,4,1.4c0.5,0.2,1.1,0.4,1.6,0.6c1.2,0.5,2.5,1,3.7,1.5c0.5,0.2,0.9,0.4,1.4,0.6
					c1.6,0.7,3.3,1.4,4.9,2.1c0.2,0.1,0.4,0.2,0.7,0.3c1.4,0.6,2.8,1.3,4.2,2c0.5,0.2,1,0.5,1.5,0.7c1.2,0.6,2.3,1.2,3.4,1.8
					c0.5,0.2,0.9,0.5,1.4,0.7c1.6,0.8,3.1,1.7,4.6,2.6c0,0,0,0,0,0c40.9-6.8,78.4-10.5,108.7-10.5c4.4,0,8.6,0.1,12.6,0.2
					c12.9,0.5,22.8,11.3,22.3,24.1c-0.5,12.6-10.8,22.4-23.2,22.4c-0.3,0-0.6,0-0.9,0c-3.6-0.1-7.4-0.2-11.3-0.2
					c-17.5,0-37.8,1.4-60,4c10.2,11.9,18.9,25.1,25.8,39.3c22.3-4.6,41.6-7.1,57.9-7.1c17.8,0,32.1,3,42.9,9.6
					c12,7.2,19.5,18.3,21.6,32c3.4,20.8-4.3,41.9-22.8,62.5c-20.5,23-55.7,46.1-101.4,67.3c-30.5,59.5-92.5,100.3-164,100.3
					c-34.6,0-67-9.6-94.7-26.2c-36.5,5.2-71.5,7.9-103.6,7.9c-8.9,0-17.6-0.2-26-0.6c-12.8-0.6-22.9-11.3-22.4-24.1
					c0.5-12.5,10.8-22.4,23.2-22.4c0.4,0,0.8,0,1.3,0c7.5,0.4,15.3,0.6,23.3,0.6c17.8,0,36.7-0.9,56.5-2.7
					c-11.5-14-21-29.8-27.9-46.8c-2.9,0.7-5.7,1.4-8.5,2c-20.2,4.7-41,8.5-59.2,8.5c-24,0-43.7-6.6-51.9-26.6
					c-5.8-13.9-8.9-35.8,8.9-61.5c22-31.5,69.8-58.7,119.2-79.9c0,0,0,0,0,0c0,0,0,0,0,0c0,0,0,0,0-0.1c0.1-0.2,0.2-0.4,0.3-0.6
					c0.5-1,1.1-1.9,1.6-2.8c0.2-0.4,0.4-0.7,0.6-1.1c0.6-1,1.2-2,1.7-2.9c0.1-0.2,0.2-0.3,0.3-0.5c0.7-1.1,1.3-2.1,2-3.2
					c0.2-0.3,0.4-0.7,0.7-1c0.6-0.9,1.1-1.7,1.7-2.6c0.2-0.2,0.3-0.5,0.5-0.7c0.7-1,1.4-2.1,2.1-3.1c0.2-0.3,0.5-0.6,0.7-1
					c0.6-0.8,1.2-1.6,1.8-2.4c0.2-0.3,0.4-0.6,0.6-0.8c0.8-1,1.5-2,2.3-3c0.2-0.3,0.4-0.6,0.7-0.8c0.6-0.8,1.2-1.5,1.9-2.3
					c0.2-0.3,0.5-0.6,0.7-0.9c0.8-1,1.6-1.9,2.4-2.9c0.2-0.2,0.4-0.5,0.6-0.7c0.7-0.8,1.4-1.5,2-2.3c0.3-0.3,0.5-0.6,0.8-0.9
					c0.9-0.9,1.7-1.9,2.6-2.8c0.1-0.1,0.3-0.3,0.4-0.4c0.8-0.8,1.5-1.6,2.3-2.4c0.3-0.3,0.6-0.6,0.9-0.9c0.8-0.8,1.6-1.6,2.4-2.4
					c0.1-0.1,0.3-0.3,0.4-0.4c0.9-0.9,1.8-1.7,2.8-2.6c0.3-0.3,0.6-0.5,0.9-0.8c0.8-0.7,1.6-1.4,2.3-2.1c0.2-0.2,0.4-0.4,0.6-0.6
					c1-0.8,1.9-1.6,2.9-2.5c0.3-0.2,0.6-0.5,0.9-0.7c0.8-0.6,1.6-1.3,2.4-1.9c0.3-0.2,0.5-0.4,0.8-0.6c1-0.8,2-1.6,3-2.3
					c0.3-0.2,0.5-0.4,0.8-0.6c0.8-0.6,1.6-1.2,2.5-1.8c0.3-0.2,0.6-0.4,0.9-0.6c1-0.7,2.1-1.5,3.1-2.2c0.2-0.1,0.4-0.3,0.6-0.4
					c0.9-0.6,1.8-1.2,2.7-1.8c0.3-0.2,0.6-0.4,1-0.6c1.1-0.7,2.2-1.4,3.3-2c0.1-0.1,0.2-0.1,0.3-0.2c1-0.6,2-1.2,3.1-1.8
					c0.3-0.2,0.7-0.4,1-0.6c1-0.6,2-1.1,3-1.7c0.1-0.1,0.3-0.2,0.4-0.2c1.1-0.6,2.3-1.2,3.4-1.8c0.3-0.2,0.6-0.3,1-0.5
					c1-0.5,1.9-1,2.9-1.4c0.2-0.1,0.5-0.2,0.7-0.3c1.2-0.6,2.3-1.1,3.5-1.6c0.3-0.1,0.6-0.3,0.9-0.4c1-0.4,1.9-0.9,2.9-1.3
					c0.3-0.1,0.6-0.3,0.9-0.4c1.2-0.5,2.4-1,3.6-1.5c0.3-0.1,0.5-0.2,0.8-0.3c1-0.4,2-0.8,3-1.2c0.3-0.1,0.7-0.2,1-0.4
					c1.2-0.4,2.5-0.9,3.7-1.3c0.2-0.1,0.4-0.1,0.6-0.2c1.1-0.4,2.2-0.7,3.3-1.1c0.3-0.1,0.7-0.2,1-0.3c1.3-0.4,2.6-0.8,3.8-1.1
					c0.1,0,0.1,0,0.2,0c1.2-0.4,2.5-0.7,3.7-1c0.4-0.1,0.7-0.2,1.1-0.3c1.2-0.3,2.3-0.6,3.5-0.9c0.2,0,0.3-0.1,0.5-0.1
					c1.3-0.3,2.6-0.6,3.9-0.9c0.3-0.1,0.7-0.1,1-0.2c1.1-0.2,2.2-0.4,3.3-0.6c0.3,0,0.5-0.1,0.8-0.1c1.3-0.2,2.7-0.5,4-0.7
					c0.3,0,0.6-0.1,1-0.1c1.1-0.2,2.2-0.3,3.3-0.5c0.3,0,0.6-0.1,0.9-0.1c1.4-0.2,2.7-0.3,4.1-0.5c0.3,0,0.5-0.1,0.8-0.1
					c1.1-0.1,2.3-0.2,3.4-0.3c0.4,0,0.7-0.1,1.1-0.1c1.4-0.1,2.8-0.2,4.1-0.3c0.2,0,0.4,0,0.6,0c1.2-0.1,2.5-0.1,3.7-0.1
					c0.4,0,0.7,0,1.1,0C189,587.8,190.4,587.8,191.8,587.8 M374.7,794.1c21-12.2,37.4-24.6,48.1-36.5c3.4-3.8,8.4-10,10.6-16.3
					c1.5-4.3-1.2-8.9-5.7-9.7c-2.7-0.5-6.4-0.8-11.4-0.8c-9.4,0-23.3,1.2-43.8,5.2c2.3,11.6,3.5,23.6,3.5,35.9
					C376,779.5,375.5,786.8,374.7,794.1 M-43.3,806c10.1,0,26.5-2.4,52.7-9.1c-1.1-8.1-1.7-16.4-1.7-24.9c0-9.1,0.7-18.1,1.9-26.8
					c-29.9,15.7-51.2,31.3-61,45.5c-1.1,1.6-2,3.1-2.7,4.5c-2,3.8-0.4,10.1,6.4,10.7C-46.4,805.9-44.9,806-43.3,806 M191.8,577.8
					c-1.3,0-2.8,0-4.5,0.1c-0.4,0-0.8,0-1.2,0c-1.3,0-2.7,0.1-3.9,0.1l-0.2,0l-0.4,0c-1.4,0.1-2.8,0.2-4.4,0.3c-0.3,0-0.6,0-0.9,0.1
					l-0.2,0c-1.2,0.1-2.4,0.2-3.6,0.3l-0.3,0l-0.6,0.1c-1.4,0.1-2.8,0.3-4.3,0.5l-0.7,0.1l-0.3,0c-1.2,0.2-2.3,0.3-3.5,0.5l-0.3,0
					c-0.2,0-0.5,0.1-0.7,0.1c-1.4,0.2-2.9,0.5-4.2,0.7l-0.5,0.1l-0.3,0.1c-1.1,0.2-2.3,0.4-3.5,0.7l-0.2,0c-0.3,0.1-0.6,0.1-0.9,0.2
					c-1.5,0.3-2.9,0.6-4.2,0.9l-0.4,0.1l-0.1,0c-1.2,0.3-2.4,0.6-3.7,0.9c-0.4,0.1-0.7,0.2-1.1,0.3c-1.5,0.4-2.8,0.7-4,1.1l-0.2,0.1
					c-1.2,0.3-2.5,0.7-4,1.2c-0.4,0.1-0.7,0.2-1.1,0.3c-1.2,0.4-2.3,0.7-3.4,1.1l-0.2,0.1l-0.4,0.1c-1.2,0.4-2.5,0.9-3.9,1.4
					c-0.3,0.1-0.5,0.2-0.8,0.3l-0.2,0.1c-1.1,0.4-2.1,0.8-3.2,1.2l-0.3,0.1c-0.2,0.1-0.4,0.1-0.6,0.2c-1.3,0.5-2.5,1-3.8,1.6
					c-0.2,0.1-0.4,0.2-0.6,0.3l-0.3,0.1c-1,0.4-2.1,0.9-3.1,1.3l-0.3,0.1c-0.2,0.1-0.4,0.2-0.7,0.3c-1.3,0.6-2.5,1.2-3.7,1.7
					c-0.2,0.1-0.3,0.2-0.5,0.2l-0.2,0.1c-1,0.5-2.1,1-3.1,1.5l-0.1,0c-0.3,0.2-0.6,0.3-1,0.5c-1.4,0.7-2.5,1.3-3.6,1.9l-0.3,0.2
					l-0.1,0.1c-1,0.6-2.1,1.1-3.2,1.8c-0.3,0.2-0.7,0.4-1,0.6c-1.2,0.7-2.2,1.3-3.2,1.9l-0.1,0l-0.3,0.2c-1.1,0.6-2.2,1.3-3.5,2.2
					c-0.3,0.2-0.7,0.4-1,0.6c-1,0.6-1.9,1.3-2.9,1.9l-0.2,0.1c-0.2,0.1-0.3,0.2-0.5,0.3c-1,0.7-2.1,1.5-3.3,2.3
					c-0.2,0.2-0.5,0.3-0.7,0.5l-0.2,0.2c-0.9,0.6-1.7,1.3-2.6,1.9l-0.3,0.2c-0.2,0.1-0.4,0.3-0.6,0.4c-1.1,0.8-2.1,1.6-3.2,2.4
					c-0.2,0.2-0.4,0.3-0.6,0.5l-0.2,0.2c-0.8,0.7-1.7,1.3-2.5,2l-0.2,0.2c-0.2,0.2-0.4,0.4-0.7,0.5c-1.1,0.9-2.1,1.8-3.1,2.6
					c-0.1,0.1-0.3,0.3-0.4,0.4l-0.2,0.2c-0.8,0.7-1.7,1.5-2.5,2.2c-0.3,0.3-0.6,0.6-0.9,0.8c-1.1,1-2.1,1.9-2.9,2.7l-0.3,0.3
					l-0.1,0.1c-0.9,0.8-1.7,1.6-2.5,2.5c-0.3,0.3-0.6,0.6-0.9,0.9c-0.8,0.8-1.6,1.7-2.5,2.5l-0.1,0.2l-0.3,0.3
					c-0.8,0.9-1.7,1.8-2.7,2.9c-0.3,0.3-0.5,0.6-0.7,0.8l-0.1,0.1c-0.7,0.8-1.4,1.6-2.2,2.4l-0.2,0.2c-0.1,0.2-0.3,0.3-0.4,0.5
					c-0.8,1-1.7,1.9-2.6,3c-0.2,0.2-0.4,0.5-0.6,0.7l-0.2,0.3c-0.7,0.8-1.3,1.6-2,2.4l-0.2,0.2c-0.2,0.2-0.4,0.4-0.5,0.7
					c-0.8,1-1.6,2.1-2.4,3.1c-0.2,0.2-0.3,0.4-0.4,0.6l-0.2,0.3c-0.6,0.8-1.2,1.7-1.8,2.5l-0.2,0.2c-0.2,0.3-0.4,0.5-0.5,0.8
					c-0.8,1.2-1.6,2.2-2.3,3.3c-0.1,0.2-0.2,0.3-0.3,0.5l-0.2,0.3c-0.6,0.9-1.2,1.8-1.8,2.7c-0.2,0.4-0.5,0.7-0.7,1.1
					c-0.8,1.3-1.5,2.4-2.1,3.4l-0.2,0.3l-0.1,0.1c-0.6,1-1.2,2-1.8,3.1c-0.2,0.4-0.4,0.8-0.7,1.1c-0.1,0.2-0.2,0.4-0.4,0.6
					c-60.2,26.2-100.6,53.8-120.3,82c-9,13-14.1,26.5-15,40.1c-0.7,10.5,1,20.9,5.1,30.8c9,21.7,29.6,32.8,61.1,32.8
					c16.3,0,35.2-2.7,61.4-8.7c0.2,0,0.3-0.1,0.5-0.1c4.3,9.3,9.3,18.1,15,26.6c-13.1,0.9-25.8,1.3-37.7,1.3
					c-7.9,0-15.5-0.2-22.8-0.6c-0.6,0-1.2,0-1.8,0c-17.9,0-32.4,14-33.1,32c-0.7,18.2,13.6,33.6,31.9,34.5
					c8.6,0.4,17.5,0.6,26.5,0.6c31.3,0,65.5-2.5,101.5-7.5c29.3,16.9,62.7,25.8,96.7,25.8c36.4,0,71.9-10.1,102.6-29.3
					c28.9-18,52.6-43.3,68.6-73.3c45.8-21.6,80.8-45.1,101.5-68.3c20.7-23,29.2-46.8,25.3-70.8c-2.7-16.7-11.8-30.2-26.4-39
					c-12.2-7.4-27.9-11-48.1-11c-14.7,0-32,1.9-52.5,5.9c-3.7-6.9-7.8-13.6-12.4-20c15-1.4,28.8-2,41.1-2c3.8,0,7.5,0.1,10.9,0.2
					c0.4,0,0.9,0,1.3,0c17.9,0,32.5-14,33.2-32c0.3-8.9-2.8-17.4-8.8-23.9c-6-6.5-14.2-10.3-23.1-10.6c-4.1-0.2-8.5-0.2-13-0.2
					c-29.4,0-66.3,3.5-106.9,10c-0.6-0.3-1.1-0.6-1.7-0.9c-0.4-0.2-0.7-0.4-1.1-0.6l-0.4-0.2c-1.2-0.6-2.4-1.3-3.6-1.9l-0.2-0.1
					c-0.4-0.2-0.9-0.5-1.4-0.7c-1.5-0.7-2.9-1.4-4.4-2.1l-0.2-0.1c-0.2-0.1-0.3-0.2-0.5-0.2c-1.6-0.7-3.3-1.5-5.1-2.2
					c-0.3-0.1-0.7-0.3-1-0.4l-0.5-0.2c-1.3-0.5-2.6-1.1-3.9-1.5c-0.6-0.2-1.1-0.4-1.7-0.6c-1.4-0.5-2.8-1-4.2-1.5l-0.4-0.1
					c-0.2-0.1-0.5-0.2-0.7-0.3c-1.7-0.6-3.5-1.2-5.4-1.7c-0.3-0.1-0.6-0.2-0.9-0.3l-0.5-0.1c-1.4-0.4-2.8-0.8-4.2-1.2
					c-0.6-0.2-1.2-0.3-1.8-0.5c-1.3-0.4-2.8-0.7-4.2-1.1l-0.5-0.1c-0.3-0.1-0.6-0.2-0.9-0.2c-1.9-0.4-3.8-0.9-5.6-1.2
					c-0.3-0.1-0.5-0.1-0.8-0.1l-0.4-0.1c-1.5-0.3-3.1-0.6-4.5-0.8c-0.6-0.1-1.2-0.2-1.8-0.3c-1.4-0.2-2.8-0.4-4.2-0.6l-0.5-0.1
					c-0.4-0.1-0.7-0.1-1.1-0.2c-2-0.3-3.9-0.5-5.8-0.7c-0.2,0-0.4,0-0.6-0.1l-0.2,0c-1.6-0.2-3.3-0.3-5.1-0.4c-0.5,0-1-0.1-1.5-0.1
					l-0.3,0c-1.4-0.1-2.8-0.2-4.3-0.2l-0.5,0c-0.4,0-0.9,0-1.3,0C195.6,577.9,193.6,577.8,191.8,577.8L191.8,577.8z M384,744.1
					c12.8-2.2,23.7-3.3,32.3-3.3c2.3,0,4.4,0.1,6.3,0.2c-1.6,2.9-4.1,6.3-7.2,9.9c-7,7.9-16.9,16-29.4,24.4c0-1.1,0-2.3,0-3.4
					C386,762.7,385.3,753.3,384,744.1L384,744.1z M-42.9,796c5.2-7.3,16.4-18.5,40.9-32.9c-0.1,3-0.2,5.9-0.2,8.9
					c0,5.7,0.3,11.5,0.8,17.3C-24,794.6-36.4,795.9-42.9,796L-42.9,796z"/>
			</g>
		</g>
		<g>
			<g>
				
					<linearGradient id="SVGID_00000158723888684941617130000016447265026451516807_" gradientUnits="userSpaceOnUse" x1="6030.3643" y1="1259.3596" x2="6030.3643" y2="2028.6" gradientTransform="matrix(1 0 0 -1 -4213.2275 2409.9414)">
					<stop  offset="0.3079" style="stop-color:#000000"/>
					<stop  offset="0.3997" style="stop-color:#1B0007"/>
					<stop  offset="0.5976" style="stop-color:#610018"/>
					<stop  offset="0.8838" style="stop-color:#CE0033"/>
					<stop  offset="1" style="stop-color:#FD003E"/>
				</linearGradient>
				<path style="fill:url(#SVGID_00000158723888684941617130000016447265026451516807_);" d="M1879.2,387.4
					c2.9-1.5,6.3-3.1,10.2-4.9c12.8-6,22.9,12,11.3,19.8c-4.1,2.8-7.8,5.3-10.8,7.4c-37.6,26.3-70.5,57.4-70.5,162.3
					c0,131.8,109,260.2,109,355.7c0,74.1-20.9,142-185.2,221.7c-5.4,2.6-11.9,0.6-14.9-4.6l0,0c-3.2-5.5-1.1-12.6,4.5-15.6
					c65.6-35.1,84.9-107.8,82.1-170.3c-5.8-129.9-111-241.6-109-348.1C1707.1,547.4,1732.3,461.4,1879.2,387.4z"/>
				<path d="M1776.6,916.8c-9.3-3.5-28.2-13.5-40.1-39.8l-130.2-288.7c-5.5-12.3-22.7-12.8-29-0.9L1481,770.3
					c-5,9.5-14.9,15.5-25.5,15.5h-115.6h-3.9c-3.9,0-7.8,3.1-8.4,6.9c-0.8,5,2.8,9.2,7.6,9.6c32.1,2.9,51.4,24.3,51.1,58.9
					c-0.2,31.9-26.8,58-58.8,58h-8.4c-85.6,0-89.3-98.3-89.3-119.8c0-25,0-75.2,0-75.2c0-36.9,14.9-101.7,87-101.7
					c67.3,0,105.2,31,136,72.1c5.1,6.8,15.8,1.2,13.2-6.9l-27-84.7c-2.6-8.2-12.2-11.8-19.5-7.3c-19.8,12.2-31.5,10.2-31.5,10.2
					c-9.8,0.3-40.9-8.6-78.7-8.6c-60.3,0-109,23.9-142.4,56.2c-3.3,3.2-8.8,2.1-10.5-2.2l-20-48.8H954.2v-0.1h-89.4
					c-5.7,0-11.3-0.2-17-0.5c-30.6-1.7-138.2-7.3-193.3-7.3c-69,0-123.1,21.6-128.6,72.5c-4.1,38.3,22.4,58.2,37.7,72.2
					c8.3,7.6,47,32.1,66.9,41.3c20.7,9.6,103.5,51.1,95,84c-8.6,32.6-36.5,40.6-68.8,40.6c-50.7,0-105.1-42-145.4-79.6
					c-7-6.6-17.9,1.6-13.5,10.2c16.7,32.6,38,72.2,52,93.2c4,5.9,11.2,8.8,18.2,7c15.1-3.8,34.5-5.8,46.4-5.2
					c15.3,0.7,47.1,4.9,61,4.9c116.1,0,152.5-30.5,156.3-83.5c5.2-72.8-81.7-121.3-134.7-142.5c-47.3-19.1-65.6-47.8-63.6-62
					c3.3-24.7,26.8-28.9,46.6-28.1c61,2.3,176.2,32.1,176.2,74c0,0,0,186.2,0,194.4c0,10.9-11.9,30.4-26.8,30.4h-0.3
					c-2.7,0-5.4,1-7.4,2.9c-5.2,5.2-1.6,11.4,3.4,11.4H890l0,0h64.2h183.3c5.9,0,11.1-3.5,13.4-9l10-24.3c1.9-4.7,7.9-6.1,11.7-2.7
					c32.7,29.5,80.6,48.1,146,48.1c15.3,0,46.9-4.2,61.6-9.6c4.7-1.7,9.7-2.6,14.7-2.6h122.6h19.7c7.3,0,10.8-9.1,5.3-14
					c-2.4-2.1-4.6-4.1-6.1-5.5c-11.7-10.6-11.2-17.8-11.5-23.8c-0.3-6,1-12,3.8-17.4l86.9-165l74.2,164.7c2.5,5.5,3.7,11.6,3.2,17.6
					c-0.1,0.8-0.1,1.5-0.2,2c-1.4,7.8-8.4,23.4-21.4,23.4h-2.1c-3.2,0-6.4,1.1-8.8,3.2c-7.3,6.5-2.8,14.7,3.6,14.7h109.8
					c5.1,0,9.1-4.6,8.1-9.8C1781.5,920,1779.4,917.8,1776.6,916.8z M1138.9,687.4c-15,23.5-23,48.5-23,70.4
					c0,29.2,5.4,57.8,16.8,83.4c2.5,5.6,1.4,12.2-2.9,16.6c-21,21.3-67,51.1-132.8,51.1h-16.1c-14.7,0-26.5-11.9-26.5-26.5v-89.5
					v-4.8c0-5,7.5-11.2,15.9-9.5c12.9,2.5,35.5,10.6,53.6,21c12.7,7.4,24.1,15.1,37.3,25.9c5.8,4.8,14.6,0.6,14.6-6.9v-28.1V735
					v-28.1c0-7.5-8.8-11.7-14.6-6.9c-13.2,10.9-24.6,18.6-37.3,25.9c-18.1,10.4-41.4,21.3-54.2,24.3c-9.9,2.3-13.4-1.6-15.3-5.3
					v-5.4v-87.8c0-14,11.4-25.3,25.3-25.3h32.5c53.3,0,101.8,30.5,125.2,50.7C1140.3,679.7,1141,684.2,1138.9,687.4z"/>
				<path d="M3618.4,606.4c-0.8-2.3-3.1-3.8-5.6-3.8h-25.5h-48h-25.5c-2.5,0-4.8,1.5-5.6,3.8c-1.1,3.2,0.7,6.4,3.6,7.4
					c9.2,3,31.2,12.7,31.2,35.8v138.7c0,5.3-6.2,8.2-10.3,4.8l-145.8-121c-45.5-37.8-109.9-62.9-152.5-76.7c-9.4-3-15.9,9.4-8,15.4
					c1.4,1.1,2.8,2.1,4.3,3.2c48.6,36.5,53.8,88.9,53.8,94.9v186.3v9c0,7-5.7,12.7-12.7,12.7c-16.3,0-52.7-26.4-71.2-45.9
					c-17.5-18.3-25.8-43.4-45.4-66.4c-15.6-18.3-28.8-25-28.8-25c98,0,100.9-79.5,100.9-88.4c0-13.3,0-88.8-122.7-88.8h-283.2h-48.2
					c-2.5,0-4.8,1.5-5.6,3.8c-1.1,3.2,0.7,6.5,3.6,7.4c9.2,3,31.2,12.7,31.2,35.8v174.5c0,60.3-42.2,80.5-76,80.5
					c-61.6,0-85.3-36.3-85.3-82v-26.4l0,0V649.2c0-23.1,22-32.8,31.2-35.8c2.4-0.8,4-2.9,4-5.4V608c0-3.1-2.5-5.7-5.7-5.7h-110.6
					h-17h-222.8h-113.5c-6.9,0-13.3,4-16.3,10.2l-18.3,37.8c-3.1,6.5,4.3,12.9,10.3,8.9c24.4-16.6,65.5-35.6,125.7-37.9
					c6.6-0.2,12.1,5.1,12.1,11.7v239.4c0,11.4-4.2,20.1-9.9,26.8c-4.4,5.2-11,8.2-17.9,8.2h-14.8c-4.8,0-9.6-1.3-13.7-4
					c-9.4-6.1-18.3-14.7-23.6-26.6L2110.4,588c-5.6-12.3-22.7-12.8-29-0.9l-135.4,257l-39.1,74.1l2.7,14.2h39.3h7h85.3l0,0
					c7.3,0,10.8-9.1,5.3-14c0,0-0.1,0-0.1-0.1c-2.4-2.1-4.5-4-6-5.4c-11.6-10.4-11.2-17.6-11.5-23.6c-0.3-6.1,1-12.2,3.8-17.6
					l87-165l74.2,164.7c2.5,5.5,3.7,11.6,3.2,17.6c-0.1,0.8-0.1,1.5-0.2,2c-1.4,7.8-8.4,23.4-21.4,23.4h-0.2c-2.6,0-5.2,0.8-7.3,2.4
					c-8.6,6.6-4,15.5,2.6,15.5h109.4h6.4h86.5h25.5h52.3c4.5,0,8.4-3.4,8.6-7.9c0.2-3.6-2-7-5.3-8.2c-11-4.2-35.2-16.7-35.2-44
					V632.9c0-6.8,5.5-12,12.3-11.7c46.5,1.8,81.6,13.6,106.3,26.5c4,2.1,6.5,6.2,6.5,10.7v154.2h0.4c4,70.8,37.6,125.3,160.8,125.3
					c71.4,0,138.3-37.4,138.3-106.3c0-8.5,0-176.7,0-176.7c0-10.5,3.3-17.9,7.5-22.9c6.1-7.5,15.5-11.5,25.1-11.5h14.6
					c9.7,0,19.1,4,25.1,11.5c4.2,5.2,7.5,12.6,7.5,22.9v214.2c0,31.8-25.2,43.8-37,47.7c-2.8,0.9-5.1,3.2-5.7,6.2
					c-1,5.2,2.9,9.8,8,9.8h52.7h59.4h55.1c3.4,0,6.6-2,7.8-5.2c1.7-4.6-0.8-9.3-5-10.7c-11.6-3.8-37.3-15.8-37.3-47.8V666v-24.1
					c0-18.2,15.6-24.7,26.2-24.7h30.6c28.5,0,56.9,24,56.9,64.1c0,58.8-38.3,73.1-54,73.1c-10.5,0-18.7,0.2-27.3-3
					c0,0-0.1,0-0.1-0.1c-5.5-2.6-11.4,2.5-9.6,8.3c0.1,0.3,0.1,0.5,0.2,0.5c9.2,31.1,25.7,78.7,48.3,109
					c35,47.2,101.4,84.8,212.8,84.8h47.9c3,0,5.8-1.8,6.7-4.6c1.3-3.9-0.9-7.8-4.5-8.9c-9.6-2.9-29.9-11.6-29.9-33.2V750.6
					c0-5.3,6.2-8.2,10.3-4.8l231.4,192.1c6.7,5.5,16.7,0.8,16.7-7.9V649.5c0-23.1,22-32.8,31.2-35.8
					C3617.7,612.8,3619.5,609.7,3618.4,606.4z"/>
			</g>
			<g>
				<g>
					<defs>
						<circle id="SVGID_00000162334634548112563720000012376437488871754165_" cx="191.8" cy="772" r="184.2"/>
					</defs>
					<clipPath id="SVGID_00000066517556225365432330000005317712683691720604_">
						<use xlink:href="#SVGID_00000162334634548112563720000012376437488871754165_"  style="overflow:visible;"/>
					</clipPath>
				</g>
				<g>
					<defs>
						<path id="SVGID_00000105385708669050946060000011205257604986618302_" d="M100,846.6c24.5-6,49.1-11.7,73.6-17.5
							c24.6-5.8,48.8-13.2,72.7-21.3c23.6-8.1,47-17.2,70.7-24.7c19.7-6.3,39.7-12.1,58.7-20.4c-1.6-32.6-11.7-62.9-28.1-88.9
							c-21.1,6.1-42.7,11.3-64,16.8c-24.4,6.4-48.8,13.2-73.1,20c-24.1,6.7-48.4,13.4-72.5,20.2c-23.9,6.8-47.8,13.8-71.2,22
							c-11.8,4.1-23.4,8-35.4,11.7c-5.8,1.8-11.7,3.6-17.4,5.7c-2.1,0.7-4.2,1.4-6.3,2.1c0,33.9,9.2,65.6,25.2,93
							C55.1,858,77.4,852.1,100,846.6z"/>
					</defs>
					<clipPath id="SVGID_00000008124300975812800530000001760302740034980757_">
						<use xlink:href="#SVGID_00000105385708669050946060000011205257604986618302_"  style="overflow:visible;"/>
					</clipPath>
					<path style="clip-path:url(#SVGID_00000008124300975812800530000001760302740034980757_);" d="M-6.4,937.9
						c-8.9,0-17.6-0.2-26-0.6c-12.8-0.6-22.9-11.3-22.4-24.1c0.5-13,11.5-23,24.4-22.3c72.6,3.7,171-10.7,263.2-38.3
						c90.1-27.1,161.1-62.5,190-94.9c3.4-3.8,8.4-10,10.6-16.3c1.5-4.3-1.2-8.9-5.7-9.7c-9.7-1.6-31.3-1.8-77.9,9.4
						c-49.5,11.9-111,32.3-170.5,52.2c-61.6,20.5-119.8,39.9-166.4,50.7c-46.8,10.8-96.6,17.1-111.1-18.2
						c-5.8-13.9-8.9-35.8,8.9-61.5c38.4-55.2,156-97,222.7-116.9c100-30.1,206.6-47.9,271.5-45.4c12.9,0.5,22.8,11.3,22.3,24.1
						c-0.5,12.9-11.3,22.8-24.1,22.3c-60.3-2.3-160.9,14.7-256.6,43.3c-100.6,30.1-176.4,68-197.8,98.9c-1.1,1.6-2,3.1-2.7,4.5
						c-2,3.8-0.4,10.1,6.4,10.7c10.2,0.9,29.5-1.5,64.7-11c42.3-11.3,93.3-27.8,147.3-45.9c154.4-51.5,251.3-80.8,294-55
						c12,7.2,19.5,18.3,21.6,32c3.4,20.8-4.3,41.9-22.8,62.5c-34.9,39-111.9,78.5-211.3,108.3C158.2,923.3,67.9,937.9-6.4,937.9z"/>
				</g>
				<g>
					<path d="M331.7,652.2c27.1-3.2,51.4-4.5,71.3-3.8c12.9,0.5,23.6-9.5,24.1-22.3c0.5-12.9-9.5-23.6-22.3-24.1
						c-32.2-1.2-74.6,2.5-121.3,10.2C301.8,622.7,318.1,636.3,331.7,652.2z"/>
					<path d="M-47.7,805.8c-6.8-0.6-8.4-6.9-6.4-10.7c0.7-1.4,1.6-2.9,2.7-4.5c9.8-14.1,31.1-29.8,61-45.5
						c3.2-21.7,10.1-42.2,20.2-60.8c-49.4,21.2-97.2,48.4-119.2,79.9c-17.8,25.6-14.7,47.6-8.9,61.5c14.6,35.2,64.3,28.9,111.1,18.2
						c2.8-0.6,5.7-1.3,8.5-2c-5.8-14.2-9.9-29.3-12.1-45C-21,804.6-38.3,806.6-47.7,805.8z"/>
					<path d="M480,726c-2.2-13.8-9.7-24.8-21.6-32c-20.7-12.5-54.2-12.1-100.8-2.4c6.8,13.9,11.9,28.9,14.9,44.5
						c31.2-6.1,47.2-5.7,55.2-4.4c4.5,0.8,7.2,5.4,5.7,9.7c-2.2,6.3-7.2,12.5-10.6,16.3c-10.7,11.9-27.1,24.3-48.1,36.5
						c-2.6,22-9.1,42.8-18.8,61.7c45.7-21.2,80.8-44.4,101.4-67.3C475.7,767.9,483.4,746.8,480,726z"/>
					<path class="st6" d="M283.5,612.2c-27-15.5-58.3-24.4-91.7-24.4c-70,0-130.9,39.1-162,96.6c37-15.9,74.9-28.5,103.5-37
						C183.7,632.2,235.9,620.1,283.5,612.2z"/>
					<path class="st6" d="M9.6,745.1c-1.3,8.8-1.9,17.7-1.9,26.8c0,8.4,0.6,16.7,1.7,24.9c2.5-0.6,5-1.3,7.7-2
						c42.3-11.3,93.3-27.8,147.3-45.9c79.5-26.5,143.7-47.1,193.1-57.4c-6.9-14.2-15.6-27.4-25.8-39.3
						c-54.9,6.4-121.2,20.4-185.3,39.5C92,708.1,44.9,726.6,9.6,745.1z"/>
					<path class="st6" d="M374.7,794.1c0.9-7.3,1.3-14.6,1.3-22.1c0-12.3-1.2-24.3-3.5-35.9c-6.8,1.3-14.4,3-22.7,5
						c-49.5,11.9-111,32.3-170.5,52.2c-57.9,19.3-112.8,37.6-157.9,48.6c7,17,16.5,32.8,28,46.8c57.6-5.2,121.8-17.7,183.4-36.2
						C289.6,835.3,338.8,814.9,374.7,794.1z"/>
				</g>
				<g>
					<defs>
						<circle id="SVGID_00000006705693120651295640000004035371542838595474_" cx="191.8" cy="772" r="184.2"/>
					</defs>
					<clipPath id="SVGID_00000162347064819312378090000006461087411363917973_">
						<use xlink:href="#SVGID_00000006705693120651295640000004035371542838595474_"  style="overflow:visible;"/>
					</clipPath>
					<g style="clip-path:url(#SVGID_00000162347064819312378090000006461087411363917973_);">
						<g>
							<path d="M211.9,514c0,0,100.9,120.9,124.7,143.9c22.9,22.2,165.6,143.5,165.6,143.5l-4.2,19.3L187.8,519.3"/>
							<path d="M192.4,529c0,0,102.1,120.8,125.9,143.9c22.9,22.2,164.2,143.9,164.2,143.9l-5,18.8L169,534.7"/>
							<path d="M173,544c0,0,103.3,120.7,127.1,143.8C323,710,462.9,832.1,462.9,832.1l-5.7,18.3L150.1,550.1"/>
							<path d="M153.5,558.9c0,0,104.5,120.6,128.3,143.7c22.9,22.2,161.4,144.8,161.4,144.8l-6.5,17.8L131.3,565.5"/>
							<path d="M134.1,573.9c0,0,105.7,120.6,129.6,143.6c22.9,22.2,160,145.2,160,145.2l-7.3,17.3l-304-299.1"/>
							<path d="M114.6,588.9c0,0,106.9,120.5,130.8,143.5C268.3,754.7,404,878.1,404,878.1l-8,16.8L93.6,596.3"/>
							<path d="M95.1,603.9c0,0,108.1,120.4,132,143.4c22.9,22.2,157.3,146.1,157.3,146.1l-8.8,16.3l-300.9-298"/>
							<path d="M75.7,618.9c0,0,109.4,120.3,133.2,143.3c22.9,22.2,155.9,146.5,155.9,146.5l-9.6,15.9L55.9,627.2"/>
							<path d="M56.2,633.9c0,0,110.6,120.2,134.4,143.3c22.9,22.2,154.5,146.9,154.5,146.9l-10.3,15.4L37,642.6"/>
							<path d="M36.8,648.9c0,0,111.8,120.1,135.6,143.2c22.9,22.2,153.1,147.4,153.1,147.4l-11.1,14.9L18.2,658"/>
							<path d="M17.3,663.8c0,0,113,120,136.9,143.1c22.9,22.2,151.7,147.8,151.7,147.8L294,969.1L-0.7,673.4"/>
							<path d="M-2.1,678.8c0,0,114.2,120,138.1,143c22.9,22.2,150.3,148.2,150.3,148.2L273.6,984L-19.6,688.8"/>
							<path d="M-21.6,693.8c0,0,115.4,119.9,139.3,142.9c22.9,22.2,148.9,148.7,148.9,148.7l-13.4,13.4L-38.4,704.2"/>
							<path d="M-41.1,708.8c0,0,116.7,119.8,140.5,142.8c22.9,22.2,147.5,149.1,147.5,149.1l-14.2,13l-290-294.1"/>
							<path d="M-60.5,723.8c0,0,117.9,119.7,141.7,142.7c22.9,22.2,146.1,149.5,146.1,149.5l-15,12.5L-76.1,735"/>
						</g>
					</g>
					
						<rect x="322.5" y="622.4" transform="matrix(0.7071 -0.7071 0.7071 0.7071 -358.8164 421.2573)" style="clip-path:url(#SVGID_00000162347064819312378090000006461087411363917973_);" width="13.2" height="42.6"/>
				</g>
			</g>
		</g>
	</g>
</g>
<g>
	<g>
		<g>
			<g>
				
					<linearGradient id="SVGID_00000138553038162995243960000010342117215548002694_" gradientUnits="userSpaceOnUse" x1="1980.522" y1="793.5215" x2="1980.522" y2="0">
					<stop  offset="0" style="stop-color:#FFFFFF"/>
					<stop  offset="0.3809" style="stop-color:#FFFFFF"/>
					<stop  offset="0.4042" style="stop-color:#F4E7E9"/>
					<stop  offset="0.4844" style="stop-color:#D099A4"/>
					<stop  offset="0.5416" style="stop-color:#B96978"/>
					<stop  offset="0.5698" style="stop-color:#B05667"/>
					<stop  offset="0.7789" style="stop-color:#CE0033"/>
					<stop  offset="1" style="stop-color:#FD003E"/>
				</linearGradient>
				<path style="fill:url(#SVGID_00000138553038162995243960000010342117215548002694_);" d="M2044.6,6.3c3-1.5,6.5-3.2,10.5-5
					c13.2-6.2,23.7,12.3,11.6,20.5c-4.2,2.9-8,5.5-11.1,7.6c-38.8,27.2-72.7,59.2-72.7,167.4c0,135.9,112.5,268.4,112.5,366.9
					c0,76.4-21.6,146.5-191.1,228.7c-5.6,2.7-12.2,0.6-15.3-4.7l0,0c-3.3-5.7-1.1-13,4.6-16.1c67.7-36.2,87.6-111.2,84.7-175.6
					c-6-134-114.5-249.2-112.5-359.1C1867,171.3,1893,82.6,2044.6,6.3z"/>
				<path class="st19" d="M1938.7,552.3c-9.6-3.6-29.1-13.9-41.4-41.1l-134.3-297.8c-5.7-12.7-23.5-13.2-29.9-0.9l-99.4,188.7
					c-5.1,9.8-15.3,15.9-26.3,15.9h-119.2h-4c-4,0-8,3.2-8.6,7.1c-0.8,5.1,2.9,9.5,7.8,9.9c33.1,3,53,25.1,52.7,60.8
					c-0.2,32.9-27.7,59.9-60.7,59.9h-8.6c-88.3,0-92.1-101.4-92.1-123.6c0-25.8,0-77.6,0-77.6c0-38.1,15.3-104.9,89.7-104.9
					c69.5,0,108.5,32,140.3,74.4c5.2,7,16.3,1.2,13.6-7.1l-27.9-87.4c-2.7-8.4-12.6-12.1-20.2-7.5c-20.5,12.6-32.5,10.5-32.5,10.5
					c-10.1,0.3-42.2-8.8-81.2-8.8c-62.2,0-112.5,24.7-146.9,57.9c-3.4,3.3-9.1,2.2-10.8-2.3l-15.4-37.5c-3.2-7.8-7.3-12.8-15.7-12.8
					h-177.2v-0.1h-92.2c-5.9,0-11.6-0.2-17.5-0.5c-31.6-1.7-142.6-7.5-199.4-7.5c-71.2,0-127,22.3-132.6,74.8
					c-4.2,39.5,23.2,60.1,38.9,74.5c8.5,7.8,48.5,33.1,69,42.6c21.4,9.9,106.8,52.7,98,86.6c-8.8,33.6-37.7,41.9-71,41.9
					c-52.3,0-108.4-43.3-150-82.1c-7.2-6.8-18.4,1.6-13.9,10.5c17.2,33.6,39.2,74.5,53.6,96.1c4.1,6.1,11.5,9.1,18.7,7.2
					c15.5-3.9,35.6-6,47.8-5.4c15.7,0.7,48.6,5,63,5c119.8,0,157.3-31.5,161.2-86.1c5.4-75.1-84.3-125.1-138.9-147
					c-48.8-19.7-67.7-49.3-65.6-64c3.4-25.5,27.7-29.8,48-29c63,2.4,181.8,33.1,181.8,76.3c0,0,0,192.1,0,200.5
					c0,11.2-12.2,31.4-27.7,31.4h-0.3c-2.8,0-5.6,1-7.6,3c-5.4,5.4-1.6,11.7,3.5,11.7h66.9l0,0h66.3h189.1c6.1,0,11.4-3.6,13.8-9.3
					l10.3-25.1c2-4.8,8.1-6.3,12-2.8c33.7,30.5,83.1,49.6,150.6,49.6c15.7,0,48.4-4.3,63.6-9.9c4.8-1.7,10-2.7,15.1-2.7h126.5h20.4
					c7.5,0,11.1-9.4,5.5-14.4c-2.5-2.2-4.7-4.2-6.3-5.7c-12-10.9-11.5-18.3-11.8-24.6c-0.3-6.2,1-12.3,3.9-17.9l89.6-170.2
					l76.5,169.9c2.6,5.7,3.8,11.9,3.3,18.1c-0.1,0.8-0.1,1.5-0.2,2.1c-1.4,8-8.6,24.2-22.1,24.2h-2.2c-3.3,0-6.6,1.1-9.1,3.3
					c-7.5,6.7-2.9,15.1,3.7,15.1h113.3c5.2,0,9.4-4.7,8.3-10.1C1943.8,555.7,1941.6,553.3,1938.7,552.3z M1280.8,315.8
					c-15.4,24.3-23.8,50-23.8,72.6c0,30.1,5.6,59.6,17.3,86c2.6,5.8,1.4,12.6-3,17.1c-21.7,22-69.1,52.7-136.9,52.7h-16.6
					c-15.1,0-27.4-12.2-27.4-27.4v-92.3v-4.9c0-5.1,7.7-11.5,16.4-9.8c13.3,2.6,36.6,10.9,55.3,21.7c13.1,7.6,24.9,15.5,38.5,26.8
					c6,4.9,15,0.6,15-7.1v-29v-57.3v-29c0-7.7-9.1-12-15-7.1c-13.6,11.2-25.4,19.1-38.5,26.8c-18.6,10.7-42.7,22-55.9,25.1
					c-10.2,2.4-13.8-1.6-15.7-5.5v-5.6V279c0-14.4,11.7-26.1,26.1-26.1h33.5c54.9,0,105,31.5,129.1,52.3
					C1282.3,307.7,1283,312.4,1280.8,315.8z"/>
				<path class="st19" d="M3838.7,232.1c-0.8-2.4-3.2-3.9-5.8-3.9h-26.3h-49.5h-26.3c-2.6,0-4.9,1.5-5.8,3.9
					c-1.1,3.3,0.7,6.6,3.7,7.6c9.5,3.1,32.2,13.1,32.2,36.9v143.1c0,5.5-6.4,8.4-10.6,4.9l-150.4-124.8
					c-46.9-39-113.4-64.9-157.3-79.1c-9.7-3.1-16.4,9.7-8.2,15.8c1.4,1.1,2.9,2.2,4.4,3.3c50.1,37.7,55.5,91.7,55.5,97.8V530v9.3
					c0,7.2-5.9,13.1-13.1,13.1c-16.8,0-54.3-27.3-73.5-47.3c-18-18.8-26.6-44.8-46.8-68.5c-16.1-18.8-29.7-25.8-29.7-25.8
					c101.1,0,104.1-82,104.1-91.2c0-13.7,0-91.6-126.6-91.6h-292.1h-49.7c-2.6,0-4.9,1.5-5.8,3.9c-1.1,3.3,0.7,6.7,3.7,7.6
					c9.5,3.1,32.2,13.1,32.2,36.9v180.1c0,62.2-43.5,83-78.4,83c-63.6,0-88-37.5-88-84.6v-27.3l0,0V276.4
					c0-23.9,22.7-33.9,32.2-36.9c2.5-0.8,4.1-3,4.1-5.6v-0.1c0-3.2-2.6-5.9-5.9-5.9H2747h-17.5h-229.9h-117.1
					c-7.1,0-13.7,4.1-16.8,10.5l-18.8,39c-3.2,6.7,4.4,13.3,10.6,9.2c25.2-17.1,67.6-36.7,129.6-39.1c6.8-0.2,12.4,5.2,12.4,12
					v246.9c0,11.7-4.3,20.8-10.2,27.7c-4.5,5.4-11.3,8.4-18.4,8.4h-15.2c-4.9,0-9.9-1.3-14.1-4.1c-9.7-6.3-18.8-15.1-24.4-27.5
					l-134.3-297.8c-5.8-12.7-23.5-13.2-29.9-0.9l-139.7,265.1l-40.3,76.4l2.8,14.6h40.5h7.2h88l0,0c7.5,0,11.1-9.4,5.5-14.4
					c0,0-0.1,0-0.1-0.1c-2.5-2.2-4.6-4.1-6.2-5.6c-11.9-10.7-11.5-18.1-11.8-24.4c-0.3-6.3,1-12.6,3.9-18.1l89.7-170.2l76.5,169.9
					c2.6,5.7,3.8,11.9,3.3,18.1c-0.1,0.8-0.1,1.5-0.2,2.1c-1.4,8-8.6,24.2-22.1,24.2h-0.2c-2.7,0-5.4,0.8-7.5,2.5
					c-8.8,6.8-4.1,15.9,2.7,15.9h112.9h6.6h89.2h26.3h53.9c4.6,0,8.6-3.5,8.8-8.1c0.2-3.7-2.1-7.2-5.5-8.4
					c-11.3-4.3-36.3-17.2-36.3-45.4V259.5c0-7,5.7-12.3,12.7-12c47.9,1.9,84.2,14,109.7,27.4c4.1,2.2,6.7,6.4,6.7,11v159.1h0.4
					c4.1,73.1,38.8,129.2,165.9,129.2c73.7,0,142.7-38.6,142.7-109.7c0-8.7,0-182.3,0-182.3c0-10.8,3.4-18.4,7.7-23.7
					c6.3-7.7,15.9-11.8,25.9-11.8h15c10,0,19.7,4.1,25.9,11.8c4.3,5.4,7.7,13,7.7,23.7v220.7c0,32.8-26,45.2-38.2,49.2
					c-2.9,0.9-5.2,3.3-5.9,6.4c-1,5.4,3,10.1,8.2,10.1h54.3h61.3h56.8c3.5,0,6.8-2.1,8-5.4c1.7-4.7-0.8-9.6-5.1-11
					c-11.9-3.9-38.5-16.3-38.5-49.3V293.6v-24.9c0-18.7,16.1-25.5,27.1-25.5h31.6c29.4,0,58.6,24.8,58.6,66.2
					c0,60.7-39.5,75.4-55.7,75.4c-10.8,0-19.2,0.2-28.2-3.1c0,0-0.1,0-0.1-0.1c-5.7-2.7-11.7,2.6-9.9,8.5c0.1,0.3,0.1,0.5,0.2,0.5
					c9.5,32.1,26.5,81.2,49.8,112.5c36.1,48.7,104.6,87.5,219.6,87.5h49.4c3.1,0,6-1.9,6.9-4.7c1.3-4-0.9-8-4.6-9.2
					c-9.9-3-30.9-11.9-30.9-34.3V380.9c0-5.5,6.4-8.4,10.6-4.9l238.7,198.2c6.9,5.7,17.2,0.8,17.2-8.1V276.7
					c0-23.9,22.7-33.9,32.2-36.9C3837.9,238.8,3839.8,235.5,3838.7,232.1z"/>
			</g>
		</g>
	</g>
	<g>
		
			<radialGradient id="SVGID_00000056397762381876552960000012717935178229138060_" cx="4565.3945" cy="2072.9104" r="224.4259" fx="4567.188" fy="2069.7739" gradientTransform="matrix(1 0 0 -1 -4213.2275 2409.9414)" gradientUnits="userSpaceOnUse">
			<stop  offset="0" style="stop-color:#FFFFFF"/>
			<stop  offset="0.1072" style="stop-color:#E1E7F2"/>
			<stop  offset="0.4368" style="stop-color:#88A1CC"/>
			<stop  offset="0.7055" style="stop-color:#476EB0"/>
			<stop  offset="0.8997" style="stop-color:#1E4E9F"/>
			<stop  offset="1" style="stop-color:#0F4298"/>
		</radialGradient>
		<circle style="fill:url(#SVGID_00000056397762381876552960000012717935178229138060_);" cx="303.9" cy="402.9" r="189.9"/>
		<g>
			<g>
				<defs>
					<path id="SVGID_00000037676456282532728950000009641158371961772186_" d="M209.1,479.9c25.3-6.2,50.6-12,75.9-18
						c25.4-6,50.3-13.6,75-22c24.4-8.3,48.5-17.7,72.9-25.5c20.3-6.5,40.9-12.4,60.5-21c-1.6-33.6-12-64.9-29-91.7
						c-21.8,6.3-44,11.6-66.1,17.3c-25.2,6.6-50.3,13.6-75.4,20.6c-24.6,6.8-49.3,13.6-73.8,20.5c-26.2,7.4-52.4,15.3-78.1,24.3
						c-11,3.8-22,7.4-33.1,10.8c-5.9,1.7-11.7,3.7-17.5,5.8c-2.2,0.7-4.3,1.4-6.5,2.2c0,35,9.5,67.7,26,95.9
						C162.8,491.7,185.9,485.5,209.1,479.9z"/>
				</defs>
				<clipPath id="SVGID_00000091003074107781125580000003123716482540760982_">
					<use xlink:href="#SVGID_00000037676456282532728950000009641158371961772186_"  style="overflow:visible;"/>
				</clipPath>
				<path style="clip-path:url(#SVGID_00000091003074107781125580000003123716482540760982_);fill:#FFFFFF;" d="M99.4,574
					c-9.2,0-18.1-0.2-26.9-0.6c-13.2-0.6-23.7-11.6-23.1-24.9c0.5-13.4,11.8-23.8,25.2-23c74.9,3.8,176.3-11,271.4-39.5
					c92.9-28,166.2-64.5,196-97.8c3.5-3.9,8.6-10.3,10.9-16.8c1.5-4.4-1.2-9.2-5.9-10c-10-1.6-32.3-1.9-80.4,9.7
					c-51,12.2-114.5,33.3-175.8,53.8C227.3,446,167.3,466,119.3,477.1C71,488.2,19.7,494.7,4.7,458.4c-6-14.3-9.2-36.9,9.2-63.4
					c39.6-56.9,160.9-100,229.6-120.6c103.1-31.1,213.1-49.4,280.1-46.8c13.3,0.5,23.6,11.6,23,24.9c-0.5,13.3-11.6,23.6-24.9,23
					c-62.1-2.4-166,15.1-264.6,44.7c-103.7,31.1-181.9,70.2-204,102c-1.1,1.6-2.1,3.2-2.8,4.6c-2.1,3.9-0.4,10.4,6.6,11
					c10.5,0.9,30.5-1.5,66.8-11.3c43.6-11.6,96.2-28.7,152-47.3c159.3-53.1,259.2-83.3,303.2-56.7c12.3,7.4,20.1,18.8,22.3,33
					c3.5,21.5-4.4,43.2-23.6,64.5c-36,40.2-115.4,81-217.9,111.7C269.2,559,176.1,574,99.4,574z"/>
			</g>
			<g>
				<defs>
					<path id="SVGID_00000170963780439040855800000013141368361904952192_" d="M209.1,479.9c25.3-6.2,50.6-12,75.9-18
						c25.4-6,50.3-13.6,75-22c24.4-8.3,48.5-17.7,72.9-25.5c20.3-6.5,40.9-12.4,60.5-21c-1.6-33.6-12-64.9-29-91.7
						c-21.8,6.3-44,11.6-66.1,17.3c-25.2,6.6-50.3,13.6-75.4,20.6c-24.6,6.8-49.3,13.6-73.8,20.5c-26.2,7.4-52.4,15.3-78.1,24.3
						c-11,3.8-22,7.4-33.1,10.8c-5.9,1.7-11.7,3.7-17.5,5.8c-2.2,0.7-4.3,1.4-6.5,2.2c0,35,9.5,67.7,26,95.9
						C162.8,491.7,185.9,485.5,209.1,479.9z"/>
				</defs>
				<clipPath id="SVGID_00000092418194968324007880000003610283798848399255_">
					<use xlink:href="#SVGID_00000170963780439040855800000013141368361904952192_"  style="overflow:visible;"/>
				</clipPath>
				<path style="clip-path:url(#SVGID_00000092418194968324007880000003610283798848399255_);fill:none;" d="M91.8,527.1
					c-22-37.6-33.6-80.5-33.6-124.1v-40.2L96.3,350c1-0.3,2.1-0.6,3-1c0.8-0.3,1.6-0.5,2.4-0.8c7.1-2.5,13.9-4.6,20.3-6.6
					c11.4-3.5,23-7.3,34.4-11.3c27-9.5,53.9-17.3,76.8-23.8c17.7-4.9,35.6-10,52.9-14.7c7.4-2.1,14.7-4.1,22.1-6.1l12-3.3
					c21-5.9,42.6-11.8,64.3-17.5c6.9-1.7,13.8-3.6,20.8-5.4c15.2-3.8,29.6-7.5,43.8-11.6l40.3-11.6l22.4,35.5
					c22.4,35.6,35.5,76.7,37.6,118.7l2,38.5l-35.4,15.4c-18.6,8.1-37,13.9-54.7,19.5c-3.7,1.1-7.3,2.4-11,3.5
					c-13.3,4.2-26.4,9.1-40.3,14c-10.3,3.7-21,7.6-31.8,11.2c-29.2,9.9-55.4,17.6-80.1,23.5c-8.5,2.1-17,4-25.5,6
					c-16.5,3.8-33.4,7.8-50,11.9c-26,6.4-46.9,12.1-65.6,18l-42.4,13.4L91.8,527.1z"/>
			</g>
		</g>
		<g>
			<path class="st19" d="M56.8,437.8c-7-0.6-8.6-7.1-6.6-11c0.7-1.4,1.6-3,2.8-4.6c10.1-14.6,32.1-30.7,62.9-46.9
				c3.3-22.4,10.4-43.5,20.8-62.7c-51,21.9-100.3,49.9-122.9,82.4c-18.3,26.4-15.1,49.1-9.2,63.4c15,36.3,66.4,29.8,114.6,18.7
				c2.9-0.7,5.8-1.4,8.8-2.1c-6-14.6-10.2-30.2-12.4-46.4C84.3,436.6,66.5,438.7,56.8,437.8z"/>
			<path class="st19" d="M448.2,279.4c27.9-3.3,53-4.7,73.5-3.9c13.3,0.5,24.4-9.8,24.9-23c0.5-13.3-9.8-24.4-23-24.9
				c-33.2-1.3-76.9,2.6-125.1,10.6C417.3,249,434.1,263,448.2,279.4z"/>
			<path class="st19" d="M601.1,355.5c-2.3-14.2-10-25.6-22.3-33c-21.4-12.9-55.9-12.5-104-2.5c7,14.4,12.2,29.8,15.4,45.9
				c32.2-6.3,48.7-5.9,56.9-4.5c4.6,0.8,7.4,5.6,5.9,10c-2.3,6.5-7.4,12.9-10.9,16.8c-11,12.3-28,25.1-49.6,37.6
				c-2.7,22.7-9.4,44.2-19.4,63.7c47.1-21.9,83.4-45.7,104.5-69.4C596.7,398.7,604.6,377,601.1,355.5z"/>
			<path class="st19" d="M156.9,523.2c-29.6,2.7-57.4,3.5-82.3,2.2c-13.4-0.7-24.7,9.7-25.2,23c-0.5,13.3,10,24.3,23.1,24.9
				c8.7,0.4,17.7,0.6,26.9,0.6c33.1,0,69.2-2.8,106.8-8.2C187.4,554.6,170.8,540.1,156.9,523.2z"/>
			<path class="st6" d="M398.4,238.2c-27.8-16-60.1-25.2-94.6-25.2c-72.2,0-135,40.3-167.1,99.6c38.2-16.4,77.3-29.3,106.7-38.2
				C295.5,258.7,349.3,246.3,398.4,238.2z"/>
			<path class="st6" d="M115.9,375.3c-1.3,9-2,18.3-2,27.7c0,8.7,0.6,17.3,1.7,25.6c2.6-0.7,5.2-1.3,7.9-2.1
				c43.6-11.6,96.2-28.7,152-47.3c82-27.3,148.2-48.6,199.2-59.2c-7.1-14.7-16.1-28.3-26.6-40.6c-56.6,6.6-125,21-191.1,40.8
				C200.9,337,152.3,356.2,115.9,375.3z"/>
			<path class="st6" d="M206.2,565.9c28.5,17.1,61.9,27,97.6,27c73.7,0,137.7-42,169.1-103.4c-32.9,15.3-71.2,29.7-113.4,42.3
				C308.2,547.2,255.9,558.8,206.2,565.9z"/>
			<path class="st6" d="M492.4,425.7c0.9-7.5,1.4-15.1,1.4-22.8c0-12.7-1.3-25-3.6-37c-7,1.4-14.8,3.1-23.4,5.1
				c-51,12.2-114.5,33.3-175.8,53.8c-59.8,19.9-116.3,38.7-162.8,50.2c7.2,17.6,17,33.8,28.8,48.3c59.4-5.4,125.7-18.3,189.1-37.3
				C404.6,468.3,455.4,447.2,492.4,425.7z"/>
		</g>
	</g>
</g>
</svg>
