<?xml version="1.0" encoding="utf-8"?>
<!-- Generator: Adobe Illustrator 26.0.3, SVG Export Plug-In . SVG Version: 6.00 Build 0)  -->
<svg version="1.1" id="Layer_1" xmlns="http://www.w3.org/2000/svg" xmlns:xlink="http://www.w3.org/1999/xlink" x="0px" y="0px"
	 viewBox="0 0 3839 358.8" style="enable-background:new 0 0 3839 358.8;" xml:space="preserve">
<style type="text/css">
	.st0{fill:#FF221D;}
	.st1{fill:#FDEB05;}
	.st2{display:none;}
	.st3{display:inline;}
	.st4{fill:#FBE901;}
	.st5{fill:#FFFFFF;}
</style>
<g>
	<g>
		<path class="st0" d="M1575.1,358.8c-8,0-11.3-1.6-14.2-3.6l16-71.1c27.8-4.2,39.3-23.3,45.2-73.9
			c14.6-126.7,99.2-134.1,108.7-134.5c1.1-0.1,2.1-0.1,3.1-0.1c3,0,5.5,0.2,9.3,0.9l-17,75.4c-27.5,3.8-33.7,27.4-44.9,95.7
			c-16.9,102.2-88.8,110.5-103,111.1C1577.2,358.7,1576.1,358.8,1575.1,358.8z"/>
		<path class="st0" d="M3027.5,358.8c-8,0-11.3-1.6-14.2-3.6l16-71.1c27.8-4.2,39.3-23.3,45.2-73.9
			c14.6-126.7,99.1-134.1,108.7-134.5c1.1-0.1,2.1-0.1,3.1-0.1c3,0,5.5,0.2,9.3,0.9l-17,75.4c-27.5,3.8-33.7,27.4-44.9,95.7
			c-16.9,102.2-88.8,110.5-103,111.1C3029.5,358.7,3028.5,358.8,3027.5,358.8z"/>
		<path class="st0" d="M1458,358.8c-8,0-11.3-1.6-14.2-3.6l16-71.1c27.8-4.2,39.3-23.3,45.2-73.9c14.6-126.7,99.2-134.1,108.7-134.5
			c1.1-0.1,2.1-0.1,3.1-0.1c3,0,5.5,0.2,9.3,0.9l-17,75.4c-27.5,3.8-33.7,27.4-44.9,95.7c-16.9,102.2-88.8,110.5-103,111.1
			C1460.1,358.7,1459,358.8,1458,358.8z"/>
		<rect x="2702.5" class="st0" width="72.7" height="358.8"/>
		<path class="st0" d="M3440,75.6c-80.1,0-147.3,58.2-154.3,138.2s52.2,145,132.3,145s158.2-62.3,157.7-145
			C3575.1,133.4,3520,75.6,3440,75.6z M3491,266.5c-19,19.1-46.3,30.6-73,30.6c-21.1,0-40-7.9-53.1-22.2
			c-13.3-14.5-19.6-34.2-17.7-55.6c4.1-46.7,44-81.9,92.8-81.9c45.3,0,73.6,29.5,74,76.9C3514.1,238.2,3501.6,255.9,3491,266.5z"/>
		<path class="st0" d="M1418.7,358.2h-63.8l31.3-139c0.1-1.8,0.2-3.7,0.2-5.6c-0.3-47.4-28.7-76.9-74-76.9
			c-48.8,0-88.7,35.2-92.8,81.9c-1.9,21.4,4.4,41.1,17.7,55.6c13.1,14.3,32,22.2,53.1,22.2c18.7,0,37.7-5.6,53.9-15.5l-16.4,72.8
			l-0.4,0.1c0,0-24.6,4.4-37.1,4.4c-80.1,0-139.3-64.9-132.3-145c7-80.1,74.2-138.2,154.3-138.2c80.1,0,135.1,57.9,135.7,138.2
			c0.1,7.6-0.6,15-1.8,22.1L1418.7,358.2z"/>
		<path class="st0" d="M2122.9,144.8h48.1l12.9-57.3h-48.1L2155.5,0h-66.9l-58.8,260.7c0,0-1.3,5.9-1.8,7.9
			c-10.7,45.6,1.2,90.2,60.5,90.2c0,0,7.2,0,8.5,0l32.2-57.3h-28.1c-11.9,0-11-12-8.1-24.5C2100.2,246,2122.9,144.8,2122.9,144.8z"
			/>
		<path class="st0" d="M2269.1,144.8h48.1l12.9-57.3h-48.1L2301.8,0h-66.9l-58.8,260.7c0,0-1.3,5.9-1.8,7.9
			c-10.7,45.6,1.2,90.2,60.5,90.2c0,0,7.2,0,8.5,0l32.2-57.3h-28.1c-11.9,0-11-12-8.1-24.5C2246.4,246,2269.1,144.8,2269.1,144.8z"
			/>
		<path class="st0" d="M1137.1,358.4c-47.5-4.5-89.8-24.8-117.7-56.7c-28.2-32.3-40.5-73.9-35.7-120.3
			c15.8-150.1,147-180.6,254.9-179.7l-13.8,61.8c-146.9,2.4-173.8,68.9-179.7,124.4c-7.6,72.4,48.3,107.2,105.7,109.7L1137.1,358.4z
			"/>
		<path class="st0" d="M2981.7,87.5l-61.2,271.3h66.9c11.7-51.9,41.2-182.7,61.1-271.3C3048.6,87.5,2981.7,87.5,2981.7,87.5z"/>
		<g>
			<path class="st0" d="M3298.8,57.3c7.6-33.5,12.9-57.3,12.9-57.3h-66.9l-12.9,57.3H3298.8z"/>
			<path class="st0" d="M3225.1,87.5l-61.2,271.3h66.9c11.7-51.9,41.2-182.7,61.1-271.3C3292,87.5,3225.1,87.5,3225.1,87.5z"/>
		</g>
		<g>
			<path class="st0" d="M3633.9,87.5l-61.2,271.3h66.9c11.7-51.9,41.2-182.7,61.1-271.3C3700.8,87.5,3633.9,87.5,3633.9,87.5z"/>
		</g>
		<path class="st0" d="M3692.3,87.5l-12.9,57.3h75.3c9.2,0,16.1,8.6,14,17.6l-44.3,196.4h66.9c9-40,28.7-127.1,46.3-205.3
			c7.6-33.8-18.1-65.9-52.8-65.9L3692.3,87.5L3692.3,87.5z"/>
		<g>
			<path class="st0" d="M3026.1,0h-24.6h-27c-21.4,0-41.2,10.9-52.6,29l-208.2,329.8h86l190.3-301.5h65.5
				c7.5-33.5,12.9-57.3,12.9-57.3H3026.1z"/>
		</g>
		<path class="st0" d="M2406,282.4l199.8-97.8c-12-64.8-62.9-109.1-132.9-109.1c-80.1,0-147.3,58.2-154.3,138.2
			c-7,80.1,52.2,145,132.3,145c13,0,25.9-1.6,38.4-4.7c1.4-0.3,2.7-0.7,4.1-1.1l16.9-75.1c-17.4,12.2-38.6,19.1-59.4,19.1
			C2433.8,297.1,2418.3,291.9,2406,282.4z M2380,219.2c4.1-46.7,44-81.9,92.8-81.9c24.8,0,44.4,8.8,57.3,24.5l-149.9,73.4
			C2379.6,230,2379.5,224.6,2380,219.2z"/>
		<path class="st0" d="M1823.9,282.4l199.8-97.8c-12-64.8-62.9-109.1-132.9-109.1c-80.1,0-147.3,58.2-154.3,138.2
			c-7,80.1,52.2,145,132.3,145c13,0,25.9-1.6,38.4-4.7c1.4-0.3,2.7-0.7,4.1-1.1l16.9-75.1c-17.4,12.2-38.6,19.1-59.4,19.1
			C1851.7,297.1,1836.2,291.9,1823.9,282.4z M1797.9,219.2c4.1-46.7,44-81.9,92.8-81.9c24.8,0,44.4,8.8,57.3,24.5l-149.9,73.4
			C1797.5,230,1797.5,224.6,1797.9,219.2z"/>
	</g>
	<g>
		<g>
			<g>
				<path class="st0" d="M340.2,317.4l0.7-3.1c-5.9,1.7-13.9,3.1-24.5,3.1h-24.6c-13.6,0-26.3-6.1-34.9-16.8
					c-8.5-10.6-11.7-24.4-8.7-37.7L272,157.4h49l-24.4,108.3c-0.4,1.9,0,3.9,1.2,5.4c1.2,1.5,3,2.4,5,2.4h34.5
					c7.5,0,13.9-5.1,15.5-12.4l23.4-103.7h49l-36.1,160L340.2,317.4L340.2,317.4z"/>
				<path class="st0" d="M417.3,163.8l-19.6,87.1l-6.5,29l0,0l-7,31.1h-35.9l1.8-7.8c0,0-9.1,7.8-33.6,7.8h-24.6
					c-24.5,0-42.7-22.8-37.3-46.7l22.7-100.5H313l-22.7,100.6c-1.8,8,4.3,15.6,12.4,15.6h34.5c10.4,0,19.5-7.2,21.8-17.4l22.2-98.7
					L417.3,163.8 M433.2,151h-15.9h-35.9h-10.2l-2.2,9.9l-22.2,98.7c-1,4.4-4.8,7.5-9.3,7.5h-34.6l22.7-100.6L329,151h-16h-35.9
					h-10.2l-2.2,9.9L242,261.5c-3.4,15.2,0.2,30.9,9.9,43.1c9.7,12.2,24.2,19.1,39.8,19.1h24.6c6.1,0,11.5-0.4,16.1-1.1l-0.3,1.1h16
					h35.9h10.2l2.2-10l7-31.1l6.5-29l19.6-87.1L433.2,151L433.2,151z"/>
			</g>
			<g>
				<path class="st0" d="M775.8,317.4l36.1-160h49l-0.7,3.1c5.9-1.7,13.9-3.1,24.5-3.1h32.5l-9.9,43.8h-43.5
					c-7.5,0-13.9,5.1-15.5,12.4l-23.4,103.7L775.8,317.4L775.8,317.4z"/>
				<path class="st0" d="M909.2,163.8l-7,31.1h-38.5c-10.4,0-19.5,7.2-21.8,17.4l-3.2,14.2l-0.8,3.6l-15.4,68.2l-2.8,12.6l0,0h-35.9
					l26.2-116.1l0,0l7-31.1l0,0l0,0h35.9l-1.8,7.8c0,0,9.1-7.8,33.5-7.8L909.2,163.8 M925.1,151h-16h-24.5c-6.1,0-11.5,0.4-16.1,1.1
					l0.3-1.1h-16H817h-10.2l-2.2,9.9l-7,31.1l-26.2,116.1l-3.5,15.6h16h35.9h10.2l2.2-10l2.8-12.6l15.4-68.2l0.8-3.6l3.2-14.2
					c1-4.4,4.8-7.5,9.3-7.5h38.5h10.2l2.2-9.9l7-31.1L925.1,151L925.1,151z"/>
			</g>
			<g>
				<path class="st0" d="M649.5,317.4c-13.6,0-26.3-6.1-34.9-16.8s-11.7-24.4-8.7-37.7l13.2-58.8c6.2-27.5,30.2-46.8,58.5-46.8h55.6
					c13.6,0,26.3,6.1,34.9,16.8c8.5,10.6,11.7,24.4,8.7,37.7l-1.6,7.1c-4.2,18.4-17.2,32.6-34.1,38.7h25.3l-2.9,13
					c-6.2,27.5-30.2,46.8-58.5,46.8L649.5,317.4L649.5,317.4z M654.3,265.7c-0.4,1.9,0,3.9,1.2,5.4c1.2,1.5,3,2.4,5,2.4h42.1
					c6.6,0,12.2-4.5,13.7-10.9l0.4-1.9h-61.3L654.3,265.7z M718.4,216.9c4.8,0,9-3.3,10-8c0.4-1.9,0-3.8-1.2-5.3
					c-1.2-1.5-3-2.3-4.9-2.3h-40.7c-7.5,0-13.9,5.1-15.5,12.4l-0.7,3.2H718.4z"/>
				<path class="st0" d="M733.2,163.8c24.5,0,42.7,22.8,37.3,46.7l-1.6,7.1c-4.8,21.5-24,36.8-46,36.8h-72.5l-2.2,9.9
					c-1.8,8,4.3,15.6,12.4,15.6h42.1c9.5,0,17.8-6.6,19.9-15.9h35.9l-1.2,5.2c-5.5,24.4-27.2,41.8-52.2,41.8h-55.5
					c-24.5,0-42.7-22.8-37.3-46.7l13.2-58.8c5.5-24.4,27.2-41.8,52.2-41.8L733.2,163.8 M657.4,223.3h61c7.8,0,14.6-5.4,16.3-13
					c1.8-7.9-4.2-15.4-12.3-15.4h-40.7c-10.4,0-19.5,7.2-21.8,17.4L657.4,223.3 M733.2,151h-55.5c-31.2,0-57.8,21.3-64.7,51.7
					l-13.2,58.8c-3.4,15.2,0.2,30.9,9.9,43.1c9.7,12.2,24.2,19.1,39.8,19.1H705c31.2,0,57.8-21.3,64.7-51.7l1.2-5.2l3.5-15.6h-10.7
					c8.6-8,14.9-18.6,17.7-30.9l1.6-7.1c3.4-15.2-0.2-30.9-9.9-43.1C763.3,158,748.8,151,733.2,151L733.2,151z M674.8,210.5
					c1.8-1.8,4.2-2.9,6.9-2.9h40.5c-0.5,1.7-2,2.9-3.8,2.9H674.8L674.8,210.5z M660.6,267.1h42.4c-0.1,0-0.2,0-0.3,0H660.6
					L660.6,267.1L660.6,267.1z"/>
			</g>
			<g>
				<path class="st0" d="M408.5,333l39.6-175.6h49l-0.7,3.1c5.9-1.7,13.9-3.1,24.5-3.1h30.2c13.6,0,26.3,6.1,34.9,16.8
					c8.5,10.6,11.7,24.4,8.7,37.7L583.1,263c-6.2,27.5-30.2,46.8-58.5,46.8h-35.2c-12.2,0-20.4-1.9-25.8-4l-6.2,27.3L408.5,333
					L408.5,333z M499.9,201.3c-7.5,0-13.9,5.1-15.5,12.4l-10,44.4c-0.4,1.9,0,3.9,1.2,5.4c1.2,1.5,3,2.4,5,2.4h40.1
					c7.5,0,13.9-5.1,15.5-12.4l10-44.4c0.4-1.9,0-3.9-1.2-5.4c-1.2-1.5-3-2.4-5-2.4L499.9,201.3L499.9,201.3z"/>
				<path class="st0" d="M551.1,163.8c24.5,0,42.7,22.8,37.3,46.7l-11.5,51.2c-5.5,24.4-27.2,41.8-52.2,41.8h-35.2
					c-24.5,0-30-7.8-30-7.8l-2.4,10.8l-1,4.6l0,0l0,0l0,0l-3.5,15.7h-35.9L420,311l0,0l0,0l5.4-24l20.8-92.1l0,0l5.2-23.2l1.8-7.9
					l0,0h35.9l-1.8,7.8c0,0,9.1-7.8,33.6-7.8h9.1h6.5L551.1,163.8 M476.4,219.9L476.4,219.9l-8.3,36.8c-1.8,8,4.3,15.6,12.4,15.6
					h40.1c10.4,0,19.5-7.2,21.8-17.4l10-44.4c1.8-8-4.3-15.6-12.4-15.6h-6.9h-4.6h-28.7c-10.4,0-19.5,7.2-21.8,17.4L476.4,219.9
					 M551.1,151h-14.5H530h-9.1c-6.1,0-11.5,0.4-16.1,1.1l0.3-1.1h-16h-35.9H443l-2.2,9.9l-1.8,7.9l-5.2,23.2L413,284.2l-5.4,24
					l-2.9,12.9l0,0l-0.6,2.7l-3.5,15.6h16h35.9h10.2l2.2-9.9l3.5-15.5c5.5,1.3,12.4,2.2,21.1,2.2h35.2c31.2,0,57.8-21.3,64.7-51.7
					l11.5-51.2c3.4-15.2-0.2-30.9-9.9-43.1C581.2,158,566.7,151,551.1,151L551.1,151z M480.6,259.5l8.3-36.8l0,0l1.7-7.6
					c1-4.4,4.8-7.5,9.3-7.5h28.7h4.6h6.9l-10,44.4c-1,4.4-4.8,7.5-9.3,7.5H480.6L480.6,259.5z"/>
			</g>
			<g>
				<g>
					<g>
						<path class="st0" d="M68.4,317.4c-13.6,0-26.3-6.1-34.9-16.8c-8.5-10.6-11.7-24.4-8.7-37.7l1.1-5l5.2-0.3h43.9l-1.9,8.1
							c-0.4,1.9,0,3.8,1.2,5.3s3,2.4,5,2.4h82.2c7.5,0,13.9-5.1,15.6-12.4l3.8-16.9c0.7-2.9,0-6-1.9-8.4s-4.7-3.7-7.7-3.7H91.6
							c-14.6,0-28.2-6.6-37.3-18c-9.1-11.4-12.5-26.1-9.3-40.4l3.8-16.6c6.2-27.5,30.2-46.7,58.5-46.7H204
							c13.7,0,26.4,6.1,34.9,16.8c8.5,10.7,11.7,24.4,8.6,37.7l-1.1,5l-5.1,0.2h-43.4l1.8-8.1c0.4-1.9,0-3.9-1.2-5.4
							c-1.2-1.5-3-2.4-5-2.4h-82.2c-7.5,0-13.9,5.1-15.6,12.4l-2.1,9.5c-0.7,2.9,0,6,1.9,8.4c1.9,2.4,4.7,3.7,7.7,3.7h90.6
							c11.9,0,23,5.3,30.4,14.6c7.4,9.3,10.2,21.3,7.5,32.9l-8,34.9c-6.3,27.5-30.3,46.6-58.4,46.6L68.4,317.4L68.4,317.4z"/>
						<path class="st0" d="M204,116.8c24.6,0,42.8,22.8,37.3,46.8l-0.1,0.2h-35.5l0.1-0.3c1.8-8-4.3-15.6-12.4-15.6h-82.2
							c-10.4,0-19.5,7.2-21.8,17.4l-2.1,9.5c-2.3,10.2,5.4,19.9,15.9,19.9h90.6c20.9,0,36.4,19.4,31.7,39.8l-8,34.9
							c-5.6,24.4-27.2,41.7-52.2,41.7H68.4c-24.5,0-42.7-22.8-37.3-46.7l0.1-0.3h35.9l-0.1,0.3c-1.8,8,4.3,15.6,12.4,15.6h82.2
							c10.4,0,19.5-7.2,21.8-17.4l3.8-16.9c2.3-10.2-5.4-19.9-15.9-19.9H91.6c-26.6,0-46.3-24.6-40.4-50.6l3.7-16.6
							c5.5-24.4,27.2-41.8,52.2-41.8L204,116.8 M204,104h-96.7c-31.2,0-57.8,21.3-64.7,51.7l-3.8,16.6c-3.6,16.1,0.2,32.8,10.5,45.8
							c10.3,12.9,25.8,20.4,42.3,20.4h79.7c1.5,0,2.4,0.8,2.8,1.3s1,1.5,0.7,3l-3.8,16.9c-1,4.4-4.8,7.5-9.3,7.5H79.5l0.1-0.3
							l3.5-15.5H67.1H31.2H21l-2.2,9.9l-0.1,0.3c-3.4,15.2,0.2,30.9,9.9,43.1c9.7,12.2,24.2,19.1,39.8,19.1h96.8
							c31.1,0,57.7-21.2,64.6-51.6l8-34.9c3.1-13.5-0.1-27.5-8.8-38.3c-8.6-10.8-21.5-17-35.4-17h-90.6c-1.5,0-2.3-0.8-2.8-1.3
							c-0.4-0.5-1-1.5-0.7-3l2.1-9.5c1-4.4,4.8-7.5,9.3-7.5h82.2l-0.1,0.3l-3.5,15.6h16h35.5h10.2l2.3-9.9l0.1-0.2
							c3.5-15.2-0.1-30.9-9.9-43.1C234.1,111,219.6,104,204,104L204,104z"/>
					</g>
				</g>
			</g>
		</g>
		<g>
			<g>
				<path class="st1" d="M322.8,285.9l0.7-3.1c-5.9,1.7-13.9,3.1-24.5,3.1h-24.6c-13.6,0-26.3-6.1-34.9-16.8
					c-8.5-10.6-11.7-24.4-8.7-37.7L254.6,126h49l-24.4,108.3c-0.4,1.9,0,3.9,1.2,5.4s3,2.4,5,2.4h34.5c7.5,0,13.9-5.1,15.5-12.4
					L358.9,126h49l-36.1,160L322.8,285.9L322.8,285.9z"/>
				<path class="st0" d="M399.9,132.3l-19.6,87.1l-6.5,29l0,0l-7,31.1h-35.9l1.8-7.8c0,0-9.1,7.8-33.6,7.8h-24.6
					c-24.5,0-42.7-22.8-37.3-46.7l22.7-100.5h35.9l-22.7,100.6c-1.8,8,4.3,15.6,12.4,15.6h34.5c10.4,0,19.5-7.2,21.8-17.4l22.2-98.7
					L399.9,132.3 M415.8,119.6h-16H364h-10.2l-2.2,9.9l-22.2,98.7c-1,4.4-4.8,7.5-9.3,7.5h-34.5l22.7-100.6l3.5-15.6h-16h-35.9
					h-10.2l-2.2,9.9l-22.7,100.5c-3.4,15.2,0.2,30.9,9.9,43.1c9.7,12.2,24.3,19.1,39.8,19.1H299c6.1,0,11.5-0.4,16.1-1.1l-0.3,1.1
					h16h35.9h10.2l2.2-10l7-31.1l6.5-29l19.6-87.1L415.8,119.6L415.8,119.6z"/>
			</g>
			<g>
				<path class="st1" d="M758.4,285.9l36.1-160h49l-0.7,3.1c5.9-1.7,13.9-3.1,24.5-3.1h32.5l-9.9,43.8h-43.5
					c-7.5,0-13.9,5.1-15.5,12.4l-23.4,103.7L758.4,285.9L758.4,285.9z"/>
				<path class="st0" d="M891.8,132.3l-7,31.1h-38.5c-10.4,0-19.5,7.2-21.8,17.4l-3.2,14.2l-0.8,3.6l-15.4,68.2l-2.8,12.6l0,0h-35.9
					l26.2-116.1l0,0l7-31.1l0,0l0,0h35.9l-1.8,7.8c0,0,9.1-7.8,33.5-7.8H891.8 M907.7,119.6h-16h-24.5c-6.1,0-11.5,0.4-16.1,1.1
					l0.3-1.1h-16h-35.9h-10.2l-2.2,9.9l-7,31.1l-26.2,116.1l-3.5,15.6h16h35.9h10.2l2.2-10l2.8-12.6l15.4-68.2l0.8-3.6l3.2-14.2
					c1-4.4,4.8-7.5,9.3-7.5h38.5h10.2l2.2-9.9l7-31.1L907.7,119.6L907.7,119.6z"/>
			</g>
			<g>
				<path class="st1" d="M632.1,285.9c-13.6,0-26.3-6.1-34.9-16.8c-8.5-10.6-11.7-24.4-8.7-37.7l13.2-58.8
					C608,145.2,632,126,660.3,126h55.6c13.6,0,26.3,6.1,34.9,16.8c8.5,10.6,11.7,24.4,8.7,37.7l-1.6,7.1
					c-4.2,18.4-17.2,32.6-34.1,38.7H749l-2.9,13c-6.2,27.5-30.2,46.8-58.5,46.8H632.1z M636.9,234.3c-0.4,1.9,0,3.9,1.2,5.4
					c1.2,1.5,3,2.4,5,2.4h42.1c6.6,0,12.2-4.5,13.7-10.9l0.4-1.8h-61.3L636.9,234.3z M701,185.5c4.8,0,9-3.3,10-8
					c0.4-1.9,0-3.8-1.2-5.3c-1.2-1.5-3-2.3-4.9-2.3h-40.7c-7.5,0-13.9,5.1-15.5,12.4l-0.7,3.2L701,185.5L701,185.5z"/>
				<path class="st0" d="M715.8,132.3c24.5,0,42.7,22.8,37.3,46.7l-1.6,7.1c-4.8,21.5-24,36.8-46,36.8H633l-2.2,9.9
					c-1.8,8,4.3,15.6,12.4,15.6h42.1c9.5,0,17.8-6.6,19.9-15.9l0,0h35.9l-1.2,5.2c-5.5,24.4-27.2,41.8-52.2,41.8h-55.5
					c-24.5,0-42.7-22.8-37.3-46.7l13.2-58.8c5.5-24.4,27.2-41.8,52.2-41.8L715.8,132.3 M640,191.8h61c7.8,0,14.6-5.4,16.3-13
					c1.8-7.9-4.2-15.4-12.3-15.4h-40.7c-10.4,0-19.5,7.2-21.8,17.4L640,191.8 M715.8,119.6h-55.5c-31.2,0-57.8,21.3-64.7,51.7
					l-13.2,58.8c-3.4,15.2,0.2,30.9,9.9,43.1c9.7,12.2,24.2,19.1,39.8,19.1h55.5c31.2,0,57.8-21.3,64.7-51.7l1.2-5.2l3.5-15.6h-10.7
					c8.6-8,14.9-18.6,17.7-30.9l1.6-7.1c3.4-15.2-0.2-30.9-9.9-43.1C745.9,126.6,731.4,119.6,715.8,119.6L715.8,119.6z M657.4,179.1
					c1.8-1.8,4.2-2.9,6.9-2.9h40.5c-0.5,1.7-2,2.9-3.8,2.9H657.4L657.4,179.1z M643.1,235.7h42.4c-0.1,0-0.2,0-0.3,0H643.1
					L643.1,235.7L643.1,235.7z"/>
			</g>
			<g>
				<path class="st1" d="M391.1,301.6L430.7,126h49l-0.7,3.1c5.9-1.7,13.9-3.1,24.5-3.1h30.2c13.6,0,26.3,6.1,34.9,16.8
					c8.5,10.6,11.7,24.4,8.7,37.7l-11.5,51.2c-6.2,27.5-30.2,46.8-58.5,46.8H472c-12.2,0-20.4-1.9-25.8-4l-6.2,27.3L391.1,301.6
					L391.1,301.6z M482.5,169.8c-7.5,0-13.9,5.1-15.5,12.4l-10,44.4c-0.4,1.9,0,3.9,1.2,5.4c1.2,1.5,3,2.4,5,2.4h40.1
					c7.5,0,13.9-5.1,15.6-12.4l10-44.4c0.4-1.9,0-3.9-1.2-5.4s-3-2.4-5-2.4H482.5z"/>
				<path class="st0" d="M533.7,132.3c24.5,0,42.7,22.8,37.3,46.7l-11.5,51.2c-5.5,24.4-27.2,41.8-52.2,41.8H472
					c-24.5,0-30-7.8-30-7.8l-2.4,10.8l-1,4.6l0,0l0,0l0,0l-3.5,15.7h-35.9l3.5-15.7l0,0l0,0l5.4-24l20.8-92.1l0,0l5.2-23.2l1.8-7.9
					l0,0h35.9l-1.8,7.8c0,0,9.1-7.8,33.6-7.8h9.1h6.5L533.7,132.3 M459,188.5L459,188.5l-8.3,36.8c-1.8,8,4.3,15.6,12.4,15.6h40.1
					c10.4,0,19.5-7.2,21.8-17.4l10-44.4c1.8-8-4.3-15.6-12.4-15.6h-6.9h-4.6h-28.7c-10.4,0-19.5,7.2-21.8,17.4L459,188.5
					 M533.7,119.6h-14.5h-6.5h-9.1c-6.1,0-11.5,0.4-16.1,1.1l0.3-1.1h-16h-35.9h-10.2l-2.2,9.9l-1.8,7.9l-5.2,23.2l-20.8,92.1
					l-5.4,24l-2.7,11.9l0,0l-0.9,3.8l-3.5,15.6h16h35.9h10.2l2.2-9.9l3.5-15.5c5.5,1.3,12.4,2.2,21.1,2.2h35.2
					c31.2,0,57.8-21.3,64.7-51.7l11.5-51.2c3.4-15.2-0.2-30.9-9.9-43.1C563.8,126.6,549.3,119.6,533.7,119.6L533.7,119.6z
					 M471.5,191.3l1.7-7.6c1-4.4,4.8-7.5,9.3-7.5h28.7h4.6h6.9l-10,44.4c-1,4.4-4.8,7.5-9.3,7.5h-40.1L471.5,191.3L471.5,191.3
					L471.5,191.3z"/>
			</g>
			<g>
				<g>
					<g>
						<path class="st1" d="M51,285.9c-13.6,0-26.3-6.1-34.9-16.8c-8.5-10.6-11.7-24.4-8.7-37.7l1.1-5l5.2-0.3h43.8l-1.8,8.1
							c-0.4,1.9,0,3.9,1.2,5.4c1.2,1.5,3,2.4,5,2.4h82.2c7.5,0,13.9-5.1,15.6-12.4l3.8-16.9c0.7-2.9,0-6-1.9-8.4
							c-1.9-2.4-4.7-3.7-7.7-3.7H74.2c-14.6,0-28.2-6.5-37.4-18c-9.1-11.4-12.5-26.1-9.3-40.4l3.7-16.6C37.5,98.2,61.6,79,89.8,79
							h96.7c13.7,0,26.4,6.1,34.9,16.8c8.5,10.7,11.7,24.4,8.6,37.7l-1.1,5l-5.1,0.2h-43.4l1.8-8.1c0.4-1.9,0-3.9-1.2-5.4
							c-1.2-1.5-3-2.4-5-2.4H93.7c-7.5,0-13.9,5.1-15.5,12.4l-2.1,9.5c-0.7,2.9,0,6,1.9,8.4c1.9,2.4,4.7,3.7,7.7,3.7h90.6
							c11.9,0,23,5.3,30.4,14.6s10.2,21.3,7.5,32.9l-8,34.9c-6.3,27.4-30.3,46.6-58.4,46.6L51,285.9L51,285.9z"/>
						<path class="st0" d="M186.5,85.4c24.6,0,42.8,22.8,37.3,46.8l-0.1,0.2h-35.5l0.1-0.3c1.8-8-4.3-15.6-12.4-15.6H93.7
							c-10.4,0-19.5,7.2-21.8,17.4l-2.1,9.5c-2.3,10.2,5.4,19.9,15.9,19.9h90.6c20.9,0,36.4,19.4,31.7,39.8l-8,34.9
							c-5.6,24.4-27.2,41.7-52.2,41.7H51c-24.5,0-42.7-22.8-37.3-46.7l0.1-0.3h35.9l-0.1,0.3c-1.8,8,4.3,15.6,12.4,15.6h82.2
							c10.4,0,19.5-7.2,21.8-17.4l3.8-16.9c2.3-10.2-5.4-19.8-15.9-19.8H74.2c-26.6,0-46.3-24.6-40.4-50.6l3.8-16.6
							c5.5-24.4,27.2-41.8,52.2-41.8L186.5,85.4 M186.5,72.6H89.8c-31.2,0-57.8,21.3-64.7,51.7l-3.8,16.6
							c-3.6,16.1,0.2,32.8,10.5,45.8C42.2,199.6,57.7,207,74.2,207H154c1.5,0,2.4,0.8,2.8,1.3c0.4,0.5,1,1.5,0.7,3l-3.8,16.9
							c-1,4.4-4.8,7.5-9.3,7.5H62l0.1-0.3l3.5-15.6h-16H13.8H3.6l-2.2,9.9l-0.1,0.3c-3.4,15.2,0.2,30.9,9.9,43.1
							c9.7,12.2,24.2,19.1,39.8,19.1h96.8c31.1,0,57.7-21.2,64.7-51.6l8-34.9c3.1-13.5-0.1-27.5-8.8-38.3
							c-8.6-10.8-21.6-17.1-35.4-17.1H85.7c-1.5,0-2.4-0.8-2.8-1.3s-1-1.5-0.7-3l2.1-9.5c1-4.4,4.8-7.5,9.3-7.5h82.2l-0.1,0.3
							l-3.5,15.6h15.9h35.5H234l2.3-9.9l0.1-0.2c3.5-15.2-0.1-30.9-9.9-43.1C216.7,79.6,202.2,72.6,186.5,72.6L186.5,72.6z"/>
					</g>
				</g>
			</g>
		</g>
		<rect x="213.5" y="169.2" class="st0" width="23.5" height="36.7"/>
		<rect x="56.7" y="203.7" class="st0" width="23.5" height="36.7"/>
	</g>
</g>
</svg>
