<?xml version="1.0" encoding="utf-8"?>
<!-- Generator: Adobe Illustrator 26.0.3, SVG Export Plug-In . SVG Version: 6.00 Build 0)  -->
<svg version="1.1" id="Layer_1" xmlns="http://www.w3.org/2000/svg" xmlns:xlink="http://www.w3.org/1999/xlink" x="0px" y="0px"
	 viewBox="0 0 3839 422" style="enable-background:new 0 0 3839 422;" xml:space="preserve">
<style type="text/css">
	.st0{clip-path:url(#SVGID_00000118360278734782439670000002800259609772738469_);fill:#F02622;}
	.st1{clip-path:url(#SVGID_00000118360278734782439670000002800259609772738469_);fill:#DA221F;}
	.st2{fill:#FFFFFF;}
	.st3{fill:#034693;}
	.st4{clip-path:url(#SVGID_00000016790697869404505230000005800489839026122880_);fill:#FF0025;}
	.st5{clip-path:url(#SVGID_00000016790697869404505230000005800489839026122880_);fill:#E8001C;}
	.st6{clip-path:url(#SVGID_00000016790697869404505230000005800489839026122880_);fill:#DA221F;}
	.st7{clip-path:url(#SVGID_00000016790697869404505230000005800489839026122880_);fill:#F02622;}
	.st8{clip-path:url(#SVGID_00000016759162403398609700000017273340667466881963_);fill:#F02622;}
	.st9{clip-path:url(#SVGID_00000016759162403398609700000017273340667466881963_);fill:#DA221F;}
	.st10{fill:#B2B2B2;}
	.st11{clip-path:url(#SVGID_00000000200924781641453230000017188148791681739939_);fill:#FF0025;}
	.st12{clip-path:url(#SVGID_00000000200924781641453230000017188148791681739939_);fill:#E8001C;}
	.st13{clip-path:url(#SVGID_00000000200924781641453230000017188148791681739939_);fill:#DA221F;}
	.st14{clip-path:url(#SVGID_00000000200924781641453230000017188148791681739939_);fill:#F02622;}
	.st15{clip-path:url(#SVGID_00000098218583416345804850000006277580184381556627_);fill:#FAD512;}
	.st16{clip-path:url(#SVGID_00000098218583416345804850000006277580184381556627_);fill:#FEBB09;}
	.st17{fill:#DA221F;}
	.st18{clip-path:url(#SVGID_00000142866224549356992500000006378140106682753979_);fill:#FAD512;}
	.st19{clip-path:url(#SVGID_00000142866224549356992500000006378140106682753979_);fill:#E8001C;}
	.st20{clip-path:url(#SVGID_00000142866224549356992500000006378140106682753979_);fill:#FEBB09;}
	.st21{clip-path:url(#SVGID_00000067238519663283170380000017325513220148064640_);fill:#FAD512;}
	.st22{clip-path:url(#SVGID_00000067238519663283170380000017325513220148064640_);fill:#FEBB09;}
	.st23{clip-path:url(#SVGID_00000123414307814325681800000014307834532770396804_);fill:#FF0025;}
	.st24{clip-path:url(#SVGID_00000123414307814325681800000014307834532770396804_);fill:#E8001C;}
	.st25{clip-path:url(#SVGID_00000123414307814325681800000014307834532770396804_);fill:#008ED6;}
	.st26{clip-path:url(#SVGID_00000123414307814325681800000014307834532770396804_);fill:#00A1F2;}
	.st27{clip-path:url(#SVGID_00000010292323361991782200000016318043636595315359_);fill:#FF0025;}
	.st28{clip-path:url(#SVGID_00000010292323361991782200000016318043636595315359_);fill:#E8001C;}
	.st29{clip-path:url(#SVGID_00000010292323361991782200000016318043636595315359_);fill:#008ED6;}
	.st30{clip-path:url(#SVGID_00000010292323361991782200000016318043636595315359_);fill:#00A1F2;}
	.st31{display:none;}
	.st32{display:inline;}
	.st33{clip-path:url(#SVGID_00000013161886831968241680000016372393171490286489_);fill:#F02622;}
	.st34{clip-path:url(#SVGID_00000013161886831968241680000016372393171490286489_);fill:#DA221F;}
	.st35{clip-path:url(#SVGID_00000178173146956872811660000009211491062826193834_);fill:#FF0025;}
	.st36{clip-path:url(#SVGID_00000178173146956872811660000009211491062826193834_);fill:#E8001C;}
	.st37{clip-path:url(#SVGID_00000178173146956872811660000009211491062826193834_);fill:#DA221F;}
	.st38{clip-path:url(#SVGID_00000178173146956872811660000009211491062826193834_);fill:#F02622;}
	.st39{clip-path:url(#SVGID_00000182518104797887083880000008607685888020903063_);fill:#F02622;}
	.st40{clip-path:url(#SVGID_00000182518104797887083880000008607685888020903063_);fill:#DA221F;}
	.st41{clip-path:url(#SVGID_00000181784958943149938930000013971695335261564080_);fill:#FF0025;}
	.st42{clip-path:url(#SVGID_00000181784958943149938930000013971695335261564080_);fill:#E8001C;}
	.st43{clip-path:url(#SVGID_00000181784958943149938930000013971695335261564080_);fill:#DA221F;}
	.st44{clip-path:url(#SVGID_00000181784958943149938930000013971695335261564080_);fill:#F02622;}
	.st45{clip-path:url(#SVGID_00000070076718123619226100000015449684479595211695_);fill:#FAD512;}
	.st46{clip-path:url(#SVGID_00000070076718123619226100000015449684479595211695_);fill:#FEBB09;}
	.st47{clip-path:url(#SVGID_00000160150203277098644680000015642091859657883547_);fill:#FAD512;}
	.st48{clip-path:url(#SVGID_00000160150203277098644680000015642091859657883547_);fill:#E8001C;}
	.st49{clip-path:url(#SVGID_00000160150203277098644680000015642091859657883547_);fill:#FEBB09;}
	.st50{clip-path:url(#SVGID_00000134212635449040387590000005274074013675390338_);fill:#FF0025;}
	.st51{clip-path:url(#SVGID_00000134212635449040387590000005274074013675390338_);fill:#E8001C;}
	.st52{clip-path:url(#SVGID_00000134212635449040387590000005274074013675390338_);fill:#FF981D;}
	.st53{clip-path:url(#SVGID_00000134212635449040387590000005274074013675390338_);fill:#FFAF22;}
	.st54{clip-path:url(#SVGID_00000134212635449040387590000005274074013675390338_);fill:#FAD512;}
	.st55{clip-path:url(#SVGID_00000134212635449040387590000005274074013675390338_);fill:#FEBB09;}
	.st56{clip-path:url(#SVGID_00000014625094374054996740000009517356396780688307_);fill:#FF0025;}
	.st57{clip-path:url(#SVGID_00000014625094374054996740000009517356396780688307_);fill:#E8001C;}
	.st58{clip-path:url(#SVGID_00000014625094374054996740000009517356396780688307_);fill:#008ED6;}
	.st59{clip-path:url(#SVGID_00000014625094374054996740000009517356396780688307_);fill:#00A1F2;}
	.st60{clip-path:url(#SVGID_00000146473420633988147010000007620686318543173784_);fill:#FF0025;}
	.st61{clip-path:url(#SVGID_00000146473420633988147010000007620686318543173784_);fill:#E8001C;}
	.st62{clip-path:url(#SVGID_00000146473420633988147010000007620686318543173784_);fill:#008ED6;}
	.st63{clip-path:url(#SVGID_00000146473420633988147010000007620686318543173784_);fill:#00A1F2;}
</style>
<g>
	<g>
		<path d="M462,142.6l-10.9-4.6c0.7-2.1,1.3-4.6,1.3-7.3c0-6.8-63.7-43.3-174.2-43.3c-105.5,0-151,25.1-151,57.4
			c0,85.5,399.1-39.6,399.1,149.1c0,68.8-86.7,122-260.2,122c-165.3,0-212.7-40.6-228.4-40.6c-4.1,0-6.1,2.7-9.4,4.1l-8.8-1.6
			l56.3-88.6l10.9,4.1c0,2.1-1.3,4.1-1.3,8.4c0,30.8,87.4,52.6,174.2,52.6c123.3,0,165.3-27.1,165.3-55.8
			C425,196.3,31.3,323,31.3,149.9c-0.1-87.5,119.8-124,251.2-124c117.9,0,200.6,39.6,208.7,39.6c8.8,0,10.2-2.1,12.2-3.6l10.9,2.7
			L462,142.6z"/>
		<path d="M546,403.2c14.9,0,17.7-4.1,17.7-15.7V54c0-11.4-2.7-15.7-17.7-15.7v-7.3h439.7c16.2,0,23.1-4.1,23.1-11.4h9.4v86.6h-9.4
			c0-9.4-6.8-13.5-23.1-13.5H660v92.8h212.7c16.2,0,23.1-4.1,23.1-13.5h9.4v87.6h-9.4c0-4.1-1.3-7.3-5.4-9.4
			c-3.5-2.1-9.4-3.2-17.7-3.2H660V349h332c16.2,0,23.1-4.1,23.1-12.5h9.4V422h-9.4c0-7.3-6.8-11.4-23.1-11.4H546V403.2z"/>
		<path d="M1592.9,210.4v7.3c-6.8,1.1-12.9,5.2-12.9,16.7v102.6c0,8.4,3.5,11.4,12.2,13v7.3c-42.8,18.7-147,58.4-264.2,58.4
			c-155.9,0-292.7-59.5-292.7-194.9s159.8-195,300.8-195c55.5,0,108.5,10,147,19.3c35.8,11.9,62.4,21.4,67,21.4
			c6.1,0,12.2-2.7,14.9-5.7l9.4,3.2l-65.7,85.5l-9.4-4.6c0.7-2.1,1.3-5.2,1.3-8.9c0-16.2-73.2-48.5-163.3-48.5
			c-113.8,0-205.9,43.3-205.9,131.3c0,92.3,92.1,135.6,196.5,135.6c85.4,0,135.6-22.4,155.9-33.9v-43.3h-116.6
			c-13.5,0-21.6,5.2-21.6,12.5h-9.4v-91.7h9.4c0,7.3,8.1,12.5,21.6,12.5L1592.9,210.4L1592.9,210.4z"/>
		<path d="M1594.2,410.5v-7.3c12.2-0.5,16.2-3.2,25.8-19.8l184.9-320c3.5-5.2,7.4-10.9,7.4-15.7c0-5.7-5.4-8.4-14.2-9.4v-7.3h147.8
			v7.3c-10.2,1.1-14.2,4.1-14.2,7.8c0,4.1,2.7,8.4,6.1,13.5l196.5,323.7c9.4,16.2,12.2,19.8,26.4,19.8v7.3h-134.9v-7.3
			c8.8,0,12.2-2.7,12.2-5.2c0-5.7-6.1-13-51.5-87.5h-232.3c-39.3,67.7-49.5,78.2-49.5,85c0,4.6,4.1,7.3,10.2,7.8v7.3h-120.7V410.5z
			 M1947.2,251L1866,114.4L1786.1,251H1947.2z"/>
		<path d="M2519.2,168.2h9.4c2.7,8.9,13.5,13,51.5,13c92.8,0,117.9-23.5,117.9-45.8c0-24-32.5-47.9-103.7-47.9
			c-91.5,0-154.5,38.5-154.5,55.8c0,3.6,1.3,6.8,2.7,9.4l-8.1,5.2l-71.7-72.5l9.4-4.1c2.7,1.6,6.1,3.2,10.2,3.2
			c19.6,0,60.9-58.4,218.1-58.4c110.5,0,193.8,45.8,193.8,105.8c0,35.4-25.1,63.1-68.4,73v1.1c57,15.7,96.3,45.4,96.3,94.8
			c0,67.2-85.4,115.2-216.8,115.2c-176.8,0-215.5-46.9-238.4-46.9c-5.4,0-9.4,2.1-13.5,4.6l-10.9-3.2l54.2-89.6l10.2,4.6
			c0,1.6-0.7,3.6-0.7,6.2c0,20.3,75.1,62.5,187.7,62.5c85.4,0,132.1-23,132.1-55.8c0-28.7-35.2-59.9-133.4-59.9
			c-50.8,0-61.6,5.7-63.7,15.1h-9.4v-85.6H2519.2z"/>
		<path d="M2839.6,103l9.4-5.7c1.3,1.6,4.1,2.7,8.1,2.7c19,0,69.8-73.9,214.1-73.9c84,0,189.1,37,189.1,109.4
			c0,138.6-258.8,124-327.9,211.6H3259c14.9,0,20.3-4.1,20.3-12.5h9.4V422h-9.4c0-7.3-5.4-11.4-20.3-11.4H2824
			c0-190.3,340.1-181.9,340.1-271.5c0-33.9-50.8-51.6-96.9-51.6c-77.9-0.1-144.3,49.9-144.3,72.9c0,4.6,2.7,7.8,5.4,10.5l-8.8,6.2
			L2839.6,103z"/>
		<path d="M3313.9,410.5v-7.3c17-1.1,21.6-8.9,34.5-21.9L3517.8,214L3358,50.4c-4.1-4.1-10.2-11.9-27.1-11.9v-7.4h159.8v7.3
			c-8.8,0-14.2,2.1-14.2,7.3c0,2.1,3.5,6.2,10.2,13l92.1,94.8l96.3-95.3c5.4-5.7,9.4-10,9.4-13c0-4.1-5.4-6.8-11.6-6.8v-7.3h150.4
			v7.3c-22.3,0.5-31.2,9.4-44.1,21.9l-147.8,146.4l170.7,174.6c13.5,14.1,18.3,21.4,36.6,21.9v7.3h-158.5v-7.3
			c10.2,0,12.9-1.6,12.9-6.8c0-4.6-11.6-15.1-24.4-28.1L3570,267.6l-119.9,118.8c-3.5,3.6-6.1,5.2-6.1,10c0,4.1,5.4,6.8,14.2,6.8
			v7.3H3313.9z"/>
	</g>
	<g>
		<path class="st17" d="M442.4,122.9l-10.9-4.6c0.7-2.1,1.3-4.6,1.3-7.3c0-6.8-63.7-43.3-174.2-43.3c-105.5,0-151,25.1-151,57.4
			c0,85.5,399.1-39.6,399.1,149.1c0,68.8-86.7,122-260.2,122c-165.3,0-212.7-40.6-228.4-40.6c-4.1,0-6.1,2.7-9.4,4.1L0,358.1
			l56.3-88.6l10.9,4.1c0,2.1-1.3,4.1-1.3,8.4c0,30.8,87.4,52.6,174.2,52.6c123.3,0,165.3-27.1,165.3-55.8
			c0-102.1-393.6,24.6-393.6-148.6c-0.1-87.5,119.8-124,251.2-124c117.9,0,200.6,39.6,208.7,39.6c8.8,0,10.2-2.1,12.2-3.6l10.9,2.7
			L442.4,122.9z"/>
		<path class="st17" d="M526.4,383.6c14.9,0,17.7-4.1,17.7-15.7V34.4c0-11.4-2.7-15.7-17.7-15.7v-7.3h439.7
			c16.2,0,23.1-4.1,23.1-11.4h9.4v86.6h-9.4c0-9.4-6.8-13.5-23.1-13.5H640.3v92.8H853c16.2,0,23.1-4.1,23.1-13.5h9.4v87.6h-9.4
			c0-4.1-1.3-7.3-5.4-9.4c-3.5-2.1-9.4-3.2-17.7-3.2H640.3v102.1h332c16.2,0,23.1-4.1,23.1-12.5h9.4v85.5h-9.4
			c0-7.3-6.8-11.4-23.1-11.4h-446V383.6z"/>
		<path class="st17" d="M1573.3,190.8v7.3c-6.8,1.1-12.9,5.2-12.9,16.7v102.6c0,8.4,3.5,11.4,12.2,13v7.3
			c-42.8,18.7-147,58.4-264.2,58.4c-155.9,0-292.7-59.5-292.7-194.9s159.8-195,300.8-195c55.5,0,108.5,10,147,19.3
			c35.8,11.9,62.4,21.4,67,21.4c6.1,0,12.2-2.7,14.9-5.7l9.4,3.2l-65.7,85.5l-9.4-4.6c0.7-2.1,1.3-5.2,1.3-8.9
			c0-16.2-73.2-48.5-163.3-48.5c-113.8,0-205.9,43.3-205.9,131.3c0,92.3,92.1,135.6,196.5,135.6c85.4,0,135.6-22.4,155.9-33.9v-43.3
			h-116.6c-13.5,0-21.6,5.2-21.6,12.5h-9.4v-91.7h9.4c0,7.3,8.1,12.5,21.6,12.5L1573.3,190.8L1573.3,190.8z"/>
		<path class="st17" d="M1574.6,390.9v-7.3c12.2-0.5,16.2-3.2,25.8-19.8l184.9-320c3.5-5.2,7.4-10.9,7.4-15.7
			c0-5.7-5.4-8.4-14.2-9.4v-7.3h147.8v7.3c-10.2,1.1-14.2,4.1-14.2,7.8c0,4.1,2.7,8.4,6.1,13.5l196.5,323.7
			c9.4,16.2,12.2,19.8,26.4,19.8v7.3h-134.9v-7.3c8.8,0,12.2-2.7,12.2-5.2c0-5.7-6.1-13-51.5-87.5h-232.3
			c-39.3,67.7-49.5,78.2-49.5,85c0,4.6,4.1,7.3,10.2,7.8v7.3h-120.7V390.9z M1927.6,231.4l-81.3-136.6l-79.9,136.6H1927.6z"/>
		<path class="st17" d="M2499.6,148.6h9.4c2.7,8.9,13.5,13,51.5,13c92.8,0,117.9-23.5,117.9-45.8c0-24-32.5-47.9-103.7-47.9
			c-91.5,0-154.5,38.5-154.5,55.8c0,3.6,1.3,6.8,2.7,9.4l-8.1,5.2L2343,65.7l9.4-4.1c2.7,1.6,6.1,3.2,10.2,3.2
			c19.6,0,60.9-58.4,218.1-58.4c110.5,0,193.8,45.8,193.8,105.8c0,35.4-25.1,63.1-68.4,73v1.1c57,15.7,96.3,45.4,96.3,94.8
			c0,67.2-85.4,115.2-216.8,115.2c-176.8,0-215.5-46.9-238.4-46.9c-5.4,0-9.4,2.1-13.5,4.6l-10.9-3.2l54.2-89.6l10.2,4.6
			c0,1.6-0.7,3.6-0.7,6.2c0,20.3,75.1,62.5,187.7,62.5c85.4,0,132.1-23,132.1-55.8c0-28.7-35.2-59.9-133.4-59.9
			c-50.8,0-61.6,5.7-63.7,15.1h-9.4v-85.6H2499.6z"/>
		<path class="st17" d="M2819.9,83.4l9.4-5.7c1.3,1.6,4.1,2.7,8.1,2.7c19,0,69.8-73.9,214.1-73.9c84,0,189.1,37,189.1,109.4
			c0,138.6-258.8,124-327.9,211.6h326.6c14.9,0,20.3-4.1,20.3-12.5h9.4v87.5h-9.4c0-7.3-5.4-11.4-20.3-11.4h-434.9
			c0-190.3,340.1-181.9,340.1-271.5c0-33.9-50.8-51.6-96.9-51.6c-77.9-0.1-144.3,49.9-144.3,72.9c0,4.6,2.7,7.8,5.4,10.5l-8.8,6.2
			L2819.9,83.4z"/>
		<path class="st17" d="M3294.3,390.9v-7.3c17-1.1,21.6-8.9,34.5-21.9l169.4-167.3L3338.4,30.8c-4.1-4.1-10.2-11.9-27.1-11.9v-7.4
			h159.8v7.3c-8.8,0-14.2,2.1-14.2,7.3c0,2.1,3.5,6.2,10.2,13l92.1,94.8l96.3-95.3c5.4-5.7,9.4-10,9.4-13c0-4.1-5.4-6.8-11.6-6.8
			v-7.3h150.4v7.3c-22.3,0.5-31.2,9.4-44.1,21.9L3612,187.1l170.7,174.6c13.5,14.1,18.3,21.4,36.6,21.9v7.3h-158.5v-7.3
			c10.2,0,12.9-1.6,12.9-6.8c0-4.6-11.6-15.1-24.4-28.1L3550.4,248l-119.9,118.8c-3.5,3.6-6.1,5.2-6.1,10c0,4.1,5.4,6.8,14.2,6.8
			v7.3H3294.3z"/>
	</g>
</g>
</svg>
