<?xml version="1.0" encoding="utf-8"?>
<!-- Generator: Adobe Illustrator 25.2.1, SVG Export Plug-In . SVG Version: 6.00 Build 0)  -->
<svg version="1.1" id="Layer_1" xmlns="http://www.w3.org/2000/svg" xmlns:xlink="http://www.w3.org/1999/xlink" x="0px" y="0px"
	 viewBox="0 0 3839 630.5" style="enable-background:new 0 0 3839 630.5;" xml:space="preserve">
<style type="text/css">
	.st0{fill-rule:evenodd;clip-rule:evenodd;fill:#FDDB00;}
	.st1{fill-rule:evenodd;clip-rule:evenodd;fill:#73B744;}
	.st2{fill-rule:evenodd;clip-rule:evenodd;fill:#E11F26;}
	.st3{fill-rule:evenodd;clip-rule:evenodd;fill:#25A4DD;}
	.st4{fill:#FFFFFF;}
	.st5{fill-rule:evenodd;clip-rule:evenodd;}
	.st6{fill-rule:evenodd;clip-rule:evenodd;fill:#FFFFFF;}
</style>
<g>
	<g>
		<path id="yellow_7_" class="st0" d="M508.5,454.7c160.7,0,182.1,69.4,182.1,94.2c0,29.1-45.4,81.6-182.1,81.6
			c-141.4,0-175.8-59.2-175.8-81.6C332.7,525.3,344.7,454.7,508.5,454.7z"/>
		<path id="green_7_" class="st1" d="M169.5,291.5c160.7,0,175.8,76.8,175.8,94.2s-32.8,81.6-169.5,81.6C34.4,467.3,0,403,0,385.7
			S5.7,291.5,169.5,291.5z"/>
		<path id="red_7_" class="st2" d="M552.5,335.5c0,0,2.6-140.2,131.8-157s183.8,91.1,188.3,113C914.5,495,728.2,505.3,728.2,505
			C716.5,326.2,552.5,335.5,552.5,335.5z"/>
		<path id="blue_7_" class="st3" d="M226,166c0,0,2.6-140.2,131.8-157s183.8,91.1,188.3,113C588,325.5,401.8,335.8,401.8,335.5
			C390,156.7,226,166,226,166z"/>
	</g>
	<g id="data_14_">
		<path class="st4" d="M3753.5,187H948.7v-14.5h2804.8V187z M2048.2,503.7v32.6h132.6v60.9h-132.6v32.6h132.6h25.4v-32.6v-60.9
			v-32.6h-25.4H2048.2z M1723.5,560.2h111.6c0,12.3-2.2,16.7-13,16.7h-26.1h-17.4v12.3c0,5.8-1.4,11.6-15.2,11.6h-31.9v29h34.8
			c16.7,0,29-11.6,29-26.8v-2.2h26.8c18.8,0,32.6-13.8,32.6-34.1v-7.2v-26.1h-131.2V560.2z M1872,529.8l158,17.4v-28.3l-158-17.4
			L1872,529.8z M1872,571.1l158,17.4V561l-158-17.4V571.1z M1872,612.4l158,17.4v-28.3l-158-17.4L1872,612.4z M1086.4,548.6v-12.3
			l0,0v-32.6H955.2v32.6h107.3v12.3c0,29.7-26.8,47.1-71.7,49.3h-40.6v32.6h44.2c28.3,0,50.7-11.6,66-26.8l18.1,26.8h38.4
			l-39.9-49.3C1082.8,570.4,1086.4,558.8,1086.4,548.6z M2223.5,536.3h96.4v-32.6h-96.4V536.3z M2359.1,543.6
			c0,42.8-21,53.6-55.8,53.6h-79.7v32.6h89.1c47.8,0,68.1-31.2,68.1-68.1V503h-21.7V543.6z M1273.4,551.5
			c0,27.5-11.6,46.4-52.2,46.4v32.6c69.6,0,75.4-44.2,75.4-73.9v-52.9h-23.9L1273.4,551.5L1273.4,551.5z M1341.5,551.5v-47.8h-24.6
			v52.9c0,29,8,73.9,77.5,73.9v-32.6C1353.1,597.2,1341.5,579.1,1341.5,551.5z M1556.8,536.3h127.6v20.3c0,33.3-21.7,40.6-68.1,40.6
			h-50v32.6h69.6c34.1,0,71.7-27.5,71.7-69.6v-24.6l0,0V503h-151.5v33.3H1556.8z M1104.5,580.5h114.5v-28.3h-114.5V580.5z
			 M1399.5,580.5h115.2v-28.3h-115.2V580.5z M1396.6,524c0,13-10.9,23.9-23.9,23.9c-13,0-23.9-10.9-23.9-23.9
			c0-13,10.9-23.9,23.9-23.9C1386.5,500.1,1396.6,510.9,1396.6,524z M1383.6,524c0-5.8-5.1-10.9-10.9-10.9
			c-5.8,0-10.9,5.1-10.9,10.9s5.1,10.9,10.9,10.9C1378.5,534.1,1383.6,529.8,1383.6,524z M2404,508h7.2v20.3h5.1V508h7.2v-4.3h-20.3
			v4.3H2404z M2441.7,523.3L2441.7,523.3l-4.3-19.6h-8v24.6h5.1v-21l0,0l4.3,21h5.1l4.3-21l0,0v21h5.1v-24.6h-7.2L2441.7,523.3z
			 M1000.9,368.2h81.2c29.7,0,30.4,44.2,0,44.2H960.3V445h157.3c63.1,0,63.8-105.8-2.9-105.8h-81.9c-32.6,0-32.6-40.6,0-40.6h116.7
			V266h-149.3C930.6,266,932.8,368.2,1000.9,368.2z M1186.4,266V379c0,41.3,29.7,65.2,60.9,65.2h136.3V266h-50.7v145.7h-59.4
			c-26.1,0-39.1-20.3-39.1-36.2V266H1186.4z M1548.1,378.3h-80.4v65.2h-50.7V262.4h50.7h80.4
			C1638.7,262.4,1642.3,378.3,1548.1,378.3z M1531.4,295h-63.8v55.1h63.8C1572,349.3,1571.3,295,1531.4,295z M1825.7,408h-97.8
			c-25.4,0-36.2-30.4-33.3-40.6h131.9v-32.6h-131.9c-2.9-10.9,7.2-40.6,32.6-40.6h98.6v-32.6h-108c-103.6,0-102.9,181.9,0,181.9h108
			V408z M2292.4,295h87.7v-32.6h-107.3c-43.5,0-79,28.3-79,73.2l0,0V445h50.7v-73.9h135.5v-36.2h-134.8
			C2245.3,306.6,2261.2,295,2292.4,295z M3106.3,262.4c-106.5,0-119.6,181.9,12.3,181.9l0,0h90.6V408h-91.3
			c-50.7,0-50.7-113.8,0-113.8h91.3v-32.6L3106.3,262.4L3106.3,262.4z M2830.2,262.4h-139.9h-50.7v181.9h50.7v-150h55.1v150h47.1
			v-150h14.5c25.4,0,47.8,11.6,47.8,41.3v108.7h50.7V326.9C2906.3,282.6,2879.4,262.4,2830.2,262.4z M2938.9,444.3h55.1V262.4h-55.1
			V444.3z M3457.1,353.7c0,50-29.7,94.9-116.7,94.9s-116.7-44.9-116.7-94.9c0-51.5,31.2-91.3,116.7-91.3
			C3425.9,262.4,3457.1,302.2,3457.1,353.7z M3402.7,352.9c0-47.8-18.1-62.3-62.3-62.3c-44.2,0-62.3,13.8-62.3,62.3
			c0,45.7,17.4,62.3,62.3,62.3C3385.3,415.3,3402.7,398.6,3402.7,352.9z M2606.2,346.4v39.1v58.7h-142c-81.9,0-84.1-112.3-0.7-112.3
			h88.4c0-11.6-11.6-37-42.8-37h-96.4v-32.6h113.8C2570,263.1,2606.2,286.3,2606.2,346.4z M2551.9,363.8h-73.2
			c-29.7,0-29,44.2,0,44.2h73.2v-22.5V363.8z M1909.7,444.3h-51.5V262.4h51.5l0,0h81.2c92,0,100.7,92,26.8,110.2l58,72.5h-60.2
			l-46.4-68.9h-58.7L1909.7,444.3L1909.7,444.3z M1909.7,342.1h73.9c32.6,0,33.3-47.8,0-47.8h-73.9V342.1z M3677.4,262.4h-139.9
			h-50.7v181.9h50.7v-150h55.1v150h47.1v-150h14.5c25.4,0,47.8,11.6,47.8,41.3v108.7h50.7V326.9
			C3753.5,282.6,3727.4,262.4,3677.4,262.4z M3778.8,267.4h9.4v24.6h6.5v-24.6h9.4v-5.1h-25.4L3778.8,267.4L3778.8,267.4z
			 M3829.6,261.6l-5.1,23.9l0,0l-5.8-23.9h-9.4v30.4h5.8v-25.4l0,0l5.8,25.4h6.5l5.8-25.4l0,0v25.4h5.8v-30.4H3829.6z M1080.6,6.5
			H963.9v29h116.7V6.5z M1094.4,89.9H950.2v29h144.2V89.9z M2891,6.5h-116.7v29H2891V6.5z M2904.8,89.9h-144.2v29h144.2V89.9z
			 M1829.3,51.5h-108.7v24.6h108.7V51.5z M1194.4,6.5h-84.8v29h84.8V6.5z M1248.8,58.7V7.2h-19.6v35.5c0,37.7-18.8,47.8-49.3,47.8
			h-70.3v29h79C1230.6,118.9,1248.8,91.3,1248.8,58.7z M1503.2,6.5h-84.8v29h84.8V6.5z M1557.5,58.7V7.2h-19.6v35.5
			c0,37.7-18.8,47.8-49.3,47.8h-70.3v29h79C1539.4,118.9,1557.5,91.3,1557.5,58.7z M1682.2,6.5h-15.2v28.3h15.2V6.5z M1704.6,6.5
			h-15.2v28.3h15.2V6.5z M1598.1,67.4c2.9,5.8,13,11.6,21.7,11.6h84.1V51.5h-84.1c-8,0-18.8-4.3-21.7-12.3V6.5h-24.6v112.3h24.6
			V67.4z M2258.3,46.4h-84.8v26.8h84.8V46.4z M2258.3,6.5h-84.8v26.8h84.8V6.5z M2312.7,58.7V7.2h-19.6v35.5
			c0,37.7-18.8,46.4-49.3,47.8h-70.3v29h79C2294.6,118.9,2312.7,91.3,2312.7,58.7z M2343.9,32.6h-17.4v40.6h17.4V32.6z M2369.9,32.6
			h-17.4v40.6h17.4V32.6z M2334.4,118.9h54.4c29,0,42-18.8,42-41.3V34.1h-13.8v25.4c0,26.1-13,31.9-34.1,33.3h-48.6L2334.4,118.9
			L2334.4,118.9z M1899.6,35.5h82.6v18.8v4.3c0,26.8-26.8,31.2-31.9,31.2c-5.1,0-79.7,0-79.7,0v29h76.8c42.8,0,55.8-38.4,55.8-49.3
			V6.5h-120.3c0,29-23.9,36.2-23.9,36.2V71C1890.9,71,1899.6,35.5,1899.6,35.5z M2485.2,35.5h82.6v18.8v4.3
			c0,26.8-26.8,31.2-31.9,31.2s-79.7,0-79.7,0v29h76.8c42.8,0,55.8-38.4,55.8-49.3V6.5h-120.3c0,29-23.9,36.2-23.9,36.2V71
			C2477.2,71,2485.2,35.5,2485.2,35.5z M2150.3,6.5h-123.9v25.4h123.9V6.5z M2136.6,78.3c0,5.1-5.1,11.6-15.9,11.6h-92v29h93.5
			c29,0,36.2-21,36.2-36.2V43.5h-139.9v26.8h118.9L2136.6,78.3z M1397.3,6.5h-123.9v25.4h123.9V6.5z M1345.2,78.3
			c0,5.1-5.1,11.6-15.9,11.6h-63.8v29h65.2c29,0,36.2-21,36.2-36.2V70.3h38.4V43.5h-139.9v26.8h79.7V78.3z M2746.8,15.9L2607.7,0
			v26.1L2746.8,42L2746.8,15.9L2746.8,15.9z M2746.8,55.1l-139.2-15.9v25.4l139.2,15.9V55.1z M2746.8,92.8l-139.2-15.9v26.1
			l139.2,15.9V92.8z"/>
	</g>
</g>
</svg>
