<?xml version="1.0" encoding="utf-8"?>
<!-- Generator: Adobe Illustrator 25.4.1, SVG Export Plug-In . SVG Version: 6.00 Build 0)  -->
<svg version="1.1" id="Layer_1" xmlns="http://www.w3.org/2000/svg" xmlns:xlink="http://www.w3.org/1999/xlink" x="0px" y="0px"
	 viewBox="0 0 3839 980.4" style="enable-background:new 0 0 3839 980.4;" xml:space="preserve">
<style type="text/css">
	.st0{fill:#FFFFFF;}
	.st1{fill:#034693;}
	.st2{fill:#FFFFFF;stroke:#3852A1;stroke-width:6.1873;stroke-linecap:round;stroke-linejoin:round;stroke-miterlimit:10;}
	.st3{fill:#008ED6;}
	.st4{fill:#FF0000;}
	.st5{fill:url(#SVGID_1_);}
	.st6{fill:url(#SVGID_00000053515066925034605400000003223908508460771971_);}
	.st7{fill:#F4F8F4;}
	.st8{fill:url(#SVGID_00000183937213865309623170000013155236047216684196_);}
	.st9{fill:url(#SVGID_00000044865328760363041610000001624442972598978441_);}
	.st10{fill:url(#SVGID_00000111168022683680036870000008791312639618542525_);}
	.st11{fill:url(#SVGID_00000073698410070883318010000004979450953188201919_);}
	.st12{fill:url(#SVGID_00000094580695978114944990000014146324199119343277_);}
	.st13{fill:url(#SVGID_00000022558136081105110870000002644474365647026070_);}
	.st14{fill:url(#SVGID_00000181073222838503524120000000782137406869898132_);}
	.st15{fill:url(#SVGID_00000052821633713750154580000001802719393623961491_);}
	.st16{fill:url(#SVGID_00000008843003899881907380000004214173329492562085_);}
	.st17{fill:url(#SVGID_00000006694581450823892880000017635120229543646866_);}
	.st18{fill:url(#SVGID_00000126309210763789149180000009921987030132844192_);}
	.st19{fill:url(#SVGID_00000062177860472947941040000007715018402085196436_);}
	.st20{fill:url(#SVGID_00000075881946590688925310000017465690601745175480_);}
	.st21{fill:url(#SVGID_00000165217982779687666760000014711269442031051399_);}
	.st22{fill:url(#SVGID_00000177481213921977582030000014305301787508520071_);}
	.st23{fill:url(#SVGID_00000043438896980932742680000010606737214964497028_);}
	.st24{fill:url(#SVGID_00000061468498715521125040000018302958143392855224_);}
	.st25{fill:url(#SVGID_00000075145388340637386010000006998091849071105950_);}
	.st26{fill:url(#SVGID_00000036940978191630806150000011449469481814434196_);}
	.st27{fill:url(#SVGID_00000061461107569978633710000013505551881882356872_);}
	.st28{fill:url(#SVGID_00000160168686988616980110000010790204393208953741_);}
	.st29{fill:url(#SVGID_00000101818399544821803060000014860497681841149075_);}
	.st30{fill:#DBDCD9;}
	.st31{fill:url(#SVGID_00000025406972661813488980000014490054002751594676_);}
	.st32{fill:url(#SVGID_00000003823075391604336730000007957526686405331356_);}
	.st33{fill:url(#SVGID_00000002350972885123588660000013925162284607505794_);}
	.st34{fill:url(#SVGID_00000042735439917126941980000004013278203197115299_);}
	.st35{fill:url(#SVGID_00000094614514144378374380000008009738690448371625_);}
	.st36{fill:url(#SVGID_00000030447976825721158760000008866133198704575386_);}
	.st37{fill:url(#SVGID_00000041989286870291807410000000423669835971409834_);}
	.st38{fill:url(#SVGID_00000113347310412606425410000007460948035144943290_);}
	.st39{fill:url(#SVGID_00000093142501013646020750000016561140142764276375_);}
	.st40{fill:url(#SVGID_00000026149500417791071580000006883326949783835318_);}
	.st41{fill:url(#SVGID_00000144340049773971649930000006357705069033504399_);}
	.st42{fill:url(#SVGID_00000008866976497518573410000005638172635171162242_);}
	.st43{fill:url(#SVGID_00000122716030968034957780000014456377183057811391_);}
	.st44{fill:url(#SVGID_00000023966945859712988200000003795897007237623201_);}
	.st45{fill:url(#SVGID_00000111877294622083499620000009276571583479426702_);}
	.st46{fill:url(#SVGID_00000115498781011172000900000000226658628420286606_);}
	.st47{fill:url(#SVGID_00000023990377822754493750000018178481378732403625_);}
	.st48{fill:url(#SVGID_00000027593692030833364270000007288645014911319224_);}
	.st49{fill:url(#SVGID_00000173121371781738726150000004139498850227581358_);}
	.st50{fill:url(#SVGID_00000072265084344874827260000016869455000174163871_);}
	.st51{fill:url(#SVGID_00000120551414234890461570000013780181475300910984_);}
	.st52{fill:url(#SVGID_00000119086020847827143690000004021777509548279448_);}
	.st53{fill:url(#SVGID_00000165217863449347290020000005278725612308946864_);}
	.st54{fill:url(#SVGID_00000083777963843585441200000013768754775336151728_);}
	.st55{fill:url(#SVGID_00000034075196083917067870000006363808748092731781_);}
	.st56{fill:url(#SVGID_00000159443792083608794020000000326946833568650431_);}
	.st57{fill:url(#SVGID_00000099637113315605317900000017724855545216777917_);}
	.st58{fill:url(#SVGID_00000160892778862377673830000015485070848928537521_);}
	.st59{fill:url(#SVGID_00000181781723822877325120000009964494626173553302_);}
	.st60{fill:url(#SVGID_00000084487784918583323970000010263852376899334802_);}
	.st61{fill:url(#SVGID_00000182519753260766244470000016809011664342640262_);}
	.st62{fill:url(#SVGID_00000134969910834117401280000007510661834083928707_);}
	.st63{fill:url(#SVGID_00000042015923609779193570000011399570912822612121_);}
	.st64{fill:url(#SVGID_00000080903420925347257250000016533461481695963327_);}
	.st65{fill:url(#SVGID_00000167369610162809314790000004955996332175754175_);}
	.st66{fill:url(#SVGID_00000078025328731814702750000011135842825861984899_);}
	.st67{fill:url(#SVGID_00000082333024950579951860000010579571183064866713_);}
	.st68{fill:url(#SVGID_00000106114710392017277810000016732034746378161343_);}
	.st69{fill:url(#SVGID_00000180344355843732297760000015202912298052138918_);}
	.st70{fill:url(#SVGID_00000061450136974117797680000012369989153957054893_);}
	.st71{fill:url(#SVGID_00000032640564390193451160000015941243308927552163_);}
	.st72{fill:url(#SVGID_00000088091768301532808140000015493944205605597575_);}
	.st73{fill:url(#SVGID_00000076563837610026412620000010651116281566778496_);}
	.st74{fill:url(#SVGID_00000090979107195782098690000000510897906425001879_);}
	.st75{fill:url(#SVGID_00000088108687050189577290000007495212265999955129_);}
	.st76{fill:url(#SVGID_00000073719561301444957670000016863893555311699089_);}
	.st77{fill:url(#SVGID_00000126302751350872736010000000529898095982976679_);}
	.st78{fill:url(#SVGID_00000030459983683352404650000017344714491493477310_);}
	.st79{fill:url(#SVGID_00000067914690845074586870000006301120282853902765_);}
	.st80{fill:url(#SVGID_00000043444979093586040040000015928940829425704834_);}
	.st81{fill:url(#SVGID_00000137846001280176535700000003854586193057577376_);}
	.st82{fill:url(#SVGID_00000129898140893745273820000000056740312746680997_);}
	.st83{fill:url(#SVGID_00000150104910487552689090000018359083307834591670_);}
	.st84{fill:url(#SVGID_00000112611760406037004310000008062083796501835183_);}
	.st85{fill:url(#SVGID_00000083810489552442755460000002090088176695551872_);}
	.st86{fill:url(#SVGID_00000093145974845497913200000001813259226302874008_);}
	.st87{fill:url(#SVGID_00000023251728242295187850000003598022804954731393_);}
	.st88{fill:url(#SVGID_00000135657086533579349630000001950615812042207409_);}
	.st89{fill:url(#SVGID_00000000212625543547711910000005554019758083363735_);}
	.st90{fill:url(#SVGID_00000036967895754124879180000003435032140941173128_);}
	.st91{fill:url(#SVGID_00000000906522129194048810000016044342186583828623_);}
	.st92{fill:url(#SVGID_00000078760488822442670660000015782009564798516653_);}
	.st93{fill:url(#SVGID_00000137106160802536271550000004501756037329509010_);}
	.st94{fill:url(#SVGID_00000169527478399484970810000001732995170750719156_);}
	.st95{fill:url(#SVGID_00000132775875299797025980000008715457260125853106_);}
	.st96{fill:url(#SVGID_00000003787595656386415390000017630330845296278189_);}
	.st97{fill:url(#SVGID_00000048500351453232574680000004683116305196685722_);}
	.st98{fill:url(#SVGID_00000135670238005283388570000010879241492729975729_);}
	.st99{fill:url(#SVGID_00000016075214218545216540000015984531025182442656_);}
	.st100{fill:url(#SVGID_00000093857700780904267650000006354923124344561842_);}
	.st101{fill:url(#SVGID_00000068647358097065514010000010784077488559881918_);}
	.st102{fill:url(#SVGID_00000158708039820686359230000005117949856600168634_);}
	.st103{fill:url(#SVGID_00000124856266482740811330000010083531414139527856_);}
	.st104{fill:url(#SVGID_00000053534395572111553390000000702665255230830003_);}
	.st105{fill:url(#SVGID_00000060716211043577133550000013325433192290065796_);}
	.st106{fill:url(#SVGID_00000131342163289730398750000010533533999411632771_);}
	.st107{fill:url(#SVGID_00000118362208687322704430000006277684465524805539_);}
	.st108{fill:url(#SVGID_00000023984750411143527570000005200757275403065747_);}
	.st109{fill:url(#SVGID_00000067953778523929390010000010655808279996228246_);}
	.st110{fill:url(#SVGID_00000134942896150034719460000017494159026772927647_);}
	.st111{fill:url(#SVGID_00000038413255542127003370000013940757276988026261_);}
	.st112{fill:url(#SVGID_00000078739629035527795970000017726155446324629919_);}
	.st113{fill:url(#SVGID_00000008113856560870190970000011077776435998110387_);}
	.st114{fill:url(#SVGID_00000147912602405499945800000011664079061564824712_);}
	.st115{fill:url(#SVGID_00000143611884974075151260000011843352900423905933_);}
	.st116{fill:url(#SVGID_00000146458632835801528560000012418342852915071148_);}
	.st117{fill:url(#SVGID_00000091694083294964855470000001576518831609153678_);}
	.st118{fill:url(#SVGID_00000087398553567122594800000009925780243284638121_);}
	.st119{fill:url(#SVGID_00000037685807180917004360000003934081196091371407_);}
	.st120{fill:url(#SVGID_00000121996221274422913290000000913561246790325669_);}
	.st121{fill:url(#SVGID_00000023987799623866481440000001037958970404628149_);}
	.st122{fill:url(#SVGID_00000145742659517864142990000002044091463723380865_);}
	.st123{fill:url(#SVGID_00000044860917714991776920000007295285035066923439_);}
	.st124{fill:url(#SVGID_00000020389276290708763640000008391560061803643562_);}
	.st125{fill:url(#SVGID_00000077291813846456213110000009982938775764923059_);}
	.st126{fill:url(#SVGID_00000028307549492335265790000001294075410932811418_);}
	.st127{fill:url(#SVGID_00000005229225677078025530000014866776135345721488_);}
	.st128{fill:url(#SVGID_00000101822120145018105240000010162810317872003737_);}
	.st129{fill:url(#SVGID_00000183219261619326204230000011076129625926063786_);}
	.st130{fill:url(#SVGID_00000060013040210815620310000007862160906896849311_);}
	.st131{fill:url(#SVGID_00000048483068715681384990000009666352273378022566_);}
	.st132{fill:url(#SVGID_00000054975893673200671220000005866001901825981089_);}
	.st133{fill:url(#SVGID_00000163060232188588492550000007073616044587381903_);}
	.st134{fill:url(#SVGID_00000182506469327643830740000008754170427640666815_);}
	.st135{fill:url(#SVGID_00000098908264500989802010000013163604100157515678_);}
	.st136{fill:url(#SVGID_00000114777935159759904180000009838611774269143459_);}
	.st137{fill:url(#SVGID_00000136394915661910568550000011188886893991757965_);}
	.st138{fill:url(#SVGID_00000127029800590217385610000010154651334467925182_);}
	.st139{fill:url(#SVGID_00000003818516913484070790000008871102901845466754_);}
	.st140{fill:url(#SVGID_00000087381135722600033830000002530825686161358259_);}
	.st141{fill:url(#SVGID_00000102513250394904021370000012433471539449767604_);}
	.st142{fill:url(#SVGID_00000064339334173192825890000011945772029795969462_);}
	.st143{fill:url(#SVGID_00000173856484508520666980000001502609727153292189_);}
	.st144{fill:url(#SVGID_00000158016259796687187450000001887842056341086357_);}
	.st145{fill:url(#SVGID_00000003085336701174904260000006667938681492726931_);}
	.st146{fill:url(#SVGID_00000037683404950930830960000010513100545217180576_);}
	.st147{fill:url(#SVGID_00000170236921001751541370000004092010650140053407_);}
	.st148{fill:url(#SVGID_00000040541157789778648500000003718248760980183983_);}
	.st149{fill:url(#SVGID_00000119839859100340933070000016261807260377254797_);}
	.st150{fill:url(#SVGID_00000015346977489680542410000008104934395874354328_);}
	.st151{fill:url(#SVGID_00000133493954423471326700000003418747065778567600_);}
	.st152{fill:url(#SVGID_00000002367361296415462270000009338023120954455202_);}
	.st153{fill:url(#SVGID_00000004513251417407055560000003367438137078756519_);}
	.st154{fill:url(#SVGID_00000054224927359439323060000002571601371802692247_);}
	.st155{fill:url(#SVGID_00000090282694378250822950000001696127044510073233_);}
	.st156{fill:url(#SVGID_00000049194185846304998120000017821603621857278593_);}
	.st157{fill:url(#SVGID_00000133526715173837506580000010349888176768033667_);}
	.st158{fill:url(#SVGID_00000047048488797056842700000000009139762919616914_);}
	.st159{fill:url(#SVGID_00000086687927355559212560000001346802443110294940_);}
	.st160{fill:url(#SVGID_00000132794300009116354080000011236582487812968127_);}
	.st161{fill:url(#SVGID_00000105428927132478088750000005077852754083609008_);}
	.st162{fill:url(#SVGID_00000013159017446315245590000001504886685019715500_);}
	.st163{fill:url(#SVGID_00000062193039968598010000000016385413195764373382_);}
	.st164{fill:url(#SVGID_00000161609000204518731480000004287772018414511027_);}
	.st165{fill:url(#SVGID_00000095301746109932398800000018007195085119697853_);}
	.st166{fill:url(#SVGID_00000152227656794457681010000010979145644400915886_);}
	.st167{fill:url(#SVGID_00000054226835708081795660000009354640663153367222_);}
	.st168{fill:url(#SVGID_00000005238321925655689760000003123938801025868674_);}
	.st169{fill:url(#SVGID_00000102514413466322263760000014128342365234078868_);}
	.st170{fill:url(#SVGID_00000034089396458862583300000011638532694803026323_);}
	.st171{fill:url(#SVGID_00000179617336592001536140000017763079996544914089_);}
	.st172{fill:url(#SVGID_00000178199644916012119480000010444215522834566058_);}
	.st173{fill:url(#SVGID_00000004545198161087170360000001681813469661945275_);}
	.st174{fill:url(#SVGID_00000096750438137412599630000004633429157718282926_);}
	.st175{fill:url(#SVGID_00000124844609635471247500000010261637556759648931_);}
	.st176{fill:url(#SVGID_00000095327969303806698760000012278998172586426510_);}
	.st177{fill:url(#SVGID_00000051376394878714083920000011027282313621374086_);}
	.st178{fill:url(#SVGID_00000146458447988174010080000010338732872416729235_);}
	.st179{fill:url(#SVGID_00000137836577808860427490000016172634000001065135_);}
	.st180{fill:url(#SVGID_00000087389363793776348310000015151524192329299087_);}
	.st181{fill:url(#SVGID_00000090284054685732559960000010572761729395961513_);}
	.st182{fill:url(#SVGID_00000095328724574770271820000007404897021803825042_);}
	.st183{fill:url(#SVGID_00000178172117839916073410000000615375655198593430_);}
	.st184{fill:url(#SVGID_00000146460105043011925510000007799969680697172881_);}
	.st185{fill:url(#SVGID_00000129207637502144866170000012436088617868129954_);}
	.st186{fill:url(#SVGID_00000011739983997206883590000008940446137294915241_);}
	.st187{fill:url(#SVGID_00000143612607054328508610000013587398083332023740_);}
	.st188{fill:url(#SVGID_00000179613680898914859990000003325640262000268714_);}
	.st189{fill:url(#SVGID_00000152225185136240461210000008259635296418647710_);}
	.st190{fill:url(#SVGID_00000093150256804240321560000003665851377665572019_);}
	.st191{fill:url(#SVGID_00000157293549979241643500000000018707902553934004_);}
	.st192{fill:url(#SVGID_00000099651049121428077830000016664265051726375816_);}
	.st193{fill:url(#SVGID_00000134930972997363400440000010874829393885359535_);}
	.st194{fill:url(#SVGID_00000044174122461644050830000009477905520368777628_);}
	.st195{fill:#F6F7F7;}
	.st196{fill:url(#SVGID_00000108987313211616699230000006710933101789382041_);}
	.st197{fill:url(#SVGID_00000155831892911817553350000000891587126920913292_);}
	.st198{fill:url(#SVGID_00000101803402130040959160000014280642175254732450_);}
	.st199{fill:url(#SVGID_00000032612638009126529110000007703810167966398357_);}
	.st200{fill:url(#SVGID_00000179612894731014118920000003211841068238177679_);}
	.st201{fill:url(#SVGID_00000008121648019816996500000016135584044761113268_);}
	.st202{fill:url(#SVGID_00000021811838432374680000000016402253921344238009_);}
	.st203{fill:url(#SVGID_00000080207026581127245810000005204709436705349279_);}
	.st204{fill:url(#SVGID_00000080185358236760547060000013795818363080549004_);}
	.st205{fill:url(#SVGID_00000129194975883162759470000012929789809155357859_);}
	.st206{fill:url(#SVGID_00000119115310674747974000000002021730610384845978_);}
	.st207{fill:url(#SVGID_00000156546589228447531320000004680716425556605569_);}
	.st208{fill:url(#SVGID_00000059310266355369634790000005102687395598357402_);}
	.st209{fill:url(#SVGID_00000136377019430735689290000005542672514639450559_);}
	.st210{fill:#A8988B;}
	.st211{fill:#0C0002;}
</style>
<g>
	<g>
		<g>
			<g>
				<g>
					<g>
						<path class="st1" d="M1359.2,278.5l47.6,0.1c3.6,0,6.7,2.9,6.7,6.7c0,3.7-3.1,6.6-6.7,6.6l-183.9,0.1l0.1,57.5h184.2
							c35.7,0,64.5-28.8,64.5-64.3s-28.8-64.3-64.5-64.3l-48-0.5c-43.1,0-78-34.9-78-77.9c0-42.9,35-77.8,78-77.8h183.9L1543,6.8
							h-183.8c-75.3,0-136.4,60.8-136.4,135.9C1222.8,217.7,1283.9,278.5,1359.2,278.5z"/>
						<path class="st1" d="M1713.3,135.8h169.3V78h-196.5c-24.4,0-44,19.8-44,44.1l-0.1,84.8h198.8v-57.6h-141.3
							C1699.5,149.3,1699.7,135.8,1713.3,135.8z"/>
						<path class="st1" d="M1359.2,135.7H1543l0.1-57.7h-183.9c-35.6,0-64.5,28.9-64.5,64.4s28.9,64.3,64.5,64.3l48,0.6
							c43.2,0,78.1,34.8,78.1,77.8s-34.9,77.9-78.1,77.9H1223l-0.1,58.3L1407,421c75.3,0,136.4-60.9,136.4-135.9
							c0-75.1-61.1-136-136.4-136l-47.8,0.3c-3.8,0-6.8-3.1-6.8-6.9S1355.4,135.7,1359.2,135.7z"/>
						<path class="st1" d="M1840.8,220.6H1642v84.8c0,24.3,19.8,43.9,44.1,43.9l195.7-0.1v-57.4h-168.5c0,0-13.6-0.1-13.8-13.6
							h141.3L1840.8,220.6L1840.8,220.6z"/>
						<path class="st1" d="M2517.3,350l-92.4-273c-1.9-5.4-6.1-9.7-11.6-11.6c-9.8-3.4-20.6,1.7-24,11.6l-116.9,343.7h68.2
							l41.4-122.1l-0.1,51.3L2517.3,350L2517.3,350z M2407,225.4l20.4,60.5h-40.9L2407,225.4z"/>
						<path class="st1" d="M2047.2,135.5h163.4l-0.1-57.6h-190.4c-24.4,0-44.1,19.8-44.1,44.1v183.3l0,0c0,24.4,19.8,44.3,44.1,44.3
							H2139V220.5h-92v57.8h34.1l0.1,13.6h-34c-7.4,0-13.5-6.1-13.5-13.6l-0.3-129C2033.5,149.2,2033.5,135.8,2047.2,135.5z"/>
						<path class="st1" d="M2020.2,420.8l190.4,0.1l0,0h47.6L2377.3,71c5-12,16.7-19.8,29.7-19.8s24.6,7.8,29.7,19.7l99.3,292.4
							h-153.7v57.7h233.9l-121.8-360C2483.8,25.8,2448.6,0,2407,0c-41.7,0-76.7,25.7-87.4,60.8l-109.2,320.1V149.3h-163.6v57.6
							h105.8v156.4h-132.4c-31.8,0-57.8-25.9-57.8-57.8V122.1c0-31.9,25.8-57.6,57.7-57.6h190.4V6.7h-190.9
							c-63.9,0-115.7,51.6-115.7,115.4v183.3C1904,369.1,1956.2,420.8,2020.2,420.8z"/>
						<path class="st1" d="M1686,420.8l195.7,0.1v-57.6l-195.7,0.1c-31.9,0-58.1-25.5-58.1-58v-184c0-31.3,26.2-57,58.1-57h196.5
							V6.7H1686c-64,0-115.8,51.6-115.8,115.4v183.3C1570.4,369.1,1622.1,420.8,1686,420.8z"/>
					</g>
				</g>
			</g>
			<g>
				<g>
					<rect x="1232" y="728.8" class="st4" width="179.1" height="78.1"/>
					<polygon class="st4" points="1713.1,902.4 1713.1,628 1713.1,549.9 1515.2,549.9 1515.2,628 1616.4,628 1616.4,902.4 
						1487.4,902.4 1487.4,980.4 1830.6,980.4 1830.6,902.4 					"/>
					<path class="st4" d="M716,902.4V628h468.4v-78.1H685.8c-36.8,0-66.6,29.8-66.6,66.6v297.4c0,36.8,29.8,66.6,66.6,66.6h498.6
						V728.8H881v78.1h206.7v95.5H716z"/>
					<path class="st4" d="M1884.7,616.5v297.4c0,36.8,29.8,66.6,66.6,66.6h482.2c36.8,0,66.6-29.8,66.6-66.6V616.5
						c0-36.8-29.8-66.6-66.6-66.6h-482.2C1914.5,549.9,1884.7,579.7,1884.7,616.5z M1981.5,902.4V628h421.8v274.4H1981.5z"/>
					<path class="st4" d="M2554.1,616.5v297.4c0,36.8,29.8,66.6,66.6,66.6h482.2c36.8,0,66.6-29.8,66.6-66.6V616.5
						c0-36.8-29.8-66.6-66.6-66.6h-482.2C2583.9,549.9,2554.1,579.7,2554.1,616.5z M2650.9,902.4V628h421.8v274.4H2650.9z"/>
					<path class="st4" d="M3223.6,616.5v297.4c0,36.8,29.8,66.6,66.6,66.6h482.2c36.8,0,66.6-29.8,66.6-66.6V616.5
						c0-36.8-29.8-66.6-66.6-66.6h-482.2C3253.4,549.9,3223.6,579.7,3223.6,616.5z M3320.4,902.4V628h421.8v274.4H3320.4z"/>
					<path class="st4" d="M498.6,728.8H96.8V628h468.4v-78.1H66.6C29.8,549.9,0,579.7,0,616.5v123.8c0,36.8,29.8,66.6,66.6,66.6
						h401.8v95.5H0v78.1h498.6c36.8,0,66.6-29.8,66.6-66.6V795.4C565.2,758.7,535.3,728.8,498.6,728.8z"/>
				</g>
			</g>
		</g>
	</g>
</g>
</svg>
