<?xml version="1.0" encoding="utf-8"?>
<!-- Generator: Adobe Illustrator 26.3.1, SVG Export Plug-In . SVG Version: 6.00 Build 0)  -->
<svg version="1.1" id="Layer_1" xmlns="http://www.w3.org/2000/svg" xmlns:xlink="http://www.w3.org/1999/xlink" x="0px" y="0px"
	 viewBox="0 0 3839 1343.9" style="enable-background:new 0 0 3839 1343.9;" xml:space="preserve">
<style type="text/css">
	.st0{fill:#FFFFFF;}
	.st1{fill:none;stroke:#FFFFFF;stroke-width:9.3756;stroke-miterlimit:10;}
	.st2{fill:#30308F;}
	.st3{fill:#EC2024;}
	.st4{fill:#CBCBCA;}
</style>
<g>
	<g>
		<g>
			<path class="st2" d="M833.4,1013.4l-24.3-125.4l-56,125.3L833.4,1013.4 M1712.3,1331.6h-132.5l-17.7-399.3l-172.4,399.3h-88.4
				l-73.8-361l-114.9,361H887.2l-33.9-193H700.1l-86.9,193H474.7l284.3-645.4h163.6l86.9,521.6l169.5-521.6h131.1l64.8,353.6
				l150.3-353.6h159.1L1712.3,1331.6"/>
			<polyline class="st2" points="2092.5,1331.6 2114.7,1193.2 1883.3,1193.2 1901.7,1078.2 2102.9,1078.2 2124.9,939.7 
				1921.6,939.7 1939.3,824.8 2170.7,824.8 2192.7,686.3 1825.8,686.3 1722.7,1331.6 2092.5,1331.6 			"/>
			<polyline class="st2" points="3815,686.3 3660.3,686.3 3529.1,897 3446.6,686.3 3294.9,686.3 3451.1,1026.6 3403,1331.6 
				3535.5,1331.6 3576.2,1062 3815,686.3 			"/>
			<path class="st2" d="M3027.6,1208.8c70.2,31.4,156-30.1,191.7-137.5c35.7-107.4,8-219.9-62.2-251.2
				c-70.2-31.3-156,30.2-191.7,137.5C2929.6,1064.9,2957.5,1177.4,3027.6,1208.8 M2826.9,953.4c41.1-178.4,193.6-295.5,340.6-261.5
				c146.9,33.9,232.6,206.1,191.5,384.5c-41.2,178.5-193.7,295.5-340.6,261.6C2871.5,1304,2785.8,1131.9,2826.9,953.4"/>
			<path class="st2" d="M191.8,743.8C65.5,821.9,4.7,941.2,20.9,1103.3c18.8,188,262.3,306.5,468.5,187.1
				c18.1-10.5,11-8.8,17.7-14.8l41.2-262.2H302.4l-18.9,120.8h102.8l-11.8,64.9c-58.9,23.7-159.1,14.8-201.9-61.9
				c-27-48.5-52.1-156.8,61.9-256.4c92.8-81,253.4-95.7,346.2-53c0,0,11.8-67.9,20.7-131.2C423.1,634.8,284.6,686.3,191.8,743.8"/>
			<path class="st2" d="M2394.5,690l-102.4,640.5c0,0,212,0,298.3,0c122.9,0,302.4-181,138.9-329.1c168.2-174,1.5-310-87.7-311.4
				c-71.7-1.2-248.6,0-248.6,0H2394.5 M2467.7,1077.4c0,0,27.7,0,111.1,0c105.3,0,102.4,128.7-14.6,128.7c-73.2,0-117,0-117,0
				L2467.7,1077.4 M2508.6,825.9c0,0,2.9,0,86.2,0c93.6,0,74.6,120-14.7,120c-73.2,0-92.1,0-92.1,0L2508.6,825.9"/>
		</g>
	</g>
	<g>
		<path class="st2" d="M1193.5,92.1c-6.4-34.6-43.7-57-156.7-63.8c-168.9-10.1-468.9,78.4-552,136.6c-21.4,15-26.6,78.9-6.4,110.1
			c39.7,61.4,152.6,75,246.5,98.5c93.9,23.5,173.2,53.8,173.9,72.6c0.9,23.6-55.3,33-138.3,45.9c-184.4,28.5-490.5,76.6-594.5,76.1
			c-10.9-0.1-21.6-3.3-30.8-9.2l-8.9-5.7c-5.9-3.8-12.8-5.5-19.8-4.8l-58.9,5.8c-16.7,1.7-29.4,15.7-29.4,32.4v19.9
			c0,40.8,12.6,52.7,58.6,47.2c102.5-12.5,237-22,382.8-37.8c186.3-20.1,393-59.6,438.3-84.7c60.3-33.4,45.2-142.8-27.2-176.5
			c-102.5-47.7-274.4-72.2-337.4-98.5c-27.3-11.4-17.9-21.9,8.7-35.7c44.9-23.2,134.4-62.6,271-91.5
			c173.6-36.7,267.9-31.8,320.1-14.4c18.8,6.3,52.6,20.1,16.2,38.6c-21.9,11.1-67.4,25.5-100.6,35.2c-36.6,10.7-29,102.5,0.7,88.3
			c29.8-14.3,104.2-33.5,135-77C1203.5,172.9,1199.2,123.1,1193.5,92.1z"/>
		<path class="st2" d="M3471.2,464c-70.6,0-237.1-0.2-372.9,36.5c-13.4,3.6-25.1,0.9-10.1-31.2c22.5-48.1,46.7-108.1,22.9-158.1
			c-15-31.5-49.2-57.9-84.6-90.3c16.7-14.9,40.8-111.6-31-127.7c-33.3-7.5-56.9,2.9-61.8,40.7c-1.9,14.8-0.1,29.8,3.9,44.2
			c4.2,15.1,10.6,29,20.7,41.3c-75.4,71.5-154.9,137.1-251.5,201c-90.5,59.9-192.6,114.7-317.6,136.5c-34.9,6.1-121.8,18.8-36-88.3
			c94.8,23.4,209.8-27.9,275-71.2c61.2-40.6,128.9-78.4,122.8-126.1c-15.1-118.9-197.2-43.6-325.8,38.3
			c-209.9,133.8-208.3,266.1-140.6,296.4c130.4,58.3,403.4-71.9,711.8-351.5c86.3,105.3,60.6,87.7,7.9,221
			c-9.5,24-24.5,118.6,53,103.2c183.8-36.6,444.4-64.8,648.8-39.4c8.8,1.1,15.9,7.5,18.2,16l1.4,5.2c2.2,8.3,9.7,14,18.3,13.8
			l64.5-1.5c13.8-0.3,25.5-10.3,28-23.9c3.4-17.9,5-41.7-5.9-54.7C3811.9,472,3674,464,3471.2,464z M2705.7,265.7
			c6.1,1,8.7,8.5,4.4,13c-72,75.8-268.9,156.4-310.3,139.4C2451.1,359.4,2615.8,251.1,2705.7,265.7z M2984.7,188.4l0.2,0.2
			c0,0,0,0,0,0C2984.8,188.5,2984.7,188.4,2984.7,188.4z"/>
		<path class="st2" d="M2283.4,282.5c-15.8-33.3-55.7-25.5-104.9-14.5c-75.8,16.9-174.6,58.8-352.1,189.5c-5,3.7-11.2-3-6.9-7.6
			c58.4-63.5,136.3-149.1,156.5-172.7c18.4-21.4-17.3-73.7-55.7-51.4c-126.7,73.6-338.4,195.8-449.1,266.8
			c-37.2,23.9-52.5,10.2-31-20.6c111.3-159.2,179.9-172,170.2-220.3c-13.4-67-55-18.3-79.1,1.8c-36.9,30.9-95.6,73.7-188.8,125.5
			c-86.7,48.2-203.4,114-247.5,138.1c-42.1,23.1-54.9,0.6-32.4-26.4c17.2-20.7,182.2-162,239.5-212c0,0,35.8-24.5,19-49.4
			c-19.5-28.8-29.5-40.6-67.9-2.8C1219.6,259.8,1002.4,451,979.4,487c-22.3,35.1-22.3,47.9-12.7,72.2c10,25.2,36.6,43.4,66.5,38.5
			c51.3-8.4,153.1-62,240.9-113.3c41.6-24.3,113-70,153.6-96.2c4.6-3,9.7,3,6.1,7.1c-25.6,29.1-63,75-70.1,101.6
			c-7.9,29.9,48.5,67.6,94.3,51.8c54-18.6,268.2-146.3,366.2-205.4c5.5-3.3,11.2,4.1,6.5,8.5c-62.4,58.4-177.2,175.1-319.1,359.8
			c-20.2,26.2,45.9,66.1,59.8,48.2c50.6-65,124.3-157.2,222.1-223c4.7-3.2,5.9-3.9,10.6-7c5.7,7.2,13.2,13.3,16.6,17.2
			c43.7,50.1,120.5,60,242.1-4.7c0,0,152.8-81.7,204.2-156C2283.9,361.9,2308.8,336.1,2283.4,282.5z M2119.5,433.8
			c-136.5,90-238.6,129.1-280.5,76.2c218.6-142.6,330.5-177.5,384-184.5c7.7-1,13,7.7,8.4,14
			C2207.6,371.9,2147.3,415.4,2119.5,433.8z"/>
	</g>
	<g>
		<path class="st3" d="M1175.1,64.6c-6.4-34.6-43.7-57-156.7-63.8c-168.9-10.1-468.9,78.4-552,136.6c-21.4,15-26.6,78.9-6.4,110.1
			c39.7,61.4,152.6,75,246.5,98.5c93.9,23.5,173.2,53.8,173.9,72.6c0.9,23.6-55.3,33-138.3,45.9c-184.4,28.5-490.5,76.6-594.5,76.1
			c-10.9-0.1-21.6-3.3-30.8-9.2l-8.9-5.7c-5.9-3.8-12.8-5.5-19.8-4.8l-58.9,5.8C12.7,528.3,0,542.3,0,559v19.9
			c0,40.8,12.6,52.7,58.6,47.2c102.5-12.5,237-22,382.8-37.8c186.3-20.1,393-59.6,438.3-84.7c60.3-33.4,45.2-142.8-27.2-176.5
			c-102.5-47.7-274.4-72.2-337.4-98.5c-27.3-11.4-17.9-21.9,8.7-35.7c44.9-23.2,134.4-62.6,271-91.5
			c173.6-36.7,267.9-31.8,320.1-14.4c18.8,6.3,52.6,20.1,16.2,38.6c-21.9,11.1-67.4,25.5-100.6,35.2c-36.6,10.7-29,102.5,0.7,88.3
			c29.8-14.3,104.2-33.5,135-77C1185.1,145.3,1180.9,95.5,1175.1,64.6z"/>
		<path class="st3" d="M3452.8,436.5c-70.6,0-237.1-0.2-372.9,36.5c-13.4,3.6-25.1,0.9-10.1-31.2c22.5-48.1,46.7-108.1,22.9-158.1
			c-15-31.5-49.2-57.9-84.6-90.3c16.7-14.9,40.8-111.6-31-127.7c-33.3-7.5-56.9,2.9-61.8,40.7c-1.9,14.8-0.1,29.8,3.9,44.2
			c4.2,15.1,10.6,29,20.7,41.3c-75.4,71.5-154.9,137.1-251.5,201c-90.5,59.9-192.6,114.7-317.6,136.5c-34.9,6.1-121.8,18.8-36-88.3
			c94.8,23.4,209.8-27.9,275-71.2c61.2-40.6,128.9-78.4,122.8-126.1c-15.1-118.9-197.2-43.6-325.8,38.3
			c-209.9,133.8-208.3,266.1-140.6,296.4c130.4,58.3,403.4-71.9,711.8-351.5c86.3,105.3,60.6,87.7,7.9,221
			c-9.5,24-24.5,118.6,53,103.2c183.8-36.6,444.4-64.8,648.8-39.4c8.8,1.1,15.9,7.5,18.2,16l1.4,5.2c2.2,8.3,9.7,14,18.3,13.8
			l64.5-1.5c13.8-0.3,25.5-10.3,28-23.9c3.4-17.9,5-41.7-5.9-54.7C3793.6,444.5,3655.6,436.5,3452.8,436.5z M2687.3,238.2
			c6.1,1,8.7,8.5,4.4,13c-72,75.8-268.9,156.4-310.3,139.4C2432.7,331.9,2597.4,223.6,2687.3,238.2z M2966.3,160.8l0.2,0.2
			c0,0,0,0,0,0C2966.4,160.9,2966.4,160.9,2966.3,160.8z"/>
		<path class="st3" d="M2265.1,255c-15.8-33.3-55.7-25.5-104.9-14.5c-75.8,16.9-174.6,58.8-352.1,189.5c-5,3.7-11.2-3-6.9-7.6
			c58.4-63.5,136.3-149.1,156.5-172.7c18.4-21.4-17.3-73.7-55.7-51.4c-126.7,73.6-338.4,195.8-449.1,266.8
			c-37.2,23.9-52.5,10.2-31-20.6c111.3-159.2,179.9-172,170.2-220.3c-13.4-67-55-18.3-79.1,1.8c-36.9,30.9-95.6,73.7-188.8,125.5
			c-86.7,48.2-203.4,114-247.5,138.1c-42.1,23.1-54.9,0.6-32.4-26.4c17.2-20.7,182.2-162,239.5-212c0,0,35.8-24.5,19-49.4
			c-19.5-28.8-29.5-40.6-67.9-2.8c-33.6,33.1-250.8,224.3-273.8,260.3c-22.3,35.1-22.3,47.9-12.7,72.2c10,25.2,36.6,43.4,66.5,38.5
			c51.3-8.4,153.1-62,240.9-113.3c41.6-24.3,113-70,153.6-96.2c4.6-3,9.7,3,6.1,7.1c-25.6,29.1-63,75-70.1,101.6
			c-7.9,29.9,48.5,67.6,94.3,51.8c54-18.6,268.2-146.3,366.2-205.4c5.5-3.3,11.2,4.1,6.5,8.5c-62.4,58.4-177.2,175.1-319.1,359.8
			c-20.2,26.2,45.9,66.1,59.8,48.2c50.6-65,124.3-157.2,222.1-223c4.7-3.2,5.9-3.9,10.6-7c5.7,7.2,13.2,13.3,16.6,17.2
			c43.7,50.1,120.5,60,242.1-4.7c0,0,152.8-81.7,204.2-156C2265.5,334.3,2290.5,308.6,2265.1,255z M2101.1,406.2
			c-136.5,90-238.6,129.1-280.5,76.2c218.6-142.6,330.5-177.5,384-184.5c7.7-1,13,7.7,8.4,14
			C2189.2,344.4,2128.9,387.9,2101.1,406.2z"/>
	</g>
</g>
</svg>
