<?xml version="1.0" encoding="utf-8"?>
<!-- Generator: Adobe Illustrator 26.4.1, SVG Export Plug-In . SVG Version: 6.00 Build 0)  -->
<svg version="1.1" id="Layer_1" xmlns="http://www.w3.org/2000/svg" xmlns:xlink="http://www.w3.org/1999/xlink" x="0px" y="0px"
	 viewBox="0 0 3839 695.3" style="enable-background:new 0 0 3839 695.3;" xml:space="preserve">
<style type="text/css">
	.st0{fill:#FFFFFF;}
	.st1{fill:#FF0000;}
	.st2{fill:#FF7300;}
	.st3{fill:#FFE600;}
	.st4{fill:url(#SVGID_1_);}
	.st5{fill:#191919;}
	.st6{fill:#1A1B1A;}
	.st7{fill:#1C1C1B;}
	.st8{fill:#1D1E1C;}
	.st9{fill:#1E201D;}
	.st10{fill:#20211F;}
	.st11{fill:#212320;}
	.st12{fill:#222521;}
	.st13{fill:#242622;}
	.st14{fill:#252823;}
	.st15{fill:#262A24;}
	.st16{fill:#282C25;}
	.st17{fill:#292D26;}
	.st18{fill:#2B2F28;}
	.st19{fill:#2C3129;}
	.st20{fill:#2D322A;}
	.st21{fill:#2F342B;}
	.st22{fill:#30362C;}
	.st23{fill:#31372D;}
	.st24{fill:#33392E;}
	.st25{fill:#343B2F;}
	.st26{fill:#353C30;}
	.st27{fill:#373E32;}
	.st28{fill:#384033;}
	.st29{fill:#394134;}
	.st30{fill:#3B4335;}
	.st31{fill:#3C4536;}
	.st32{fill:#3D4637;}
	.st33{fill:#3F4838;}
	.st34{fill:#404A39;}
	.st35{fill:#414B3B;}
	.st36{fill:#434D3C;}
	.st37{fill:#444F3D;}
	.st38{fill:#45513E;}
	.st39{fill:#47523F;}
	.st40{fill:#485440;}
	.st41{fill:#495641;}
	.st42{fill:#4B5742;}
	.st43{fill:#4C5944;}
	.st44{fill:#4E5B45;}
	.st45{fill:#4F5C46;}
	.st46{fill:#505E47;}
	.st47{fill:#526048;}
	.st48{fill:#536149;}
	.st49{fill:#54634A;}
	.st50{fill:#56654B;}
	.st51{fill:#57664C;}
	.st52{fill:#58684E;}
	.st53{fill:#5A6A4F;}
	.st54{fill:#5B6B50;}
	.st55{fill:#5C6D51;}
	.st56{fill:#5E6F52;}
	.st57{fill:#5F7153;}
	.st58{fill:#607254;}
	.st59{fill:#627455;}
	.st60{fill:#637657;}
	.st61{fill:#647758;}
	.st62{fill:#667959;}
	.st63{fill:#677B5A;}
	.st64{fill:#687C5B;}
	.st65{fill:#6A7E5C;}
	.st66{fill:#6B805D;}
	.st67{fill:#6C815E;}
	.st68{fill:#6E835F;}
	.st69{fill:#6F8561;}
	.st70{fill:#718662;}
	.st71{fill:#728863;}
	.st72{fill:#738A64;}
	.st73{fill:#758B65;}
	.st74{fill:#768D66;}
	.st75{fill:#778F67;}
	.st76{fill:#799168;}
	.st77{fill:#7A926A;}
	.st78{fill:#7B946B;}
	.st79{fill:#7D966C;}
	.st80{fill:#7E976D;}
	.st81{fill:#7F996E;}
	.st82{fill:#819B6F;}
	.st83{fill:#829C70;}
	.st84{fill:#839E71;}
	.st85{fill:#85A073;}
	.st86{fill:#86A174;}
	.st87{fill:#87A375;}
	.st88{fill:#89A576;}
	.st89{fill:#8AA677;}
	.st90{fill:#8BA878;}
	.st91{fill:#8DAA79;}
	.st92{fill:#8EAB7A;}
	.st93{fill:#8FAD7B;}
	.st94{fill:#91AF7D;}
	.st95{fill:#92B07E;}
	.st96{fill:#94B27F;}
	.st97{fill:#95B480;}
	.st98{fill:#96B681;}
	.st99{fill:#98B782;}
	.st100{fill:#99B983;}
	.st101{fill:#9ABB84;}
	.st102{fill:#9CBC86;}
	.st103{fill:#9DBE87;}
	.st104{fill:#9EC088;}
	.st105{fill:#A0C189;}
	.st106{fill:#A1C38A;}
	.st107{fill:url(#SVGID_00000152986836436466984110000009119161531655995292_);}
	.st108{fill:url(#SVGID_00000173158234723042452560000012508261968237189008_);}
	.st109{fill:url(#SVGID_00000083086694354498584020000007946973017615201714_);}
	.st110{fill:url(#SVGID_00000181077347624623788200000004449514074704006311_);}
	.st111{fill:url(#SVGID_00000142155798023163035650000008139013421108339608_);}
	.st112{fill:url(#SVGID_00000181078095028704500140000018181066442931906973_);}
	.st113{fill:#FF0C00;}
	.st114{fill:#E6E6E6;}
	.st115{fill:url(#SVGID_00000086690291132251121840000008988936818305546630_);}
	.st116{fill:url(#SVGID_00000175307609552269945280000013135602589549570176_);}
	.st117{fill:url(#SVGID_00000012469448744050666470000012352722619118574767_);}
	.st118{fill:url(#SVGID_00000145054486898073789320000010947103213838059197_);}
	.st119{fill:url(#SVGID_00000036942951319768517080000000464064352289310393_);}
	.st120{fill:url(#SVGID_00000162348769440949094000000009789162949368402866_);}
	.st121{fill:#E5E4E6;}
	.st122{fill:#E4E3E6;}
	.st123{fill:#E3E1E7;}
	.st124{fill:#E1E0E7;}
	.st125{fill:#E0DEE7;}
	.st126{fill:#DFDDE7;}
	.st127{fill:#DEDBE8;}
	.st128{fill:#DDDAE8;}
	.st129{fill:#DCD8E8;}
	.st130{fill:#DBD7E8;}
	.st131{fill:#D9D5E9;}
	.st132{fill:#D8D4E9;}
	.st133{fill:#D7D2E9;}
	.st134{fill:#D6D1E9;}
	.st135{fill:#D5CFEA;}
	.st136{fill:#D4CEEA;}
	.st137{fill:#D3CCEA;}
	.st138{fill:#D2CBEA;}
	.st139{fill:#D0C9EB;}
	.st140{fill:#CFC8EB;}
	.st141{fill:#CEC6EB;}
	.st142{fill:#CDC5EB;}
	.st143{fill:#CCC3EC;}
	.st144{fill:#CBC2EC;}
	.st145{fill:#CAC0EC;}
	.st146{fill:#C8BFEC;}
	.st147{fill:#C7BDED;}
	.st148{fill:#C6BCED;}
	.st149{fill:#C5BAED;}
	.st150{fill:#C4B9ED;}
	.st151{fill:#C3B7EE;}
	.st152{fill:#C2B6EE;}
	.st153{fill:#C0B4EE;}
	.st154{fill:#BFB2EE;}
	.st155{fill:#BEB1EF;}
	.st156{fill:#BDAFEF;}
	.st157{fill:#BCAEEF;}
	.st158{fill:#BBACEF;}
	.st159{fill:#BAABF0;}
	.st160{fill:#B8A9F0;}
	.st161{fill:#B7A8F0;}
	.st162{fill:#B6A6F0;}
	.st163{fill:#B5A5F1;}
	.st164{fill:#B4A3F1;}
	.st165{fill:#B3A2F1;}
	.st166{fill:#B2A0F1;}
	.st167{fill:#B09FF2;}
	.st168{fill:#AF9DF2;}
	.st169{fill:#AE9CF2;}
	.st170{fill:#AD9AF2;}
	.st171{fill:#AC99F3;}
	.st172{fill:#AB97F3;}
	.st173{fill:#AA96F3;}
	.st174{fill:#A994F3;}
	.st175{fill:#A793F4;}
	.st176{fill:#A691F4;}
	.st177{fill:#A590F4;}
	.st178{fill:#A48EF4;}
	.st179{fill:#A38DF5;}
	.st180{fill:#A28BF5;}
	.st181{fill:#A18AF5;}
	.st182{fill:#9F88F5;}
	.st183{fill:#9E87F6;}
	.st184{fill:#9D85F6;}
	.st185{fill:#9C84F6;}
	.st186{fill:#9B82F6;}
	.st187{fill:#9A81F7;}
	.st188{fill:#997FF7;}
	.st189{fill:#977DF7;}
	.st190{fill:#967CF7;}
	.st191{fill:#957AF8;}
	.st192{fill:#9479F8;}
	.st193{fill:#9377F8;}
	.st194{fill:#9276F8;}
	.st195{fill:#9174F9;}
	.st196{fill:#8F73F9;}
	.st197{fill:#8E71F9;}
	.st198{fill:#8D70F9;}
	.st199{fill:#8C6EFA;}
	.st200{fill:#8B6DFA;}
	.st201{fill:#8A6BFA;}
	.st202{fill:#896AFA;}
	.st203{fill:#8768FB;}
	.st204{fill:#8667FB;}
	.st205{fill:#8565FB;}
	.st206{fill:#8464FB;}
	.st207{fill:#8362FC;}
	.st208{fill:#8261FC;}
	.st209{fill:#815FFC;}
	.st210{fill:#805EFC;}
	.st211{fill:#7E5CFD;}
	.st212{fill:#7D5BFD;}
	.st213{fill:#7C59FD;}
	.st214{fill:#7B58FD;}
	.st215{fill:#7A56FE;}
	.st216{fill:#7955FE;}
	.st217{fill:#7853FE;}
	.st218{fill:#7652FE;}
	.st219{fill:#7550FF;}
	.st220{fill:#744FFF;}
	.st221{fill:#734DFF;}
	.st222{fill:url(#SVGID_00000170994122431774970280000017286145226104419748_);}
	.st223{fill:url(#SVGID_00000029731155127088493190000012254369181055520403_);}
	.st224{fill:url(#SVGID_00000039824904053459220180000000308717558625203112_);}
	.st225{fill:url(#SVGID_00000087382421406443169710000013887100413109561489_);}
	.st226{fill:url(#SVGID_00000069367266607712873820000007766915375274817939_);}
	.st227{fill:url(#SVGID_00000106130729720229687760000005881264098840141497_);}
</style>
<g>
	<g>
		<g>
			<path d="M761.4,250.2L642.4,0H360.3l229.2,397.9h110.4l-78.3-147.7H761.4z M575.4,162.6L549,112.8h55.9l25.3,49.9H575.4z"/>
			<path d="M1942.4,0l10.8,397.9h79.2l0.7-147.7h111.8l-6.9,147.7h72.7L2248.3,0H1942.4z M2149,162.6h-115.2l-0.1-49.9h117.6
				L2149,162.6z"/>
			<path d="M3031.4,0H2799l-113.6,397.9h175.5c36.9,0,70.4-21.6,85.5-55.2l126-279.2C3085.8,33.7,3064,0,3031.4,0z M2876.4,315.4
				h-89.2l78.3-202.7h96L2876.4,315.4z"/>
			<path d="M3498.1,0l-203.3,397.9h294.7L3839,0H3498.1z M3545.8,315.4h-109l120.9-220.7H3676L3545.8,315.4z"/>
			<polygon points="849.7,162.6 950.7,162.6 985,250.2 887.2,250.2 915.1,315.4 1078.7,315.4 1108.8,397.9 858.1,397.9 673,0 
				963.6,0 1004.7,112.8 828.3,112.8 			"/>
			<polygon points="174.5,250.2 0,0 321.2,0 387.3,112.8 210.9,112.8 243.3,162.6 416.6,162.6 554.6,397.9 277.5,397.9 220,315.4 
				410.8,315.4 370.1,250.2 			"/>
			<polygon points="1269.5,0 983.2,0 1126.3,397.9 1372.7,397.9 1351.3,315.4 1195.1,315.4 1129.7,112.8 1298.7,112.8 			"/>
			<polygon points="1570.6,397.9 1478.2,397.9 1416.3,112.8 1328.5,112.8 1300.1,0 1590.7,0 1607.4,112.8 1519.2,112.8 			"/>
			<polygon points="2630.2,0 2407.9,397.9 2237.1,397.9 2278.9,0 2383.7,0 2350.5,281.2 2504.8,0 			"/>
			<polygon points="2608.4,397.9 2500.4,397.9 2651.9,0 2766.1,0 			"/>
			<polygon points="3259.6,397.9 2968.8,397.9 3148.4,0 3456.6,0 3409.7,94.7 3217.4,94.7 3198.3,139.5 3387.6,139.5 3339.3,237 
				3156.7,237 3123.2,315.4 3300.4,315.4 			"/>
			<polygon points="1922.1,397.9 1854.1,250.2 1921.3,250.2 1911.9,0 1618.7,0 1667.3,397.9 1749.7,397.9 1738.2,112.8 
				1823.3,112.8 1825.6,162.6 1757.7,162.6 1761.3,250.2 1838.4,397.9 			"/>
		</g>
	</g>
	<polygon class="st1" points="1882,482.9 1843.9,482.9 336.8,482.9 366.4,525.4 3509.5,525.4 3536.2,482.9 	"/>
	<polygon class="st2" points="396,567.9 425.7,610.3 3456.2,610.3 3482.9,567.9 	"/>
	<polygon class="st3" points="455.3,652.8 484.9,695.3 1800.4,695.3 1882,695.3 3402.9,695.3 3429.6,652.8 	"/>
</g>
</svg>
