<?xml version="1.0" encoding="utf-8"?>
<!-- Generator: Adobe Illustrator 25.0.0, SVG Export Plug-In . SVG Version: 6.00 Build 0)  -->
<svg version="1.1" id="Layer_1" xmlns="http://www.w3.org/2000/svg" xmlns:xlink="http://www.w3.org/1999/xlink" x="0px" y="0px"
	 viewBox="0 0 3840 1157.1" style="enable-background:new 0 0 3840 1157.1;" xml:space="preserve">
<style type="text/css">
	.st0{fill:#FFFFFF;}
	.st1{fill:url(#SVGID_1_);}
	.st2{fill:url(#SVGID_2_);}
	.st3{fill:url(#SVGID_3_);}
	.st4{fill:url(#SVGID_4_);}
	.st5{fill:url(#SVGID_5_);}
	.st6{fill:url(#SVGID_6_);}
	.st7{fill:url(#SVGID_7_);}
	.st8{fill:url(#SVGID_8_);}
</style>
<g>
	<path class="st0" d="M21.9,736.2l221.8,91.7c15,74.9,81.3,131.5,160.6,131.5c90.3,0,163.8-73.4,163.8-163.8c0-2.6-0.1-5.2-0.2-7.7
		l196.7-140.3c1.6,0,3.3,0.1,5,0.1c120.3,0,218.2-97.9,218.2-218.2c0-120.3-97.9-218.2-218.2-218.2c-120.3,0-218.2,97.9-218.2,218.2
		c0,0.9,0,1.9,0,2.8L413.4,632.1c-3-0.2-6.1-0.3-9.1-0.3c-34.1,0-65.9,10.5-92.2,28.5L2,532.2c0-0.1-2,26.5-2,46.4
		C0,671.8,22.3,737.6,21.9,736.2z"/>
	<g>
		<g>
			<linearGradient id="SVGID_1_" gradientUnits="userSpaceOnUse" x1="579.5455" y1="5.965899e-05" x2="579.5455" y2="1157.105">
				<stop  offset="0.2483" style="stop-color:#131E31"/>
				<stop  offset="0.667" style="stop-color:#14437B"/>
				<stop  offset="0.8383" style="stop-color:#136193"/>
				<stop  offset="1" style="stop-color:#0D7BC1"/>
			</linearGradient>
			<path class="st1" d="M578.5,0C274.6,0,25.6,234.3,2,532.2l310.1,128.2c26.3-18,58-28.5,92.2-28.5c3.1,0,6.1,0.1,9.1,0.3
				l137.9-199.9c0-1,0-1.9,0-2.8c0-120.3,97.9-218.2,218.2-218.2c120.3,0,218.2,97.9,218.2,218.2c0,120.3-97.9,218.2-218.2,218.2
				c-1.7,0-3.3,0-5-0.1L567.8,787.9c0.1,2.6,0.2,5.2,0.2,7.7c0,90.3-73.5,163.8-163.8,163.8c-79.3,0-145.6-56.6-160.6-131.5
				L21.9,736.2c68.7,242.8,291.8,420.9,556.6,420.9c319.5,0,578.6-259,578.6-578.5C1157.1,259,898.1,0,578.5,0z M364.5,877.9
				l-71.1-29.4c12.6,26.2,34.4,48.2,63.3,60.2c62.5,26.1,134.6-3.6,160.7-66.2c12.6-30.3,12.7-63.7,0.2-94
				c-12.5-30.4-36.1-54-66.4-66.7c-30.1-12.5-62.3-12.1-90.6-1.4l73.4,30.4c46.1,19.2,67.9,72.2,48.7,118.3
				C463.7,875.3,410.7,897.1,364.5,877.9z M914.8,429.4c0-80.2-65.2-145.4-145.4-145.4c-80.2,0-145.4,65.2-145.4,145.4
				c0,80.2,65.2,145.4,145.4,145.4C849.6,574.8,914.8,509.6,914.8,429.4z M660.5,429.2c0-60.3,48.9-109.2,109.2-109.2
				s109.2,48.9,109.2,109.2c0,60.3-48.9,109.2-109.2,109.2C709.4,538.4,660.5,489.5,660.5,429.2z"/>
		</g>
	</g>
	<path class="st0" d="M1775,395.9l-38.8,68.1c-29.9-20.9-70.3-33.4-105.6-33.4c-40.4,0-65.4,16.7-65.4,46.7
		c0,36.4,44.4,44.8,110.3,68.5c70.9,25.1,111.7,54.5,111.7,119.5c0,88.8-69.9,138.7-170.3,138.7c-48.9,0-108-12.6-153.4-40.2
		l28.3-75.5c36.9,19.5,81,31,120.3,31c53,0,78.2-19.6,78.2-48.5c0-33.1-38.4-43-100.4-63.5c-70.7-23.6-119.6-54.6-119.6-126.4
		c0-81,64.9-127.6,158.3-127.6C1693.6,353.2,1746,373.8,1775,395.9"/>
	<polygon class="st0" points="2078,438.9 2078,796.5 1986.7,796.5 1986.7,438.9 1854.2,438.9 1854.2,360.6 2210.1,360.6 
		2210.1,438.9 	"/>
	<polygon class="st0" points="2402.5,438.7 2402.5,536.9 2577.2,536.9 2577.2,615.2 2402.5,615.2 2402.5,717.5 2605.2,717.5 
		2605.2,796.5 2311.3,796.5 2311.3,360.6 2605.2,360.6 2605.2,438.7 	"/>
	<path class="st0" d="M2808.9,711.9l-28.9,84.6h-95.7l163.4-435.8h91.9l168,435.8h-98.9l-29.5-84.6L2808.9,711.9L2808.9,711.9z
		 M2893.2,464.6l-59.5,174.5H2954L2893.2,464.6z"/>
	<polygon class="st0" points="3576.1,529.1 3456.9,783.8 3405.4,783.8 3288,531.4 3288,796.5 3200.6,796.5 3200.6,360.6 
		3287.8,360.6 3434.3,675.2 3575.6,360.6 3663.5,360.6 3663.5,796.5 3576.2,796.5 	"/>
	<path class="st0" d="M3840,415.6c0,37.5-28.1,60.8-60.3,60.8c-32.3,0-60.5-23.3-60.5-60.8c0-37.4,28.1-60.6,60.5-60.6
		C3811.9,355,3840,378.2,3840,415.6 M3729.4,415.6c0,31.3,22.6,51,50.3,51c27.6,0,50.1-19.7,50.1-51c0-31.4-22.5-50.8-50.1-50.8
		C3752,364.8,3729.4,384.4,3729.4,415.6 M3780.6,384.6c15.6,0,20.9,8.3,20.9,17.2c0,8.2-4.9,13.7-10.8,16.5l14,26.2h-11.5
		l-11.8-23.3h-12.2v23.3h-9.5v-59.9H3780.6z M3769.3,412.5h10.6c6.9,0,11-4.3,11-9.8c0-5.5-2.9-9-11-9h-10.6L3769.3,412.5
		L3769.3,412.5z"/>
</g>
</svg>
