<?xml version="1.0" encoding="utf-8"?>
<!-- Generator: Adobe Illustrator 26.0.3, SVG Export Plug-In . SVG Version: 6.00 Build 0)  -->
<svg version="1.1" id="Layer_1" xmlns="http://www.w3.org/2000/svg" xmlns:xlink="http://www.w3.org/1999/xlink" x="0px" y="0px"
	 viewBox="0 0 3839 752.7" style="enable-background:new 0 0 3839 752.7;" xml:space="preserve">
<style type="text/css">
	.st0{fill:#007AE6;}
	.st1{fill:#C497FF;}
	.st2{fill:#FFFFFF;}
</style>
<g>
	<g>
		<g>
			<g>
				<g>
					<polygon class="st0" points="285.1,0 124,0 0,124 0,329.9 124,453.9 191.6,453.8 191.6,298.9 154.9,298.9 154.9,154.9 
						254.3,154.9 254.3,239.1 409.1,239.1 409.1,124 					"/>
					<polygon class="st0" points="217.6,298.9 217.6,453.8 254.3,453.8 254.3,597.8 154.9,597.8 154.9,504.9 0,504.9 0,628.7 
						124,752.7 285.1,752.7 409.1,628.7 409.1,422.9 285.1,298.9 					"/>
				</g>
				<g>
					<polygon class="st0" points="641.8,597.8 605.1,597.8 605.1,0 450.2,0 450.2,628.7 574.2,752.7 641.8,752.7 					"/>
					<polygon class="st0" points="704.5,0 704.5,597.8 667.8,597.8 667.8,752.7 735.3,752.7 859.3,628.7 859.3,0 					"/>
				</g>
				<g>
					<polygon class="st0" points="1866.3,298.9 1866.3,154.9 1866.3,0 1866.3,0 1711.4,0 1711.4,752.7 1866.3,752.7 1866.3,723.3 
						1866.3,453.8 					"/>
					<polygon class="st0" points="1996.6,0 1967.5,0 1946.3,0 1892.4,0 1892.4,154.9 1965.7,154.9 1965.7,222.4 1965.7,277.1 
						1965.7,298.9 1892.4,298.9 1892.4,453.8 1965.7,453.8 1965.7,478.4 1965.7,531.2 1965.7,747.7 2120.6,747.7 2120.6,529.6 
						2120.6,478.4 2120.6,460.7 2036.2,376.3 2120.6,292 2120.6,277.1 2120.6,223.1 2120.6,157.8 2120.6,136.8 2120.6,124 					"/>
				</g>
				<g>
					<rect x="1520.7" y="298.9" class="st0" width="121.6" height="154.9"/>
					<polygon class="st0" points="1668.3,0 1494.6,0 1494.6,0 1339.8,0 1339.8,752.7 1462,752.7 1462,752.7 1668.3,752.7 
						1668.3,597.8 1494.6,597.8 1494.6,539.2 1494.6,453.8 1494.6,298.9 1494.6,269.8 1494.6,154.9 1668.3,154.9 					"/>
				</g>
				<g>
					<polygon class="st0" points="1183.4,0 1079.1,0 1079.1,154.9 1152.5,154.9 1152.5,348.1 1079.1,348.1 1079.1,502.9 
						1183.4,502.9 1307.4,379 1307.4,124 					"/>
					<polygon class="st0" points="1053.1,502.9 1053.1,348.1 1053.1,154.9 1053.1,0 898.2,0 898.2,752.7 1053.1,752.7 					"/>
				</g>
			</g>
			<g>
				<path class="st0" d="M2916.9,352.4v-32.9c0-26.1-21.2-47.3-47.3-47.3H2647c-0.2,0-0.4,0.2-0.4,0.4v207.5c0,0.2,0.2,0.4,0.4,0.4
					h45.6c0.2,0,0.4-0.2,0.4-0.4v-79.9c0-0.2,0.2-0.4,0.4-0.4h91c0.1,0,0.2,0.1,0.3,0.2l67.6,80.5c0.1,0.1,0.2,0.2,0.3,0.2h59.5
					c0.3,0,0.6-0.4,0.3-0.7l-66.7-79.5c-0.2-0.3-0.1-0.7,0.3-0.7h23.6C2895.8,399.7,2916.9,378.5,2916.9,352.4z M2693,362v-52
					c0-0.2,0.2-0.4,0.4-0.4h177.2v52.9h-177.2C2693.1,362.4,2693,362.2,2693,362z"/>
				<path class="st0" d="M2602.9,309.5v-37.3h-229.6c-26.1,0-47.3,21.2-47.3,47.3v113.7c0,26.1,21.2,47.3,47.3,47.3h229.6V362.4
					h-138.5v37.3h92.1v43.5h-184.2V309.5L2602.9,309.5L2602.9,309.5z"/>
				<polygon class="st0" points="3524.9,309.5 3524.9,272.2 3328.5,272.2 3282.1,272.2 3282.1,309.5 3282.1,480.5 3328.5,480.5 
					3328.5,399.7 3494.4,399.7 3494.4,362.4 3328.5,362.4 3328.5,309.5 				"/>
				<polygon class="st0" points="3839,272.2 3773.4,272.2 3694.6,351 3615.7,272.2 3550.1,272.2 3654.3,376.3 3550.1,480.5 
					3615.7,480.5 3694.6,401.7 3773.4,480.5 3839,480.5 3734.8,376.3 				"/>
				<polygon class="st0" points="3193.8,480.5 3246,480.5 3139.1,272.2 3048.7,272.2 2941.8,480.5 2994,480.5 3081.6,309.5 
					3106.1,309.5 				"/>
			</g>
		</g>
		<rect x="2325.9" y="117.5" class="st0" width="1513.1" height="37.3"/>
		<rect x="2325.9" y="0" class="st0" width="1513.1" height="37.3"/>
		<g>
			<rect x="2325.9" y="710.4" class="st0" width="1513.1" height="37.3"/>
			<rect x="2325.9" y="592.8" class="st0" width="1513.1" height="37.3"/>
		</g>
	</g>
</g>
</svg>
