<?xml version="1.0" encoding="UTF-8" standalone="no"?>
<!-- Generator: Adobe Illustrator 25.2.1, SVG Export Plug-In . SVG Version: 6.00 Build 0)  -->

<svg
   version="1.1"
   id="Layer_1"
   x="0px"
   y="0px"
   viewBox="0 0 3839 528.8"
   style="enable-background:new 0 0 3839 528.8;"
   xml:space="preserve"
   sodipodi:docname="supervision.svg"
   inkscape:version="1.2.2 (732a01da63, 2022-12-09)"
   xmlns:inkscape="http://www.inkscape.org/namespaces/inkscape"
   xmlns:sodipodi="http://sodipodi.sourceforge.net/DTD/sodipodi-0.dtd"
   xmlns="http://www.w3.org/2000/svg"
   xmlns:svg="http://www.w3.org/2000/svg"><defs
   id="defs33" /><sodipodi:namedview
   id="namedview31"
   pagecolor="#ffffff"
   bordercolor="#111111"
   borderopacity="1"
   inkscape:showpageshadow="0"
   inkscape:pageopacity="0"
   inkscape:pagecheckerboard="1"
   inkscape:deskcolor="#d1d1d1"
   showgrid="false"
   inkscape:zoom="0.31987497"
   inkscape:cx="1672.5285"
   inkscape:cy="265.72883"
   inkscape:window-width="1920"
   inkscape:window-height="1009"
   inkscape:window-x="-8"
   inkscape:window-y="-8"
   inkscape:window-maximized="1"
   inkscape:current-layer="g28" />
<style
   type="text/css"
   id="style2">
	.st0{fill:#00A336;}
	.st1{fill:#FF0000;}
	.st2{fill:#FFFFFF;}
	.st3{fill:#00FFFE;}
</style>
<g
   id="g28">
	<path
   d="M239.1,123.9c-17.3-25.3-39.6-41.3-70-41.3c-29.1,0-57,24-57,56.6c0,84.6,185.2,49.3,185.2,217.8   c0,100.6-58.2,171.8-153.6,171.8c-64.4,0-111.5-40-143.7-97.9l58.8-61.9c12.4,38.6,45.2,73.3,84.2,73.3c37.2,0,60.1-34,60.1-72.6   c0-51.9-44.6-66.6-81.1-81.9C61.9,261.1,18,228.4,18,150.5C18,67.3,75.6,0,154.2,0c41.5,0,99.1,22,127.6,55.9L239.1,123.9z"
   id="path4"
   style="fill:#4a4a4b;fill-opacity:1" />
	<path
   d="M361.1,13.3h91v281c0,61.9,5,149.2,82.4,149.2c77.4,0,82.4-87.2,82.4-149.2v-281h91v300.4c0,122.5-48.3,215.1-173.4,215.1   c-125.1,0-173.4-92.6-173.4-215.1V13.3z"
   id="path6"
   style="fill:#4a4a4b;fill-opacity:1" />
	<path
   d="M882,515.5h-91V13.3h123.9c97.9,0,161.6,42,161.6,155.8c0,106.6-53.9,158.5-149.3,158.5H882V515.5z M882,246.4h18.6   c53.9,0,83-12.7,83-77.9c0-64.6-34.7-73.9-85.5-73.9H882V246.4z"
   id="path8"
   style="fill:#4a4a4b;fill-opacity:1" />
	<path
   d="M1227.6,98.6v110.6h144.9v85.2h-144.9v135.9h150.5v85.2h-241.5V13.3h241.5v85.2H1227.6z"
   id="path10"
   style="fill:#4a4a4b;fill-opacity:1" />
	<path
   d="M1773.3,515.5h-110.2L1549.7,313h-1.2v202.5h-91V13.3h123.2c92.3,0,156.1,44,156.1,151.2c0,63.9-32.8,127.9-95.4,139.2   L1773.3,515.5z M1548.5,244.4h11.8c50.2,0,85.5-16,85.5-77.3c0-61.9-36.5-73.9-84.8-73.9h-12.4V244.4z"
   id="path12"
   style="fill:#4a4a4b;fill-opacity:1" />
	<path
   d="M1989.5,351.6h1.2l104-338.3h97.9l-181.5,515.5h-53.3L1779.5,13.3h97.9L1989.5,351.6z"
   id="path14"
   style="fill:#4a4a4b;fill-opacity:1" />
	<path
   d="M2327.1,515.5h-91V13.3h91V515.5z"
   id="path16"
   style="fill:#4a4a4b;fill-opacity:1" />
	<path
   d="M2631.8,123.9c-17.3-25.3-39.6-41.3-70-41.3c-29.1,0-57,24-57,56.6c0,84.6,185.2,49.3,185.2,217.8   c0,100.6-58.2,171.8-153.6,171.8c-64.4,0-111.5-40-143.7-97.9l58.8-61.9c12.4,38.6,45.2,73.3,84.2,73.3c37.2,0,60.1-34,60.1-72.6   c0-51.9-44.6-66.6-81.1-81.9c-60.1-26.6-104-59.3-104-137.2C2410.7,67.3,2468.3,0,2547,0c41.5,0,99.1,22,127.6,55.9L2631.8,123.9z"
   id="path18"
   style="fill:#4a4a4b;fill-opacity:1" />
	<path
   d="M2847.4,515.5h-91V13.3h91V515.5z"
   id="path20"
   style="fill:#4a4a4b;fill-opacity:1" />
	<path
   d="M3435.2,0h65.6l245.9,351h1.2V13.3h91v512.1h-65.6l-245.9-351h-1.2v341h-91V0z"
   id="path22"
   style="fill:#4a4a4b;fill-opacity:1" />
	<path
   d="M3008.6,306.8c-3-15.8-4.5-31.8-4.5-47.1c0-81.2,50.8-163.2,136.9-163.2c86.1,0,136.9,81.9,136.9,163.2   c0,15.3-1.5,31.3-4.5,47.1l60.5,110c24.7-43.1,38.2-95.8,38.2-153.2C3372,114.5,3280.3,0,3141,0c-139.4,0-231,114.5-231,263.7   c0,57.4,13.5,110.1,38.2,153.2L3008.6,306.8z"
   id="path24"
   style="fill:#4a4a4b;fill-opacity:1" />
	<polygon
   class="st0"
   points="3140.9,166.4 2949.1,515.5 3332.8,515.5  "
   id="polygon26" />
</g>
</svg>
