<?xml version="1.0" encoding="UTF-8" standalone="no"?>
<!-- Generator: Adobe Illustrator 25.2.3, SVG Export Plug-In . SVG Version: 6.00 Build 0)  -->

<svg
   version="1.1"
   id="Layer_1"
   x="0px"
   y="0px"
   viewBox="0 0 3839 1350"
   xml:space="preserve"
   sodipodi:docname="n64.svg"
   width="3839"
   height="1350"
   inkscape:version="1.2.2 (732a01da63, 2022-12-09)"
   xmlns:inkscape="http://www.inkscape.org/namespaces/inkscape"
   xmlns:sodipodi="http://sodipodi.sourceforge.net/DTD/sodipodi-0.dtd"
   xmlns="http://www.w3.org/2000/svg"
   xmlns:svg="http://www.w3.org/2000/svg"><defs
   id="defs448" /><sodipodi:namedview
   id="namedview446"
   pagecolor="#ffffff"
   bordercolor="#111111"
   borderopacity="1"
   inkscape:showpageshadow="0"
   inkscape:pageopacity="0"
   inkscape:pagecheckerboard="1"
   inkscape:deskcolor="#d1d1d1"
   showgrid="false"
   inkscape:zoom="0.31857254"
   inkscape:cx="1691.9223"
   inkscape:cy="1064.1218"
   inkscape:window-width="1920"
   inkscape:window-height="1009"
   inkscape:window-x="-8"
   inkscape:window-y="-8"
   inkscape:window-maximized="1"
   inkscape:current-layer="g443" />
<style
   type="text/css"
   id="style313">
	.st0{fill:#C1C1C1;}
	.st1{fill:#E60008;}
	.st2{clip-path:url(#SVGID_2_);}
	.st3{fill:url(#SVGID_3_);}
	.st4{fill:url(#SVGID_4_);}
	.st5{opacity:0.8;fill:url(#SVGID_5_);}
	.st6{fill:url(#SVGID_6_);}
	.st7{fill:#FFFFFF;}
	.st8{fill:#FFF200;}
	.st9{fill:#DE0204;}
	.st10{clip-path:url(#SVGID_8_);}
	.st11{fill:url(#SVGID_11_);}
	.st12{fill:url(#SVGID_12_);}
	.st13{opacity:0.8;fill:url(#SVGID_13_);}
	.st14{fill:url(#SVGID_14_);}
	.st15{clip-path:url(#SVGID_16_);}
	.st16{fill:url(#SVGID_19_);}
	.st17{fill:url(#SVGID_20_);}
	.st18{opacity:0.8;fill:url(#SVGID_21_);}
	.st19{fill:url(#SVGID_22_);}
</style>
<g
   id="g443">
	<g
   id="g379"
   transform="translate(0,-816)">
		<g
   id="g331">
			<polygon
   class="st0"
   points="3348.14,1486.87 3100.91,1486.87 2928.91,2119.4 3176.14,2119.4 "
   id="polygon315" />
			<path
   class="st0"
   d="m 1781.91,1972.48 c -74.39,0 -160.57,-46.23 -160.57,-145.53 0,-79.35 106.73,-164.04 233.25,-164.04 48.44,0 112.44,8.26 169.01,24.66 19.71,-20.19 42.66,-43.71 59.13,-60.64 -93.76,-72.15 -235.27,-116.38 -370.49,-116.38 -263.78,0 -434.09,138.41 -434.09,303.83 0,207 205.17,303.83 360.26,303.83 132.67,0 267.73,-32.58 371.1,-85.49 l -17.34,-110.11 c -71.59,29.6 -152.26,49.87 -210.26,49.87 z"
   id="path317" />
			<path
   class="st0"
   d="m 2973.97,1486.87 h -247.22 l -13.25,48.72 c -76.32,-22.09 -158.12,-34 -232.96,-34 -263.78,0 -419.88,173.53 -419.88,362.55 0,154.94 131.54,264.17 286.63,264.17 101.69,0 181.27,-18.59 246.35,-75.92 0.68,-0.6 1.42,-1.14 2.11,-1.74 13.85,29.19 46.57,69.63 128.81,68.75 90.41,-0.97 125.31,-27.78 128.83,-36.78 l 31.08,-114.28 h -41.42 z m -303.74,203.23 -56.94,213.98 c -11.3,41.57 -110.85,81.24 -193.74,54.9 -41.45,-13.17 -56.75,-44.35 -61.69,-72.24 -4.46,-25.18 -0.18,-51.1 10.64,-74.27 7.21,-15.45 18.97,-40.61 37.41,-80.02 44.63,-95.35 280.11,-100.43 264.32,-42.35 z"
   id="path319" />
			<path
   class="st0"
   d="m 3283.88,1691.39 c 0,0 109.23,-45.71 192.9,-45.71 0,0 139.75,-11.3 130.15,130.92 -3.87,57.33 -22.66,123.37 -53.45,199.09 l -66.82,143.7 h 227.18 c 204.05,-362.26 105.67,-492.41 69.72,-541.11 -116.27,-157.53 -457.84,-30.99 -457.84,-30.99"
   id="path321" />
			<path
   class="st0"
   d="M 1022.82,1397.72 C 658.73,1301.51 352.51,1657.98 42.64,2119.4 h 516.44 c 100.71,-187.47 281.07,-495.02 432.13,-471.01 72.86,11.58 87.92,220.37 -13.76,471.01 h 158.73 c 158.05,-515.26 50.66,-678.33 -113.36,-721.68 z"
   id="path323" />
			<ellipse
   class="st0"
   cx="842.84003"
   cy="1970.17"
   rx="155.49001"
   ry="33.009998"
   id="ellipse325" />
			<g
   id="g329">
				<path
   class="st0"
   d="m 1247.19,1467.67 c 18.59,33.44 32.11,71.68 40.65,114.8 17.19,-18.21 36.44,-35.34 57.93,-51.06 37.43,-27.39 79.83,-49.62 126.21,-66.6 -46.24,-50.91 -112.96,-82.87 -187.15,-82.87 -31.63,0 -61.88,5.86 -89.79,16.47 20.21,20.13 37.66,43.19 52.15,69.26 z"
   id="path327" />
			</g>
		</g>
		<path
   class="st8"
   d="m 1998.23,1372.67 44.17,-8.15 c 68.15,-12.67 170.41,-51.36 173.4,-94.17 0.24,-3.52 -0.28,-5.34 -0.55,-5.64 -0.19,-0.21 -4.92,-5 -26.89,-5 -4.28,0 -8.19,0.16 -11.42,0.3 l -2.46,0.1 c -8.13,0.3 -16.12,0.46 -23.73,0.46 -136.65,0 -167.98,-49.42 -180.61,-97.76 l -0.57,-2.2 c -40.17,-151.34 161.11,-306.34 169.7,-312.87 l 29.76,-22.61 64.83,158.36 -26.45,10.92 c -1.63,0.68 -164.69,70.81 -140.76,149.82 1.7,5.62 2.55,7.15 2.82,7.55 8.77,6.65 70.93,9.12 104.34,10.44 89.29,3.54 139.44,43.79 137.59,110.45 -0.93,69.56 -41.73,210.71 -189.43,244.09 l -18.68,4.22 z"
   id="path333" />
		<path
   class="st9"
   d="m 2172.66,1190.91 c -115.94,-4.6 -124.66,-9.22 -133.48,-38.34 -32.25,-106.43 157.27,-184.67 157.27,-184.67 l -39.83,-97.3 c 0,0 -195.02,148.16 -159.33,282.65 7.55,28.44 17.73,84.12 176.11,78.18 20.23,-0.76 74.2,-4.69 71.02,40.92 -5.94,85.14 -196.81,120.39 -196.81,120.39 l 68.02,96.04 c 164.67,-37.21 167.08,-216.9 167.08,-216.9 1.95,-70.23 -75.38,-79.6 -110.05,-80.97 z"
   id="path335" />
		<g
   id="g341">
			<polygon
   class="st8"
   points="3313.41,1114.87 3319.23,1250.47 3032.8,1362.11 2947.9,958.69 3204.95,842.72 3229.39,980.47 3067.3,1018.49 3077.99,1069.23 3201.19,1026.79 3235.23,1125.62 3099.68,1172.31 3110.58,1224.1 "
   id="polygon337" />
			<polygon
   class="st9"
   points="3052.02,1314.04 3052.35,1315.62 3053.92,1323.08 3289.68,1231.19 3286.7,1161.85 3090.4,1267.56 3066.38,1153.43 3198.75,1107.84 3183.4,1063.27 3056.6,1106.95 3033.45,996.95 3196.39,958.73 3183.14,884.04 2980.73,975.36 3047.14,1290.86 "
   id="polygon339" />
		</g>
		<g
   id="g347">
			<path
   class="st8"
   d="m 3543.6,1383.29 11.22,-31.21 c 4.74,-13.48 14.22,-54.71 0.91,-82.27 -5.37,-11.12 -14.14,-19.19 -26.72,-24.56 -5.05,0.3 -10.14,0.45 -15.19,0.45 -10.3,0 -20.74,-0.62 -31.02,-1.85 -33.1,-3.95 -64.2,-13.88 -91.07,-28.81 l -19.04,139.5 -94.18,-9.95 18.02,-406.51 124.26,16.35 c 20.83,-5.98 43.21,-9.06 66.32,-9.06 10.29,0 20.75,0.63 31.09,1.86 107.96,12.88 187.85,89.9 178.09,171.67 -4.41,36.92 -25.71,69.23 -59.9,92.2 21.91,34.39 40.29,90.49 27.71,166.35 l -4.87,29.36 z m -126.41,-267.03 c 17.57,17.6 46.27,30.28 76.78,33.93 6.17,0.74 12.43,1.11 18.58,1.11 48.44,0 83.7,-22.77 86.23,-44.03 1.4,-11.7 -6.12,-25.41 -20.61,-37.6 -17.87,-15.03 -43.81,-25.52 -71.16,-28.78 -6.18,-0.74 -12.43,-1.11 -18.59,-1.11 -24.04,0 -47.38,5.84 -64.01,16.01 l -11.96,7.32 -5.81,42.58 z"
   id="path343" />
			<path
   class="st9"
   d="m 3514.78,975.72 c -46.14,-5.51 -89.4,2.99 -122.23,21.04 l 2.29,-16.8 -71.05,-9.35 -15.44,348.28 39.65,4.19 21.75,-159.32 c 27.72,26.49 68.85,45.91 116.44,51.59 16.15,1.93 31.95,2.12 47.1,0.82 89.74,30.94 48.54,145.61 48.54,145.61 l 53.95,10.97 c 14.98,-90.33 -19.3,-150.24 -44.03,-170.35 42,-17.22 71.44,-48.42 76.04,-86.91 7.88,-66.16 -60.62,-128.74 -153.01,-139.77 z m 112.5,134.95 c -5.38,45.07 -67.98,76.22 -136.72,68.02 -38.61,-4.61 -72.41,-20.83 -93.68,-42.15 l -25.93,18.4 19.81,-145.09 18.68,21.47 c 25.69,-15.72 62.36,-23.53 100.97,-18.92 68.73,8.19 122.25,53.19 116.87,98.27 z"
   id="path345" />
		</g>
		<g
   id="g365">
			<polygon
   class="st1"
   points="3305.49,1454.7 3058.27,1454.7 2886.27,2087.23 3133.49,2087.23 "
   id="polygon349" />
			<path
   class="st1"
   d="m 1739.27,1940.31 c -74.39,0 -160.57,-46.23 -160.57,-145.53 0,-79.35 106.73,-164.04 233.25,-164.04 48.44,0 112.44,8.26 169.01,24.66 19.71,-20.19 42.66,-43.71 59.13,-60.64 -93.76,-72.15 -235.27,-116.38 -370.49,-116.38 -263.78,0 -434.09,138.41 -434.09,303.83 0,207 205.17,303.83 360.26,303.83 132.67,0 267.73,-32.58 371.1,-85.49 l -17.34,-110.11 c -71.6,29.6 -152.26,49.87 -210.26,49.87 z"
   id="path351" />
			<path
   class="st1"
   d="M 2931.32,1454.7 H 2684.1 l -13.25,48.72 c -76.32,-22.09 -158.12,-34 -232.96,-34 -263.78,0 -419.88,173.53 -419.88,362.55 0,154.94 131.54,264.17 286.63,264.17 101.69,0 181.27,-18.59 246.35,-75.92 0.68,-0.6 1.42,-1.14 2.11,-1.74 13.85,29.19 46.57,69.63 128.81,68.75 90.41,-0.97 125.31,-27.78 128.83,-36.78 l 31.08,-114.28 h -41.42 z m -303.73,203.23 -56.94,213.98 c -11.3,41.57 -110.85,81.24 -193.74,54.9 -41.45,-13.17 -56.75,-44.35 -61.69,-72.24 -4.46,-25.18 -0.18,-51.1 10.64,-74.27 7.21,-15.45 18.97,-40.61 37.41,-80.02 44.62,-95.35 280.11,-100.42 264.32,-42.35 z"
   id="path353" />
			<path
   class="st1"
   d="m 3241.24,1659.22 c 0,0 109.23,-45.71 192.9,-45.71 0,0 139.75,-11.3 130.15,130.92 -3.87,57.33 -22.66,123.37 -53.45,199.09 l -66.82,143.7 h 227.18 c 204.05,-362.26 105.67,-492.41 69.72,-541.11 -116.27,-157.53 -457.84,-30.99 -457.84,-30.99"
   id="path355" />
			<path
   class="st1"
   d="M 980.18,1365.55 C 616.09,1269.34 309.87,1625.81 0,2087.23 h 516.44 c 100.71,-187.47 281.07,-495.02 432.13,-471.01 72.86,11.58 87.92,220.37 -13.76,471.01 h 158.73 c 158.04,-515.26 50.66,-678.33 -113.36,-721.68 z"
   id="path357" />
			<ellipse
   class="st1"
   cx="800.19"
   cy="1938"
   rx="155.49001"
   ry="33.009998"
   id="ellipse359" />
			<g
   id="g363">
				<path
   class="st1"
   d="m 1204.55,1435.51 c 18.59,33.44 32.11,71.68 40.65,114.8 17.19,-18.21 36.44,-35.34 57.93,-51.06 37.43,-27.39 79.83,-49.62 126.21,-66.6 -46.24,-50.91 -112.96,-82.87 -187.15,-82.87 -31.63,0 -61.88,5.86 -89.79,16.47 20.2,20.13 37.66,43.18 52.15,69.26 z"
   id="path361" />
			</g>
		</g>
		<g
   id="g371">
			<path
   class="st8"
   d="m 2483.86,1416.62 c -80.94,-0.01 -143.84,-50.44 -164.15,-131.62 l -62.88,-251.33 101.41,-25.37 62.88,251.33 c 11.81,47.21 48.68,52.3 63.99,52.3 23.3,0 46,-10.52 59.21,-27.46 12.13,-15.53 15.56,-35.64 9.93,-58.15 l -52.01,-207.9 101.41,-25.36 52.02,207.9 c 13.68,54.71 3.85,107.09 -27.7,147.51 -33.32,42.68 -87.19,68.17 -144.08,68.17 -0.02,-0.02 -0.02,-0.02 -0.03,-0.02 z"
   id="path367" />
			<path
   class="st9"
   d="m 2627.81,1207.91 -45.05,-180.06 -45.73,11.44 45.05,180.06 v 0 c 31.49,125.87 -157.32,173.11 -188.81,47.24 0,0 0,0 0,0 l -55.92,-223.49 -45.73,11.44 55.92,223.49 v 0 c 46.76,186.84 327.02,116.72 280.27,-70.12 0,0 0,0 0,0 z"
   id="path369" />
		</g>
		<g
   id="g377">
			<path
   class="st8"
   d="m 2631.72,1378.2 13.08,-402.79 130.59,15.35 c 19.99,-6 41.3,-9.09 63.22,-9.09 9.05,0 18.25,0.54 27.33,1.61 104.89,12.33 181.98,92.51 171.86,178.74 -9.25,78.59 -85.42,135.64 -181.11,135.64 -0.01,0 0.01,0 -0.01,0 -9.11,0 -18.36,-0.54 -27.5,-1.62 -29.38,-3.45 -57.28,-12.32 -81.87,-25.77 l -14.09,119.85 z m 136.39,-212.73 c 16.51,18.18 43.57,31.06 72.37,34.45 5.2,0.61 10.48,0.92 15.67,0.92 43.89,0 82.24,-22.48 85.49,-50.11 1.61,-13.68 -5.67,-29.06 -19.96,-42.21 -16.8,-15.45 -41.24,-26.06 -67.04,-29.09 -5.2,-0.61 -10.47,-0.92 -15.67,-0.92 -23.45,0 -46.31,6.43 -62.72,17.65 l -9.22,6.3 -6.43,54.75 z"
   id="path373" />
			<path
   class="st9"
   d="m 2862.59,1011.79 c -43.66,-5.13 -84.78,4 -116.48,22.83 l 2.13,-18.15 -75.78,-8.91 -11.22,345.22 46.81,5.5 16.45,-139.95 c 26.46,25.67 64.34,44.08 108.01,49.22 89.32,10.5 168.46,-38.24 176.77,-108.87 8.31,-70.62 -57.37,-136.39 -146.69,-146.89 z m 107.56,142.29 c -5.66,48.11 -66.57,82.15 -133.02,74.33 -37.33,-4.39 -69.89,-21.22 -90.27,-43.65 l -20.28,16.01 17.47,-148.6 16.01,20.28 c 25.02,-17.1 60.6,-25.92 97.93,-21.53 66.45,7.82 117.81,55.06 112.16,103.16 z"
   id="path375" />
		</g>
	</g>
	
</g>
</svg>
