<?xml version="1.0" encoding="UTF-8"?>
<!-- Created with Inkscape (http://www.inkscape.org/) -->
<svg id="Layer_1" width="729.88" height="202.32" version="1.0" viewBox="0 0 729.88 202.32" xml:space="preserve" xmlns="http://www.w3.org/2000/svg">
<g id="g3" fill-rule="evenodd">
	<path id="path5" d="m517.89 16.572c0 7.5947-6.9072 14.501-15.19 14.501-7.5967 0-14.504-6.9062-14.504-14.501 0-8.2861 6.9072-15.191 15.194-15.191 8.2861 1e-7 14.5 6.9053 14.5 15.191z" fill="#fbab18"/>
	<path id="path7" d="m486.82 101.51c0-31.765 7.5967-57.313 15.883-57.313 8.9766 0 16.569 25.549 16.569 57.313 0 31.761-7.5928 57.311-16.569 57.311-8.2861 0-15.883-25.55-15.883-57.311z" fill="#0082b5"/><g fill="#959296">
	<path id="path9" d="m75.959 73.887c-11.051-5.5244-18.646-7.5977-26.932-7.5977-7.5952 0-13.119 4.1436-13.119 10.357 0 5.5244 3.4517 8.2861 13.119 11.049l13.121 3.4531c13.12 3.4521 17.952 7.5957 21.406 12.428 4.1436 4.835 6.2139 11.053 6.2139 17.956 0 22.098-18.644 37.284-46.263 37.284-13.121 0-27.622-4.1377-43.505-12.429l10.359-20.71c8.2866 5.5244 23.479 12.428 35.217 12.428 8.2861 0 14.5-5.5244 14.5-12.428 0-6.9111-5.5244-11.049-16.571-13.121l-12.432-2.0723c-7.5947-1.3799-15.881-6.2158-20.022-11.049-3.4541-4.835-6.2158-12.43-6.2158-19.335 0-20.717 16.573-35.217 42.122-35.217 16.573 0 28.312 5.5244 37.979 10.357l-8.9761 18.646z"/>
	<path id="path11" d="m123.6 46.263 18.646 62.842c2.0703 6.21 5.5225 22.098 5.5225 22.098s2.0723-11.742 3.4531-17.267c0.6914-3.4512 2.7627-9.667 4.1436-14.5l16.573-51.101h29l-38.668 109.1c-7.5947 20.719-13.121 29.694-20.716 35.219-6.9062 5.5244-16.573 8.2822-26.241 9.669l-9.665-17.959c6.2139-2.0654 13.811-4.831 17.952-7.5898 2.7637-2.0723 5.5244-4.8379 7.5967-8.9756 2.7617-4.1455 3.4512-6.2178 6.2139-12.436 0 0-6.2139 0.69336-17.263-30.38l-25.549-75.268 29.001-3.4541z"/>
	<path id="path13" d="m236.85 46.263c1.3809 2.7646 2.7627 5.5264 3.4522 11.051 7.5967-7.5967 16.572-11.051 26.24-11.051 8.9775 0 16.573 2.7646 22.098 8.9785 1.3809 1.3809 2.7617 3.4531 4.1426 4.834 9.668-9.667 18.644-13.812 30.382-13.812 8.2871 0 16.573 2.7646 21.408 6.9072 5.5225 4.833 7.5947 11.049 7.5947 26.239v75.955h-26.931v-70.432c0-13.119-2.0723-15.881-8.9775-15.881-5.5225 0-12.428 4.1426-18.644 8.9756v77.337h-26.93v-69.74c0-13.121-2.0713-16.572-9.668-16.572-4.833 0-12.43 2.7617-17.954 8.2861v78.026h-27.619v-74.574c0-15.882-1.3818-22.096-4.1436-27.62l25.549-6.9072z"/>
	<path id="path15" d="m666.36 45.573c2.7617 4.1436 4.1416 8.9756 4.1416 13.121 4.1445-2.7617 7.5967-5.5244 12.432-7.5967 5.5244-3.4521 13.117-4.835 19.335-4.835 11.738 0 22.787 6.2158 25.549 15.192 2.0684 4.1445 2.0684 8.9775 2.0684 15.883v78.026h-27.617v-69.74c0-12.43-2.0723-15.883-8.9805-15.883-6.2139 0-13.117 4.1455-20.024 9.668v75.955h-27.621v-77.337c0-9.665-1.3799-18.644-4.1416-25.549l24.859-6.9053z"/>
	<path id="path17" d="m622.85 83.554c0-11.051-0.68945-14.502-2.0723-19.335-4.1416-11.74-16.569-18.646-34.525-18.646-9.666 0-18.642 2.0723-29.001 6.9053-7.5967 2.7627-11.738 4.835-17.263 8.2861l11.738 20.025c11.049-7.5957 22.098-11.738 31.073-11.738 9.6699 0 12.428 3.4512 12.428 15.881v4.1436h-6.2129c-34.525 0-51.788 11.74-51.788 36.602 0 21.403 13.121 33.139 36.598 33.139 22.787 0 49.025-13.114 49.025-35.904v-39.358zm-29.001 49.027c-4.1406 4.8311-8.9756 7.5967-14.5 7.5967-6.9033 0-12.428-7.5967-12.428-15.887 0-12.428 6.9033-15.88 26.238-15.88h1.3789l-0.68945 24.17z"/>
	<path id="path19" d="m425.36 45.573c-9.666 0-17.263 2.7617-22.787 8.2861 0-1.3809 0.68946-6.2139 0.68946-8.9756v-25.551c0-7.5957-0.68946-11.736-1.3789-19.333l-29.001 6.9053c2.0693 6.2139 2.0693 13.119 2.0693 26.24v87.008c0 16.573 14.5 37.283 46.267 37.283 10.355 0 19.335-1.3789 26.929-7.5967 13.121-10.355 19.335-28.308 19.335-49.715 0-33.836-15.884-54.552-42.122-54.552zm7.5967 82.169c-2.7617 5.5244-6.9072 8.291-13.811 8.291-7.5967 0-11.738-3.4522-15.884-6.9033v-51.792c3.456-4.1436 8.9766-8.2861 15.884-8.2861 7.5967 0 13.121 4.1426 15.189 13.119 1.3828 4.835 1.3828 8.9775 1.3828 18.646 0 13.119-0.69336 20.716-2.7617 26.926z"/>
</g></g>
<script/></svg>
