<?xml version="1.0" encoding="utf-8"?>
<!-- Generator: Adobe Illustrator 25.4.1, SVG Export Plug-In . SVG Version: 6.00 Build 0)  -->
<svg version="1.1" id="Layer_1" xmlns="http://www.w3.org/2000/svg" xmlns:xlink="http://www.w3.org/1999/xlink" x="0px" y="0px"
	 viewBox="0 0 3839 1697.3" style="enable-background:new 0 0 3839 1697.3;" xml:space="preserve">
<style type="text/css">
	.st0{fill:#FFFFFF;}
</style>
<g>
	<g>
		<path class="st0" d="M196.3,1329.8h39.4v123.8h0.8c18.5-30.2,49.9-43,85.7-43c56.7,0,97.7,31.8,97.7,94.9v114.6h-39.4v-112.6
			c0-45-26.9-69.6-64.8-69.6c-37.4,0-80,22.9-80,86.9v95.3h-39.4L196.3,1329.8L196.3,1329.8z"/>
		<path class="st0" d="M605.6,1627.8c-82.1,0-126.2-39.4-126.2-108.6c0-65.6,41.8-108.6,126.2-108.6c82.1,0,126.2,39.4,126.2,108.6
			S687.7,1627.8,605.6,1627.8z M521.1,1519.2c0,45.9,29.4,81.3,84.5,81.3s84.5-35.4,84.5-81.3s-29.4-81.3-84.5-81.3
			S521.1,1473.3,521.1,1519.2z"/>
		<path class="st0" d="M791.3,1464.1c0-15.3-0.8-29.8-1.6-45.9h37c0.8,10.1,1.6,21.7,1.6,35.8h0.8c22.9-31,51.9-43.4,84.9-43.4
			c33.8,0,61.9,16.5,73.6,50.7c14.5-27.8,45.9-50.7,83.3-50.7c57.5,0,92.9,28.2,92.9,93.7v115.9h-39.4v-101
			c0-49.1-14.1-81.3-57.1-81.3c-34.6,0-70,23.7-70,90.1v92.1h-39.4v-103.4c0-54.3-18.5-78.8-54.7-78.8c-34.6,0-72.4,24.9-72.4,84.5
			v97.7h-39.4L791.3,1464.1L791.3,1464.1z"/>
		<path class="st0" d="M1448.8,1529.6h-189c4,41.4,30.6,70.8,74.8,70.8c28.6,0,58.7-12.1,67.6-41h41.8c-8,53.9-62.7,68.4-107.4,68.4
			c-74,0-116.3-40.6-116.3-104.6c0-73.6,44.2-112.6,117.5-112.6c71.6,0,111,38.6,111,107L1448.8,1529.6L1448.8,1529.6z
			 M1406.9,1502.3c-0.8-46.7-35.4-64.4-70-64.4c-40.6,0-69.6,19.7-75.6,64.4H1406.9z"/>
		<path class="st0" d="M1862.5,1555c-4,51.1-56.3,72.8-107.8,72.8c-75.2,0-115-43-115-108.2c0-68,45.9-109,118.7-109
			c48.7,0,95.7,19.3,102.6,72h-41.8c-3.6-29.4-27.4-44.6-60.4-44.6c-42.6,0-77.2,27.8-77.2,81.7c0,43,25.3,80.9,75.2,80.9
			c37,0,61.9-17.3,64-45.5L1862.5,1555L1862.5,1555z"/>
		<path class="st0" d="M2033.7,1627.8c-82.1,0-126.2-39.4-126.2-108.6c0-65.6,41.8-108.6,126.2-108.6c82.1,0,126.2,39.4,126.2,108.6
			S2115.8,1627.8,2033.7,1627.8z M1949.3,1519.2c0,45.9,29.4,81.3,84.5,81.3s84.5-35.4,84.5-81.3s-29.4-81.3-84.5-81.3
			S1949.3,1473.3,1949.3,1519.2z"/>
		<path class="st0" d="M2219.5,1464.1c0-15.3-0.8-29.8-1.6-45.9h37c0.8,10.1,1.6,21.7,1.6,35.8h0.8c22.9-31,51.9-43.4,84.9-43.4
			c33.8,0,61.9,16.5,73.6,50.7c14.5-27.8,45.9-50.7,83.3-50.7c57.5,0,92.9,28.2,92.9,93.7v115.9h-39.4v-101
			c0-49.1-14.1-81.3-57.1-81.3c-34.6,0-70,23.7-70,90.1v92.1H2386v-103.4c0-54.3-18.5-78.8-54.7-78.8c-34.6,0-72.4,24.9-72.4,84.5
			v97.7h-39.4v-155.9H2219.5z"/>
		<path class="st0" d="M2663.4,1464.1c0-15.3-0.8-29.8-1.6-45.9h39.4c0.8,7.6,1.6,16.9,1.6,28.6c20.5-23.3,52.7-36.2,88.5-36.2
			c60.3,0,112.6,43,112.6,108.6s-52.3,108.6-112.6,108.6c-32.2,0-63.6-7.6-88.5-34.2v103.8h-39.4V1464.1z M2782.3,1600.4
			c47.1,0,79.6-30.2,79.6-81.3c0-51.1-32.6-81.3-79.6-81.3c-46.7,0-79.6,30.2-79.6,81.3C2702.8,1570.2,2735.7,1600.4,2782.3,1600.4z
			"/>
		<path class="st0" d="M3186.9,1574.3c0,15.3,0.8,29.8,1.6,45.9h-37c-0.8-10.1-1.6-21.7-1.6-35.8h-0.8c-22.9,31-51.9,43.4-88.1,43.4
			c-56.7,0-97.8-31.8-97.8-94.9v-114.7h39.4v112.6c0,45,26.9,69.6,64.8,69.6c37.4,0,80.1-22.9,80.1-86.9v-95.3h39.4L3186.9,1574.3
			L3186.9,1574.3z"/>
		<path class="st0" d="M3288.1,1381.3l39.4-16.5v53.5h59.5v27.4h-59.5v116.2c0,21.7,6,33.4,30.6,33.4c7.2,0,18.9-0.8,30.2-2.4v27.4
			c-12.9,1.6-25.7,2.4-37.8,2.4c-39.8,0-62.4-12.9-62.4-57.9v-119.1h-52.7v-27.4h52.7V1381.3z"/>
		<path class="st0" d="M3650.5,1529.6h-189c4,41.4,30.6,70.8,74.8,70.8c28.6,0,58.7-12.1,67.6-41h41.8c-8,53.9-62.7,68.4-107.4,68.4
			c-74,0-116.3-40.6-116.3-104.6c0-73.6,44.2-112.6,117.5-112.6c71.6,0,111,38.6,111,107L3650.5,1529.6L3650.5,1529.6z
			 M3608.6,1502.3c-0.8-46.7-35.4-64.4-70-64.4c-40.6,0-69.6,19.7-75.6,64.4H3608.6z"/>
		<path class="st0" d="M3707.2,1464.1c0-15.3-0.8-29.8-1.6-45.9h37c0.8,12.1,1.6,26.6,1.6,40.2h0.8c18.1-32.6,35.8-43,80.8-43h13.3
			v35.4c-6-2-11.7-2.4-18.9-2.4c-47.5,0-73.6,33.4-73.6,74v97.7h-39.4L3707.2,1464.1L3707.2,1464.1z"/>
	</g>
	<g>
		<path class="st0" d="M752.4,131.8v186.9c0,19.8-10.1,22.9-19.8,26v6.6h86.3v-6.6c-9.7-3.1-19.8-6.1-19.8-26V131.8
			c0-11.3,3.5-14,18.3-14c40.4,0,60.2,0.8,74.6,23.2l5-3.1L880.7,90H670.4l-16.3,48l5.1,3.1c17.5-22.1,31.1-23.2,75-23.2
			C748.9,117.9,752.4,120.6,752.4,131.8z M850.7,158.6c12.8,3.5,19.4,6.6,19.4,26v134.1c0,19.8-6.6,22.9-19.4,26v6.6h162.8
			l18.6-46.7l-5.1-3.5c-16.3,21.5-33.4,26.4-55.9,26.4h-42c-13.2,0-16.3-0.3-16.3-13.2v-55.9h50.9c19.8,0,22.9,4.7,26.1,16.4h7.7
			v-55.9h-7.7c-3.1,11.7-6.2,16.7-26.1,16.7h-50.9v-47c0-9.7,3.1-12.9,16.3-12.9c0,0,32.7,0,35.7,0c22.9,0,35,5.9,52.4,24.4l5-3.5
			l-16.3-44.7H850.7V158.6z M1060,181.6l49.8,70.3l-47,66.8c-14.4,20.2-22.9,22.9-36.1,26v6.6h75.4v-6.6
			c-14.4-2.7-20.6-8.2-10.9-23.3l32.9-51.4l34.7,49.9c12.8,18.3-0.8,23.2-12.5,24.8v6.6h136.3v-6.6c-13.6-2.3-19.8-7-12.8-25.6
			l8.9-23.2h81.6l8.6,23.2c5.5,15.2,3.5,23.3-12.4,25.6v6.6h83.9v-6.6c-9.7-3.1-18.6-11.2-22.9-22.5L1352.6,152h-44.3l-62.2,158.6
			c-6.6,16.4-12.6,24.2-19.2,28.7c-5.1-3.2-9.8-8.3-16.1-17l-54.6-77.6l44.2-62.4c11.7-16.7,21.4-20.2,33-23.7V152h-71.1v6.6
			c14.7,1.2,19,9.4,10.5,22.1l-30.8,45.6l-27.8-41.8c-11.7-17.1-3.1-24.1,9.7-26.1v-6.6h-94.4v6.6
			C1042.6,162.1,1049.1,166,1060,181.6z M1320.2,186.6l31.9,87H1287L1320.2,186.6z M1458.5,351.2c0-3.2,3.1-9.8,7-9.8
			c8.9,4.3,24.1,13.2,52,13.2c47,0,80-23.3,80-62.9c0-37.3-20.6-52.5-60.2-61.4l-36.1-8.2c-20.6-4.7-27.2-10.6-27.2-23.3
			c0-14.8,11.6-24.5,37.3-24.5c28.7,0,51.3,13.6,67.6,32.4l5.1-3.5l-14.8-51.3h-9.3c0,4.3-1.9,8.9-5.8,8.9c-8.6-4.7-21.8-12-44.3-12
			c-40.4,0-71.9,20.9-71.9,59c0,29.1,17.5,47.3,55.6,55.9l34.2,7.8c22.9,4.9,31.1,13.2,31.1,27.6c0,19.8-15.9,30.3-41.9,30.3
			c-36.5,0-59.8-19.2-78.9-41.2l-5.1,3.5l15.9,59.5H1458.5L1458.5,351.2z"/>
		<path class="st0" d="M1723.3,96.9c12.1,3.5,21.7,6.6,21.7,26v195.9c0,19.8-9.7,22.9-21.7,26v6.6h90.1v-6.6
			c-12-3.1-21.8-6.2-21.8-26V122.9c0-19.5,9.7-22.6,21.8-26v-6.6h-90.1V96.9L1723.3,96.9z M1970.7,158.7c11.6,3.5,18.3,6.6,18.3,26
			v81.6h-1.2L1887.6,152h-58.6v6.6c11.7,4.9,19.4,8.9,19.4,26v134.1c0,18.6-6.6,22.9-19.4,26v6.6h66.4v-6.6
			c-10.5-3.1-20.6-7.3-20.6-26V203h1.2L2008.5,354h7V184.7c0-19.4,9.7-22.6,17.5-26V152h-62.2L1970.7,158.7L1970.7,158.7z
			 M2144.3,230.5l-36.1-8.1c-20.6-4.7-27.2-10.6-27.2-23.3c0-14.7,11.7-24.5,37.3-24.5c28.8,0,51.3,13.6,67.6,32.4l5.1-3.5
			l-14.7-51.3h-9.4c0,4.3-1.9,9-5.8,9c-8.6-4.7-21.7-12-44.3-12c-40.5,0-72,20.9-72,59c0,29,17.5,47.3,55.6,55.9l34.1,7.8
			c22.9,4.9,31.1,13.2,31.1,27.6c0,19.8-15.9,30.2-42,30.2c-36.4,0-59.9-19-78.9-41.1l-5.1,3.5l15.9,59.4h9.7c0-3.1,3.1-9.7,7-9.7
			c8.9,4.3,24.1,13.2,52,13.2c47,0,80-23.2,80-62.9C2204.6,254.5,2184,239.4,2144.3,230.5z M2216.2,152.1l-16,51.3l5.1,3.5
			c21.4-28.4,27.2-31.1,55.5-31.1c9.7,0,12.8,0.8,12.8,12.8v130.2c0,19.8-5.8,22.9-21.7,26v6.6h85.5v-6.6
			c-15.6-3.1-21.8-6.1-21.8-26V188.6c0-12,3.1-12.8,12.9-12.8c28.4,0,35.9,2.6,57.1,31.1l5.1-3.5l-15.9-51.3H2216.2z M2562.2,292.2
			c-12-19.4-24.4-28-38.8-31.5v-1.2c34.2-5.5,53.6-23.3,53.6-52.5c0-38.7-31.1-55.2-81.2-55.2h-102.2v6.6c12.9,3.5,19.5,6.6,19.5,26
			v134.1c0,19.8-6.6,22.9-19.5,26v6.6h83.5v-6.6c-12-3.1-20.2-6.2-20.2-26v-49.6h20.6c24.1,0,27.6,9.7,43.1,42.4
			c12.8,26.8,29.9,43.5,62.1,43.5c16.4,0,22.9-3.2,29.5-6.6v-5.5C2586.3,338.8,2577.8,317.5,2562.2,292.2z M2491.2,245.6H2457v-52.9
			c0-12.8,3.2-16.3,12.9-16.3h22.1c24.1,0,38.1,9.3,38.1,32.6C2530,233.6,2514.1,245.6,2491.2,245.6z M2738.9,158.7
			c10.1,2.4,19.8,6.6,19.8,26v98.3c0,32.7-12.4,47-49.3,47c-39.2,0-53.2-14.4-53.2-47v-98.3c0-19.4,7.4-23.7,19.5-26v-6.6h-81.6v6.6
			c12,1.9,19.8,6.6,19.8,26V286c0,53.2,46.2,68.8,89.8,68.8c48.6,0,83.1-16.4,83.1-72v-98.3c0-19.4,5.9-23.2,17.9-26V152H2739
			L2738.9,158.7L2738.9,158.7z M2945.6,281.4l-57.5-129.4h-71.4v6.6c12.8,3.5,19.4,6.6,19.4,26v134.1c0,17.4-7.4,22.1-19.4,26v6.6
			h63.3v-6.6c-13.2-3.5-19-8.6-19-26V193.7l71.8,160.8h5.5l69.9-160.8v125.1c0,19.8-8.5,23.2-18.2,26v6.6h81.6v-6.6
			c-12.8-3.1-19.4-6.2-19.4-26V184.7c0-19.4,6.6-22.6,19.4-26v-6.6h-70.3L2945.6,281.4z M3207.4,327.6h-42
			c-13.2,0-16.3-0.3-16.3-13.2v-55.9h50.9c19.8,0,22.9,4.6,26,16.3h7.8v-55.9h-7.8c-3.1,11.6-6.2,16.7-26,16.7h-50.9v-47
			c0-9.7,3.1-12.9,16.3-12.9c0,0,32.6,0,35.7,0c22.9,0,34.9,5.9,52.5,24.4l5-3.5l-16.4-44.7h-155.4v6.6c12.9,3.5,19.4,6.6,19.4,26
			v134.1c0,19.8-6.6,22.9-19.4,26v6.6h162.8l18.7-46.7l-5.1-3.5C3247,322.5,3229.9,327.6,3207.4,327.6z M3414.8,158.7
			c11.6,3.5,18.3,6.6,18.3,26v81.6h-1.2L3331.7,152H3273v6.6c11.7,4.9,19.5,8.9,19.5,26v134.1c0,18.6-6.6,22.9-19.5,26v6.6h66.4
			v-6.6c-10.6-3.1-20.6-7.3-20.6-26V203h1.1L3452.4,354h7.1V184.7c0-19.4,9.7-22.6,17.5-26V152h-62.1L3414.8,158.7L3414.8,158.7z
			 M3495.2,152.1l-15.9,51.3l5.1,3.5c21.4-28.4,27.2-31.1,55.6-31.1c9.7,0,12.8,0.8,12.8,12.8v130.2c0,19.8-5.8,22.9-21.7,26v6.6
			h85.5v-6.6c-15.6-3.1-21.8-6.1-21.8-26V188.6c0-12,3.2-12.8,12.9-12.8c28.4,0,35.8,2.6,57.1,31.1l5.1-3.5l-15.9-51.3H3495.2z
			 M3779.5,230.5l-36.1-8.1c-20.6-4.7-27.2-10.6-27.2-23.3c0-14.7,11.6-24.5,37.2-24.5c28.7,0,51.3,13.6,67.6,32.4l4.9-3.5
			l-14.6-51.3h-9.4c0,4.3-2,9-5.8,9c-8.6-4.7-21.8-12-44.4-12c-40.5,0-72,20.9-72,59c0,29,17.5,47.3,55.5,55.9l34.1,7.8
			c22.8,4.9,31.1,13.2,31.1,27.6c0,19.8-15.8,30.2-42,30.2c-36.5,0-59.9-19-78.9-41.1l-5.1,3.5l15.8,59.4h9.8c0-3.1,3.1-9.7,7-9.7
			c8.9,4.3,24.2,13.2,52,13.2c46.8,0,80-23.2,80-62.9C3839.7,254.5,3819.1,239.4,3779.5,230.5z"/>
		<path class="st0" d="M464.2,149.9V90.5h-95.3l-12,59.9h34.3l-11,55.2h-34.3L334,265.3c-0.9,4.1-1.6,7-2,9.8
			c-2.8,18.3,5.2,17.4,30.8,17.4l-11.7,58.8h-44.9c-42.4,0-77-0.4-68-43.9c1.4-6.6,3.1-13.4,4.3-19.8l16-82.1h-33l11-55.2h33
			l12-59.9h-30.8V0H136.6v184H0c3.4,47.7,45.6,54.7,61,88.6c10.6,23.4,19.9,64.5,50.8,64.8c23.7,0.3,23.7-30.7,54.3-30.7
			c30.5,0,44,57.9,71.2,105.7c20.3,37.5,54.1,62.6,84.7,64.8c25.1,1.7,37.3-6.8,37.3-6.8c-6.8-13.6-10.2-27.3-10.2-47.7
			c0-30.7,23.7-61.3,50.9-81.8c37.3-27.2,78-37.6,91.5-40.9v-95.5C491.4,204.5,464.2,190,464.2,149.9z M308.7,292.5l40.1-202.1
			h-46.2l-40.1,202.1H308.7z M361.2,26.6H315l-8.8,44.6h46.2L361.2,26.6z"/>
	</g>
	<g>
		<g>
			<rect x="628.7" y="535.2" class="st0" width="198.9" height="688.6"/>
		</g>
		<g>
			<polygon class="st0" points="591.4,535.2 0,535.2 0,718.2 196.3,718.2 196.3,1223.8 395.2,1223.8 395.2,718.2 591.4,718.2 			"/>
		</g>
		<g>
			<path class="st0" d="M1996.4,529.1c-155,0-280.6,86.5-280.6,243.2c0,173.5,128,235.9,249.5,235.9c37.9,0,91.9-20,127.4-47.5
				c17.2,167.1-171.1,176.4-189.1,77.6h-173.5c28.9,155.6,164.9,198.6,271.2,198.3c141-0.4,275.6-112.7,275.6-385
				C2276.9,625.7,2151.4,529.1,1996.4,529.1z M1989.7,872.5c-58.4,0-105.8-47.3-105.8-105.8c0-58.4,47.3-105.8,105.8-105.8
				s105.8,47.4,105.8,105.8C2095.5,825.1,2048.1,872.5,1989.7,872.5z"/>
		</g>
		<g>
			<path class="st0" d="M1383.8,529.1c-155,0-280.6,86.5-280.6,243.2c0,173.5,128,235.9,249.5,235.9c37.9,0,91.9-20,127.4-47.5
				c17.2,167.1-171.1,176.4-189.1,77.6h-173.6c28.9,155.6,164.9,198.6,271.2,198.3c141-0.4,275.6-112.7,275.6-385
				C1664.2,625.7,1538.7,529.1,1383.8,529.1z M1377,872.5c-58.4,0-105.8-47.3-105.8-105.8c0-58.4,47.3-105.8,105.8-105.8
				s105.8,47.4,105.8,105.8C1482.9,825.1,1435.5,872.5,1377,872.5z"/>
		</g>
		<g>
			<rect x="886.3" y="792.7" class="st0" width="158.2" height="130.3"/>
		</g>
		<g>
			<g>
				<g>
					<g>
						<path class="st0" d="M3051.2,1236.5h-199.4c-10.1,0-18.2-8.2-18.2-18.2v-134.6h-278.2c-10.1,0-18.2-8.2-18.2-18.2V914.9
							c0-4.4,1.6-8.6,4.5-11.9l319-367.5c3.5-4,8.5-6.3,13.8-6.3h176.8c10.1,0,18.2,8.2,18.2,18.2v357.8h50.1
							c10.1,0,18.2,8.2,18.2,18.2v142.1c0,10.1-8.2,18.2-18.2,18.2h-50.1v134.6C3069.4,1228.4,3061.2,1236.5,3051.2,1236.5z
							 M2869.9,1200.1h163v-134.6c0-10.1,8.2-18.2,18.2-18.2h50.1V941.6h-50.1c-10.1,0-18.2-8.2-18.2-18.2V565.6h-150.3
							l-309.1,356.1v125.6h278.2c10.1,0,18.2,8.2,18.2,18.2V1200.1z"/>
					</g>
				</g>
				<g>
					<g>
						<path class="st0" d="M2851.7,941.6H2664c-7.1,0-13.6-4.2-16.6-10.7c-3-6.5-1.9-14.1,2.8-19.5L2838,695.2
							c5-5.7,13-7.8,20.1-5.1c7.1,2.7,11.8,9.5,11.8,17.1v216.2C2869.9,933.5,2861.8,941.6,2851.7,941.6z M2704,905.2h129.5V756
							L2704,905.2z"/>
					</g>
				</g>
			</g>
			<g>
				<g>
					<path class="st0" d="M3820.8,1236.5h-138.1c-7.8,0-14.7-5-17.2-12.3l-48.2-140.5h-214.6l-48.1,140.5
						c-2.5,7.4-9.4,12.3-17.2,12.3H3199c-5.9,0-11.4-2.8-14.8-7.6c-3.4-4.8-4.3-10.9-2.4-16.5l230-671c2.5-7.4,9.4-12.3,17.2-12.3
						h161.9c7.8,0,14.7,5,17.2,12.3l229.9,671c1.9,5.6,1,11.7-2.4,16.5C3832.2,1233.7,3826.7,1236.5,3820.8,1236.5z M3695.7,1200.1
						h99.6l-217.4-634.5H3442l-217.5,634.5h99.7l48.1-140.5c2.5-7.4,9.4-12.3,17.2-12.3h240.7c7.8,0,14.7,4.9,17.2,12.3
						L3695.7,1200.1z M3591.8,971.6H3428c-5.9,0-11.4-2.8-14.8-7.6c-3.4-4.8-4.3-10.9-2.4-16.5l82-239.1c2.5-7.4,9.5-12.3,17.2-12.3
						h0c7.8,0,14.7,5,17.2,12.3l81.9,239.1c1.9,5.6,1,11.7-2.4,16.5C3603.2,968.8,3597.7,971.6,3591.8,971.6z M3453.5,935.2h112.8
						l-56.4-164.6L3453.5,935.2z"/>
				</g>
			</g>
		</g>
		<g>
			<polygon class="st0" points="2553.4,565.6 2240.5,1236.5 2292.5,1236.5 2605.3,565.6 			"/>
		</g>
	</g>
</g>
</svg>
