<?xml version="1.0" encoding="utf-8"?>
<!-- Generator: Adobe Illustrator 26.3.1, SVG Export Plug-In . SVG Version: 6.00 Build 0)  -->
<svg version="1.1" xmlns="http://www.w3.org/2000/svg" xmlns:xlink="http://www.w3.org/1999/xlink" x="0px" y="0px"
	 viewBox="0 0 3839 921.4" style="enable-background:new 0 0 3839 921.4;" xml:space="preserve">
<style type="text/css">
	.st0{display:none;}
	.st1{display:inline;fill:#9F00A8;}
	.st2{display:inline;}
	.st3{fill:#FFFFFF;}
	.st4{fill:#2C376B;}
	.st5{fill:#5FA5F0;}
	.st6{fill:#1B1C2B;}
	.st7{display:inline;fill:#FFFFFF;}
	.st8{display:inline;fill:#2C376B;}
	.st9{display:inline;opacity:0.39;}
	.st10{fill:#606060;stroke:#FFFFFF;stroke-width:0.9229;stroke-miterlimit:10;}
	.st11{fill:#2C376B;stroke:#5364A5;stroke-miterlimit:10;}
	.st12{fill:#474747;}
	.st13{fill:#BFBFBF;}
</style>
<g id="tic80">
	<g class="st0">
		<g class="st2">
			<g>
				<rect x="3495" y="-8.9" class="st3" width="19.3" height="19.3"/>
				<rect x="3514.3" y="-8.9" class="st4" width="19.3" height="19.3"/>
				<rect x="3533.6" y="-8.9" class="st4" width="19.3" height="19.3"/>
				<rect x="3552.8" y="-8.9" class="st4" width="19.3" height="19.3"/>
				<rect x="3572.1" y="-8.9" class="st4" width="19.3" height="19.3"/>
				<rect x="3591.4" y="-8.9" class="st4" width="19.3" height="19.3"/>
				<rect x="3610.7" y="-8.9" class="st4" width="19.3" height="19.3"/>
				<rect x="3629.9" y="-8.9" class="st4" width="19.3" height="19.3"/>
				<rect x="3649.2" y="-8.9" class="st4" width="19.3" height="19.3"/>
				<rect x="3668.5" y="-8.9" class="st4" width="19.3" height="19.3"/>
				<rect x="3687.8" y="-8.9" class="st4" width="19.3" height="19.3"/>
				<rect x="3707.1" y="-8.9" class="st4" width="19.3" height="19.3"/>
				<rect x="3726.3" y="-8.9" class="st3" width="19.3" height="19.3"/>
				<rect x="3745.6" y="-8.9" class="st3" width="19.3" height="19.3"/>
			</g>
			<g>
				<rect x="3495" y="10.4" class="st3" width="19.3" height="19.3"/>
				<rect x="3514.3" y="10.4" class="st3" width="19.3" height="19.3"/>
				<rect x="3533.6" y="10.4" class="st6" width="19.3" height="19.3"/>
				<rect x="3552.8" y="10.4" class="st6" width="19.3" height="19.3"/>
				<rect x="3572.1" y="10.4" class="st6" width="19.3" height="19.3"/>
				<rect x="3591.4" y="10.4" class="st3" width="19.3" height="19.3"/>
				<rect x="3610.7" y="10.4" class="st3" width="19.3" height="19.3"/>
				<rect x="3629.9" y="10.4" class="st3" width="19.3" height="19.3"/>
				<rect x="3649.2" y="10.4" class="st6" width="19.3" height="19.3"/>
				<rect x="3668.5" y="10.4" class="st6" width="19.3" height="19.3"/>
				<rect x="3687.8" y="10.4" class="st6" width="19.3" height="19.3"/>
				<rect x="3707.1" y="10.4" class="st3" width="19.3" height="19.3"/>
				<rect x="3726.3" y="10.4" class="st3" width="19.3" height="19.3"/>
			</g>
			<g>
				<rect x="3514.3" y="29.7" class="st3" width="19.3" height="19.3"/>
				<rect x="3533.6" y="29.7" class="st3" width="19.3" height="19.3"/>
				<rect x="3552.8" y="29.7" class="st3" width="19.3" height="19.3"/>
				<rect x="3572.1" y="29.7" class="st3" width="19.3" height="19.3"/>
				<rect x="3591.4" y="29.7" class="st3" width="19.3" height="19.3"/>
				<rect x="3629.9" y="29.7" class="st3" width="19.3" height="19.3"/>
				<rect x="3649.2" y="29.7" class="st3" width="19.3" height="19.3"/>
				<rect x="3668.5" y="29.7" class="st3" width="19.3" height="19.3"/>
				<rect x="3687.8" y="29.7" class="st3" width="19.3" height="19.3"/>
				<rect x="3707.1" y="29.7" class="st3" width="19.3" height="19.3"/>
			</g>
		</g>
		<g class="st2">
			<g>
				<rect x="2941.9" y="266.8" class="st3" width="21.7" height="21.7"/>
				<rect x="2920.3" y="266.8" class="st3" width="21.7" height="21.7"/>
				<rect x="2876.9" y="266.8" class="st3" width="21.7" height="21.7"/>
				<rect x="2855.2" y="266.8" class="st3" width="21.7" height="21.7"/>
				<rect x="2833.5" y="266.8" class="st3" width="21.7" height="21.7"/>
				<line class="st10" x1="2833.5" y1="266.8" x2="2833.5" y2="288.5"/>
				<rect x="2963.6" y="266.8" class="st3" width="21.7" height="21.7"/>
				<rect x="3028.7" y="266.8" class="st3" width="21.7" height="21.7"/>
				<rect x="3050.4" y="266.8" class="st3" width="21.7" height="21.7"/>
				<rect x="3202.2" y="266.8" class="st3" width="21.7" height="21.7"/>
				<rect x="3223.9" y="266.8" class="st3" width="21.7" height="21.7"/>
				<rect x="3310.6" y="266.8" class="st3" width="21.7" height="21.7"/>
				<rect x="3332.3" y="266.8" class="st3" width="21.7" height="21.7"/>
				<rect x="3484.1" y="266.8" class="st3" width="21.7" height="21.7"/>
				<rect x="3549.2" y="266.8" class="st3" width="21.7" height="21.7"/>
			</g>
			<g>
				<rect x="2941.9" y="288.5" class="st3" width="21.7" height="21.7"/>
				<rect x="2855.2" y="288.5" class="st3" width="21.7" height="21.7"/>
				<rect x="3007" y="288.5" class="st3" width="21.7" height="21.7"/>
				<rect x="3180.5" y="288.5" class="st3" width="21.7" height="21.7"/>
				<rect x="3245.6" y="288.5" class="st3" width="21.7" height="21.7"/>
				<rect x="3289" y="288.5" class="st3" width="21.7" height="21.7"/>
				<rect x="3354" y="288.5" class="st3" width="21.7" height="21.7"/>
				<rect x="3484.1" y="288.5" class="st3" width="21.7" height="21.7"/>
				<rect x="3505.8" y="288.5" class="st3" width="21.7" height="21.7"/>
				<rect x="3592.6" y="288.5" class="st3" width="21.7" height="21.7"/>
				<rect x="3614.3" y="288.5" class="st3" width="21.7" height="21.7"/>
				<rect x="3636" y="288.5" class="st3" width="21.7" height="21.7"/>
				<rect x="3701" y="288.5" class="st3" width="21.7" height="21.7"/>
				<rect x="3766.1" y="288.5" class="st3" width="21.7" height="21.7"/>
			</g>
			<g>
				<rect x="2941.9" y="310.2" class="st3" width="21.7" height="21.7"/>
				<rect x="2855.2" y="310.2" class="st3" width="21.7" height="21.7"/>
				<rect x="3007" y="310.2" class="st3" width="21.7" height="21.7"/>
				<rect x="3093.8" y="310.2" class="st3" width="21.7" height="21.7"/>
				<rect x="3115.4" y="310.2" class="st3" width="21.7" height="21.7"/>
				<rect x="3137.1" y="310.2" class="st3" width="21.7" height="21.7"/>
				<rect x="3202.2" y="310.2" class="st3" width="21.7" height="21.7"/>
				<rect x="3223.9" y="310.2" class="st3" width="21.7" height="21.7"/>
				<rect x="3289" y="310.2" class="st3" width="21.7" height="21.7"/>
				<rect x="3354" y="310.2" class="st3" width="21.7" height="21.7"/>
				<rect x="3484.1" y="310.2" class="st3" width="21.7" height="21.7"/>
				<rect x="3549.2" y="310.2" class="st3" width="21.7" height="21.7"/>
				<rect x="3592.6" y="310.2" class="st3" width="21.7" height="21.7"/>
				<rect x="3657.7" y="310.2" class="st3" width="21.7" height="21.7"/>
				<rect x="3701" y="310.2" class="st3" width="21.7" height="21.7"/>
				<rect x="3766.1" y="310.2" class="st3" width="21.7" height="21.7"/>
			</g>
			<g>
				<rect x="2941.9" y="331.9" class="st3" width="21.7" height="21.7"/>
				<rect x="2855.2" y="331.9" class="st3" width="21.7" height="21.7"/>
				<rect x="3007" y="331.9" class="st3" width="21.7" height="21.7"/>
				<rect x="3180.5" y="331.9" class="st3" width="21.7" height="21.7"/>
				<rect x="3245.6" y="331.9" class="st3" width="21.7" height="21.7"/>
				<rect x="3289" y="331.9" class="st3" width="21.7" height="21.7"/>
				<rect x="3354" y="331.9" class="st3" width="21.7" height="21.7"/>
				<rect x="3484.1" y="331.9" class="st3" width="21.7" height="21.7"/>
				<rect x="3549.2" y="331.9" class="st3" width="21.7" height="21.7"/>
				<rect x="3592.6" y="331.9" class="st3" width="21.7" height="21.7"/>
				<rect x="3657.7" y="331.9" class="st3" width="21.7" height="21.7"/>
				<rect x="3701" y="331.9" class="st3" width="21.7" height="21.7"/>
				<rect x="3766.1" y="331.9" class="st3" width="21.7" height="21.7"/>
			</g>
			<g>
				<rect x="2941.9" y="353.6" class="st3" width="21.7" height="21.7"/>
				<rect x="2920.3" y="353.6" class="st3" width="21.7" height="21.7"/>
				<rect x="2855.2" y="353.6" class="st3" width="21.7" height="21.7"/>
				<rect x="2963.6" y="353.6" class="st3" width="21.7" height="21.7"/>
				<rect x="3028.7" y="353.6" class="st3" width="21.7" height="21.7"/>
				<rect x="3050.4" y="353.6" class="st3" width="21.7" height="21.7"/>
				<rect x="3202.2" y="353.6" class="st3" width="21.7" height="21.7"/>
				<rect x="3223.9" y="353.6" class="st3" width="21.7" height="21.7"/>
				<rect x="3310.6" y="353.6" class="st3" width="21.7" height="21.7"/>
				<rect x="3332.3" y="353.6" class="st3" width="21.7" height="21.7"/>
				<rect x="3505.8" y="353.6" class="st3" width="21.7" height="21.7"/>
				<rect x="3549.2" y="353.6" class="st3" width="21.7" height="21.7"/>
				<rect x="3592.6" y="353.6" class="st3" width="21.7" height="21.7"/>
				<rect x="3657.7" y="353.6" class="st3" width="21.7" height="21.7"/>
				<rect x="3722.7" y="353.6" class="st3" width="21.7" height="21.7"/>
				<rect x="3744.4" y="353.6" class="st3" width="21.7" height="21.7"/>
				<rect x="3766.1" y="353.6" class="st3" width="21.7" height="21.7"/>
			</g>
			<g>
				<rect x="3766.1" y="375.3" class="st3" width="21.7" height="21.7"/>
			</g>
			<g>
				<rect x="3722.7" y="397" class="st3" width="21.7" height="21.7"/>
				<rect x="3744.4" y="397" class="st3" width="21.7" height="21.7"/>
			</g>
		</g>
	</g>
	<g>
		<g>
			<g>
				<rect x="102.4" y="51.2" class="st3" width="51.2" height="51.2"/>
				<rect x="153.6" y="51.2" class="st3" width="51.2" height="51.2"/>
				<rect x="204.7" y="51.2" class="st3" width="51.2" height="51.2"/>
				<rect x="255.9" y="51.2" class="st3" width="51.2" height="51.2"/>
				<rect x="307.1" y="51.2" class="st3" width="51.2" height="51.2"/>
				<rect x="358.3" y="51.2" class="st3" width="51.2" height="51.2"/>
				<rect x="409.5" y="51.2" class="st3" width="51.2" height="51.2"/>
				<rect x="460.7" y="51.2" class="st3" width="51.2" height="51.2"/>
				<rect x="511.9" y="51.2" class="st3" width="51.2" height="51.2"/>
				<rect x="563.1" y="51.2" class="st3" width="51.2" height="51.2"/>
				<rect x="614.2" y="51.2" class="st3" width="51.2" height="51.2"/>
				<rect x="665.4" y="51.2" class="st3" width="51.2" height="51.2"/>
			</g>
			<g>
				<rect x="51.2" y="102.4" class="st3" width="51.2" height="51.2"/>
				<rect x="102.4" y="102.4" class="st3" width="51.2" height="51.2"/>
				<rect x="153.6" y="102.4" class="st4" width="51.2" height="51.2"/>
				<rect x="204.7" y="102.4" class="st4" width="51.2" height="51.2"/>
				<rect x="255.9" y="102.4" class="st4" width="51.2" height="51.2"/>
				<rect x="307.1" y="102.4" class="st4" width="51.2" height="51.2"/>
				<rect x="358.3" y="102.4" class="st4" width="51.2" height="51.2"/>
				<rect x="409.5" y="102.4" class="st4" width="51.2" height="51.2"/>
				<rect x="460.7" y="102.4" class="st4" width="51.2" height="51.2"/>
				<rect x="511.9" y="102.4" class="st4" width="51.2" height="51.2"/>
				<rect x="563.1" y="102.4" class="st4" width="51.2" height="51.2"/>
				<rect x="614.2" y="102.4" class="st4" width="51.2" height="51.2"/>
				<rect x="665.4" y="102.4" class="st3" width="51.2" height="51.2"/>
				<rect x="716.6" y="102.4" class="st3" width="51.2" height="51.2"/>
			</g>
			<g>
				<rect x="51.2" y="153.6" class="st3" width="51.2" height="51.2"/>
				<rect x="102.4" y="153.6" class="st5" width="51.2" height="51.2"/>
				<rect x="153.6" y="153.6" class="st5" width="51.2" height="51.2"/>
				<rect x="204.7" y="153.6" class="st5" width="51.2" height="51.2"/>
				<rect x="255.9" y="153.6" class="st5" width="51.2" height="51.2"/>
				<rect x="307.1" y="153.6" class="st5" width="51.2" height="51.2"/>
				<rect x="358.3" y="153.6" class="st5" width="51.2" height="51.2"/>
				<rect x="409.5" y="153.6" class="st5" width="51.2" height="51.2"/>
				<rect x="460.7" y="153.6" class="st5" width="51.2" height="51.2"/>
				<rect x="511.9" y="153.6" class="st5" width="51.2" height="51.2"/>
				<rect x="563.1" y="153.6" class="st5" width="51.2" height="51.2"/>
				<rect x="614.2" y="153.6" class="st5" width="51.2" height="51.2"/>
				<rect x="665.4" y="153.6" class="st6" width="51.2" height="51.2"/>
				<rect x="716.6" y="153.6" class="st3" width="51.2" height="51.2"/>
			</g>
			<g>
				<rect x="51.2" y="204.7" class="st3" width="51.2" height="51.2"/>
				<rect x="102.4" y="204.7" class="st5" width="51.2" height="51.2"/>
				<rect x="153.6" y="204.7" class="st4" width="51.2" height="51.2"/>
				<rect x="204.7" y="204.7" class="st4" width="51.2" height="51.2"/>
				<rect x="255.9" y="204.7" class="st4" width="51.2" height="51.2"/>
				<rect x="307.1" y="204.7" class="st4" width="51.2" height="51.2"/>
				<rect x="358.3" y="204.7" class="st4" width="51.2" height="51.2"/>
				<rect x="409.5" y="204.7" class="st4" width="51.2" height="51.2"/>
				<rect x="460.7" y="204.7" class="st4" width="51.2" height="51.2"/>
				<rect x="511.9" y="204.7" class="st4" width="51.2" height="51.2"/>
				<rect x="563.1" y="204.7" class="st4" width="51.2" height="51.2"/>
				<rect x="614.2" y="204.7" class="st5" width="51.2" height="51.2"/>
				<rect x="665.4" y="204.7" class="st6" width="51.2" height="51.2"/>
				<rect x="716.6" y="204.7" class="st3" width="51.2" height="51.2"/>
			</g>
			<g>
				<rect x="51.2" y="255.9" class="st3" width="51.2" height="51.2"/>
				<rect x="102.4" y="255.9" class="st5" width="51.2" height="51.2"/>
				<rect x="153.6" y="255.9" class="st3" width="51.2" height="51.2"/>
				<rect x="204.7" y="255.9" class="st3" width="51.2" height="51.2"/>
				<rect x="255.9" y="255.9" class="st3" width="51.2" height="51.2"/>
				<rect x="307.1" y="255.9" class="st3" width="51.2" height="51.2"/>
				<rect x="358.3" y="255.9" class="st3" width="51.2" height="51.2"/>
				<rect x="409.5" y="255.9" class="st3" width="51.2" height="51.2"/>
				<rect x="460.7" y="255.9" class="st3" width="51.2" height="51.2"/>
				<rect x="511.9" y="255.9" class="st3" width="51.2" height="51.2"/>
				<rect x="563.1" y="255.9" class="st3" width="51.2" height="51.2"/>
				<rect x="614.2" y="255.9" class="st5" width="51.2" height="51.2"/>
				<rect x="665.4" y="255.9" class="st6" width="51.2" height="51.2"/>
				<rect x="716.6" y="255.9" class="st3" width="51.2" height="51.2"/>
				<rect x="767.8" y="255.9" class="st3" width="51.2" height="51.2"/>
				<rect x="819" y="255.9" class="st3" width="51.2" height="51.2"/>
			</g>
			<g>
				<rect x="51.2" y="307.1" class="st3" width="51.2" height="51.2"/>
				<rect x="102.4" y="307.1" class="st5" width="51.2" height="51.2"/>
				<rect x="153.6" y="307.1" class="st3" width="51.2" height="51.2"/>
				<rect x="204.7" y="307.1" class="st3" width="51.2" height="51.2"/>
				<rect x="255.9" y="307.1" class="st6" width="51.2" height="51.2"/>
				<rect x="307.1" y="307.1" class="st3" width="51.2" height="51.2"/>
				<rect x="358.3" y="307.1" class="st3" width="51.2" height="51.2"/>
				<rect x="409.5" y="307.1" class="st3" width="51.2" height="51.2"/>
				<rect x="460.7" y="307.1" class="st6" width="51.2" height="51.2"/>
				<rect x="511.9" y="307.1" class="st3" width="51.2" height="51.2"/>
				<rect x="563.1" y="307.1" class="st3" width="51.2" height="51.2"/>
				<rect x="614.2" y="307.1" class="st5" width="51.2" height="51.2"/>
				<rect x="665.4" y="307.1" class="st6" width="51.2" height="51.2"/>
				<rect x="716.6" y="307.1" class="st3" width="51.2" height="51.2"/>
				<rect x="767.8" y="307.1" class="st6" width="51.2" height="51.2"/>
				<rect x="819" y="307.1" class="st3" width="51.2" height="51.2"/>
			</g>
			<g>
				<rect x="51.2" y="358.3" class="st3" width="51.2" height="51.2"/>
				<rect x="102.4" y="358.3" class="st5" width="51.2" height="51.2"/>
				<rect x="153.6" y="358.3" class="st3" width="51.2" height="51.2"/>
				<rect x="204.7" y="358.3" class="st3" width="51.2" height="51.2"/>
				<rect x="255.9" y="358.3" class="st6" width="51.2" height="51.2"/>
				<rect x="307.1" y="358.3" class="st3" width="51.2" height="51.2"/>
				<rect x="358.3" y="358.3" class="st3" width="51.2" height="51.2"/>
				<rect x="409.5" y="358.3" class="st3" width="51.2" height="51.2"/>
				<rect x="460.7" y="358.3" class="st6" width="51.2" height="51.2"/>
				<rect x="511.9" y="358.3" class="st3" width="51.2" height="51.2"/>
				<rect x="563.1" y="358.3" class="st3" width="51.2" height="51.2"/>
				<rect x="614.2" y="358.3" class="st5" width="51.2" height="51.2"/>
				<rect x="665.4" y="358.3" class="st6" width="51.2" height="51.2"/>
				<rect x="716.6" y="358.3" class="st3" width="51.2" height="51.2"/>
				<rect x="767.8" y="358.3" class="st6" width="51.2" height="51.2"/>
				<rect x="819" y="358.3" class="st3" width="51.2" height="51.2"/>
			</g>
			<g>
				<rect x="51.2" y="409.5" class="st3" width="51.2" height="51.2"/>
				<rect x="102.4" y="409.5" class="st5" width="51.2" height="51.2"/>
				<rect x="153.6" y="409.5" class="st3" width="51.2" height="51.2"/>
				<rect x="204.7" y="409.5" class="st3" width="51.2" height="51.2"/>
				<rect x="255.9" y="409.5" class="st6" width="51.2" height="51.2"/>
				<rect x="307.1" y="409.5" class="st3" width="51.2" height="51.2"/>
				<rect x="358.3" y="409.5" class="st3" width="51.2" height="51.2"/>
				<rect x="409.5" y="409.5" class="st3" width="51.2" height="51.2"/>
				<rect x="460.7" y="409.5" class="st6" width="51.2" height="51.2"/>
				<rect x="511.9" y="409.5" class="st3" width="51.2" height="51.2"/>
				<rect x="563.1" y="409.5" class="st3" width="51.2" height="51.2"/>
				<rect x="614.2" y="409.5" class="st5" width="51.2" height="51.2"/>
				<rect x="665.4" y="409.5" class="st6" width="51.2" height="51.2"/>
				<rect x="716.6" y="409.5" class="st3" width="51.2" height="51.2"/>
				<rect x="767.8" y="409.5" class="st6" width="51.2" height="51.2"/>
				<rect x="819" y="409.5" class="st3" width="51.2" height="51.2"/>
			</g>
			<g>
				<rect x="51.2" y="460.7" class="st3" width="51.2" height="51.2"/>
				<rect x="102.4" y="460.7" class="st5" width="51.2" height="51.2"/>
				<rect x="153.6" y="460.7" class="st3" width="51.2" height="51.2"/>
				<rect x="204.7" y="460.7" class="st3" width="51.2" height="51.2"/>
				<rect x="255.9" y="460.7" class="st3" width="51.2" height="51.2"/>
				<rect x="307.1" y="460.7" class="st3" width="51.2" height="51.2"/>
				<rect x="358.3" y="460.7" class="st3" width="51.2" height="51.2"/>
				<rect x="409.5" y="460.7" class="st3" width="51.2" height="51.2"/>
				<rect x="460.7" y="460.7" class="st3" width="51.2" height="51.2"/>
				<rect x="511.9" y="460.7" class="st3" width="51.2" height="51.2"/>
				<rect x="563.1" y="460.7" class="st3" width="51.2" height="51.2"/>
				<rect x="614.2" y="460.7" class="st5" width="51.2" height="51.2"/>
				<rect x="665.4" y="460.7" class="st6" width="51.2" height="51.2"/>
				<rect x="716.6" y="460.7" class="st6" width="51.2" height="51.2"/>
				<rect x="767.8" y="460.7" class="st3" width="51.2" height="51.2"/>
				<rect x="819" y="460.7" class="st3" width="51.2" height="51.2"/>
			</g>
			<g>
				<rect x="51.2" y="511.9" class="st3" width="51.2" height="51.2"/>
				<rect x="102.4" y="511.9" class="st5" width="51.2" height="51.2"/>
				<rect x="153.6" y="511.9" class="st5" width="51.2" height="51.2"/>
				<rect x="204.7" y="511.9" class="st5" width="51.2" height="51.2"/>
				<rect x="255.9" y="511.9" class="st5" width="51.2" height="51.2"/>
				<rect x="307.1" y="511.9" class="st5" width="51.2" height="51.2"/>
				<rect x="358.3" y="511.9" class="st5" width="51.2" height="51.2"/>
				<rect x="409.5" y="511.9" class="st5" width="51.2" height="51.2"/>
				<rect x="460.7" y="511.9" class="st5" width="51.2" height="51.2"/>
				<rect x="511.9" y="511.9" class="st5" width="51.2" height="51.2"/>
				<rect x="563.1" y="511.9" class="st5" width="51.2" height="51.2"/>
				<rect x="614.2" y="511.9" class="st5" width="51.2" height="51.2"/>
				<rect x="665.4" y="511.9" class="st6" width="51.2" height="51.2"/>
				<rect x="716.6" y="511.9" class="st3" width="51.2" height="51.2"/>
				<rect x="767.8" y="511.9" class="st3" width="51.2" height="51.2"/>
			</g>
			<g>
				<rect x="51.2" y="563.1" class="st3" width="51.2" height="51.2"/>
				<rect x="102.4" y="563.1" class="st5" width="51.2" height="51.2"/>
				<rect x="153.6" y="563.1" class="st5" width="51.2" height="51.2"/>
				<rect x="204.7" y="563.1" class="st5" width="51.2" height="51.2"/>
				<rect x="255.9" y="563.1" class="st3" width="51.2" height="51.2"/>
				<rect x="307.1" y="563.1" class="st5" width="51.2" height="51.2"/>
				<rect x="358.3" y="563.1" class="st5" width="51.2" height="51.2"/>
				<rect x="409.5" y="563.1" class="st5" width="51.2" height="51.2"/>
				<rect x="460.7" y="563.1" class="st3" width="51.2" height="51.2"/>
				<rect x="511.9" y="563.1" class="st5" width="51.2" height="51.2"/>
				<rect x="563.1" y="563.1" class="st5" width="51.2" height="51.2"/>
				<rect x="614.2" y="563.1" class="st5" width="51.2" height="51.2"/>
				<rect x="665.4" y="563.1" class="st6" width="51.2" height="51.2"/>
				<rect x="716.6" y="563.1" class="st3" width="51.2" height="51.2"/>
			</g>
			<g>
				<rect x="51.2" y="614.2" class="st3" width="51.2" height="51.2"/>
				<rect x="102.4" y="614.2" class="st5" width="51.2" height="51.2"/>
				<rect x="153.6" y="614.2" class="st5" width="51.2" height="51.2"/>
				<rect x="204.7" y="614.2" class="st5" width="51.2" height="51.2"/>
				<rect x="255.9" y="614.2" class="st5" width="51.2" height="51.2"/>
				<rect x="307.1" y="614.2" class="st3" width="51.2" height="51.2"/>
				<rect x="358.3" y="614.2" class="st3" width="51.2" height="51.2"/>
				<rect x="409.5" y="614.2" class="st3" width="51.2" height="51.2"/>
				<rect x="460.7" y="614.2" class="st5" width="51.2" height="51.2"/>
				<rect x="511.9" y="614.2" class="st5" width="51.2" height="51.2"/>
				<rect x="563.1" y="614.2" class="st5" width="51.2" height="51.2"/>
				<rect x="614.2" y="614.2" class="st5" width="51.2" height="51.2"/>
				<rect x="665.4" y="614.2" class="st6" width="51.2" height="51.2"/>
				<rect x="716.6" y="614.2" class="st3" width="51.2" height="51.2"/>
			</g>
			<g>
				<rect x="51.2" y="665.4" class="st3" width="51.2" height="51.2"/>
				<rect x="102.4" y="665.4" class="st5" width="51.2" height="51.2"/>
				<rect x="153.6" y="665.4" class="st5" width="51.2" height="51.2"/>
				<rect x="204.7" y="665.4" class="st5" width="51.2" height="51.2"/>
				<rect x="255.9" y="665.4" class="st5" width="51.2" height="51.2"/>
				<rect x="307.1" y="665.4" class="st5" width="51.2" height="51.2"/>
				<rect x="358.3" y="665.4" class="st5" width="51.2" height="51.2"/>
				<rect x="409.5" y="665.4" class="st5" width="51.2" height="51.2"/>
				<rect x="460.7" y="665.4" class="st5" width="51.2" height="51.2"/>
				<rect x="511.9" y="665.4" class="st5" width="51.2" height="51.2"/>
				<rect x="563.1" y="665.4" class="st5" width="51.2" height="51.2"/>
				<rect x="614.2" y="665.4" class="st5" width="51.2" height="51.2"/>
				<rect x="665.4" y="665.4" class="st6" width="51.2" height="51.2"/>
				<rect x="716.6" y="665.4" class="st3" width="51.2" height="51.2"/>
			</g>
			<rect x="51.2" y="716.6" class="st3" width="51.2" height="51.2"/>
			<rect x="102.4" y="716.6" class="st4" width="51.2" height="51.2"/>
			<rect x="153.6" y="716.6" class="st4" width="51.2" height="51.2"/>
			<rect x="204.7" y="716.6" class="st4" width="51.2" height="51.2"/>
			<rect x="255.9" y="716.6" class="st4" width="51.2" height="51.2"/>
			<rect x="307.1" y="716.6" class="st4" width="51.2" height="51.2"/>
			<rect x="358.3" y="716.6" class="st4" width="51.2" height="51.2"/>
			<rect x="409.5" y="716.6" class="st4" width="51.2" height="51.2"/>
			<rect x="460.7" y="716.6" class="st4" width="51.2" height="51.2"/>
			<rect x="511.9" y="716.6" class="st4" width="51.2" height="51.2"/>
			<rect x="563.1" y="716.6" class="st4" width="51.2" height="51.2"/>
			<rect x="614.2" y="716.6" class="st4" width="51.2" height="51.2"/>
			<rect x="665.4" y="716.6" class="st3" width="51.2" height="51.2"/>
			<rect x="716.6" y="716.6" class="st3" width="51.2" height="51.2"/>
			<rect x="767.8" y="716.6" width="51.2" height="51.2"/>
			<rect x="767.8" y="665.4" width="51.2" height="51.2"/>
			<rect x="767.8" y="614.2" width="51.2" height="51.2"/>
			<rect x="767.8" y="563.1" width="51.2" height="51.2"/>
			<rect x="819" y="563.1" width="51.2" height="51.2"/>
			<rect x="819" y="511.9" width="51.2" height="51.2"/>
			<rect x="870.2" y="511.9" width="51.2" height="51.2"/>
			<rect x="870.2" y="460.7" width="51.2" height="51.2"/>
			<rect x="870.2" y="409.5" width="51.2" height="51.2"/>
			<rect x="870.2" y="358.3" width="51.2" height="51.2"/>
			<rect x="870.2" y="307.1" width="51.2" height="51.2"/>
			<rect x="870.2" y="255.9" width="51.2" height="51.2"/>
			<rect x="870.2" y="204.7" width="51.2" height="51.2"/>
			<rect x="819" y="204.7" width="51.2" height="51.2"/>
			<rect x="767.8" y="204.7" width="51.2" height="51.2"/>
			<rect x="767.8" y="153.6" width="51.2" height="51.2"/>
			<rect x="767.8" y="102.4" width="51.2" height="51.2"/>
			<rect x="767.8" y="51.2" width="51.2" height="51.2"/>
			<rect x="716.6" y="51.2" width="51.2" height="51.2"/>
			<rect x="716.6" y="0" width="51.2" height="51.2"/>
			<rect x="665.4" y="0" width="51.2" height="51.2"/>
			<rect x="614.2" y="0" width="51.2" height="51.2"/>
			<rect x="563.1" y="0" width="51.2" height="51.2"/>
			<rect x="511.9" y="0" width="51.2" height="51.2"/>
			<rect x="460.7" y="0" width="51.2" height="51.2"/>
			<rect x="409.5" y="0" width="51.2" height="51.2"/>
			<rect x="358.3" y="0" width="51.2" height="51.2"/>
			<rect x="307.1" y="0" width="51.2" height="51.2"/>
			<rect x="255.9" y="0" width="51.2" height="51.2"/>
			<rect x="204.7" y="0" width="51.2" height="51.2"/>
			<rect x="153.6" y="0" width="51.2" height="51.2"/>
			<rect x="102.4" y="0" width="51.2" height="51.2"/>
			<rect x="51.2" y="0" width="51.2" height="51.2"/>
			<rect x="51.2" y="51.2" width="51.2" height="51.2"/>
			<rect x="0" y="51.2" width="51.2" height="51.2"/>
			<rect x="0" y="102.4" width="51.2" height="51.2"/>
			<rect x="0" y="153.6" width="51.2" height="51.2"/>
			<rect x="0" y="204.7" width="51.2" height="51.2"/>
			<rect x="0" y="255.9" width="51.2" height="51.2"/>
			<rect x="0" y="307.1" width="51.2" height="51.2"/>
			<rect x="0" y="358.3" width="51.2" height="51.2"/>
			<rect x="0" y="409.5" width="51.2" height="51.2"/>
			<rect x="0" y="460.7" width="51.2" height="51.2"/>
			<rect x="0" y="511.9" width="51.2" height="51.2"/>
			<rect x="0" y="563.1" width="51.2" height="51.2"/>
			<rect x="0" y="614.2" width="51.2" height="51.2"/>
			<rect x="0" y="665.4" width="51.2" height="51.2"/>
			<rect x="0" y="716.6" width="51.2" height="51.2"/>
			<rect x="0" y="767.8" width="51.2" height="51.2"/>
			<rect x="0" y="819" width="51.2" height="51.2"/>
			<rect x="51.2" y="819" width="51.2" height="51.2"/>
			<rect x="51.2" y="870.2" width="51.2" height="51.2"/>
			<rect x="102.4" y="870.2" width="51.2" height="51.2"/>
			<rect x="153.6" y="870.2" width="51.2" height="51.2"/>
			<rect x="204.7" y="870.2" width="51.2" height="51.2"/>
			<rect x="255.9" y="870.2" width="51.2" height="51.2"/>
			<rect x="307.1" y="870.2" width="51.2" height="51.2"/>
			<rect x="358.3" y="870.2" width="51.2" height="51.2"/>
			<rect x="358.3" y="819" width="51.2" height="51.2"/>
			<rect x="409.5" y="870.2" width="51.2" height="51.2"/>
			<rect x="460.7" y="870.2" width="51.2" height="51.2"/>
			<rect x="511.9" y="870.2" width="51.2" height="51.2"/>
			<rect x="563.1" y="870.2" width="51.2" height="51.2"/>
			<rect x="614.2" y="870.2" width="51.2" height="51.2"/>
			<rect x="665.4" y="870.2" width="51.2" height="51.2"/>
			<rect x="665.4" y="819" width="51.2" height="51.2"/>
			<rect x="716.6" y="819" width="51.2" height="51.2"/>
			<rect x="716.6" y="767.8" width="51.2" height="51.2"/>
			<rect x="767.8" y="767.8" width="51.2" height="51.2"/>
			<g>
				<rect x="51.2" y="767.8" class="st3" width="51.2" height="51.2"/>
				<rect x="102.4" y="767.8" class="st3" width="51.2" height="51.2"/>
				<rect x="153.6" y="767.8" class="st6" width="51.2" height="51.2"/>
				<rect x="204.7" y="767.8" class="st6" width="51.2" height="51.2"/>
				<rect x="255.9" y="767.8" class="st6" width="51.2" height="51.2"/>
				<rect x="307.1" y="767.8" class="st3" width="51.2" height="51.2"/>
				<rect x="358.3" y="767.8" class="st3" width="51.2" height="51.2"/>
				<rect x="409.5" y="767.8" class="st3" width="51.2" height="51.2"/>
				<rect x="460.7" y="767.8" class="st6" width="51.2" height="51.2"/>
				<rect x="511.9" y="767.8" class="st6" width="51.2" height="51.2"/>
				<rect x="563.1" y="767.8" class="st6" width="51.2" height="51.2"/>
				<rect x="614.2" y="767.8" class="st3" width="51.2" height="51.2"/>
				<rect x="665.4" y="767.8" class="st3" width="51.2" height="51.2"/>
			</g>
			<g>
				<rect x="102.4" y="819" class="st3" width="51.2" height="51.2"/>
				<rect x="153.6" y="819" class="st3" width="51.2" height="51.2"/>
				<rect x="204.7" y="819" class="st3" width="51.2" height="51.2"/>
				<rect x="255.9" y="819" class="st3" width="51.2" height="51.2"/>
				<rect x="307.1" y="819" class="st3" width="51.2" height="51.2"/>
				<rect x="409.5" y="819" class="st3" width="51.2" height="51.2"/>
				<rect x="460.7" y="819" class="st3" width="51.2" height="51.2"/>
				<rect x="511.9" y="819" class="st3" width="51.2" height="51.2"/>
				<rect x="563.1" y="819" class="st3" width="51.2" height="51.2"/>
				<rect x="614.2" y="819" class="st3" width="51.2" height="51.2"/>
			</g>
		</g>
		<g>
			<g>
				<rect x="1279.7" y="153.6" width="51.2" height="51.2"/>
				<rect x="1228.5" y="153.6" width="51.2" height="51.2"/>
				<rect x="1126.1" y="153.6" width="51.2" height="51.2"/>
				<rect x="1074.9" y="153.6" width="51.2" height="51.2"/>
				<rect x="1023.7" y="153.6" width="51.2" height="51.2"/>
				<rect x="1330.9" y="153.6" width="51.2" height="51.2"/>
				<rect x="1484.4" y="153.6" width="51.2" height="51.2"/>
				<rect x="1535.6" y="153.6" width="51.2" height="51.2"/>
				<rect x="1893.9" y="153.6" width="51.2" height="51.2"/>
				<rect x="1945.1" y="153.6" width="51.2" height="51.2"/>
				<rect x="2149.8" y="153.6" width="51.2" height="51.2"/>
				<rect x="2201" y="153.6" width="51.2" height="51.2"/>
				<rect x="1279.7" y="204.7" width="51.2" height="51.2"/>
				<rect x="1074.9" y="204.7" width="51.2" height="51.2"/>
				<rect x="1433.2" y="204.7" width="51.2" height="51.2"/>
				<rect x="1842.7" y="204.7" width="51.2" height="51.2"/>
				<rect x="1996.3" y="204.7" width="51.2" height="51.2"/>
				<rect x="2098.7" y="204.7" width="51.2" height="51.2"/>
				<rect x="2252.2" y="204.7" width="51.2" height="51.2"/>
				<rect x="1279.7" y="255.9" width="51.2" height="51.2"/>
				<rect x="1074.9" y="255.9" width="51.2" height="51.2"/>
				<rect x="1433.2" y="255.9" width="51.2" height="51.2"/>
				<rect x="1638" y="255.9" width="51.2" height="51.2"/>
				<rect x="1689.2" y="255.9" width="51.2" height="51.2"/>
				<rect x="1740.3" y="255.9" width="51.2" height="51.2"/>
				<rect x="1893.9" y="255.9" width="51.2" height="51.2"/>
				<rect x="1945.1" y="255.9" width="51.2" height="51.2"/>
				<rect x="2098.7" y="255.9" width="51.2" height="51.2"/>
				<rect x="2252.2" y="255.9" width="51.2" height="51.2"/>
				<rect x="1279.7" y="307.1" width="51.2" height="51.2"/>
				<rect x="1074.9" y="307.1" width="51.2" height="51.2"/>
				<rect x="1433.2" y="307.1" width="51.2" height="51.2"/>
				<rect x="1842.7" y="307.1" width="51.2" height="51.2"/>
				<rect x="1996.3" y="307.1" width="51.2" height="51.2"/>
				<rect x="2098.7" y="307.1" width="51.2" height="51.2"/>
				<rect x="2252.2" y="307.1" width="51.2" height="51.2"/>
				<rect x="1279.7" y="358.3" width="51.2" height="51.2"/>
				<rect x="1228.5" y="358.3" width="51.2" height="51.2"/>
				<rect x="1074.9" y="358.3" width="51.2" height="51.2"/>
				<rect x="1330.9" y="358.3" width="51.2" height="51.2"/>
				<rect x="1484.4" y="358.3" width="51.2" height="51.2"/>
				<rect x="1535.6" y="358.3" width="51.2" height="51.2"/>
				<rect x="1893.9" y="358.3" width="51.2" height="51.2"/>
				<rect x="1945.1" y="358.3" width="51.2" height="51.2"/>
				<rect x="2149.8" y="358.3" width="51.2" height="51.2"/>
				<rect x="2201" y="358.3" width="51.2" height="51.2"/>
			</g>
			<g>
				<g>
					<rect x="1023.7" y="511.9" width="51.2" height="51.2"/>
					<rect x="1177.3" y="511.9" width="51.2" height="51.2"/>
					<rect x="1023.7" y="563.1" width="51.2" height="51.2"/>
					<rect x="1074.9" y="563.1" width="51.2" height="51.2"/>
					<rect x="1279.7" y="563.1" width="51.2" height="51.2"/>
					<rect x="1330.9" y="563.1" width="51.2" height="51.2"/>
					<rect x="1382" y="563.1" width="51.2" height="51.2"/>
					<rect x="1535.6" y="563.1" width="51.2" height="51.2"/>
					<rect x="1689.2" y="563.1" width="51.2" height="51.2"/>
					<rect x="1023.7" y="614.2" width="51.2" height="51.2"/>
					<rect x="1177.3" y="614.2" width="51.2" height="51.2"/>
					<rect x="1279.7" y="614.2" width="51.2" height="51.2"/>
					<rect x="1433.2" y="614.2" width="51.2" height="51.2"/>
					<rect x="1535.6" y="614.2" width="51.2" height="51.2"/>
					<rect x="1689.2" y="614.2" width="51.2" height="51.2"/>
					<rect x="1023.7" y="665.4" width="51.2" height="51.2"/>
					<rect x="1177.3" y="665.4" width="51.2" height="51.2"/>
					<rect x="1279.7" y="665.4" width="51.2" height="51.2"/>
					<rect x="1433.2" y="665.4" width="51.2" height="51.2"/>
					<rect x="1535.6" y="665.4" width="51.2" height="51.2"/>
					<rect x="1689.2" y="665.4" width="51.2" height="51.2"/>
					<rect x="1074.9" y="716.6" width="51.2" height="51.2"/>
					<rect x="1177.3" y="716.6" width="51.2" height="51.2"/>
					<rect x="1279.7" y="716.6" width="51.2" height="51.2"/>
					<rect x="1433.2" y="716.6" width="51.2" height="51.2"/>
					<rect x="1586.8" y="716.6" width="51.2" height="51.2"/>
					<rect x="1638" y="716.6" width="51.2" height="51.2"/>
					<rect x="1689.2" y="716.6" width="51.2" height="51.2"/>
					<rect x="1689.2" y="767.8" width="51.2" height="51.2"/>
					<rect x="1586.8" y="819" width="51.2" height="51.2"/>
					<rect x="1638" y="819" width="51.2" height="51.2"/>
				</g>
				<g>
					<rect x="3275.9" y="511.9" width="51.2" height="51.2"/>
					<rect x="2047.5" y="563.1" width="51.2" height="51.2"/>
					<rect x="2098.7" y="563.1" width="51.2" height="51.2"/>
					<rect x="2252.2" y="563.1" width="51.2" height="51.2"/>
					<rect x="2303.4" y="563.1" width="51.2" height="51.2"/>
					<rect x="2457" y="563.1" width="51.2" height="51.2"/>
					<rect x="2508.1" y="563.1" width="51.2" height="51.2"/>
					<rect x="2559.3" y="563.1" width="51.2" height="51.2"/>
					<rect x="2610.5" y="563.1" width="51.2" height="51.2"/>
					<rect x="2764.1" y="563.1" width="51.2" height="51.2"/>
					<rect x="2815.3" y="563.1" width="51.2" height="51.2"/>
					<rect x="2866.5" y="563.1" width="51.2" height="51.2"/>
					<rect x="3020" y="563.1" width="51.2" height="51.2"/>
					<rect x="3173.6" y="563.1" width="51.2" height="51.2"/>
					<rect x="3275.9" y="563.1" width="51.2" height="51.2"/>
					<rect x="3327.1" y="563.1" width="51.2" height="51.2"/>
					<rect x="3480.7" y="563.1" width="51.2" height="51.2"/>
					<rect x="3531.9" y="563.1" width="51.2" height="51.2"/>
					<rect x="3685.4" y="563.1" width="51.2" height="51.2"/>
					<rect x="3787.8" y="563.1" width="51.2" height="51.2"/>
					<rect x="1996.3" y="614.2" width="51.2" height="51.2"/>
					<rect x="2201" y="614.2" width="51.2" height="51.2"/>
					<rect x="2354.6" y="614.2" width="51.2" height="51.2"/>
					<rect x="2457" y="614.2" width="51.2" height="51.2"/>
					<rect x="2559.3" y="614.2" width="51.2" height="51.2"/>
					<rect x="2661.7" y="614.2" width="51.2" height="51.2"/>
					<rect x="2764.1" y="614.2" width="51.2" height="51.2"/>
					<rect x="2917.6" y="614.2" width="51.2" height="51.2"/>
					<rect x="3020" y="614.2" width="51.2" height="51.2"/>
					<rect x="3173.6" y="614.2" width="51.2" height="51.2"/>
					<rect x="3275.9" y="614.2" width="51.2" height="51.2"/>
					<rect x="3429.5" y="614.2" width="51.2" height="51.2"/>
					<rect x="3531.9" y="614.2" width="51.2" height="51.2"/>
					<rect x="3583.1" y="614.2" width="51.2" height="51.2"/>
					<rect x="3685.4" y="614.2" width="51.2" height="51.2"/>
					<rect x="3736.6" y="614.2" width="51.2" height="51.2"/>
					<rect x="1996.3" y="665.4" width="51.2" height="51.2"/>
					<rect x="2201" y="665.4" width="51.2" height="51.2"/>
					<rect x="2354.6" y="665.4" width="51.2" height="51.2"/>
					<rect x="2457" y="665.4" width="51.2" height="51.2"/>
					<rect x="2559.3" y="665.4" width="51.2" height="51.2"/>
					<rect x="2661.7" y="665.4" width="51.2" height="51.2"/>
					<rect x="2764.1" y="665.4" width="51.2" height="51.2"/>
					<rect x="2917.6" y="665.4" width="51.2" height="51.2"/>
					<rect x="3020" y="665.4" width="51.2" height="51.2"/>
					<rect x="3173.6" y="665.4" width="51.2" height="51.2"/>
					<rect x="3275.9" y="665.4" width="51.2" height="51.2"/>
					<rect x="3429.5" y="665.4" width="51.2" height="51.2"/>
					<rect x="3480.7" y="665.4" width="51.2" height="51.2"/>
					<rect x="3685.4" y="665.4" width="51.2" height="51.2"/>
					<rect x="2047.5" y="716.6" width="51.2" height="51.2"/>
					<rect x="2098.7" y="716.6" width="51.2" height="51.2"/>
					<rect x="2252.2" y="716.6" width="51.2" height="51.2"/>
					<rect x="2303.4" y="716.6" width="51.2" height="51.2"/>
					<rect x="2457" y="716.6" width="51.2" height="51.2"/>
					<rect x="2559.3" y="716.6" width="51.2" height="51.2"/>
					<rect x="2661.7" y="716.6" width="51.2" height="51.2"/>
					<rect x="2764.1" y="716.6" width="51.2" height="51.2"/>
					<rect x="2815.3" y="716.6" width="51.2" height="51.2"/>
					<rect x="2866.5" y="716.6" width="51.2" height="51.2"/>
					<rect x="3071.2" y="716.6" width="51.2" height="51.2"/>
					<rect x="3122.4" y="716.6" width="51.2" height="51.2"/>
					<rect x="3173.6" y="716.6" width="51.2" height="51.2"/>
					<rect x="3327.1" y="716.6" width="51.2" height="51.2"/>
					<rect x="3480.7" y="716.6" width="51.2" height="51.2"/>
					<rect x="3531.9" y="716.6" width="51.2" height="51.2"/>
					<rect x="3685.4" y="716.6" width="51.2" height="51.2"/>
					<rect x="2764.1" y="767.8" width="51.2" height="51.2"/>
					<rect x="2764.1" y="819" width="51.2" height="51.2"/>
				</g>
			</g>
		</g>
	</g>
</g>
<g id="Layer_2">
</g>
</svg>
