<?xml version="1.0" encoding="utf-8"?>
<!-- Generator: Adobe Illustrator 25.0.0, SVG Export Plug-In . SVG Version: 6.00 Build 0)  -->
<svg version="1.1" id="Layer_1" xmlns="http://www.w3.org/2000/svg" xmlns:xlink="http://www.w3.org/1999/xlink" x="0px" y="0px"
	 viewBox="0 0 3840 490.5" style="enable-background:new 0 0 3840 490.5;" xml:space="preserve">
<style type="text/css">
	.st0{fill:url(#SVGID_1_);}
	.st1{fill:url(#SVGID_2_);}
	.st2{fill:url(#SVGID_3_);}
	.st3{fill:url(#SVGID_4_);}
	.st4{fill:url(#SVGID_5_);}
	.st5{fill:url(#SVGID_6_);}
	.st6{fill:url(#SVGID_7_);}
	.st7{fill:url(#SVGID_8_);}
	.st8{fill:url(#SVGID_9_);}
	.st9{fill:url(#SVGID_10_);}
	.st10{fill:#DD243C;}
	.st11{fill:#1AAA4B;}
	.st12{fill:#1094D2;}
	.st13{fill:url(#SVGID_11_);}
	.st14{fill:url(#SVGID_12_);}
	.st15{fill:url(#SVGID_13_);}
	.st16{fill:url(#SVGID_14_);}
	.st17{fill:url(#SVGID_15_);}
	.st18{fill:url(#SVGID_16_);}
	.st19{fill:url(#SVGID_17_);}
	.st20{fill:url(#SVGID_18_);}
	.st21{fill:url(#SVGID_19_);}
	.st22{fill:url(#SVGID_20_);}
	.st23{fill:url(#SVGID_21_);}
	.st24{fill:url(#SVGID_22_);}
	.st25{fill:url(#SVGID_23_);}
	.st26{fill:url(#SVGID_24_);}
	.st27{fill:url(#SVGID_25_);}
	.st28{fill:url(#SVGID_26_);}
	.st29{fill:url(#SVGID_27_);}
	.st30{fill:url(#SVGID_28_);}
	.st31{fill:url(#SVGID_29_);}
	.st32{fill:url(#SVGID_30_);}
	.st33{fill:url(#SVGID_31_);}
	.st34{fill:url(#SVGID_32_);}
	.st35{fill:url(#SVGID_33_);}
	.st36{fill:url(#SVGID_34_);}
	.st37{fill:url(#SVGID_35_);}
	.st38{fill:url(#SVGID_36_);}
	.st39{fill:url(#SVGID_37_);}
	.st40{fill:url(#SVGID_38_);}
	.st41{fill:url(#SVGID_39_);}
	.st42{fill:url(#SVGID_40_);}
	.st43{fill:#FFFFFF;}
	.st44{fill:url(#SVGID_41_);}
	.st45{fill:url(#SVGID_42_);}
	.st46{fill:url(#SVGID_43_);}
	.st47{fill:url(#SVGID_44_);}
	.st48{fill:url(#SVGID_45_);}
	.st49{fill:url(#SVGID_46_);}
	.st50{fill:url(#SVGID_47_);}
	.st51{fill:url(#SVGID_48_);}
	.st52{fill:url(#SVGID_49_);}
	.st53{fill:url(#SVGID_50_);}
	.st54{fill:url(#SVGID_51_);}
	.st55{fill:url(#SVGID_52_);}
	.st56{fill:url(#SVGID_53_);}
	.st57{fill:url(#SVGID_54_);}
	.st58{fill:url(#SVGID_55_);}
	.st59{fill:url(#SVGID_56_);}
	.st60{fill:url(#SVGID_57_);}
	.st61{fill:url(#SVGID_58_);}
	.st62{fill:url(#SVGID_59_);}
	.st63{fill:url(#SVGID_60_);}
	.st64{fill:url(#SVGID_61_);}
	.st65{fill:url(#SVGID_62_);}
	.st66{fill:url(#SVGID_63_);}
	.st67{fill:url(#SVGID_64_);}
	.st68{fill:url(#SVGID_65_);}
	.st69{fill:url(#SVGID_66_);}
	.st70{fill:url(#SVGID_67_);}
	.st71{fill:url(#SVGID_68_);}
	.st72{fill:url(#SVGID_69_);}
	.st73{fill:url(#SVGID_70_);}
	.st74{fill:url(#SVGID_71_);}
	.st75{fill:url(#SVGID_72_);}
	.st76{fill:url(#SVGID_73_);}
	.st77{fill:url(#SVGID_74_);}
	.st78{fill:url(#SVGID_75_);}
	.st79{fill:url(#SVGID_76_);}
	.st80{fill:url(#SVGID_77_);}
	.st81{fill:url(#SVGID_78_);}
	.st82{fill:url(#SVGID_79_);}
	.st83{fill:url(#SVGID_80_);}
	.st84{fill:url(#SVGID_81_);}
	.st85{fill:url(#SVGID_82_);}
	.st86{fill:url(#SVGID_83_);}
	.st87{fill:url(#SVGID_84_);}
	.st88{fill:url(#SVGID_85_);}
	.st89{fill:url(#SVGID_86_);}
	.st90{fill:url(#SVGID_87_);}
	.st91{fill:url(#SVGID_88_);}
	.st92{fill:url(#SVGID_89_);}
	.st93{fill:url(#SVGID_90_);}
	.st94{fill:url(#SVGID_91_);}
	.st95{fill:url(#SVGID_92_);}
	.st96{fill:url(#SVGID_93_);}
	.st97{fill:url(#SVGID_94_);}
	.st98{fill:url(#SVGID_95_);}
	.st99{fill:url(#SVGID_96_);}
	.st100{fill:url(#SVGID_97_);}
	.st101{fill:url(#SVGID_98_);}
	.st102{fill:url(#SVGID_99_);}
	.st103{fill:url(#SVGID_100_);}
	.st104{fill:url(#SVGID_101_);}
	.st105{fill:url(#SVGID_102_);}
	.st106{fill:url(#SVGID_103_);}
	.st107{fill:url(#SVGID_104_);}
	.st108{fill:url(#SVGID_105_);}
	.st109{fill:url(#SVGID_106_);}
	.st110{fill:url(#SVGID_107_);}
	.st111{fill:url(#SVGID_108_);}
	.st112{fill:url(#SVGID_109_);}
	.st113{fill:url(#SVGID_110_);}
	.st114{fill:url(#SVGID_111_);}
	.st115{fill:url(#SVGID_112_);}
	.st116{fill:url(#SVGID_113_);}
	.st117{fill:url(#SVGID_114_);}
	.st118{fill:url(#SVGID_115_);}
	.st119{fill:url(#SVGID_116_);}
	.st120{fill:url(#SVGID_117_);}
	.st121{fill:url(#SVGID_118_);}
	.st122{fill:url(#SVGID_119_);}
	.st123{fill:url(#SVGID_120_);}
</style>
<g>
	<g>
		<path d="M2626.2,49.1v135.4h-58V49.1h-80.9V2.7h219.9v46.3H2626.2z"/>
		<path d="M2955.4,99.5c-6,10.4-16.6,12.8-27.8,14.7c27.5,1.9,31.9,15.3,31.9,40.6v29.7H2905c0-10.9,0.5-22.3-1.6-33
			c-2.5-12-10.9-13.1-21.8-13.1h-91v46h-55.3V2.7H2869c9.8,0,19.9,0.3,29.7,0.3c20.7,0.3,43.9-1.9,56.1,18.5
			c7.1,11.7,6.5,28.1,6.5,41.1C2961.4,74.7,2961.6,88.8,2955.4,99.5z M2883.2,48.2h-92.6v44.7h77.9c4.1,0,8.2-0.3,12.3-0.3
			c19.9-0.5,25.3-1.1,25.3-22.9C2906.1,51.2,2901.4,48.2,2883.2,48.2z"/>
		<path d="M3198.5,172.8c-13.1,14.2-41.7,13.6-59.4,13.9c-14.2,0.5-28.3,0.5-42.5,0.5c-23.7,0-52.3,0.8-75.5-4.4
			c-8.7-1.9-16.3-5.4-22.6-11.7c-9.3-9-10.4-20.7-10.4-33c0-4.6,0.3-9.3,0.5-13.9h53.4c0,4.1,0,7.9,1.4,11.7
			c0.8,2.5,1.9,4.1,4.1,5.7c5.2,4.1,20.7,3.5,26.7,3.5c7.9,0,15.5,0.3,23.4,0.3c9.8,0,19.3-0.3,29.2-0.3c6.8,0,24,0.8,28.6-5.7
			c1.9-3,1.9-7.1,1.9-10.4c0-13.9-10.9-13.4-22.1-13.6c-29.2-0.8-58.3-2.5-87.5-3.5c-15.8-0.5-36-1.1-47.4-13.9
			c-9.5-10.6-10.4-25.9-10.4-39.5c0-32.4,8.4-52.9,43.3-56.4c23.4-2.5,47.7-2.2,71.4-2.2c22.9,0,47.1-0.5,69.5,4.9
			c24.8,6.3,30,22.6,30,46.3V60h-53.7v-2.7c0-5.2-0.5-9-5.2-12c-5.2-3.5-17.4-3.3-23.4-3.3h-47.1c-5.7,0-21.8-0.3-26.7,3.3
			c-3.5,2.5-4.4,6.8-4.4,10.9c0,3.3,0.8,7.6,3.5,9.8c1.9,1.6,4.6,2.2,7.1,2.5c6.3,1.1,12.8,1.1,19.1,1.4c12.3,0.5,24.5,1.1,36.8,1.4
			c21,0.5,51,0.3,71.4,5.7c6.5,1.9,12.3,4.6,17.4,9.3c11.2,9.8,11.7,28.6,11.7,42.2C3210.7,143.6,3209.4,161.1,3198.5,172.8z"/>
		<path d="M3564.5,175.5c-18,13.1-61.3,11.2-82.8,11.2h-24.8c-22.3,0-59.1,1.6-78.2-11.2c-12.8-8.7-13.9-26.2-13.9-40.3
			c0-12,1.1-24.8,9.8-33.8c6.5-6.8,16.6-8.2,25.6-9.8c-4.1-0.3-8.4-0.5-12.5-1.6c-18.3-4.9-20.7-22.9-20.7-39.2
			c0-26.4,7.9-42,35.4-46.3c22.6-3.5,46.3-3.8,69.2-3.8c12.5,0,25.1,0.3,37.6,0.8c16.1,0.8,39,1.4,52.6,10.6
			c12.5,8.4,14.4,25.6,14.4,39.5c0,10.6-1.4,22.9-8.4,31.1c-6.5,7.6-15.3,8.4-24.8,9c9.8,1.6,18.3,2.7,25.6,9.8
			c9.5,9,9.8,24.8,9.8,37.1C3578.4,152.1,3576.5,167,3564.5,175.5z M3522.3,116.4c-4.1-4.1-19.1-3.8-24.3-3.8
			c-9.8-0.3-19.6-0.5-29.4-0.5c-9,0-40.9-0.8-46.9,3.5c-4.1,3-4.1,9.8-4.1,14.4c0,4.1,0.3,8.7,3.5,11.7c6.3,5.5,39.8,4.1,47.7,4.1
			c9.5,0,19.1-0.3,28.6-0.5c6.8,0,23.2,0.8,26.7-7.1c1.4-3,1.4-7.1,1.4-10.4C3525.5,124,3525.3,119.1,3522.3,116.4z M3498,42
			c-10.9-0.3-21.5-0.5-32.4-0.5c-11.2,0-22.9-0.3-34.1,1.4c-9.3,1.4-11.7,6.3-11.7,15.3c0,9.5,3.3,12.8,12.5,13.9
			c19.3,1.9,40.1,1.1,59.4,1.1c6.3,0,24.5,0,28.9-4.4c2.7-2.7,2.7-7.9,2.7-11.4C3523.3,41.4,3510.5,42.2,3498,42z"/>
		<path d="M3799.4,183.4c-21.8,3.5-51.2,3.3-73.3,3.3c-13.6,0-27-0.3-40.6-0.5c-30-0.5-64.8-1.6-71.4-37.9
			c-3-16.9-2.2-37.3-2.2-54.5c0-10.9,0-21.5,0.3-32.4c0.3-15.3,1.4-32.7,12.5-44.4c7.4-7.6,17.7-11.4,28.1-13.1
			c21.8-3.5,51-3.3,73.3-3.3c13.4,0,27,0.5,40.3,0.8c46.6,1.1,73.6,6,73.6,59.9v64.8C3840,156.4,3832.4,177.9,3799.4,183.4z
			 M3773,51.2c-6.3-2.7-15.5-3-22.3-3c-10.9,0-21.8-0.3-33-0.3c-11.2,0-23.4-0.3-34.3,2.2c-3.3,0.8-6.5,1.9-9,4.6
			c-7.4,7.6-6.8,29.2-6.8,39c0,9-0.5,30.2,5.7,37.6c2.7,3.3,6,4.6,10.1,5.7c11.7,2.7,31.1,2.7,43.3,2.5l24-0.5
			c6.8-0.3,16.1-0.3,22.3-3.3c13.6-6,11.7-30,11.7-42C3784.7,81.8,3786.6,57.5,3773,51.2z"/>
		<rect x="3249.1" y="95.8" width="72.3" height="48.2"/>
	</g>
	<g>
		<path class="st11" d="M3313,490.5h-298.7c-29.3,0-53-23.7-53-53V337c0-29.3,23.7-53,53-53H3313c29.3,0,53,23.7,53,53v100.5
			C3366,466.8,3342.2,490.5,3313,490.5z"/>
		<g>
			<path class="st10" d="M2838.9,490.5h-298.7c-29.3,0-53-23.7-53-53V337c0-29.3,23.7-53,53-53h298.7c29.3,0,53,23.7,53,53v100.5
				C2891.9,466.8,2868.2,490.5,2838.9,490.5z"/>
			<path class="st12" d="M3787,490.5h-298.7c-29.3,0-53-23.7-53-53V337c0-29.3,23.7-53,53-53H3787c29.3,0,53,23.7,53,53v100.5
				C3840,466.8,3816.3,490.5,3787,490.5z"/>
		</g>
	</g>
	<g>
		<path d="M2364.9,490.5H53c-29.3,0-53-23.7-53-53V53C0,23.7,23.7,0,53,0h2311.9c29.3,0,53,23.7,53,53v384.6
			C2417.9,466.8,2394.2,490.5,2364.9,490.5z"/>
		<g>
			<rect x="795.8" y="162.2" class="st43" width="88.6" height="222.3"/>
			<path class="st43" d="M1264,194.4v71.2c0,16.7-13.6,30.3-30.3,30.3h-24.5v88.6h46.3c53.6,0,97.1-43.5,97.1-97.1v-71.2
				c0-16.7,13.6-30.3,30.3-30.3h24.5V97.3H1361C1307.4,97.3,1264,140.8,1264,194.4z"/>
			<path class="st43" d="M1503.9,162.2V97.3h-88.6v287.2h88.6V244.3c0-6.6,5.3-11.9,11.9-11.9h0c6.6,0,11.9,5.3,11.9,11.9v140.2
				h88.6V225.6c0-35-28.4-63.5-63.5-63.5H1503.9z"/>
			<path class="st43" d="M2305.6,384.5l-48.9-128.3l43.2-66h-93.5l-39.5,60.3l0,0V97.3h-70.2v287.2h70.2v-60.4
				c0-11.2,15.5-14.1,19.5-3.6l24.4,64H2305.6z"/>
			<path class="st43" d="M691.2,97.3v64.8H658c-61.4,0-111.2,49.8-111.2,111.2S596.6,384.5,658,384.5h33.2h33.1h47.8V97.3H691.2z
				 M659.5,341.5c-19.6,0-35.5-15.9-35.5-35.5c0-19.6,15.9-35.5,35.5-35.5c19.6,0,35.5,15.9,35.5,35.5
				C694.9,325.6,679,341.5,659.5,341.5z"/>
			<path class="st43" d="M470.7,162.2H353.5v70.2H424c5.1,0,9.2,4.1,9.2,9.2v0c0,5.1-4.1,9.2-9.2,9.2h-26.3
				c-36.4,0-67.2,28.6-68.2,65c-1,37.8,29.3,68.7,66.8,68.7h36.9h12.4h64.8h11.4h12.4V225.6C534.1,190.6,505.7,162.2,470.7,162.2z
				 M423,341.5c-19.6,0-35.5-15.9-35.5-35.5c0-19.6,15.9-35.5,35.5-35.5c19.6,0,35.5,15.9,35.5,35.5
				C458.4,325.6,442.6,341.5,423,341.5z"/>
			<path class="st43" d="M1770.3,162.2h-117.2v70.2h70.5c5.1,0,9.2,4.1,9.2,9.2v0c0,5.1-4.1,9.2-9.2,9.2h-26.3
				c-36.4,0-67.2,28.6-68.2,65c-1,37.8,29.3,68.7,66.8,68.7h36.9h12.4h64.8h11.4h12.4V225.6C1833.7,190.6,1805.3,162.2,1770.3,162.2
				z M1722.6,341.5c-19.6,0-35.5-15.9-35.5-35.5c0-19.6,15.9-35.5,35.5-35.5c19.6,0,35.5,15.9,35.5,35.5
				C1758,325.6,1742.1,341.5,1722.6,341.5z"/>
			<path class="st43" d="M279,262.6c32.9-11.7,56.5-43.2,56.5-80.2c0-47-38.1-85.1-85.1-85.1c-1.7,0-130.5,0-130.5,0v287.2h80.8
				v-55.4c0-10.2,13.9-13.3,18.2-4.1l27.9,59.4h89.3L279,262.6z M214.6,283.6c-19.6,0-35.5-15.9-35.5-35.5s15.9-35.5,35.5-35.5
				c19.6,0,35.5,15.9,35.5,35.5S234.1,283.6,214.6,283.6z"/>
			<path class="st43" d="M1018.1,153.5c-66.2,0-119.8,53.7-119.8,119.8s53.7,119.8,119.8,119.8c66.2,0,119.8-53.7,119.8-119.8
				S1084.3,153.5,1018.1,153.5z M1018.1,341.5c-19.6,0-35.5-15.9-35.5-35.5c0-19.6,15.9-35.5,35.5-35.5c19.6,0,35.5,15.9,35.5,35.5
				C1053.6,325.6,1037.7,341.5,1018.1,341.5z"/>
			<path class="st43" d="M1999.5,318.7c-5.1,13.3-18,22.7-33.1,22.7c-19.6,0-35.5-15.9-35.5-35.5c0-19.6,15.9-35.5,35.5-35.5
				c15.1,0,27.9,9.4,33.1,22.7h85.1c1.1-6.5,1.7-13.1,1.7-19.9c0-66.2-53.7-119.8-119.8-119.8c-66.2,0-119.8,53.7-119.8,119.8
				s53.7,119.8,119.8,119.8c50.1,0,93-30.8,110.9-74.4H1999.5z"/>
		</g>
	</g>
</g>
</svg>
