<?xml version="1.0" encoding="utf-8"?>
<!-- Generator: Adobe Illustrator 25.0.0, SVG Export Plug-In . SVG Version: 6.00 Build 0)  -->
<svg version="1.1" id="Layer_1" xmlns="http://www.w3.org/2000/svg" xmlns:xlink="http://www.w3.org/1999/xlink" x="0px" y="0px"
	 viewBox="0 0 3839 843.3" style="enable-background:new 0 0 3839 843.3;" xml:space="preserve">
<style type="text/css">
	.st0{fill:#333333;}
	.st1{fill:#FCFCFC;}
	.st2{fill:#0B61A8;}
</style>
<g>
	<path class="st0" d="M1876.3,843.3c-24.5,0-49.2-2.2-71.4-6.4c-25-4.5-47.6-11.9-67.4-22.1l-80.4-38l115.4-203.7l44.9,15.6
		l-25.6-73.4l204.3-361.4h488.7l-292.4,515.1c-34,57.9-79.3,102.1-134.8,131.3C2005.1,828.8,1944.1,843.3,1876.3,843.3z"/>
	<path class="st0" d="M1941.5,839.4l388.3-685.5h184.9c12.8-2.6,25.6-4.4,38.1-5.2c7-0.5,14.3-0.7,21.6-0.7
		c29.2,0,100.5,7,130.2,71.9l0.9,1.9l0.8,2c10.5,26.9,17.3,71.6-9.2,132.5c-5.6,14.2-13.6,31.3-24.3,52.2l-0.5,0.9
		c-2.5,4.6-4.9,9.3-7.4,14c-8,15.2-16.3,30.9-25.7,47.2L2605,529c-12.5,20.6-24.5,39.2-36.7,57c-29.1,43.4-66.1,78.9-110.2,105.3
		c-51.8,31.1-102.3,38.7-135.8,41.7c-4,0.4-8.1,0.6-12.1,0.8c-17.6,31.1-59.9,105.7-59.9,105.7H1941.5z"/>
	<polygon class="st0" points="174,733.3 665.6,27.3 1022.5,27.3 725.4,733.3 	"/>
	<polygon class="st0" points="564.8,733.3 964.8,27.3 1279.7,27.3 879.8,733.3 	"/>
	<polygon class="st0" points="0,733.4 252,288.5 168.7,288.5 316.5,27.2 829.7,27.2 647.8,288.5 566,288.5 314,733.4 	"/>
	<polygon class="st0" points="1508.7,733.4 1760.7,288.5 1677.3,288.5 1825.2,27.2 2306.4,27.2 2158.4,288.5 2074.7,288.5 
		1822.6,733.4 	"/>
	<path class="st0" d="M1326.6,744.7c-43.1,0-78.2-7.8-107.2-23.9l-0.4-0.2c-38.4-21.6-62.9-56.4-69-98
		c-5.4-35.9,0.6-71.7,17.9-106.7c10.4-23,29-58.3,65.8-124.5l53.9-96.2c29.1-51,55.5-94.5,74.7-122.7c18.6-29.4,44.1-56.9,75.7-81.7
		c29.9-23.4,64-42.2,101.5-55.9c37-13.3,75.7-19.9,115.2-19.9c42.9,0,79.1,8.1,107.6,24.1l0.4,0.2c36.4,20.8,60,54.5,66.8,95
		c6.9,33.7,1.8,69-15.4,107.7c-11.4,25.9-33.8,67.6-68.3,127.1l-53.4,95.1c-36.8,65-58.2,101-74.1,124.4l-0.3,0.4
		c-20.3,29.5-46,56.4-76.1,80c-29.2,23-62.6,41.7-99.2,55.6l-1.6,0.6C1404.1,738.1,1365.6,744.7,1326.6,744.7z"/>
	<polygon class="st0" points="808.3,733.4 1060.4,288.5 977,288.5 1124.8,27.2 1606.1,27.2 1458.1,288.5 1374.3,288.5 1122.3,733.4 
			"/>
	<polygon class="st0" points="2579.6,732.9 3092.2,298.7 3444.9,0 3839,0 2973.6,732.9 	"/>
	<polygon class="st0" points="3086.4,732.9 3060,0 3366.6,0 3393,732.9 	"/>
	<path class="st0" d="M2618.1,736.9c-40.9,0-75-9.5-101.6-28.2c-31.4-22.1-50.5-55.4-55-96.1c-6.4-54.4,14.1-122.2,62.7-207.5
		c46.8-81.4,96-141.3,150.4-183.3c60.4-48.4,129.4-74,199.6-74c126.3,0,148.2,85,152,111.8c6.9,48.3-9.6,105.6-52.1,180.2
		l-54.5,97.9h-9.7l-26.4,44.7c-29.5,50.4-67.1,89.4-111.7,115.7l-1.1,0.6C2726.2,724.1,2674.9,736.9,2618.1,736.9z"/>
	<path class="st1" d="M2219,228.5l-167.8,295.8c-6.6,11.6-15.4,21.8-25.9,29.8l0,0c-4.4-13.4-10.2-31.4-13.1-36.7l165-289h-137.4
		l-166.2,294.1l40.4,115.9h78.1c-10,15.4-20.2,26.6-31.8,34.1c-13,8.3-28.9,12.7-49.1,12.7c-13,0-26.3-1.2-37.6-2.9
		c-13-1.9-27.5-5-40.5-9.2l-26.1-9.1l-45,79.5l8.9,4.2c13.1,6.9,29.1,12.2,47.7,15.5c18.9,3.6,39.1,5.2,57.9,5.2
		c54.9,0,104.2-11.4,146-34.3c44.9-23.6,79.4-58.5,105.6-103.3l228.5-402.5H2219"/>
	<path class="st1" d="M2636.6,251.1c-8.6-18.9-30.4-28.3-62.3-28.3c-5.6,0-11.2,0.2-16.6,0.5c-17.2,1.1-34.2,4.6-50.8,9.6l-22.2,6.8
		l6.3-11.1h-117.7l-303.6,536h137c0,0,62-109.4,62.5-110.3c13,4.9,32.3,5.4,46.4,4.1c34.5-3.1,69.3-10.5,104.1-31.4
		c34.6-20.7,63.7-48.5,86.7-83c13.1-19.1,24.6-37.2,34.7-53.9l33.2-56.7c11.6-20.1,21.7-40,31.9-59.1c10.2-19.7,17.2-35,21.7-46.6
		C2642.4,295.2,2643.8,269.5,2636.6,251.1z M2461.6,380l-28.9,54.7l-39.1,66l-26.2,42.7c-1.5,2.5-4.9,7.8-8.4,13.2
		c-6.1,9.6-16.7,15.3-28,15.3h-15.1L2458.6,320h14.1c8,0,13.4,8.2,10.1,15.5C2476.6,349.5,2467.4,369.6,2461.6,380z"/>
	<path class="st1" d="M909.9,102L675.8,658.6H531.2l49.1-100.4h-52.1l-65.1,100.4h-146L704.6,102H909.9 M632.3,459.7
		c28.9-63,65.1-141.1,111.4-234c-75.3,106.7-128.7,184.8-160.6,234H632.3z"/>
	<polygon class="st1" points="1151.5,102 836.2,658.6 693.1,658.6 1008.3,102 	"/>
	<polygon class="st1" points="686.6,101.9 608.8,213.7 522.5,213.7 270.4,658.7 128.2,658.7 380.3,213.7 296.8,213.7 360.1,101.9 	
		"/>
	<polygon class="st1" points="2178.2,101.9 2114.9,213.7 2031.1,213.7 1779.1,658.7 1636.9,658.7 1889,213.7 1805.5,213.7 
		1868.8,101.9 	"/>
	<path class="st1" d="M1756,147.9c-2.8-19.3-13-33.8-30.4-43.7c-17.4-9.8-41.9-14.5-70.9-14.5c-30.4,0-60.7,5-89.7,15.4
		c-28.8,10.5-56.3,25.2-80.9,44.4c-24.6,19.3-44.8,40.6-59.3,63.9c-16,23.3-40.5,62.9-72.3,118.7l-53.5,95.5
		c-31.8,57.2-53.4,97.4-63.6,120.3c-11.6,22.9-14.5,44.3-11.6,63.7c2.8,19.6,14.4,34.1,31.8,43.9c17.4,9.6,40.5,14.5,70.9,14.5
		c30.4,0,60.7-5.2,89.7-15.4c27.4-10.3,54.9-25,79.5-44.4c24.6-19.1,44.8-40.4,60.7-63.6c16-23.5,39.1-63,70.7-119l53.7-95.5
		c33.2-57.1,54.8-97.3,65-120.4C1756,188.8,1760.4,167.5,1756,147.9z M1613.4,202.3L1410,560.1c-8,14.1-25.8,18.9-39.6,10.7
		c-4.5-2.6-6-8.5-3.4-13.1l203.5-357.8c8-14.1,25.8-18.9,39.6-10.7C1614.5,191.8,1616,197.7,1613.4,202.3z"/>
	<polygon class="st1" points="1477.8,101.9 1414.5,213.7 1330.8,213.7 1078.7,658.7 936.6,658.7 1188.6,213.7 1105.2,213.7 
		1168.4,101.9 	"/>
	<polygon class="st2" points="3472.3,74.7 3140.5,355.8 2783.5,658.2 2946.2,658.2 3142.3,492.1 3297.9,360.4 3635.1,74.7 	"/>
	<polygon class="st2" points="3315.5,658.2 3294.5,74.7 3137.5,74.7 3158.5,658.2 	"/>
	<path class="st1" d="M2952.1,270.2c-4.3-31.4-30.2-47.5-78-47.5c-53.5,0-105.6,19.6-153.4,58c-47.7,36.7-91.1,91.1-131.6,161.6
		c-40.4,70.9-57.7,125.3-53.4,162c4.2,38.6,31.8,58,82.3,58c43.4,0,82.5-9.5,115.6-28.3c33.3-19.7,62.1-49.8,85.3-89.3
		c0,0,5.9-10,7.9-13.3c0.8-1.4,3.2-5.4,3.2-5.4H2724l-2.7,4.7l-11,19.1c-4.9,9.1-9.6,12.9-10.9,14.3c-1.8,1.9-4,3.3-6.5,4l-1.8,0.5
		c-5.5,1.6-11.5-0.5-14.9-5.2c-2.9-4-3.6-9.2-1.7-13.8c5.2-12.9,17.3-38.1,45-86.3h156.2l33.3-59.9
		C2942.1,345,2956.5,300.3,2952.1,270.2z M2828.6,331.4c-3.7,8.6-10.2,22.3-22.6,44.5h-37.6c14.3-23.7,22.2-35.7,27-42.5l0,0
		C2813.3,307,2835.8,313.6,2828.6,331.4z"/>
</g>
</svg>
