<?xml version="1.0" encoding="UTF-8" standalone="no"?>
<!-- Generator: Adobe Illustrator 25.0.0, SVG Export Plug-In . SVG Version: 6.00 Build 0)  -->

<svg
   version="1.1"
   id="Layer_1"
   x="0px"
   y="0px"
   viewBox="0 0 3840 1138"
   style="enable-background:new 0 0 3840 1138;"
   xml:space="preserve"
   sodipodi:docname="x68000.svg"
   inkscape:version="1.2.2 (732a01da63, 2022-12-09)"
   xmlns:inkscape="http://www.inkscape.org/namespaces/inkscape"
   xmlns:sodipodi="http://sodipodi.sourceforge.net/DTD/sodipodi-0.dtd"
   xmlns="http://www.w3.org/2000/svg"
   xmlns:svg="http://www.w3.org/2000/svg"><defs
   id="defs32" /><sodipodi:namedview
   id="namedview30"
   pagecolor="#ffffff"
   bordercolor="#111111"
   borderopacity="1"
   inkscape:showpageshadow="0"
   inkscape:pageopacity="0"
   inkscape:pagecheckerboard="1"
   inkscape:deskcolor="#d1d1d1"
   showgrid="false"
   inkscape:zoom="0.31979167"
   inkscape:cx="1672.9642"
   inkscape:cy="569.12052"
   inkscape:window-width="1920"
   inkscape:window-height="1009"
   inkscape:window-x="-8"
   inkscape:window-y="-8"
   inkscape:window-maximized="1"
   inkscape:current-layer="g27" />
<style
   type="text/css"
   id="style2">
	.st0{fill:#0097D7;}
	.st1{fill:url(#SVGID_1_);}
	.st2{fill:url(#SVGID_2_);}
	.st3{fill:#F261C7;}
	.st4{fill:#FFFFFF;}
	.st5{fill:url(#SVGID_3_);}
	.st6{fill:url(#SVGID_4_);}
</style>
<g
   id="g27">
	<g
   id="g13">
		<g
   id="g11">
			<linearGradient
   id="SVGID_1_"
   gradientUnits="userSpaceOnUse"
   x1="1919.9999"
   y1="1138.0083"
   x2="1919.9999"
   y2="487.6524">
				<stop
   offset="0"
   style="stop-color:#A47516"
   id="stop4" />
				<stop
   offset="1"
   style="stop-color:#F2C270"
   id="stop6" />
			</linearGradient>
			<path
   class="st1"
   d="M2683.7,525.8H2434c-62.5,0-122.2,50.7-133.2,113.2l-61.5,347.5c-11.1,62.6,30.7,113.3,93.3,113.3h250.2     c62.6,0,122.3-50.8,133.3-113.4l61-347.5C2788,576.5,2746.2,525.8,2683.7,525.8z M2689.4,670.3l-50.2,284.6     c-6,34.3-38.8,62.1-73.1,62.1h-187.3c-34.3,0-57.2-27.8-51.2-62.1l50.2-284.6c6-34.3,38.8-62.1,73.1-62.1h187.3     C2672.6,608.1,2695.5,636,2689.4,670.3z M3214.3,525.8h-249.7c-62.5,0-122.2,50.7-133.2,113.2l-61.5,347.5     c-11.1,62.6,30.7,113.3,93.3,113.3h250.2c62.6,0,122.3-50.8,133.3-113.4l61-347.5C3318.6,576.5,3276.8,525.8,3214.3,525.8z      M3220.1,670.3l-50.2,284.6c-6,34.3-38.8,62.1-73.1,62.1h-187.3c-34.3,0-57.2-27.8-51.2-62.1l50.2-284.6     c6-34.3,38.8-62.1,73.1-62.1h187.3C3203.2,608.1,3226.1,636,3220.1,670.3z M3744.9,525.8h-249.7c-62.5,0-122.2,50.7-133.2,113.2     l-61.5,347.5c-11.1,62.6,30.7,113.3,93.3,113.3H3644c62.6,0,122.3-50.8,133.3-113.4l61-347.5     C3849.2,576.5,3807.5,525.8,3744.9,525.8z M3750.7,670.3l-50.2,284.6c-6,34.3-38.8,62.1-73.1,62.1h-187.3     c-34.3,0-57.2-27.8-51.2-62.1l50.2-284.6c6-34.3,38.8-62.1,73.1-62.1h187.3C3733.8,608.1,3756.7,636,3750.7,670.3z M2246.4,638.5     c11-62.5-30.8-113.2-93.3-113.2h-249.7c-62.5,0-122.2,50.7-133.2,113.2L1752,740.4c-4.9,27.6,1,52.6,13.9,72.3     c-19.7,19.6-34.3,44.5-39.2,71.9l-18.2,101.9c-11.1,62.6,30.7,113.4,93.3,113.4H2052c62.6,0,122.3-50.8,133.3-113.4l17.7-101.9     c4.8-27.4-1-52.3-13.8-71.8c19.9-19.7,34.6-44.7,39.5-72.3L2246.4,638.5z M2115.5,915.9l-6.9,39c-6,34.3-38.8,62.1-73.1,62.1     h-187.3c-34.3,0-57.2-27.8-51.2-62.1l6.9-39c6-34.3,38.8-62.1,73.1-62.1h187.3C2098.6,853.7,2121.5,881.6,2115.5,915.9z      M2158.9,669.7l-6.9,39c-6,34.3-38.8,62.1-73.1,62.1h-187.3c-34.3,0-57.2-27.8-51.2-62.1l6.9-39c6-34.3,38.8-62.1,73.1-62.1     h187.3C2142,607.6,2164.9,635.4,2158.9,669.7z M1619.8,718.6h82.1l14-79.6c11-62.5-30.8-113.2-93.3-113.2h-249.7     c-62.5,0-122.2,50.7-133.2,113.2l-43.3,244.5c-0.1,0.4-0.2,0.7-0.3,1.1l-18.2,101.9c-11.1,62.6,30.7,113.4,93.3,113.4h250.2     c62.6,0,122.3-50.8,133.3-113.4l17.7-101.9c11-62.5-30.8-113.2-93.3-113.2h-249.7c-10.6,0-21,1.9-31.2,4.7l18.7-105.8     c6.1-34.3,38.8-62.1,73.1-62.1h187.3c34.3,0,57.2,27.8,51.2,62.1L1619.8,718.6z M1346.2,853.7h187.3c34.3,0,57.2,27.8,51.2,62.1     l-6.9,39c-6,34.3-38.8,62.1-73.1,62.1h-187.3c-29.5,0-49.3-21-50.8-48.6c0.1-0.1,0.2-0.2,0.3-0.3c-0.2-4.4-1.2-8.6-0.3-13.3     l7.1-40.3C1280.3,880.9,1312.4,853.7,1346.2,853.7z M0,1138h482.4L305.8,832.2L0,1138z M132.7,1083.1L294,921.7l93.1,161.4H132.7     z M157,487.7L532.5,1138H1049L673.5,487.7H157z M564.2,1083.1l-312-540.5h389.6l312,540.5H564.2z M1206,487.7H723.6l176.6,305.8     L1206,487.7z M1073.3,542.6L911.9,704l-93.1-161.4H1073.3z"
   id="path9" />
		</g>
	</g>
	<g
   id="g25"
   style="fill:#ffffff;fill-opacity:1">
		<g
   id="g9277_2_"
   transform="matrix(0,1.5459704,1.5459704,0,415.67057,649.33146)"
   style="fill:#ffffff;fill-opacity:1">
			<path
   id="path9279_2_"
   d="M-331.1,719.7V578.6h-82.1v-72.9h214.7v72.9h-86.3v141.1h86.3v72.9h-214.7v-72.9H-331.1"
   style="fill:#ffffff;fill-opacity:1" />
		</g>
		<g
   id="g9281_2_"
   transform="matrix(0,1.5459704,1.5459704,0,451.89266,657.95179)"
   style="fill:#ffffff;fill-opacity:1">
			<path
   id="path9283_2_"
   d="M-290.3,890.9l-83.4,50.8l83.4,49.2V890.9 M-418.7,913.4l214.7-130.8v55.7l-43.9,26.7v150.8l43.9,26v89     l-214.7-130.7V913.4"
   style="fill:#ffffff;fill-opacity:1" />
		</g>
		<g
   id="g9285_2_"
   transform="matrix(0,1.5459704,1.5459704,0,550.35088,651.36905)"
   style="fill:#ffffff;fill-opacity:1">
			<path
   id="path9287_2_"
   d="M-321.4,1356.5c-22.8,17.4-56.1,15-75.2-18.3c-17.8-31.1-24.4-90.4-24.4-127.5c0-59.3,4-97.5,9.6-129.9     h211.6v72.9h-179.5c-5.2,26.3-5.3,52.9-4.9,62.9c1.3,28.9,5.8,45.2,15,58.2c9.6,13.5,30.8,17.1,45.5-0.3     c11-13.1,19.6-39.6,10.6-98.9l13.8-8.4l99.5,112.1v99.3l-86.3-99.7C-289.1,1302.8-298.7,1339.1-321.4,1356.5"
   style="fill:#ffffff;fill-opacity:1" />
		</g>
		<g
   id="g9289_2_"
   transform="matrix(0,1.5459704,1.5459704,0,346.11736,647.86124)"
   style="fill:#ffffff;fill-opacity:1">
			<path
   id="path9291_2_"
   d="M-338,390.8c-8.2-42.1-13.3-77.9-26.9-77.9c-15.1,0-19,28.9-14.7,69.9c4.1,38.8,14.3,75.3,28.8,109.4     l-42.5,25.9c-10.5-27.6-23.9-84.4-25.5-135.9c-1.6-56.5,3.4-151.9,60.6-156c52.3-3.8,64.8,70.8,76.2,119.6     c11.1,47.7,15.1,92.3,31.6,92.3c11.6,0,20.7-15.7,17.5-57.4c-3.7-50.1-17.4-92.8-38.6-135.4l46.4-28.3     c18.4,47.2,33.3,109.1,34.2,164.9c1.1,66.3-9.6,141.2-66.4,142.9C-304.7,526.3-321.2,477.2-338,390.8"
   style="fill:#ffffff;fill-opacity:1" />
		</g>
		<g
   id="g9293_2_"
   transform="matrix(0,1.5459704,1.5459704,0,594.18532,651.0413)"
   style="fill:#ffffff;fill-opacity:1">
			<path
   id="path9295_2_"
   d="M-323,1563.7c10.3-12.6,14-31,13.9-60.1c-0.1-21.4-4-43.6-8.1-61.7h-61.9c-5.2,26.2-5.3,53.4-4.9,63.3     c1.2,29.1,6.2,46.1,15,58.7C-359.7,1577.2-337.6,1581.6-323,1563.7 M-396.4,1627.5c-17.6-29.7-24.4-85.3-24.4-127.9     c0-59.3,4-97.9,9.6-130.4h211.6v72.9h-77.5c3.8,22.5,5.9,50.8,5.8,75.2c-0.5,59.7-14.5,104-36.5,124.2     C-339.1,1670.2-376.9,1660.5-396.4,1627.5"
   style="fill:#ffffff;fill-opacity:1" />
		</g>
	</g>
</g>
</svg>
