<?xml version="1.0" encoding="utf-8"?>
<!-- Generator: Adobe Illustrator 25.4.1, SVG Export Plug-In . SVG Version: 6.00 Build 0)  -->
<svg version="1.1" id="Layer_1" xmlns="http://www.w3.org/2000/svg" xmlns:xlink="http://www.w3.org/1999/xlink" x="0px" y="0px"
	 viewBox="0 0 3839 939.8" style="enable-background:new 0 0 3839 939.8;" xml:space="preserve">
<style type="text/css">
	.st0{fill:#5B8000;}
</style>
<g>
	<g>
		<path class="st0" d="M1236.7,939.8c-6.2-6-12.3-12.1-18.4-18.1c-57.7-57.5-111.9-116-162.6-175.4c-5.3-6.3-10.7-12.5-15.9-18.8
			c-23.7-28.2-46.7-56.7-69-85.4c-50.6-65.4-114.7-154.9-193-268.2l-9.4-13.6c0,0,248.2-256.6,268.7-278.3c5.6-6,11.2-12,16.9-18.1
			c0,0,0,0,0,0c18.9-20.3,38.5-41.5,59-63.7c0,0,0,0,0,0c-8.3,6.2-17.1,12.3-26.4,18.6c-4.2,2.8-8.4,5.6-12.8,8.4
			c-1.3,0.8-2.6,1.6-3.9,2.5c-22.1,14-46.8,28.1-74.1,42.4c-4.8,2.5-9.7,5-14.7,7.6c-6.5,3.4-13.2,6.9-20.2,10.4
			c-3.5,1.7-7,3.5-10.6,5.3c-4.4,2.1-8.8,4.3-13.3,6.5c-17.8,8.6-37,17.5-57.4,26.6c-1.9,0.8-3.8,1.7-5.7,2.6
			c-70.1,31.2-155.3,65.7-255.4,104.1C518.2,196.5,433.1,162,362.9,130.7c-1.9-0.9-3.8-1.7-5.7-2.6c-20.4-9.2-39.6-18-57.4-26.6
			c-4.5-2.2-9-4.3-13.3-6.5c-3.6-1.8-7.1-3.5-10.6-5.3c-7-3.5-13.7-7-20.2-10.4c-5-2.5-9.9-5-14.7-7.6
			c-27.3-14.3-51.9-28.4-74.1-42.4c-1.3-0.8-2.6-1.6-3.9-2.5c-4.4-2.8-8.6-5.6-12.8-8.4c-9.3-6.2-18.1-12.4-26.4-18.6c0,0,0,0,0,0
			c20.5,22.2,40.1,43.4,59,63.7c10.6,6.4,10.6,6.4,0,0c5.7,6.1,11.3,12.2,16.9,18.1c10.2,6.5,10.2,6.5,0,0
			c20.5,21.7,268.7,278.3,268.7,278.3l-9.4,13.6c-78.3,113.3-142.4,202.8-193,268.2c-22.3,28.7-45.2,57.2-69,85.4
			c-5.3,6.3-10.6,12.5-15.9,18.8C130.2,805.7,76.1,864.1,18.4,921.6c-6.1,6.1-12.2,12.1-18.4,18.1c34.2-21,66.9-41.4,98-61.2
			c-31.1,19.8-12.9,8.5,25.7-16.5c6.4-4.2,12.7-8.5,19.1-12.8c0,0,0,0,0.1-0.1c111.4-74.6,226.7-157.9,325.5-236.8v0
			c51.7-41.3,101.8-83.2,150.1-126h0c48.3,42.8,98.4,84.7,150.1,126h0c98.8,78.9,214.1,162.2,325.5,236.8c0,0,0,0,0.1,0.1
			c6.4,4.2,12.6,8.5,19.1,12.8c15.9,10.3,33.3,21.3,25.7,16.5C1169.8,898.4,1202.5,918.9,1236.7,939.8z M768.4,360.8"/>
	</g>
	<g>
		<g>
			<polygon class="st0" points="3629.2,277.7 3431.9,437.3 3235.7,277.7 3124.7,277.7 3377.4,481.9 3124.7,686.1 3235.7,686.1 
				3431.9,525.5 3629.2,686.1 3739.2,686.1 3487.4,481.9 3739.2,277.7 			"/>
		</g>
		<g>
			<path class="st0" d="M2619.2,277.7c-47.6,45.6-71.4,113-71.4,204.2c0,91.2,23.8,158.6,71.4,204.2h403.4
				c45.6-45.6,69.4-114,69.4-204.2c0-91.2-23.8-158.6-69.4-204.2H2619.2z M3004.7,577.1l-18.8,42.6h-331l-18.8-42.6
				c-13.9-32.7-19.8-64.4-19.8-95.2c0-48.6,12.9-94.2,38.7-136.8h331c25.8,42.6,38.7,88.2,38.7,136.8
				C3024.6,512.6,3017.7,544.3,3004.7,577.1z"/>
		</g>
		<g>
			<path class="st0" d="M2474.5,449.2c-7-76.3-29.7-133.8-68.4-171.5h-403.4c-38.7,36.7-62.4,94.2-68.4,170.5h-65.4v67.4h65.4
				c6,76.3,29.7,132.8,68.4,170.5h403.4c38.7-38.7,61.4-95.2,68.4-170.5l-29.7-16.8v-33.7L2474.5,449.2z M2369.5,619.7h-330.1
				c-18.8-30.7-30.7-65.4-36.7-104.1h403.4C2400.2,554.3,2387.3,589,2369.5,619.7z M2002.7,448.2c6-38.6,17.8-72.3,36.7-103.1h330.1
				c17.8,30.7,30.7,64.4,36.7,103.1H2002.7z"/>
		</g>
		<g>
			<polygon class="st0" points="1898.7,277.7 1787.6,277.7 1591.4,437.3 1394.2,277.7 1285.2,277.7 1535.9,481.9 1285.2,686.1 
				1394.2,686.1 1591.4,525.5 1787.6,686.1 1898.7,686.1 1646.9,481.9 			"/>
		</g>
		<g>
			<polygon class="st0" points="3774.8,282.7 3785.2,282.7 3785.2,310.5 3790.9,310.5 3790.9,282.7 3801.3,282.7 3801.3,277.7 
				3774.8,277.7 			"/>
		</g>
		<g>
			<polygon class="st0" points="3831,277.7 3822.2,303.4 3822.1,303.4 3813.1,277.7 3805,277.7 3805,310.5 3810.5,310.5 
				3810.5,285.2 3810.6,285.2 3819.7,310.5 3824.4,310.5 3833.4,285.2 3833.5,285.2 3833.5,310.5 3839,310.5 3839,277.7 			"/>
		</g>
		<g>
			<polygon class="st0" points="1182.9,32.7 1188.6,32.7 1188.6,5 1199,5 1199,0 1172.5,0 1172.5,5 1182.9,5 			"/>
		</g>
		<g>
			<polygon class="st0" points="1219.9,25.6 1219.8,25.6 1210.8,0 1202.7,0 1202.7,32.7 1208.2,32.7 1208.2,7.5 1208.3,7.5 
				1217.4,32.7 1222.1,32.7 1231.2,7.5 1231.3,7.5 1231.3,32.7 1236.7,32.7 1236.7,0 1228.7,0 			"/>
		</g>
	</g>
	<path d="M468.3,360.2l-9.4,13.6c-5.3,7.6-10.5,15.1-15.6,22.6l25,199.9V360.2z"/>
	<path d="M768.4,360.2l9.4,13.6c5.3,7.6,10.5,15.1,15.6,22.6l-25,199.9V360.2z"/>
	<polygon points="634.1,228.8 618.4,234.8 602.6,228.8 618.4,486.5 618.4,486.5 	"/>
</g>
</svg>
