<?xml version="1.0" encoding="utf-8"?>
<!-- Generator: Adobe Illustrator 25.0.0, SVG Export Plug-In . SVG Version: 6.00 Build 0)  -->
<svg version="1.1" id="Layer_1" xmlns="http://www.w3.org/2000/svg" xmlns:xlink="http://www.w3.org/1999/xlink" x="0px" y="0px"
	 viewBox="0 0 3840 1239.2" style="enable-background:new 0 0 3840 1239.2;" xml:space="preserve">
<style type="text/css">
	.st0{fill:#F60F0E;}
	.st1{fill:#FFFFFF;}
</style>
<g>
	<g>
		<rect x="683.6" class="st1" width="118" height="93.4"/>
		<g>
			<rect x="683.6" y="128.1" class="st1" width="118" height="391.3"/>
			<rect x="3039.4" y="128.1" class="st1" width="118" height="391.3"/>
			<rect x="2198" y="0" class="st1" width="118" height="519.3"/>
			<polygon class="st1" points="950.8,128.1 832.8,128.1 832.8,221.4 832.8,519.3 950.8,519.3 950.8,221.4 1366.2,221.4 
				1366.2,519.3 1484.2,519.3 1484.2,221.4 1484.2,128.1 1366.2,128.1 			"/>
			<polygon class="st1" points="3840,128.1 3306.6,128.1 3188.6,128.1 3188.6,221.4 3188.6,519.3 3306.6,519.3 3306.6,221.4 
				3840,221.4 			"/>
			<polygon class="st1" points="1,153.8 0,153.8 0,277 0,370.4 0,371.7 118,371.7 118,370.4 533.4,370.4 533.4,426 1,426 1,519.3 
				533.4,519.3 651.4,519.3 652.4,519.3 652.4,426 651.4,426 651.4,370.4 651.4,277 651.4,275.7 533.4,275.7 533.4,277 118,277 
				118,221.4 652.4,221.4 652.4,128.1 1,128.1 			"/>
			<polygon class="st1" points="1515.4,128.1 1515.4,221.4 1515.4,426 1515.4,519.3 1633.4,519.3 2166.7,519.3 2166.7,426 
				1633.4,426 1633.4,221.4 2166.7,221.4 2166.7,128.1 1633.4,128.1 			"/>
			<path class="st1" d="M2998.5,128.1h-108.3h-4.4h-538.6v93.4h538.6V277h-538.6v5v88.4V426v93.4h118h420.6h4.4h108.3h5.3h4.4V128.1
				h-4.4H2998.5z M2465.2,426v-55.6h420.6V426H2465.2z"/>
		</g>
		<rect x="3039.4" class="st1" width="118" height="93.4"/>
	</g>
	<g>
		<path class="st0" d="M1085.8,1127.3l310.4-371.2h-286.1v-107h455.5v100.5l-310.4,371.2h318.5v107h-487.9V1127.3z"/>
		<path class="st0" d="M1778.7,924.7l-173.4-275.6h137.2L1848,833.9l109.3-184.8H2087l-172.6,276.4l187.7,302.3h-141l-117.6-200.2
			l-119.9,200.2h-133.4L1778.7,924.7z"/>
		<path class="st0" d="M2332.1,649.1c143.9,0,193.5,97.3,193.5,152.4c0,55.9-29.8,101.3-84.3,119.2v1.6
			c68.6,15.4,108.3,67.3,108.3,138.6c0,119.2-109.1,178.3-216.6,178.3c-111.6,0-219.9-55.1-219.9-177.5
			c0-72.1,41.3-123.2,109.1-139.4v-1.6c-56.2-15.4-85.2-60.8-85.2-116.7C2137,701.8,2237.9,649.1,2332.1,649.1z M2333,1152.5
			c56.2,0,99.2-38.9,99.2-95.6c0-54.3-44.6-90.8-99.2-90.8c-57,0-102.5,31.6-102.5,90C2230.4,1114.4,2276.7,1152.5,2333,1152.5z
			 M2332.1,889c48,0,86.8-25.9,86.8-74.6c0-29.2-14.1-78.6-86.8-78.6c-47.1,0-88.5,28.4-88.5,78.6C2243.7,863.9,2285,889,2332.1,889
			z"/>
		<path class="st0" d="M2627,649.1h127.3v578.7H2627V649.1z"/>
	</g>
</g>
</svg>
