<?xml version="1.0" encoding="utf-8"?>
<!-- Generator: Adobe Illustrator 26.0.1, SVG Export Plug-In . SVG Version: 6.00 Build 0)  -->
<svg version="1.1" id="Layer_1" xmlns="http://www.w3.org/2000/svg" xmlns:xlink="http://www.w3.org/1999/xlink" x="0px" y="0px"
	 viewBox="0 0 3839 1236.5" style="enable-background:new 0 0 3839 1236.5;" xml:space="preserve">
<style type="text/css">
	.st0{fill:#FFFFFF;}
	.st1{fill:#00A7E1;}
	.st2{fill:#3D9B00;}
	.st3{fill:#FFC610;}
	.st4{fill:#FF1F1F;}
</style>
<g>
	<rect x="633.1" y="154.1" class="st0" width="109.3" height="86.5"/>
	<g>
		<g>
			<polygon class="st1" points="2960,0 2695.1,0 3574,1236.5 3839,1236.5 			"/>
			<polygon class="st2" points="2695.1,0 2430.1,0 3309,1236.5 3574,1236.5 			"/>
			<polygon class="st3" points="2430.1,0 2165.1,0 3044,1236.5 3309,1236.5 			"/>
		</g>
		<polygon class="st4" points="2165.1,0 1900.1,0 2779.1,1236.5 3044,1236.5 		"/>
	</g>
	<g>
		<rect x="633.1" y="272.6" class="st0" width="109.3" height="362.4"/>
		<rect x="2815" y="272.6" class="st0" width="109.3" height="362.4"/>
		<rect x="2035.6" y="154.1" class="st0" width="109.3" height="481"/>
		<polygon class="st0" points="880.6,272.6 771.3,272.6 771.3,359.1 771.3,635 880.6,635 880.6,359.1 1265.3,359.1 1265.3,635 
			1374.5,635 1374.5,359.1 1374.5,272.6 1265.3,272.6 		"/>
		<polygon class="st0" points="3556.4,272.6 3062.4,272.6 2953.1,272.6 2953.1,359.1 2953.1,635 3062.4,635 3062.4,359.1 
			3556.4,359.1 		"/>
		<polygon class="st0" points="0.9,296.5 0,296.5 0,410.6 0,497.1 0,498.3 109.3,498.3 109.3,497.1 494,497.1 494,548.6 0.9,548.6 
			0.9,635 494,635 603.2,635 604.1,635 604.1,548.6 603.2,548.6 603.2,497.1 603.2,410.6 603.2,409.3 494,409.3 494,410.6 
			109.3,410.6 109.3,359.1 604.1,359.1 604.1,272.6 0.9,272.6 		"/>
		<polygon class="st0" points="1403.4,272.6 1403.4,359.1 1403.4,548.6 1403.4,635 1512.7,635 2006.7,635 2006.7,548.6 
			1512.7,548.6 1512.7,359.1 2006.7,359.1 2006.7,272.6 1512.7,272.6 		"/>
		<path class="st0" d="M2777.1,272.6h-100.4h-4.1h-498.9v86.5h498.9v51.5h-498.9v4.6v81.9v51.5V635H2283h389.6h4.1h100.4h4.9h4.1
			V272.6h-4.1H2777.1z M2283.1,548.6v-51.5h389.6v51.5H2283.1z"/>
	</g>
	<g>
		<path class="st1" d="M1.6,1038.8l162-193.6H14.3v-55.8h237.6v52.4L90,1035.4h166.2v55.8H1.6V1038.8z"/>
		<path class="st1" d="M373.3,933.2L276,789.4h77l59.2,96.5l61.3-96.5h72.8l-96.9,144.3l105.3,157.8h-79.1l-66-104.5l-67.3,104.5
			h-74.9L373.3,933.2z"/>
		<path class="st1" d="M659.6,991c0,40.2,31.3,55.8,66.8,55.8c23.3,0,58.8-6.8,58.8-37.6c0-32.6-45.3-38.1-89.7-49.9
			c-44.8-11.8-90.1-29.2-90.1-85.9c0-61.8,58.4-91.4,112.9-91.4c63,0,121,27.5,121,97.3H775c-2.1-36.4-27.9-45.7-59.6-45.7
			c-21.2,0-45.7,8.9-45.7,34.3c0,23.3,14.4,26.2,90.1,45.7c22,5.5,89.7,19.5,89.7,88c0,55.4-43.6,96.9-125.6,96.9
			c-66.8,0-129.4-33-128.6-107.4L659.6,991L659.6,991z"/>
		<path class="st1" d="M869.8,872.7h57.1v27.9h0.8c14.4-23.3,38.1-33.8,65.1-33.8c68.5,0,99.4,55.4,99.4,117.6
			c0,58.4-32.2,112.9-96,112.9c-26.2,0-51.2-11.4-65.6-33h-0.8v104.1h-60V872.7z M1032.1,982.6c0-34.7-14-70.6-52.5-70.6
			c-39.3,0-52,35.1-52,70.6c0,35.5,13.5,69.4,52.5,69.4C1019.5,1051.9,1032.1,1018.1,1032.1,982.6z"/>
		<path class="st1" d="M1165,996.5c1.7,38.1,20.3,55.4,53.7,55.4c24.1,0,43.6-14.8,47.4-28.3h52.9c-16.9,51.6-52.9,73.6-102.4,73.6
			c-69,0-111.7-47.4-111.7-115.1c0-65.6,45.3-115.5,111.7-115.5c74.5,0,110.4,62.6,106.2,129.9L1165,996.5L1165,996.5z
			 M1262.7,958.5c-5.5-30.5-18.6-46.5-47.8-46.5c-38.1,0-49.1,29.6-49.9,46.5H1262.7z"/>
		<path class="st1" d="M1494.4,949.7c-3.8-24.5-19.5-37.6-44.4-37.6c-38.5,0-51.2,38.9-51.2,71.1c0,31.3,12.3,68.9,49.9,68.9
			c27.9,0,44-17.8,47.8-44.4h58c-7.6,57.9-47.8,89.7-105.3,89.7c-66,0-110.4-46.5-110.4-112.1c0-68.1,40.6-118.4,111.7-118.4
			c51.6,0,99,27.1,102.8,82.9L1494.4,949.7L1494.4,949.7z"/>
		<path class="st1" d="M1651.7,872.7h44v40.2h-44v108.3c0,20.3,5.1,25.4,25.4,25.4c6.3,0,12.3-0.4,18.6-1.7v47
			c-10.2,1.7-23.3,2.1-35.1,2.1c-36.8,0-69-8.5-69-52V913h-36.4v-40.2h36.4v-65.6h60.1V872.7z"/>
		<path class="st1" d="M1711.8,872.7h57.1v40.6h0.8c11-27.5,40.6-46.5,69.8-46.5c4.2,0,9.3,0.8,13.1,2.1v55.8
			c-5.5-1.3-14.4-2.1-21.6-2.1c-44,0-59.2,31.7-59.2,70.2v98.6h-60.1L1711.8,872.7L1711.8,872.7z"/>
		<path class="st1" d="M2068.7,1091.3h-57.1v-30.5h-1.3c-15.2,24.5-41.5,36.4-66.8,36.4c-63.9,0-80-36-80-90.1V872.7h60.1v123.5
			c0,36,10.6,53.7,38.5,53.7c32.6,0,46.5-18.2,46.5-62.6V872.7h60.1V1091.3z"/>
		<path class="st1" d="M2103.4,872.7h56.7v29.6h0.8c15.7-22.4,38.5-35.5,66.8-35.5c27.5,0,52,10.2,63.9,36.4
			c12.7-19,35.5-36.4,66-36.4c46.5,0,80,21.6,80,78.3v146.4h-60.1V967.3c0-29.2-2.5-53.3-36.8-53.3c-33.8,0-40.2,27.9-40.2,55.4
			v121.8h-60.1V968.6c0-25.4,1.7-54.6-36.4-54.6c-11.8,0-40.6,7.6-40.6,50.3v126.9h-60.1V872.7H2103.4z"/>
	</g>
	<rect x="2814.9" y="154.1" class="st0" width="109.3" height="86.5"/>
</g>
</svg>
