<?xml version="1.0" encoding="utf-8"?>
<svg width="100%" height="100%" viewBox="0 0 60 60" version="1.1" style="fill-rule:evenodd;clip-rule:evenodd;stroke-linejoin:round;stroke-miterlimit:2;" xmlns="http://www.w3.org/2000/svg">
  <path d="M60,0L60,60L0,60L0,0L60,0ZM30,15C21.721,15 15,21.721 15,30C15,38.279 21.721,45 30,45C38.279,45 45,38.279 45,30C45,21.721 38.279,15 30,15Z"/>
  <path d="M 30 14 C 39.382 14 47 21.618 47 31 C 47 40.382 39.382 48 30 48 C 20.618 48 13 40.382 13 31 C 13 21.618 20.618 14 30 14 Z M 30 16 C 21.722 16 15 22.722 15 31 C 15 39.278 21.722 46 30 46 C 38.278 46 45 39.278 45 31 C 45 22.722 38.278 16 30 16 Z"/>
  <path d="M 30 13 C 39.382 13 47 20.618 47 30 C 47 39.382 39.382 47 30 47 C 20.618 47 13 39.382 13 30 C 13 20.618 20.618 13 30 13 Z M 30 15 C 21.722 15 15 21.722 15 30 C 15 38.278 21.722 45 30 45 C 38.278 45 45 38.278 45 30 C 45 21.722 38.278 15 30 15 Z" style="fill:rgb(204,204,204);"/>
</svg>