<?xml version="1.0" encoding="UTF-8" standalone="no"?>
<!DOCTYPE svg PUBLIC "-//W3C//DTD SVG 1.1//EN" "http://www.w3.org/Graphics/SVG/1.1/DTD/svg11.dtd">
<svg width="100%" height="100%" viewBox="0 0 32 32" version="1.1" xmlns="http://www.w3.org/2000/svg" xmlns:xlink="http://www.w3.org/1999/xlink" xml:space="preserve" xmlns:serif="http://www.serif.com/" style="fill-rule:evenodd;clip-rule:evenodd;stroke-linejoin:round;stroke-miterlimit:2;">
    <g transform="matrix(0.105847,0,0,0.105847,2.4621,2.875)">
        <path d="M176,32L80,32C66.834,32 56,42.834 56,56L56,224C56,237.166 66.834,248 80,248L176,248C189.166,248 200,237.166 200,224L200,56C200,42.834 189.166,32 176,32ZM184,224C184,228.389 180.389,232 176,232L80,232C75.611,232 72,228.389 72,224L72,56C72,51.611 75.611,48 80,48L176,48C180.389,48 184,51.611 184,56L184,224ZM168,200C168,204.389 164.389,208 160,208L96,208C91.611,208 88,204.389 88,200C88,195.611 91.611,192 96,192L160,192C164.389,192 168,195.611 168,200ZM88,8C88,3.611 91.611,0 96,0L160,0C164.389,-0 168,3.611 168,8C168,12.389 164.389,16 160,16L96,16C91.611,16 88,12.389 88,8ZM168,160C168,164.389 164.389,168 160,168L96,168C91.611,168 88,164.389 88,160C88,155.611 91.611,152 96,152L160,152C164.389,152 168,155.611 168,160Z" style="fill:white;fill-rule:nonzero;"/>
    </g>
</svg>
