<?xml version="1.0" encoding="UTF-8" standalone="no"?>
<!DOCTYPE svg PUBLIC "-//W3C//DTD SVG 1.1//EN" "http://www.w3.org/Graphics/SVG/1.1/DTD/svg11.dtd">
<svg width="100%" height="100%" viewBox="0 0 32 32" version="1.1" xmlns="http://www.w3.org/2000/svg" xmlns:xlink="http://www.w3.org/1999/xlink" xml:space="preserve" xmlns:serif="http://www.serif.com/" style="fill-rule:evenodd;clip-rule:evenodd;stroke-linejoin:round;stroke-miterlimit:2;">
    <g transform="matrix(0.105847,0,0,0.105847,2.4621,2.875)">
        <path d="M150.81,131.79C152.268,134.148 152.401,137.101 151.16,139.58L135.16,171.58C133.806,174.288 131.027,176.005 128,176.005C123.609,176.005 119.995,172.391 119.995,168C119.995,166.757 120.284,165.532 120.84,164.42L131.06,144L112,144C111.998,144 111.996,144 111.994,144C107.606,144 103.994,140.389 103.994,136C103.994,134.757 104.284,133.531 104.84,132.42L120.84,100.42C122.194,97.712 124.973,95.995 128,95.995C132.391,95.995 136.005,99.609 136.005,104C136.005,105.243 135.716,106.468 135.16,107.58L124.94,128L144,128C146.77,127.997 149.352,129.434 150.81,131.79ZM96,16L160,16C164.389,16 168,12.389 168,8C168,3.611 164.389,0 160,0L96,0C91.611,0 88,3.611 88,8C88,12.389 91.611,16 96,16ZM200,56L200,224C200,237.166 189.166,248 176,248L80,248C66.834,248 56,237.166 56,224L56,56C56,42.834 66.834,32 80,32L176,32C189.166,32 200,42.834 200,56ZM184,56C184,51.611 180.389,48 176,48L80,48C75.611,48 72,51.611 72,56L72,224C72,228.389 75.611,232 80,232L176,232C180.389,232 184,228.389 184,224L184,56Z" style="fill:white;fill-rule:nonzero;"/>
    </g>
</svg>
