<?xml version="1.0" encoding="UTF-8" standalone="no"?>
<!DOCTYPE svg PUBLIC "-//W3C//DTD SVG 1.1//EN" "http://www.w3.org/Graphics/SVG/1.1/DTD/svg11.dtd">
<svg width="100%" height="100%" viewBox="0 0 1280 60" version="1.1" xmlns="http://www.w3.org/2000/svg" xmlns:xlink="http://www.w3.org/1999/xlink" xml:space="preserve" xmlns:serif="http://www.serif.com/" style="fill-rule:evenodd;clip-rule:evenodd;stroke-linejoin:round;stroke-miterlimit:2;">
    <g transform="matrix(12.8,0,0,0.0833333,0,0)">
        <rect id="Artboard1" x="0" y="0" width="100" height="720" style="fill-opacity:0;"/>
        <clipPath id="_clip1">
            <rect id="Artboard11" serif:id="Artboard1" x="0" y="0" width="100" height="720"/>
        </clipPath>
        <g clip-path="url(#_clip1)">
            <g transform="matrix(0.078125,0,0,12,0,0)">
                <path d="M1280,0L1280,60L0,60L0,0L1280,0ZM30,15C21.721,15 15,21.721 15,30C15,38.279 21.721,45 30,45C38.279,45 45,38.279 45,30C45,21.721 38.279,15 30,15Z"/>
            </g>
            <g transform="matrix(0.0600962,0,0,6,-0.450721,-558)">
                <path d="M46.5,121C58.697,121 68.6,136.235 68.6,155C68.6,173.765 58.697,189 46.5,189C34.303,189 24.4,173.765 24.4,155C24.4,136.235 34.303,121 46.5,121ZM46.5,125C35.738,125 27,138.443 27,155C27,171.557 35.738,185 46.5,185C57.262,185 66,171.557 66,155C66,138.443 57.262,125 46.5,125Z"/>
            </g>
            <g transform="matrix(0.0600962,0,0,6,-0.450721,-570)">
                <path d="M46.5,121C58.697,121 68.6,136.235 68.6,155C68.6,173.765 58.697,189 46.5,189C34.303,189 24.4,173.765 24.4,155C24.4,136.235 34.303,121 46.5,121ZM46.5,125C35.738,125 27,138.443 27,155C27,171.557 35.738,185 46.5,185C57.262,185 66,171.557 66,155C66,138.443 57.262,125 46.5,125Z" style="fill:rgb(204,204,204);"/>
            </g>
        </g>
    </g>
</svg>
